<?xml version="1.0" encoding="utf-8"?>
<!-- Generator: Adobe Illustrator 27.3.1, SVG Export Plug-In . SVG Version: 6.00 Build 0)  -->
<svg version="1.1" id="Layer_1" xmlns="http://www.w3.org/2000/svg" xmlns:xlink="http://www.w3.org/1999/xlink" x="0px" y="0px"
	 viewBox="0 0 22 12" style="enable-background:new 0 0 22 12;" xml:space="preserve">
<style type="text/css">
	.st0{fill:#51833C;}
	.st1{fill-rule:evenodd;clip-rule:evenodd;fill:#0070B6;}
	.st2{fill:#FFFFFF;}
	.st3{font-family:'FefdyTypeRegular';}
	.st4{font-size:0.408px;}
	.st5{opacity:0.26;}
	.st6{fill:#C28049;}
	.st7{fill:#F3EDE3;}
	.st8{opacity:0.2;fill:#C28049;}
	.st9{fill:#F1E3C7;}
	.st10{opacity:0.74;fill:#FFFFFF;}
	.st11{fill:#9EC46D;}
	.st12{fill:#7DB364;}
	.st13{fill:#65975D;}
	.st14{fill:#C0CF81;}
	.st15{fill:#BF5F4C;}
	.st16{fill:#DE5F45;}
	.st17{fill:#E9876F;}
	.st18{fill:#9A3E3C;}
	.st19{fill:#F7D89D;}
	.st20{fill:#DD8C83;}
	.st21{fill:#F1BFB2;}
	.st22{fill-rule:evenodd;clip-rule:evenodd;fill:url(#SVGID_1_);}
	.st23{fill-rule:evenodd;clip-rule:evenodd;fill:#F2C33A;}
	.st24{fill:#E1DDC2;}
	.st25{fill-rule:evenodd;clip-rule:evenodd;fill:url(#SVGID_00000168834307724351787150000012484556326682413188_);}
	.st26{fill:#B23F44;}
	.st27{fill:#E77D64;}
	.st28{fill:#C94648;}
	.st29{opacity:0.69;}
	.st30{opacity:0.51;fill-rule:evenodd;clip-rule:evenodd;fill:#AE8D6E;}
	.st31{opacity:0.11;fill:#C28049;}
	.st32{opacity:0.3;fill:#C28049;}
	.st33{fill:none;stroke:#DF4145;stroke-width:0.1759;stroke-miterlimit:10;}
	.st34{fill:#1D2F3C;}
	.st35{fill:#D89A47;}
	.st36{fill:#F5C23C;}
	.st37{fill:#B07947;}
	.st38{fill:#7A5C34;}
	.st39{fill:#F2C92D;}
	.st40{opacity:0.3;}
	.st41{fill:#544E87;}
	.st42{opacity:0.65;}
	.st43{fill:none;stroke:#000000;stroke-width:0.1105;stroke-miterlimit:10;}
	.st44{font-family:'MyriadPro-Regular';}
	.st45{font-size:0.5865px;}
</style>
<rect class="st0" width="22" height="12"/>
<g id="triangle_00000101079072889061953740000015673819618719322003_">
	<g>
		<polygon class="st1" points="9.85,7.14 10.96,4.91 12.23,7.14 		"/>
		<path d="M11,4.93l1.15,2.16H9.85L11,4.93 M11,4.73l-0.08,0.16L9.76,7.05L9.69,7.19h0.16h2.31h0.16l-0.08-0.14l-1.15-2.16L11,4.73
			L11,4.73z"/>
	</g>
</g>
<g id="sandwich">
	<text transform="matrix(1 0 0 1 15.8652 4.0589)" class="st2 st3 st4">Sandwich</text>
</g>
<g id="set_square_00000055666045029909482130000007564471824133599393_">
	<text transform="matrix(1 0 0 1 15.9991 11.2165)" class="st2 st3 st4">Set square</text>
</g>
<g id="sandwitch">
	<g>
		<g class="st5">
			<path class="st6" d="M17.88,2.49c-0.03,0.03-0.01,0.05,0.01,0.03C17.89,2.5,17.89,2.49,17.88,2.49z"/>
		</g>
		<g>
			<g>
				<path class="st7" d="M16.7,0.77c-0.04-0.04-0.1-0.07-0.16-0.09c-0.03-0.01-0.09-0.04-0.13-0.02c-0.14,0.1-0.62,0.49-0.64,0.51
					c-0.05,0.04-1.03,0.85-1.04,0.86c-0.02,0.01-0.46,0.45-0.53,0.52c-0.01,0.01-0.01,0.01-0.01,0.02l-0.03,0.09
					c-0.01,0.03,0,0.06,0.02,0.07l0.05,0.03c0.01,0,0.07,0.05,0.08,0.05l0.41-0.17c0,0,0,0,0.01,0l0.73-0.28
					c0.01,0,0.01,0,0.01-0.01l0.49-0.41c0,0,0.01-0.01,0.01-0.01l0.69-1.08C16.69,0.81,16.72,0.79,16.7,0.77z"/>
				<path class="st8" d="M16.71,0.81c-0.01-0.03-0.03-0.07-0.07-0.07c-0.09,0.01-0.2,0.08-0.26,0.13c-0.07,0.05-0.13,0.1-0.2,0.15
					c-0.04,0.03-0.09,0.06-0.13,0.1c-0.04,0.03-0.07,0.07-0.1,0.11c-0.07,0.08-0.14,0.14-0.22,0.2c-0.08,0.06-0.15,0.13-0.22,0.2
					c-0.07,0.07-0.16,0.12-0.24,0.17c-0.09,0.06-0.14,0.13-0.22,0.2c-0.08,0.07-0.16,0.14-0.24,0.21c-0.09,0.08-0.21,0.18-0.31,0.25
					c-0.09,0.07-0.16,0.15-0.23,0.29c-0.01,0.03,0.03,0.05,0.06,0.05c0.03,0,0.08-0.05,0.08-0.08c0-0.02,0-0.03,0.01-0.06
					c0,0,0.01-0.01,0.01-0.02c0.01-0.01,0.01-0.02,0.02-0.03c0.03-0.04,0.07-0.07,0.1-0.1c0.08-0.07,0.16-0.13,0.24-0.2
					c0.08-0.07,0.16-0.14,0.25-0.2c0.08-0.06,0.15-0.13,0.24-0.19c0.08-0.06,0.17-0.11,0.25-0.17c0.08-0.06,0.14-0.14,0.22-0.2
					c0.07-0.06,0.15-0.11,0.22-0.18c0.07-0.07,0.12-0.15,0.2-0.21c0.04-0.03,0.09-0.06,0.13-0.1c0.04-0.03,0.07-0.06,0.1-0.08
					c0.06-0.05,0.13-0.1,0.22-0.11C16.67,0.88,16.72,0.84,16.71,0.81z"/>
				<path class="st9" d="M14.36,2.63c0.29-0.25,0.59-0.5,0.89-0.75c0.22-0.19,0.45-0.37,0.67-0.56c0.19-0.16,0.36-0.34,0.56-0.48
					c0.05-0.04,0.14-0.12,0.21-0.09c0.03,0.01,0.04,0.04,0.05,0.06c0.21,0.4,0.39,0.8,0.57,1.21c0.03,0.07,0.06,0.14,0.09,0.22
					c0.02,0.04,0.06,0.11,0.04,0.15c-0.01,0.02-0.03,0.03-0.04,0.05c-0.06,0.04-0.14,0.07-0.24,0.1c-0.02,0.01-2.52,0.22-2.81,0.25
					c-0.02,0-0.03-0.01-0.04-0.02C14.29,2.76,14.34,2.65,14.36,2.63z"/>
				<path class="st8" d="M17.44,2.39c-0.01,0.02-0.02,0.03-0.04,0.05c-0.06,0.04-0.14,0.07-0.24,0.1c-0.02,0.01-2.53,0.24-2.82,0.27
					c-0.02,0,0.47-0.11,0.73-0.14c0.44-0.06,0.88-0.14,1.32-0.17c0.2-0.01,0.66,0.02,0.76-0.22c0.02-0.05,0-0.1-0.02-0.15
					c-0.07-0.17-0.16-0.33-0.14-0.52c0-0.09,0.02-0.17,0.03-0.26c0.11,0.22,0.21,0.45,0.3,0.68c0.03,0.07,0.06,0.14,0.09,0.22
					C17.42,2.28,17.46,2.35,17.44,2.39z"/>
				<path class="st10" d="M16.75,0.93c0.01,0.01,0.01,0.02,0.02,0.03c0.05,0.08,0.11,0.17,0.16,0.25c0.01-0.02-0.12-0.25-0.19-0.38
					c-0.01-0.03-0.03-0.05-0.05-0.06c-0.07-0.03-0.16,0.05-0.21,0.09c-0.2,0.14-0.37,0.32-0.56,0.48c-0.22,0.19-0.45,0.37-0.67,0.56
					c-0.3,0.25-0.59,0.49-0.89,0.75c-0.02,0.01-0.05,0.09-0.06,0.13c0,0,0,0,0.01-0.01c0.2-0.25,0.6-0.51,0.9-0.76
					c0.23-0.19,0.46-0.38,0.68-0.57c0.19-0.16,0.37-0.35,0.57-0.49c0.05-0.04,0.14-0.12,0.21-0.09c0.03,0.01,0.04,0.04,0.06,0.07
					C16.74,0.91,16.74,0.92,16.75,0.93C16.75,0.92,16.75,0.93,16.75,0.93z"/>
			</g>
			<g>
				<path class="st11" d="M14.79,3.08c0.01,0.06-0.09,0.04-0.16,0.02c-0.08-0.02-0.05-0.11-0.08-0.16
					c-0.05-0.08-0.13,0.01-0.13-0.12c0-0.04,0.01-0.07,0.04-0.08c0.03-0.01,0.05-0.03,0.07-0.05c0.04-0.04,0.06-0.1,0.05-0.17
					c0-0.09,0.03-0.1,0.09-0.13c0.02-0.01,0.05-0.03,0.06-0.04c0.02-0.03,0.01-0.07,0.01-0.12c0-0.08,0.08-0.09,0.14-0.1
					c0.06-0.01,0.08-0.06,0.11-0.11c0.02-0.03,0.04-0.07,0.07-0.08c0.03-0.01,0.06,0.02,0.1,0.03C15.2,2,15.22,1.98,15.24,1.95
					c0.02-0.03,0.05-0.05,0.09-0.06c0.06-0.02,0.18,0.01,0.24,0.08c0.07,0.08,0.07,0.16,0.04,0.21c-0.05,0.08-0.11,0.15-0.16,0.23
					c-0.03,0.05-0.06,0.09-0.11,0.11c-0.06,0.02-0.12,0.03-0.17,0.06c-0.05,0.03-0.09,0.09-0.1,0.15c-0.01,0.05-0.01,0.11-0.01,0.17
					c0,0.07-0.08,0.12-0.15,0.13c-0.02,0-0.04,0-0.06,0.01C14.82,3.04,14.8,3.1,14.79,3.08z"/>
				<path class="st12" d="M14.84,3.05c0.01,0.06-0.07,0.08-0.14,0.05C14.63,3.08,14.65,3,14.62,2.95c-0.05-0.08-0.13,0-0.13-0.12
					c0-0.03,0.01-0.07,0.03-0.08c0.03-0.01,0.05-0.02,0.07-0.04c0.04-0.03,0.05-0.09,0.05-0.16c-0.01-0.08,0.02-0.1,0.08-0.12
					c0.02-0.01,0.04-0.02,0.06-0.04c0.02-0.03,0-0.07,0-0.11c-0.01-0.08,0.07-0.09,0.13-0.09c0.06,0,0.08-0.05,0.1-0.1
					c0.01-0.02,0.03-0.06,0.06-0.07c0.03-0.01,0.06,0.02,0.09,0.04c0.04,0.01,0.05-0.01,0.07-0.03c0.02-0.03,0.04-0.05,0.08-0.06
					c0.06-0.02,0.17,0.02,0.23,0.09c0.07,0.08,0.04,0.13,0.02,0.18c-0.05,0.07-0.08,0.17-0.13,0.24c-0.03,0.04-0.05,0.08-0.1,0.1
					c-0.06,0.02-0.12,0.02-0.16,0.05c-0.05,0.03-0.08,0.08-0.1,0.14c-0.01,0.05,0,0.1,0,0.16c0,0.07-0.07,0.11-0.14,0.12
					c-0.02,0-0.04,0-0.06,0.01C14.88,3.05,14.84,3.06,14.84,3.05z"/>
			</g>
			<g>
				<path class="st13" d="M15.33,2.24c0,0.06-0.09,0.01-0.15-0.03c-0.07-0.05-0.03-0.12-0.05-0.18c-0.04-0.09-0.12-0.04-0.1-0.16
					c0.01-0.03,0.02-0.06,0.05-0.06c0.03,0,0.05-0.01,0.07-0.02c0.05-0.02,0.07-0.08,0.07-0.15c0.01-0.08,0.04-0.09,0.1-0.1
					c0.02,0,0.04-0.01,0.06-0.02c0.03-0.02,0.02-0.07,0.02-0.11c0.01-0.08,0.09-0.06,0.14-0.05c0.06,0.01,0.08-0.03,0.11-0.07
					c0.02-0.02,0.04-0.05,0.07-0.05c0.03,0,0.05,0.04,0.08,0.06c0.03,0.03,0.05,0.01,0.07,0c0.03-0.02,0.05-0.04,0.09-0.04
					c0.06,0,0.16,0.07,0.21,0.16c0.05,0.1,0.04,0.18,0,0.21c-0.06,0.06-0.12,0.11-0.18,0.17c-0.03,0.03-0.06,0.07-0.12,0.07
					c-0.06,0-0.12-0.01-0.17,0.01c-0.05,0.02-0.09,0.06-0.12,0.11c-0.02,0.05-0.02,0.1-0.03,0.16c-0.01,0.07-0.09,0.09-0.15,0.08
					c-0.02,0-0.04-0.01-0.06-0.01C15.36,2.2,15.33,2.26,15.33,2.24z"/>
				<path class="st14" d="M15.37,2.22c0,0.06-0.08,0.05-0.13,0.01c-0.06-0.05-0.03-0.12-0.05-0.18c-0.04-0.09-0.12-0.04-0.1-0.16
					c0.01-0.03,0.01-0.06,0.04-0.06c0.03,0,0.05-0.01,0.07-0.02c0.04-0.02,0.06-0.07,0.07-0.14c0.01-0.08,0.03-0.09,0.09-0.09
					c0.02,0,0.04-0.01,0.06-0.02c0.02-0.02,0.01-0.07,0.02-0.11c0-0.08,0.08-0.06,0.13-0.04c0.06,0.02,0.08-0.03,0.11-0.06
					c0.02-0.02,0.04-0.05,0.07-0.05c0.03,0,0.05,0.04,0.08,0.07c0.03,0.03,0.05,0.01,0.07,0c0.02-0.02,0.05-0.03,0.08-0.03
					c0.05,0,0.15,0.07,0.2,0.16c0.05,0.1,0.02,0.14-0.01,0.18c-0.05,0.06-0.1,0.13-0.15,0.19c-0.03,0.03-0.06,0.06-0.11,0.06
					c-0.05,0-0.11-0.02-0.16,0c-0.05,0.02-0.09,0.05-0.11,0.1c-0.02,0.04-0.02,0.1-0.02,0.15c-0.01,0.07-0.08,0.08-0.14,0.07
					c-0.02,0-0.04-0.01-0.06-0.01C15.41,2.24,15.37,2.24,15.37,2.22z"/>
			</g>
			<g>
				<path class="st11" d="M15.88,1.66c-0.02,0.05-0.1-0.01-0.14-0.05c-0.05-0.05,0.01-0.11,0-0.17c-0.01-0.09-0.12-0.05-0.05-0.16
					c0.02-0.03,0.04-0.06,0.07-0.05c0.03,0,0.05,0,0.09-0.01c0.05-0.01,0.09-0.06,0.12-0.12c0.04-0.07,0.07-0.08,0.14-0.08
					c0.02,0,0.05,0,0.07-0.01c0.03-0.02,0.04-0.06,0.06-0.1c0.03-0.07,0.11-0.05,0.17-0.03c0.06,0.02,0.1-0.02,0.14-0.05
					c0.03-0.02,0.06-0.04,0.09-0.04c0.03,0.01,0.04,0.04,0.07,0.07c0.03,0.03,0.05,0.02,0.08,0c0.03-0.01,0.06-0.03,0.1-0.02
					c0.06,0.01,0.15,0.08,0.17,0.17c0.02,0.09-0.02,0.16-0.07,0.19c-0.08,0.05-0.16,0.08-0.25,0.13C16.69,1.38,16.65,1.4,16.6,1.4
					c-0.06-0.01-0.12-0.03-0.18-0.02c-0.06,0.01-0.12,0.04-0.16,0.09c-0.04,0.04-0.05,0.09-0.08,0.14C16.15,1.67,16.06,1.67,16,1.66
					c-0.02-0.01-0.04-0.01-0.06-0.02C15.93,1.63,15.88,1.68,15.88,1.66z"/>
				<path class="st12" d="M15.94,1.65c-0.02,0.05-0.1,0.04-0.14-0.01c-0.05-0.05,0.01-0.11,0-0.17c-0.01-0.09-0.11-0.05-0.05-0.16
					c0.02-0.03,0.03-0.05,0.06-0.05c0.03,0,0.05,0,0.08-0.01c0.05-0.01,0.09-0.06,0.11-0.12c0.03-0.07,0.06-0.08,0.13-0.07
					c0.02,0,0.05,0,0.07-0.01c0.03-0.02,0.04-0.06,0.05-0.09c0.03-0.07,0.1-0.04,0.15-0.02c0.06,0.02,0.09-0.01,0.13-0.04
					c0.02-0.02,0.06-0.04,0.09-0.03c0.03,0.01,0.04,0.04,0.06,0.07c0.03,0.03,0.05,0.02,0.07,0.01c0.03-0.01,0.06-0.02,0.1-0.02
					c0.06,0.01,0.14,0.08,0.16,0.17c0.02,0.09-0.02,0.13-0.07,0.16c-0.07,0.04-0.14,0.11-0.22,0.16c-0.04,0.03-0.08,0.05-0.13,0.04
					c-0.06-0.01-0.11-0.03-0.17-0.02c-0.05,0.01-0.11,0.04-0.15,0.08c-0.03,0.04-0.05,0.09-0.07,0.13
					c-0.03,0.06-0.11,0.06-0.17,0.05C16.02,1.69,16,1.68,15.98,1.67C15.97,1.67,15.93,1.67,15.94,1.65z"/>
			</g>
			<g>
				<path class="st11" d="M14.77,2.85c0,0.06-0.08,0.03-0.15,0.02c-0.07-0.02-0.04-0.1-0.07-0.15c-0.05-0.08-0.12,0.01-0.12-0.11
					c0-0.03,0.01-0.06,0.04-0.08c0.03-0.01,0.05-0.03,0.07-0.05c0.04-0.04,0.05-0.09,0.05-0.16c0-0.08,0.02-0.1,0.08-0.12
					c0.02-0.01,0.04-0.02,0.05-0.04c0.02-0.03,0.01-0.07,0.01-0.11c0-0.07,0.07-0.09,0.13-0.09c0.06-0.01,0.08-0.06,0.1-0.1
					c0.01-0.03,0.04-0.06,0.06-0.07c0.03-0.01,0.06,0.02,0.09,0.03c0.04,0.01,0.05-0.01,0.07-0.03c0.02-0.03,0.04-0.05,0.08-0.06
					c0.05-0.02,0.16,0.01,0.22,0.08c0.06,0.07,0.06,0.15,0.03,0.2c-0.05,0.08-0.1,0.14-0.15,0.22c-0.03,0.04-0.05,0.08-0.1,0.1
					c-0.05,0.02-0.11,0.03-0.16,0.06c-0.04,0.03-0.08,0.08-0.1,0.14C14.99,2.56,15,2.62,15,2.67c0,0.07-0.08,0.11-0.13,0.12
					c-0.02,0-0.04,0-0.06,0.01C14.79,2.8,14.77,2.86,14.77,2.85z"/>
				<path class="st12" d="M14.81,2.81c0.01,0.05-0.07,0.07-0.12,0.05c-0.07-0.02-0.05-0.1-0.08-0.15c-0.05-0.07-0.12,0-0.12-0.11
					c0-0.03,0.01-0.06,0.03-0.07c0.03-0.01,0.04-0.02,0.06-0.04c0.04-0.03,0.05-0.09,0.04-0.15c0-0.08,0.02-0.09,0.08-0.12
					c0.02-0.01,0.04-0.02,0.05-0.04c0.02-0.03,0-0.06,0-0.1C14.76,2.02,14.83,2.01,14.88,2c0.06-0.01,0.07-0.05,0.09-0.09
					c0.01-0.02,0.03-0.06,0.06-0.07c0.03-0.01,0.05,0.02,0.09,0.03c0.04,0.01,0.05-0.01,0.07-0.02c0.02-0.02,0.04-0.05,0.07-0.06
					c0.05-0.02,0.16,0.01,0.21,0.08c0.06,0.07,0.04,0.12,0.01,0.17c-0.04,0.07-0.07,0.16-0.12,0.23c-0.02,0.04-0.05,0.08-0.09,0.09
					c-0.05,0.02-0.11,0.02-0.15,0.05c-0.04,0.03-0.08,0.08-0.09,0.13c-0.01,0.05,0,0.1,0,0.15c0,0.07-0.07,0.1-0.13,0.11
					c-0.02,0-0.04,0-0.06,0.01C14.85,2.81,14.81,2.83,14.81,2.81z"/>
			</g>
			<g>
				<path class="st15" d="M15.07,2.08c-0.03-0.22,0.13-0.49,0.38-0.64c0.24-0.15,0.5-0.02,0.49,0.13c-0.02,0.24-0.15,0.55-0.4,0.63
					C15.28,2.29,15.1,2.3,15.07,2.08z"/>
				<path class="st16" d="M15.09,2.11c-0.03-0.22,0.13-0.49,0.38-0.64c0.24-0.15,0.5-0.02,0.49,0.13c-0.02,0.24-0.07,0.39-0.4,0.63
					C15.29,2.42,15.12,2.33,15.09,2.11z"/>
				<path class="st17" d="M15.13,2.23c0-0.01,0-0.02-0.01-0.04c-0.03-0.22,0.13-0.49,0.38-0.64c0.18-0.11,0.34-0.15,0.42-0.06
					c-0.04-0.08-0.23-0.17-0.46-0.03c-0.25,0.15-0.4,0.42-0.38,0.64C15.1,2.17,15.11,2.21,15.13,2.23z"/>
				<path class="st15" d="M15.51,1.85c0,0-0.15,0.33-0.22,0.35c-0.06,0.02-0.26-0.21,0.01-0.5C15.31,1.71,15.37,1.64,15.51,1.85z"/>
				<path class="st15" d="M15.54,1.85c0,0,0.31-0.19,0.33-0.15c0.03,0.04-0.13,0.46-0.42,0.5C15.45,2.2,15.38,2.21,15.54,1.85z"/>
				<path class="st15" d="M15.53,1.81c0,0-0.16-0.17-0.12-0.23c0.04-0.07,0.44-0.27,0.45,0.02C15.86,1.6,15.86,1.66,15.53,1.81z"/>
				<path class="st18" d="M15.38,2.09c-0.02-0.02,0.05-0.21,0.07-0.28c0.02-0.06-0.07-0.07-0.01-0.1c0.07-0.03,0.14,0.08,0.34-0.04
					c0.04-0.02-0.03,0.07-0.08,0.11c-0.05,0.04-0.11,0.08-0.14,0.11C15.49,1.97,15.41,2.14,15.38,2.09z"/>
				<g>
					<path class="st19" d="M15.6,2.07c0.01,0.02,0.01,0.03-0.01,0.03c-0.01,0-0.03,0-0.04-0.01c-0.01-0.02-0.01-0.05-0.01-0.05
						S15.59,2.05,15.6,2.07z"/>
					<path class="st20" d="M15.67,2.02c0.02,0.01,0.02,0.02,0.01,0.03c-0.01,0.01-0.02,0.01-0.04,0C15.62,2.04,15.6,2,15.6,2
						S15.65,2.01,15.67,2.02z"/>
					<path class="st19" d="M15.7,1.95c0.03,0.01,0.03,0.02,0.02,0.03c0,0.01-0.01,0.02-0.04,0.01c-0.03-0.01-0.05-0.04-0.05-0.04
						S15.67,1.94,15.7,1.95z"/>
					<path class="st20" d="M15.7,1.86c0.02,0,0.03,0.01,0.04,0.02c0,0.01,0,0.02-0.02,0.02c-0.02,0-0.07-0.02-0.07-0.02
						S15.68,1.87,15.7,1.86z"/>
				</g>
				<g>
					<path class="st20" d="M15.72,1.55c0.02-0.03,0.03-0.03,0.03-0.02c0,0.01,0,0.03-0.02,0.06c-0.02,0.03-0.05,0.06-0.05,0.06
						S15.7,1.58,15.72,1.55z"/>
					<path class="st19" d="M15.68,1.51c0.02-0.04,0.03-0.04,0.04-0.04c0.01,0,0.01,0.01-0.01,0.05c-0.02,0.04-0.06,0.08-0.06,0.08
						S15.67,1.55,15.68,1.51z"/>
					<path class="st20" d="M15.62,1.54c0.01-0.04,0.03-0.05,0.04-0.05c0.01,0,0.02,0,0,0.04c-0.01,0.04-0.05,0.1-0.05,0.1
						S15.6,1.58,15.62,1.54z"/>
					<path class="st19" d="M15.53,1.6c0-0.03,0.02-0.05,0.03-0.06c0.01-0.02,0.02-0.02,0.02,0.01c0,0.03-0.03,0.1-0.03,0.1
						S15.53,1.63,15.53,1.6z"/>
				</g>
				<g>
					<path class="st19" d="M15.29,1.89c-0.03,0-0.02-0.01-0.01-0.02c0.01-0.01,0.03-0.02,0.06-0.02c0.03,0,0.04,0.02,0.04,0.02
						S15.32,1.89,15.29,1.89z"/>
					<path class="st20" d="M15.24,1.97c-0.03,0.01-0.04,0-0.03-0.01c0.01-0.01,0.02-0.02,0.05-0.03c0.03-0.01,0.07,0,0.07,0
						S15.28,1.96,15.24,1.97z"/>
					<path class="st20" d="M15.26,2.03c-0.03,0.01-0.04,0.01-0.05,0c0-0.01,0-0.02,0.04-0.03c0.03-0.01,0.09-0.02,0.09-0.02
						S15.29,2.01,15.26,2.03z"/>
					<path class="st19" d="M15.3,2.08c-0.03,0.02-0.05,0.02-0.06,0.02c-0.01,0-0.02-0.01,0.01-0.03c0.03-0.02,0.09-0.04,0.09-0.04
						S15.33,2.06,15.3,2.08z"/>
				</g>
				<g>
					<path class="st17" d="M15.47,1.95c-0.03,0.06-0.05,0.11-0.08,0.17c-0.03,0.06-0.1,0.16-0.14,0.21c0.04,0,0.11,0.02,0.18-0.02
						c0-0.01-0.01-0.06-0.01-0.07c-0.01-0.04,0-0.07,0.01-0.12c0.02-0.04,0.02-0.1,0.04-0.14C15.47,1.97,15.48,1.96,15.47,1.95
						c0.03-0.03,0.04-0.02,0.06-0.02c0.01,0,0.01,0,0.02-0.01c0.01-0.01,0.02-0.02,0.02-0.03c0.01-0.01,0.02-0.02,0.03-0.04
						c0.01,0,0.01-0.01,0.01-0.02c0.01-0.02,0-0.03-0.01-0.04c0,0,0,0,0,0c0,0,0,0,0,0c0.06-0.03,0.1-0.03,0.16-0.06
						c0.05-0.02,0.1,0.01,0.15,0.01c0.03-0.05,0.03-0.14,0.02-0.17c-0.1,0.09-0.22,0.15-0.33,0.21c0,0-0.01,0-0.01,0
						c-0.01,0,0-0.01,0-0.02c0.01-0.01,0.02-0.03,0.01-0.04c0,0-0.01,0-0.01,0c-0.01,0-0.02,0-0.04,0.01c0,0-0.01,0.01-0.01,0.01
						c-0.01,0.01-0.03,0.01-0.04,0.01c-0.01,0-0.02,0.02-0.03,0.01c0,0-0.01-0.01-0.01-0.01c-0.05-0.05-0.08-0.13-0.09-0.21
						c-0.02,0.02-0.09,0.11-0.11,0.13c0.07,0.05,0.15,0.05,0.2,0.11c0,0,0.01,0.01,0.01,0.01c0,0,0,0.01,0,0.02
						c0,0.01-0.01,0.03-0.02,0.04c-0.01,0.01-0.02,0.02-0.02,0.03c0,0.01,0,0.01,0,0.02c0,0.02-0.01,0.05-0.01,0.07
						c0,0.01,0.01,0.02,0.02,0.01C15.46,1.97,15.47,1.96,15.47,1.95z"/>
				</g>
				<g>
					<path class="st21" d="M15.5,1.92c0.01,0,0.02,0,0.03,0c0.01,0,0.01,0,0.02-0.01c0.01-0.01,0.01-0.02,0.02-0.02
						c0.01-0.01,0.01-0.02,0.02-0.02c0,0,0.02-0.03,0.02-0.03c0-0.01-0.02-0.01-0.01-0.03c0,0,0-0.02,0-0.02
						c0-0.01,0-0.01-0.01-0.02c0,0-0.01,0-0.01,0c-0.01,0-0.01,0.01-0.02,0.02c-0.01,0.01-0.02,0.01-0.02,0c0,0,0-0.01-0.01-0.01
						c0,0-0.01,0-0.02,0.01c-0.04,0.04-0.04,0.09-0.02,0.12C15.49,1.91,15.5,1.91,15.5,1.92z"/>
				</g>
			</g>
			<g>
				<path class="st15" d="M14.59,2.71c-0.04-0.25,0.15-0.57,0.45-0.73c0.31-0.16,0.64-0.01,0.63,0.16
					c-0.01,0.28-0.18,0.63-0.48,0.72C14.86,2.96,14.64,2.96,14.59,2.71z"/>
				<path class="st16" d="M14.61,2.74c-0.04-0.25,0.15-0.56,0.45-0.73c0.31-0.16,0.64-0.01,0.63,0.16
					c-0.01,0.28-0.07,0.45-0.48,0.72C14.89,3.11,14.66,3,14.61,2.74z"/>
				<path class="st17" d="M14.68,2.89c0-0.01-0.01-0.03-0.01-0.04c-0.04-0.25,0.15-0.56,0.45-0.73c0.23-0.12,0.43-0.16,0.53-0.05
					c-0.06-0.1-0.29-0.21-0.59-0.05c-0.31,0.16-0.5,0.47-0.45,0.73C14.62,2.81,14.65,2.85,14.68,2.89z"/>
				<path class="st15" d="M15.14,2.46c0,0-0.18,0.38-0.26,0.4c-0.08,0.02-0.33-0.25,0-0.57C14.88,2.28,14.95,2.21,15.14,2.46z"/>
				<path class="st15" d="M15.17,2.46c0,0,0.38-0.21,0.42-0.16c0.04,0.05-0.15,0.53-0.52,0.56C15.07,2.86,14.99,2.87,15.17,2.46z"/>
				<path class="st15" d="M15.16,2.41c0,0-0.21-0.2-0.16-0.27c0.05-0.07,0.54-0.3,0.57,0.04C15.57,2.18,15.58,2.25,15.16,2.41z"/>
				<path class="st18" d="M14.98,2.73c-0.02-0.03,0.06-0.24,0.08-0.32c0.02-0.07-0.09-0.09-0.02-0.12c0.09-0.04,0.19,0.09,0.43-0.03
					c0.05-0.03-0.03,0.08-0.1,0.13c-0.06,0.04-0.13,0.09-0.17,0.12C15.12,2.6,15.03,2.79,14.98,2.73z"/>
				<g>
					<path class="st19" d="M15.26,2.72c0.02,0.02,0.01,0.03-0.01,0.03c-0.02,0-0.04,0-0.05-0.02c-0.02-0.02-0.02-0.06-0.02-0.06
						S15.24,2.69,15.26,2.72z"/>
					<path class="st20" d="M15.35,2.66c0.03,0.02,0.03,0.03,0.01,0.04c-0.01,0.01-0.03,0.01-0.05,0c-0.03-0.02-0.05-0.06-0.05-0.06
						S15.32,2.64,15.35,2.66z"/>
					<path class="st19" d="M15.38,2.58c0.03,0.01,0.04,0.02,0.03,0.04c0,0.01-0.02,0.02-0.05,0.01c-0.03-0.01-0.07-0.05-0.07-0.05
						S15.35,2.57,15.38,2.58z"/>
					<path class="st20" d="M15.39,2.48c0.03,0,0.04,0.01,0.05,0.03c0.01,0.01,0,0.03-0.03,0.03c-0.03,0-0.09-0.03-0.09-0.03
						S15.35,2.48,15.39,2.48z"/>
				</g>
				<g>
					<path class="st20" d="M15.39,2.12c0.03-0.04,0.03-0.03,0.04-0.02c0,0.01,0,0.03-0.03,0.07c-0.03,0.04-0.07,0.06-0.07,0.06
						S15.37,2.16,15.39,2.12z"/>
					<path class="st19" d="M15.35,2.07c0.02-0.04,0.03-0.05,0.04-0.04c0.01,0,0.01,0.02-0.01,0.06c-0.02,0.04-0.07,0.09-0.07,0.09
						S15.32,2.11,15.35,2.07z"/>
					<path class="st20" d="M15.26,2.1c0.02-0.04,0.03-0.05,0.04-0.06c0.01-0.01,0.02,0,0,0.04c-0.02,0.04-0.06,0.11-0.06,0.11
						S15.25,2.14,15.26,2.1z"/>
					<path class="st19" d="M15.16,2.17c0-0.03,0.02-0.05,0.04-0.07c0.02-0.02,0.03-0.02,0.02,0.01c0,0.03-0.04,0.11-0.04,0.11
						S15.15,2.2,15.16,2.17z"/>
				</g>
				<g>
					<path class="st19" d="M14.87,2.5c-0.04,0-0.03-0.01-0.01-0.03c0.02-0.01,0.04-0.02,0.07-0.02c0.04,0,0.06,0.03,0.06,0.03
						S14.9,2.5,14.87,2.5z"/>
					<path class="st20" d="M14.8,2.58c-0.04,0.01-0.05,0-0.04-0.01c0.01-0.01,0.02-0.02,0.06-0.03c0.04-0.01,0.09,0.01,0.09,0.01
						S14.85,2.58,14.8,2.58z"/>
					<path class="st20" d="M14.82,2.65c-0.04,0.01-0.06,0.01-0.06,0c0-0.01,0-0.02,0.05-0.03c0.04-0.01,0.11-0.01,0.11-0.01
						S14.87,2.64,14.82,2.65z"/>
					<path class="st19" d="M14.88,2.71c-0.04,0.02-0.06,0.02-0.07,0.02c-0.02,0-0.02-0.01,0.01-0.03c0.04-0.02,0.12-0.04,0.12-0.04
						S14.92,2.69,14.88,2.71z"/>
				</g>
				<g>
					<path class="st17" d="M15.1,2.57C15.06,2.64,15.03,2.7,15,2.76C14.97,2.82,14.88,2.94,14.83,3c0.04,0,0.14,0.02,0.22-0.02
						c0-0.01-0.01-0.07-0.01-0.08c-0.02-0.04-0.01-0.08,0.01-0.14c0.02-0.05,0.02-0.11,0.04-0.16C15.09,2.59,15.1,2.58,15.1,2.57
						c0.03-0.03,0.05-0.02,0.07-0.03c0.01,0,0.02,0,0.03-0.01c0.01-0.01,0.02-0.02,0.03-0.04c0.01-0.01,0.03-0.03,0.04-0.04
						c0.01-0.01,0.01-0.01,0.02-0.02c0.01-0.02-0.01-0.04-0.01-0.05c0,0,0,0,0,0c0,0,0,0,0,0c0.07-0.04,0.13-0.03,0.2-0.06
						c0.06-0.03,0.13,0.02,0.19,0.01c0.04-0.05,0.04-0.16,0.02-0.19c-0.12,0.1-0.28,0.17-0.41,0.23c-0.01,0-0.01,0.01-0.02,0
						c-0.01,0,0-0.01,0-0.02c0.01-0.02,0.02-0.03,0.01-0.04c0,0-0.01-0.01-0.02-0.01c-0.01,0-0.03,0-0.05,0.01
						c-0.01,0-0.01,0.01-0.02,0.02c-0.02,0.02-0.04,0.01-0.05,0.01c-0.02,0.01-0.03,0.03-0.04,0.02c-0.01-0.01-0.01-0.01-0.02-0.02
						c-0.07-0.06-0.1-0.15-0.12-0.25c-0.03,0.02-0.11,0.12-0.13,0.14c0.09,0.06,0.2,0.06,0.26,0.13c0,0,0.01,0.01,0.01,0.02
						c0,0.01,0,0.01,0,0.02c-0.01,0.01-0.01,0.03-0.02,0.04c-0.01,0.01-0.02,0.02-0.02,0.04c0,0.01,0,0.02,0,0.02
						c0,0.02-0.01,0.05-0.01,0.08c0,0.02,0.01,0.02,0.03,0.01C15.07,2.59,15.09,2.58,15.1,2.57z"/>
				</g>
				<g>
					<path class="st21" d="M15.13,2.53c0.01,0,0.02,0,0.03,0c0.01,0,0.01,0,0.02-0.01c0.01-0.01,0.02-0.02,0.02-0.03
						c0.01-0.01,0.02-0.02,0.03-0.03c0.01,0,0.02-0.03,0.02-0.04c0-0.01-0.03-0.01-0.01-0.03c0,0,0-0.02,0-0.02
						c0-0.01-0.01-0.02-0.01-0.02c0,0-0.01,0-0.01,0c-0.01,0-0.01,0.01-0.02,0.02c-0.01,0.01-0.02,0.01-0.02,0c0,0,0-0.01-0.01-0.01
						c-0.01,0-0.02,0-0.02,0.01c-0.05,0.05-0.05,0.11-0.02,0.14C15.12,2.53,15.12,2.53,15.13,2.53z"/>
				</g>
			</g>
			<g>
				<path class="st15" d="M15.85,1.7C15.81,1.44,16,1.13,16.31,0.97c0.31-0.16,0.64-0.01,0.63,0.16c-0.01,0.28-0.18,0.63-0.48,0.72
					C16.12,1.95,15.9,1.95,15.85,1.7z"/>
				<path class="st16" d="M15.87,1.73C15.83,1.48,16.02,1.17,16.33,1c0.31-0.16,0.64-0.01,0.63,0.16c-0.01,0.28-0.07,0.45-0.48,0.72
					C16.14,2.09,15.92,1.98,15.87,1.73z"/>
				<path class="st17" d="M15.93,1.87c0-0.01-0.01-0.03-0.01-0.04c-0.04-0.25,0.15-0.56,0.45-0.73c0.23-0.12,0.43-0.16,0.53-0.05
					c-0.06-0.1-0.29-0.21-0.59-0.05c-0.31,0.16-0.5,0.47-0.45,0.73C15.88,1.79,15.9,1.84,15.93,1.87z"/>
				<path class="st15" d="M16.4,1.45c0,0-0.18,0.38-0.26,0.4c-0.08,0.02-0.33-0.25,0-0.57C16.14,1.27,16.21,1.2,16.4,1.45z"/>
				<path class="st15" d="M16.43,1.45c0,0,0.38-0.21,0.42-0.16c0.04,0.05-0.15,0.53-0.52,0.56C16.33,1.85,16.25,1.86,16.43,1.45z"/>
				<path class="st15" d="M16.42,1.4c0,0-0.21-0.2-0.16-0.27c0.05-0.07,0.54-0.3,0.57,0.04C16.83,1.16,16.84,1.24,16.42,1.4z"/>
				<path class="st18" d="M16.24,1.72c-0.02-0.03,0.06-0.24,0.08-0.32c0.02-0.07-0.09-0.09-0.02-0.12c0.09-0.04,0.19,0.09,0.43-0.03
					c0.05-0.03-0.03,0.08-0.1,0.13c-0.06,0.04-0.13,0.09-0.17,0.12C16.38,1.58,16.29,1.78,16.24,1.72z"/>
				<g>
					<path class="st19" d="M16.52,1.7c0.02,0.02,0.01,0.03-0.01,0.03c-0.02,0-0.04,0-0.05-0.02c-0.02-0.02-0.02-0.06-0.02-0.06
						S16.5,1.68,16.52,1.7z"/>
					<path class="st20" d="M16.61,1.65c0.03,0.02,0.03,0.03,0.01,0.04c-0.01,0.01-0.03,0.01-0.05,0c-0.03-0.02-0.05-0.06-0.05-0.06
						S16.58,1.63,16.61,1.65z"/>
					<path class="st19" d="M16.64,1.57c0.03,0.01,0.04,0.02,0.03,0.04c0,0.01-0.02,0.02-0.05,0.01c-0.03-0.01-0.07-0.05-0.07-0.05
						S16.61,1.56,16.64,1.57z"/>
					<path class="st20" d="M16.64,1.47c0.03,0,0.04,0.01,0.05,0.03c0.01,0.01,0,0.03-0.03,0.03c-0.03,0-0.09-0.03-0.09-0.03
						S16.61,1.47,16.64,1.47z"/>
				</g>
				<g>
					<path class="st20" d="M16.65,1.11c0.03-0.04,0.03-0.03,0.04-0.02c0,0.01,0,0.03-0.03,0.07c-0.03,0.04-0.07,0.06-0.07,0.06
						S16.63,1.14,16.65,1.11z"/>
					<path class="st19" d="M16.61,1.06c0.02-0.04,0.03-0.05,0.04-0.04c0.01,0,0.01,0.02-0.01,0.06c-0.02,0.04-0.07,0.09-0.07,0.09
						S16.58,1.1,16.61,1.06z"/>
					<path class="st20" d="M16.52,1.09c0.02-0.04,0.03-0.05,0.04-0.06c0.01-0.01,0.02,0,0,0.04c-0.02,0.04-0.06,0.11-0.06,0.11
						S16.51,1.13,16.52,1.09z"/>
					<path class="st19" d="M16.42,1.16c0-0.03,0.02-0.05,0.04-0.07c0.02-0.02,0.03-0.02,0.02,0.01c0,0.03-0.04,0.11-0.04,0.11
						S16.41,1.19,16.42,1.16z"/>
				</g>
				<g>
					<path class="st19" d="M16.12,1.49c-0.04,0-0.03-0.01-0.01-0.03c0.02-0.01,0.04-0.02,0.07-0.02c0.04,0,0.06,0.03,0.06,0.03
						S16.16,1.49,16.12,1.49z"/>
					<path class="st20" d="M16.06,1.57c-0.04,0.01-0.05,0-0.04-0.01c0.01-0.01,0.02-0.02,0.06-0.03c0.04-0.01,0.09,0.01,0.09,0.01
						S16.11,1.56,16.06,1.57z"/>
					<path class="st20" d="M16.08,1.64c-0.04,0.01-0.06,0.01-0.06,0c0-0.01,0-0.02,0.05-0.03c0.04-0.01,0.11-0.01,0.11-0.01
						S16.13,1.62,16.08,1.64z"/>
					<path class="st19" d="M16.14,1.7c-0.04,0.02-0.06,0.02-0.07,0.02c-0.02,0-0.02-0.01,0.01-0.03c0.04-0.02,0.12-0.04,0.12-0.04
						S16.18,1.68,16.14,1.7z"/>
				</g>
				<g>
					<path class="st17" d="M16.36,1.56c-0.03,0.06-0.06,0.13-0.1,0.19c-0.03,0.06-0.12,0.18-0.17,0.24c0.04,0,0.14,0.02,0.22-0.02
						c0-0.01-0.01-0.07-0.01-0.08c-0.02-0.04-0.01-0.08,0.01-0.14c0.02-0.05,0.02-0.11,0.04-0.16C16.35,1.58,16.36,1.57,16.36,1.56
						c0.03-0.03,0.05-0.02,0.07-0.03c0.01,0,0.02,0,0.03-0.01c0.01-0.01,0.02-0.02,0.03-0.04c0.01-0.01,0.03-0.03,0.04-0.04
						c0.01-0.01,0.01-0.01,0.02-0.02c0.01-0.02-0.01-0.04-0.01-0.05c0,0,0,0,0,0c0,0,0,0,0,0c0.07-0.04,0.13-0.03,0.2-0.06
						c0.06-0.03,0.13,0.02,0.19,0.01c0.04-0.05,0.04-0.16,0.02-0.19c-0.12,0.1-0.28,0.17-0.41,0.23c-0.01,0-0.01,0.01-0.02,0
						c-0.01,0,0-0.01,0-0.02c0.01-0.02,0.02-0.03,0.01-0.04c0,0-0.01-0.01-0.02-0.01c-0.01,0-0.03,0-0.05,0.01
						c-0.01,0-0.01,0.01-0.02,0.02c-0.02,0.02-0.04,0.01-0.05,0.01c-0.02,0.01-0.03,0.03-0.04,0.02c-0.01-0.01-0.01-0.01-0.02-0.02
						c-0.07-0.06-0.1-0.15-0.12-0.25c-0.03,0.02-0.11,0.12-0.13,0.14c0.09,0.06,0.2,0.06,0.26,0.13c0,0,0.01,0.01,0.01,0.02
						c0,0.01,0,0.01,0,0.02c-0.01,0.01-0.01,0.03-0.02,0.04c-0.01,0.01-0.02,0.02-0.02,0.04c0,0.01,0,0.02,0,0.02
						c0,0.02-0.01,0.05-0.01,0.08c0,0.02,0.01,0.02,0.03,0.01C16.33,1.58,16.34,1.57,16.36,1.56z"/>
				</g>
				<g>
					<path class="st21" d="M16.39,1.52c0.01,0,0.02,0,0.03,0c0.01,0,0.01,0,0.02-0.01c0.01-0.01,0.02-0.02,0.02-0.03
						c0.01-0.01,0.02-0.02,0.03-0.03c0.01,0,0.02-0.03,0.02-0.04c0-0.01-0.03-0.01-0.01-0.03c0,0,0-0.02,0-0.02
						c0-0.01-0.01-0.02-0.01-0.02c0,0-0.01,0-0.01,0c-0.01,0-0.01,0.01-0.02,0.02c-0.01,0.01-0.02,0.01-0.02,0c0,0,0-0.01-0.01-0.01
						c-0.01,0-0.02,0-0.02,0.01c-0.05,0.05-0.05,0.11-0.02,0.14C16.37,1.51,16.38,1.52,16.39,1.52z"/>
				</g>
			</g>
			<g>
				<g>
					
						<linearGradient id="SVGID_1_" gradientUnits="userSpaceOnUse" x1="-6450.0688" y1="1148.2257" x2="-6447.6372" y2="1148.2257" gradientTransform="matrix(-0.8366 0.2376 -0.3089 -1.0481 -5025.3521 2738.0125)">
						<stop  offset="0" style="stop-color:#EC9F43"/>
						<stop  offset="1" style="stop-color:#EDB03E"/>
					</linearGradient>
					<path class="st22" d="M16.34,2.03c-0.07-0.04-0.17-0.04-0.25-0.05c-0.14-0.02-0.28-0.05-0.42-0.12
						c-0.13-0.06-0.25-0.14-0.37-0.24c-0.02-0.02-0.04-0.03-0.07-0.02c-0.01,0.01-0.02,0.02-0.03,0.03
						c-0.14,0.22-0.23,0.48-0.41,0.66c-0.17,0.18-0.41,0.34-0.45,0.43c0.01,0.02,0.01,0.05,0.03,0.05c0.54,0.02,0.86,0.02,1.03,0.05
						c0.14-0.07,0.43-0.25,0.67-0.45c0.06-0.06,0.13-0.11,0.19-0.18c0.03-0.03,0.07-0.07,0.09-0.11
						C16.37,2.06,16.36,2.04,16.34,2.03z"/>
					<path class="st23" d="M16.37,2.06c-0.07,0.01-0.38-0.05-0.58-0.1c-0.03-0.01-0.16-0.08-0.28-0.14
						c-0.09-0.05-0.18-0.12-0.2-0.13c-0.03-0.02-0.06-0.03-0.07-0.01c-0.07,0.11-0.14,0.27-0.26,0.47c-0.1,0.15-0.22,0.27-0.33,0.37
						c-0.1,0.09-0.27,0.21-0.27,0.25c0.06,0.02,1,0.05,1.03,0.05C15.63,2.72,16.18,2.37,16.37,2.06L16.37,2.06z"/>
				</g>
			</g>
			<g>
				<path class="st24" d="M14.81,2.98C14.79,3,14.82,3,14.87,2.97c0.1-0.04,0.38-0.25,0.52-0.75c0,0,0.04-0.3-0.03-0.37
					c0,0-0.04-0.03-0.09-0.02c-0.14,0-0.37,0.17-0.53,0.44C14.56,2.6,14.56,2.92,14.69,3C14.73,3.02,14.75,3.01,14.81,2.98z
					 M15.22,2.55C15.04,2.81,14.84,3,14.73,2.94c-0.02-0.01-0.07-0.06-0.08-0.08c0-0.06,0.02-0.13,0.03-0.18
					c0.03-0.11,0.06-0.21,0.12-0.32c0.03-0.05,0.04-0.11,0.08-0.15c0.02-0.03,0.05-0.05,0.08-0.08c0.07-0.06,0.12-0.13,0.19-0.19
					c0.01-0.01,0.02-0.02,0.02-0.03c0.04-0.01,0.08-0.02,0.11,0C15.4,1.97,15.45,2.22,15.22,2.55z"/>
				<path class="st2" d="M15.27,2.57c0.18-0.32,0.23-0.64,0.1-0.71c-0.13-0.07-0.41,0.11-0.6,0.44c-0.18,0.32-0.2,0.66-0.07,0.73
					C14.83,3.09,15.09,2.89,15.27,2.57z M14.84,2.33c0.16-0.28,0.38-0.45,0.49-0.39c0.11,0.06,0.07,0.34-0.09,0.62
					c-0.16,0.28-0.38,0.45-0.49,0.39C14.64,2.89,14.68,2.61,14.84,2.33z"/>
			</g>
			<g>
				<g>
					
						<linearGradient id="SVGID_00000019676846012143044660000007568307397143316354_" gradientUnits="userSpaceOnUse" x1="-5756.4136" y1="1270.4639" x2="-5753.9824" y2="1270.4639" gradientTransform="matrix(-0.9855 0.1701 -0.192 -1.0847 -5411.4365 2358.3901)">
						<stop  offset="0" style="stop-color:#EC9F43"/>
						<stop  offset="1" style="stop-color:#EDB03E"/>
					</linearGradient>
					<path style="fill-rule:evenodd;clip-rule:evenodd;fill:url(#SVGID_00000019676846012143044660000007568307397143316354_);" d="
						M17.53,1.28c-0.08-0.05-0.19-0.05-0.28-0.07c-0.16-0.04-0.31-0.08-0.46-0.15c-0.14-0.07-0.26-0.17-0.38-0.27
						c-0.02-0.02-0.05-0.04-0.07-0.03c-0.01,0.01-0.03,0.02-0.04,0.03C16.12,1,15.98,1.25,15.75,1.43
						c-0.22,0.17-0.52,0.31-0.57,0.39c0.01,0.02,0.01,0.05,0.02,0.06c0.61,0.07,0.98,0.09,1.16,0.14c0.17-0.06,0.52-0.21,0.82-0.4
						c0.08-0.05,0.16-0.1,0.24-0.16c0.04-0.03,0.09-0.06,0.12-0.11C17.57,1.32,17.56,1.3,17.53,1.28z"/>
					<path class="st23" d="M17.56,1.32c-0.08,0-0.43-0.09-0.64-0.15c-0.03-0.01-0.18-0.09-0.3-0.17c-0.09-0.06-0.19-0.13-0.21-0.15
						c-0.03-0.02-0.06-0.03-0.08-0.01c-0.1,0.11-0.2,0.26-0.37,0.45c-0.13,0.15-0.29,0.25-0.43,0.34c-0.13,0.08-0.34,0.19-0.34,0.23
						c0.07,0.03,1.13,0.14,1.16,0.14C16.62,1.92,17.31,1.61,17.56,1.32L17.56,1.32z"/>
				</g>
			</g>
			<g>
				<path class="st24" d="M15.64,2.23c-0.02,0.03,0.01,0.02,0.06,0c0.1-0.04,0.4-0.26,0.54-0.77c0,0,0.04-0.32-0.03-0.39
					c0,0-0.04-0.03-0.1-0.02c-0.14,0-0.38,0.17-0.55,0.46c-0.19,0.33-0.19,0.67-0.06,0.74C15.56,2.28,15.58,2.27,15.64,2.23z
					 M16.07,1.79c-0.19,0.27-0.39,0.47-0.51,0.41c-0.02-0.01-0.07-0.06-0.08-0.09c0-0.06,0.02-0.13,0.03-0.19
					c0.03-0.11,0.07-0.22,0.12-0.33c0.03-0.05,0.05-0.11,0.08-0.16c0.02-0.03,0.06-0.05,0.08-0.08c0.07-0.06,0.13-0.13,0.19-0.2
					c0.01-0.01,0.02-0.02,0.03-0.03c0.04-0.02,0.08-0.02,0.11,0C16.25,1.2,16.3,1.45,16.07,1.79z"/>
				<path class="st2" d="M16.12,1.81c0.19-0.33,0.24-0.66,0.1-0.74C16.09,1,15.79,1.19,15.6,1.52c-0.19,0.33-0.21,0.68-0.07,0.76
					C15.66,2.35,15.93,2.14,16.12,1.81z M15.68,1.57c0.17-0.29,0.39-0.47,0.51-0.4c0.12,0.06,0.08,0.35-0.09,0.64
					c-0.17,0.29-0.39,0.47-0.51,0.4S15.51,1.85,15.68,1.57z"/>
			</g>
			<g>
				<path class="st26" d="M17.03,1.01c0,0,0.03-0.08-0.14-0.12c-0.17-0.04-0.61,0.15-0.99,0.45c-0.36,0.28-0.29,0.35-0.23,0.37
					C15.74,1.73,16.85,1.55,17.03,1.01z"/>
				<g>
					<path class="st27" d="M17.07,1.02c0,0,0.01-0.08-0.16-0.12c-0.17-0.04-0.6,0.2-0.96,0.45c-0.37,0.27-0.29,0.35-0.23,0.37
						C15.78,1.74,16.89,1.55,17.07,1.02z"/>
					<path class="st28" d="M15.77,1.76c-0.07,0-0.15-0.03-0.13-0.1c0.02,0.01,0.03,0.02,0.05,0.03c0.03,0.01,0.07-0.01,0.09-0.03
						c0.05-0.04,0.1-0.09,0.14-0.14c0.05-0.05,0.09-0.1,0.14-0.14c0.06-0.05,0.36-0.32,0.44-0.31c0.16,0.02-0.19,0.39-0.28,0.47
						c-0.09,0.09-0.2,0.17-0.31,0.2C15.88,1.75,15.83,1.75,15.77,1.76z"/>
					<path class="st2" d="M17.17,1.11c0,0-0.09-0.15-0.33-0.14c-0.14,0.01-0.3,0.07-0.44,0.15c-0.17,0.1-0.27,0.23-0.38,0.37
						c-0.05,0.07-0.25,0.27-0.34,0.23c-0.06-0.03-0.06-0.15,0.29-0.39c0,0-0.54,0.32-0.32,0.43c0.22,0.11,0.7-0.32,0.72-0.37
						C16.4,1.33,17.17,1.11,17.17,1.11z"/>
					<path class="st27" d="M15.67,1.75c0,0,1.06,0.53,1.06,0.53s0.14,0.05,0.3-0.19c0.16-0.24,0.42-0.77,0.1-1.02
						c-0.22-0.17-0.61-0.03-0.88,0.21c-0.13,0.11-0.2,0.25-0.32,0.36C15.87,1.69,15.74,1.79,15.67,1.75z"/>
					<path class="st21" d="M15.64,1.73c0,0,0.01,0.01,0.07,0.04c0.01,0,0.04,0.03,0.05,0.02c0.14-0.01,0.31-0.23,0.54-0.46
						c0.2-0.2,0.42-0.33,0.69-0.25c0.31,0.09,0.24,0.28,0.23,0.42c-0.01,0.24-0.08,0.31-0.11,0.46c0,0,0,0.01,0,0.01
						c0.15-0.27,0.3-0.69,0.03-0.9c-0.22-0.17-0.61-0.03-0.88,0.21c-0.13,0.11-0.21,0.26-0.35,0.36C15.77,1.75,15.7,1.76,15.64,1.73
						z"/>
					<path class="st2" d="M15.67,1.75c0.01,0,0.02,0.01,0.03,0.01c-0.04-0.03-0.03-0.04-0.02-0.06c-0.04-0.04,0.03-0.19,0.35-0.41
						C16.03,1.29,15.45,1.64,15.67,1.75z"/>
				</g>
			</g>
			<g>
				<path class="st26" d="M15.95,1.9c0,0,0.03-0.08-0.13-0.11c-0.16-0.03-0.58,0.15-0.93,0.43c-0.34,0.27-0.28,0.33-0.21,0.34
					C14.74,2.58,15.78,2.4,15.95,1.9z"/>
				<g>
					<path class="st27" d="M15.99,1.9c0,0,0.01-0.08-0.15-0.11c-0.16-0.03-0.57,0.19-0.91,0.43c-0.35,0.25-0.28,0.33-0.21,0.34
						C14.78,2.58,15.82,2.4,15.99,1.9z"/>
					<path class="st28" d="M14.77,2.6c-0.07,0-0.15-0.03-0.12-0.09c0.02,0.01,0.03,0.02,0.05,0.03c0.03,0.01,0.06-0.01,0.09-0.03
						c0.05-0.04,0.09-0.08,0.14-0.13c0.04-0.05,0.09-0.09,0.14-0.13c0.06-0.05,0.34-0.3,0.42-0.29c0.15,0.02-0.18,0.36-0.27,0.44
						c-0.08,0.08-0.19,0.16-0.29,0.18C14.86,2.59,14.82,2.59,14.77,2.6z"/>
					<path class="st2" d="M16.09,1.99c0,0-0.08-0.14-0.31-0.13C15.65,1.86,15.5,1.92,15.37,2c-0.16,0.09-0.25,0.21-0.36,0.35
						c-0.05,0.06-0.23,0.25-0.32,0.21c-0.05-0.03-0.06-0.14,0.28-0.37c0,0-0.51,0.3-0.3,0.4c0.21,0.1,0.66-0.3,0.68-0.35
						C15.36,2.19,16.09,1.99,16.09,1.99z"/>
					<path class="st27" d="M14.67,2.6c0,0,1,0.49,1,0.49s0.13,0.04,0.28-0.18c0.15-0.22,0.4-0.72,0.1-0.95
						c-0.2-0.16-0.57-0.02-0.83,0.2c-0.12,0.1-0.19,0.23-0.31,0.33C14.86,2.54,14.73,2.63,14.67,2.6z"/>
					<path class="st21" d="M14.64,2.57c0,0,0.01,0.01,0.07,0.04c0.01,0,0.04,0.02,0.05,0.02c0.13-0.01,0.29-0.22,0.51-0.43
						c0.19-0.19,0.4-0.31,0.65-0.24c0.29,0.09,0.22,0.26,0.22,0.39c-0.01,0.23-0.08,0.29-0.11,0.43c0,0,0,0.01,0,0.01
						c0.14-0.25,0.28-0.64,0.03-0.84c-0.2-0.16-0.57-0.02-0.83,0.2c-0.12,0.1-0.2,0.25-0.33,0.34C14.77,2.59,14.7,2.61,14.64,2.57z"
						/>
					<path class="st2" d="M14.67,2.6c0.01,0,0.02,0.01,0.03,0.01c-0.04-0.02-0.03-0.04-0.01-0.06c-0.04-0.04,0.03-0.17,0.33-0.38
						C15.01,2.17,14.47,2.49,14.67,2.6z"/>
				</g>
			</g>
			<g>
				<path class="st13" d="M15.77,2.63c0,0.06-0.1,0.01-0.16-0.04c-0.07-0.05-0.03-0.13-0.06-0.19c-0.04-0.1-0.13-0.04-0.11-0.17
					c0.01-0.04,0.02-0.07,0.05-0.07c0.03,0,0.05-0.01,0.08-0.02c0.05-0.02,0.07-0.08,0.08-0.16c0.01-0.09,0.04-0.1,0.11-0.1
					c0.02,0,0.05-0.01,0.07-0.02c0.03-0.02,0.02-0.07,0.02-0.12c0.01-0.08,0.09-0.07,0.16-0.05c0.07,0.01,0.09-0.03,0.12-0.07
					c0.02-0.02,0.05-0.05,0.08-0.05c0.03,0,0.06,0.04,0.09,0.07c0.04,0.03,0.06,0.01,0.08,0c0.03-0.02,0.06-0.04,0.09-0.04
					c0.06,0,0.17,0.07,0.23,0.17c0.06,0.1,0.04,0.19,0,0.23c-0.06,0.06-0.13,0.12-0.2,0.18c-0.04,0.04-0.07,0.07-0.13,0.07
					c-0.06,0-0.13-0.01-0.18,0c-0.05,0.02-0.1,0.06-0.13,0.12c-0.02,0.05-0.02,0.11-0.03,0.17c-0.01,0.08-0.1,0.09-0.17,0.08
					c-0.02,0-0.04-0.01-0.07-0.01C15.8,2.59,15.77,2.65,15.77,2.63z"/>
				<path class="st14" d="M15.82,2.61c0,0.06-0.08,0.05-0.14,0.01c-0.07-0.05-0.03-0.13-0.06-0.19c-0.04-0.1-0.13-0.04-0.11-0.17
					c0.01-0.04,0.02-0.07,0.05-0.07c0.03,0,0.05-0.01,0.08-0.02c0.05-0.02,0.07-0.08,0.07-0.15c0.01-0.09,0.04-0.1,0.1-0.1
					c0.02,0,0.05-0.01,0.06-0.02c0.03-0.02,0.02-0.07,0.02-0.11c0-0.08,0.09-0.06,0.15-0.05c0.06,0.02,0.08-0.03,0.12-0.06
					c0.02-0.02,0.04-0.05,0.08-0.05c0.03,0,0.06,0.05,0.09,0.07c0.04,0.03,0.05,0.01,0.08,0c0.03-0.02,0.05-0.03,0.09-0.03
					c0.06,0,0.17,0.08,0.22,0.17c0.06,0.1,0.02,0.15-0.01,0.19c-0.06,0.06-0.1,0.14-0.16,0.21C16.48,2.27,16.45,2.3,16.4,2.3
					c-0.06,0-0.12-0.02-0.17,0c-0.05,0.02-0.09,0.05-0.12,0.11c-0.02,0.05-0.02,0.11-0.02,0.16c-0.01,0.07-0.09,0.09-0.15,0.07
					c-0.02,0-0.04-0.01-0.06-0.02C15.86,2.63,15.82,2.63,15.82,2.61z"/>
			</g>
			<g>
				<path class="st11" d="M16.38,2.09c-0.01,0.06-0.1,0.02-0.16-0.02c-0.07-0.04-0.02-0.12-0.04-0.18c-0.03-0.09-0.14-0.02-0.1-0.15
					c0.01-0.04,0.03-0.07,0.06-0.07c0.03,0,0.06-0.02,0.09-0.03c0.05-0.03,0.08-0.09,0.1-0.16c0.02-0.09,0.05-0.1,0.13-0.11
					c0.02,0,0.05-0.02,0.07-0.03c0.03-0.03,0.03-0.07,0.04-0.11c0.02-0.08,0.1-0.08,0.17-0.07c0.07,0.01,0.1-0.04,0.14-0.08
					c0.02-0.02,0.06-0.06,0.09-0.06c0.04,0,0.05,0.04,0.09,0.05c0.04,0.02,0.06,0,0.08-0.01c0.03-0.02,0.06-0.04,0.1-0.05
					c0.07-0.01,0.17,0.05,0.22,0.13c0.05,0.09,0.02,0.18-0.02,0.22c-0.07,0.07-0.15,0.13-0.23,0.2c-0.04,0.04-0.08,0.08-0.14,0.08
					c-0.06,0.01-0.13,0-0.19,0.03c-0.06,0.02-0.11,0.07-0.15,0.13c-0.03,0.05-0.03,0.11-0.05,0.16c-0.02,0.07-0.11,0.1-0.18,0.1
					c-0.02,0-0.05-0.01-0.07,0C16.42,2.05,16.37,2.11,16.38,2.09z"/>
				<path class="st12" d="M16.43,2.07c-0.01,0.06-0.09,0.06-0.15,0.03c-0.07-0.04-0.02-0.12-0.04-0.17
					c-0.03-0.09-0.13-0.03-0.1-0.15c0.01-0.03,0.02-0.06,0.06-0.07c0.03,0,0.05-0.01,0.08-0.03c0.05-0.03,0.08-0.08,0.09-0.15
					c0.02-0.08,0.05-0.09,0.12-0.1c0.02,0,0.05-0.01,0.07-0.03c0.03-0.02,0.02-0.07,0.03-0.11c0.01-0.08,0.1-0.07,0.16-0.06
					c0.06,0.01,0.09-0.04,0.13-0.08c0.02-0.02,0.05-0.05,0.08-0.06c0.03,0,0.05,0.04,0.08,0.06c0.04,0.02,0.06,0.01,0.08-0.01
					c0.03-0.02,0.06-0.04,0.1-0.04c0.06,0,0.17,0.05,0.21,0.14c0.05,0.09,0.01,0.14-0.03,0.18c-0.07,0.06-0.12,0.15-0.19,0.21
					c-0.04,0.04-0.07,0.07-0.13,0.08c-0.06,0.01-0.13,0-0.18,0.02c-0.05,0.02-0.1,0.06-0.13,0.12c-0.03,0.05-0.03,0.1-0.04,0.16
					c-0.02,0.07-0.1,0.09-0.17,0.09c-0.02,0-0.04-0.01-0.06-0.01C16.47,2.08,16.43,2.08,16.43,2.07z"/>
			</g>
			<g>
				<path class="st11" d="M16.38,2.07c-0.01,0.06-0.1,0.02-0.16-0.02c-0.07-0.04-0.02-0.12-0.04-0.18c-0.03-0.09-0.14-0.02-0.1-0.15
					c0.01-0.04,0.03-0.07,0.06-0.07c0.03,0,0.06-0.02,0.09-0.03c0.05-0.03,0.08-0.09,0.1-0.16c0.02-0.09,0.05-0.1,0.13-0.11
					c0.02,0,0.05-0.02,0.07-0.03c0.03-0.03,0.03-0.07,0.04-0.11c0.02-0.08,0.1-0.08,0.17-0.07c0.07,0.01,0.1-0.04,0.14-0.08
					C16.9,1.04,16.93,1,16.96,1c0.04,0,0.05,0.04,0.09,0.05c0.04,0.02,0.06,0,0.08-0.01C17.17,1.02,17.2,1,17.24,1
					c0.07-0.01,0.17,0.05,0.22,0.13c0.05,0.09,0.02,0.18-0.02,0.22c-0.07,0.07-0.15,0.13-0.23,0.2c-0.04,0.04-0.08,0.08-0.14,0.08
					c-0.06,0.01-0.13,0-0.19,0.03c-0.06,0.02-0.11,0.07-0.15,0.13c-0.03,0.05-0.03,0.11-0.05,0.16c-0.02,0.07-0.11,0.1-0.18,0.1
					c-0.02,0-0.05-0.01-0.07,0C16.42,2.03,16.38,2.09,16.38,2.07z"/>
				<path class="st12" d="M16.44,2.05c-0.01,0.06-0.09,0.06-0.15,0.03c-0.07-0.04-0.02-0.12-0.04-0.17
					c-0.03-0.09-0.13-0.03-0.1-0.15c0.01-0.03,0.02-0.06,0.06-0.07c0.03,0,0.05-0.01,0.08-0.03c0.05-0.03,0.08-0.08,0.09-0.15
					c0.02-0.08,0.05-0.09,0.12-0.1c0.02,0,0.05-0.01,0.07-0.03c0.03-0.02,0.02-0.07,0.03-0.11c0.01-0.08,0.1-0.07,0.16-0.06
					c0.06,0.01,0.09-0.04,0.13-0.08c0.02-0.02,0.05-0.05,0.08-0.06c0.03,0,0.05,0.04,0.08,0.06c0.04,0.02,0.06,0.01,0.08-0.01
					c0.03-0.02,0.06-0.04,0.1-0.04c0.06,0,0.17,0.05,0.21,0.14c0.05,0.09,0.01,0.14-0.03,0.18c-0.07,0.06-0.12,0.15-0.19,0.21
					c-0.04,0.04-0.07,0.07-0.13,0.08c-0.06,0.01-0.13,0-0.18,0.02c-0.05,0.02-0.1,0.06-0.13,0.12c-0.03,0.05-0.03,0.1-0.04,0.16
					c-0.02,0.07-0.1,0.09-0.17,0.09c-0.02,0-0.04-0.01-0.06-0.01C16.48,2.06,16.43,2.06,16.44,2.05z"/>
			</g>
			<g>
				<path class="st11" d="M15.17,3.34c0.01,0.06-0.09,0.04-0.16,0.02c-0.08-0.02-0.05-0.11-0.08-0.16
					c-0.05-0.08-0.13,0.01-0.13-0.12c0-0.04,0.01-0.07,0.04-0.08c0.03-0.01,0.05-0.03,0.07-0.05c0.04-0.04,0.06-0.1,0.05-0.17
					c0-0.09,0.03-0.1,0.09-0.13c0.02-0.01,0.05-0.03,0.06-0.04c0.02-0.03,0.01-0.07,0.01-0.12c0-0.08,0.08-0.09,0.14-0.1
					c0.06-0.01,0.08-0.06,0.11-0.11c0.02-0.03,0.04-0.07,0.07-0.08c0.03-0.01,0.06,0.02,0.1,0.03c0.04,0.01,0.06-0.01,0.08-0.03
					c0.02-0.03,0.05-0.05,0.09-0.06c0.06-0.02,0.18,0.01,0.24,0.08c0.07,0.08,0.07,0.16,0.04,0.21c-0.05,0.08-0.11,0.15-0.16,0.23
					c-0.03,0.05-0.06,0.09-0.11,0.11c-0.06,0.02-0.12,0.03-0.17,0.06c-0.05,0.03-0.09,0.09-0.1,0.15c-0.01,0.05-0.01,0.11-0.01,0.17
					c0,0.07-0.08,0.12-0.15,0.13c-0.02,0-0.04,0-0.06,0.01C15.2,3.3,15.18,3.36,15.17,3.34z"/>
				<path class="st12" d="M15.22,3.31c0.01,0.06-0.07,0.08-0.14,0.05C15.01,3.34,15.03,3.26,15,3.21c-0.05-0.08-0.13,0-0.13-0.12
					c0-0.03,0.01-0.07,0.03-0.08c0.03-0.01,0.05-0.02,0.07-0.04c0.04-0.03,0.05-0.09,0.05-0.16c-0.01-0.08,0.02-0.1,0.08-0.12
					c0.02-0.01,0.04-0.02,0.06-0.04c0.02-0.03,0-0.07,0-0.11c-0.01-0.08,0.07-0.09,0.13-0.09c0.06,0,0.08-0.05,0.1-0.1
					c0.01-0.02,0.03-0.06,0.06-0.07c0.03-0.01,0.06,0.02,0.09,0.04c0.04,0.01,0.05-0.01,0.07-0.03c0.02-0.03,0.04-0.05,0.08-0.06
					c0.06-0.02,0.17,0.02,0.23,0.09c0.07,0.08,0.04,0.13,0.02,0.18c-0.05,0.07-0.08,0.17-0.13,0.24c-0.03,0.04-0.05,0.08-0.1,0.1
					c-0.06,0.02-0.12,0.02-0.16,0.05c-0.05,0.03-0.08,0.08-0.1,0.14c-0.01,0.05,0,0.1,0,0.16c0,0.07-0.07,0.11-0.14,0.12
					c-0.02,0-0.04,0-0.06,0.01C15.26,3.31,15.22,3.32,15.22,3.31z"/>
			</g>
			<g class="st5">
				<path class="st6" d="M14.49,2.35c-0.01,0.01-0.04,0.02-0.02,0.04c0.02,0.01,0.07,0,0.08-0.02C14.56,2.34,14.51,2.35,14.49,2.35z
					"/>
			</g>
			<g class="st5">
				<path class="st6" d="M14.38,2.43c0.01-0.01,0.05-0.02,0.04-0.04c-0.01-0.03-0.04-0.01-0.05,0.01
					C14.37,2.41,14.36,2.43,14.38,2.43z"/>
			</g>
			<g class="st5">
				<path class="st6" d="M14.33,2.54c-0.02,0.01,0.02,0.03,0.03,0.02c0-0.01,0.01-0.02,0-0.02C14.35,2.53,14.34,2.53,14.33,2.54z"/>
			</g>
			<g class="st5">
				<path class="st6" d="M14.51,2.28c-0.02,0.01,0.02,0.03,0.03,0.02c0-0.01,0.01-0.02,0-0.02C14.52,2.27,14.52,2.27,14.51,2.28z"/>
			</g>
			<g class="st29">
				<g class="st5">
					<path class="st6" d="M16.11,2.07c-0.01,0-0.04,0.01-0.03,0.04c0.01,0.01,0.06,0.03,0.07,0.01C16.18,2.09,16.13,2.08,16.11,2.07
						z"/>
				</g>
				<g class="st5">
					<path class="st6" d="M16.43,1.82c0,0.01-0.01,0.03,0.02,0.04c0.02-0.01,0.06-0.04,0.05-0.06C16.48,1.76,16.44,1.81,16.43,1.82z
						"/>
				</g>
				<g class="st5">
					<path class="st6" d="M15.63,2.58c0.01,0,0.06,0,0.06-0.03c0-0.05-0.05-0.04-0.06-0.02C15.62,2.53,15.61,2.56,15.63,2.58z"/>
				</g>
				<g class="st5">
					<path class="st6" d="M16.2,1.91c0.01,0.01,0.05,0.03,0.05,0.01c0.01-0.03-0.03-0.05-0.04-0.04C16.2,1.89,16.18,1.9,16.2,1.91z"
						/>
				</g>
				<g class="st5">
					<path class="st6" d="M16.7,1.58c-0.01,0.03,0.05,0.02,0.05,0c0-0.01,0-0.02-0.02-0.02C16.71,1.56,16.71,1.57,16.7,1.58z"/>
				</g>
				<g class="st5">
					<path class="st6" d="M15.53,2.65c-0.01,0.03,0.02,0.04,0.03,0.01C15.55,2.65,15.54,2.64,15.53,2.65z"/>
				</g>
				<g class="st5">
					<path class="st6" d="M16.99,1.37c-0.01,0.03,0.02,0.03,0.03,0.01C17.01,1.37,17,1.36,16.99,1.37z"/>
				</g>
				<g class="st5">
					<path class="st6" d="M15.16,2.96c0.01,0,0.06-0.01,0.05-0.03c-0.01-0.03-0.04-0.02-0.06-0.01C15.15,2.93,15.14,2.95,15.16,2.96
						z"/>
				</g>
				<g class="st5">
					<path class="st6" d="M15.32,2.83c0,0.02,0.03,0.01,0.03,0c0-0.01-0.01-0.02-0.02-0.02C15.32,2.81,15.32,2.82,15.32,2.83z"/>
				</g>
				<path class="st30" d="M17.36,1.21c-0.05-0.03-0.1-0.05-0.16-0.06c-0.06-0.01-0.12,0-0.18,0.03c-0.1,0.05-0.2,0.12-0.29,0.18
					c-0.1,0.07-0.18,0.15-0.27,0.22c-0.04,0.04-0.08,0.07-0.13,0.1c-0.04,0.03-0.09,0.06-0.14,0.08c-0.05,0.03-0.09,0.06-0.13,0.11
					C16.03,1.91,16,1.96,15.98,2c-0.01,0.02-0.03,0.04-0.04,0.06c-0.01,0.01-0.03,0.03-0.05,0.04c0,0-0.01,0.01-0.01,0.01
					c-0.01,0-0.01,0.01-0.02,0.01c-0.01,0.01-0.02,0.01-0.04,0.02c-0.02,0.01-0.05,0.02-0.07,0.03c-0.09,0.05-0.16,0.14-0.23,0.21
					c-0.07,0.08-0.15,0.15-0.24,0.21c-0.09,0.08-0.19,0.15-0.27,0.24c-0.08,0.08-0.18,0.21-0.14,0.33c0.01,0.03,0.04,0.05,0.07,0.04
					C14.98,3.2,15.01,3.17,15,3.14c-0.01-0.04,0-0.07,0.02-0.11c0.03-0.04,0.05-0.08,0.09-0.11c0.07-0.07,0.15-0.14,0.23-0.2
					c0.08-0.06,0.16-0.13,0.23-0.2c0.07-0.07,0.13-0.15,0.2-0.21c0.02-0.01,0.03-0.02,0.05-0.04c0.02-0.01,0.05-0.02,0.07-0.03
					c0.05-0.02,0.09-0.05,0.12-0.09c0.03-0.04,0.06-0.08,0.09-0.12c0.03-0.04,0.05-0.07,0.09-0.1c0.04-0.03,0.08-0.06,0.12-0.08
					c0.05-0.03,0.09-0.06,0.14-0.09c0.09-0.07,0.17-0.14,0.25-0.21c0.1-0.08,0.2-0.15,0.3-0.21c0.03-0.02,0.05-0.03,0.08-0.04
					c0.02-0.01,0.05-0.02,0.07-0.02c0.05,0,0.1,0.03,0.15,0.05c0.03,0.01,0.06,0.01,0.08-0.02C17.4,1.26,17.39,1.22,17.36,1.21z"/>
			</g>
			<g>
				<path class="st7" d="M17.42,1.28c-0.01,0.01-0.02,0.03-0.03,0.04l0,0l-0.03,0.04L16.7,2.41c0,0-0.01,0.01-0.01,0.01l-0.49,0.41
					c0,0-0.01,0.01-0.01,0.01l-0.73,0.28c0,0,0,0-0.01,0l-0.31,0.13l-0.02,0.01l-0.08,0.03l0,0c0,0-0.02-0.01-0.03-0.02
					c-0.02-0.01-0.04-0.03-0.05-0.03l-0.05-0.03c-0.01,0-0.01-0.01-0.01-0.01c0,0-0.01-0.01-0.01-0.02c0-0.01,0-0.03,0-0.04
					l0.03-0.09c0-0.01,0.01-0.02,0.01-0.02c0.07-0.07,0.51-0.51,0.53-0.52c0.02-0.01,1-0.82,1.04-0.86c0.02-0.02,0.5-0.4,0.64-0.51
					c0.03-0.03,0.09,0,0.13,0.02c0.05,0.02,0.11,0.05,0.16,0.09c0,0,0,0,0,0c0,0,0,0,0,0C17.42,1.27,17.42,1.28,17.42,1.28z"/>
				<path class="st8" d="M17.36,1.37c-0.08,0.01-0.15,0.06-0.22,0.11c-0.03,0.03-0.07,0.06-0.1,0.08c-0.04,0.03-0.09,0.06-0.13,0.1
					c-0.08,0.06-0.13,0.14-0.2,0.21c-0.07,0.07-0.15,0.12-0.22,0.18c-0.07,0.06-0.14,0.14-0.22,0.2c-0.08,0.06-0.17,0.11-0.25,0.17
					c-0.08,0.06-0.16,0.12-0.24,0.19c-0.08,0.07-0.16,0.14-0.25,0.2c-0.08,0.07-0.16,0.13-0.24,0.2c-0.04,0.03-0.07,0.06-0.1,0.1
					c-0.01,0.01-0.01,0.02-0.02,0.03c0,0.01-0.01,0.02-0.01,0.02c-0.01,0.02-0.01,0.03-0.01,0.06c0,0.02-0.01,0.04-0.03,0.06l0,0
					c-0.01,0.01-0.01,0.01-0.02,0.01c-0.01,0.01-0.02,0.01-0.03,0.01c-0.03,0-0.08-0.02-0.06-0.05c0,0,0,0,0,0
					c0.01-0.02,0.02-0.04,0.03-0.06c0.06-0.11,0.13-0.17,0.2-0.23c0.09-0.08,0.21-0.18,0.31-0.25c0.08-0.07,0.16-0.14,0.24-0.21
					c0.08-0.07,0.13-0.14,0.22-0.2c0.08-0.05,0.17-0.11,0.24-0.17c0.07-0.07,0.14-0.14,0.22-0.2c0.08-0.06,0.16-0.12,0.22-0.2
					c0.03-0.04,0.06-0.08,0.1-0.11c0.04-0.04,0.08-0.07,0.13-0.1c0.07-0.05,0.13-0.1,0.2-0.15c0.07-0.05,0.18-0.12,0.26-0.13
					c0.03,0,0.06,0.03,0.07,0.07C17.43,1.33,17.39,1.36,17.36,1.37z"/>
				<path class="st9" d="M15.08,3.12c0.29-0.25,0.59-0.5,0.89-0.75c0.22-0.19,0.45-0.37,0.67-0.56c0.19-0.16,0.36-0.34,0.56-0.48
					c0.05-0.04,0.14-0.12,0.21-0.09c0.03,0.01,0.04,0.04,0.05,0.06c0.21,0.4,0.39,0.8,0.57,1.21c0.03,0.07,0.06,0.14,0.09,0.22
					c0.02,0.04,0.06,0.11,0.04,0.15c-0.01,0.02-0.03,0.03-0.04,0.05c-0.06,0.04-0.14,0.07-0.24,0.1c-0.02,0.01-2.52,0.22-2.81,0.25
					c-0.02,0-0.03-0.01-0.04-0.02C15,3.25,15.06,3.14,15.08,3.12z"/>
				<path class="st31" d="M18.16,2.88c-0.01,0.02-0.02,0.03-0.04,0.05c-0.06,0.04-0.14,0.07-0.24,0.1
					c-0.02,0.01-2.53,0.24-2.82,0.27c-0.02,0,0.47-0.11,0.73-0.14c0.44-0.06,0.88-0.14,1.32-0.17c0.2-0.01,0.66,0.02,0.76-0.22
					c0.02-0.05,0-0.1-0.02-0.15c-0.07-0.17-0.16-0.33-0.14-0.52c0-0.09,0.02-0.17,0.03-0.26c0.11,0.22,0.21,0.45,0.3,0.68
					c0.03,0.07,0.06,0.14,0.09,0.22C18.13,2.77,18.18,2.84,18.16,2.88z"/>
				<path class="st10" d="M17.47,1.42c0.01,0.01,0.01,0.02,0.02,0.03c0.05,0.08,0.11,0.17,0.16,0.25c0.01-0.02-0.12-0.25-0.19-0.38
					c-0.01-0.03-0.03-0.05-0.05-0.06c-0.07-0.03-0.16,0.05-0.21,0.09c-0.2,0.14-0.37,0.32-0.56,0.48C16.41,2,16.18,2.19,15.96,2.38
					c-0.3,0.25-0.59,0.49-0.89,0.75c-0.02,0.01-0.05,0.09-0.06,0.13c0,0,0,0,0.01-0.01c0.2-0.25,0.6-0.51,0.9-0.76
					c0.23-0.19,0.46-0.38,0.68-0.57c0.19-0.16,0.37-0.35,0.57-0.49c0.05-0.04,0.14-0.12,0.21-0.09c0.03,0.01,0.04,0.04,0.06,0.07
					C17.46,1.4,17.46,1.41,17.47,1.42C17.46,1.41,17.47,1.41,17.47,1.42z"/>
			</g>
			<path class="st2" d="M17.42,1.26c0,0-0.01,0-0.01-0.01c-0.02-0.01-0.07-0.03-0.09-0.03c-0.04-0.02-0.1,0.01-0.15,0
				c-0.03,0-0.07-0.03-0.1-0.03c0.03-0.02,0.05-0.04,0.07-0.05c0.03-0.03,0.09,0,0.13,0.02C17.31,1.19,17.38,1.22,17.42,1.26z"/>
			<g class="st5">
				<path class="st6" d="M17.3,1.57c-0.01-0.01-0.04-0.01-0.06,0.02c-0.01,0.02,0.01,0.07,0.04,0.06
					C17.34,1.62,17.31,1.58,17.3,1.57z"/>
			</g>
			<g class="st5">
				<path class="st6" d="M17.54,2.1c-0.01-0.01-0.04-0.03-0.05,0.01c0,0.02,0.03,0.08,0.05,0.06C17.59,2.11,17.56,2.09,17.54,2.1z"
					/>
			</g>
			<g class="st5">
				<path class="st6" d="M17.36,1.71c-0.01,0.01-0.04,0.04-0.03,0.06c0.01,0,0.07,0.02,0.08-0.02C17.44,1.7,17.37,1.7,17.36,1.71z"
					/>
			</g>
			<g class="st5">
				<path class="st6" d="M17.06,2.22c0.01,0.01,0.04,0.04,0.06,0.01c0.03-0.06-0.01-0.08-0.03-0.07C17.08,2.17,17.06,2.2,17.06,2.22
					z"/>
			</g>
			<g class="st5">
				<path class="st6" d="M16.87,2.02c0.01,0.01,0.04,0.04,0.06,0.01c0.03-0.06-0.01-0.08-0.03-0.07
					C16.89,1.97,16.86,1.99,16.87,2.02z"/>
			</g>
			<g class="st5">
				<path class="st6" d="M16.68,2.08c0,0.02,0.02,0.09,0.04,0.07c0.04-0.04,0.02-0.09,0-0.1C16.71,2.05,16.68,2.05,16.68,2.08z"/>
			</g>
			<g class="st5">
				<path class="st6" d="M17.36,1.93c-0.02-0.01-0.03,0.06-0.01,0.06c0.01,0,0.02-0.01,0.02-0.03C17.37,1.94,17.36,1.94,17.36,1.93z
					"/>
			</g>
			<g class="st5">
				<path class="st6" d="M17.71,2.43c-0.02-0.01-0.03,0.06-0.01,0.06c0.01,0,0.02-0.01,0.02-0.03C17.73,2.44,17.72,2.44,17.71,2.43z
					"/>
			</g>
			<g class="st5">
				<path class="st6" d="M17.26,2.04c-0.02-0.01-0.03,0.06-0.01,0.06c0.01,0,0.02-0.01,0.02-0.03C17.28,2.04,17.27,2.04,17.26,2.04z
					"/>
			</g>
			<g class="st5">
				<path class="st6" d="M16.9,1.81c-0.02-0.01-0.03,0.06-0.01,0.06c0.01,0,0.02-0.01,0.02-0.03C16.92,1.82,16.91,1.81,16.9,1.81z"
					/>
			</g>
			<g class="st5">
				<path class="st6" d="M16.93,2.37C16.9,2.4,16.93,2.43,16.95,2.4C16.95,2.38,16.95,2.37,16.93,2.37z"/>
			</g>
			<g class="st5">
				<path class="st6" d="M17.39,2.35c-0.03,0.03-0.01,0.05,0.01,0.03C17.41,2.36,17.41,2.35,17.39,2.35z"/>
			</g>
			<g class="st5">
				<path class="st6" d="M17.08,1.69c-0.03,0.03-0.01,0.05,0.01,0.03C17.1,1.7,17.09,1.69,17.08,1.69z"/>
			</g>
			<g class="st5">
				<path class="st6" d="M17.23,1.78c-0.03,0.03-0.01,0.05,0.01,0.03C17.25,1.79,17.25,1.77,17.23,1.78z"/>
			</g>
			<g class="st5">
				<path class="st6" d="M17.28,2.24c-0.03,0.03-0.01,0.05,0.01,0.03C17.3,2.25,17.29,2.24,17.28,2.24z"/>
			</g>
			<g class="st5">
				<path class="st6" d="M17.06,2.01c-0.03,0.03-0.01,0.05,0.01,0.03C17.07,2.02,17.07,2.01,17.06,2.01z"/>
			</g>
			<g class="st5">
				<path class="st6" d="M16.54,2.61c-0.02,0-0.05-0.01-0.05,0.02c0.01,0.02,0.07,0.06,0.09,0.04C16.63,2.64,16.56,2.61,16.54,2.61z
					"/>
			</g>
			<g class="st5">
				<path class="st6" d="M16.63,2.88c-0.02,0-0.02,0.02-0.01,0.05C16.56,2.98,16.6,3,16.68,2.94C16.71,2.92,16.65,2.89,16.63,2.88z"
					/>
			</g>
			<g class="st5">
				<path class="st6" d="M15.84,2.7c0.02,0.01,0.07,0.06,0.09,0.03c0.04-0.04-0.02-0.07-0.05-0.07C15.86,2.66,15.82,2.67,15.84,2.7z
					"/>
			</g>
			<g class="st5">
				<path class="st6" d="M16.33,2.91c-0.04,0-0.01,0.05,0.02,0.05c0.01,0,0.02-0.01,0.02-0.03C16.36,2.91,16.35,2.91,16.33,2.91z"/>
			</g>
			<g class="st5">
				<path class="st6" d="M15.88,2.86c-0.03,0.02,0.01,0.05,0.03,0.03c0.01-0.01,0.02-0.02,0-0.04C15.9,2.84,15.89,2.86,15.88,2.86z"
					/>
			</g>
			<g class="st5">
				<path class="st6" d="M15.65,3.02c-0.04,0-0.01,0.05,0.02,0.05c0.01,0,0.02-0.01,0.02-0.03C15.68,3.02,15.67,3.02,15.65,3.02z"/>
			</g>
			<g class="st5">
				<path class="st6" d="M16.16,2.76c-0.01,0.04,0.03,0.03,0.04,0C16.18,2.74,16.17,2.74,16.16,2.76z"/>
			</g>
			<g class="st5">
				<path class="st6" d="M16.04,3.02c-0.03,0.03,0.02,0.04,0.04,0.02C16.07,3.02,16.06,3.01,16.04,3.02z"/>
			</g>
			<g class="st5">
				<path class="st6" d="M16.55,2.77c-0.03,0.03,0.02,0.04,0.04,0.02C16.58,2.78,16.56,2.77,16.55,2.77z"/>
			</g>
			<g class="st5">
				<path class="st6" d="M16.24,2.57c-0.03,0.03,0.02,0.04,0.04,0.02C16.27,2.57,16.25,2.56,16.24,2.57z"/>
			</g>
			<g class="st5">
				<path class="st6" d="M15.68,2.87c-0.03,0.03,0.02,0.04,0.04,0.02C15.71,2.87,15.69,2.86,15.68,2.87z"/>
			</g>
			<g class="st5">
				<path class="st6" d="M17.06,2.51c0.02,0.01,0.08,0.05,0.1,0.02c0.04-0.05-0.03-0.07-0.05-0.07C17.08,2.47,17.04,2.48,17.06,2.51
					z"/>
			</g>
			<g class="st5">
				<path class="st6" d="M17.23,2.85c0.02,0.01,0.11,0.03,0.14,0C17.4,2.8,17.3,2.8,17.27,2.8C17.25,2.81,17.21,2.82,17.23,2.85z"/>
			</g>
			<g class="st5">
				<path class="st6" d="M16.88,2.6c-0.04-0.01-0.03,0.05,0,0.05c0.01,0,0.03,0,0.03-0.02C16.91,2.62,16.89,2.61,16.88,2.6z"/>
			</g>
			<g class="st5">
				<path class="st6" d="M17.54,2.74c-0.04,0.01-0.01,0.06,0.02,0.05c0.01,0,0.03-0.02,0.02-0.04C17.57,2.73,17.55,2.74,17.54,2.74z
					"/>
			</g>
			<g class="st5">
				<path class="st6" d="M17.38,2.56c-0.04-0.01-0.03,0.05,0,0.05c0.01,0,0.03,0,0.03-0.02C17.42,2.58,17.4,2.57,17.38,2.56z"/>
			</g>
			<g class="st5">
				<path class="st6" d="M17.1,2.68c-0.04,0.02,0,0.05,0.03,0.03C17.13,2.7,17.12,2.69,17.1,2.68z"/>
			</g>
			<g class="st5">
				<path class="st6" d="M17.49,1.88c-0.04,0.02,0,0.05,0.03,0.03C17.52,1.89,17.5,1.88,17.49,1.88z"/>
			</g>
			<g class="st5">
				<path class="st6" d="M16.95,2.86c-0.04,0.01,0,0.02,0.03,0.03C16.98,2.88,16.97,2.86,16.95,2.86z"/>
			</g>
			<g class="st5">
				<path class="st6" d="M16.61,2.38c-0.01-0.01-0.04-0.02-0.04,0c0,0.02,0.04,0.06,0.06,0.06C16.67,2.44,16.63,2.4,16.61,2.38z"/>
			</g>
			<g class="st5">
				<path class="st6" d="M16.49,2.33c0.01,0.01,0.05,0.03,0.06,0.01c0.02-0.03-0.02-0.04-0.03-0.04
					C16.51,2.31,16.48,2.32,16.49,2.33z"/>
			</g>
			<g class="st5">
				<path class="st6" d="M17.47,2.96c0.01,0.01,0.05,0.03,0.06,0.01c0.02-0.03-0.02-0.04-0.03-0.04
					C17.49,2.93,17.46,2.94,17.47,2.96z"/>
			</g>
			<g class="st5">
				<path class="st6" d="M16.38,2.34c-0.02-0.01-0.02,0.03,0,0.03c0.01,0,0.02,0,0.02-0.01C16.39,2.35,16.38,2.35,16.38,2.34z"/>
			</g>
			<g class="st5">
				<path class="st6" d="M16.81,2.32c-0.02-0.01-0.02,0.03,0,0.03c0.01,0,0.02,0,0.02-0.01C16.82,2.33,16.81,2.33,16.81,2.32z"/>
			</g>
			<g class="st5">
				<path class="st6" d="M16.75,2.7c-0.02-0.01-0.02,0.03,0,0.03c0.01,0,0.02,0,0.02-0.01C16.77,2.7,16.76,2.7,16.75,2.7z"/>
			</g>
			<g class="st5">
				<path class="st6" d="M17.06,1.28c0,0.01-0.01,0.03,0.01,0.03c0.01,0,0.03-0.03,0.02-0.05C17.08,1.23,17.06,1.27,17.06,1.28z"/>
			</g>
			<g class="st5">
				<path class="st6" d="M15.41,2.6c0.01,0,0.04,0,0.04-0.02c0-0.03-0.03-0.03-0.04-0.02C15.41,2.57,15.4,2.59,15.41,2.6z"/>
			</g>
			<g class="st5">
				<path class="st6" d="M16.77,1.54c-0.03,0.01,0.01,0.05,0.02,0.04c0.01,0,0.01-0.02,0.01-0.03C16.8,1.53,16.79,1.54,16.77,1.54z"
					/>
			</g>
			<g class="st5">
				<path class="st6" d="M16.32,1.86c-0.03,0.01,0.01,0.05,0.02,0.04c0.01,0,0.01-0.02,0.01-0.03C16.34,1.85,16.33,1.86,16.32,1.86z
					"/>
			</g>
			<g class="st5">
				<path class="st6" d="M16.06,2.06c-0.01,0.03,0.02,0.03,0.03,0.01C16.08,2.05,16.07,2.05,16.06,2.06z"/>
			</g>
			<g class="st5">
				<path class="st6" d="M15.55,2.5c-0.01,0.03,0.02,0.03,0.03,0.01C15.57,2.5,15.56,2.49,15.55,2.5z"/>
			</g>
			<g class="st5">
				<path class="st6" d="M15.26,2.9c0.02,0.02,0.03-0.01,0.01-0.02C15.26,2.88,15.26,2.89,15.26,2.9z"/>
			</g>
			<g class="st5">
				<path class="st6" d="M15.22,3.16C15.2,3.17,15.23,3.2,15.25,3.2c0.01,0,0.01-0.01,0.01-0.03C15.24,3.16,15.23,3.16,15.22,3.16z"
					/>
			</g>
			<g class="st5">
				<path class="st6" d="M15.96,3.15c-0.01,0.03,0.02,0.03,0.03,0.01C15.98,3.15,15.97,3.15,15.96,3.15z"/>
			</g>
			<g class="st5">
				<path class="st6" d="M15.44,3.09c-0.01,0.03,0.02,0.03,0.03,0.01C15.46,3.08,15.45,3.08,15.44,3.09z"/>
			</g>
			<path class="st32" d="M15.03,3.19C15.02,3.21,15,3.25,15,3.27L14.89,3.2c0-0.01-0.01-0.01-0.01-0.02c0-0.01,0-0.03,0-0.04
				l0.02-0.08c0.03,0,0.05,0.01,0.07,0.03c0.02,0.02,0.03,0.05,0.04,0.07C15.02,3.18,15.02,3.18,15.03,3.19z"/>
			<path class="st32" d="M14.31,2.7c-0.01,0.02-0.03,0.06-0.03,0.08l-0.11-0.07c0-0.01-0.01-0.01-0.01-0.02c0-0.01,0-0.03,0-0.04
				l0.02-0.08c0.03,0,0.02,0.06,0.03,0.08c0.02,0.02,0.07,0,0.08,0.02C14.31,2.68,14.31,2.69,14.31,2.7z"/>
		</g>
		<g class="st5">
			<path class="st6" d="M17.75,2.69c0.03,0.02,0.11,0.07,0.13,0.04c0.04-0.04-0.05-0.08-0.08-0.08C17.77,2.65,17.72,2.66,17.75,2.69
				z"/>
		</g>
		<g class="st5">
			<path class="st6" d="M17.71,2.82c-0.04,0.01-0.01,0.06,0.02,0.05c0.01,0,0.03-0.02,0.02-0.04C17.74,2.81,17.73,2.82,17.71,2.82z"
				/>
		</g>
	</g>
	<g>
		<path d="M17.33,1.41l0.71,1.42l-2.74,0.34L17.33,1.41 M17.35,1.28l-2.32,2.01l3.13-0.39L17.35,1.28L17.35,1.28z"/>
	</g>
</g>
<g id="signboard_00000126324855000164934150000000326788383669730463_">
	<text transform="matrix(1 0 0 1 4.8336 4.0659)" class="st2 st3 st4">Signboard</text>
</g>
<g id="signboard">
	<g>
		<g>
			<polygon class="st2" points="4.3,3.14 7.04,3.14 5.67,0.77 			"/>
		</g>
		<polygon class="st33" points="5.67,0.77 4.3,3.14 7.04,3.14 		"/>
		<polygon class="st34" points="5.6,2.7 5.56,2.96 5.79,2.96 5.75,2.7 		"/>
		<polygon class="st34" points="6.18,2.7 6.28,2.96 6.51,2.96 6.35,2.7 		"/>
		<polygon class="st34" points="4.99,2.7 4.83,2.96 5.07,2.96 5.17,2.7 		"/>
		<path class="st34" d="M5.7,1.57C5.65,1.63,5.57,1.64,5.52,1.59C5.48,1.55,5.49,1.47,5.54,1.41c0.05-0.05,0.13-0.06,0.18-0.02
			C5.76,1.44,5.76,1.52,5.7,1.57"/>
		<path class="st34" d="M5.36,2.81L5.36,2.81C5.33,2.8,5.31,2.77,5.32,2.74l0.09-0.38c0-0.01,0.01-0.02,0.02-0.03l0.22-0.21
			c0.02-0.02,0.06-0.02,0.08,0c0.02,0.02,0.02,0.06,0,0.08l-0.2,0.18C5.52,2.4,5.52,2.41,5.51,2.42L5.43,2.77
			C5.43,2.8,5.4,2.82,5.36,2.81"/>
		<path class="st34" d="M6.11,2.81C6.08,2.83,6.04,2.82,6.03,2.79L5.71,2.24L5.69,2.2C5.67,2.18,5.68,2.14,5.71,2.12
			c0.03-0.02,0.06-0.01,0.08,0.02l0.02,0.04l0.32,0.55C6.14,2.76,6.13,2.79,6.11,2.81L6.11,2.81z"/>
		<path class="st34" d="M5.36,2.12L5.36,2.12c-0.02-0.02-0.02-0.06,0-0.08l0.23-0.21c0.02-0.02,0.06-0.02,0.08,0
			c0.02,0.02,0.02,0.06,0,0.08L5.44,2.13C5.42,2.15,5.38,2.15,5.36,2.12"/>
		<path class="st34" d="M6.02,2.1L6.02,2.1c-0.03,0-0.06-0.03-0.06-0.06l0-0.17c0-0.02-0.01-0.04-0.03-0.05L5.81,1.75
			C5.78,1.73,5.77,1.69,5.79,1.67C5.8,1.64,5.84,1.63,5.87,1.64l0.18,0.11C6.07,1.76,6.08,1.78,6.08,1.8l0,0.24
			C6.08,2.08,6.06,2.1,6.02,2.1"/>
		<path class="st34" d="M5.59,1.71l0.01,0.4c0,0.03,0.03,0.06,0.06,0.06l0.12,0c0.03,0,0.06-0.03,0.06-0.06l0.01-0.45
			c0-0.02-0.01-0.04-0.03-0.05L5.77,1.59c-0.02-0.01-0.04-0.01-0.06,0L5.62,1.66C5.6,1.67,5.59,1.69,5.59,1.71"/>
		<polygon class="st34" points="5.81,1.61 5.89,1.66 5.84,1.71 5.77,1.69 		"/>
	</g>
	<g>
		<path d="M5.67,0.59l1.46,2.64H4.21L5.67,0.59 M5.67,0.42l-1.6,2.89h3.2L5.67,0.42L5.67,0.42z"/>
	</g>
</g>
<g id="nachos_chips_00000109022275662198475080000012817681988532453041_">
	<text transform="matrix(1 0 0 1 4.5736 11.0247)" class="st2 st3 st4">Nachos chips</text>
</g>
<g id="nachos_chips">
	<g>
		<g>
			<path class="st35" d="M6.73,9.94c0.02-0.03,0.03-0.07,0.01-0.13c-0.09-0.3-0.28-0.59-0.43-0.87C6.2,8.72,6.07,8.5,5.96,8.27
				c-0.04-0.1-0.14-0.34-0.28-0.21C5.52,8.2,4.9,9.08,4.74,9.35c-0.07,0.11-0.38,0.5-0.18,0.59C4.69,10,4.87,10,5.01,10.01
				c0.18,0.01,0.35,0.02,0.53,0.02c0.35,0.01,0.7,0.02,1.04-0.02C6.65,10,6.7,9.98,6.73,9.94z"/>
			<path class="st36" d="M6.62,9.86C6.64,9.84,6.64,9.8,6.62,9.75C6.54,9.47,6.37,9.21,6.24,8.95c-0.11-0.2-0.23-0.41-0.32-0.62
				c-0.04-0.09-0.13-0.31-0.26-0.2C5.51,8.28,4.95,9.08,4.8,9.33c-0.06,0.1-0.35,0.46-0.16,0.54c0.12,0.05,0.29,0.05,0.41,0.06
				c0.16,0.01,0.32,0.02,0.49,0.02c0.32,0.01,0.64,0.02,0.95-0.02C6.54,9.92,6.59,9.9,6.62,9.86z"/>
			<g>
				<g>
					<path class="st37" d="M5.36,9C5.36,8.99,5.36,8.99,5.36,9c0-0.01,0-0.01-0.01-0.01c0,0,0,0,0,0c0,0,0,0,0,0c0,0,0,0,0,0
						c0,0,0,0,0,0c0,0,0,0,0,0c0,0,0,0,0,0c0,0,0,0,0,0c0,0,0,0-0.01,0c0,0,0,0,0,0c0,0,0,0-0.01,0c0,0,0,0,0,0c0,0,0,0-0.01,0.01
						c0,0,0,0,0,0l0,0.01c0,0,0,0,0,0.01c0,0,0,0,0,0c0,0,0,0,0,0c0,0,0,0,0,0c0,0,0,0,0,0c0,0,0,0,0,0c0,0,0,0.01,0.01,0.01
						c0,0,0,0,0,0c0,0,0,0,0,0.01c0,0,0,0,0.01,0c0,0,0,0,0,0c0,0,0,0,0,0c0,0,0.01,0,0.01,0c0,0,0,0,0,0c0,0,0,0,0,0c0,0,0,0,0,0
						c0,0,0,0,0-0.01C5.36,9.01,5.36,9.01,5.36,9C5.36,9,5.36,9,5.36,9C5.36,9,5.36,9,5.36,9z"/>
					<path class="st37" d="M5.34,8.98C5.29,8.99,5.32,8.98,5.34,8.98C5.33,8.98,5.33,8.98,5.34,8.98C5.34,8.98,5.34,8.98,5.34,8.98z
						"/>
				</g>
				<polygon class="st37" points="5.6,9.2 5.59,9.19 5.59,9.19 5.59,9.19 5.59,9.19 5.59,9.19 5.59,9.19 5.58,9.19 5.58,9.19 
					5.58,9.19 5.57,9.19 5.57,9.19 5.57,9.2 5.57,9.2 5.57,9.2 5.57,9.2 5.57,9.2 5.57,9.21 5.57,9.21 5.57,9.21 5.57,9.21 
					5.57,9.21 5.57,9.21 5.58,9.22 5.58,9.22 5.58,9.22 5.59,9.22 5.59,9.21 5.6,9.21 5.6,9.21 5.6,9.2 				"/>
				<path class="st37" d="M5.75,8.85c-0.01,0-0.02,0.03-0.01,0.02C5.76,8.87,5.77,8.85,5.75,8.85z"/>
				<path class="st37" d="M6.02,9.23C6.01,9.23,6,9.26,6.01,9.25C6.03,9.25,6.04,9.23,6.02,9.23z"/>
				<polygon class="st37" points="6.17,9.11 6.17,9.11 6.17,9.11 6.16,9.11 6.16,9.11 6.15,9.11 6.15,9.11 6.14,9.11 6.14,9.12 
					6.14,9.12 6.14,9.13 6.14,9.13 6.14,9.13 6.14,9.14 6.15,9.14 6.15,9.14 6.15,9.13 6.16,9.13 6.16,9.14 6.16,9.14 6.17,9.13 
					6.17,9.13 6.18,9.13 6.18,9.12 6.18,9.12 				"/>
				<path class="st37" d="M5.47,9.74c-0.02,0-0.03,0.03-0.01,0.03C5.48,9.77,5.5,9.74,5.47,9.74z"/>
				<path class="st37" d="M5.73,8.53c-0.01,0-0.02,0.03-0.01,0.03C5.74,8.56,5.75,8.53,5.73,8.53z"/>
				<polygon class="st37" points="4.97,9.57 4.96,9.57 4.96,9.56 4.96,9.56 4.96,9.56 4.95,9.56 4.95,9.56 4.94,9.57 4.94,9.57 
					4.94,9.57 4.94,9.58 4.94,9.58 4.94,9.58 4.94,9.59 4.94,9.59 4.95,9.59 4.95,9.59 4.96,9.59 4.96,9.58 4.96,9.58 4.96,9.58 
					4.97,9.57 				"/>
				<path class="st37" d="M4.93,9.75c-0.01,0-0.01,0.02,0,0.02C4.94,9.76,4.94,9.75,4.93,9.75z"/>
				<path class="st37" d="M4.7,9.69c-0.01,0-0.02,0.02,0,0.02C4.7,9.71,4.71,9.69,4.7,9.69z"/>
				<path class="st37" d="M5,9.25C5,9.25,4.99,9.27,5,9.26C5.01,9.26,5.01,9.25,5,9.25z"/>
				<path class="st37" d="M5.13,9.39c-0.01,0-0.02,0.02,0,0.02C5.14,9.41,5.15,9.39,5.13,9.39z"/>
				<path class="st37" d="M5.43,9.59c-0.01,0-0.02,0.03-0.01,0.02C5.44,9.61,5.45,9.59,5.43,9.59z"/>
				<path class="st37" d="M5.37,8.63c-0.01,0-0.03,0.03-0.01,0.03C5.38,8.66,5.39,8.63,5.37,8.63z"/>
				<polygon class="st37" points="5.53,8.43 5.53,8.42 5.53,8.42 5.52,8.42 5.52,8.42 5.51,8.42 5.51,8.43 5.51,8.43 5.51,8.43 
					5.51,8.44 5.51,8.44 5.51,8.44 5.51,8.44 5.51,8.45 5.52,8.44 5.53,8.44 5.53,8.44 5.53,8.43 				"/>
				<path class="st37" d="M6.16,9.65c-0.01,0-0.02,0.01-0.02,0.02c0,0.01,0,0.01,0.01,0.01c0.01,0,0.02-0.01,0.02-0.02
					C6.17,9.66,6.17,9.65,6.16,9.65z"/>
				<polygon class="st37" points="5.91,9.85 5.91,9.84 5.91,9.84 5.9,9.84 5.9,9.84 5.9,9.84 5.89,9.84 5.89,9.84 5.89,9.85 
					5.88,9.85 5.88,9.86 5.88,9.86 5.88,9.86 5.88,9.87 5.88,9.87 5.88,9.88 5.89,9.88 5.9,9.88 5.9,9.87 5.91,9.87 5.91,9.86 
					5.91,9.86 5.91,9.85 				"/>
				<path class="st37" d="M6.46,9.8c-0.02,0-0.03,0.03-0.01,0.03C6.46,9.83,6.48,9.8,6.46,9.8z"/>
				<path class="st37" d="M6.54,9.91c-0.01,0-0.01,0.01,0,0.01C6.54,9.92,6.55,9.9,6.54,9.91z"/>
				<polygon class="st37" points="6.58,9.6 6.58,9.6 6.57,9.6 6.57,9.6 6.57,9.6 6.57,9.6 6.57,9.6 6.56,9.6 6.56,9.6 6.56,9.6 
					6.55,9.61 6.55,9.61 6.55,9.61 6.55,9.61 6.55,9.61 6.55,9.61 6.55,9.62 6.55,9.62 6.55,9.63 6.55,9.63 6.56,9.63 6.56,9.63 
					6.57,9.62 6.57,9.62 6.58,9.62 6.58,9.61 6.58,9.61 6.58,9.61 6.58,9.61 6.58,9.61 6.58,9.61 6.58,9.6 				"/>
				<path class="st37" d="M6.44,9.35c-0.01,0-0.02,0.01-0.02,0.02c0,0.01,0,0.02,0.01,0.02c0.01,0,0.02-0.01,0.02-0.02
					C6.45,9.35,6.45,9.35,6.44,9.35z"/>
			</g>
			<polygon class="st38" points="5.06,9.13 5.06,9.12 5.06,9.12 5.06,9.12 5.06,9.12 5.06,9.12 5.05,9.12 5.05,9.12 5.05,9.12 
				5.05,9.12 5.05,9.12 5.05,9.12 5.04,9.12 5.04,9.13 5.04,9.13 5.03,9.13 5.03,9.14 5.03,9.14 5.03,9.14 5.04,9.14 5.04,9.15 
				5.04,9.15 5.04,9.15 5.04,9.15 5.05,9.15 5.05,9.15 5.05,9.15 5.06,9.14 5.06,9.14 5.06,9.14 5.06,9.13 			"/>
			<path class="st38" d="M5.16,9.05c-0.01,0-0.02,0.02,0,0.02C5.16,9.07,5.17,9.05,5.16,9.05z"/>
			<path class="st38" d="M5.45,8.66c-0.01,0-0.02,0.02,0,0.02C5.46,8.68,5.47,8.66,5.45,8.66z"/>
			<path class="st38" d="M5.59,8.24c-0.01,0-0.01,0.01,0,0.01C5.59,8.25,5.6,8.24,5.59,8.24z"/>
			<path class="st38" d="M5.8,8.6c-0.01,0-0.02,0.03-0.01,0.02C5.81,8.63,5.82,8.6,5.8,8.6z"/>
			<path class="st38" d="M5.83,8.23c-0.01,0-0.02,0.03-0.01,0.02C5.84,8.25,5.85,8.23,5.83,8.23z"/>
			<polygon class="st38" points="6.04,8.58 6.04,8.58 6.03,8.58 6.03,8.58 6.03,8.58 6.02,8.58 6.02,8.59 6.02,8.59 6.02,8.59 
				6.02,8.6 6.02,8.6 6.02,8.6 6.03,8.6 6.03,8.6 6.04,8.6 6.04,8.59 6.04,8.59 6.04,8.59 			"/>
			<path class="st38" d="M5.99,9.55c-0.01,0-0.02,0.02,0,0.02C6,9.57,6,9.55,5.99,9.55z"/>
			<path class="st38" d="M5.77,9.79C5.77,9.79,5.77,9.79,5.77,9.79C5.78,9.79,5.78,9.78,5.77,9.79z"/>
			<polygon class="st38" points="5.66,9.88 5.65,9.88 5.65,9.88 5.64,9.88 5.64,9.88 5.64,9.88 5.64,9.88 5.63,9.88 5.63,9.89 
				5.63,9.89 5.62,9.89 5.62,9.9 5.63,9.91 5.63,9.91 5.63,9.91 5.63,9.91 5.63,9.91 5.63,9.91 5.63,9.91 5.64,9.91 5.64,9.91 
				5.64,9.91 5.64,9.91 5.64,9.91 5.64,9.91 5.64,9.91 5.65,9.91 5.65,9.91 5.65,9.9 5.65,9.9 5.65,9.9 5.65,9.9 5.66,9.9 
				5.66,9.89 			"/>
			<polygon class="st38" points="5.74,9.42 5.74,9.41 5.74,9.41 5.74,9.41 5.74,9.41 5.74,9.41 5.74,9.41 5.74,9.41 5.74,9.41 
				5.74,9.41 5.73,9.41 5.73,9.41 5.73,9.41 5.73,9.41 5.73,9.41 5.73,9.41 5.72,9.41 5.72,9.41 5.71,9.42 5.71,9.42 5.71,9.42 
				5.71,9.42 5.71,9.43 5.71,9.43 5.71,9.43 5.71,9.43 5.71,9.43 5.71,9.43 5.71,9.43 5.71,9.43 5.71,9.43 5.71,9.43 5.72,9.44 
				5.72,9.44 5.73,9.44 5.73,9.44 5.74,9.43 5.74,9.42 			"/>
			<path class="st38" d="M4.7,9.87c-0.01,0-0.02,0.02,0,0.02C4.71,9.89,4.72,9.87,4.7,9.87z"/>
			<path class="st38" d="M4.56,9.76c-0.01,0-0.02,0.02,0,0.02C4.57,9.78,4.57,9.76,4.56,9.76z"/>
			<polygon class="st36" points="5.33,8.76 5.32,8.76 5.32,8.75 5.32,8.75 5.31,8.75 5.31,8.76 5.31,8.76 5.31,8.76 5.31,8.76 
				5.3,8.76 5.3,8.76 5.3,8.76 5.3,8.76 5.3,8.76 5.3,8.77 5.3,8.77 5.3,8.77 5.3,8.77 5.3,8.77 5.3,8.77 5.3,8.77 5.3,8.78 
				5.3,8.78 5.3,8.78 5.31,8.78 5.31,8.78 5.31,8.78 5.31,8.78 5.32,8.78 5.32,8.78 5.32,8.77 5.32,8.77 5.32,8.76 5.33,8.76 			"/>
			<path class="st36" d="M5.52,8.81c-0.01,0-0.03,0.03-0.01,0.03C5.52,8.83,5.54,8.8,5.52,8.81z"/>
			<path class="st36" d="M5.77,8.41c-0.01,0-0.02,0.02,0,0.02C5.77,8.43,5.78,8.41,5.77,8.41z"/>
			<path class="st36" d="M5.99,8.44c-0.01,0-0.02,0.02,0,0.02C5.99,8.46,6,8.44,5.99,8.44z"/>
			<path class="st36" d="M5.58,8.32c-0.01,0-0.02,0.02,0,0.02C5.58,8.34,5.59,8.32,5.58,8.32z"/>
			<polygon class="st36" points="5.72,8.14 5.71,8.14 5.71,8.14 5.71,8.14 5.71,8.14 5.71,8.14 5.71,8.13 5.7,8.13 5.7,8.13 
				5.69,8.14 5.69,8.14 5.69,8.14 5.68,8.15 5.68,8.16 5.68,8.16 5.69,8.16 5.69,8.16 5.69,8.17 5.7,8.17 5.71,8.16 5.71,8.16 
				5.72,8.15 5.72,8.15 			"/>
			<path class="st36" d="M5.77,9.34C5.77,9.34,5.77,9.35,5.77,9.34C5.77,9.35,5.78,9.34,5.77,9.34z"/>
			<path class="st36" d="M5.95,8.97c-0.01,0-0.02,0.01-0.02,0.02c0,0.01,0,0.02,0.01,0.02C5.95,9,5.96,9,5.96,8.99
				C5.96,8.98,5.96,8.97,5.95,8.97z"/>
			<path class="st36" d="M5.98,8.89c-0.01,0-0.02,0.02,0,0.02C5.98,8.91,5.99,8.89,5.98,8.89z"/>
			<path class="st36" d="M5.69,9.1c-0.01,0-0.02,0.02,0,0.02C5.69,9.12,5.7,9.1,5.69,9.1z"/>
			<path class="st36" d="M5.25,9.25c-0.01,0-0.01,0.02,0,0.01C5.26,9.26,5.26,9.25,5.25,9.25z"/>
			<path class="st36" d="M5.45,9.4c-0.01,0-0.02,0.02,0,0.02C5.46,9.42,5.47,9.4,5.45,9.4z"/>
			<polygon class="st36" points="5.19,9.69 5.18,9.69 5.18,9.69 5.18,9.69 5.17,9.69 5.17,9.7 5.16,9.7 5.16,9.71 5.16,9.71 
				5.16,9.71 5.16,9.72 5.17,9.72 5.17,9.72 5.18,9.72 5.18,9.71 5.19,9.71 5.19,9.7 5.19,9.7 			"/>
			<polygon class="st36" points="4.86,9.45 4.86,9.44 4.85,9.44 4.85,9.44 4.85,9.44 4.84,9.44 4.84,9.45 4.84,9.45 4.83,9.45 
				4.83,9.46 4.84,9.46 4.84,9.46 4.84,9.47 4.85,9.47 4.85,9.46 4.86,9.46 4.86,9.46 4.86,9.45 			"/>
			<path class="st36" d="M4.74,9.62C4.74,9.61,4.74,9.61,4.74,9.62C4.74,9.61,4.74,9.61,4.74,9.62C4.74,9.61,4.74,9.61,4.74,9.62
				C4.73,9.61,4.73,9.61,4.74,9.62C4.73,9.61,4.73,9.61,4.73,9.61c0,0,0,0,0,0c0,0,0,0,0,0c0,0,0,0,0,0c0,0,0,0,0,0c0,0,0,0,0,0
				c0,0,0,0,0,0.01c0,0,0,0,0,0c0,0,0,0,0,0c0,0,0,0,0.01,0c0,0,0,0,0,0c0,0,0,0,0,0C4.74,9.62,4.74,9.62,4.74,9.62z"/>
			<path class="st36" d="M5.9,9.66c-0.01,0-0.02,0.02,0,0.02C5.91,9.68,5.91,9.66,5.9,9.66z"/>
			<path class="st36" d="M6.41,9.79c-0.01,0-0.02,0.02,0,0.02C6.41,9.81,6.42,9.79,6.41,9.79z"/>
			<polygon class="st36" points="6.34,9.47 6.34,9.47 6.33,9.47 6.33,9.47 6.32,9.47 6.31,9.47 6.31,9.48 6.31,9.48 6.31,9.49 
				6.31,9.49 6.31,9.5 6.32,9.5 6.32,9.5 6.33,9.5 6.34,9.5 6.34,9.49 6.34,9.48 6.35,9.48 			"/>
			<path class="st36" d="M6.1,9.9c-0.01,0-0.02,0.02,0,0.02C6.11,9.92,6.12,9.9,6.1,9.9z"/>
			<path class="st36" d="M5.08,9.92c-0.01,0-0.02,0.02,0,0.02C5.09,9.94,5.09,9.92,5.08,9.92z"/>
			<path class="st36" d="M5.28,9.89c-0.01,0-0.02,0.02,0,0.02C5.29,9.9,5.3,9.89,5.28,9.89z"/>
		</g>
	</g>
	<g>
		<path d="M5.76,7.82L7,10.04H4.24L5.76,7.82 M5.76,7.64L5.68,7.77L4.16,9.99l-0.1,0.15h0.18H7h0.16L7.08,10L5.84,7.77L5.76,7.64
			L5.76,7.64z"/>
	</g>
</g>
<g id="set_square">
	<g>
		<g>
			<g>
				<path class="st39" d="M16.96,8.36l-1.72,1.79l3.52-0.05L16.96,8.36z M16.97,8.93l0.8,0.78l-1.57,0.02L16.97,8.93z"/>
			</g>
		</g>
		<g class="st40">
			<path class="st41" d="M16.96,8.36L16.9,8.42l1.64,1.59l-3.21,0.05l-0.09,0.09l3.52-0.05L16.96,8.36z"/>
		</g>
		<g class="st42">
			<path class="st2" d="M17.75,9.71L16.3,9.73l0,0c-0.02,0.02-0.01,0.06,0.03,0.06l1.39-0.02C17.76,9.77,17.77,9.73,17.75,9.71
				L17.75,9.71z M16.95,8.36l-1.72,1.79l0.11,0L17,8.42l1.74,1.68l0.01,0L16.95,8.36z"/>
		</g>
		<g>
			<path class="st41" d="M15.23,10.18c-0.01,0-0.01-0.01-0.02-0.02c0-0.01,0-0.02,0.01-0.03l1.72-1.79
				c0.01-0.01,0.01-0.01,0.02-0.01c0.01,0,0.02,0,0.02,0.01l1.8,1.74c0.01,0.01,0.01,0.02,0.01,0.03c0,0.01-0.01,0.02-0.03,0.02
				l-3.52,0.05C15.24,10.18,15.24,10.18,15.23,10.18z M16.96,8.4l-1.65,1.72l3.38-0.05L16.96,8.4z M16.2,9.76
				c-0.01,0-0.01-0.01-0.02-0.02c0-0.01,0-0.02,0.01-0.03l0.77-0.8c0.01-0.01,0.01-0.01,0.02-0.01c0.01,0,0.02,0,0.02,0.01l0.8,0.78
				c0.01,0.01,0.01,0.02,0.01,0.03c0,0.01-0.01,0.02-0.03,0.02l-1.57,0.02C16.2,9.76,16.2,9.76,16.2,9.76z M16.97,8.97l-0.7,0.73
				l1.43-0.02L16.97,8.97z"/>
		</g>
		<g>
			<path class="st41" d="M16.2,9.76c-0.01,0-0.01-0.01-0.02-0.02c0-0.01,0-0.02,0.01-0.03l0.77-0.8c0.01-0.01,0.01-0.01,0.02-0.01
				c0.01,0,0.02,0,0.02,0.01l0.8,0.78c0.01,0.01,0.01,0.02,0.01,0.03c0,0.01-0.01,0.02-0.03,0.02l-1.57,0.02
				C16.2,9.76,16.2,9.76,16.2,9.76z M16.97,8.97l-0.7,0.73l1.43-0.02L16.97,8.97z"/>
		</g>
		<g>
			<path class="st41" d="M16.2,9.76c-0.01,0-0.01-0.01-0.02-0.02c0-0.01,0-0.02,0.01-0.03l0.77-0.8c0.01-0.01,0.01-0.01,0.02-0.01
				c0.01,0,0.02,0,0.02,0.01l0.8,0.78c0.01,0.01,0.01,0.02,0.01,0.03c0,0.01-0.01,0.02-0.03,0.02l-1.57,0.02
				C16.2,9.76,16.2,9.76,16.2,9.76z M16.97,8.97l-0.7,0.73l1.43-0.02L16.97,8.97z"/>
		</g>
		<g>
			<path class="st41" d="M15.66,10.16c-0.01,0-0.01-0.01-0.01-0.02l0-0.18c0-0.01,0.01-0.02,0.02-0.02c0.01,0,0.02,0.01,0.02,0.02
				l0,0.18C15.68,10.16,15.68,10.16,15.66,10.16C15.66,10.16,15.66,10.16,15.66,10.16z"/>
		</g>
		<g>
			<path class="st41" d="M15.8,10.16c-0.01,0-0.01-0.01-0.01-0.02l0-0.09c0-0.01,0.01-0.02,0.02-0.02c0.01,0,0.02,0.01,0.02,0.02
				l0,0.09C15.83,10.15,15.82,10.16,15.8,10.16C15.81,10.16,15.8,10.16,15.8,10.16z"/>
		</g>
		<g>
			<path class="st41" d="M15.95,10.16c-0.01,0-0.01-0.01-0.01-0.02l0-0.09c0-0.01,0.01-0.02,0.02-0.02c0.01,0,0.02,0.01,0.02,0.02
				l0,0.09C15.97,10.15,15.97,10.16,15.95,10.16C15.95,10.16,15.95,10.16,15.95,10.16z"/>
		</g>
		<g>
			<path class="st41" d="M16.09,10.16c-0.01,0-0.01-0.01-0.01-0.02l0-0.09c0-0.01,0.01-0.02,0.02-0.02c0.01,0,0.02,0.01,0.02,0.02
				l0,0.09C16.12,10.15,16.11,10.16,16.09,10.16C16.1,10.16,16.09,10.16,16.09,10.16z"/>
		</g>
		<g>
			<path class="st41" d="M16.24,10.15c-0.01,0-0.01-0.01-0.01-0.02l0-0.18c0-0.01,0.01-0.02,0.02-0.02c0.01,0,0.02,0.01,0.02,0.02
				l0,0.18C16.26,10.15,16.25,10.16,16.24,10.15C16.24,10.16,16.24,10.16,16.24,10.15z"/>
		</g>
		<g>
			<path class="st41" d="M16.39,10.16c-0.01,0-0.01-0.01-0.01-0.01l0-0.07c0-0.01,0.01-0.02,0.02-0.02c0.01,0,0.02,0.01,0.02,0.02
				l0,0.07C16.41,10.15,16.4,10.16,16.39,10.16C16.39,10.16,16.39,10.16,16.39,10.16z"/>
		</g>
		<g>
			<path class="st41" d="M16.53,10.15c-0.01,0-0.01-0.01-0.01-0.02l0-0.09c0-0.01,0.01-0.02,0.02-0.02c0.01,0,0.02,0.01,0.02,0.02
				l0,0.09C16.55,10.14,16.54,10.15,16.53,10.15C16.53,10.15,16.53,10.15,16.53,10.15z"/>
		</g>
		<g>
			<path class="st41" d="M16.67,10.15c-0.01,0-0.01-0.01-0.01-0.02l0-0.09c0-0.01,0.01-0.02,0.02-0.02c0.01,0,0.02,0.01,0.02,0.02
				l0,0.09C16.7,10.14,16.69,10.15,16.67,10.15C16.68,10.15,16.67,10.15,16.67,10.15z"/>
		</g>
		<g>
			<path class="st41" d="M16.82,10.15c-0.01,0-0.01-0.01-0.01-0.02l0-0.18c0-0.01,0.01-0.02,0.02-0.02c0.01,0,0.02,0.01,0.02,0.02
				l0,0.18C16.84,10.14,16.83,10.15,16.82,10.15C16.82,10.15,16.82,10.15,16.82,10.15z"/>
		</g>
		<g>
			<path class="st41" d="M16.96,10.14c-0.01,0-0.01-0.01-0.01-0.02l0-0.09c0-0.01,0.01-0.02,0.02-0.02c0.01,0,0.02,0.01,0.02,0.02
				l0,0.09C16.99,10.14,16.98,10.15,16.96,10.14C16.97,10.15,16.96,10.15,16.96,10.14z"/>
		</g>
		<g>
			<path class="st41" d="M17.11,10.14c-0.01,0-0.01-0.01-0.01-0.02l0-0.09c0-0.01,0.01-0.02,0.02-0.02c0.01,0,0.02,0.01,0.02,0.02
				l0,0.09C17.13,10.13,17.12,10.14,17.11,10.14C17.11,10.14,17.11,10.14,17.11,10.14z"/>
		</g>
		<g>
			<path class="st41" d="M17.25,10.14c-0.01,0-0.01-0.01-0.01-0.02l0-0.09c0-0.01,0.01-0.02,0.02-0.02c0.01,0,0.02,0.01,0.02,0.02
				l0,0.09C17.28,10.13,17.27,10.14,17.25,10.14C17.25,10.14,17.25,10.14,17.25,10.14z"/>
		</g>
		<g>
			<path class="st41" d="M17.39,10.14c-0.01,0-0.01-0.01-0.01-0.02l0-0.18c0-0.01,0.01-0.02,0.02-0.02c0.01,0,0.02,0.01,0.02,0.02
				l0,0.18C17.42,10.13,17.41,10.14,17.39,10.14C17.4,10.14,17.4,10.14,17.39,10.14z"/>
		</g>
		<g>
			<path class="st41" d="M17.54,10.14c-0.01,0-0.01-0.01-0.01-0.02l0-0.09c0-0.01,0.01-0.02,0.02-0.02c0.01,0,0.02,0.01,0.02,0.02
				l0,0.09C17.57,10.13,17.56,10.14,17.54,10.14C17.54,10.14,17.54,10.14,17.54,10.14z"/>
		</g>
		<g>
			<path class="st41" d="M17.68,10.13c-0.01,0-0.01-0.01-0.01-0.02l0-0.09c0-0.01,0.01-0.02,0.02-0.02c0.01,0,0.02,0.01,0.02,0.02
				l0,0.09C17.71,10.13,17.7,10.13,17.68,10.13C17.69,10.14,17.69,10.13,17.68,10.13z"/>
		</g>
		<g>
			<path class="st41" d="M17.83,10.13c-0.01,0-0.01-0.01-0.01-0.02l0-0.09c0-0.01,0.01-0.02,0.02-0.02c0.01,0,0.02,0.01,0.02,0.02
				l0,0.09C17.86,10.12,17.85,10.13,17.83,10.13C17.83,10.13,17.83,10.13,17.83,10.13z"/>
		</g>
		<g>
			<path class="st41" d="M17.97,10.13c-0.01,0-0.01-0.01-0.01-0.02l0-0.18c0-0.01,0.01-0.02,0.02-0.02c0.01,0,0.02,0.01,0.02,0.02
				l0,0.18C18,10.12,17.99,10.13,17.97,10.13C17.98,10.13,17.98,10.13,17.97,10.13z"/>
		</g>
		<g>
			<path class="st41" d="M18.12,10.13c-0.01,0-0.01-0.01-0.01-0.02l0-0.09c0-0.01,0.01-0.02,0.02-0.02c0.01,0,0.02,0.01,0.02,0.02
				l0,0.09C18.15,10.12,18.14,10.13,18.12,10.13C18.12,10.13,18.12,10.13,18.12,10.13z"/>
		</g>
		<g>
			<path class="st41" d="M18.26,10.13c-0.01,0-0.01-0.01-0.01-0.02l0-0.09c0-0.01,0.01-0.02,0.02-0.02c0.01,0,0.02,0.01,0.02,0.02
				l0,0.09C18.29,10.12,18.28,10.13,18.26,10.13C18.27,10.13,18.27,10.13,18.26,10.13z"/>
		</g>
	</g>
	<polygon class="st43" points="15.22,10.16 16.96,8.33 18.79,10.11 	"/>
</g>
<text id="triangle" transform="matrix(1 0 0 1 10.0418 7.8648)" class="st2 st44 st45">Triangle</text>
</svg>
