<?xml version="1.0" encoding="UTF-8"?>
<svg xmlns="http://www.w3.org/2000/svg" version="1.1" xmlns:xlink="http://www.w3.org/1999/xlink" viewBox="0 0 22 12">
  <!-- Generator: Adobe Illustrator 29.5.1, SVG Export Plug-In . SVG Version: 2.1.0 Build 141)  -->
  <defs>
    <style>
      .st0 {
        fill: #7a5c34;
      }

      .st1 {
        fill: #d89a47;
      }

      .st2 {
        fill: #e1ddc2;
      }

      .st3 {
        font-size: .41px;
      }

      .st3, .st4, .st5, .st6 {
        fill: #343536;
        font-family: FefdyTypeRegular, 'Fefdy Type';
      }

      .st7 {
        fill: #544e87;
      }

      .st8, .st9 {
        fill: #231f20;
      }

      .st10 {
        fill: #f7d89d;
      }

      .st11 {
        fill: #7db364;
      }

      .st12 {
        fill: #dd8c83;
      }

      .st13 {
        fill: #b07947;
      }

      .st14, .st15 {
        opacity: .3;
      }

      .st16 {
        fill: #ae8d6e;
        opacity: .51;
      }

      .st16, .st17, .st18, .st15 {
        mix-blend-mode: multiply;
      }

      .st16, .st19, .st20, .st21, .st22 {
        fill-rule: evenodd;
      }

      .st23 {
        fill: #f3ede3;
      }

      .st24 {
        stroke: #231f20;
        stroke-width: .12px;
      }

      .st24, .st25 {
        fill: none;
        stroke-miterlimit: 10;
      }

      .st26, .st27, .st28 {
        fill: #fff;
      }

      .st29 {
        fill: #f2c92d;
      }

      .st9 {
        font-family: MyriadPro-Regular, 'Myriad Pro';
        font-size: .46px;
      }

      .st30 {
        fill: #c0cf81;
      }

      .st4 {
        font-size: .42px;
      }

      .st31 {
        isolation: isolate;
      }

      .st17 {
        opacity: .2;
      }

      .st17, .st32, .st18, .st15 {
        fill: #c28049;
      }

      .st33 {
        fill: #9ec46d;
      }

      .st27, .st34 {
        mix-blend-mode: screen;
      }

      .st35 {
        fill: #1d2f3c;
      }

      .st5 {
        font-size: .41px;
      }

      .st36 {
        opacity: .65;
      }

      .st37 {
        fill: #f1e3c7;
      }

      .st19 {
        fill: url(#linear-gradient1);
      }

      .st38, .st34 {
        fill: #f5c23c;
      }

      .st39 {
        fill: #bf5f4c;
      }

      .st40 {
        fill: #c94648;
      }

      .st41 {
        fill: #b23f44;
      }

      .st42 {
        fill: #8dc63f;
      }

      .st18 {
        opacity: .11;
      }

      .st43 {
        opacity: .26;
      }

      .st28 {
        opacity: .74;
      }

      .st20 {
        fill: #f2c33a;
      }

      .st44 {
        fill: #de5f45;
      }

      .st45 {
        fill: #9a3e3c;
      }

      .st46 {
        fill: #f1bfb2;
      }

      .st21 {
        fill: #0070b6;
      }

      .st47 {
        fill: #65975d;
      }

      .st48 {
        fill: #e77d64;
      }

      .st22 {
        fill: url(#linear-gradient);
      }

      .st25 {
        stroke: #df4145;
        stroke-width: .17px;
      }

      .st49 {
        fill: #e9876f;
      }

      .st50 {
        opacity: .69;
      }

      .st6 {
        font-size: .42px;
      }
    </style>
    <linearGradient id="linear-gradient" x1="-6450.52" y1="1148.17" x2="-6448.26" y2="1148.17" gradientTransform="translate(-5025.35 2738.01) rotate(164.14) scale(.87 1.09) skewX(.71)" gradientUnits="userSpaceOnUse">
      <stop offset="0" stop-color="#ec9f43"/>
      <stop offset="1" stop-color="#edb03e"/>
    </linearGradient>
    <linearGradient id="linear-gradient1" x1="-5756.72" y1="1270.42" x2="-5754.46" y2="1270.42" gradientTransform="translate(-5411.44 2358.39) rotate(170.21) scale(1 1.1) skewX(.27)" xlink:href="#linear-gradient"/>
  </defs>
  <g class="st31">
    <g id="Layer_1">
      <rect class="st42" x="-.57" y="-.42" width="24.71" height="14.79"/>
      <g id="_x28__x2F_techno_x2F_math_x2F_shapes_x2F_level1_x2F_triangle.mp3_x29_">
        <g>
          <polygon class="st21" points="10.02 6.93 10.95 5.05 12.03 6.93 10.02 6.93"/>
          <path class="st8" d="M10.99,5.07l.97,1.82h-1.95l.97-1.82M10.99,4.9l-.07.13-.97,1.82-.06.12h2.21l-.06-.12-.97-1.82-.07-.13h0Z"/>
        </g>
      </g>
      <g id="_x28__x2F_techno_x2F_math_x2F_shapes_x2F_level1_x2F_sandwich.mp3_x29_">
        <text class="st3" transform="translate(15.66 3.87)"><tspan x="0" y="0">Sandwich</tspan></text>
      </g>
      <g id="_x28__x2F_techno_x2F_math_x2F_shapes_x2F_level1_x2F_set_square.mp3_x29_">
        <text class="st5" transform="translate(15.59 10.42)"><tspan x="0" y="0">Set square</tspan></text>
      </g>
      <g id="_x28__x2F_techno_x2F_math_x2F_shapes_x2F_level1_x2F_sandwich.mp3_x29_1" data-name="_x28__x2F_techno_x2F_math_x2F_shapes_x2F_level1_x2F_sandwich.mp3_x29_">
        <g>
          <g>
            <g>
              <path class="st23" d="M17.07.8s-.1-.07-.14-.09c-.03-.01-.09-.04-.12-.02-.13.1-.58.45-.6.47-.04.04-.95.79-.97.8-.02.01-.42.42-.49.48,0,0,0,.01-.01.02l-.02.08s0,.06.02.06l.04.03s.07.05.08.04l.38-.16s0,0,0,0l.68-.26s0,0,.01,0l.46-.38s0,0,0-.01l.64-1.01s.04-.04.03-.06Z"/>
              <path class="st17" d="M17.07.83s-.03-.07-.06-.06c-.08,0-.18.08-.25.12-.06.05-.12.1-.18.14-.04.03-.08.06-.12.09-.03.03-.06.07-.09.1-.06.07-.13.13-.21.18-.07.06-.14.12-.2.18-.07.06-.15.11-.22.16-.08.05-.13.12-.2.19-.08.06-.15.13-.23.2-.09.07-.2.16-.28.24-.08.07-.15.14-.21.27-.01.03.03.04.06.04.03,0,.08-.04.08-.07,0-.02,0-.03,0-.05,0,0,0-.01,0-.02,0,0,.01-.02.02-.03.03-.03.06-.06.1-.09.08-.06.15-.12.23-.19.08-.06.15-.13.23-.19.07-.06.14-.12.22-.18.08-.05.16-.1.23-.16.07-.06.13-.13.2-.19.07-.06.14-.11.2-.17.07-.06.12-.14.19-.2.04-.03.08-.06.12-.09.03-.02.06-.05.1-.08.06-.05.12-.09.2-.1.03,0,.07-.04.06-.06Z"/>
              <path class="st37" d="M14.89,2.53c.27-.23.55-.46.82-.69.21-.17.42-.35.62-.52.18-.15.34-.31.52-.44.05-.03.13-.11.19-.08.02.01.04.04.05.06.19.37.36.75.53,1.13.03.07.06.13.08.2.02.04.06.1.04.14,0,.02-.02.03-.04.04-.05.04-.13.06-.23.09-.02,0-2.35.21-2.62.23-.02,0-.03,0-.04-.02-.02-.02.03-.13.05-.14Z"/>
              <path class="st17" d="M17.76,2.31s-.02.03-.04.04c-.05.04-.13.06-.23.09-.02,0-2.36.23-2.63.25-.02,0,.44-.1.68-.13.41-.05.82-.13,1.23-.16.19-.01.62.02.71-.2.02-.04,0-.09-.02-.14-.07-.16-.14-.31-.13-.48,0-.08.02-.16.02-.24.1.21.19.42.28.63.03.07.06.13.08.2.02.04.06.1.04.14Z"/>
              <path class="st28" d="M17.12.95s.01.02.02.03c.05.08.1.15.15.23.01-.02-.12-.24-.18-.35-.01-.02-.03-.05-.05-.06-.07-.03-.15.05-.19.08-.19.13-.35.3-.52.44-.21.17-.42.35-.62.52-.28.23-.55.46-.82.69-.02.01-.05.08-.06.12,0,0,0,0,0,0,.19-.24.56-.48.84-.71.21-.18.42-.36.64-.53.18-.15.34-.32.53-.45.05-.04.13-.11.2-.08.02.01.04.04.05.06,0,0,0,.01,0,.02,0,0,0,0,0,0Z"/>
            </g>
            <g>
              <path class="st33" d="M15.29,2.95c0,.05-.09.03-.15.02-.07-.02-.04-.1-.08-.15-.05-.07-.13,0-.12-.11,0-.03,0-.06.04-.07.03-.01.05-.02.07-.04.04-.04.05-.09.05-.16,0-.08.02-.1.08-.12.02,0,.04-.02.05-.04.02-.03,0-.07,0-.11,0-.07.07-.09.13-.09.06,0,.08-.05.1-.1.01-.02.04-.06.07-.07.03,0,.06.02.09.03.04.01.05,0,.07-.03.02-.03.04-.05.08-.06.06-.02.16,0,.22.08.06.07.06.15.03.2-.05.07-.1.14-.15.22-.03.04-.05.08-.1.1-.05.02-.12.03-.16.06-.05.03-.08.08-.1.14-.01.05,0,.1,0,.15,0,.07-.08.11-.14.12-.02,0-.04,0-.06,0-.01,0-.03.06-.04.05Z"/>
              <path class="st11" d="M15.33,2.92c0,.05-.07.07-.13.05-.07-.02-.05-.1-.08-.14-.05-.07-.12,0-.12-.11,0-.03,0-.06.03-.07.03,0,.04-.02.06-.04.04-.03.05-.09.04-.15,0-.08.02-.09.08-.11.02,0,.04-.02.05-.04.02-.03,0-.06,0-.1,0-.07.07-.08.12-.08.06,0,.07-.05.09-.09.01-.02.03-.06.06-.06.03,0,.06.02.09.03.04.01.05,0,.07-.02.02-.02.04-.04.07-.05.05-.02.16.02.22.08.06.07.04.12.02.17-.04.07-.07.15-.12.22-.02.04-.05.08-.09.09-.05.02-.11.02-.15.05-.04.03-.08.08-.09.13-.01.05,0,.1,0,.15,0,.07-.07.1-.13.11-.02,0-.04,0-.06,0-.01,0-.05.01-.05,0Z"/>
            </g>
            <g>
              <path class="st47" d="M15.79,2.17c0,.05-.08,0-.14-.03-.06-.04-.03-.11-.05-.17-.03-.09-.11-.03-.09-.15,0-.03.02-.06.04-.06.03,0,.05,0,.07-.02.04-.02.06-.07.07-.14,0-.08.04-.09.09-.09.02,0,.04,0,.06-.02.02-.02.02-.06.02-.1,0-.07.08-.06.13-.05.06.01.08-.03.11-.06.02-.02.04-.05.07-.05.03,0,.05.04.08.06.03.02.05,0,.07,0,.02-.02.05-.03.08-.03.05,0,.15.06.19.15.05.09.03.17,0,.2-.05.06-.12.1-.17.16-.03.03-.06.06-.11.06-.05,0-.11-.01-.16,0-.05.02-.09.05-.11.1-.02.04-.02.1-.03.15-.01.07-.09.08-.14.07-.02,0-.04,0-.06-.01-.01,0-.04.05-.04.03Z"/>
              <path class="st30" d="M15.83,2.15c0,.05-.07.05-.12,0-.06-.04-.03-.11-.05-.17-.03-.09-.11-.04-.09-.15,0-.03.01-.06.04-.06.03,0,.04,0,.07-.02.04-.02.06-.07.06-.13,0-.08.03-.08.09-.09.02,0,.04,0,.05-.02.02-.02.01-.06.02-.1,0-.07.07-.06.12-.04.05.01.07-.02.1-.06.02-.02.04-.05.06-.04.03,0,.05.04.07.06.03.02.05.01.06,0,.02-.02.04-.03.08-.03.05,0,.14.07.19.15.05.09.02.13-.01.17-.05.05-.09.13-.14.18-.03.03-.05.06-.1.06-.05,0-.1-.02-.15,0-.04.01-.08.05-.1.1-.02.04-.02.09-.02.14,0,.06-.08.08-.13.06-.02,0-.04-.01-.05-.01-.01,0-.04,0-.04-.01Z"/>
            </g>
            <g>
              <path class="st33" d="M16.31,1.63s-.09,0-.13-.05c-.05-.05,0-.1,0-.16,0-.08-.11-.04-.05-.15.02-.03.04-.05.07-.05.03,0,.05,0,.08-.01.05-.01.09-.06.12-.11.03-.07.07-.07.13-.07.02,0,.05,0,.07-.01.03-.02.04-.05.05-.09.03-.06.1-.04.15-.03.05.02.09-.02.13-.04.02-.02.06-.04.09-.03.03,0,.04.04.06.06.03.02.05.01.07,0,.03-.01.06-.02.1-.02.06,0,.13.07.15.15.02.09-.02.15-.06.18-.08.04-.15.08-.23.12-.04.03-.08.05-.13.04-.05,0-.11-.02-.16-.01-.05,0-.11.04-.15.08-.03.04-.05.08-.08.13-.03.06-.12.06-.17.05-.02,0-.04-.01-.06-.02-.01,0-.06.04-.05.03Z"/>
              <path class="st11" d="M16.36,1.62s-.09.03-.13,0c-.05-.05,0-.1,0-.15,0-.08-.1-.05-.05-.15.01-.03.03-.05.06-.05.03,0,.05,0,.07,0,.05-.01.08-.05.11-.11.03-.07.06-.07.12-.07.02,0,.04,0,.06-.01.03-.01.03-.05.05-.09.03-.06.09-.04.14-.02.05.02.08-.01.12-.04.02-.01.05-.04.08-.03.03,0,.04.04.06.06.03.03.04.02.07,0,.03-.01.06-.02.09-.02.05,0,.13.08.15.16.02.09-.02.12-.06.15-.07.04-.13.1-.2.14-.04.02-.08.05-.12.04-.05,0-.1-.03-.15-.02-.05,0-.1.03-.14.08-.03.03-.05.08-.07.13-.03.06-.11.06-.16.04-.02,0-.03-.01-.05-.02-.01,0-.05,0-.04-.02Z"/>
            </g>
            <g>
              <path class="st33" d="M15.27,2.73c0,.05-.08.03-.13.02-.06-.02-.04-.09-.07-.14-.04-.07-.11,0-.11-.11,0-.03,0-.06.03-.07.03,0,.04-.02.06-.04.04-.03.05-.09.05-.15,0-.07.02-.09.08-.11.02,0,.04-.02.05-.04.02-.03,0-.06,0-.1,0-.07.07-.08.12-.09.06,0,.07-.05.09-.09.01-.02.03-.06.06-.07.03,0,.05.02.08.03.03.01.05,0,.06-.03.02-.02.04-.05.07-.06.05-.02.15,0,.2.07.06.07.06.14.03.18-.04.07-.1.13-.14.2-.02.04-.05.08-.09.09-.05.02-.11.03-.15.06-.04.03-.08.08-.09.13-.01.05,0,.09,0,.14,0,.06-.07.1-.13.11-.02,0-.04,0-.06,0-.01,0-.03.06-.03.04Z"/>
              <path class="st11" d="M15.31,2.7s-.06.07-.12.05c-.06-.02-.04-.09-.07-.14-.04-.07-.11,0-.11-.11,0-.03,0-.06.03-.07.02,0,.04-.02.06-.04.04-.03.04-.08.04-.14,0-.07.02-.09.07-.11.02,0,.04-.02.05-.04.02-.02,0-.06,0-.1,0-.07.06-.07.11-.08.05,0,.07-.05.09-.09.01-.02.03-.05.06-.06.03,0,.05.02.08.03.03.01.05,0,.06-.02.02-.02.04-.04.07-.05.05-.02.15.01.2.08.06.07.04.12.01.15-.04.07-.07.14-.11.21-.02.04-.04.07-.09.09-.05.02-.1.02-.14.05-.04.03-.07.07-.08.12-.01.04,0,.09,0,.14,0,.06-.06.1-.12.1-.02,0-.04,0-.05,0,0,0-.04.01-.04,0Z"/>
            </g>
            <g>
              <path class="st39" d="M15.55,2.02c-.03-.2.12-.46.35-.6.23-.14.47-.02.46.12-.02.22-.14.51-.37.59-.25.09-.41.1-.44-.11Z"/>
              <path class="st44" d="M15.57,2.05c-.03-.2.12-.46.35-.6.23-.14.47-.02.46.12-.02.22-.06.37-.37.59-.25.18-.41.1-.44-.11Z"/>
              <path class="st49" d="M15.61,2.16s0-.02,0-.03c-.03-.2.12-.46.35-.6.17-.1.32-.14.39-.05-.04-.08-.21-.16-.43-.03-.23.14-.38.39-.35.6,0,.05.02.09.04.11Z"/>
              <path class="st39" d="M15.96,1.81s-.14.31-.2.33c-.06.02-.24-.2.01-.46,0,0,.05-.06.19.14Z"/>
              <path class="st39" d="M15.98,1.8s.28-.18.31-.14c.03.04-.12.43-.39.46,0,0-.06.01.08-.32Z"/>
              <path class="st39" d="M15.98,1.77s-.15-.16-.11-.22c.04-.06.41-.25.42.01,0,0,0,.06-.31.2Z"/>
              <path class="st45" d="M15.84,2.03s.05-.2.07-.26c.02-.06-.06-.07-.01-.09.07-.03.13.07.31-.04.04-.02-.02.06-.08.11-.05.04-.1.07-.13.1-.06.06-.13.22-.17.18Z"/>
              <g>
                <path class="st10" d="M16.04,2.01s0,.02,0,.03c-.01,0-.03,0-.04-.01-.01-.02,0-.05,0-.05,0,0,.04.02.06.03Z"/>
                <path class="st12" d="M16.11,1.96s.02.02,0,.03c0,0-.02.01-.04,0-.02-.01-.03-.05-.03-.05,0,0,.04,0,.06.02Z"/>
                <path class="st10" d="M16.13,1.89s.03.02.02.03c0,.01-.01.02-.04,0-.02,0-.05-.04-.05-.04,0,0,.04,0,.06,0Z"/>
                <path class="st12" d="M16.14,1.82s.03,0,.04.02c0,.01,0,.02-.02.02-.02,0-.06-.02-.06-.02,0,0,.03-.02.05-.02Z"/>
              </g>
              <g>
                <path class="st12" d="M16.15,1.52s.03-.03.03-.02c0,.01,0,.03-.02.06-.02.03-.05.05-.05.05,0,0,.03-.06.05-.09Z"/>
                <path class="st10" d="M16.12,1.49s.03-.04.03-.04c0,0,0,.01-.01.05-.02.03-.05.08-.05.08,0,0,.01-.05.03-.09Z"/>
                <path class="st12" d="M16.06,1.51s.02-.05.03-.05c0,0,.01,0,0,.03-.01.03-.05.09-.05.09,0,0,0-.04.01-.07Z"/>
                <path class="st10" d="M15.98,1.57s.02-.04.03-.06c.01-.01.02-.02.02,0,0,.03-.03.09-.03.09,0,0-.02-.01-.01-.04Z"/>
              </g>
              <g>
                <path class="st10" d="M15.76,1.84s-.02,0,0-.02c.01-.01.03-.02.05-.02.03,0,.04.02.04.02,0,0-.06.02-.09.02Z"/>
                <path class="st12" d="M15.71,1.91s-.03,0-.03-.01c0-.01.02-.02.05-.03.03,0,.07,0,.07,0,0,0-.05.03-.09.03Z"/>
                <path class="st12" d="M15.72,1.96s-.04,0-.04,0c0,0,0-.02.04-.03.03-.01.08-.01.08-.01,0,0-.04.03-.07.04Z"/>
                <path class="st10" d="M15.76,2.01s-.04.02-.05.01c-.01,0-.02,0,.01-.03.03-.02.09-.03.09-.03,0,0-.02.03-.04.05Z"/>
              </g>
              <path class="st49" d="M15.93,1.9c-.03.05-.05.1-.08.15-.03.05-.09.15-.13.2.03,0,.1.01.16-.02,0,0,0-.06,0-.06-.01-.03,0-.07.01-.11.01-.04.02-.09.03-.13,0,0,0-.02.01-.03.02-.02.03-.02.05-.02,0,0,.01,0,.02,0,0,0,.01-.02.02-.03,0-.01.02-.02.03-.03,0,0,.01,0,.01-.01,0-.01,0-.03,0-.04,0,0,0,0,0,0,0,0,0,0,0,0,.05-.03.1-.03.15-.05.05-.02.1.01.14,0,.03-.04.03-.13.02-.16-.09.09-.21.14-.31.19,0,0,0,0-.01,0,0,0,0-.01,0-.02,0-.01.02-.03,0-.03,0,0,0,0-.01,0-.01,0-.02,0-.03.01,0,0,0,0-.01.01-.01.01-.03,0-.04.01-.01,0-.02.02-.03.01,0,0,0,0-.01-.01-.05-.05-.07-.12-.08-.2-.02.02-.09.1-.1.12.06.04.14.04.19.1,0,0,0,0,0,.01,0,0,0,0,0,.02,0,.01-.01.02-.02.04,0,0-.01.02-.02.03,0,0,0,.01,0,.02,0,.02-.01.04-.01.06,0,.01,0,.02.02,0,0,0,.02-.01.03-.02Z"/>
              <path class="st46" d="M15.95,1.86s.02,0,.03,0c0,0,0,0,.01,0,0,0,.01-.02.02-.02,0,0,.01-.02.02-.02,0,0,.02-.03.01-.03,0,0-.02,0,0-.03,0,0,0-.01,0-.01,0,0,0-.01,0-.02,0,0,0,0-.01,0,0,0-.01.01-.02.02,0,0-.01,0-.02,0,0,0,0,0,0,0,0,0-.01,0-.02,0-.03.04-.04.09-.02.11,0,0,0,0,.01,0Z"/>
            </g>
            <g>
              <path class="st39" d="M15.11,2.6c-.04-.24.14-.53.42-.68.28-.15.59,0,.59.15-.01.26-.16.58-.45.67-.32.09-.52.1-.56-.14Z"/>
              <path class="st44" d="M15.13,2.63c-.04-.24.14-.53.42-.68.28-.15.59,0,.59.15-.01.26-.06.42-.45.67-.31.2-.52.1-.56-.14Z"/>
              <path class="st49" d="M15.18,2.77s0-.02,0-.04c-.04-.24.14-.53.42-.68.21-.11.4-.14.5-.04-.06-.09-.27-.19-.55-.05-.28.15-.46.44-.42.68,0,.06.03.1.06.13Z"/>
              <path class="st39" d="M15.62,2.37s-.17.35-.24.37c-.07.02-.31-.24,0-.53,0,0,.07-.07.25.17Z"/>
              <path class="st39" d="M15.64,2.37s.36-.19.39-.15c.03.04-.14.49-.48.52,0,0-.08,0,.09-.37Z"/>
              <path class="st39" d="M15.63,2.33s-.2-.18-.15-.25c.04-.07.51-.28.53.03,0,0,0,.07-.38.22Z"/>
              <path class="st45" d="M15.47,2.62s.06-.22.07-.29c.02-.06-.08-.08-.02-.11.08-.03.17.09.4-.03.05-.02-.03.07-.09.12-.06.04-.12.08-.16.11-.08.07-.16.25-.2.2Z"/>
              <g>
                <path class="st10" d="M15.73,2.61s0,.03,0,.03c-.02,0-.03,0-.05-.02-.02-.02-.01-.06-.01-.06,0,0,.05.02.07.04Z"/>
                <path class="st12" d="M15.81,2.56s.02.03.01.04c-.01,0-.02.01-.05,0-.03-.02-.04-.06-.04-.06,0,0,.06,0,.08.02Z"/>
                <path class="st10" d="M15.84,2.48s.03.02.03.03c0,.01-.01.02-.04,0-.03-.01-.07-.05-.07-.05,0,0,.05,0,.08,0Z"/>
                <path class="st12" d="M15.84,2.39s.04.01.05.03c0,.01,0,.02-.03.02-.03,0-.08-.03-.08-.03,0,0,.03-.02.06-.02Z"/>
              </g>
              <g>
                <path class="st12" d="M15.85,2.05s.03-.03.03-.02c0,.01,0,.03-.03.07-.02.03-.06.06-.06.06,0,0,.03-.07.05-.11Z"/>
                <path class="st10" d="M15.81,2.01s.03-.04.04-.04c0,0,.01.02-.01.06-.02.04-.07.09-.07.09,0,0,.01-.06.04-.1Z"/>
                <path class="st12" d="M15.73,2.04s.03-.05.04-.06c.01,0,.02,0,0,.04-.02.04-.06.1-.06.1,0,0,0-.05.01-.08Z"/>
                <path class="st10" d="M15.63,2.1s.02-.05.03-.07c.02-.02.03-.02.02,0,0,.03-.04.1-.04.1,0,0-.02-.01-.02-.04Z"/>
              </g>
              <g>
                <path class="st10" d="M15.36,2.4s-.03-.01-.01-.02c.02-.01.03-.02.07-.02.03,0,.05.02.05.02,0,0-.07.02-.11.02Z"/>
                <path class="st12" d="M15.3,2.48s-.04,0-.04-.01c0-.01.02-.02.06-.03.04,0,.09,0,.09,0,0,0-.07.03-.11.04Z"/>
                <path class="st12" d="M15.32,2.55s-.05,0-.06,0c0,0,0-.02.04-.03.04-.01.1-.01.1-.01,0,0-.05.03-.09.05Z"/>
                <path class="st10" d="M15.37,2.6s-.05.02-.07.01c-.02,0-.02-.01.01-.03.03-.02.11-.04.11-.04,0,0-.02.03-.05.05Z"/>
              </g>
              <path class="st49" d="M15.57,2.47c-.03.06-.06.12-.09.18s-.11.17-.16.22c.04,0,.13.02.21-.02,0,0-.01-.07-.01-.07-.02-.04,0-.08.01-.13.02-.05.02-.11.04-.15,0,0,0-.02.01-.03.02-.03.04-.02.06-.02,0,0,.02,0,.02,0,.01,0,.02-.02.03-.03.01-.01.02-.03.04-.04,0,0,.01,0,.02-.02,0-.02,0-.04,0-.05,0,0,0,0,0,0,0,0,0,0,0,0,.07-.03.12-.03.19-.06.06-.02.12.02.18.01.04-.05.03-.15.02-.18-.11.1-.26.16-.39.21,0,0-.01,0-.02,0,0,0,0-.01,0-.02.01-.02.02-.03.01-.04,0,0-.01,0-.02,0-.01,0-.03,0-.04.01,0,0-.01.01-.02.01-.02.01-.03,0-.05.01-.02,0-.03.03-.04.01,0,0-.01-.01-.02-.02-.06-.06-.09-.14-.11-.23-.03.02-.1.11-.13.13.08.05.18.05.25.12,0,0,0,0,0,.02,0,0,0,.01,0,.02,0,.01-.01.03-.02.04,0,.01-.02.02-.02.03,0,0,0,.01,0,.02,0,.02-.01.05-.01.07,0,.01,0,.02.03.01.01,0,.02-.01.03-.02Z"/>
              <path class="st46" d="M15.6,2.44s.02,0,.03,0c0,0,.01,0,.02,0,0,0,.01-.02.02-.03,0,0,.02-.02.03-.02,0,0,.02-.03.02-.04,0-.01-.03,0-.01-.03,0,0,0-.02,0-.02,0,0,0-.01-.01-.02,0,0,0,0-.01,0,0,0-.01.01-.02.02,0,0-.02,0-.02,0,0,0,0,0,0,0,0,0-.01,0-.02,0-.04.04-.04.1-.02.13,0,0,0,0,.02.01Z"/>
            </g>
            <g>
              <path class="st39" d="M16.28,1.66c-.04-.24.14-.53.42-.68.28-.15.59,0,.59.15-.01.26-.16.58-.45.67-.32.09-.52.1-.56-.14Z"/>
              <path class="st44" d="M16.3,1.69c-.04-.24.14-.53.42-.68.28-.15.59,0,.59.15-.01.26-.06.42-.45.67-.31.2-.52.1-.56-.14Z"/>
              <path class="st49" d="M16.35,1.82s0-.02,0-.04c-.04-.24.14-.53.42-.68.21-.11.4-.14.5-.04-.06-.09-.27-.19-.55-.05-.28.15-.46.44-.42.68,0,.06.03.1.06.13Z"/>
              <path class="st39" d="M16.79,1.43s-.17.35-.24.37c-.07.02-.31-.24,0-.53,0,0,.07-.07.25.17Z"/>
              <path class="st39" d="M16.81,1.43s.36-.19.39-.15c.03.04-.14.49-.48.52,0,0-.08,0,.09-.37Z"/>
              <path class="st39" d="M16.8,1.39s-.2-.18-.15-.25c.04-.07.51-.28.53.03,0,0,0,.07-.38.22Z"/>
              <path class="st45" d="M16.64,1.68s.06-.22.07-.29c.02-.06-.08-.08-.02-.11.08-.03.17.09.4-.03.05-.02-.03.07-.09.12-.06.04-.12.08-.16.11-.08.07-.16.25-.2.2Z"/>
              <g>
                <path class="st10" d="M16.9,1.67s0,.03,0,.03c-.02,0-.03,0-.05-.02-.02-.02-.01-.06-.01-.06,0,0,.05.02.07.04Z"/>
                <path class="st12" d="M16.98,1.61s.02.03.01.04c-.01,0-.02.01-.05,0-.03-.02-.04-.06-.04-.06,0,0,.06,0,.08.02Z"/>
                <path class="st10" d="M17.01,1.54s.03.02.03.03c0,.01-.01.02-.04,0-.03-.01-.07-.05-.07-.05,0,0,.05,0,.08,0Z"/>
                <path class="st12" d="M17.01,1.45s.04.01.05.03c0,.01,0,.02-.03.02-.03,0-.08-.03-.08-.03,0,0,.03-.02.06-.02Z"/>
              </g>
              <g>
                <path class="st12" d="M17.02,1.11s.03-.03.03-.02c0,.01,0,.03-.03.07-.02.03-.06.06-.06.06,0,0,.03-.07.05-.11Z"/>
                <path class="st10" d="M16.98,1.07s.03-.04.04-.04c0,0,.01.02-.01.06-.02.04-.07.09-.07.09,0,0,.01-.06.04-.1Z"/>
                <path class="st12" d="M16.9,1.1s.03-.05.04-.06c.01,0,.02,0,0,.04-.02.04-.06.1-.06.1,0,0,0-.05.01-.08Z"/>
                <path class="st10" d="M16.8,1.16s.02-.05.03-.07c.02-.02.03-.02.02,0,0,.03-.04.1-.04.1,0,0-.02-.01-.02-.04Z"/>
              </g>
              <g>
                <path class="st10" d="M16.53,1.46s-.03-.01-.01-.02c.02-.01.03-.02.07-.02.03,0,.05.02.05.02,0,0-.07.02-.11.02Z"/>
                <path class="st12" d="M16.47,1.54s-.04,0-.04-.01c0-.01.02-.02.06-.03.04,0,.09,0,.09,0,0,0-.07.03-.11.04Z"/>
                <path class="st12" d="M16.49,1.6s-.05,0-.06,0c0,0,0-.02.04-.03.04-.01.1-.01.1-.01,0,0-.05.03-.09.05Z"/>
                <path class="st10" d="M16.54,1.66s-.05.02-.07.01c-.02,0-.02-.01.01-.03.03-.02.11-.04.11-.04,0,0-.02.03-.05.05Z"/>
              </g>
              <path class="st49" d="M16.74,1.53c-.03.06-.06.12-.09.18-.03.06-.11.17-.16.22.04,0,.13.02.21-.02,0,0-.01-.07-.01-.07-.02-.04,0-.08.01-.13.02-.05.02-.11.04-.15,0,0,0-.02.01-.03.02-.03.04-.02.06-.02,0,0,.02,0,.02,0,.01,0,.02-.02.03-.03.01-.01.02-.03.04-.04,0,0,.01,0,.02-.02,0-.02,0-.04,0-.05,0,0,0,0,0,0,0,0,0,0,0,0,.07-.03.12-.03.19-.06.06-.02.12.02.18.01.04-.05.03-.15.02-.18-.11.1-.26.16-.39.21,0,0-.01,0-.02,0,0,0,0-.01,0-.02.01-.02.02-.03.01-.04,0,0-.01,0-.02,0-.01,0-.03,0-.04.01,0,0-.01.01-.02.01-.02.01-.03,0-.05.01-.02,0-.03.03-.04.01,0,0-.01-.01-.02-.02-.06-.06-.09-.14-.11-.23-.03.02-.1.11-.13.13.08.05.18.05.25.12,0,0,0,0,0,.02,0,0,0,.01,0,.02,0,.01-.01.03-.02.04,0,.01-.02.02-.02.03,0,0,0,.01,0,.02,0,.02-.01.05-.01.07,0,.01,0,.02.03.01.01,0,.02-.01.03-.02Z"/>
              <path class="st46" d="M16.77,1.49s.02,0,.03,0c0,0,.01,0,.02,0,0,0,.01-.02.02-.03,0,0,.02-.02.03-.02,0,0,.02-.03.02-.04,0-.01-.03,0-.01-.03,0,0,0-.02,0-.02,0,0,0-.01-.01-.02,0,0,0,0-.01,0,0,0-.01.01-.02.02,0,0-.02,0-.02,0,0,0,0,0,0,0,0,0-.01,0-.02,0-.04.04-.04.1-.02.13,0,0,0,0,.02.01Z"/>
            </g>
            <g>
              <path class="st22" d="M16.73,1.97c-.07-.04-.16-.03-.23-.05-.13-.02-.26-.05-.39-.11-.12-.06-.23-.13-.34-.22-.02-.01-.04-.03-.06-.02-.01,0-.02.02-.03.03-.13.21-.22.44-.38.62-.16.17-.38.32-.42.4,0,.02.01.05.02.05.51.02.8.02.96.05.13-.07.4-.23.62-.42.06-.05.12-.11.17-.16.03-.03.06-.06.08-.1.02-.03,0-.05-.01-.06Z"/>
              <path class="st20" d="M16.75,2c-.06,0-.36-.05-.54-.09-.03,0-.15-.07-.26-.13-.08-.04-.17-.11-.19-.12-.03-.02-.05-.03-.07,0-.07.1-.13.25-.24.43-.09.14-.2.25-.31.34-.09.08-.25.2-.25.23.06.02.93.05.96.05.2-.1.72-.43.89-.71h0Z"/>
            </g>
            <g>
              <path class="st2" d="M15.31,2.85s0,.02.06,0c.09-.04.36-.23.49-.69,0,0,.04-.28-.02-.35,0,0-.03-.03-.09-.02-.13,0-.34.16-.49.41-.17.3-.18.6-.05.67.04.02.06.01.12-.02ZM15.69,2.45c-.17.25-.35.42-.46.37-.02-.01-.06-.05-.07-.08,0-.05.01-.12.03-.17.03-.1.06-.2.11-.29.02-.05.04-.1.07-.14.02-.03.05-.05.08-.07.06-.06.11-.12.17-.18,0,0,.02-.02.02-.03.04-.01.07-.01.1,0,.1.06.15.28-.05.59Z"/>
              <path class="st26" d="M15.74,2.47c.17-.3.21-.6.09-.66-.12-.07-.39.11-.56.4-.17.3-.19.61-.07.68.12.07.36-.12.53-.42ZM15.34,2.25c.15-.26.35-.42.46-.36.1.06.07.32-.08.57-.15.26-.35.42-.46.36-.1-.06-.07-.32.08-.57Z"/>
            </g>
            <g>
              <path class="st19" d="M17.84,1.27c-.07-.05-.18-.05-.26-.07-.14-.03-.29-.07-.43-.14-.13-.07-.24-.16-.35-.25-.02-.02-.04-.03-.07-.03-.01,0-.02.02-.03.03-.18.2-.31.43-.52.59-.21.16-.48.29-.53.37,0,.02,0,.05.02.05.57.07.91.08,1.08.13.15-.06.49-.2.77-.37.08-.05.15-.1.22-.15.04-.03.08-.06.11-.1.02-.03.01-.05,0-.06Z"/>
              <path class="st20" d="M17.87,1.31c-.07,0-.4-.08-.6-.14-.03,0-.16-.09-.28-.16-.08-.05-.17-.12-.19-.14-.03-.02-.06-.03-.07-.01-.09.1-.19.25-.34.42-.12.14-.27.23-.4.32-.12.08-.31.18-.32.22.06.03,1.05.13,1.08.13.24-.09.88-.37,1.12-.64h0Z"/>
            </g>
            <g>
              <path class="st2" d="M16.08,2.16s0,.02.06,0c.1-.04.37-.24.5-.72,0,0,.04-.29-.02-.36,0,0-.04-.03-.09-.02-.13,0-.36.16-.51.43-.18.31-.18.62-.06.69.04.02.06.01.12-.02ZM16.48,1.74c-.17.26-.37.44-.48.38-.02-.01-.06-.05-.07-.08,0-.06.02-.12.03-.18.03-.11.06-.2.11-.3.02-.05.04-.1.07-.15.02-.03.05-.05.08-.07.06-.06.12-.13.18-.18,0,0,.02-.02.02-.03.04-.01.08-.01.11,0,.11.06.16.29-.06.61Z"/>
              <path class="st26" d="M16.52,1.77c.18-.31.22-.62.1-.69-.13-.07-.4.11-.58.42-.18.31-.19.63-.07.7.13.07.37-.12.55-.43ZM16.11,1.54c.15-.27.37-.44.47-.38.11.06.07.33-.08.59-.15.27-.37.44-.47.38-.11-.06-.07-.33.08-.59Z"/>
            </g>
            <g>
              <path class="st41" d="M17.37,1.02s.03-.08-.13-.11c-.16-.03-.57.14-.92.42-.33.26-.27.32-.21.34.06.02,1.09-.16,1.26-.65Z"/>
              <g>
                <path class="st48" d="M17.41,1.03s0-.08-.15-.11c-.16-.03-.56.18-.9.42-.35.25-.27.32-.21.34.06.02,1.09-.16,1.26-.65Z"/>
                <path class="st40" d="M16.2,1.71c-.07,0-.14-.03-.12-.09.02,0,.03.02.05.03.03,0,.06,0,.09-.03.05-.04.09-.08.13-.13.04-.05.09-.09.13-.13.06-.05.34-.3.41-.29.15.02-.18.36-.26.44-.08.08-.18.16-.28.18-.05.01-.1.01-.15.02Z"/>
                <path class="st26" d="M17.5,1.11s-.08-.14-.3-.13c-.13,0-.28.06-.41.14-.15.09-.25.21-.35.34-.05.06-.23.25-.31.21-.05-.03-.06-.14.27-.36,0,0-.5.3-.3.4.2.1.65-.3.67-.35.01-.05.73-.25.73-.25Z"/>
                <path class="st48" d="M16.11,1.71s.99.5.99.5c0,0,.13.04.28-.18.15-.22.39-.72.09-.95-.2-.16-.56-.03-.82.19-.12.1-.19.23-.3.33-.06.05-.18.14-.24.11Z"/>
                <path class="st46" d="M16.08,1.69s0,.01.07.04c0,0,.04.02.05.02.13,0,.29-.22.5-.43.19-.18.39-.31.64-.23.28.09.22.26.22.39-.01.23-.08.29-.1.43,0,0,0,0,0,0,.14-.25.28-.64.03-.84-.2-.16-.56-.03-.82.19-.12.1-.2.24-.32.34-.13.09-.19.11-.25.08Z"/>
                <path class="st26" d="M16.11,1.71s.02,0,.03,0c-.04-.02-.03-.04-.02-.06-.04-.04.03-.17.32-.38,0,0-.54.32-.33.43Z"/>
              </g>
            </g>
            <g>
              <path class="st41" d="M16.37,1.85s.03-.07-.12-.1c-.15-.03-.54.14-.87.4-.31.25-.26.3-.2.32.06.02,1.03-.15,1.19-.62Z"/>
              <g>
                <path class="st48" d="M16.41,1.85s0-.07-.14-.1c-.15-.03-.53.17-.85.4-.33.23-.26.3-.2.32.06.02,1.03-.15,1.19-.62Z"/>
                <path class="st40" d="M15.27,2.5c-.06,0-.13-.02-.11-.09.02,0,.03.02.04.03.02,0,.06,0,.08-.03.05-.04.09-.08.13-.12.04-.04.08-.08.13-.12.05-.04.32-.28.39-.27.14.01-.17.34-.25.41-.08.08-.17.15-.27.17-.05.01-.09.01-.14.02Z"/>
                <path class="st26" d="M16.5,1.93s-.08-.13-.29-.12c-.12,0-.26.06-.38.13-.15.08-.23.2-.33.32-.04.06-.22.24-.29.2-.05-.02-.05-.13.26-.34,0,0-.47.28-.28.37.19.09.62-.28.63-.33.01-.05.69-.24.69-.24Z"/>
                <path class="st48" d="M15.18,2.5s.93.46.93.46c0,0,.12.04.26-.17.14-.21.37-.67.09-.88-.19-.15-.53-.02-.77.18-.11.1-.18.22-.29.31-.05.05-.17.13-.23.1Z"/>
                <path class="st46" d="M15.15,2.48s0,0,.06.04c0,0,.04.02.04.02.12,0,.27-.2.47-.4.18-.17.37-.29.6-.22.27.08.21.24.2.36-.01.21-.07.27-.1.4,0,0,0,0,0,0,.13-.23.26-.6.03-.78-.19-.15-.53-.02-.77.18-.11.1-.19.23-.31.32-.12.09-.18.1-.24.07Z"/>
                <path class="st26" d="M15.18,2.5s.02,0,.02,0c-.04-.02-.03-.03-.01-.05-.03-.04.02-.16.31-.36,0,0-.51.31-.32.4Z"/>
              </g>
            </g>
            <g>
              <path class="st47" d="M16.2,2.53c0,.06-.09,0-.15-.03-.07-.05-.03-.12-.05-.18-.04-.09-.13-.04-.1-.16,0-.03.02-.06.05-.06.03,0,.05,0,.08-.02.05-.02.07-.08.08-.14,0-.08.04-.09.1-.1.02,0,.05,0,.06-.02.03-.02.02-.07.02-.11,0-.08.09-.06.14-.05.06.01.08-.03.12-.07.02-.02.05-.05.08-.05.03,0,.05.04.08.06.04.03.05.01.07,0,.03-.02.05-.03.09-.03.06,0,.16.07.21.16.05.1.04.18,0,.21-.06.06-.13.11-.18.17-.03.03-.06.07-.12.07-.06,0-.12-.01-.17,0-.05.02-.09.06-.12.11-.02.05-.02.1-.03.16-.01.07-.09.09-.15.08-.02,0-.04-.01-.06-.01-.01,0-.04.05-.04.04Z"/>
              <path class="st30" d="M16.25,2.51c0,.06-.08.05-.13,0-.07-.05-.03-.12-.05-.18-.04-.09-.12-.04-.1-.16,0-.03.01-.06.04-.06.03,0,.05,0,.07-.02.04-.02.06-.07.07-.14,0-.08.03-.09.09-.09.02,0,.04,0,.06-.02.02-.02.01-.06.02-.11,0-.08.08-.06.14-.04.06.02.08-.03.11-.06.02-.02.04-.05.07-.05.03,0,.05.04.08.07.03.03.05.01.07,0,.02-.02.05-.03.08-.03.06,0,.16.07.2.16.05.1.02.14,0,.18-.05.06-.1.13-.15.19-.03.03-.06.06-.11.06-.05,0-.11-.02-.16,0-.05.01-.09.05-.11.1-.02.04-.02.1-.02.15,0,.07-.08.08-.14.07-.02,0-.04-.01-.06-.01-.01,0-.05,0-.05-.02Z"/>
            </g>
            <g>
              <path class="st33" d="M16.76,2.03c0,.06-.1.02-.15-.02-.07-.04-.02-.11-.04-.16-.03-.08-.13-.02-.09-.14.01-.03.02-.06.06-.07.03,0,.05-.02.08-.03.05-.03.08-.08.09-.15.02-.08.05-.09.12-.1.02,0,.05-.01.07-.03.03-.02.03-.07.03-.11.02-.07.1-.07.16-.06.06,0,.09-.04.13-.08.02-.02.05-.05.08-.06.03,0,.05.03.08.05.03.02.05,0,.08-.01.03-.02.06-.04.1-.04.06,0,.16.04.2.12.04.08.02.16-.02.2-.07.06-.14.12-.21.18-.04.04-.07.07-.13.08-.06,0-.12,0-.18.02-.05.02-.1.06-.14.12-.03.05-.03.1-.05.15-.02.07-.11.09-.17.09-.02,0-.04,0-.06,0-.01,0-.05.05-.05.04Z"/>
              <path class="st11" d="M16.81,2.01c0,.05-.09.06-.14.02-.06-.04-.02-.11-.04-.16-.03-.08-.12-.02-.09-.14,0-.03.02-.06.05-.06.03,0,.05-.01.08-.03.05-.02.07-.07.08-.14.02-.08.04-.09.11-.1.02,0,.05-.01.06-.03.03-.02.02-.06.03-.1.01-.07.09-.06.15-.06.06,0,.09-.03.12-.07.02-.02.05-.05.08-.05.03,0,.05.03.08.05.03.02.05,0,.07,0,.03-.02.05-.04.09-.04.06,0,.16.05.2.13.05.08,0,.13-.03.17-.06.06-.11.14-.18.2-.04.03-.07.07-.12.07-.06,0-.12,0-.17.02-.05.02-.1.06-.12.11-.02.04-.03.1-.04.15-.02.07-.1.09-.16.08-.02,0-.04,0-.06,0-.01,0-.05,0-.05,0Z"/>
            </g>
            <g>
              <path class="st33" d="M16.77,2.01c0,.06-.1.02-.15-.02-.07-.04-.02-.11-.04-.16-.03-.08-.13-.02-.09-.14.01-.03.02-.06.06-.07.03,0,.05-.02.08-.03.05-.03.08-.08.09-.15.02-.08.05-.09.12-.1.02,0,.05-.01.07-.03.03-.02.03-.07.03-.11.02-.07.1-.07.16-.06.06,0,.09-.04.13-.08.02-.02.05-.05.08-.06.03,0,.05.03.08.05.03.02.05,0,.08-.01.03-.02.06-.04.1-.04.06,0,.16.04.2.12.04.08.02.16-.02.2-.07.06-.14.12-.21.18-.04.04-.07.07-.13.08-.06,0-.12,0-.18.02-.05.02-.1.06-.14.12-.03.05-.03.1-.05.15-.02.07-.11.09-.17.09-.02,0-.04,0-.06,0-.01,0-.05.05-.05.04Z"/>
              <path class="st11" d="M16.82,1.99c0,.05-.09.06-.14.02-.06-.04-.02-.11-.04-.16-.03-.08-.12-.02-.09-.14,0-.03.02-.06.05-.06.03,0,.05-.01.08-.03.05-.02.07-.07.08-.14.02-.08.04-.09.11-.1.02,0,.05-.01.06-.03.03-.02.02-.06.03-.1.01-.07.09-.06.15-.06.06,0,.09-.03.12-.07.02-.02.05-.05.08-.05.03,0,.05.03.08.05.03.02.05,0,.07,0,.03-.02.05-.04.09-.04.06,0,.16.05.2.13.05.08,0,.13-.03.17-.06.06-.11.14-.18.2-.04.03-.07.07-.12.07-.06,0-.12,0-.17.02-.05.02-.1.06-.12.11-.02.04-.03.1-.04.15-.02.07-.1.09-.16.08-.02,0-.04,0-.06,0-.01,0-.05,0-.05,0Z"/>
            </g>
            <g>
              <path class="st33" d="M15.65,3.19c0,.05-.09.03-.15.02-.07-.02-.04-.1-.08-.15-.05-.07-.13,0-.12-.11,0-.03,0-.06.04-.07.03-.01.05-.02.07-.04.04-.04.05-.09.05-.16,0-.08.02-.1.08-.12.02,0,.04-.02.05-.04.02-.03,0-.07,0-.11,0-.07.07-.09.13-.09.06,0,.08-.05.1-.1.01-.02.04-.06.07-.07.03,0,.06.02.09.03.04.01.05,0,.07-.03.02-.03.04-.05.08-.06.06-.02.16,0,.22.08.06.07.06.15.03.2-.05.07-.1.14-.15.22-.03.04-.05.08-.1.1-.05.02-.12.03-.16.06-.05.03-.08.08-.1.14-.01.05,0,.1,0,.15,0,.07-.08.11-.14.12-.02,0-.04,0-.06,0-.01,0-.03.06-.04.05Z"/>
              <path class="st11" d="M15.69,3.16c0,.05-.07.07-.13.05-.07-.02-.05-.1-.08-.14-.05-.07-.12,0-.12-.11,0-.03,0-.06.03-.07.03,0,.04-.02.06-.04.04-.03.05-.09.04-.15,0-.08.02-.09.08-.11.02,0,.04-.02.05-.04.02-.03,0-.06,0-.1,0-.07.07-.08.12-.08.06,0,.07-.05.09-.09.01-.02.03-.06.06-.06.03,0,.06.02.09.03.04.01.05,0,.07-.02.02-.02.04-.04.07-.05.05-.02.16.02.22.08.06.07.04.12.02.17-.04.07-.07.15-.12.22-.02.04-.05.08-.09.09-.05.02-.11.02-.15.05-.04.03-.08.08-.09.13-.01.05,0,.1,0,.15,0,.07-.07.1-.13.11-.02,0-.04,0-.06,0-.01,0-.05.01-.05,0Z"/>
            </g>
            <g class="st43">
              <path class="st32" d="M15.01,2.27s-.03.02-.02.03c.01,0,.07,0,.08-.02.01-.03-.04-.02-.06-.02Z"/>
            </g>
            <g class="st43">
              <path class="st32" d="M14.91,2.34s.04-.02.04-.04c-.01-.03-.04,0-.05,0,0,.01,0,.03.01.03Z"/>
            </g>
            <g class="st43">
              <path class="st32" d="M14.86,2.44s.01.03.02.02c0,0,0-.01,0-.02,0,0-.02,0-.02,0Z"/>
            </g>
            <g class="st43">
              <path class="st32" d="M15.03,2.2s.01.03.02.02c0,0,0-.01,0-.02,0,0-.02,0-.02,0Z"/>
            </g>
            <g class="st50">
              <g class="st43">
                <path class="st32" d="M16.52,2.01s-.04,0-.03.03c0,.01.05.03.07.01.02-.03-.02-.04-.04-.05Z"/>
              </g>
              <g class="st43">
                <path class="st32" d="M16.82,1.77s-.01.03.01.03c.02,0,.05-.04.05-.05-.02-.03-.05,0-.06.02Z"/>
              </g>
              <g class="st43">
                <path class="st32" d="M16.07,2.48s.06,0,.06-.03c0-.05-.05-.04-.06-.02,0,.01-.02.04,0,.05Z"/>
              </g>
              <g class="st43">
                <path class="st32" d="M16.6,1.86s.04.03.05.01c.01-.03-.02-.04-.04-.04,0,0-.03.01-.01.03Z"/>
              </g>
              <g class="st43">
                <path class="st32" d="M17.07,1.55s.04.02.04,0c0,0,0-.02-.02-.02-.02,0-.02,0-.02.02Z"/>
              </g>
              <g class="st43">
                <path class="st32" d="M15.98,2.55s.02.03.03,0c0-.01-.02-.02-.03,0Z"/>
              </g>
              <g class="st43">
                <path class="st32" d="M17.33,1.36s.02.03.03,0c0-.01-.02-.02-.03,0Z"/>
              </g>
              <g class="st43">
                <path class="st32" d="M15.63,2.83s.05-.01.05-.03c0-.03-.04-.02-.05,0,0,0-.02.03,0,.03Z"/>
              </g>
              <g class="st43">
                <path class="st32" d="M15.78,2.72s.03.01.03,0c0,0,0-.02-.02-.02-.01,0-.01.01-.01.02Z"/>
              </g>
              <path class="st16" d="M17.68,1.2s-.09-.05-.15-.06c-.06-.01-.11,0-.17.03-.1.05-.19.11-.27.17-.09.06-.17.14-.25.21-.04.03-.08.07-.12.1-.04.03-.09.05-.13.08-.04.03-.09.06-.12.1-.03.04-.06.08-.08.12-.01.02-.03.04-.04.05,0,.01-.03.03-.04.04,0,0-.01,0,0,0,0,0-.01,0-.02,0-.01,0-.02,0-.03.01-.02,0-.04.02-.07.03-.08.05-.14.13-.21.2-.07.07-.14.14-.22.2-.09.07-.18.14-.25.22-.07.08-.17.19-.13.31,0,.03.04.05.07.04.03,0,.05-.04.04-.07-.01-.04,0-.07.02-.1.02-.04.05-.07.08-.11.07-.07.14-.13.21-.19.07-.06.15-.12.22-.19.06-.06.12-.14.19-.2.02-.01.03-.02.05-.03.02-.01.04-.02.07-.03.04-.02.08-.05.11-.08.03-.04.05-.07.08-.11.03-.04.05-.07.08-.1.03-.03.07-.05.11-.08.04-.03.09-.05.13-.09.08-.06.15-.13.23-.2.09-.07.18-.14.28-.19.02-.01.05-.03.07-.04.02-.01.05-.02.07-.02.05,0,.09.02.14.05.03.01.06,0,.07-.02.01-.02,0-.06-.02-.07Z"/>
            </g>
            <g>
              <path class="st23" d="M17.74,1.27s-.02.03-.03.04h0s-.02.04-.02.04l-.62.97s0,0,0,.01l-.46.38s0,0-.01,0l-.68.26s0,0,0,0l-.29.12h-.02s-.07.04-.07.04h0s-.02,0-.03-.02c-.02-.01-.04-.03-.04-.03l-.04-.03s-.01,0-.01-.01c0,0,0,0,0-.01,0-.01,0-.03,0-.04l.02-.08s0-.01.01-.02c.07-.06.47-.47.49-.48.02-.01.93-.76.97-.8.02-.02.46-.37.6-.47.03-.02.09,0,.12.02.05.02.11.05.14.09,0,0,0,0,0,0,0,0,0,0,0,0,0,0,0,.01,0,.02Z"/>
              <path class="st17" d="M17.68,1.35c-.08,0-.14.05-.2.1-.03.03-.06.05-.1.08-.04.03-.08.06-.12.09-.07.06-.12.13-.19.2-.06.06-.14.11-.2.17-.07.06-.13.13-.2.19-.07.06-.16.1-.23.16-.08.05-.15.12-.22.18-.08.06-.15.13-.23.19-.08.06-.15.12-.23.19-.03.03-.07.06-.1.09,0,0-.01.02-.02.03,0,0,0,.02,0,.02,0,.02,0,.03,0,.05,0,.02-.01.04-.03.05h0s-.01,0-.02.01c-.01,0-.02,0-.03,0-.03,0-.07-.02-.06-.04,0,0,0,0,0,0,0-.02.02-.04.03-.05.05-.1.12-.16.19-.21.09-.07.2-.16.28-.24.08-.06.15-.13.23-.2.08-.06.12-.13.2-.19.08-.05.16-.1.22-.16.07-.06.13-.13.2-.18.07-.06.15-.11.21-.18.03-.04.06-.07.09-.1.04-.03.08-.06.12-.09.06-.04.12-.1.18-.14.06-.05.16-.11.25-.12.03,0,.05.03.06.06,0,.03-.04.06-.06.06Z"/>
              <path class="st37" d="M15.55,2.98c.27-.23.55-.46.82-.69.21-.17.42-.35.62-.52.18-.15.34-.31.52-.44.05-.03.13-.11.19-.08.02.01.04.04.05.06.19.37.36.75.53,1.13.03.07.06.13.08.2.02.04.06.1.04.14,0,.02-.02.03-.04.04-.05.04-.13.06-.23.09-.02,0-2.35.21-2.62.23-.02,0-.03,0-.04-.02-.02-.02.03-.13.05-.14Z"/>
              <path class="st18" d="M18.42,2.76s-.02.03-.04.04c-.05.04-.13.06-.23.09-.02,0-2.36.23-2.63.25-.02,0,.44-.1.68-.13.41-.05.82-.13,1.23-.16.19-.01.62.02.71-.2.02-.04,0-.09-.02-.14-.07-.16-.14-.31-.13-.48,0-.08.02-.16.02-.24.1.21.19.42.28.63.03.07.06.13.08.2.02.04.06.1.04.14Z"/>
              <path class="st28" d="M17.78,1.4s.01.02.02.03c.05.08.1.15.15.23.01-.02-.12-.24-.18-.35-.01-.02-.03-.05-.05-.06-.07-.03-.15.05-.19.08-.19.13-.35.3-.52.44-.21.17-.42.35-.62.52-.28.23-.55.46-.82.69-.02.01-.05.08-.06.12,0,0,0,0,0,0,.19-.24.56-.48.84-.71.21-.18.42-.36.64-.53.18-.15.34-.32.53-.45.05-.04.13-.11.2-.08.02.01.04.04.05.06,0,0,0,.01,0,.02,0,0,0,0,0,0Z"/>
            </g>
            <path class="st27" d="M17.73,1.25s0,0-.01,0c-.02,0-.07-.03-.09-.02-.04-.01-.1,0-.14,0-.03,0-.06-.02-.09-.02.03-.02.05-.04.07-.05.03-.02.09,0,.12.02.05.02.11.05.14.09Z"/>
            <g class="st43">
              <path class="st32" d="M17.62,1.54s-.03-.01-.06.02c0,.02,0,.06.03.05.05-.02.03-.06.02-.07Z"/>
            </g>
            <g class="st43">
              <path class="st32" d="M17.84,2.04s-.04-.03-.04,0c0,.02.03.07.04.06.05-.06.02-.08,0-.07Z"/>
            </g>
            <g class="st43">
              <path class="st32" d="M17.68,1.67s-.04.04-.03.06c.01,0,.07.02.08-.01.02-.05-.04-.05-.05-.04Z"/>
            </g>
            <g class="st43">
              <path class="st32" d="M17.4,2.15s.04.04.06.01c.03-.05,0-.07-.02-.06-.01,0-.04.03-.03.05Z"/>
            </g>
            <g class="st43">
              <path class="st32" d="M17.22,1.96s.04.04.06.01c.03-.05,0-.07-.02-.06-.01,0-.04.03-.03.05Z"/>
            </g>
            <g class="st43">
              <path class="st32" d="M17.05,2.02s.02.08.04.06c.04-.03.02-.08,0-.09-.01,0-.04,0-.04.03Z"/>
            </g>
            <g class="st43">
              <path class="st32" d="M17.68,1.88s-.03.05,0,.06c0,0,.02,0,.02-.03,0-.02,0-.02-.01-.03Z"/>
            </g>
            <g class="st43">
              <path class="st32" d="M18,2.34s-.03.05,0,.06c0,0,.02,0,.02-.03,0-.02,0-.02-.01-.03Z"/>
            </g>
            <g class="st43">
              <path class="st32" d="M17.59,1.97s-.03.05,0,.06c0,0,.02,0,.02-.03,0-.02,0-.02-.01-.03Z"/>
            </g>
            <g class="st43">
              <path class="st32" d="M17.25,1.76s-.03.05,0,.06c0,0,.02,0,.02-.03,0-.02,0-.02-.01-.03Z"/>
            </g>
            <g class="st43">
              <path class="st32" d="M17.28,2.29s0,.05.01.03c0-.02,0-.03-.01-.03Z"/>
            </g>
            <g class="st43">
              <path class="st32" d="M17.71,2.27s0,.05.01.03c0-.02,0-.03-.01-.03Z"/>
            </g>
            <g class="st43">
              <path class="st32" d="M17.42,1.65s0,.05.01.03c0-.02,0-.03-.01-.03Z"/>
            </g>
            <g class="st43">
              <path class="st32" d="M17.56,1.73s0,.05.01.03c0-.02,0-.03-.01-.03Z"/>
            </g>
            <g class="st43">
              <path class="st32" d="M17.61,2.16s0,.05.01.03c0-.02,0-.03-.01-.03Z"/>
            </g>
            <g class="st43">
              <path class="st32" d="M17.4,1.95s0,.05.01.03c0-.02,0-.03-.01-.03Z"/>
            </g>
            <g class="st43">
              <path class="st32" d="M16.91,2.5s-.05,0-.04.02c.01.02.07.05.09.04.04-.02-.03-.05-.05-.06Z"/>
            </g>
            <g class="st43">
              <path class="st32" d="M17,2.76s-.02.02-.01.04c-.05.06-.02.07.06.02.04-.02-.03-.05-.04-.06Z"/>
            </g>
            <g class="st43">
              <path class="st32" d="M16.26,2.59s.07.05.08.03c.03-.04-.02-.07-.05-.07-.02,0-.05,0-.04.04Z"/>
            </g>
            <g class="st43">
              <path class="st32" d="M16.72,2.79s0,.05.02.05c.01,0,.02-.01.02-.03,0-.02-.02-.02-.03-.02Z"/>
            </g>
            <g class="st43">
              <path class="st32" d="M16.3,2.74s.01.05.03.03c0,0,.02-.02,0-.04-.01-.01-.02,0-.04,0Z"/>
            </g>
            <g class="st43">
              <path class="st32" d="M16.09,2.89s0,.05.02.05c.01,0,.02-.01.02-.03,0-.02-.02-.02-.03-.02Z"/>
            </g>
            <g class="st43">
              <path class="st32" d="M16.56,2.65s.03.03.04,0c-.01-.01-.03,0-.04,0Z"/>
            </g>
            <g class="st43">
              <path class="st32" d="M16.45,2.89s.02.04.03.02c0-.02-.02-.02-.03-.02Z"/>
            </g>
            <g class="st43">
              <path class="st32" d="M16.92,2.66s.02.04.03.02c0-.02-.02-.02-.03-.02Z"/>
            </g>
            <g class="st43">
              <path class="st32" d="M16.64,2.47s.02.04.03.02c0-.02-.02-.02-.03-.02Z"/>
            </g>
            <g class="st43">
              <path class="st32" d="M16.12,2.75s.02.04.03.02c0-.02-.02-.02-.03-.02Z"/>
            </g>
            <g class="st43">
              <path class="st32" d="M17.4,2.42s.07.05.09.02c.04-.05-.03-.07-.05-.07-.02,0-.06.02-.04.04Z"/>
            </g>
            <g class="st43">
              <path class="st32" d="M17.56,2.73s.11.03.13,0c.04-.05-.06-.05-.09-.05-.02,0-.06.02-.04.04Z"/>
            </g>
            <g class="st43">
              <path class="st32" d="M17.23,2.5s-.03.05,0,.05c.01,0,.03,0,.03-.02,0-.02-.01-.02-.03-.03Z"/>
            </g>
            <g class="st43">
              <path class="st32" d="M17.85,2.63s0,.05.02.05c.01,0,.02-.02.02-.03,0-.02-.02-.01-.04-.01Z"/>
            </g>
            <g class="st43">
              <path class="st32" d="M17.7,2.47s-.03.05,0,.05c.01,0,.03,0,.03-.02,0-.02-.01-.02-.03-.03Z"/>
            </g>
            <g class="st43">
              <path class="st32" d="M17.44,2.58s0,.05.03.03c0-.02-.01-.03-.03-.03Z"/>
            </g>
            <g class="st43">
              <path class="st32" d="M17.8,1.83s0,.05.03.03c0-.02-.01-.03-.03-.03Z"/>
            </g>
            <g class="st43">
              <path class="st32" d="M17.3,2.75s0,.02.03.03c0-.02-.01-.03-.03-.03Z"/>
            </g>
            <g class="st43">
              <path class="st32" d="M16.99,2.3s-.03-.02-.04,0c0,.02.03.06.05.06.03,0,0-.05-.01-.06Z"/>
            </g>
            <g class="st43">
              <path class="st32" d="M16.87,2.25s.04.03.05.01c.02-.03-.01-.04-.03-.04-.01,0-.03.01-.02.03Z"/>
            </g>
            <g class="st43">
              <path class="st32" d="M17.79,2.83s.04.03.05.01c.02-.03-.01-.04-.03-.04-.01,0-.03.01-.02.03Z"/>
            </g>
            <g class="st43">
              <path class="st32" d="M16.76,2.26s-.02.03,0,.03c0,0,.02,0,.02-.01,0-.01,0-.01-.02-.02Z"/>
            </g>
            <g class="st43">
              <path class="st32" d="M17.16,2.24s-.02.03,0,.03c0,0,.02,0,.02-.01,0-.01,0-.01-.02-.02Z"/>
            </g>
            <g class="st43">
              <path class="st32" d="M17.11,2.59s-.02.03,0,.03c0,0,.02,0,.02-.01,0-.01,0-.01-.02-.02Z"/>
            </g>
            <g class="st43">
              <path class="st32" d="M17.4,1.27s0,.03,0,.03c0,0,.03-.03.02-.05,0-.03-.02,0-.03.01Z"/>
            </g>
            <g class="st43">
              <path class="st32" d="M15.87,2.5s.04,0,.03-.02c0-.03-.03-.02-.04-.02,0,0-.01.03,0,.03Z"/>
            </g>
            <g class="st43">
              <path class="st32" d="M17.14,1.51s0,.05.02.04c0,0,.01-.01,0-.03,0-.01-.02,0-.03,0Z"/>
            </g>
            <g class="st43">
              <path class="st32" d="M16.71,1.81s0,.05.02.04c0,0,.01-.01,0-.03,0-.01-.02,0-.03,0Z"/>
            </g>
            <g class="st43">
              <path class="st32" d="M16.47,1.99s.02.03.03,0c0-.01-.02-.02-.03,0Z"/>
            </g>
            <g class="st43">
              <path class="st32" d="M15.99,2.41s.02.03.03,0c0-.01-.02-.02-.03,0Z"/>
            </g>
            <g class="st43">
              <path class="st32" d="M15.72,2.78s.03,0,.01-.02c-.01,0-.02,0-.01.02Z"/>
            </g>
            <g class="st43">
              <path class="st32" d="M15.69,3.02s0,.04.02.03c0,0,.01-.01,0-.02,0-.01-.02,0-.03,0Z"/>
            </g>
            <g class="st43">
              <path class="st32" d="M16.38,3.01s.02.03.03,0c0-.01-.02-.01-.03,0Z"/>
            </g>
            <g class="st43">
              <path class="st32" d="M15.89,2.95s.02.03.03,0c0-.01-.02-.01-.03,0Z"/>
            </g>
            <path class="st15" d="M15.51,3.05s-.03.06-.02.08l-.1-.06s0,0,0-.01c0-.01,0-.03,0-.04l.02-.07s.05,0,.07.03c.02.02.03.05.04.07,0,0,0,.01,0,.02Z"/>
            <path class="st15" d="M14.84,2.59s-.03.06-.02.08l-.1-.06s0,0,0-.01c0-.01,0-.03,0-.04l.02-.07s.01.06.03.08c.02.02.06,0,.07.02,0,0,0,.01,0,.02Z"/>
          </g>
          <g class="st43">
            <path class="st32" d="M18.16,2.4s0,.05.01.03c0-.02,0-.03-.01-.03Z"/>
          </g>
          <g class="st43">
            <path class="st32" d="M18.04,2.58s.1.06.12.04c.04-.04-.05-.08-.08-.08-.02,0-.07,0-.04.04Z"/>
          </g>
          <g class="st43">
            <path class="st32" d="M18,2.7s0,.05.02.05c.01,0,.02-.02.02-.03,0-.02-.02-.01-.04-.01Z"/>
          </g>
        </g>
        <path class="st8" d="M17.65,1.39l.66,1.32-2.55.32,1.89-1.64M17.67,1.27l-2.16,1.87,2.91-.36-.75-1.51h0Z"/>
      </g>
      <g id="_x28__x2F_techno_x2F_math_x2F_shapes_x2F_level1_x2F_signboard.mp3_x29_">
        <text class="st4" transform="translate(4.7 3.99)"><tspan x="0" y="0">Signboard</tspan></text>
      </g>
      <g id="_x28__x2F_techno_x2F_math_x2F_shapes_x2F_level1_x2F_signboard.mp3_x29_1" data-name="_x28__x2F_techno_x2F_math_x2F_shapes_x2F_level1_x2F_signboard.mp3_x29_">
        <g>
          <polygon class="st26" points="4.39 3.23 7.02 3.23 5.71 .95 4.39 3.23"/>
          <polygon class="st25" points="5.71 .95 4.39 3.23 7.02 3.23 5.71 .95"/>
          <polygon class="st35" points="5.64 2.81 5.6 3.06 5.82 3.06 5.79 2.81 5.64 2.81"/>
          <polygon class="st35" points="6.19 2.81 6.29 3.06 6.51 3.06 6.36 2.81 6.19 2.81"/>
          <polygon class="st35" points="5.05 2.81 4.9 3.06 5.13 3.06 5.22 2.81 5.05 2.81"/>
          <path class="st35" d="M5.74,1.72c-.05.05-.13.06-.17.02-.04-.04-.04-.12.02-.17.05-.05.13-.06.17-.02.04.04.04.12-.02.17"/>
          <path class="st35" d="M5.41,2.91h0s-.05-.04-.04-.07l.08-.37s0-.02.02-.03l.22-.2s.06-.02.08,0c.02.02.02.06,0,.08l-.19.17s-.01.02-.02.03l-.08.34s-.04.05-.07.04"/>
          <path class="st35" d="M6.12,2.91s-.06,0-.08-.02l-.31-.53-.02-.04s0-.06.02-.08c.03-.02.06,0,.08.02l.02.04.31.53s0,.06-.02.08h0Z"/>
          <path class="st35" d="M5.41,2.25h0s-.02-.06,0-.08l.22-.2s.06-.02.08,0c.02.02.02.06,0,.08l-.22.2s-.06.02-.08,0"/>
          <path class="st35" d="M6.04,2.23h0s-.06-.03-.06-.06v-.17s-.01-.04-.03-.05l-.12-.07s-.04-.05-.02-.08.05-.04.08-.02l.18.1s.03.03.03.05v.23s-.03.06-.06.06"/>
          <path class="st35" d="M5.63,1.85v.39s.04.05.07.05h.11s.06-.02.06-.06v-.43s0-.04-.03-.05l-.04-.02s-.04,0-.06,0l-.09.06s-.03.03-.02.05"/>
          <polygon class="st35" points="5.84 1.76 5.91 1.8 5.87 1.85 5.8 1.83 5.84 1.76"/>
        </g>
        <path class="st8" d="M5.71.78l1.41,2.54h-2.81l1.41-2.54M5.71.62l-1.54,2.78h3.08l-1.54-2.78h0Z"/>
      </g>
      <g id="_x28__x2F_techno_x2F_math_x2F_shapes_x2F_level1_x2F_nachos_chips.mp3_x29_">
        <text class="st6" transform="translate(4.47 10.39)"><tspan x="0" y="0">Nachos chips</tspan></text>
      </g>
      <g id="_x28__x2F_techno_x2F_math_x2F_shapes_x2F_level1_x2F_nachos_chips.mp3_x29_1" data-name="_x28__x2F_techno_x2F_math_x2F_shapes_x2F_level1_x2F_nachos_chips.mp3_x29_">
        <g>
          <path class="st1" d="M6.81,9.49s.03-.07,0-.13c-.09-.3-.28-.59-.42-.87-.12-.22-.25-.44-.35-.67-.04-.1-.14-.34-.28-.21-.16.15-.77,1.03-.94,1.29-.07.11-.38.5-.18.59.13.05.31.06.45.07.18.01.35.02.53.02.34.01.69.02,1.04-.02.06,0,.12-.03.14-.07Z"/>
          <path class="st38" d="M6.7,9.41s.02-.07,0-.12c-.09-.27-.25-.54-.39-.79-.11-.2-.22-.4-.32-.61-.04-.09-.13-.31-.26-.19-.15.13-.71.94-.86,1.18-.06.1-.35.46-.16.53.12.05.28.05.41.06.16.01.32.02.48.02.31.01.63.02.95-.02.06,0,.11-.03.13-.06Z"/>
          <g>
            <g>
              <path class="st13" d="M5.45,8.55s0,0,0,0c0,0,0,0,0,0,0,0,0,0,0,0,0,0,0,0,0,0,0,0,0,0,0,0,0,0,0,0,0,0,0,0,0,0,0,0,0,0,0,0,0,0,0,0,0,0,0,0,0,0,0,0-.01,0,0,0,0,0,0,0,0,0,0,0,0,0,0,0,0,0,0,0,0,0,0,0,0,0,0,0,0,0,0,0h0s0,0,0,.01c0,0,0,0,0,0,0,0,0,0,0,0,0,0,0,0,0,0,0,0,0,0,0,0,0,0,0,0,0,0,0,0,0,0,0,0,0,0,0,0,0,0,0,0,0,0,0,0,0,0,0,0,0,0,0,0,0,0,0,0,0,0,0,0,0,0,0,0,0,0,0,0,0,0,0,0,0,0,0,0,0,0,0,0,0,0,0,0,0,0,0,0,0,0,0,0,0,0,0,0,0,0,0,0,0,0,0,0,0,0,0,0,0,0Z"/>
              <path class="st13" d="M5.43,8.53s-.02,0,0,0c0,0,0,0,0,0,0,0,0,0,0,0Z"/>
            </g>
            <polygon class="st13" points="5.68 8.75 5.68 8.74 5.68 8.74 5.68 8.74 5.68 8.74 5.68 8.74 5.67 8.74 5.67 8.74 5.67 8.74 5.66 8.74 5.66 8.74 5.66 8.75 5.66 8.75 5.66 8.75 5.66 8.75 5.65 8.75 5.65 8.75 5.66 8.76 5.66 8.76 5.66 8.76 5.66 8.76 5.66 8.76 5.66 8.76 5.66 8.77 5.66 8.77 5.67 8.77 5.67 8.77 5.68 8.77 5.68 8.76 5.68 8.76 5.69 8.75 5.68 8.75"/>
            <path class="st13" d="M5.84,8.4s-.02.03,0,.02c.01,0,.02-.03,0-.02Z"/>
            <path class="st13" d="M6.1,8.78s-.02.03,0,.02c.01,0,.02-.03,0-.02Z"/>
            <polygon class="st13" points="6.26 8.66 6.25 8.66 6.25 8.66 6.24 8.66 6.24 8.66 6.23 8.66 6.23 8.66 6.22 8.67 6.22 8.67 6.22 8.67 6.22 8.68 6.22 8.68 6.22 8.68 6.23 8.69 6.23 8.69 6.24 8.69 6.24 8.69 6.24 8.69 6.24 8.69 6.25 8.69 6.25 8.68 6.26 8.68 6.26 8.68 6.26 8.67 6.26 8.67 6.26 8.66"/>
            <path class="st13" d="M5.56,9.29s-.03.03,0,.03c.02,0,.03-.03,0-.03Z"/>
            <path class="st13" d="M5.82,8.09s-.02.03,0,.03c.01,0,.02-.03,0-.03Z"/>
            <polygon class="st13" points="5.05 9.12 5.05 9.12 5.05 9.11 5.05 9.11 5.04 9.11 5.04 9.11 5.04 9.11 5.03 9.12 5.03 9.12 5.03 9.12 5.03 9.12 5.03 9.13 5.03 9.13 5.03 9.13 5.03 9.14 5.04 9.14 5.04 9.14 5.05 9.13 5.05 9.13 5.05 9.13 5.05 9.13 5.05 9.12 5.05 9.12"/>
            <path class="st13" d="M5.02,9.3s-.01.02,0,.02c0,0,.01-.02,0-.02Z"/>
            <path class="st13" d="M4.79,9.24s-.02.02,0,.02c0,0,.02-.02,0-.02Z"/>
            <path class="st13" d="M5.09,8.8s-.01.01,0,.01c0,0,.01-.01,0-.01Z"/>
            <path class="st13" d="M5.22,8.94s-.02.02,0,.02c.01,0,.02-.02,0-.02Z"/>
            <path class="st13" d="M5.52,9.14s-.02.03,0,.02c.01,0,.02-.03,0-.02Z"/>
            <path class="st13" d="M5.46,8.19s-.03.03,0,.03c.01,0,.03-.03,0-.03Z"/>
            <polygon class="st13" points="5.62 7.98 5.62 7.98 5.61 7.97 5.61 7.98 5.6 7.98 5.6 7.98 5.6 7.98 5.59 7.98 5.59 7.99 5.59 7.99 5.59 7.99 5.6 8 5.6 8 5.6 8 5.61 8 5.62 8 5.62 7.99 5.62 7.99 5.62 7.98"/>
            <path class="st13" d="M6.24,9.2s-.02,0-.02.02c0,0,0,.01.01.01,0,0,.02,0,.02-.02,0,0,0-.01-.01-.01Z"/>
            <polygon class="st13" points="5.99 9.4 5.99 9.39 5.99 9.39 5.99 9.39 5.99 9.39 5.98 9.39 5.98 9.39 5.97 9.39 5.97 9.39 5.97 9.4 5.97 9.4 5.97 9.41 5.96 9.41 5.96 9.41 5.97 9.42 5.97 9.42 5.98 9.42 5.98 9.42 5.99 9.42 5.99 9.42 5.99 9.41 6 9.4 6 9.4 5.99 9.4"/>
            <path class="st13" d="M6.54,9.35s-.03.03,0,.03c.02,0,.03-.03,0-.03Z"/>
            <path class="st13" d="M6.62,9.45s-.01.01,0,.01c0,0,.01-.01,0-.01Z"/>
            <polygon class="st13" points="6.66 9.15 6.66 9.15 6.66 9.15 6.65 9.15 6.65 9.15 6.65 9.15 6.65 9.15 6.65 9.15 6.64 9.15 6.64 9.15 6.64 9.15 6.64 9.15 6.64 9.15 6.64 9.16 6.63 9.16 6.63 9.16 6.63 9.17 6.63 9.17 6.63 9.17 6.64 9.18 6.64 9.18 6.64 9.18 6.65 9.17 6.65 9.17 6.66 9.16 6.66 9.16 6.66 9.16 6.66 9.16 6.66 9.16 6.66 9.16 6.66 9.16 6.66 9.15 6.66 9.15"/>
            <path class="st13" d="M6.52,8.9s-.02,0-.02.02c0,0,0,.02.01.02,0,0,.02,0,.02-.02,0,0,0-.02-.01-.02Z"/>
          </g>
          <polygon class="st0" points="5.15 8.68 5.15 8.68 5.15 8.68 5.15 8.68 5.15 8.68 5.15 8.67 5.14 8.67 5.14 8.67 5.14 8.67 5.14 8.67 5.14 8.67 5.13 8.67 5.13 8.67 5.13 8.68 5.12 8.68 5.12 8.68 5.12 8.69 5.12 8.69 5.12 8.69 5.13 8.7 5.13 8.7 5.13 8.7 5.13 8.7 5.13 8.7 5.14 8.7 5.14 8.7 5.14 8.7 5.15 8.69 5.15 8.69 5.15 8.69 5.15 8.68 5.15 8.68"/>
          <path class="st0" d="M5.25,8.6s-.02.02,0,.02c0,0,.02-.02,0-.02Z"/>
          <path class="st0" d="M5.54,8.22s-.02.02,0,.02c.01,0,.02-.02,0-.02Z"/>
          <path class="st0" d="M5.67,7.8s-.01.01,0,.01c0,0,.01-.01,0-.01Z"/>
          <path class="st0" d="M5.89,8.16s-.02.03,0,.02c.01,0,.02-.03,0-.02Z"/>
          <path class="st0" d="M5.92,7.79s-.02.03,0,.02c.01,0,.02-.03,0-.02Z"/>
          <polygon class="st0" points="6.12 8.14 6.12 8.13 6.12 8.13 6.11 8.13 6.11 8.13 6.11 8.14 6.1 8.14 6.1 8.15 6.1 8.15 6.1 8.15 6.1 8.15 6.11 8.16 6.11 8.16 6.12 8.15 6.12 8.15 6.12 8.15 6.13 8.14 6.13 8.14 6.12 8.14"/>
          <path class="st0" d="M6.07,9.1s-.02.02,0,.02c.01,0,.02-.02,0-.02Z"/>
          <path class="st0" d="M5.86,9.33s0,0,0,0c0,0,0,0,0,0Z"/>
          <polygon class="st0" points="5.74 9.43 5.74 9.43 5.74 9.42 5.73 9.42 5.72 9.43 5.72 9.43 5.72 9.43 5.72 9.43 5.72 9.43 5.71 9.44 5.71 9.44 5.71 9.45 5.72 9.46 5.72 9.46 5.72 9.46 5.72 9.46 5.72 9.46 5.72 9.46 5.72 9.46 5.72 9.46 5.72 9.46 5.72 9.46 5.73 9.46 5.73 9.46 5.73 9.46 5.73 9.46 5.73 9.45 5.73 9.45 5.73 9.45 5.74 9.45 5.74 9.45 5.74 9.45 5.74 9.44 5.74 9.44 5.74 9.43"/>
          <polygon class="st0" points="5.83 8.97 5.83 8.96 5.83 8.96 5.83 8.96 5.83 8.96 5.83 8.96 5.83 8.96 5.82 8.96 5.82 8.96 5.82 8.96 5.82 8.96 5.82 8.96 5.82 8.96 5.82 8.96 5.81 8.96 5.81 8.96 5.81 8.96 5.8 8.96 5.8 8.97 5.8 8.97 5.8 8.97 5.8 8.97 5.8 8.98 5.8 8.98 5.8 8.98 5.8 8.98 5.8 8.98 5.8 8.98 5.8 8.98 5.8 8.98 5.8 8.98 5.8 8.98 5.8 8.99 5.8 8.99 5.81 8.99 5.82 8.99 5.82 8.98 5.83 8.97 5.83 8.97"/>
          <path class="st0" d="M4.8,9.42s-.02.02,0,.02c.01,0,.02-.02,0-.02Z"/>
          <path class="st0" d="M4.65,9.31s-.02.02,0,.02c.01,0,.02-.02,0-.02Z"/>
          <polygon class="st34" points="5.41 8.31 5.41 8.31 5.41 8.31 5.41 8.31 5.4 8.31 5.4 8.31 5.4 8.31 5.4 8.31 5.39 8.31 5.39 8.32 5.39 8.32 5.39 8.32 5.39 8.32 5.39 8.32 5.39 8.32 5.39 8.32 5.39 8.32 5.39 8.32 5.39 8.32 5.39 8.33 5.39 8.33 5.39 8.33 5.39 8.33 5.39 8.33 5.4 8.33 5.4 8.33 5.4 8.33 5.4 8.33 5.4 8.33 5.4 8.33 5.41 8.33 5.41 8.32 5.41 8.32 5.41 8.31 5.41 8.31"/>
          <path class="st34" d="M5.6,8.36s-.03.03,0,.03c.01,0,.03-.03,0-.03Z"/>
          <path class="st34" d="M5.85,7.97s-.02.02,0,.02c.01,0,.02-.02,0-.02Z"/>
          <path class="st34" d="M6.07,7.99s-.02.02,0,.02c.01,0,.02-.02,0-.02Z"/>
          <path class="st34" d="M5.67,7.88s-.02.02,0,.02c.01,0,.02-.02,0-.02Z"/>
          <polygon class="st34" points="5.8 7.7 5.8 7.69 5.8 7.69 5.8 7.69 5.8 7.69 5.8 7.69 5.79 7.69 5.79 7.69 5.79 7.69 5.78 7.69 5.78 7.69 5.77 7.7 5.77 7.71 5.77 7.71 5.77 7.71 5.77 7.71 5.77 7.72 5.78 7.72 5.78 7.72 5.79 7.72 5.8 7.72 5.8 7.71 5.8 7.7 5.8 7.7"/>
          <path class="st34" d="M5.86,8.89s0,0,0,0c0,0,0,0,0,0Z"/>
          <path class="st34" d="M6.03,8.52s-.02,0-.02.02c0,0,0,.02.01.02,0,0,.02,0,.02-.02,0,0,0-.02-.01-.02Z"/>
          <path class="st34" d="M6.06,8.44s-.02.02,0,.02c.01,0,.02-.02,0-.02Z"/>
          <path class="st34" d="M5.77,8.65s-.02.02,0,.02c.01,0,.02-.02,0-.02Z"/>
          <path class="st34" d="M5.34,8.8s-.01.02,0,.01c0,0,.01-.02,0-.01Z"/>
          <path class="st34" d="M5.54,8.95s-.02.02,0,.02c.01,0,.02-.02,0-.02Z"/>
          <polygon class="st34" points="5.28 9.24 5.27 9.24 5.27 9.24 5.26 9.24 5.26 9.24 5.25 9.25 5.25 9.25 5.25 9.25 5.25 9.26 5.25 9.26 5.25 9.27 5.26 9.27 5.26 9.27 5.27 9.27 5.27 9.26 5.27 9.26 5.28 9.25 5.28 9.25 5.28 9.24"/>
          <polygon class="st34" points="4.95 9 4.95 8.99 4.94 8.99 4.94 8.99 4.94 8.99 4.93 8.99 4.93 8.99 4.93 9 4.92 9 4.92 9 4.93 9.01 4.93 9.01 4.93 9.02 4.94 9.02 4.94 9.01 4.95 9.01 4.95 9.01 4.95 9 4.95 9"/>
          <path class="st34" d="M4.83,9.16s0,0,0,0c0,0,0,0,0,0,0,0,0,0,0,0,0,0,0,0,0,0,0,0,0,0,0,0,0,0,0,0,0,0,0,0,0,0,0,0,0,0,0,0,0,0,0,0,0,0,0,0,0,0,0,0,0,0,0,0,0,0,0,0,0,0,0,0,0,0,0,0,0,0,0,0,0,0,0,0,0,0,0,0,0,0,0,0,0,0,0,0,0,0,0,0,0,0,0-.01Z"/>
          <path class="st34" d="M5.99,9.21s-.02.02,0,.02c0,0,.02-.02,0-.02Z"/>
          <path class="st34" d="M6.49,9.34s-.02.02,0,.02c.01,0,.02-.02,0-.02Z"/>
          <polygon class="st34" points="6.43 9.02 6.42 9.02 6.42 9.02 6.41 9.02 6.4 9.02 6.4 9.02 6.39 9.02 6.39 9.03 6.39 9.04 6.39 9.04 6.4 9.05 6.4 9.05 6.41 9.05 6.41 9.05 6.42 9.05 6.42 9.04 6.43 9.03 6.43 9.03 6.43 9.02"/>
          <path class="st34" d="M6.19,9.45s-.02.02,0,.02c.01,0,.02-.02,0-.02Z"/>
          <path class="st34" d="M5.17,9.47s-.02.02,0,.02c0,0,.02-.02,0-.02Z"/>
          <path class="st34" d="M5.37,9.43s-.02.02,0,.02c0,0,.02-.02,0-.02Z"/>
        </g>
        <path class="st8" d="M5.84,7.38l1.24,2.21h-2.74l1.51-2.21M5.85,7.2l-.09.13-1.51,2.21-.1.15h3.08l-.08-.14-1.24-2.21-.07-.13h0Z"/>
      </g>
      <g id="_x28__x2F_techno_x2F_math_x2F_shapes_x2F_level1_x2F_set_square.mp3_x29_1" data-name="_x28__x2F_techno_x2F_math_x2F_shapes_x2F_level1_x2F_set_square.mp3_x29_">
        <g>
          <path class="st29" d="M16.52,7.6l-1.8,1.88,3.68-.05-1.88-1.82ZM16.54,8.2l.84.81-1.64.02.8-.84Z"/>
          <g class="st14">
            <path class="st7" d="M16.52,7.6l-.07.07,1.72,1.66-3.36.05-.09.09,3.68-.05-1.88-1.82Z"/>
          </g>
          <g class="st36">
            <path class="st26" d="M17.35,9.02l-1.51.02h0s0,.07.03.07l1.46-.02s.05-.04.03-.07h0ZM16.51,7.6l-1.8,1.88h.12s1.73-1.81,1.73-1.81l1.82,1.76h.02s-1.88-1.82-1.88-1.82Z"/>
          </g>
          <path class="st7" d="M14.72,9.51s-.01,0-.02-.02c0-.01,0-.02,0-.03l1.8-1.88s.01,0,.02,0c0,0,.02,0,.02,0l1.88,1.82s.01.02,0,.03c0,.01-.02.02-.03.02l-3.68.05s0,0-.01,0ZM16.53,7.64l-1.73,1.8,3.53-.05-1.81-1.75ZM15.72,9.07s-.01,0-.02-.02c0-.01,0-.02,0-.03l.8-.84s.01,0,.02,0c0,0,.02,0,.02,0l.84.81s.01.02,0,.03c0,.01-.02.02-.03.02l-1.64.02s0,0-.01,0ZM16.54,8.25l-.73.76,1.5-.02-.77-.74Z"/>
          <path class="st7" d="M15.72,9.07s-.01,0-.02-.02c0-.01,0-.02,0-.03l.8-.84s.01,0,.02,0c0,0,.02,0,.02,0l.84.81s.01.02,0,.03c0,.01-.02.02-.03.02l-1.64.02s0,0-.01,0ZM16.54,8.25l-.73.76,1.5-.02-.77-.74Z"/>
          <path class="st7" d="M15.72,9.07s-.01,0-.02-.02c0-.01,0-.02,0-.03l.8-.84s.01,0,.02,0c0,0,.02,0,.02,0l.84.81s.01.02,0,.03c0,.01-.02.02-.03.02l-1.64.02s0,0-.01,0ZM16.54,8.25l-.73.76,1.5-.02-.77-.74Z"/>
          <path class="st7" d="M15.16,9.49s-.01-.01-.01-.02v-.19s0-.02.02-.02c.01,0,.02,0,.02.02v.19s0,.02-.02.02c0,0,0,0,0,0Z"/>
          <path class="st7" d="M15.31,9.49s-.01-.01-.01-.02v-.1s0-.02.02-.02c.01,0,.02,0,.02.02v.1s0,.02-.02.02c0,0,0,0,0,0Z"/>
          <path class="st7" d="M15.46,9.49s-.01-.01-.01-.02v-.1s0-.02.02-.02c.01,0,.02,0,.02.02v.1s0,.02-.02.02c0,0,0,0,0,0Z"/>
          <path class="st7" d="M15.62,9.48s-.01-.01-.01-.02v-.1s0-.02.02-.02c.01,0,.02,0,.02.02v.1s0,.02-.02.02c0,0,0,0,0,0Z"/>
          <path class="st7" d="M15.77,9.48s-.01-.01-.01-.02v-.19s0-.02.02-.02c.01,0,.02,0,.02.02v.19s0,.02-.02.02c0,0,0,0,0,0Z"/>
          <path class="st7" d="M15.92,9.49s-.01,0-.01-.02v-.07s0-.02.02-.02c0,0,.02,0,.02.02v.07s0,.02-.02.02c0,0,0,0,0,0Z"/>
          <path class="st7" d="M16.07,9.48s-.01-.01-.01-.02v-.1s0-.02.02-.02c.01,0,.02,0,.02.02v.1s0,.02-.02.02c0,0,0,0,0,0Z"/>
          <path class="st7" d="M16.22,9.48s-.01-.01-.01-.02v-.1s0-.02.02-.02c.01,0,.02,0,.02.02v.1s0,.02-.02.02c0,0,0,0,0,0Z"/>
          <path class="st7" d="M16.37,9.47s-.01-.01-.01-.02v-.19s0-.02.02-.02c.01,0,.02,0,.02.02v.19s0,.02-.02.02c0,0,0,0,0,0Z"/>
          <path class="st7" d="M16.52,9.47s-.01-.01-.01-.02v-.1s0-.02.02-.02c.01,0,.02,0,.02.02v.1s0,.02-.02.02c0,0,0,0,0,0Z"/>
          <path class="st7" d="M16.67,9.47s-.01-.01-.01-.02v-.1s0-.02.02-.02c.01,0,.02,0,.02.02v.1s0,.02-.02.02c0,0,0,0,0,0Z"/>
          <path class="st7" d="M16.83,9.47s-.01-.01-.01-.02v-.1s0-.02.02-.02c.01,0,.02,0,.02.02v.1s0,.02-.02.02c0,0,0,0,0,0Z"/>
          <path class="st7" d="M16.98,9.46s-.01-.01-.01-.02v-.19s0-.02.02-.02c.01,0,.02,0,.02.02v.19s0,.02-.02.02c0,0,0,0,0,0Z"/>
          <path class="st7" d="M17.13,9.46s-.01-.01-.01-.02v-.1s0-.02.02-.02c.01,0,.02,0,.02.02v.1s0,.02-.02.02c0,0,0,0,0,0Z"/>
          <path class="st7" d="M17.28,9.46s-.01-.01-.01-.02v-.1s0-.02.02-.02c.01,0,.02,0,.02.02v.1s0,.02-.02.02c0,0,0,0,0,0Z"/>
          <path class="st7" d="M17.43,9.46s-.01-.01-.01-.02v-.1s0-.02.02-.02c.01,0,.02,0,.02.02v.1s0,.02-.02.02c0,0,0,0,0,0Z"/>
          <path class="st7" d="M17.58,9.46s-.01-.01-.01-.02v-.19s0-.02.02-.02c.01,0,.02,0,.02.02v.19s0,.02-.02.02c0,0,0,0,0,0Z"/>
          <path class="st7" d="M17.73,9.45s-.01-.01-.01-.02v-.1s0-.02.02-.02c.01,0,.02,0,.02.02v.1s0,.02-.02.02c0,0,0,0,0,0Z"/>
          <path class="st7" d="M17.89,9.45s-.01-.01-.01-.02v-.1s0-.02.02-.02c.01,0,.02,0,.02.02v.1s0,.02-.02.02c0,0,0,0,0,0Z"/>
        </g>
        <polygon class="st24" points="14.7 9.49 16.52 7.57 18.44 9.44 14.7 9.49"/>
      </g>
      <text id="_x28__x2F_techno_x2F_math_x2F_shapes_x2F_level1_x2F_triangle.mp3_x29_1" data-name="_x28__x2F_techno_x2F_math_x2F_shapes_x2F_level1_x2F_triangle.mp3_x29_" class="st9" transform="translate(10.22 7.61)"><tspan x="0" y="0">Triangle</tspan></text>
    </g>
  </g>
</svg>