<?xml version="1.0" encoding="UTF-8"?>
<svg xmlns="http://www.w3.org/2000/svg" version="1.1" xmlns:xlink="http://www.w3.org/1999/xlink" viewBox="0 0 623.62 340.16">
  <!-- Generator: Adobe Illustrator 29.1.0, SVG Export Plug-In . SVG Version: 2.1.0 Build 142)  -->
  <defs>
    <style>
      .st0 {
        clip-path: url(#clippath-51);
      }

      .st1 {
        fill: #c72127;
      }

      .st2 {
        clip-path: url(#clippath-34);
      }

      .st3 {
        fill: #ffd650;
      }

      .st4 {
        clip-path: url(#clippath-38);
      }

      .st5 {
        clip-path: url(#clippath-21);
      }

      .st6 {
        clip-path: url(#clippath-6);
      }

      .st7 {
        clip-path: url(#clippath-7);
      }

      .st8 {
        clip-path: url(#clippath-17);
      }

      .st9 {
        fill: #ffde74;
      }

      .st10 {
        fill: #009ecf;
      }

      .st11 {
        clip-path: url(#clippath-31);
      }

      .st12 {
        fill: #0099a8;
      }

      .st13 {
        clip-path: url(#clippath-15);
      }

      .st14 {
        clip-path: url(#clippath-33);
      }

      .st15 {
        font-size: 19.23px;
      }

      .st15, .st16, .st17, .st18 {
        fill: #231f20;
        font-family: FefdyTypeSemibold, 'Fefdy Type';
      }

      .st19 {
        clip-path: url(#clippath-18);
      }

      .st20 {
        clip-path: url(#clippath-47);
      }

      .st21 {
        fill: #2d77ac;
      }

      .st22 {
        clip-path: url(#clippath-4);
      }

      .st23 {
        clip-path: url(#clippath-22);
      }

      .st24 {
        opacity: .4;
      }

      .st25 {
        clip-path: url(#clippath-23);
      }

      .st26 {
        fill: #63cae5;
      }

      .st27 {
        fill: #ea3f5d;
      }

      .st28 {
        fill: #e2b626;
      }

      .st29 {
        clip-path: url(#clippath-54);
      }

      .st30 {
        fill: #7dd1eb;
      }

      .st31 {
        clip-path: url(#clippath-9);
      }

      .st32 {
        fill: #ed3e91;
      }

      .st33 {
        clip-path: url(#clippath-10);
      }

      .st34 {
        clip-path: url(#clippath-42);
      }

      .st35 {
        clip-path: url(#clippath-59);
      }

      .st36 {
        fill: #f3774b;
      }

      .st37 {
        fill: #fff;
      }

      .st38 {
        clip-path: url(#clippath-43);
      }

      .st39 {
        stroke: #f15a24;
        stroke-miterlimit: 10;
        stroke-width: 1.65px;
      }

      .st39, .st40 {
        fill: none;
      }

      .st41 {
        clip-path: url(#clippath-25);
      }

      .st42 {
        fill: #f06982;
      }

      .st43 {
        clip-path: url(#clippath-27);
      }

      .st16 {
        font-size: 16.26px;
      }

      .st44 {
        fill: #26bfd0;
      }

      .st45 {
        clip-path: url(#clippath-11);
      }

      .st46 {
        fill: #f17990;
      }

      .st47 {
        clip-path: url(#clippath-57);
      }

      .st48 {
        clip-path: url(#clippath-36);
      }

      .st49 {
        fill: #ab1f64;
      }

      .st50 {
        clip-path: url(#clippath-35);
      }

      .st51 {
        clip-path: url(#clippath-48);
      }

      .st52 {
        clip-path: url(#clippath-28);
      }

      .st53 {
        fill: #bbd531;
      }

      .st54 {
        clip-path: url(#clippath-1);
      }

      .st55 {
        clip-path: url(#clippath-56);
      }

      .st56 {
        fill: #eabd24;
      }

      .st57 {
        fill: #1fc3f3;
      }

      .st58 {
        fill: #e33e5a;
      }

      .st59 {
        clip-path: url(#clippath-45);
      }

      .st60 {
        isolation: isolate;
      }

      .st61 {
        clip-path: url(#clippath-46);
      }

      .st62 {
        clip-path: url(#clippath-40);
      }

      .st63 {
        clip-path: url(#clippath-5);
      }

      .st64 {
        fill: #16f71b;
      }

      .st65 {
        clip-path: url(#clippath-20);
      }

      .st66 {
        font-family: MyriadPro-Regular, 'Myriad Pro';
        font-size: 20.77px;
      }

      .st67 {
        fill: #a1a6ff;
      }

      .st68 {
        clip-path: url(#clippath-8);
      }

      .st69 {
        fill: #c91a76;
      }

      .st70 {
        fill: #38c0d0;
      }

      .st71 {
        fill: #c41d69;
      }

      .st72 {
        clip-path: url(#clippath-52);
      }

      .st73 {
        clip-path: url(#clippath-41);
      }

      .st74 {
        fill: #fce7a0;
      }

      .st75 {
        clip-path: url(#clippath-3);
      }

      .st76 {
        fill: #e21c6f;
      }

      .st77 {
        clip-path: url(#clippath-26);
      }

      .st78 {
        fill: #75bf45;
      }

      .st79 {
        clip-path: url(#clippath-12);
      }

      .st80 {
        clip-path: url(#clippath-50);
      }

      .st17 {
        font-size: 15.94px;
      }

      .st81 {
        fill: #d03853;
      }

      .st82 {
        clip-path: url(#clippath-14);
      }

      .st18 {
        font-size: 17.23px;
      }

      .st83 {
        mix-blend-mode: screen;
      }

      .st84 {
        clip-path: url(#clippath-30);
      }

      .st85 {
        clip-path: url(#clippath-19);
      }

      .st86 {
        fill: #ec2d88;
      }

      .st87 {
        fill: #087b84;
      }

      .st88 {
        fill: #08b1c2;
      }

      .st89 {
        fill: #41c2d5;
      }

      .st90 {
        clip-path: url(#clippath-32);
      }

      .st91 {
        fill: #5ec8de;
      }

      .st92 {
        clip-path: url(#clippath-55);
      }

      .st93 {
        fill: #f38fa4;
      }

      .st94 {
        fill: #ee4666;
      }

      .st95 {
        clip-path: url(#clippath-53);
      }

      .st96 {
        clip-path: url(#clippath-39);
      }

      .st97 {
        fill: #ffdf7c;
      }

      .st98 {
        clip-path: url(#clippath-16);
      }

      .st99 {
        clip-path: url(#clippath-2);
      }

      .st100 {
        fill: #34b0d7;
      }

      .st101 {
        clip-path: url(#clippath-29);
      }

      .st102 {
        fill: #00aaba;
      }

      .st103 {
        clip-path: url(#clippath-49);
      }

      .st104 {
        clip-path: url(#clippath-37);
      }

      .st105 {
        fill: #d1a92a;
      }

      .st106 {
        clip-path: url(#clippath-58);
      }

      .st107 {
        fill: #e05449;
      }

      .st108 {
        clip-path: url(#clippath-13);
      }

      .st109 {
        fill: #ffce2f;
      }

      .st110 {
        clip-path: url(#clippath-24);
      }

      .st111 {
        fill: #ac8c2f;
      }

      .st112 {
        clip-path: url(#clippath);
      }

      .st113 {
        clip-path: url(#clippath-44);
      }

      .st114 {
        fill: #6a1d29;
      }

      .st115 {
        fill: #43c3d9;
      }
    </style>
    <clipPath id="clippath">
      <rect class="st40" x="100.55" y="254.62" width="41.64" height="38.44"/>
    </clipPath>
    <clipPath id="clippath-1">
      <rect class="st40" x="100.55" y="254.62" width="41.64" height="38.44"/>
    </clipPath>
    <clipPath id="clippath-2">
      <rect class="st40" x="63.64" y="258.46" width="21.99" height="28.32"/>
    </clipPath>
    <clipPath id="clippath-3">
      <rect class="st40" x="63.64" y="258.46" width="21.99" height="28.32"/>
    </clipPath>
    <clipPath id="clippath-4">
      <rect class="st40" x="88.45" y="227.73" width="39.86" height="9.19"/>
    </clipPath>
    <clipPath id="clippath-5">
      <rect class="st40" x="88.45" y="227.73" width="39.86" height="9.19"/>
    </clipPath>
    <clipPath id="clippath-6">
      <rect class="st40" x="522.86" y="61.51" width="8.87" height="26.31"/>
    </clipPath>
    <clipPath id="clippath-7">
      <rect class="st40" x="522.86" y="61.51" width="8.87" height="26.31"/>
    </clipPath>
    <clipPath id="clippath-8">
      <rect class="st40" x="522.86" y="82.54" width="9.1" height="26.5"/>
    </clipPath>
    <clipPath id="clippath-9">
      <rect class="st40" x="522.86" y="82.54" width="9.1" height="26.5"/>
    </clipPath>
    <clipPath id="clippath-10">
      <rect class="st40" x="522.86" y="103.53" width="9.1" height="26.62"/>
    </clipPath>
    <clipPath id="clippath-11">
      <rect class="st40" x="522.86" y="103.53" width="9.1" height="26.62"/>
    </clipPath>
    <clipPath id="clippath-12">
      <rect class="st40" x="503.36" y="60.52" width="25.41" height="7.12"/>
    </clipPath>
    <clipPath id="clippath-13">
      <rect class="st40" x="503.36" y="60.52" width="25.41" height="7.12"/>
    </clipPath>
    <clipPath id="clippath-14">
      <rect class="st40" x="482.06" y="60.52" width="25.41" height="7.12"/>
    </clipPath>
    <clipPath id="clippath-15">
      <rect class="st40" x="482.06" y="60.52" width="25.41" height="7.12"/>
    </clipPath>
    <clipPath id="clippath-16">
      <rect class="st40" x="461.29" y="60.52" width="25.41" height="7.12"/>
    </clipPath>
    <clipPath id="clippath-17">
      <rect class="st40" x="461.29" y="60.52" width="25.41" height="7.12"/>
    </clipPath>
    <clipPath id="clippath-18">
      <rect class="st40" x="513.92" y="51.71" width="25.41" height="7.13"/>
    </clipPath>
    <clipPath id="clippath-19">
      <rect class="st40" x="513.92" y="51.71" width="25.41" height="7.13"/>
    </clipPath>
    <clipPath id="clippath-20">
      <rect class="st40" x="493.02" y="51.71" width="25.41" height="7.13"/>
    </clipPath>
    <clipPath id="clippath-21">
      <rect class="st40" x="493.02" y="51.71" width="25.41" height="7.13"/>
    </clipPath>
    <clipPath id="clippath-22">
      <rect class="st40" x="471.85" y="51.71" width="25.41" height="7.13"/>
    </clipPath>
    <clipPath id="clippath-23">
      <rect class="st40" x="471.85" y="51.71" width="25.41" height="7.13"/>
    </clipPath>
    <clipPath id="clippath-24">
      <rect class="st40" x="459.76" y="69.32" width="17.63" height="16.74"/>
    </clipPath>
    <clipPath id="clippath-25">
      <rect class="st40" x="459.76" y="69.32" width="17.63" height="16.74"/>
    </clipPath>
    <clipPath id="clippath-26">
      <rect class="st40" x="459.76" y="90.8" width="17.63" height="16.74"/>
    </clipPath>
    <clipPath id="clippath-27">
      <rect class="st40" x="459.76" y="90.8" width="17.63" height="16.74"/>
    </clipPath>
    <clipPath id="clippath-28">
      <rect class="st40" x="459.76" y="112.3" width="17.63" height="16.73"/>
    </clipPath>
    <clipPath id="clippath-29">
      <rect class="st40" x="459.76" y="112.3" width="17.63" height="16.73"/>
    </clipPath>
    <clipPath id="clippath-30">
      <rect class="st40" x="481.19" y="69.32" width="17.63" height="16.74"/>
    </clipPath>
    <clipPath id="clippath-31">
      <rect class="st40" x="481.19" y="69.32" width="17.63" height="16.74"/>
    </clipPath>
    <clipPath id="clippath-32">
      <rect class="st40" x="481.19" y="90.8" width="17.63" height="16.74"/>
    </clipPath>
    <clipPath id="clippath-33">
      <rect class="st40" x="481.19" y="90.8" width="17.63" height="16.74"/>
    </clipPath>
    <clipPath id="clippath-34">
      <rect class="st40" x="481.19" y="112.3" width="17.63" height="16.73"/>
    </clipPath>
    <clipPath id="clippath-35">
      <rect class="st40" x="481.19" y="112.3" width="17.63" height="16.73"/>
    </clipPath>
    <clipPath id="clippath-36">
      <rect class="st40" x="502.09" y="69.32" width="17.63" height="16.74"/>
    </clipPath>
    <clipPath id="clippath-37">
      <rect class="st40" x="502.09" y="69.32" width="17.63" height="16.74"/>
    </clipPath>
    <clipPath id="clippath-38">
      <rect class="st40" x="502.09" y="90.8" width="17.63" height="16.74"/>
    </clipPath>
    <clipPath id="clippath-39">
      <rect class="st40" x="502.09" y="90.8" width="17.63" height="16.74"/>
    </clipPath>
    <clipPath id="clippath-40">
      <rect class="st40" x="502.09" y="112.3" width="17.63" height="16.73"/>
    </clipPath>
    <clipPath id="clippath-41">
      <rect class="st40" x="502.09" y="112.3" width="17.63" height="16.73"/>
    </clipPath>
    <clipPath id="clippath-42">
      <rect class="st40" x="533.58" y="52.94" width="8.88" height="26.31"/>
    </clipPath>
    <clipPath id="clippath-43">
      <rect class="st40" x="533.58" y="52.94" width="8.88" height="26.31"/>
    </clipPath>
    <clipPath id="clippath-44">
      <rect class="st40" x="533.58" y="73.97" width="9.1" height="26.5"/>
    </clipPath>
    <clipPath id="clippath-45">
      <rect class="st40" x="533.58" y="73.97" width="9.1" height="26.5"/>
    </clipPath>
    <clipPath id="clippath-46">
      <rect class="st40" x="533.58" y="94.95" width="9.1" height="25.71"/>
    </clipPath>
    <clipPath id="clippath-47">
      <rect class="st40" x="533.58" y="94.95" width="9.1" height="25.71"/>
    </clipPath>
    <clipPath id="clippath-48">
      <rect class="st40" x="544.13" y="44.17" width="8.88" height="26.31"/>
    </clipPath>
    <clipPath id="clippath-49">
      <rect class="st40" x="544.13" y="44.17" width="8.88" height="26.31"/>
    </clipPath>
    <clipPath id="clippath-50">
      <rect class="st40" x="544.13" y="65.21" width="9.1" height="26.5"/>
    </clipPath>
    <clipPath id="clippath-51">
      <rect class="st40" x="544.13" y="65.21" width="9.1" height="26.5"/>
    </clipPath>
    <clipPath id="clippath-52">
      <rect class="st40" x="544.13" y="86.19" width="9.1" height="25.71"/>
    </clipPath>
    <clipPath id="clippath-53">
      <rect class="st40" x="544.13" y="86.19" width="9.1" height="25.71"/>
    </clipPath>
    <clipPath id="clippath-54">
      <rect class="st40" x="524.64" y="42.9" width="25.41" height="7.13"/>
    </clipPath>
    <clipPath id="clippath-55">
      <rect class="st40" x="524.64" y="42.9" width="25.41" height="7.13"/>
    </clipPath>
    <clipPath id="clippath-56">
      <rect class="st40" x="503.74" y="42.9" width="25.41" height="7.13"/>
    </clipPath>
    <clipPath id="clippath-57">
      <rect class="st40" x="503.74" y="42.9" width="25.41" height="7.13"/>
    </clipPath>
    <clipPath id="clippath-58">
      <rect class="st40" x="482.56" y="42.9" width="25.42" height="7.13"/>
    </clipPath>
    <clipPath id="clippath-59">
      <rect class="st40" x="482.56" y="42.9" width="25.42" height="7.13"/>
    </clipPath>
  </defs>
  <g class="st60">
    <g id="Layer_1">
      <rect class="st67" x="-35.71" y="-30.41" width="686.12" height="422.12"/>
      <g id="_x28__x2F_techno_x2F_math_x2F_shapes_x2F_level3_x2F_cube_x2F_cube.mp3_x29_">
        <polyline class="st64" points="254.72 118.29 340.35 118.19 363.66 134.53 363.9 221.35 278.96 220.88 254.02 205.35"/>
        <g>
          <rect class="st39" x="253.05" y="118.19" width="87.29" height="87.29"/>
          <rect class="st39" x="277.78" y="134.68" width="87.29" height="87.29"/>
          <line class="st39" x1="340.35" y1="118.19" x2="365.08" y2="134.68"/>
          <line class="st39" x1="253.05" y1="118.19" x2="277.78" y2="134.68"/>
          <line class="st39" x1="253.05" y1="205.48" x2="277.78" y2="221.97"/>
          <line class="st39" x1="340.35" y1="205.48" x2="365.08" y2="221.97"/>
        </g>
      </g>
      <text id="_x28__x2F_techno_x2F_math_x2F_shapes_x2F_level3_x2F_cube_x2F_dice.mp3_x29_" class="st15" transform="translate(81.41 166.16)"><tspan x="0" y="0">Dice</tspan></text>
      <g id="_x28__x2F_techno_x2F_math_x2F_shapes_x2F_level3_x2F_cube_x2F_dice.mp3_x29_1" data-name="_x28__x2F_techno_x2F_math_x2F_shapes_x2F_level3_x2F_cube_x2F_dice.mp3_x29_">
        <polygon class="st76" points="55.21 111.78 101.21 137.43 101.21 87.95 55.21 62.31 55.21 111.78"/>
        <polygon class="st71" points="147.21 111.78 101.21 137.43 101.21 87.95 147.21 62.31 147.21 111.78"/>
        <polygon class="st86" points="147.21 62.31 101.21 36.29 55.21 62.31 101.21 87.95 147.21 62.31"/>
        <path class="st69" d="M61.53,113.74l32.76,18.27c2.42,1.35,5.46-.33,5.46-3.03v-34.86c0-3.35-1.85-6.44-4.87-8.12l-32.76-18.27c-2.42-1.35-5.46.33-5.46,3.02v34.87c0,3.35,1.85,6.44,4.87,8.12"/>
        <path class="st49" d="M140.91,113.75l-32.8,18.29c-2.43,1.35-5.47-.33-5.47-3.03v-34.9c0-3.35,1.86-6.45,4.87-8.13l32.8-18.29c2.43-1.35,5.47.33,5.47,3.03v34.9c0,3.35-1.86,6.45-4.87,8.13"/>
        <path class="st32" d="M139.66,59.2l-33.4-18.89c-3.12-1.76-6.98-1.76-10.09,0l-33.4,18.89c-2.44,1.38-2.43,4.79.02,6.16l33.44,18.64c3.09,1.72,6.9,1.72,9.99,0l33.44-18.64c2.46-1.37,2.47-4.77.02-6.16"/>
        <path class="st37" d="M107.5,62.21c0,1.72-2.73,3.12-6.09,3.12s-6.09-1.39-6.09-3.12,2.73-3.12,6.09-3.12,6.09,1.4,6.09,3.12"/>
        <path class="st37" d="M82.4,62.21c0,1.72-2.73,3.12-6.09,3.12s-6.09-1.39-6.09-3.12,2.73-3.12,6.09-3.12,6.09,1.4,6.09,3.12"/>
        <path class="st37" d="M130.3,62.21c0,1.72-2.73,3.12-6.09,3.12s-6.09-1.39-6.09-3.12,2.73-3.12,6.09-3.12,6.09,1.4,6.09,3.12"/>
        <path class="st37" d="M74.89,94.2c1.69-1,4.64.68,6.59,3.74,1.94,3.06,2.15,6.34.46,7.34-1.69,1-4.64-.68-6.58-3.74-1.95-3.06-2.15-6.35-.46-7.34"/>
        <path class="st37" d="M127.81,93.92c-1.78-1.05-4.87.71-6.92,3.92-2.04,3.21-2.26,6.66-.48,7.71,1.78,1.04,4.87-.71,6.92-3.93,2.04-3.21,2.26-6.66.48-7.71"/>
        <path class="st37" d="M114.33,88.55c-1.78-1.05-4.87.71-6.92,3.92-2.04,3.21-2.26,6.66-.48,7.71,1.78,1.05,4.87-.71,6.92-3.92,2.04-3.21,2.26-6.66.48-7.71"/>
        <path class="st37" d="M141.23,72.82c-1.78-1.04-4.87.71-6.92,3.92-2.04,3.21-2.26,6.67-.48,7.71,1.78,1.05,4.87-.71,6.92-3.92,2.04-3.21,2.26-6.66.48-7.71"/>
        <path class="st37" d="M114.33,115.77c-1.78-1.04-4.87.71-6.92,3.93-2.04,3.21-2.26,6.66-.48,7.71,1.78,1.04,4.87-.71,6.92-3.93,2.04-3.21,2.26-6.66.48-7.71"/>
        <path class="st37" d="M141.23,100.04c-1.78-1.05-4.87.71-6.92,3.92-2.04,3.21-2.26,6.66-.48,7.71,1.78,1.05,4.87-.71,6.92-3.92,2.04-3.21,2.26-6.66.48-7.71"/>
      </g>
      <g id="_x28__x2F_techno_x2F_math_x2F_shapes_x2F_level3_x2F_cube_x2F_ice_cube.mp3_x29_">
        <path class="st100" d="M146.7,278.63c-1.31-7.58-.57-16.04.21-25.29.78-9.24-.79-20.95-.79-20.95l-13.51-.11c-1.04-.14-22.27-2.01-27.6-2.39-5.34-.38-12.34,6.26-19.05,10.59-6.71,4.34-1.54,7.15-3.32,12.99-1.78,5.84.05,14.87-1.08,20.98-1.13,6.11,5.96,26.72,5.96,26.72,0,0,5.14-.62,9.83-.42,4.69.19,29.68-5.97,37-7.69,7.33-1.72,13.65-6.84,12.35-14.42"/>
        <path class="st26" d="M85.44,230.7c-1.17-.54-15.68-6.48-15.68-6.48l-9.27-1.83s-3.47,5.17-3.54,10.55c-.07,5.39.02,10.87-.2,13.99-.22,3.13.67,14.18-.77,17.2-1.43,3.02-.21,14.42-.21,14.42,0,0,13.71,7.76,18.13,14.69,4.42,6.93,13.62,7.93,13.62,7.93,0,0,1.13-21.27,1.33-26.36.2-5.08,2.52-30.6,2.52-30.6,0,0-4.77-12.97-5.93-13.51"/>
        <path class="st30" d="M60.49,222.39s15.6-3.34,23.59-2.45c7.98.89,7.23-.86,13.85-2.41,6.62-1.56,12.45-2.08,12.45-2.08,0,0,19.24,4.19,23.69,8.42,4.46,4.23,12.05,8.52,12.05,8.52,0,0-9.9,5.42-20.51,6.14-10.61.72-23.1,4.8-23.8,5.31-.7.51-10.44.37-10.44.37,0,0-19.06-10.01-21.38-11.86-2.32-1.86-9.5-9.95-9.5-9.95"/>
        <g class="st24">
          <g class="st112">
            <g class="st54">
              <path class="st37" d="M139.11,254.62c-4.39.05-6.99,3.06-9.15,6.49-4.33,6.88-8.8,12.82-16.59,16.02-3.34,1.38-7.35,1.42-10.35,3.59-2.82,2.04-3.22,5.91-1.25,8.76,2.5,3.62,6.25,3.89,10.27,3.39,4.77-.58,9.6-.69,14.02-2.82,3.6-1.73,7.06-4.3,9.28-7.66,1.45-2.2,2.49-4.84,3.14-7.4,1.31-5.14,3.2-10.53,3.67-15.84.3-3.38-1.1-4.57-3.04-4.54"/>
            </g>
          </g>
        </g>
        <g class="st24">
          <g class="st99">
            <g class="st75">
              <path class="st37" d="M84.53,258.99c1.93,2.04.78,7.45.58,10.08-.28,3.59-.67,7.35-1.9,10.75-1.05,2.89-2.84,6.31-5.86,6.87-3.39.64-7.36-2.11-9.71-4.42-1.97-1.93-5.04-5.94-3.65-9.24,1.54-3.64,7.03-4.21,9.69-2.48,2.22,1.45,3.06-3.32,3.52-4.8.6-1.92,1.32-4.01,2.67-5.48,1.06-1.14,3.38-2.64,4.65-1.3"/>
            </g>
          </g>
        </g>
        <g class="st24">
          <g class="st22">
            <g class="st63">
              <path class="st37" d="M91.27,234.46c8.6,2.33,17.43,3.32,26.24,1.58,2.81-.55,5.63-1.47,7.98-3.14,11.52-8.2-15.58-4.63-20.74-2.76-2.86,1.04-5.97.58-8.95.65-1.58.03-3.14.28-4.67.69-.51.14-3.29.79-2.55,1.78.5.67,1.95,1,2.7,1.21"/>
            </g>
          </g>
        </g>
      </g>
      <g id="_x28__x2F_techno_x2F_math_x2F_shapes_x2F_level3_x2F_cube_x2F_blocks.mp3_x29_">
        <polygon class="st94" points="507.99 248.01 507.99 281.39 484.35 289.34 484.35 253.89 502.37 249.4 507.99 248.01"/>
        <polygon class="st81" points="484.35 253.89 460.72 248.01 484.35 243.89 507.75 248.01 484.35 253.89"/>
        <polygon class="st42" points="484.35 253.89 484.35 289.34 472.42 285.32 460.72 281.39 460.72 248.01 484.35 253.89"/>
        <polygon class="st58" points="460.72 248.01 484.35 253.89 507.75 248.01 484.35 252.42 460.72 248.01"/>
        <polygon class="st58" points="471.8 246.08 484.35 243.89 499.96 246.64 484.24 245.26 471.8 246.08"/>
        <path class="st27" d="M507.99,248.01v33.38l-23.63,7.94v-1.13c2.64-2.41,5.54-4.44,7.77-7.45,2.91-3.93,5.22-8.3,6.84-12.91,1.99-5.66,3.55-12.22,3.41-18.44l5.61-1.4Z"/>
        <polygon class="st42" points="507.98 267.67 507.98 281.39 496.17 285.36 506.65 280.92 507.98 267.67"/>
        <polygon class="st42" points="484.35 253.89 507.75 248.01 486.32 254.96 484.35 289.34 484.35 253.89"/>
        <path class="st46" d="M484.35,253.89v35.45l-11.93-4.01c-.56-5.74-1.31-11.45-2.52-17.08-1.12-5.25-2.8-10.71-6.79-14.31-.75-.68-1.57-1.28-2.39-1.88v-4.04l23.63,5.88Z"/>
        <polygon class="st93" points="460.72 248.01 482.69 254.96 484.35 289.33 484.35 253.89 460.72 248.01"/>
        <polygon class="st93" points="460.72 260.59 460.72 281.39 473.43 285.36 461.99 279.65 460.72 260.59"/>
        <polygon class="st109" points="552.06 257.23 552.06 292.51 527.09 300.9 527.09 263.44 546.13 258.71 552.06 257.23"/>
        <polygon class="st105" points="527.09 263.45 502.12 257.23 527.09 252.88 551.81 257.23 527.09 263.45"/>
        <polygon class="st3" points="527.09 263.44 527.09 300.9 514.47 296.66 502.12 292.51 502.12 257.23 527.09 263.44"/>
        <polygon class="st28" points="502.12 257.23 527.09 263.45 551.81 257.23 527.09 261.89 502.12 257.23"/>
        <polygon class="st28" points="513.82 255.19 527.09 252.88 543.58 255.78 526.96 254.33 513.82 255.19"/>
        <path class="st56" d="M552.06,257.23v35.28l-24.97,8.4v-1.2c2.79-2.54,5.85-4.69,8.21-7.88,3.07-4.15,5.52-8.77,7.23-13.64,2.1-5.98,3.75-12.92,3.6-19.48l5.93-1.48Z"/>
        <polygon class="st97" points="552.06 278.01 552.06 292.51 539.57 296.71 550.65 292.01 552.06 278.01"/>
        <polygon class="st97" points="527.09 263.45 551.81 257.23 529.16 264.58 527.09 300.9 527.09 263.45"/>
        <path class="st9" d="M527.09,263.44v37.46l-12.61-4.24c-.59-6.06-1.39-12.1-2.66-18.05-1.18-5.55-2.96-11.32-7.17-15.12-.79-.72-1.65-1.35-2.52-1.98v-4.27l24.97,6.22Z"/>
        <polygon class="st74" points="502.12 257.23 525.33 264.58 527.09 300.9 527.09 263.45 502.12 257.23"/>
        <polygon class="st74" points="502.12 270.53 502.12 292.51 515.54 296.7 503.46 290.67 502.12 270.53"/>
        <polygon class="st44" points="531.62 219.84 531.62 253.22 507.98 261.17 507.98 225.72 526 221.24 531.62 219.84"/>
        <polygon class="st12" points="507.98 225.72 484.35 219.84 507.98 215.72 531.38 219.84 507.98 225.72"/>
        <polygon class="st70" points="507.98 225.72 507.98 261.17 496.05 257.16 484.35 253.22 484.35 219.84 507.98 225.72"/>
        <polygon class="st102" points="484.35 219.84 507.98 225.72 531.38 219.84 507.98 224.25 484.35 219.84"/>
        <polygon class="st102" points="495.43 217.91 507.98 215.72 523.59 218.47 507.87 217.1 495.43 217.91"/>
        <path class="st88" d="M531.62,219.84v33.38l-23.63,7.95v-1.13c2.64-2.41,5.54-4.44,7.77-7.45,2.91-3.93,5.22-8.3,6.84-12.91,1.99-5.66,3.55-12.22,3.41-18.44l5.61-1.4Z"/>
        <polygon class="st115" points="531.62 239.5 531.62 253.23 519.8 257.2 530.28 252.75 531.62 239.5"/>
        <polygon class="st115" points="507.98 225.72 531.38 219.84 509.95 226.79 507.98 261.17 507.98 225.72"/>
        <path class="st89" d="M507.98,225.72v35.45l-11.93-4.01c-.56-5.74-1.31-11.45-2.52-17.08-1.12-5.25-2.8-10.71-6.79-14.31-.75-.68-1.57-1.28-2.39-1.88v-4.04l23.63,5.88Z"/>
        <polygon class="st91" points="484.35 219.84 506.32 226.79 507.98 261.17 507.98 225.72 484.35 219.84"/>
        <polygon class="st91" points="484.35 232.42 484.35 253.22 497.06 257.2 485.63 251.48 484.35 232.42"/>
        <path class="st114" d="M474.94,258.33l2.99,20.36c.02.23.03.42,0,.57-.05.44-.45.62-1.3.46l-1.06-.19c-.69-.13-1.2-.37-1.26-.88l-.51-3.87-5.36-.83-1.29,3.43c-.16.42-.55.53-1.06.44l-.85-.15c-.88-.16-1.25-.46-1.21-.86.02-.14.08-.31.14-.5l6.95-18.18c.19-.47.7-.59,1.36-.55l1.2.06c.67.04,1.17.21,1.25.71M472.37,263.18c-.17.62-.31,1.27-.56,1.88l-1.95,5.13,3.41.45-.69-5.5c-.09-.64-.1-1.31-.12-1.95h-.09Z"/>
        <path class="st87" d="M503.37,234.12c-.27,2.27-1.9,4.09-3.72,4.72v.13c2.26.79,3.6,3.36,3.29,5.94-.5,4.33-3.15,6.38-7.87,5.53l-5.59-1.01c-.71-.13-.97-.56-.87-1.43l2.25-19.26c.1-.87.45-1.23,1.18-1.19l5.29.28c4.77.26,6.46,2.77,6.05,6.27M494.55,231.86l-.55,4.73,1.86.19c1.65.17,2.69-.81,2.85-2.18.19-1.6-.56-2.47-2.24-2.6l-1.92-.15ZM493.52,240.76l-.59,5.05,2.64.41c1.6.25,2.66-.55,2.86-2.25.2-1.7-.8-2.69-2.7-2.93l-2.21-.28Z"/>
        <path class="st111" d="M524.13,270.81c-.1.9-1.64,2.93-2.43,2.86-.38-.03-1.51-1.14-4.41-1.37-3.47-.26-5.31,1.88-5.84,6.4-.53,4.52.78,7.13,4.13,7.66,2.87.45,4.69-.56,5.17-.48,1.01.15,1.61,2.54,1.55,3.09-.23,1.94-4.78,1.9-7.19,1.46-6.39-1.17-8.84-5-7.99-12.26.82-6.99,4.3-10.3,10.74-9.96,2.69.14,6.43,1.24,6.27,2.6"/>
      </g>
      <text id="_x28__x2F_techno_x2F_math_x2F_shapes_x2F_level3_x2F_cube_x2F_ice_cube.mp3_x29_1" data-name="_x28__x2F_techno_x2F_math_x2F_shapes_x2F_level3_x2F_cube_x2F_ice_cube.mp3_x29_" class="st18" transform="translate(65.27 322.77)"><tspan x="0" y="0">Ice cube</tspan></text>
      <text id="_x28__x2F_techno_x2F_math_x2F_shapes_x2F_level3_x2F_cube_x2F_blocks.mp3_x29_1" data-name="_x28__x2F_techno_x2F_math_x2F_shapes_x2F_level3_x2F_cube_x2F_blocks.mp3_x29_" class="st17" transform="translate(482.57 322.4)"><tspan x="0" y="0">Blocks</tspan></text>
      <g id="_x28__x2F_techno_x2F_math_x2F_shapes_x2F_level3_x2F_cube_x2F_rubikscube.mp3_x29_">
        <polygon class="st53" points="477.71 87.45 477.75 87.49 490.34 100.08 521.93 68.5 532.63 59.68 511.51 59.68 477.71 87.45"/>
        <path class="st78" d="M490.34,100.39c-.08,0-.15-.03-.21-.09l-12.59-12.59c-.06-.06-.11-.16-.11-.25,0-.08.03-.18.09-.24l33.79-27.77c.05-.04.12-.07.19-.07h21.12c.13,0,.25.08.29.2.04.12,0,.26-.09.34l-10.7,8.81-31.56,31.57c-.06.06-.14.09-.22.09M478.16,87.48l12.18,12.18,31.37-31.37,10.07-8.3h-20.17l-33.45,27.49Z"/>
        <polygon class="st53" points="490.52 59.68 468.27 78.01 477.71 87.45 511.51 59.68 490.52 59.68"/>
        <path class="st78" d="M477.71,87.76c-.08,0-.16-.03-.22-.09l-9.44-9.44c-.06-.06-.09-.15-.09-.23,0-.09.04-.17.11-.22l22.25-18.33c.05-.04.12-.07.19-.07h20.98c.13,0,.24.08.29.2.04.12,0,.26-.09.34l-33.79,27.77c-.06.05-.13.07-.19.07M468.72,78.04l9.01,9.01,32.93-27.06h-20.03l-21.91,18.05Z"/>
        <polygon class="st53" points="469.46 59.68 458.76 68.5 468.23 77.97 468.27 78.01 490.52 59.68 469.46 59.68"/>
        <path class="st78" d="M468.27,78.32c-.08,0-.15-.03-.21-.09l-9.52-9.52c-.06-.06-.09-.14-.09-.23,0-.09.04-.17.11-.22l10.7-8.82c.05-.04.12-.07.19-.07h21.07c.13,0,.24.08.29.2.04.12,0,.26-.09.34l-22.25,18.33c-.05.05-.13.07-.19.07M459.2,68.52l9.09,9.08,21.38-17.62h-20.11l-10.36,8.53Z"/>
        <polygon class="st53" points="490.52 59.68 511.51 59.68 522.23 50.87 501.22 50.87 490.52 59.68"/>
        <path class="st78" d="M511.51,59.98h-20.99c-.13,0-.24-.08-.29-.2-.04-.12,0-.25.09-.34l10.69-8.81c.06-.04.12-.07.19-.07h21.01c.13,0,.25.08.29.2.04.12,0,.25-.09.34l-10.72,8.81c-.06.04-.12.07-.19.07M491.37,59.38h20.03l9.99-8.21h-20.06l-9.96,8.21Z"/>
        <polygon class="st53" points="501.22 50.87 480.15 50.87 472.12 57.49 469.46 59.68 490.52 59.68 501.22 50.87"/>
        <path class="st78" d="M490.52,59.98h-21.07c-.13,0-.24-.08-.29-.2-.04-.12,0-.25.09-.34l10.7-8.81c.05-.04.12-.07.19-.07h21.06c.13,0,.24.08.29.2.04.12,0,.26-.09.34l-10.7,8.82c-.05.04-.12.07-.19.07M470.3,59.38h20.11l9.96-8.21h-20.11l-9.96,8.21Z"/>
        <polygon class="st53" points="511.51 59.68 532.63 59.68 535.29 57.49 543.33 50.87 522.23 50.87 511.51 59.68"/>
        <path class="st78" d="M532.63,59.98h-21.12c-.13,0-.24-.08-.28-.2-.04-.12,0-.26.09-.34l10.72-8.81c.06-.04.13-.07.19-.07h21.1c.13,0,.24.08.28.2.05.12,0,.26-.09.34l-10.7,8.82c-.05.04-.12.07-.19.07M512.36,59.38h20.16l9.96-8.21h-20.14l-9.98,8.21Z"/>
        <polygon class="st53" points="522.23 50.87 532.96 42.05 511.92 42.05 501.22 50.87 522.23 50.87"/>
        <path class="st78" d="M522.23,51.17h-21.01c-.13,0-.24-.08-.28-.2-.04-.12,0-.26.09-.34l10.7-8.81c.05-.05.12-.07.19-.07h21.04c.13,0,.25.08.29.2s0,.25-.09.34l-10.73,8.81c-.05.04-.12.07-.19.07M502.06,50.56h20.06l9.98-8.21h-20.09l-9.96,8.21Z"/>
        <polygon class="st53" points="511.92 42.05 490.85 42.05 485.48 46.48 480.15 50.87 501.22 50.87 511.92 42.05"/>
        <path class="st78" d="M501.22,51.17h-21.06c-.13,0-.24-.08-.28-.2-.04-.12,0-.26.09-.34l10.7-8.81c.05-.05.12-.07.19-.07h21.06c.13,0,.24.08.28.2.04.12,0,.25-.09.34l-10.7,8.81c-.05.05-.12.07-.19.07M481,50.56h20.11l9.96-8.21h-20.11l-9.96,8.21Z"/>
        <polygon class="st53" points="532.96 42.05 522.23 50.87 543.33 50.87 548.65 46.48 554.03 42.05 532.96 42.05"/>
        <path class="st78" d="M543.33,51.17h-21.1c-.13,0-.24-.08-.28-.2-.05-.12-.01-.26.09-.34l10.73-8.82c.06-.04.13-.07.19-.07h21.07c.13,0,.24.08.28.2.05.12.01.25-.09.34l-10.7,8.81c-.06.05-.13.07-.19.07M523.08,50.56h20.14l9.96-8.21h-20.12l-9.98,8.21Z"/>
        <rect class="st107" x="458.76" y="68.5" width="21.06" height="21.06"/>
        <path class="st1" d="M479.81,89.86h-21.06c-.17,0-.31-.14-.31-.3v-21.06c0-.17.14-.31.31-.31h21.06c.17,0,.3.13.3.31v21.06c0,.17-.13.3-.3.3M459.06,89.25h20.45v-20.45h-20.45v20.45Z"/>
        <rect class="st107" x="479.81" y="68.5" width="21.06" height="21.06"/>
        <path class="st1" d="M500.87,89.86h-21.06c-.17,0-.3-.14-.3-.3v-21.06c0-.17.14-.31.3-.31h21.06c.17,0,.31.13.31.31v21.06c0,.17-.14.3-.31.3M480.12,89.25h20.45v-20.45h-20.45v20.45Z"/>
        <rect class="st107" x="479.81" y="89.55" width="21.06" height="21.06"/>
        <path class="st1" d="M500.87,110.92h-21.06c-.17,0-.3-.13-.3-.31v-21.06c0-.17.14-.3.3-.3h21.06c.17,0,.31.14.31.3v21.06c0,.17-.14.31-.31.31M480.12,110.31h20.45v-20.45h-20.45v20.45Z"/>
        <rect class="st107" x="500.87" y="68.5" width="21.06" height="21.06"/>
        <path class="st1" d="M521.93,89.86h-21.06c-.17,0-.3-.14-.3-.3v-21.06c0-.17.14-.31.3-.31h21.06c.17,0,.3.13.3.31v21.06c0,.17-.14.3-.3.3M501.18,89.25h20.45v-20.45h-20.45v20.45Z"/>
        <rect class="st107" x="500.87" y="110.61" width="21.06" height="21.06"/>
        <path class="st1" d="M521.93,131.97h-21.06c-.17,0-.3-.14-.3-.3v-21.06c0-.17.14-.3.3-.3h21.06c.17,0,.3.13.3.3v21.06c0,.17-.14.3-.3.3M501.18,131.37h20.45v-20.45h-20.45v20.45Z"/>
        <rect class="st107" x="500.87" y="89.55" width="21.06" height="21.06"/>
        <path class="st1" d="M521.93,110.92h-21.06c-.17,0-.3-.13-.3-.31v-21.06c0-.17.14-.3.3-.3h21.06c.17,0,.3.14.3.3v21.06c0,.17-.14.31-.3.31M501.18,110.31h20.45v-20.45h-20.45v20.45Z"/>
        <rect class="st107" x="479.81" y="110.61" width="21.06" height="21.06"/>
        <path class="st1" d="M500.87,131.97h-21.06c-.17,0-.3-.14-.3-.3v-21.06c0-.17.14-.3.3-.3h21.06c.17,0,.31.13.31.3v21.06c0,.17-.14.3-.31.3M480.12,131.37h20.45v-20.45h-20.45v20.45Z"/>
        <rect class="st107" x="458.76" y="110.61" width="21.06" height="21.06"/>
        <path class="st1" d="M479.81,131.97h-21.06c-.17,0-.31-.14-.31-.3v-21.06c0-.17.14-.3.31-.3h21.06c.17,0,.3.13.3.3v21.06c0,.17-.13.3-.3.3M459.06,131.37h20.45v-20.45h-20.45v20.45Z"/>
        <rect class="st107" x="458.76" y="89.55" width="21.06" height="21.06"/>
        <path class="st1" d="M479.81,110.92h-21.06c-.17,0-.31-.13-.31-.31v-21.06c0-.17.14-.3.31-.3h21.06c.17,0,.3.14.3.3v21.06c0,.17-.13.31-.3.31M459.06,110.31h20.45v-20.45h-20.45v20.45Z"/>
        <polygon class="st10" points="532.63 80.74 521.93 89.56 521.93 110.6 532.63 101.78 532.63 80.74"/>
        <path class="st21" d="M521.93,110.9s-.09-.01-.13-.03c-.1-.05-.17-.16-.17-.28v-21.04c0-.09.04-.18.11-.23l10.7-8.81c.09-.07.22-.09.32-.04.11.05.17.16.17.27v21.04c0,.09-.04.18-.11.23l-10.7,8.81c-.05.05-.13.07-.19.07M522.23,89.7v20.25l10.09-8.32v-20.25l-10.09,8.32Z"/>
        <polygon class="st10" points="532.63 59.68 521.93 68.5 521.93 89.56 532.63 80.74 532.63 59.68"/>
        <path class="st21" d="M521.93,89.86s-.09,0-.13-.03c-.1-.05-.17-.16-.17-.27v-21.06c0-.09.04-.18.11-.23l10.7-8.82c.09-.07.22-.09.32-.04.11.05.17.16.17.27v21.06c0,.09-.04.18-.11.23l-10.7,8.82c-.05.04-.13.07-.19.07M522.23,68.64v20.27l10.09-8.31v-20.27l-10.09,8.31Z"/>
        <polygon class="st10" points="521.93 110.6 521.93 131.67 532.63 122.86 532.63 101.78 521.93 110.6"/>
        <path class="st21" d="M521.93,131.97s-.09-.01-.13-.03c-.1-.05-.17-.16-.17-.27v-21.08c0-.09.04-.18.11-.23l10.7-8.82c.09-.07.22-.09.32-.04.11.05.17.16.17.28v21.08c0,.09-.04.18-.11.23l-10.7,8.82c-.05.04-.13.07-.19.07M522.23,110.74v20.29l10.09-8.31v-20.29l-10.09,8.32Z"/>
        <polygon class="st10" points="543.33 71.93 543.33 50.87 535.29 57.49 532.63 59.68 532.63 80.74 543.33 71.93"/>
        <path class="st21" d="M532.63,81.04s-.09,0-.13-.03c-.11-.05-.17-.16-.17-.27v-21.06c0-.09.04-.18.11-.23l10.7-8.81c.09-.08.21-.09.32-.04.1.05.17.16.17.27v21.06c0,.09-.04.18-.11.23l-10.7,8.81c-.06.04-.12.07-.19.07M532.93,59.82v20.28l10.09-8.31v-20.28l-10.09,8.31Z"/>
        <polygon class="st10" points="532.63 101.78 543.33 92.96 543.33 71.93 532.63 80.74 532.63 101.78"/>
        <path class="st21" d="M532.63,102.08s-.09-.01-.13-.02c-.11-.05-.17-.16-.17-.28v-21.04c0-.09.04-.18.11-.23l10.7-8.81c.09-.07.21-.09.32-.04.1.05.17.16.17.27v21.03c0,.1-.04.18-.11.24l-10.7,8.81c-.06.05-.12.07-.19.07M532.93,80.89v20.25l10.09-8.32v-20.25l-10.09,8.32Z"/>
        <polygon class="st10" points="532.63 101.78 532.63 122.86 535.29 120.66 543.33 114.04 543.33 92.96 532.63 101.78"/>
        <path class="st21" d="M532.63,123.16s-.09-.01-.13-.02c-.11-.05-.17-.16-.17-.28v-21.08c0-.09.04-.18.11-.23l10.7-8.82c.09-.07.21-.09.32-.04.1.05.17.16.17.27v21.08c0,.09-.04.18-.11.23l-10.7,8.82c-.06.05-.12.07-.19.07M532.93,101.92v20.29l10.09-8.32v-20.29l-10.09,8.31Z"/>
        <polygon class="st10" points="554.03 63.11 554.03 42.05 548.65 46.48 543.33 50.87 543.33 71.93 554.03 63.11"/>
        <path class="st21" d="M543.33,72.23s-.09-.01-.13-.03c-.1-.05-.17-.16-.17-.27v-21.06c0-.09.04-.18.11-.23l10.7-8.81c.09-.08.21-.09.32-.04.11.05.17.16.17.27v21.06c0,.09-.04.18-.11.23l-10.7,8.82c-.06.04-.13.07-.19.07M543.63,51.01v20.27l10.09-8.31v-20.27l-10.09,8.31Z"/>
        <polygon class="st10" points="543.33 71.93 543.33 92.96 554.03 84.15 554.03 63.11 543.33 71.93"/>
        <path class="st21" d="M543.33,93.27s-.09,0-.13-.03c-.1-.05-.17-.16-.17-.28v-21.03c0-.09.04-.18.11-.23l10.7-8.81c.09-.08.21-.09.32-.04.11.05.17.16.17.27v21.04c0,.09-.04.18-.11.23l-10.7,8.81c-.06.05-.13.07-.19.07M543.63,72.07v20.25l10.09-8.32v-20.25l-10.09,8.32Z"/>
        <polygon class="st10" points="543.33 114.04 548.65 109.66 554.03 105.23 554.03 84.15 543.33 92.96 543.33 114.04"/>
        <path class="st21" d="M543.33,114.34s-.09,0-.13-.02c-.1-.05-.17-.16-.17-.28v-21.08c0-.09.04-.18.11-.23l10.7-8.81c.09-.08.21-.09.32-.04.11.05.17.16.17.27v21.08c0,.09-.04.17-.11.23l-10.7,8.81c-.06.05-.13.07-.19.07M543.63,93.11v20.29l10.09-8.31v-20.29l-10.09,8.31Z"/>
        <g class="st83">
          <g class="st6">
            <g class="st7">
              <polygon class="st57" points="531.74 61.51 522.86 68.94 522.86 87.82 523.77 69.32 531.74 61.51"/>
            </g>
          </g>
        </g>
        <g class="st83">
          <g class="st68">
            <g class="st31">
              <polygon class="st57" points="531.96 82.55 522.86 90.16 522.86 109.04 523.77 90.54 531.96 82.55"/>
            </g>
          </g>
        </g>
        <g class="st83">
          <g class="st33">
            <g class="st45">
              <polygon class="st57" points="531.96 103.53 522.86 111.27 522.86 130.16 523.77 111.65 531.96 103.53"/>
            </g>
          </g>
        </g>
        <g class="st83">
          <g class="st79">
            <g class="st108">
              <polygon class="st53" points="503.36 67.65 511.95 60.56 528.77 60.52 512.12 61.25 503.36 67.65"/>
            </g>
          </g>
        </g>
        <g class="st83">
          <g class="st82">
            <g class="st13">
              <polygon class="st53" points="482.06 67.65 490.65 60.56 507.47 60.52 490.82 61.25 482.06 67.65"/>
            </g>
          </g>
        </g>
        <g class="st83">
          <g class="st98">
            <g class="st8">
              <polygon class="st53" points="461.29 67.65 469.88 60.56 486.7 60.52 470.05 61.25 461.29 67.65"/>
            </g>
          </g>
        </g>
        <g class="st83">
          <g class="st19">
            <g class="st85">
              <polygon class="st53" points="513.92 58.84 522.51 51.74 539.33 51.71 522.68 52.44 513.92 58.84"/>
            </g>
          </g>
        </g>
        <g class="st83">
          <g class="st65">
            <g class="st5">
              <polygon class="st53" points="493.02 58.84 501.61 51.74 518.44 51.71 501.78 52.44 493.02 58.84"/>
            </g>
          </g>
        </g>
        <g class="st83">
          <g class="st23">
            <g class="st25">
              <polygon class="st53" points="471.85 58.84 480.44 51.74 497.26 51.71 480.61 52.44 471.85 58.84"/>
            </g>
          </g>
        </g>
        <g class="st83">
          <g class="st110">
            <g class="st41">
              <polygon class="st36" points="459.76 86.05 459.76 69.32 477.39 69.32 460.38 70.08 459.76 86.05"/>
            </g>
          </g>
        </g>
        <g class="st83">
          <g class="st77">
            <g class="st43">
              <polygon class="st36" points="459.76 107.54 459.76 90.8 477.39 90.8 460.38 91.56 459.76 107.54"/>
            </g>
          </g>
        </g>
        <g class="st83">
          <g class="st52">
            <g class="st101">
              <polygon class="st36" points="459.76 129.03 459.76 112.3 477.39 112.3 460.38 113.05 459.76 129.03"/>
            </g>
          </g>
        </g>
        <g class="st83">
          <g class="st84">
            <g class="st11">
              <polygon class="st36" points="481.19 86.05 481.19 69.32 498.82 69.32 481.8 70.08 481.19 86.05"/>
            </g>
          </g>
        </g>
        <g class="st83">
          <g class="st90">
            <g class="st14">
              <polygon class="st36" points="481.19 107.54 481.19 90.8 498.82 90.8 481.8 91.56 481.19 107.54"/>
            </g>
          </g>
        </g>
        <g class="st83">
          <g class="st2">
            <g class="st50">
              <polygon class="st36" points="481.19 129.03 481.19 112.3 498.82 112.3 481.8 113.05 481.19 129.03"/>
            </g>
          </g>
        </g>
        <g class="st83">
          <g class="st48">
            <g class="st104">
              <polygon class="st36" points="502.09 86.05 502.09 69.32 519.72 69.32 502.7 70.08 502.09 86.05"/>
            </g>
          </g>
        </g>
        <g class="st83">
          <g class="st4">
            <g class="st96">
              <polygon class="st36" points="502.09 107.54 502.09 90.8 519.72 90.8 502.7 91.56 502.09 107.54"/>
            </g>
          </g>
        </g>
        <g class="st83">
          <g class="st62">
            <g class="st73">
              <polygon class="st36" points="502.09 129.03 502.09 112.3 519.72 112.3 502.7 113.05 502.09 129.03"/>
            </g>
          </g>
        </g>
        <g class="st83">
          <g class="st34">
            <g class="st38">
              <polygon class="st57" points="542.46 52.94 533.58 60.36 533.58 79.24 534.49 60.74 542.46 52.94"/>
            </g>
          </g>
        </g>
        <g class="st83">
          <g class="st113">
            <g class="st59">
              <polygon class="st57" points="542.68 73.97 533.58 81.58 533.58 100.47 534.49 81.96 542.68 73.97"/>
            </g>
          </g>
        </g>
        <g class="st83">
          <g class="st61">
            <g class="st20">
              <polygon class="st57" points="542.68 94.95 533.58 102.69 533.58 120.66 534.49 103.07 542.68 94.95"/>
            </g>
          </g>
        </g>
        <g class="st83">
          <g class="st51">
            <g class="st103">
              <polygon class="st57" points="553.01 44.18 544.13 51.6 544.13 70.48 545.04 51.98 553.01 44.18"/>
            </g>
          </g>
        </g>
        <g class="st83">
          <g class="st80">
            <g class="st0">
              <polygon class="st57" points="553.23 65.21 544.13 72.82 544.13 91.7 545.04 73.2 553.23 65.21"/>
            </g>
          </g>
        </g>
        <g class="st83">
          <g class="st72">
            <g class="st95">
              <polygon class="st57" points="553.23 86.19 544.13 93.93 544.13 111.9 545.04 94.31 553.23 86.19"/>
            </g>
          </g>
        </g>
        <g class="st83">
          <g class="st29">
            <g class="st92">
              <polygon class="st53" points="524.64 50.02 533.23 42.93 550.05 42.9 533.4 43.63 524.64 50.02"/>
            </g>
          </g>
        </g>
        <g class="st83">
          <g class="st55">
            <g class="st47">
              <polygon class="st53" points="503.74 50.02 512.33 42.93 529.15 42.9 512.5 43.63 503.74 50.02"/>
            </g>
          </g>
        </g>
        <g class="st83">
          <g class="st106">
            <g class="st35">
              <polygon class="st53" points="482.57 50.02 491.16 42.93 507.98 42.9 491.32 43.63 482.57 50.02"/>
            </g>
          </g>
        </g>
      </g>
      <text id="_x28__x2F_techno_x2F_math_x2F_shapes_x2F_level3_x2F_cube_x2F_rubikscube.mp3_x29_1" data-name="_x28__x2F_techno_x2F_math_x2F_shapes_x2F_level3_x2F_cube_x2F_rubikscube.mp3_x29_" class="st16" transform="translate(457.51 165.31)"><tspan x="0" y="0" xml:space="preserve">Rubik’s  cube</tspan></text>
      <text id="_x28__x2F_techno_x2F_math_x2F_shapes_x2F_level3_x2F_cube_x2F_cube.mp3_x29_1" data-name="_x28__x2F_techno_x2F_math_x2F_shapes_x2F_level3_x2F_cube_x2F_cube.mp3_x29_" class="st66" transform="translate(286.34 252.4)"><tspan x="0" y="0">Cube</tspan></text>
    </g>
  </g>
</svg>