<?xml version="1.0" encoding="UTF-8"?>
<svg id="Layer_1" xmlns="http://www.w3.org/2000/svg" version="1.1" viewBox="0 0 623.62 340.16">
  <!-- Generator: Adobe Illustrator 29.1.0, SVG Export Plug-In . SVG Version: 2.1.0 Build 142)  -->
  <defs>
    <style>
      .st0 {
        fill: #f4d1c1;
      }

      .st0, .st1, .st2, .st3, .st4, .st5, .st6, .st7, .st8, .st9 {
        stroke: #a67d4f;
        stroke-miterlimit: 10;
        stroke-width: 1.7px;
      }

      .st1 {
        fill: #c1f4df;
      }

      .st2 {
        fill: #f4c3f3;
      }

      .st3 {
        fill: #ccb3f4;
      }

      .st4 {
        fill: #f2edc7;
      }

      .st10 {
        font-family: MyriadPro-Semibold, 'Myriad Pro';
        font-size: 8px;
        font-weight: 600;
      }

      .st5 {
        fill: #bbe1ea;
      }

      .st6 {
        fill: #b0f4f4;
      }

      .st7 {
        fill: #efa0a0;
      }

      .st8 {
        fill: #7ac943;
      }

      .st9 {
        fill: #c1f4c5;
      }
    </style>
  </defs>
  <g id="_x28__x2F_techno_x2F_math_x2F_Numbers_x2F_Level4_x2F_21voice.mp3_x29_">
    <rect class="st6" x="152.07" y="15.63" width="53.21" height="30.87" rx="9.78" ry="9.78"/>
    <text class="st10" transform="translate(176.11 27.34)"><tspan x="0" y="0"> </tspan><tspan x="-19.46" y="11">Twenty one</tspan></text>
    <text class="st10" transform="translate(170.42 27.65)"><tspan x="0" y="0">21</tspan></text>
  </g>
  <g id="_x28__x2F_techno_x2F_math_x2F_Numbers_x2F_Level4_x2F_22voice.mp3_x29_">
    <rect class="st1" x="152.07" y="46.5" width="53.21" height="30.87" rx="9.78" ry="9.78" transform="translate(357.35 123.87) rotate(-180)"/>
    <text class="st10" transform="translate(176.58 58.37)"><tspan x="0" y="0"> </tspan><tspan x="-19.51" y="11">Twenty two</tspan></text>
    <text class="st10" transform="translate(170.51 58.26)"><tspan x="0" y="0">22</tspan></text>
  </g>
  <g id="_x28__x2F_techno_x2F_math_x2F_Numbers_x2F_Level4_x2F_23voice.mp3_x29_">
    <rect class="st6" x="152.07" y="77.37" width="53.21" height="30.87" rx="9.78" ry="9.78"/>
    <text></text>
    <text class="st10" transform="translate(154.89 100.27)"><tspan x="0" y="0">Twenty three</tspan></text>
    <text class="st10" transform="translate(170.3 89.59)"><tspan x="0" y="0">23 </tspan></text>
  </g>
  <g id="_x28__x2F_techno_x2F_math_x2F_Numbers_x2F_Level4_x2F_24voice.mp3_x29_">
    <rect class="st1" x="152.07" y="108.25" width="53.21" height="30.87" rx="9.78" ry="9.78" transform="translate(357.35 247.37) rotate(-180)"/>
    <text class="st10" transform="translate(176.76 120.64)"><tspan x="0" y="0"> </tspan><tspan x="-20.08" y="11">Twenty four</tspan></text>
    <text class="st10" transform="translate(170.42 120.65)"><tspan x="0" y="0">24</tspan></text>
  </g>
  <g id="_x28__x2F_techno_x2F_math_x2F_Numbers_x2F_Level4_x2F_25voice.mp3_x29_">
    <rect class="st6" x="152.07" y="139.12" width="53.21" height="30.87" rx="9.78" ry="9.78"/>
    <text></text>
    <text class="st10" transform="translate(157.44 162.53)"><tspan x="0" y="0">Twenty five</tspan></text>
    <text class="st10" transform="translate(170.47 151.26)"><tspan x="0" y="0">25 </tspan></text>
  </g>
  <g id="_x28__x2F_techno_x2F_math_x2F_Numbers_x2F_Level4_x2F_26voice.mp3_x29_">
    <rect class="st1" x="152.07" y="169.99" width="53.21" height="30.87" rx="9.78" ry="9.78" transform="translate(357.35 370.86) rotate(-180)"/>
    <text></text>
    <text class="st10" transform="translate(158.46 193.75)"><tspan x="0" y="0">Twenty six</tspan></text>
    <text class="st10" transform="translate(170.39 182.59)"><tspan x="0" y="0">26 </tspan></text>
  </g>
  <g id="_x28__x2F_techno_x2F_math_x2F_Numbers_x2F_Level4_x2F_27voice.mp3_x29_">
    <g>
      <rect class="st6" x="152.07" y="200.86" width="53.21" height="30.87" rx="9.78" ry="9.78"/>
      <text></text>
      <text class="st10" transform="translate(153.67 224.51)"><tspan x="0" y="0">Twenty seven</tspan></text>
    </g>
    <text class="st10" transform="translate(170.47 213.65)"><tspan x="0" y="0">27 </tspan></text>
  </g>
  <g id="_x28__x2F_techno_x2F_math_x2F_Numbers_x2F_Level4_x2F_28voice.mp3_x29_">
    <rect class="st1" x="152.07" y="231.74" width="53.21" height="30.87" rx="9.78" ry="9.78" transform="translate(357.35 494.35) rotate(-180)"/>
    <text class="st10" transform="translate(176.73 243.1)"><tspan x="0" y="0"> </tspan><tspan x="-21.92" y="11">Twenty eight</tspan></text>
    <text class="st10" transform="translate(170.59 243.29)"><tspan x="0" y="0">28</tspan></text>
  </g>
  <g id="_x28__x2F_techno_x2F_math_x2F_Numbers_x2F_Level4_x2F_29voice.mp3_x29_">
    <rect class="st6" x="152.07" y="262.61" width="53.21" height="30.87" rx="9.78" ry="9.78"/>
    <text></text>
    <text class="st10" transform="translate(156.47 286.01)"><tspan x="0" y="0">Twenty nine</tspan></text>
    <text class="st10" transform="translate(170.39 275.5)"><tspan x="0" y="0">29 </tspan></text>
  </g>
  <g id="_x28__x2F_techno_x2F_math_x2F_Numbers_x2F_Level4_x2F_30voice.mp3_x29_">
    <rect class="st1" x="152.07" y="293.48" width="53.21" height="30.87" rx="9.78" ry="9.78" transform="translate(357.35 617.84) rotate(-180)"/>
    <text></text>
    <text class="st10" transform="translate(165.43 317.22)"><tspan x="0" y="0">Thirty</tspan></text>
    <text class="st10" transform="translate(170.33 306.21)"><tspan x="0" y="0">30</tspan></text>
  </g>
  <g id="_x28__x2F_techno_x2F_math_x2F_Numbers_x2F_Level4_x2F_31voice.mp3_x29_">
    <rect class="st1" x="206.54" y="15.64" width="53.21" height="30.87" rx="9.78" ry="9.78"/>
    <text class="st10" transform="translate(231.82 27.43)"><tspan x="0" y="0"> </tspan><tspan x="-16.85" y="11">Thirty one</tspan></text>
    <text class="st10" transform="translate(225.12 27.82)"><tspan x="0" y="0">31</tspan></text>
  </g>
  <g id="_x28__x2F_techno_x2F_math_x2F_Numbers_x2F_Level4_x2F_32voice.mp3_x29_">
    <rect class="st6" x="206.54" y="46.51" width="53.21" height="30.87" rx="9.78" ry="9.78" transform="translate(466.29 123.9) rotate(-180)"/>
    <text class="st10" transform="translate(228.99 58.1)"><tspan x="0" y="0"> </tspan><tspan x="-16.9" y="11">Thirty two</tspan></text>
    <text class="st10" transform="translate(225.12 58.18)"><tspan x="0" y="0">32</tspan></text>
  </g>
  <g id="_x28__x2F_techno_x2F_math_x2F_Numbers_x2F_Level4_x2F_33voice.mp3_x29_">
    <rect class="st1" x="206.54" y="77.39" width="53.21" height="30.87" rx="9.78" ry="9.78"/>
    <text class="st10" transform="translate(230.7 89.7)"><tspan x="0" y="0"> </tspan><tspan x="-19.48" y="11">Thirty three</tspan></text>
    <text class="st10" transform="translate(225.36 89.59)"><tspan x="0" y="0">33</tspan></text>
  </g>
  <g id="_x28__x2F_techno_x2F_math_x2F_Numbers_x2F_Level4_x2F_34voice.mp3_x29_">
    <rect class="st6" x="206.54" y="108.26" width="53.21" height="30.87" rx="9.78" ry="9.78" transform="translate(466.29 247.39) rotate(-180)"/>
    <text class="st10" transform="translate(230.23 120.61)"><tspan x="0" y="0"> </tspan><tspan x="-17.47" y="11">Thirty four</tspan></text>
    <text class="st10" transform="translate(225.21 120.65)"><tspan x="0" y="0">34</tspan></text>
  </g>
  <g id="_x28__x2F_techno_x2F_math_x2F_Numbers_x2F_Level4_x2F_35voice.mp3_x29_">
    <rect class="st1" x="206.54" y="139.13" width="53.21" height="30.87" rx="9.78" ry="9.78"/>
    <text class="st10" transform="translate(230.93 151.05)"><tspan x="0" y="0"> </tspan><tspan x="-16.57" y="11">Thirty five</tspan></text>
    <text class="st10" transform="translate(225.12 151.44)"><tspan x="0" y="0">35</tspan></text>
  </g>
  <g id="_x28__x2F_techno_x2F_math_x2F_Numbers_x2F_Level4_x2F_36voice.mp3_x29_">
    <rect class="st6" x="206.54" y="170.01" width="53.21" height="30.87" rx="9.78" ry="9.78" transform="translate(466.29 370.88) rotate(-180)"/>
    <text></text>
    <text class="st10" transform="translate(215.36 193.66)"><tspan x="0" y="0">Thirty six</tspan></text>
    <text class="st10" transform="translate(225.36 182.85)"><tspan x="0" y="0">36 </tspan></text>
  </g>
  <g id="_x28__x2F_techno_x2F_math_x2F_Numbers_x2F_Level4_x2F_37voice.mp3_x29_">
    <rect class="st1" x="206.54" y="200.88" width="53.21" height="30.87" rx="9.78" ry="9.78"/>
    <text class="st10" transform="translate(231.08 213.7)"><tspan x="0" y="0"> </tspan><tspan x="-20.36" y="11">Thirty seven</tspan></text>
    <text class="st10" transform="translate(225.3 213.56)"><tspan x="0" y="0">37</tspan></text>
  </g>
  <g id="_x28__x2F_techno_x2F_math_x2F_Numbers_x2F_Level4_x2F_38voice.mp3_x29_">
    <rect class="st6" x="206.54" y="231.75" width="53.21" height="30.87" rx="9.78" ry="9.78" transform="translate(466.29 494.37) rotate(-180)"/>
    <text></text>
    <text class="st10" transform="translate(212.14 253.92)"><tspan x="0" y="0">Thirty eight</tspan></text>
    <text class="st10" transform="translate(225.09 243.21)"><tspan x="0" y="0">38 </tspan></text>
  </g>
  <g id="_x28__x2F_techno_x2F_math_x2F_Numbers_x2F_Level4_x2F_39voice.mp3_x29_">
    <rect class="st1" x="206.54" y="262.62" width="53.21" height="30.87" rx="9.78" ry="9.78"/>
    <text></text>
    <text class="st10" transform="translate(213.66 286.11)"><tspan x="0" y="0">Thirty nine</tspan></text>
    <text class="st10" transform="translate(225.21 275.24)"><tspan x="0" y="0">39</tspan></text>
  </g>
  <g id="_x28__x2F_techno_x2F_math_x2F_Numbers_x2F_Level4_x2F_40voice.mp3_x29_">
    <rect class="st6" x="206.54" y="293.5" width="53.21" height="30.87" rx="9.78" ry="9.78" transform="translate(466.29 617.87) rotate(-180)"/>
    <text></text>
    <text class="st10" transform="translate(221.37 316.95)"><tspan x="0" y="0">Forty </tspan></text>
    <text class="st10" transform="translate(225.45 306.47)"><tspan x="0" y="0">40 </tspan></text>
  </g>
  <g id="_x28__x2F_techno_x2F_math_x2F_Numbers_x2F_Level4_x2F_45voice.mp3_x29_">
    <rect class="st3" x="259.96" y="139.37" width="53.21" height="30.87" rx="9.78" ry="9.78"/>
    <text class="st10" transform="translate(280.3 151.27)"><tspan x="0" y="0">45 </tspan><tspan x="-11.16" y="11">Forty five</tspan></text>
  </g>
  <g id="_x28__x2F_techno_x2F_math_x2F_Numbers_x2F_Level4_x2F_46voice.mp3_x29_">
    <rect class="st9" x="259.96" y="170.24" width="53.21" height="30.87" rx="9.78" ry="9.78" transform="translate(573.12 371.36) rotate(-180)"/>
    <text class="st10" transform="translate(279.95 182.48)"><tspan x="0" y="0">46 </tspan><tspan x="-9.5" y="11">Forty six</tspan></text>
  </g>
  <g id="_x28__x2F_techno_x2F_math_x2F_Numbers_x2F_Level4_x2F_41voice.mp3_x29_">
    <rect class="st3" x="259.96" y="15.88" width="53.21" height="30.87" rx="9.78" ry="9.78"/>
    <text></text>
    <text class="st10" transform="translate(268.89 38.44)"><tspan x="0" y="0">Forty one</tspan></text>
    <text class="st10" transform="translate(279.97 27.65)"><tspan x="0" y="0">41 </tspan></text>
  </g>
  <g id="_x28__x2F_techno_x2F_math_x2F_Numbers_x2F_Level4_x2F_42voice.mp3_x29_">
    <rect class="st9" x="259.96" y="46.75" width="53.21" height="30.87" rx="9.78" ry="9.78" transform="translate(573.12 124.37) rotate(-180)"/>
    <text class="st10" transform="translate(284.4 58.47)"><tspan x="0" y="0"> </tspan><tspan x="-15.78" y="11">Forty two</tspan></text>
    <text class="st10" transform="translate(279.92 58.09)"><tspan x="0" y="0">42</tspan></text>
  </g>
  <g id="_x28__x2F_techno_x2F_math_x2F_Numbers_x2F_Level4_x2F_44voice.mp3_x29_">
    <rect class="st9" x="259.96" y="108.5" width="53.21" height="30.87" rx="9.78" ry="9.78" transform="translate(573.12 247.87) rotate(-180)"/>
    <text class="st10" transform="translate(284.76 120.74)"><tspan x="0" y="0"> </tspan><tspan x="-16.35" y="11">Forty four</tspan></text>
    <text class="st10" transform="translate(280.01 120.65)"><tspan x="0" y="0">44</tspan></text>
  </g>
  <g id="_x28__x2F_techno_x2F_math_x2F_Numbers_x2F_Level4_x2F_43voice.mp3_x29_">
    <rect class="st3" x="259.96" y="77.62" width="53.21" height="30.87" rx="9.78" ry="9.78"/>
    <text></text>
    <text class="st10" transform="translate(267.32 100.19)"><tspan x="0" y="0">Forty three</tspan></text>
    <text class="st10" transform="translate(279.97 89.68)"><tspan x="0" y="0">43 </tspan></text>
  </g>
  <g id="_x28__x2F_techno_x2F_math_x2F_Numbers_x2F_Level4_x2F_47voice.mp3_x29_">
    <rect class="st3" x="259.96" y="201.11" width="53.21" height="30.87" rx="9.78" ry="9.78"/>
    <text class="st10" transform="translate(285.82 213.55)"><tspan x="0" y="0"> </tspan><tspan x="-19.24" y="11">Forty seven</tspan></text>
    <text class="st10" transform="translate(280.01 213.38)"><tspan x="0" y="0">47</tspan></text>
  </g>
  <g id="_x28__x2F_techno_x2F_math_x2F_Numbers_x2F_Level4_x2F_48voice.mp3_x29_">
    <rect class="st9" x="259.96" y="231.99" width="53.21" height="30.87" rx="9.78" ry="9.78" transform="translate(573.12 494.85) rotate(-180)"/>
    <text></text>
    <text class="st10" transform="translate(266.67 254.16)"><tspan x="0" y="0">Forty eight</tspan></text>
    <text class="st10" transform="translate(280.08 242.99)"><tspan x="0" y="0">48 </tspan></text>
  </g>
  <g id="_x28__x2F_techno_x2F_math_x2F_Numbers_x2F_Level4_x2F_49voice.mp3_x29_">
    <rect class="st3" x="259.96" y="262.86" width="53.21" height="30.87" rx="9.78" ry="9.78"/>
    <text></text>
    <text class="st10" transform="translate(267.31 286.1)"><tspan x="0" y="0">Forty nine</tspan></text>
    <text class="st10" transform="translate(280.06 275.5)"><tspan x="0" y="0">49 </tspan></text>
  </g>
  <g id="_x28__x2F_techno_x2F_math_x2F_Numbers_x2F_Level4_x2F_50voice.mp3_x29_">
    <rect class="st9" x="259.96" y="293.73" width="53.21" height="30.87" rx="9.78" ry="9.78" transform="translate(573.12 618.34) rotate(-180)"/>
    <text class="st10" transform="translate(282.55 306.13)"><tspan x="0" y="0"> </tspan><tspan x="-6.91" y="11">Fifty</tspan></text>
    <text class="st10" transform="translate(279.65 306.29)"><tspan x="0" y="0">50</tspan></text>
  </g>
  <g id="_x28__x2F_techno_x2F_math_x2F_Numbers_x2F_Level4_x2F_51voice.mp3_x29_">
    <rect class="st9" x="314.31" y="15.72" width="53.21" height="30.87" rx="9.78" ry="9.78"/>
    <text></text>
    <text class="st10" transform="translate(325.24 38.59)"><tspan x="0" y="0">Fifty one</tspan></text>
    <text class="st10" transform="translate(334.01 27.82)"><tspan x="0" y="0">51</tspan></text>
  </g>
  <g id="_x28__x2F_techno_x2F_math_x2F_Numbers_x2F_Level4_x2F_52voice.mp3_x29_">
    <rect class="st3" x="314.31" y="46.59" width="53.21" height="30.87" rx="9.78" ry="9.78" transform="translate(681.82 124.05) rotate(-180)"/>
    <text></text>
    <text class="st10" transform="translate(322.96 69.59)"><tspan x="0" y="0" xml:space="preserve"> Fifty two</tspan></text>
    <text class="st10" transform="translate(334.18 58)"><tspan x="0" y="0">52</tspan></text>
  </g>
  <g id="_x28__x2F_techno_x2F_math_x2F_Numbers_x2F_Level4_x2F_53voice.mp3_x29_">
    <rect class="st9" x="314.31" y="77.46" width="53.21" height="30.87" rx="9.78" ry="9.78"/>
    <text></text>
    <text class="st10" transform="translate(321.97 100.37)"><tspan x="0" y="0">Fifty three</tspan></text>
    <text class="st10" transform="translate(334.06 89.71)"><tspan x="0" y="0">53</tspan></text>
  </g>
  <g id="_x28__x2F_techno_x2F_math_x2F_Numbers_x2F_Level4_x2F_54voice.mp3_x29_">
    <rect class="st3" x="314.31" y="108.34" width="53.21" height="30.87" rx="9.78" ry="9.78" transform="translate(681.82 247.54) rotate(-180)"/>
    <text></text>
    <text class="st10" transform="translate(322.91 131.48)"><tspan x="0" y="0" xml:space="preserve"> Fifty four</tspan></text>
    <text class="st10" transform="translate(333.83 120.76)"><tspan x="0" y="0">54</tspan></text>
  </g>
  <g id="_x28__x2F_techno_x2F_math_x2F_Numbers_x2F_Level4_x2F_55voice.mp3_x29_">
    <rect class="st9" x="314.31" y="139.21" width="53.21" height="30.87" rx="9.78" ry="9.78"/>
    <text></text>
    <text class="st10" transform="translate(323.46 161.9)"><tspan x="0" y="0" xml:space="preserve"> Fifty five</tspan></text>
    <text class="st10" transform="translate(334.06 151.35)"><tspan x="0" y="0">55 </tspan></text>
  </g>
  <g id="_x28__x2F_techno_x2F_math_x2F_Numbers_x2F_Level4_x2F_56voice.mp3_x29_">
    <rect class="st3" x="314.31" y="170.08" width="53.21" height="30.87" rx="9.78" ry="9.78" transform="translate(681.82 371.04) rotate(-180)"/>
    <text></text>
    <text class="st10" transform="translate(324.76 193.54)"><tspan x="0" y="0" xml:space="preserve"> Fifty six</tspan></text>
    <text class="st10" transform="translate(333.94 182.76)"><tspan x="0" y="0">56 </tspan></text>
  </g>
  <g id="_x28__x2F_techno_x2F_math_x2F_Numbers_x2F_Level4_x2F_57voice.mp3_x29_">
    <rect class="st9" x="314.31" y="200.95" width="53.21" height="30.87" rx="9.78" ry="9.78"/>
    <text></text>
    <text class="st10" transform="translate(319.92 224.68)"><tspan x="0" y="0" xml:space="preserve"> Fifty seven</tspan></text>
    <text class="st10" transform="translate(333.95 213.59)"><tspan x="0" y="0">57</tspan></text>
  </g>
  <g id="_x28__x2F_techno_x2F_math_x2F_Numbers_x2F_Level4_x2F_58voice.mp3_x29_">
    <rect class="st3" x="314.31" y="231.83" width="53.21" height="30.87" rx="9.78" ry="9.78" transform="translate(681.82 494.53) rotate(-180)"/>
    <text></text>
    <text class="st10" transform="translate(321.08 254.2)"><tspan x="0" y="0" xml:space="preserve"> Fifty eight</tspan></text>
    <text class="st10" transform="translate(334.06 243)"><tspan x="0" y="0">58 </tspan></text>
  </g>
  <g id="_x28__x2F_techno_x2F_math_x2F_Numbers_x2F_Level4_x2F_59voice.mp3_x29_">
    <rect class="st9" x="314.31" y="262.7" width="53.21" height="30.87" rx="9.78" ry="9.78"/>
    <text></text>
    <text class="st10" transform="translate(322.48 286.05)"><tspan x="0" y="0" xml:space="preserve"> Fifty nine</tspan></text>
    <text class="st10" transform="translate(334.18 275.24)"><tspan x="0" y="0">59</tspan></text>
  </g>
  <g id="_x28__x2F_techno_x2F_math_x2F_Numbers_x2F_Level4_x2F_60voice.mp3_x29_">
    <rect class="st3" x="314.31" y="293.57" width="53.21" height="30.87" rx="9.78" ry="9.78" transform="translate(681.82 618.02) rotate(-180)"/>
    <text></text>
    <text class="st10" transform="translate(330.88 317.06)"><tspan x="0" y="0">Sixty</tspan></text>
    <text class="st10" transform="translate(334.3 306.29)"><tspan x="0" y="0">60 </tspan></text>
  </g>
  <g id="_x28__x2F_techno_x2F_math_x2F_Numbers_x2F_Level4_x2F_68voice.mp3_x29_">
    <rect class="st2" x="368.6" y="231.75" width="53.21" height="30.87" rx="9.78" ry="9.78" transform="translate(790.41 494.37) rotate(-180)"/>
    <text class="st10" transform="translate(389.16 243.12)"><tspan x="0" y="0">68 </tspan><tspan x="-13.26" y="11">Sixty eight</tspan></text>
  </g>
  <g id="_x28__x2F_techno_x2F_math_x2F_Numbers_x2F_Level4_x2F_70voice.mp3_x29_">
    <rect class="st2" x="368.6" y="293.5" width="53.21" height="30.87" rx="9.78" ry="9.78" transform="translate(790.41 617.87) rotate(-180)"/>
    <text class="st10" transform="translate(389.28 306.42)"><tspan x="0" y="0">70</tspan><tspan x="-9.64" y="11">Seventy</tspan></text>
  </g>
  <g id="_x28__x2F_techno_x2F_math_x2F_Numbers_x2F_Level4_x2F_61voice.mp3_x29_">
    <rect class="st4" x="368.6" y="15.64" width="53.21" height="30.87" rx="9.78" ry="9.78"/>
    <text></text>
    <text class="st10" transform="translate(377.91 38.59)"><tspan x="0" y="0">Sixty one</tspan></text>
    <text class="st10" transform="translate(389.65 28)"><tspan x="0" y="0">61 </tspan></text>
  </g>
  <g id="_x28__x2F_techno_x2F_math_x2F_Numbers_x2F_Level4_x2F_62voice.mp3_x29_">
    <rect class="st2" x="368.6" y="46.51" width="53.21" height="30.87" rx="9.78" ry="9.78" transform="translate(790.41 123.9) rotate(-180)"/>
    <text class="st10" transform="translate(393.44 58.09)"><tspan x="0" y="0"> </tspan><tspan x="-15.14" y="11">Sixty two</tspan></text>
    <text class="st10" transform="translate(389.42 58.35)"><tspan x="0" y="0">62</tspan></text>
  </g>
  <g id="_x28__x2F_techno_x2F_math_x2F_Numbers_x2F_Level4_x2F_63voice.mp3_x29_">
    <rect class="st4" x="368.6" y="77.39" width="53.21" height="30.87" rx="9.78" ry="9.78"/>
    <text></text>
    <text class="st10" transform="translate(375.99 100.42)"><tspan x="0" y="0">Sixty three</tspan></text>
    <text class="st10" transform="translate(389.65 89.41)"><tspan x="0" y="0">63 </tspan></text>
  </g>
  <g id="_x28__x2F_techno_x2F_math_x2F_Numbers_x2F_Level4_x2F_64voice.mp3_x29_">
    <rect class="st2" x="368.6" y="108.26" width="53.21" height="30.87" rx="9.78" ry="9.78" transform="translate(790.41 247.39) rotate(-180)"/>
    <text class="st10" transform="translate(393.2 120.39)"><tspan x="0" y="0"> </tspan><tspan x="-15.71" y="11">Sixty four</tspan></text>
    <text class="st10" transform="translate(389.51 120.65)"><tspan x="0" y="0">64</tspan></text>
  </g>
  <g id="_x28__x2F_techno_x2F_math_x2F_Numbers_x2F_Level4_x2F_65voice.mp3_x29_">
    <rect class="st4" x="368.6" y="139.13" width="53.21" height="30.87" rx="9.78" ry="9.78"/>
    <text class="st10" transform="translate(393.91 151.49)"><tspan x="0" y="0"> </tspan><tspan x="-14.81" y="11">Sixty five</tspan></text>
    <text class="st10" transform="translate(389.68 151.35)"><tspan x="0" y="0">65</tspan></text>
  </g>
  <g id="_x28__x2F_techno_x2F_math_x2F_Numbers_x2F_Level4_x2F_67voice.mp3_x29_">
    <rect class="st4" x="368.6" y="200.88" width="53.21" height="30.87" rx="9.78" ry="9.78"/>
    <text class="st10" transform="translate(394.14 213.33)"><tspan x="0" y="0"> </tspan><tspan x="-18.6" y="11">Sixty seven</tspan></text>
    <text class="st10" transform="translate(389.59 213.73)"><tspan x="0" y="0">67</tspan></text>
  </g>
  <g id="_x28__x2F_techno_x2F_math_x2F_Numbers_x2F_Level4_x2F_66voice.mp3_x29_">
    <rect class="st2" x="368.6" y="170.01" width="53.21" height="30.87" rx="9.78" ry="9.78" transform="translate(790.41 370.88) rotate(-180)"/>
    <text></text>
    <text class="st10" transform="translate(380.79 193.46)"><tspan x="0" y="0">Sixty six</tspan></text>
    <text class="st10" transform="translate(389.56 182.5)"><tspan x="0" y="0">66 </tspan></text>
  </g>
  <g id="_x28__x2F_techno_x2F_math_x2F_Numbers_x2F_Level4_x2F_69voice.mp3_x29_">
    <rect class="st4" x="368.6" y="262.62" width="53.21" height="30.87" rx="9.78" ry="9.78"/>
    <text class="st10" transform="translate(393.67 274.92)"><tspan x="0" y="0"> </tspan><tspan x="-16.14" y="11">Sixty nine</tspan></text>
    <text class="st10" transform="translate(389.48 275.24)"><tspan x="0" y="0">69</tspan></text>
  </g>
  <g id="_x28__x2F_techno_x2F_math_x2F_Numbers_x2F_Level4_x2F_77voice.mp3_x29_">
    <rect class="st2" x="422.01" y="201.11" width="53.21" height="30.87" rx="9.78" ry="9.78"/>
    <text class="st10" transform="translate(442.81 213.8)"><tspan x="0" y="0">77 </tspan><tspan x="-19.76" y="11">Seventy seven</tspan></text>
  </g>
  <g id="_x28__x2F_techno_x2F_math_x2F_Numbers_x2F_Level4_x2F_79voice.mp3_x29_">
    <rect class="st2" x="422.01" y="262.86" width="53.21" height="30.87" rx="9.78" ry="9.78"/>
    <text class="st10" transform="translate(442.34 275.15)"><tspan x="0" y="0">79 </tspan><tspan x="-17.3" y="11">Seventy nine</tspan></text>
  </g>
  <g id="_x28__x2F_techno_x2F_math_x2F_Numbers_x2F_Level4_x2F_80voice.mp3_x29_">
    <rect class="st4" x="422.01" y="293.73" width="53.21" height="30.87" rx="9.78" ry="9.78" transform="translate(897.23 618.34) rotate(-180)"/>
    <text class="st10" transform="translate(442.34 305.89)"><tspan x="0" y="0">80</tspan><tspan x="-6.78" y="11">Eighty</tspan></text>
  </g>
  <g id="_x28__x2F_techno_x2F_math_x2F_Numbers_x2F_Level4_x2F_71voice.mp3_x29_">
    <rect class="st2" x="422.01" y="15.88" width="53.21" height="30.87" rx="9.78" ry="9.78"/>
    <g>
      <text class="st10" transform="translate(447.44 27.59)"><tspan x="0" y="0"> </tspan><tspan x="-20.54" y="11">Seventy one</tspan></text>
      <text class="st10" transform="translate(442.65 27.59)"><tspan x="0" y="0">71</tspan></text>
    </g>
  </g>
  <g id="_x28__x2F_techno_x2F_math_x2F_Numbers_x2F_Level4_x2F_72voice.mp3_x29_">
    <rect class="st4" x="422.01" y="46.75" width="53.21" height="30.87" rx="9.78" ry="9.78" transform="translate(897.23 124.37) rotate(-180)"/>
    <text></text>
    <text class="st10" transform="translate(426.37 69.33)"><tspan x="0" y="0">Seventy two</tspan></text>
    <text class="st10" transform="translate(442.41 58.41)"><tspan x="0" y="0">72 </tspan></text>
  </g>
  <g id="_x28__x2F_techno_x2F_math_x2F_Numbers_x2F_Level4_x2F_73voice.mp3_x29_">
    <rect class="st2" x="422.01" y="77.62" width="53.21" height="30.87" rx="9.78" ry="9.78"/>
    <text class="st10" transform="translate(446.91 89.48)"><tspan x="0" y="0"> </tspan><tspan x="-23.17" y="11">Seventy three</tspan></text>
    <text class="st10" transform="translate(442.3 89.94)"><tspan x="0" y="0">73</tspan></text>
  </g>
  <g id="_x28__x2F_techno_x2F_math_x2F_Numbers_x2F_Level4_x2F_74voice.mp3_x29_">
    <rect class="st4" x="422.01" y="108.5" width="53.21" height="30.87" rx="9.78" ry="9.78" transform="translate(897.23 247.87) rotate(-180)"/>
    <text class="st10" transform="translate(446.49 120.63)"><tspan x="0" y="0"> </tspan><tspan x="-21.16" y="11">Seventy four</tspan></text>
    <text class="st10" transform="translate(442.77 120.65)"><tspan x="0" y="0">74</tspan></text>
  </g>
  <g id="_x28__x2F_techno_x2F_math_x2F_Numbers_x2F_Level4_x2F_75voice.mp3_x29_">
    <rect class="st2" x="422.01" y="139.37" width="53.21" height="30.87" rx="9.78" ry="9.78"/>
    <text></text>
    <text class="st10" transform="translate(427.93 162.02)"><tspan x="0" y="0">Seventy five</tspan></text>
    <text class="st10" transform="translate(442.42 151.35)"><tspan x="0" y="0">75 </tspan></text>
  </g>
  <g id="_x28__x2F_techno_x2F_math_x2F_Numbers_x2F_Level4_x2F_76voice.mp3_x29_">
    <rect class="st4" x="422.01" y="170.24" width="53.21" height="30.87" rx="9.78" ry="9.78" transform="translate(897.23 371.36) rotate(-180)"/>
    <text class="st10" transform="translate(446.73 182.34)"><tspan x="0" y="0"> </tspan><tspan x="-18.6" y="11">Seventy six</tspan></text>
    <text class="st10" transform="translate(442.54 182.53)"><tspan x="0" y="0">76</tspan></text>
  </g>
  <g id="_x28__x2F_techno_x2F_math_x2F_Numbers_x2F_Level4_x2F_78voice.mp3_x29_">
    <g>
      <rect class="st4" x="422.01" y="231.99" width="53.21" height="30.87" rx="9.78" ry="9.78" transform="translate(897.23 494.85) rotate(-180)"/>
      <text class="st10" transform="translate(447.2 242.88)"><tspan x="0" y="0"> </tspan><tspan x="-23" y="11">Seventy eight</tspan></text>
    </g>
    <text class="st10" transform="translate(442.3 243.35)"><tspan x="0" y="0">78</tspan></text>
  </g>
  <g id="_x28__x2F_techno_x2F_math_x2F_Numbers_x2F_Level4_x2F_82voice.mp3_x29_">
    <rect class="st5" x="476.37" y="46.59" width="53.21" height="30.87" rx="9.78" ry="9.78" transform="translate(1005.94 124.05) rotate(-180)"/>
    <text class="st10" transform="translate(498.1 58.48)"><tspan x="0" y="0">82 </tspan><tspan x="-13.44" y="11">Eighty two</tspan></text>
  </g>
  <g id="_x28__x2F_techno_x2F_math_x2F_Numbers_x2F_Level4_x2F_83voice.mp3_x29_">
    <rect class="st0" x="476.37" y="77.46" width="53.21" height="30.87" rx="9.78" ry="9.78"/>
    <text class="st10" transform="translate(498.19 89.77)"><tspan x="0" y="0">83 </tspan><tspan x="-16.02" y="11">Eighty three</tspan></text>
  </g>
  <g id="_x28__x2F_techno_x2F_math_x2F_Numbers_x2F_Level4_x2F_81voice.mp3_x29_">
    <rect class="st0" x="476.37" y="15.72" width="53.21" height="30.87" rx="9.78" ry="9.78"/>
    <text class="st10" transform="translate(500.97 27.32)"><tspan x="0" y="0"> </tspan><tspan x="-17.68" y="11">Eighty one</tspan></text>
    <text class="st10" transform="translate(497.95 27.71)"><tspan x="0" y="0">81</tspan></text>
  </g>
  <g id="_x28__x2F_techno_x2F_math_x2F_Numbers_x2F_Level4_x2F_84voice.mp3_x29_">
    <rect class="st5" x="476.37" y="108.34" width="53.21" height="30.87" rx="9.78" ry="9.78" transform="translate(1005.94 247.54) rotate(-180)"/>
    <text></text>
    <text class="st10" transform="translate(482.92 131.48)"><tspan x="0" y="0">Eighty four</tspan></text>
    <text class="st10" transform="translate(498.06 120.76)"><tspan x="0" y="0">84 </tspan></text>
  </g>
  <g id="_x28__x2F_techno_x2F_math_x2F_Numbers_x2F_Level4_x2F_85voice.mp3_x29_">
    <rect class="st0" x="476.37" y="139.21" width="53.21" height="30.87" rx="9.78" ry="9.78"/>
    <text class="st10" transform="translate(501.7 151.37)"><tspan x="0" y="0"> </tspan><tspan x="-17.4" y="11">Eighty five</tspan></text>
    <text class="st10" transform="translate(497.95 151.59)"><tspan x="0" y="0">85</tspan></text>
  </g>
  <g id="_x28__x2F_techno_x2F_math_x2F_Numbers_x2F_Level4_x2F_86voice.mp3_x29_">
    <rect class="st5" x="476.37" y="170.08" width="53.21" height="30.87" rx="9.78" ry="9.78" transform="translate(1005.94 371.04) rotate(-180)"/>
    <text class="st10" transform="translate(500.64 182.73)"><tspan x="0" y="0"> </tspan><tspan x="-15.74" y="11">Eighty six</tspan></text>
    <text class="st10" transform="translate(497.83 182.65)"><tspan x="0" y="0">86</tspan></text>
  </g>
  <g id="_x28__x2F_techno_x2F_math_x2F_Numbers_x2F_Level4_x2F_87voice.mp3_x29_">
    <rect class="st0" x="476.37" y="200.95" width="53.21" height="30.87" rx="9.78" ry="9.78"/>
    <text></text>
    <text class="st10" transform="translate(481.01 224.63)"><tspan x="0" y="0">Eighty seven</tspan></text>
    <text class="st10" transform="translate(498.18 213.59)"><tspan x="0" y="0">87 </tspan></text>
  </g>
  <g id="_x28__x2F_techno_x2F_math_x2F_Numbers_x2F_Level4_x2F_88voice.mp3_x29_">
    <rect class="st5" x="476.37" y="231.83" width="53.21" height="30.87" rx="9.78" ry="9.78" transform="translate(1005.94 494.53) rotate(-180)"/>
    <text class="st10" transform="translate(501.08 243.03)"><tspan x="0" y="0"> </tspan><tspan x="-20.14" y="11">Eighty eight</tspan></text>
    <text class="st10" transform="translate(498.07 243.12)"><tspan x="0" y="0">88</tspan></text>
  </g>
  <g id="_x28__x2F_techno_x2F_math_x2F_Numbers_x2F_Level4_x2F_89voice.mp3_x29_">
    <rect class="st0" x="476.37" y="262.7" width="53.21" height="30.87" rx="9.78" ry="9.78"/>
    <text></text>
    <text class="st10" transform="translate(482.75 286.24)"><tspan x="0" y="0">Eighty nine</tspan></text>
    <text class="st10" transform="translate(498.06 275.47)"><tspan x="0" y="0">89</tspan></text>
  </g>
  <g id="_x28__x2F_techno_x2F_math_x2F_Numbers_x2F_Level4_x2F_90voice.mp3_x29_">
    <rect class="st5" x="476.37" y="293.57" width="53.21" height="30.87" rx="9.78" ry="9.78" transform="translate(1005.94 618.02) rotate(-180)"/>
    <text></text>
    <text class="st10" transform="translate(489.1 316.89)"><tspan x="0" y="0">Ninety </tspan></text>
    <text class="st10" transform="translate(497.94 306.41)"><tspan x="0" y="0">90 </tspan></text>
  </g>
  <g id="_x28__x2F_techno_x2F_math_x2F_Numbers_x2F_Level4_x2F_91voice.mp3_x29_">
    <rect class="st5" x="530.79" y="15.73" width="53.21" height="30.87" rx="9.78" ry="9.78"/>
    <text class="st10" transform="translate(556.05 27.32)"><tspan x="0" y="0"> </tspan><tspan x="-18.09" y="11">Ninety one</tspan></text>
    <text class="st10" transform="translate(552.77 27.71)"><tspan x="0" y="0">91</tspan></text>
  </g>
  <g id="_x28__x2F_techno_x2F_math_x2F_Numbers_x2F_Level4_x2F_92voice.mp3_x29_">
    <rect class="st0" x="530.79" y="46.6" width="53.21" height="30.87" rx="9.78" ry="9.78" transform="translate(1114.8 124.08) rotate(-180)"/>
    <text></text>
    <text class="st10" transform="translate(537.43 69.42)"><tspan x="0" y="0">Ninety two</tspan></text>
    <text class="st10" transform="translate(552.65 58.18)"><tspan x="0" y="0">92 </tspan></text>
  </g>
  <g id="_x28__x2F_techno_x2F_math_x2F_Numbers_x2F_Level4_x2F_93voice.mp3_x29_">
    <rect class="st5" x="530.79" y="77.48" width="53.21" height="30.87" rx="9.78" ry="9.78"/>
    <text class="st10" transform="translate(556.67 89.74)"><tspan x="0" y="0"> </tspan><tspan x="-20.73" y="11">Ninety three</tspan></text>
    <text class="st10" transform="translate(552.77 89.59)"><tspan x="0" y="0">93</tspan></text>
  </g>
  <g id="_x28__x2F_techno_x2F_math_x2F_Numbers_x2F_Level4_x2F_94voice.mp3_x29_">
    <rect class="st0" x="530.79" y="108.35" width="53.21" height="30.87" rx="9.78" ry="9.78" transform="translate(1114.8 247.57) rotate(-180)"/>
    <text class="st10" transform="translate(556.14 120.48)"><tspan x="0" y="0"> </tspan><tspan x="-18.72" y="11">Ninety four</tspan></text>
    <text class="st10" transform="translate(552.65 120.76)"><tspan x="0" y="0">94</tspan></text>
  </g>
  <g id="_x28__x2F_techno_x2F_math_x2F_Numbers_x2F_Level4_x2F_95voice.mp3_x29_">
    <g>
      <rect class="st5" x="530.79" y="139.22" width="53.21" height="30.87" rx="9.78" ry="9.78"/>
      <text></text>
      <text class="st10" transform="translate(538.37 162.28)"><tspan x="0" y="0">Ninety five</tspan></text>
    </g>
    <text class="st10" transform="translate(552.53 151.35)"><tspan x="0" y="0">95 </tspan></text>
  </g>
  <g id="_x28__x2F_techno_x2F_math_x2F_Numbers_x2F_Level4_x2F_96voice.mp3_x29_">
    <rect class="st0" x="530.79" y="170.09" width="53.21" height="30.87" rx="9.78" ry="9.78" transform="translate(1114.8 371.06) rotate(-180)"/>
    <text></text>
    <text class="st10" transform="translate(539.91 193.55)"><tspan x="0" y="0">Ninety six</tspan></text>
    <text class="st10" transform="translate(552.53 182.65)"><tspan x="0" y="0">96 </tspan></text>
  </g>
  <g id="_x28__x2F_techno_x2F_math_x2F_Numbers_x2F_Level4_x2F_97voice.mp3_x29_">
    <rect class="st5" x="530.79" y="200.97" width="53.21" height="30.87" rx="9.78" ry="9.78"/>
    <text class="st10" transform="translate(556.14 213.71)"><tspan x="0" y="0"> </tspan><tspan x="-21.6" y="11">Ninety seven</tspan></text>
    <text class="st10" transform="translate(552.77 213.82)"><tspan x="0" y="0">97</tspan></text>
  </g>
  <g id="_x28__x2F_techno_x2F_math_x2F_Numbers_x2F_Level4_x2F_98voice.mp3_x29_">
    <rect class="st0" x="530.79" y="231.84" width="53.21" height="30.87" rx="9.78" ry="9.78" transform="translate(1114.8 494.55) rotate(-180)"/>
    <text></text>
    <text class="st10" transform="translate(535.81 254.12)"><tspan x="0" y="0">Ninety eight</tspan></text>
    <text class="st10" transform="translate(552.65 243.24)"><tspan x="0" y="0">98 </tspan></text>
  </g>
  <g id="_x28__x2F_techno_x2F_math_x2F_Numbers_x2F_Level4_x2F_99voice.mp3_x29_">
    <rect class="st5" x="530.79" y="262.71" width="53.21" height="30.87" rx="9.78" ry="9.78"/>
    <text></text>
    <text class="st10" transform="translate(537.34 286.15)"><tspan x="0" y="0">Ninety nine</tspan></text>
    <text class="st10" transform="translate(552.42 275.35)"><tspan x="0" y="0">99 </tspan></text>
  </g>
  <g id="_x28__x2F_techno_x2F_math_x2F_Numbers_x2F_Level4_x2F_100voice.mp3_x29_">
    <rect class="st0" x="530.79" y="293.59" width="53.21" height="30.87" rx="9.78" ry="9.78" transform="translate(1114.8 618.04) rotate(-180)"/>
    <text></text>
    <text class="st10" transform="translate(541.71 316.98)"><tspan x="0" y="0">Hundred</tspan></text>
    <text class="st10" transform="translate(548.22 306.24)"><tspan x="0" y="0">100 </tspan></text>
  </g>
  <g id="_x28__x2F_techno_x2F_math_x2F_Numbers_x2F_Level4_x2F_1voice.mp3_x29_">
    <rect class="st8" x="44.31" y="15.55" width="53.21" height="30.87" rx="9.78" ry="9.78"/>
    <text class="st10" transform="translate(65.66 27.55)"><tspan x="0" y="0">1 </tspan><tspan x="-4.2" y="11">One</tspan></text>
  </g>
  <g id="_x28__x2F_techno_x2F_math_x2F_Numbers_x2F_Level4_x2F_11voice.mp3_x29_">
    <rect class="st7" x="97.72" y="15.79" width="53.21" height="30.87" rx="9.78" ry="9.78"/>
    <text class="st10" transform="translate(116.43 27.72)"><tspan x="0" y="0">11 </tspan><tspan x="-6.42" y="11">Eleven</tspan></text>
  </g>
  <g id="_x28__x2F_techno_x2F_math_x2F_Numbers_x2F_Level4_x2F_2voice.mp3_x29_">
    <rect class="st7" x="44.31" y="46.42" width="53.21" height="30.87" rx="9.78" ry="9.78" transform="translate(141.82 123.72) rotate(-180)"/>
    <text class="st10" transform="translate(66.08 58.34)"><tspan x="0" y="0">2 </tspan><tspan x="-4.38" y="11">Two</tspan></text>
  </g>
  <g id="_x28__x2F_techno_x2F_math_x2F_Numbers_x2F_Level4_x2F_12voice.mp3_x29_">
    <rect class="st8" x="97.72" y="46.66" width="53.21" height="30.87" rx="9.78" ry="9.78" transform="translate(248.64 124.19) rotate(-180)"/>
    <text class="st10" transform="translate(116.43 58.22)"><tspan x="0" y="0">12 </tspan><tspan x="-7.17" y="11">Twelve</tspan></text>
  </g>
  <g id="_x28__x2F_techno_x2F_math_x2F_Numbers_x2F_Level4_x2F_3voice.mp3_x29_">
    <rect class="st8" x="44.31" y="77.3" width="53.21" height="30.87" rx="9.78" ry="9.78"/>
    <text class="st10" transform="translate(65.96 89.58)"><tspan x="0" y="0">3</tspan><tspan x="-7.8" y="11">Three</tspan></text>
  </g>
  <g id="_x28__x2F_techno_x2F_math_x2F_Numbers_x2F_Level4_x2F_13voice.mp3_x29_">
    <rect class="st7" x="97.72" y="77.53" width="53.21" height="30.87" rx="9.78" ry="9.78"/>
    <text class="st10" transform="translate(116.52 89.57)"><tspan x="0" y="0">13 </tspan><tspan x="-9.54" y="11">Thirteen</tspan></text>
  </g>
  <g id="_x28__x2F_techno_x2F_math_x2F_Numbers_x2F_Level4_x2F_4voice.mp3_x29_">
    <rect class="st7" x="44.31" y="108.17" width="53.21" height="30.87" rx="9.78" ry="9.78" transform="translate(141.82 247.21) rotate(-180)"/>
    <text class="st10" transform="translate(66.31 120.67)"><tspan x="0" y="0">4</tspan><tspan x="-5.85" y="11">Four</tspan></text>
  </g>
  <g id="_x28__x2F_techno_x2F_math_x2F_Numbers_x2F_Level4_x2F_14voice.mp3_x29_">
    <rect class="st8" x="97.72" y="108.41" width="53.21" height="30.87" rx="9.78" ry="9.78" transform="translate(248.64 247.69) rotate(-180)"/>
    <text class="st10" transform="translate(116.52 120.49)"><tspan x="0" y="0">14 </tspan><tspan x="-10.7" y="11">Fourteen</tspan></text>
  </g>
  <g id="_x28__x2F_techno_x2F_math_x2F_Numbers_x2F_Level4_x2F_5voice.mp3_x29_">
    <rect class="st8" x="44.31" y="139.04" width="53.21" height="30.87" rx="9.78" ry="9.78"/>
    <text class="st10" transform="translate(66.15 151.31)"><tspan x="0" y="0">5 </tspan><tspan x="-4.18" y="11">Five</tspan></text>
  </g>
  <g id="_x28__x2F_techno_x2F_math_x2F_Numbers_x2F_Level4_x2F_15voice.mp3_x29_">
    <rect class="st7" x="97.72" y="139.28" width="53.21" height="30.87" rx="9.78" ry="9.78"/>
    <text class="st10" transform="translate(116.43 151.11)"><tspan x="0" y="0">15 </tspan><tspan x="-7.04" y="11">Fifteen</tspan></text>
  </g>
  <g id="_x28__x2F_techno_x2F_math_x2F_Numbers_x2F_Level4_x2F_6voice.mp3_x29_">
    <rect class="st7" x="44.31" y="169.92" width="53.21" height="30.87" rx="9.78" ry="9.78" transform="translate(141.82 370.7) rotate(-180)"/>
    <text class="st10" transform="translate(66.25 182.6)"><tspan x="0" y="0">6 </tspan><tspan x="-2.1" y="11">Six</tspan></text>
  </g>
  <g id="_x28__x2F_techno_x2F_math_x2F_Numbers_x2F_Level4_x2F_16voice.mp3_x29_">
    <rect class="st8" x="97.72" y="170.15" width="53.21" height="30.87" rx="9.78" ry="9.78" transform="translate(248.64 371.18) rotate(-180)"/>
    <text class="st10" transform="translate(116.43 182.57)"><tspan x="0" y="0">16 </tspan><tspan x="-7.78" y="11">Sixteen</tspan></text>
  </g>
  <g id="_x28__x2F_techno_x2F_math_x2F_Numbers_x2F_Level4_x2F_17voice.mp3_x29_">
    <rect class="st7" x="97.72" y="201.03" width="53.21" height="30.87" rx="9.78" ry="9.78"/>
    <text class="st10" transform="translate(116.42 213.71)"><tspan x="0" y="0">17</tspan></text>
    <text></text>
    <text class="st10" transform="translate(104.38 224.56)"><tspan x="0" y="0">Seventeen</tspan></text>
  </g>
  <g id="_x28__x2F_techno_x2F_math_x2F_Numbers_x2F_Level4_x2F_7voice.mp3_x29_">
    <rect class="st8" x="44.31" y="200.79" width="53.21" height="30.87" rx="9.78" ry="9.78"/>
    <text class="st10" transform="translate(65.93 213.64)"><tspan x="0" y="0">7 </tspan><tspan x="-7.55" y="11">Seven</tspan></text>
  </g>
  <g id="_x28__x2F_techno_x2F_math_x2F_Numbers_x2F_Level4_x2F_8voice.mp3_x29_">
    <rect class="st7" x="44.31" y="231.66" width="53.21" height="30.87" rx="9.78" ry="9.78" transform="translate(141.82 494.2) rotate(-180)"/>
    <text class="st10" transform="translate(66.02 243.15)"><tspan x="0" y="0">8 </tspan><tspan x="-6.1" y="11">Eight</tspan></text>
  </g>
  <g id="_x28__x2F_techno_x2F_math_x2F_Numbers_x2F_Level4_x2F_18voice.mp3_x29_">
    <rect class="st8" x="97.72" y="231.9" width="53.21" height="30.87" rx="9.78" ry="9.78" transform="translate(248.64 494.67) rotate(-180)"/>
    <text class="st10" transform="translate(116.54 243.12)"><tspan x="0" y="0">18</tspan></text>
    <text></text>
    <text class="st10" transform="translate(106.79 254.01)"><tspan x="0" y="0">Eighteen</tspan></text>
  </g>
  <g id="_x28__x2F_techno_x2F_math_x2F_Numbers_x2F_Level4_x2F_9voice.mp3_x29_">
    <rect class="st8" x="43.25" y="263.24" width="53.21" height="30.87" rx="9.78" ry="9.78"/>
    <text class="st10" transform="translate(65.08 275.82)"><tspan x="0" y="0">9 </tspan><tspan x="-5.11" y="11">Nine</tspan></text>
  </g>
  <g id="_x28__x2F_techno_x2F_math_x2F_Numbers_x2F_Level4_x2F_19voice.mp3_x29_">
    <rect class="st7" x="97.72" y="262.77" width="53.21" height="30.87" rx="9.78" ry="9.78"/>
    <text class="st10" transform="translate(116.3 275)"><tspan x="0" y="0">19 </tspan></text>
    <text></text>
    <text class="st10" transform="translate(107.79 286.13)"><tspan x="0" y="0">Nineteen</tspan></text>
  </g>
  <g id="_x28__x2F_techno_x2F_math_x2F_Numbers_x2F_Level4_x2F_10voice.mp3_x29_">
    <rect class="st7" x="44.31" y="293.41" width="53.21" height="30.87" rx="9.78" ry="9.78" transform="translate(141.82 617.69) rotate(-180)"/>
    <text class="st10" transform="translate(62.76 306.21)"><tspan x="0" y="0">10 </tspan><tspan x="-1.34" y="11">Ten</tspan></text>
  </g>
  <g id="_x28__x2F_techno_x2F_math_x2F_Numbers_x2F_Level4_x2F_20voice.mp3_x29_">
    <rect class="st8" x="97.72" y="293.64" width="53.21" height="30.87" rx="9.78" ry="9.78" transform="translate(248.64 618.16) rotate(-180)"/>
    <text class="st10" transform="translate(116.77 306.06)"><tspan x="0" y="0">20</tspan></text>
    <text class="st10" transform="translate(121.65 305.89)"><tspan x="0" y="0"> </tspan><tspan x="-12.85" y="11" xml:space="preserve"> Twenty</tspan></text>
  </g>
</svg>