<?xml version="1.0" encoding="UTF-8"?>
<svg xmlns="http://www.w3.org/2000/svg" version="1.1" xmlns:xlink="http://www.w3.org/1999/xlink" viewBox="0 0 22 12">
  <!-- Generator: Adobe Illustrator 29.1.0, SVG Export Plug-In . SVG Version: 2.1.0 Build 142)  -->
  <defs>
    <style>
      .st0 {
        fill: #221f1f;
      }

      .st1 {
        fill: #87281b;
      }

      .st2 {
        fill: #facbbd;
        opacity: .5;
      }

      .st2, .st3, .st4, .st5, .st6 {
        fill-rule: evenodd;
      }

      .st7 {
        opacity: .63;
      }

      .st8 {
        fill: #eb2427;
      }

      .st9 {
        opacity: .27;
      }

      .st10 {
        stroke: #010101;
        stroke-miterlimit: 10;
        stroke-width: .06px;
      }

      .st10, .st4 {
        fill: #eb2127;
      }

      .st11 {
        fill: #ed3026;
      }

      .st12 {
        fill: #f1707c;
      }

      .st13 {
        fill: none;
      }

      .st14 {
        font-size: .49px;
      }

      .st14, .st15, .st16 {
        font-family: KGLettersSemibold, KGLettersSemibold;
      }

      .st14, .st15, .st16, .st17 {
        fill: #231f20;
      }

      .st18 {
        clip-path: url(#clippath-1);
      }

      .st15 {
        font-size: .51px;
      }

      .st19 {
        isolation: isolate;
      }

      .st20 {
        fill: #ba3a27;
        opacity: .74;
      }

      .st21 {
        fill: #a91f24;
      }

      .st3 {
        fill: #d02028;
      }

      .st22 {
        fill: #adacaf;
        mix-blend-mode: multiply;
        opacity: .66;
      }

      .st23 {
        fill: #e9262a;
      }

      .st5, .st24 {
        fill: #010101;
      }

      .st6 {
        fill: #ba2027;
      }

      .st25 {
        fill: #fbcccc;
      }

      .st26 {
        fill: #fff;
        font-family: MyriadPro-Semibold, 'Myriad Pro';
        font-size: .7px;
        font-weight: 600;
      }

      .st16 {
        font-size: .58px;
      }

      .st27 {
        fill: #af1f27;
      }

      .st28 {
        clip-path: url(#clippath);
      }

      .st17 {
        font-family: MyriadPro-Regular, 'Myriad Pro';
        font-size: .61px;
      }

      .st29 {
        fill: #ef5655;
      }
    </style>
    <clipPath id="clippath">
      <rect class="st13" x="3.88" y="1.44" width=".18" height=".45" transform="translate(2.15 5.57) rotate(-87.86)"/>
    </clipPath>
    <clipPath id="clippath-1">
      <rect class="st13" x="3.88" y="1.44" width=".18" height=".45" transform="translate(2.15 5.57) rotate(-87.86)"/>
    </clipPath>
  </defs>
  <g class="st19">
    <g id="Layer_1">
      <rect class="st25" x="-.49" y="-.5" width="25.86" height="14.4"/>
      <g id="_x28__x2F_techno_x2F_math_x2F_colours_x2F_L1_x2F_RED_x2F_strawberry.mp3_x29_">
        <text class="st16" transform="translate(16.76 5.83)"><tspan x="0" y="0">Strawberry</tspan></text>
      </g>
      <g id="_x28__x2F_techno_x2F_math_x2F_colours_x2F_L1_x2F_RED_x2F_tomato.mp3_x29_">
        <text class="st15" transform="translate(17.19 11.4) rotate(.02) scale(1.07 1)"><tspan x="0" y="0">Tomato</tspan></text>
      </g>
      <g id="_x28__x2F_techno_x2F_math_x2F_colours_x2F_L1_x2F_RED_x2F_red.mp3_x29_">
        <path class="st10" d="M11.27,4.67c.4,0,.8.13,1.12.37.26.19.51.5.56.83.05.32-.11.61-.37.8-.06.04-.12.07-.18.11-.1.05-.26.09-.32.17-.03.03-.04.08-.04.12-.02.18.1.27.13.42,0,.07,0,.14-.04.2-.03.04-.07.07-.12.07-.04,0-.07,0-.1-.03-.09-.07-.1-.2-.08-.3,0-.06.03-.12.02-.18,0-.05-.03-.1-.07-.12-.03-.02-.07-.04-.11-.03-.07,0-.13.06-.17.12-.14.19-.18.55-.11.77.02.05.05.1.07.15.04.08.07.16.08.25.01.1,0,.22-.06.3-.03.04-.08.07-.13.07-.05,0-.09-.01-.13-.04-.04-.03-.07-.08-.08-.13-.06-.16,0-.31.02-.47,0-.02,0-.03,0-.05,0-.02,0-.03,0-.05,0-.02,0-.03,0-.05,0-.02,0-.03,0-.05-.01-.13-.07-.29-.18-.38-.04-.03-.09-.05-.14-.05-.04,0-.08.02-.12.04-.12.08-.28.31-.31.45-.01.06-.01.11-.01.17,0,.1-.02.21-.09.29-.03.03-.06.06-.11.06-.03,0-.07-.01-.09-.03-.03-.03-.05-.07-.06-.11-.03-.18.11-.27.18-.41,0,0,0-.01,0-.02,0,0,0-.01,0-.02,0,0,0-.01,0-.02,0,0,0-.01,0-.02,0,0,0-.01,0-.02,0,0,0-.01,0-.02,0,0,0-.01,0-.02,0,0,0-.01,0-.02,0,0,0-.01,0-.02,0,0,0-.01,0-.02,0,0,0-.01,0-.02,0,0,0-.01,0-.02,0,0,0-.01,0-.02,0,0,0-.01,0-.02,0,0,0-.01,0-.02,0,0,0-.01,0-.02,0-.07-.02-.15-.07-.2-.03-.03-.07-.03-.11-.03-.04,0-.08.02-.11.05-.11.11-.07.29-.16.4-.03.03-.06.05-.1.05,0,0,0,0,0,0s0,0,0,0c0,0,0,0,0,0,0,0,0,0,0,0,0,0,0,0,0,0,0,0,0,0,0,0,0,0,0,0,0,0,0,0,0,0,0,0,0,0,0,0,0,0,0,0,0,0,0,0,0,0,0,0,0,0,0,0,0,0,0,0,0,0,0,0,0,0,0,0,0,0,0,0,0,0,0,0,0,0,0,0,0,0,0,0-.04-.03-.05-.08-.05-.13,0,0,0,0,0-.01,0,0,0,0,0-.01,0,0,0,0,0-.01,0,0,0,0,0-.01,0,0,0,0,0-.01,0,0,0,0,0-.01,0,0,0,0,0-.01,0,0,0,0,0-.01,0,0,0,0,0-.01,0,0,0,0,0-.01,0,0,0,0,0-.01,0,0,0,0,0-.01,0,0,0,0,0-.01s0,0,0-.01c0,0,0,0,0-.01,0,0,0,0,0-.01.02-.02.04-.04.06-.07.04-.05.08-.1.08-.17,0-.03,0-.06-.03-.08-.06-.05-.14,0-.2.01,0,0-.02,0-.03,0-.01,0-.02,0-.03,0-.1,0-.2-.06-.27-.12-.1-.1-.18-.23-.18-.37,0-.12.03-.22.11-.31.03-.04.07-.07.1-.11.03-.03.05-.07.07-.11.05-.1.09-.21.13-.32.1-.24.23-.45.41-.64.01-.01.02-.02.03-.04.01-.01.02-.02.04-.03.01-.01.02-.02.04-.03.01-.01.02-.02.04-.03.01-.01.03-.02.04-.03.01-.01.03-.02.04-.03.01-.01.03-.02.04-.03.01,0,.03-.02.04-.03.01,0,.03-.02.04-.03.01,0,.03-.02.04-.03.01,0,.03-.02.04-.03.01,0,.03-.02.04-.02.01,0,.03-.02.04-.02.01,0,.03-.02.04-.02.01,0,.03-.01.04-.02.01,0,.03-.01.05-.02.02,0,.03-.01.05-.02s.03-.01.05-.02c.02,0,.03-.01.05-.02.02,0,.03-.01.05-.02.02,0,.03,0,.05-.01.02,0,.03,0,.05-.01.02,0,.03,0,.05-.01.02,0,.03,0,.05-.01.02,0,.03,0,.05,0,.02,0,.03,0,.05,0,.02,0,.03,0,.05,0,.02,0,.03,0,.05,0,.02,0,.03,0,.05,0,.02,0,.03,0,.05,0,.02,0,.03,0,.05,0,.02,0,.03,0,.05,0Z"/>
        <text class="st26" transform="translate(10.42 6.44)"><tspan x="0" y="0">Red</tspan></text>
      </g>
      <g id="_x28__x2F_techno_x2F_math_x2F_colours_x2F_L1_x2F_RED_x2F_apple.mp3_x29_">
        <g>
          <path class="st21" d="M3.58,4.83c-.15,0-.37-.04-.54-.18-.1-.08-.17-.19-.24-.3l-.5-.77c-.14-.22-.29-.44-.35-.69-.12-.44.01-.92.34-1.25.23-.23.56-.37.91-.38h0c.18,0,.32.05.45.11.09.03.18.07.27.09.02-.07.06-.17.09-.24h0s.12-.17.12-.17h0c.06,0,.1.02.11.05l-.1.26-.08.15c.14-.05.23-.08.32-.1.11-.03.22-.06.33-.07h0c.41,0,.75.18.96.48.21.29.28.67.2,1.05-.05.25-.18.5-.36.73-.12.15-.22.32-.31.49l-.14.26c-.07.13-.14.27-.28.37-.1.07-.22.11-.34.11h-.13c-.07-.02-.13-.03-.2-.03-.04,0-.08,0-.12,0-.13.02-.26.04-.38.04h-.03Z"/>
          <path class="st24" d="M4.14,1.07s.07.02.08.04c.01.02,0,.05-.01.07-.06.1-.11.21-.17.31.02,0,.05,0,.07,0,.2-.02.4-.12.6-.13.02,0,.04,0,.06,0,.35,0,.69.19.89.47.21.3.27.68.2,1.03-.06.27-.19.51-.36.72-.16.19-.27.43-.4.64-.1.17-.16.35-.34.47-.1.07-.21.1-.33.1-.02,0-.05,0-.07,0-.1-.01-.17-.03-.26-.03-.04,0-.08,0-.12,0-.12.02-.25.04-.38.04,0,0-.02,0-.03,0-.19,0-.39-.06-.53-.18-.1-.08-.17-.19-.23-.29-.17-.26-.33-.51-.5-.77-.14-.22-.28-.44-.35-.69-.12-.43.01-.91.33-1.22.23-.23.56-.37.9-.38,0,0,.02,0,.02,0,.25,0,.45.14.69.2,0,0,.01,0,.02,0,.04-.14.12-.31.14-.35,0-.02.02-.05.06-.06,0,0,0,0,.01,0M4.14,1.03s-.01,0-.02,0c-.05,0-.09.04-.1.09,0,.02-.02.05-.03.09-.03.06-.06.15-.09.23-.08-.02-.16-.05-.24-.08-.14-.05-.28-.11-.44-.11h-.03c-.35.01-.69.16-.93.39-.33.33-.46.82-.34,1.27.07.26.22.48.36.7l.19.29.31.48c.07.11.14.22.24.3.18.15.4.18.56.19h.03c.13,0,.25-.02.38-.04.05,0,.08-.01.12-.01.06,0,.12,0,.19.02h.06s.05.01.08.01c.13,0,.25-.04.36-.11.14-.1.22-.24.29-.38.02-.04.04-.08.06-.11.03-.05.05-.09.08-.14.09-.17.19-.35.31-.49.19-.24.31-.48.37-.74.08-.38,0-.77-.2-1.07-.21-.3-.57-.49-.93-.49-.02,0-.04,0-.06,0-.11,0-.23.04-.34.07-.09.03-.17.05-.26.06.01-.03.03-.05.04-.08.03-.05.06-.11.09-.16.01-.02.04-.07.01-.11-.02-.04-.07-.07-.12-.07h0Z"/>
        </g>
        <g>
          <path class="st23" d="M4.11,1.49c-.07,0-.14,0-.21,0-.25-.05-.45-.2-.71-.2-.33.01-.66.15-.9.38-.32.31-.45.8-.33,1.22.07.25.21.47.35.69.17.26.33.51.5.77.07.1.14.21.23.29.14.12.34.17.53.18.14,0,.27-.02.41-.04.14-.02.23,0,.38.02.14.02.29-.02.4-.1.17-.12.24-.3.34-.47.12-.22.24-.45.4-.64.17-.21.3-.46.36-.72.08-.35.01-.74-.2-1.03-.21-.3-.58-.49-.95-.47-.2.01-.4.11-.6.13"/>
          <path class="st24" d="M4.06,1.13s.02-.05.06-.06c.04,0,.08.02.1.04s0,.05-.01.07c-.09.17-.18.34-.28.51-.11-.04.1-.48.13-.56"/>
          <g class="st7">
            <g class="st28">
              <g class="st18">
                <path class="st21" d="M3.75,1.6s.03-.02.05-.02c.02,0,.04.01.05.02.06.02.13.03.2,0,.02,0,.05-.02.07-.02.02,0,.05,0,.07.02.01.02,0,.05,0,.07-.01.02-.03.03-.05.04-.08.04-.18.06-.27.02-.04-.02-.14-.08-.11-.14"/>
              </g>
            </g>
          </g>
        </g>
      </g>
      <g id="_x28__x2F_techno_x2F_math_x2F_colours_x2F_L1_x2F_RED_x2F_cherry.mp3_x29_">
        <text class="st14" transform="translate(3.23 11.4)"><tspan x="0" y="0">Cherry</tspan></text>
      </g>
      <g id="_x28__x2F_techno_x2F_math_x2F_colours_x2F_L1_x2F_RED_x2F_cherry.mp3_x29_1" data-name="_x28__x2F_techno_x2F_math_x2F_colours_x2F_L1_x2F_RED_x2F_cherry.mp3_x29_">
        <g>
          <path class="st24" d="M5.08,10.48c-.25,0-.49-.06-.7-.17-.21-.11-.38-.27-.5-.46-.07.19-.24.35-.44.46-.21.11-.46.17-.7.17s-.49-.06-.7-.17c-.21-.11-.39-.28-.52-.48-.12-.2-.19-.42-.19-.65,0-1,.66-1.15,1.05-1.15.16,0,.23.01.27.02l-.04-.11v-.03s.1-.08.1-.08h.02l.11.03.03.23.11-.05s.1,0,.1,0c.3,0,.65.06.87.37.17-.31.52-.37.78-.37.1,0,.19,0,.25.02l-.13-.14v-.02s0-.1,0-.1c.02-.03.06-.06.09-.06h0c.06,0,.1.03.12.07.04.09.08.17.13.26.02-.03.11-.04.2-.04h0c.44,0,1.09.15,1.09,1.15,0,.23-.07.46-.19.65-.12.2-.3.36-.52.48-.21.11-.46.17-.7.17Z"/>
          <path class="st24" d="M4.95,7.76s.06.02.08.05c.04.09.09.18.13.26.06,0,.14-.02.23-.02,0,0,0,0,.01,0,0,0,0,0,0,0,.01,0,.03,0,.04,0,.41,0,1.01.16,1.01,1.11,0,.23-.07.45-.18.64-.12.19-.29.35-.5.47-.2.11-.44.17-.69.17s-.49-.06-.69-.17c-.2-.11-.37-.26-.49-.44,0,0,0,0,0,0s0,0,0,0c-.12.18-.29.34-.49.44-.2.11-.44.17-.69.17s-.49-.06-.69-.17c-.21-.11-.38-.27-.5-.47-.12-.19-.18-.4-.18-.64,0-.95.61-1.11,1.01-1.11.02,0,.03,0,.05,0,.01,0,.03,0,.04,0h0c.07,0,.13.01.18.02,0,0,0,0,0,0,0-.05,0-.1,0-.15,0-.04.03-.07.07-.07,0,0,.02,0,.03,0,0,0,0,0,.01,0,.04,0,.07.03.07.07,0,.05,0,.1,0,.15.02,0,.05,0,.09-.01,0,0,.02,0,.03,0,.01,0,.02,0,.03,0,.03,0,.06,0,.1,0,0,0,0,0,.01,0,0,0,.01,0,.02,0,.26,0,.6.07.81.36,0,0,0,0,0,0s0,0,0,0c.21-.29.55-.36.81-.36.1,0,.18,0,.25.02-.03-.06-.06-.12-.09-.19-.03-.05.01-.12.07-.12,0,0,0,0,0,0,0,0,0,0,0,0M4.95,7.69h-.01c-.05,0-.1.03-.12.08-.03.04-.03.1,0,.15.01.02.02.05.03.07-.04,0-.08,0-.12,0-.25,0-.58.06-.81.32-.23-.26-.56-.32-.81-.32h-.02c-.05,0-.09,0-.12,0h-.03s-.03,0-.03,0c0,0,0,0,0,0,0-.02,0-.05,0-.07,0-.04-.01-.08-.04-.1-.03-.03-.06-.04-.1-.04h-.02s-.02,0-.02,0c-.07,0-.13.07-.13.14,0,.02,0,.04,0,.06-.03,0-.07,0-.11,0-.01,0-.03,0-.04,0h-.05c-.28,0-.52.07-.7.21-.25.2-.38.52-.38.97,0,.24.07.47.19.67.13.2.31.37.53.49.22.12.47.18.72.18s.5-.06.72-.18c.18-.1.34-.23.46-.38.12.16.28.29.46.38.22.12.47.18.72.18s.5-.06.72-.18c.22-.12.4-.29.53-.49.13-.2.19-.44.19-.67,0-1.03-.68-1.18-1.08-1.18h-.04c-.07,0-.14,0-.21.02-.04-.07-.07-.14-.11-.22-.03-.06-.08-.09-.14-.09h0Z"/>
        </g>
        <path class="st8" d="M5.08,8.1s-.79-.21-1.18.32c0,0,0,0,0,0-.22-.3-.57-.36-.83-.36,0,0,0,0-.01,0-.19,0-.33.04-.33.04s-.11-.03-.27-.04h0s-.03,0-.04,0c-.41-.01-1.06.12-1.06,1.11,0,.23.07.45.18.64.12.19.29.35.5.47.2.11.44.17.69.17s.49-.06.69-.17c.2-.11.37-.26.49-.44,0,0,0,0,0,0,.12.18.29.34.49.44.2.11.44.17.69.17s.49-.06.69-.17c.21-.11.38-.27.5-.47.12-.19.18-.4.18-.64,0-1.44-1.37-1.07-1.38-1.07Z"/>
        <path class="st27" d="M3.08,8.1c0,.37-.7.22-.66-.04.01,0,.03,0,.04,0h0c.16,0,.27.04.27.04s.14-.04.33-.04c0,0,0,0,.01,0,0,.01,0,.03,0,.04Z"/>
        <path class="st27" d="M5.42,8.1c0,.37-.7.22-.66-.04.01,0,.03,0,.04,0h0c.16,0,.27.04.27.04s.14-.04.33-.04c0,0,0,0,.01,0,0,.01,0,.03,0,.04Z"/>
        <path class="st24" d="M4.87,7.89c.05.11.1.21.16.32,0,0,0,0,0,0l.15-.08s0,0,0,0c-.05-.1-.11-.2-.15-.31-.02-.03-.05-.05-.09-.05,0,0,0,0,0,0-.06,0-.1.07-.07.12Z"/>
        <path class="st12" d="M5.91,8.37c.07.06.14.13.19.22.01.02.03.04.04.06.01.02.02.04.04.07.02.05.04.09.05.14.02.1.02.19,0,.28-.01.09-.03.18-.05.27,0,0-.01.01-.02.01,0,0-.01,0-.01-.02h0c0-.09,0-.18,0-.26,0-.09-.03-.17-.06-.24-.03-.07-.08-.13-.14-.18-.06-.05-.12-.09-.19-.13-.06-.04-.09-.12-.06-.18.04-.07.12-.09.19-.05,0,0,.02.01.02.02h0Z"/>
        <path class="st12" d="M3.65,8.45c0,.09,0,.19-.02.29,0,.02-.01.05-.02.07,0,.02-.02.05-.02.07-.02.05-.04.09-.07.13-.06.08-.12.15-.2.2-.07.06-.15.1-.22.15,0,0-.02,0-.02,0,0,0,0-.01,0-.02h0c.06-.06.13-.12.18-.19.05-.07.1-.14.13-.21.03-.07.04-.15.04-.23,0-.08-.02-.15-.04-.23-.02-.07.02-.15.09-.17.07-.02.15.02.17.1,0,0,0,.02,0,.03h0Z"/>
        <path class="st24" d="M2.73,7.86s-.02,0-.03,0c-.04,0-.06.04-.07.07,0,.08,0,.15,0,.23,0,0,0,0,0,0l.18.04s0,0,0,0c0-.09,0-.19,0-.28,0-.05-.04-.08-.08-.07Z"/>
      </g>
      <g id="_x28__x2F_techno_x2F_math_x2F_colours_x2F_L1_x2F_RED_x2F_tomato.mp3_x29_1" data-name="_x28__x2F_techno_x2F_math_x2F_colours_x2F_L1_x2F_RED_x2F_tomato.mp3_x29_">
        <g>
          <path class="st1" d="M18,10.78c-.17,0-.31-.02-.46-.05-.2-.04-.38-.12-.54-.22-.16-.1-.31-.23-.43-.39-.12-.15-.21-.32-.28-.5-.07-.18-.11-.36-.13-.56,0-.09-.01-.19,0-.29,0-.1.03-.19.06-.28.03-.08.07-.16.12-.24.03-.04.05-.08.08-.12.22-.27.44-.38.45-.39.05-.04.09-.06.12-.08.21-.1.41-.15.55-.17.06-.01.13-.02.19-.03.06-.03.12-.04.2-.05.07,0,.14,0,.21-.01.07,0,.14,0,.21,0,.07,0,.21.02.21.02.2,0,.38.04.56.12.18.08.34.19.47.34.13.14.23.31.3.5.06.18.09.37.09.57,0,.1,0,.19-.02.29-.01.1-.03.19-.06.28-.06.2-.15.37-.26.52-.06.08-.12.15-.19.22-.07.07-.15.13-.23.18s-.17.1-.26.14c-.04.02-.08.04-.12.05l-.16.02v.02c-.17.05-.36.08-.56.09h-.12Z"/>
          <path class="st24" d="M18.15,7.45c.07,0,.13,0,.2,0,.07,0,.13,0,.2.02,0,0,.02,0,.03,0,.18,0,.36.04.53.11.17.08.33.19.46.33.13.14.23.31.29.49.06.18.09.37.09.56,0,.1,0,.19-.02.29-.01.09-.03.19-.06.28-.06.18-.14.36-.25.51-.06.08-.12.15-.19.22-.07.07-.15.12-.23.18-.08.05-.16.1-.25.14-.04.02-.09.04-.13.05-.02,0-.05.01-.07.02-.02,0-.05.01-.07.02-.18.05-.37.08-.56.09-.04,0-.08,0-.12,0-.15,0-.3-.01-.45-.05-.19-.04-.37-.11-.53-.21-.16-.1-.3-.23-.42-.38-.12-.15-.21-.32-.28-.5-.07-.18-.11-.36-.13-.55,0-.09-.01-.19,0-.28,0-.09.03-.19.06-.28.03-.08.07-.16.11-.23.03-.04.05-.08.08-.12,0,0,0,0,0,0,.01-.01.02-.03.03-.04,0,0,0,0,0,0,.19-.23.41-.34.41-.34,0,0,.02-.02.03-.02,0,0,0,0,0,0,.03-.02.06-.04.09-.06,0,0,0,0,0,0,.01,0,.02-.01.03-.02,0,0,0,0,0,0,.17-.08.37-.13.51-.16.06-.01.13-.02.19-.03.06-.03.13-.04.2-.05.07,0,.14-.01.21-.01,0,0,0,0,0,0M17.99,10.7s.09,0,.13,0c.19,0,.37-.03.55-.09.02,0,.04-.01.07-.02.02,0,.04-.01.07-.02.04-.02.09-.03.13-.05.08-.04.17-.08.24-.13.08-.05.15-.11.22-.17,0,0,0,0,.01-.01-.32.29-.79.46-1.39.46,0,0-.01,0-.02,0-.82,0-1.31-.43-1.57-.93.06.13.14.25.23.37.12.14.26.27.41.36.16.1.33.16.51.2.14.03.28.04.42.04M18.15,7.4h0c-.08,0-.15,0-.21.01-.06,0-.14.02-.21.05-.06,0-.12.02-.19.03-.14.03-.35.07-.52.16-.01,0-.02.01-.03.02-.03.02-.07.04-.1.06-.01,0-.02.02-.03.02,0,0,0,0,0,0,0,0-.22.11-.41.35-.01.01-.02.03-.03.04-.03.04-.06.08-.08.13-.05.08-.09.16-.12.24-.03.09-.05.19-.06.29,0,.09,0,.18,0,.29.02.19.06.38.13.56.07.19.17.36.28.51.12.16.27.29.43.39.16.1.35.18.54.22.14.03.3.05.46.05.04,0,.08,0,.12,0,.21,0,.4-.04.57-.09.02,0,.05-.01.07-.02h.02s.03-.02.05-.02h.02s.08-.04.12-.06c.1-.04.18-.09.26-.14.09-.06.16-.12.23-.18.07-.07.14-.14.2-.22.11-.15.2-.33.26-.53.03-.09.05-.19.06-.29.01-.09.02-.18.02-.29,0-.21-.03-.4-.1-.58-.07-.19-.17-.37-.31-.51-.13-.14-.3-.26-.48-.34-.18-.08-.37-.12-.55-.12h-.03c-.06,0-.13-.01-.2-.02-.07,0-.13,0-.2,0h0Z"/>
        </g>
        <g>
          <path class="st11" d="M17.74,7.5s-.58.05-.86.28c0,0-.7.35-.68,1.12.03.77.53,1.74,1.78,1.75,1.25,0,1.93-.71,1.94-1.69.01-.98-.74-1.5-1.37-1.48,0,0-.58-.08-.81.02Z"/>
          <path class="st20" d="M19.47,7.84s-.08-.07-.12-.1c-.34,0-.6.08-.69.13-.12.05-.28.06-.39.06,0,0,.18-.29.62-.31.11,0,.21,0,.29.01-.08-.04-.16-.07-.24-.1-.3-.03-.65.02-.88.32,0,0,.05-.3.2-.38.01,0,.03-.01.04-.02-.07,0-.14,0-.21,0-.15.11-.22.32-.26.44-.03.12-.48-.18-.8-.2-.04.02-.09.05-.12.07.11.02.23.05.3.09.11.07.14.12.14.12,0,0-.37-.03-.76.11-.04.01-.07.02-.11.04-.04.05-.08.11-.12.17.44-.21.92-.17.92-.16,0,0-.24.16-.24.38,0,.23.11.44.2.52,0,0-.17-.44.03-.69.2-.23.35-.2.42-.19.08,0,.16,0,.2-.01.04-.03.36.11.35.34,0,.11,0,.39.16.46,0,0-.07-.11-.02-.39.02-.08.07-.4-.17-.5,0,0,.28-.02.39-.04.19-.03.5-.17.88-.18Z"/>
          <path class="st11" d="M19.12,7.79c.24.13.55.47.61.81.06.34-.23-.14-.32-.23-.65-.67-.99-.46-.84-.65.11-.15.49.03.55.07Z"/>
          <g class="st9">
            <path class="st29" d="M16.8,8.96s-.02,0-.03,0c0,0,0,0,0,0,0-.02.02-.05.04-.05,0,0,.01,0,.02-.01,0,0-.01,0-.02-.01,0-.01.02-.02,0-.03,0,0,0-.01,0-.02,0,0-.01,0-.02,0,0,0,0-.01,0-.02,0,0,0-.01,0-.01-.01,0-.03,0-.04.02,0,.01-.02.02-.03.01,0,0,0,.02,0,.02-.01,0-.02,0-.04,0,0,0,0,0,0,0,0,0,0,.01-.01.02,0-.01,0-.02,0-.03-.01,0-.02,0-.03,0-.01,0-.02-.01-.03-.02,0,0,0,0,0,0-.01,0-.02-.01-.03-.02,0,0,0-.02,0-.06,0,0-.01,0-.02,0,0,0,0,0,0,0,0,0,.01,0,.02,0,.02,0,.02,0,.03-.02h-.04s.02-.03,0-.03c0-.01.02-.02.03-.04,0,0,0,0,0,0,0-.03.02-.04.04-.05,0,0,0,0,0,0,0-.01-.02,0-.03,0,0,0-.02.01-.03.02,0,0,0,0,0,0,0,0,0-.01,0-.01.02,0,.02-.02.03-.03,0,0,.02,0,.03-.01,0,0,0,0,0,0,.02-.02.04-.04.06-.06,0-.02,0-.02.02-.01,0,0,0,0,0,0,.01,0,.05.03.04.04,0,.02,0,.03.01.05,0,0,.01.01,0,.02,0,0,0,0,0,0,0,0,.01-.01.02-.01,0,0,.01,0,.01,0,0,.01,0,.02.01.03-.02,0-.03,0-.05.02.02.02.04.01.05.04-.01,0-.02,0-.03,0,0,.01.02.03.03.04,0,0,.03,0,.03.02,0,0,0,0,0,0,0,0,0-.01,0-.01,0-.01,0-.02,0-.04,0-.02.01-.03.03-.03,0-.01,0-.02.02-.02.02,0,.04,0,.05-.02,0,0,.01-.02.02-.03,0,.02.01.03.02.04,0-.01.01-.03.02-.04.02.01.03.02.02.04,0,0,0,0,0,0,0,0,0-.01,0-.02,0-.02,0-.02.02-.02.02,0,.04,0,.06.01,0,0,0,0,0,0,.01-.02.02-.02.04,0,.01,0,.02.01.01.03.02-.03.03,0,.05,0,.02,0,.03.01.05.02,0,0,0,0,0,0,0,0,0,0,0-.01-.01-.01-.03,0-.05,0,0,0,0,0,0-.01,0-.01,0-.02.02-.01,0,0,.02,0,.03,0,.01,0,.02.01.02.02,0,0,.02.02.03.03,0,0,0,0,.01,0,0,0,.01.02.02.03,0,.01.01.01.02,0,.01-.01.02,0,.03,0,0,0,.01.02.02.03,0,0,0,0-.01,0,0,.01.01.02.02.02.01,0,.02.02.03.03-.01,0-.02,0-.02,0,0,0,0,.01,0,.02,0,0-.01,0-.02,0,0,0,0,.01,0,.02,0,.02,0,.02.02.03,0,0,.02,0,.02.01,0,0,0,.01.01.02-.02,0-.03,0-.05,0,0,0,0,.01,0,.02.02.02.05-.01.06.02h-.03s0,.01,0,.02c-.02,0-.04,0-.06-.01,0,.03,0,.04-.03.04,0,0,.02,0,.03.01,0,0-.01,0-.02.01,0,0-.01,0-.02,0,0,0,0,.01,0,.02-.01,0-.02,0-.03,0,0,.01,0,.02.01.04,0,0-.01,0-.02,0,0,0,0,0-.01,0,0,0,0,0,0,.01,0,0,0,.01,0,.02,0,0-.01,0-.02,0,0,0,0,0-.01.02-.01-.02-.02-.03-.03-.05,0,.03-.03.04-.06.04-.01,0-.03,0-.04.01-.01.01-.04,0-.05,0,0,0-.02-.01-.03-.02.03.02,0,.03,0,.05,0,0-.01,0-.02-.01,0,0-.01,0-.02,0,0,0,0-.02,0-.03,0,0-.01,0-.02,0-.03.01-.04,0-.06-.02,0,0-.01-.01-.02-.02.03.03,0,.04,0,.06-.01,0-.02-.01-.02-.02,0,0-.01,0-.02,0,0,0,0,0,0-.01,0,0,0,0,0-.01,0,0-.01,0-.02,0,0,0,0,0-.01,0,0-.01,0-.03,0-.04-.02,0-.03-.01-.03-.03,0,0,0,0-.01,0,0,0,0-.01,0-.03,0,0-.01,0-.02,0,0-.01,0-.03,0-.04.01,0,.02-.01.03-.02,0,0,0,0,0,0-.02,0-.02,0-.02.03ZM16.92,8.67s0,0,0,0c0,0-.02.02-.03.03,0,0,0,0,0,0,0,0,.03,0,.03-.03Z"/>
            <path class="st29" d="M16.75,8.14v-.02s0,0,0,0c0,0,0,.01,0,.01-.01,0-.03,0-.04,0h0s0,0,0,0c0,0,0,0,0-.01-.01,0-.02,0-.03.01,0,0,0-.01,0-.02,0,0-.01,0-.02,0,0-.02.01-.02.02-.02,0,0,.02,0,.03,0,0,0-.02-.01-.02-.02,0,0,0,0,0,0-.01,0-.02,0-.03,0,0-.02,0-.03.02-.04,0,0,.02,0,.03,0,0,0,0,.02,0,.03,0,0,.02-.02.03-.03,0-.01-.02-.03,0-.05.02,0,.04.01.06.02,0-.03.02-.03.04-.03,0,0,.02-.01.03-.02.01-.02.02-.03.04-.01,0,0,0-.02,0-.03.03,0,.02.02.02.04.02,0,.02-.05.04,0,0-.02,0-.03,0-.04h-.02s0-.03,0-.04c0,0-.01,0-.02,0,0-.03.05-.07.09-.06,0-.02,0-.03.02-.04.02.01,0,.04,0,.05.01,0,.02-.01.03-.01,0,0,.02,0,.03,0,0,0,.01-.02.02-.04,0,0,.01.01.02.01,0,0,0-.01.01-.02,0,0,0,0,0,0,0,.01,0,.03,0,.04,0-.01.01-.02.01-.03,0-.02.02-.03.04-.01,0,0,0,0,.01,0,0,.02-.01.03-.02.04,0,0,0,0,0,0,.01-.01.02-.03.03-.04,0-.01-.01-.03,0-.04.02.02.05.04.07.06,0,0,.01,0,.02,0,0-.03,0-.02.03-.02,0,0,.01,0,.02,0,.01,0,.02,0,.02.02,0,0,0,0,0,0,0,0,0,0,0,0,0-.01,0-.02,0-.03h0s.01.02.01.03c0,.01,0,.03-.03.03,0,0,0,0,0,0,0,0,.02,0,.03,0,0-.03,0-.03.03-.02,0,0,0,0,.01,0,0,0,0,0,0,0,0,0,0,0,0,0,0,.02.03.02.02.05,0,0-.02,0-.03-.01-.01-.02-.02-.02-.04,0,.03,0,.06.01.06.05,0,0-.02,0-.02,0,0,.01,0,.02,0,.03,0,0-.01,0-.02-.01,0,0,0,.01-.01.02,0,0-.01-.02-.02-.03,0,.01,0,.02,0,.03,0,0,0,0,0,0,0,0,0,0,0-.01,0,0-.01,0-.02,0,0,0,0,.01-.02.02,0,0,0,0,0,0,0,0,0,.02,0,.03,0,0-.01,0-.02,0-.01,0,0,.04-.02.03-.01,0-.02,0-.03.01,0,0,0,0,0,0,0,0-.01.01-.02.02,0,0,0-.01-.02-.02,0,.02,0,.04-.03.04,0,0,0,.01,0,.02-.01,0-.03,0-.05,0,0,0,0,.01,0,.02h0s0,0,0-.01c0,0,0,0,0,.02,0,0,0-.01-.01-.02,0,0,0,0,0,0,0,0-.02,0-.02,0,0,0,0,0,0,0-.02,0-.02,0-.01-.02h-.04s0,0,0,.02c-.02,0-.04,0-.06,0,0,.01,0,.02,0,.03,0,0,0,0,0,0,0,0,0-.02,0-.03,0,0,0,.02,0,.02-.01,0-.02,0-.03,0,0,0-.01.02-.02,0,0,0-.01.01-.01.02,0-.01-.02-.02-.02-.03-.03.02-.05.04-.08.04,0,0,0,.01,0,.02,0,0-.01,0-.02,0,0,0,0,0,0-.01,0,0,0,.02,0,.02,0,0,0,0,0,0Z"/>
            <path class="st29" d="M18.61,8.91s.04.03.04.06c0,0-.02,0-.03,0,0,.01,0,.02,0,.04-.01,0-.02,0-.02,0,0,0,0,0,0,0,0,0,0,.01,0,.02,0,0-.01,0-.02,0,0,0-.01,0-.02.01,0,0,0-.01-.01-.02,0,0,0,.02-.02.03-.02-.03-.04,0-.06-.01,0,.02.01.03.02.04.02-.01.03,0,.04.02,0,0-.02,0-.03,0,0,0,0,.01,0,.02-.04,0-.05-.01-.04-.05h-.03s.01.02,0,.03c0,.01-.01.02-.02.03,0,0-.01-.01-.02-.02,0,0,0,0-.01,0,0,0,0,0,0,0,0-.01,0-.02,0-.04,0,0-.02,0-.03,0,0-.01,0-.02,0-.03-.02-.02-.03-.04-.05-.06,0,0-.02,0-.03.01,0,0,0-.01,0-.02,0,0-.02,0-.03,0,0-.03.03-.02.05-.02,0,0,0,0,0,0h-.04s0,0,0-.02c0,0-.02,0-.03,0,.02-.02.03-.03.04-.04-.01,0-.02,0-.03,0,0-.04,0-.04.04-.04h-.02s0-.01,0-.02h-.02s.04,0,.06-.03c0-.02-.04,0-.05-.02,0-.03.03-.04.05-.05,0,0,.02,0,0-.01,0,0,.01,0,.02,0,0,0,.01,0,.02-.01,0-.02.02-.04.05-.05,0-.02,0-.03.03-.02,0,0,0,0,.01,0,0,0,.02,0,.02,0,0,0,0,.02,0,.03,0,0,.02,0,.03,0-.04-.04-.04-.05,0-.07,0,.01,0,.02.01.04,0,0,.02,0,.03,0,0,0,0,0,0,0,0,.01.02.02.03.04.03,0,.08.03.09.06,0,0-.01,0-.02,0,0,.01.02.03.03.04,0,0,.01-.01.02-.01,0,0,.01,0,.01.01,0,0,0,.01.01.02-.02,0-.03,0-.05,0,0,0,0,.01,0,.02.01,0,.03,0,.04,0,0,0,0,.02.02.04h-.06s.01.02.02.03c.02,0,.03,0,.04.02,0,0,0,0-.01,0,0,0,0,0-.01,0-.02.01-.03.03-.05.04ZM18.37,8.65s.03.02.04,0c0,0-.02,0-.03-.01,0,0,0,0-.01,0Z"/>
            <path class="st29" d="M16.66,8.49s-.02.04-.05.03c0-.01,0-.02.01-.03,0,0,.01,0,.02,0,0,0,.01,0,.02.01Z"/>
            <path class="st29" d="M17.28,7.78s-.03-.02-.02-.03c0,0,0-.02.01-.02,0,0,.02,0,.02.01,0,.01,0,.02,0,.04Z"/>
            <path class="st29" d="M17.21,8.61s-.02-.03,0-.05c.03.01.03.03,0,.05Z"/>
            <path class="st29" d="M16.68,8.49s-.02-.03,0-.05c.03,0,.03.02,0,.05Z"/>
            <path class="st29" d="M18.44,9.13s0-.02,0-.04c.02.01.02.02,0,.04Z"/>
            <path class="st29" d="M16.95,9.09s.01.02,0,.03c0,0,0-.02,0-.03,0,0,0,0,0,0Z"/>
          </g>
          <path class="st0" d="M16.55,8.04c-.13.14-.23.3-.29.48-.03.09-.05.18-.05.27,0,.09,0,.19.01.28.05.37.18.73.42,1.02.12.14.26.27.41.36.16.1.33.16.51.2.18.04.37.05.55.04.19,0,.37-.03.55-.09.02,0,.04-.01.07-.02.02,0,.04-.01.07-.02.04-.02.09-.03.13-.05.08-.04.17-.08.24-.13.08-.05.15-.11.22-.17.07-.06.13-.13.18-.21.11-.15.19-.32.24-.49.03-.09.05-.18.06-.27.01-.09.02-.18.02-.28,0-.18-.03-.37-.09-.54-.06-.17-.16-.33-.28-.47-.12-.14-.27-.25-.44-.32-.17-.08-.35-.12-.54-.12h0s0,0,0,0c-.13-.02-.27-.03-.4-.03-.07,0-.13,0-.2,0-.07,0-.13.02-.19.04h0s0,0,0,0c-.08,0-.15.02-.23.03-.07.01-.15.03-.22.05-.07.02-.15.04-.22.07-.07.03-.14.07-.2.11.06-.05.13-.09.19-.12.07-.03.14-.06.22-.08.07-.02.15-.04.22-.06.08-.01.15-.03.23-.04h0c.06-.03.13-.04.2-.05.07,0,.14-.01.21-.01.07,0,.14,0,.2,0,.07,0,.14.01.2.02h0c.19,0,.38.04.56.11.17.08.33.19.46.33.13.14.23.31.29.49.06.18.09.37.09.56,0,.1,0,.19-.02.29-.01.09-.03.19-.06.28-.06.18-.14.36-.25.51-.06.08-.12.15-.19.22-.07.07-.15.12-.23.18-.08.05-.16.1-.25.14-.04.02-.09.04-.13.05-.02,0-.05.01-.07.02-.02,0-.05.01-.07.02-.18.05-.37.08-.56.09-.19,0-.38,0-.57-.04-.19-.04-.37-.11-.53-.21-.16-.1-.3-.23-.42-.38-.12-.15-.21-.32-.28-.5-.07-.18-.11-.36-.13-.55,0-.09-.01-.19,0-.28,0-.09.03-.19.06-.28.06-.18.17-.34.3-.47Z"/>
          <path class="st22" d="M19.12,7.79s-.04-.02-.07-.03c-.18.03-.32.07-.39.1.05.02.12.05.21.09.11-.03.23-.06.36-.09-.04-.03-.08-.05-.11-.07Z"/>
          <ellipse class="st1" cx="17.91" cy="8" rx=".14" ry=".09"/>
        </g>
      </g>
      <g id="_x28__x2F_techno_x2F_math_x2F_colours_x2F_L1_x2F_RED_x2F_strawberry.mp3_x29_1" data-name="_x28__x2F_techno_x2F_math_x2F_colours_x2F_L1_x2F_RED_x2F_strawberry.mp3_x29_">
        <path class="st4" d="M17.02,1.11c-.09.05-.17.11-.24.18-.19.18-.32.43-.4.72-.12.43-.08.84.07,1.22.24.62.93,1.64,1.63,1.66.69-.02,1.39-1.04,1.63-1.66.15-.38.19-.79.07-1.22-.08-.28-.22-.53-.4-.72-.07-.07-.15-.13-.24-.18-.2-.11-.44-.15-.71-.09-.11.02-.22.06-.34.12-.12-.06-.23-.1-.34-.12-.27-.06-.51-.02-.71.09"/>
        <path class="st2" d="M17.02,1.11c-.09.05-.17.11-.24.18-.19.18-.32.43-.4.72-.09.31-.09.61-.03.89l.03-.04s-.03-2.07,1.7-1.43c0,0,1.42-.77,1.74,1.34.04-.25.02-.5-.05-.77-.08-.28-.22-.53-.4-.72-.07-.07-.15-.13-.24-.18-.2-.11-.44-.15-.71-.09-.11.02-.22.06-.34.12-.12-.06-.23-.1-.34-.12-.27-.06-.51-.02-.71.09"/>
        <path class="st3" d="M16.32,2.77c.02.15.06.3.12.45.24.62.93,1.64,1.63,1.66.69-.02,1.39-1.04,1.63-1.66.06-.15.1-.3.12-.45-.36.6-1.05,1.35-1.75,1.36-.69-.02-1.38-.76-1.75-1.36"/>
        <path class="st6" d="M16.88,4.02c.32.45.75.86,1.19.87.57-.02,1.13-.7,1.45-1.29-.09.16-.94,1.57-2.64.42"/>
        <path class="st5" d="M19.05,2.46s-.06.05-.05.11c0,.06.04.1.07.1.03,0,.06-.05.05-.11,0-.06-.04-.1-.07-.1"/>
        <path class="st5" d="M19.5,1.97s-.05.06-.03.12c.02.05.06.09.09.08.03,0,.05-.06.03-.12-.02-.05-.06-.09-.09-.08"/>
        <path class="st5" d="M19.11,1.95s-.05.06-.03.11c.01.05.05.09.08.08.03,0,.05-.06.03-.11-.01-.05-.05-.09-.08-.08"/>
        <path class="st5" d="M18.59,2.06s-.05.06-.03.11c.02.05.05.09.09.08.03,0,.05-.06.03-.11-.02-.05-.05-.09-.09-.08"/>
        <path class="st5" d="M18.23,1.9s-.05.06-.04.12c.01.06.05.1.09.09.04,0,.05-.06.04-.12-.01-.06-.05-.1-.09-.09"/>
        <path class="st5" d="M19.17,1.33s-.03.07,0,.12c.03.05.08.07.11.05.03-.02.03-.07,0-.12-.03-.05-.08-.07-.11-.05"/>
        <path class="st5" d="M18.75,1.58s-.03.08,0,.13c.03.05.08.07.12.05.03-.02.03-.08,0-.13-.03-.05-.08-.07-.12-.05"/>
        <path class="st5" d="M18.2,1.34s-.05.07-.04.13c.02.06.06.1.1.09.04-.01.05-.07.04-.13s-.06-.1-.1-.09"/>
        <path class="st5" d="M18.62,1.14s-.01.07.02.11c.04.04.09.05.11.03.02-.02.01-.07-.02-.11-.04-.04-.09-.05-.11-.03"/>
        <path class="st5" d="M19.33,2.94s-.08.04-.09.1c-.01.06,0,.12.05.13.04,0,.08-.04.09-.1.01-.06,0-.12-.05-.13"/>
        <path class="st5" d="M19.32,3.5s-.07.02-.09.07c-.02.05,0,.1.02.11.03.01.07-.02.09-.07.02-.05,0-.1-.02-.11"/>
        <path class="st5" d="M18.86,3.52s-.06.02-.08.06c-.02.04,0,.09.02.1.03,0,.06-.02.08-.06.02-.04,0-.09-.02-.1"/>
        <path class="st5" d="M18.47,3.27s-.07.04-.08.1c0,.06.02.11.05.12.04,0,.07-.04.08-.1,0-.06-.02-.11-.05-.12"/>
        <path class="st5" d="M18.91,4.03s-.07.01-.09.05c-.02.04-.02.09,0,.1.03.01.07-.01.09-.05.02-.04.02-.09,0-.1"/>
        <path class="st5" d="M18.42,3.98s-.06.04-.07.09c0,.05.02.1.05.1.03,0,.06-.04.07-.09,0-.05-.02-.1-.05-.1"/>
        <path class="st5" d="M18.25,3.7s-.05.02-.06.06c0,.04,0,.07.03.08.02,0,.05-.02.06-.06,0-.04,0-.07-.03-.08"/>
        <path class="st5" d="M18.44,4.4s-.07.03-.08.08c-.01.05,0,.1.03.11.03,0,.07-.03.08-.08.01-.05,0-.1-.03-.11"/>
        <path class="st5" d="M18.79,3.01s-.06.03-.07.07c0,.05,0,.09.03.09.03,0,.06-.03.07-.07s0-.09-.03-.09"/>
        <path class="st5" d="M18.36,2.59s-.06.06-.05.11c0,.06.04.1.08.1.04,0,.06-.06.05-.11,0-.06-.04-.1-.08-.1"/>
        <path class="st5" d="M19.65,2.68s-.07.04-.07.1c0,.06.02.1.06.1.03,0,.07-.04.07-.1,0-.06-.02-.1-.06-.1"/>
        <path class="st5" d="M17.09,2.46s.06.05.05.11c0,.06-.04.1-.07.1-.03,0-.06-.05-.05-.11,0-.06.04-.1.07-.1"/>
        <path class="st5" d="M16.64,1.97s.05.06.03.12c-.02.05-.06.09-.09.08-.03,0-.05-.06-.03-.12.02-.05.06-.09.09-.08"/>
        <path class="st5" d="M17.03,1.95s.05.06.03.11c-.01.05-.05.09-.08.08-.03,0-.05-.06-.03-.11.01-.05.05-.09.08-.08"/>
        <path class="st5" d="M17.55,2.06s.05.06.03.11c-.02.05-.05.09-.09.08-.03,0-.05-.06-.03-.11.02-.05.05-.09.09-.08"/>
        <path class="st5" d="M17.91,1.9s.05.06.04.12c-.01.06-.05.1-.09.09-.04,0-.05-.06-.04-.12.01-.06.05-.1.09-.09"/>
        <path class="st5" d="M16.97,1.33s.03.07,0,.12c-.03.05-.08.07-.11.05-.03-.02-.03-.07,0-.12.03-.05.08-.07.11-.05"/>
        <path class="st5" d="M17.39,1.58s.03.08,0,.13c-.03.05-.08.07-.12.05-.03-.02-.03-.08,0-.13.03-.05.08-.07.12-.05"/>
        <path class="st5" d="M17.94,1.34s.05.07.04.13c-.02.06-.06.1-.1.09-.04-.01-.05-.07-.04-.13s.06-.1.1-.09"/>
        <path class="st5" d="M17.51,1.14s.01.07-.02.11c-.04.04-.09.05-.11.03-.02-.02-.01-.07.02-.11.04-.04.09-.05.11-.03"/>
        <path class="st5" d="M16.81,2.94s.08.04.09.1c.01.06,0,.12-.05.13-.04,0-.08-.04-.09-.1-.01-.06,0-.12.05-.13"/>
        <path class="st5" d="M16.82,3.5s.07.02.09.07c.02.05,0,.1-.02.11-.03.01-.07-.02-.09-.07-.02-.05,0-.1.02-.11"/>
        <path class="st5" d="M17.28,3.52s.06.02.08.06c.02.04,0,.09-.02.1-.03,0-.06-.02-.08-.06-.02-.04,0-.09.02-.1"/>
        <path class="st5" d="M17.67,3.27s.07.04.08.1c0,.06-.02.11-.05.12-.04,0-.07-.04-.08-.1,0-.06.02-.11.05-.12"/>
        <path class="st5" d="M17.23,4.03s.07.01.09.05c.02.04.02.09,0,.1-.03.01-.07-.01-.09-.05-.02-.04-.02-.09,0-.1"/>
        <path class="st5" d="M17.72,3.98s.06.04.07.09c0,.05-.02.1-.05.1-.03,0-.06-.04-.07-.09,0-.05.02-.1.05-.1"/>
        <path class="st5" d="M17.89,3.7s.05.02.06.06c0,.04,0,.07-.03.08-.02,0-.05-.02-.06-.06,0-.04,0-.07.03-.08"/>
        <path class="st5" d="M17.7,4.4s.07.03.08.08c.01.05,0,.1-.03.11-.03,0-.07-.03-.08-.08-.01-.05,0-.1.03-.11"/>
        <path class="st5" d="M17.35,3.01s.06.03.07.07c0,.05,0,.09-.03.09-.03,0-.06-.03-.07-.07,0-.05,0-.09.03-.09"/>
        <path class="st5" d="M17.78,2.59s.06.06.05.11c0,.06-.04.1-.08.1-.04,0-.06-.06-.05-.11,0-.06.04-.1.08-.1"/>
        <path class="st5" d="M16.49,2.68s.07.04.07.1c0,.06-.02.1-.06.1-.03,0-.07-.04-.07-.1,0-.06.02-.1.06-.1"/>
        <path class="st24" d="M16.87,1.16s.08-.06.13-.08c.11-.06.23-.1.35-.11.12-.01.25,0,.38.02.06.01.11.03.17.05.05.02.11.04.16.07.05-.03.11-.05.16-.07.06-.02.12-.04.17-.05.14-.03.26-.04.38-.02.13.02.25.05.35.11.04.02.09.05.13.08.04.03.08.06.12.1.09.09.18.2.25.32.07.13.13.26.17.41.06.21.08.42.07.62-.01.21-.06.42-.14.62-.14.36-.43.85-.78,1.21-.27.27-.57.47-.88.48h0c-.31,0-.62-.21-.88-.48-.35-.36-.64-.85-.78-1.21-.08-.2-.13-.41-.14-.62-.01-.2.01-.41.07-.62.04-.15.1-.28.17-.41.07-.12.15-.23.25-.32.04-.04.08-.07.12-.1M17.04,1.15s-.08.05-.12.08c-.04.03-.08.06-.11.09-.09.09-.17.19-.23.31-.07.12-.12.25-.16.39-.06.2-.08.4-.07.6.01.21.06.4.13.6.14.35.42.83.76,1.18.26.26.54.45.83.46.29,0,.58-.2.83-.46.34-.35.62-.83.76-1.18.08-.19.12-.39.13-.6.01-.19-.01-.39-.07-.6-.04-.14-.09-.27-.16-.39-.07-.12-.14-.22-.23-.31-.04-.03-.07-.07-.11-.09-.04-.03-.08-.05-.12-.08-.1-.05-.21-.09-.33-.1-.11-.01-.23,0-.36.02-.05.01-.11.03-.16.05-.05.02-.11.04-.17.07h-.02s-.02,0-.02,0c-.06-.03-.11-.05-.17-.07-.06-.02-.11-.04-.16-.05-.13-.03-.25-.03-.36-.02-.12.01-.23.05-.33.1Z"/>
      </g>
      <g id="_x28__x2F_techno_x2F_math_x2F_colours_x2F_L1_x2F_RED_x2F_apple.mp3_x29_1" data-name="_x28__x2F_techno_x2F_math_x2F_colours_x2F_L1_x2F_RED_x2F_apple.mp3_x29_">
        <text class="st17" transform="translate(3.15 5.84)"><tspan x="0" y="0">Apple</tspan></text>
      </g>
    </g>
  </g>
</svg>