<?xml version="1.0" encoding="UTF-8"?>
<svg id="Layer_1" xmlns="http://www.w3.org/2000/svg" version="1.1" xmlns:xlink="http://www.w3.org/1999/xlink" viewBox="0 0 22 12">
  <!-- Generator: Adobe Illustrator 29.1.0, SVG Export Plug-In . SVG Version: 2.1.0 Build 142)  -->
  <defs>
    <style>
      .st0 {
        fill: #9db93c;
      }

      .st1 {
        fill: #1b803f;
      }

      .st2 {
        fill: #6ea642;
      }

      .st3, .st4, .st5 {
        fill: none;
      }

      .st3, .st4, .st6 {
        stroke: #214a22;
        stroke-width: .05px;
      }

      .st3, .st6, .st7 {
        stroke-miterlimit: 10;
      }

      .st8 {
        fill: #b2a032;
      }

      .st9 {
        fill: #599140;
      }

      .st10 {
        fill: #d8e2a6;
      }

      .st4 {
        stroke-linejoin: round;
      }

      .st11 {
        fill: #8bbf3f;
      }

      .st12 {
        fill: #c9ab72;
      }

      .st13 {
        fill: #969895;
      }

      .st14 {
        fill: #c32b28;
      }

      .st15 {
        fill: #d88c68;
      }

      .st16 {
        fill: #76ba43;
      }

      .st17 {
        fill: #d3db81;
      }

      .st18 {
        fill: #bf3027;
      }

      .st19 {
        fill: #080707;
      }

      .st20 {
        fill: #458940;
      }

      .st21 {
        fill: #476730;
      }

      .st22 {
        fill: #81c454;
      }

      .st23 {
        fill: #8fc03f;
      }

      .st24 {
        fill: #d3705b;
      }

      .st25 {
        fill: #1b1512;
      }

      .st26 {
        fill: #92ad3c;
      }

      .st27 {
        fill: #6ebe45;
      }

      .st28 {
        fill: #b2b735;
      }

      .st29 {
        fill: #519542;
      }

      .st30 {
        fill: #9ccb43;
      }

      .st31 {
        fill: #fab8a4;
      }

      .st32 {
        fill: #df4a26;
      }

      .st33 {
        fill: url(#linear-gradient1);
      }

      .st34 {
        fill: #316c35;
      }

      .st35 {
        fill: #37763a;
      }

      .st36 {
        fill: #e1ae80;
      }

      .st37 {
        fill: #417b3b;
      }

      .st38 {
        fill: #69a042;
      }

      .st39 {
        fill: #9bb33b;
      }

      .st40 {
        fill: #b8d670;
      }

      .st41 {
        fill: #eecf7f;
      }

      .st42 {
        fill: #c5dd7e;
      }

      .st43 {
        fill: #72ad43;
      }

      .st44 {
        fill: #a2bf3b;
      }

      .st45 {
        fill: #9bb93d;
      }

      .st46 {
        fill: #bf8c2c;
      }

      .st47 {
        fill: #242a19;
      }

      .st48 {
        fill: #559141;
      }

      .st49 {
        fill: #bfd530;
      }

      .st50 {
        fill: #4b8b41;
      }

      .st51 {
        fill: #639f42;
      }

      .st52 {
        fill: #e4ba60;
      }

      .st53 {
        fill: #eae3b9;
      }

      .st54 {
        fill: #214a22;
      }

      .st55 {
        fill: #f8e8c5;
      }

      .st56 {
        fill: #2c5428;
      }

      .st57 {
        fill: #2c5227;
      }

      .st58 {
        fill: #e0c781;
      }

      .st59 {
        fill: #2e7138;
      }

      .st60 {
        fill: #fff;
      }

      .st60, .st61 {
        font-family: FefdyTypeRegular, 'Fefdy Type';
      }

      .st60, .st61, .st62 {
        font-size: .61px;
      }

      .st63 {
        fill: #bed631;
      }

      .st64 {
        fill: #e2ae5e;
      }

      .st65 {
        fill: #b77137;
      }

      .st66 {
        fill: #44793a;
      }

      .st67 {
        fill: #98b43c;
      }

      .st68 {
        fill: #fbcccc;
      }

      .st69 {
        fill: #efebc4;
      }

      .st70 {
        fill: #7fc342;
      }

      .st71 {
        fill: #f8a18b;
      }

      .st72 {
        fill: #91b13d;
      }

      .st73 {
        fill: #2f6834;
      }

      .st74 {
        font-size: .61px;
      }

      .st74, .st61, .st62 {
        fill: #231f20;
      }

      .st74, .st62 {
        font-family: KGLettersSemibold, KGLettersSemibold;
      }

      .st75 {
        fill: #7db342;
      }

      .st76 {
        fill: #cd9842;
      }

      .st77 {
        fill: #a2cc3a;
      }

      .st78 {
        fill: #9cca49;
      }

      .st79 {
        fill: #d7933e;
      }

      .st80 {
        fill: #9ec555;
      }

      .st6, .st81 {
        fill: #7fc142;
      }

      .st82 {
        fill: #f2d186;
      }

      .st83 {
        fill: #5a9641;
      }

      .st84 {
        fill: #8ec03f;
      }

      .st85 {
        fill: #6ca142;
      }

      .st86 {
        fill: #4c8a3f;
      }

      .st87 {
        fill: #1b6734;
      }

      .st88 {
        fill: #deb855;
      }

      .st89 {
        fill: #b0d240;
      }

      .st90 {
        fill: #409143;
      }

      .st91 {
        fill: #9cbd4c;
      }

      .st92 {
        fill: url(#linear-gradient);
      }

      .st7 {
        fill: #03a550;
        stroke: #010101;
        stroke-width: .06px;
      }

      .st93 {
        fill: #4bb148;
      }

      .st94 {
        fill: #8b3621;
      }

      .st95 {
        fill: #599542;
      }
    </style>
    <linearGradient id="linear-gradient" x1="-1165.98" y1="1189.95" x2="-1165.92" y2="1189.97" gradientTransform="translate(2865.44 2906.99) scale(2.44 -2.44)" gradientUnits="userSpaceOnUse">
      <stop offset="0" stop-color="#86c440"/>
      <stop offset="1" stop-color="#679d41"/>
    </linearGradient>
    <linearGradient id="linear-gradient1" x1="-1166.04" y1="1189.35" x2="-1166.47" y2="1189.74" gradientTransform="translate(2865.44 2906.99) scale(2.44 -2.44)" gradientUnits="userSpaceOnUse">
      <stop offset="0" stop-color="#507b38"/>
      <stop offset="1" stop-color="#469844"/>
    </linearGradient>
  </defs>
  <rect class="st68" x="-1.05" y="-.83" width="24.29" height="14.48"/>
  <g id="_x28__x2F_techno_x2F_math_x2F_colours_x2F_L1_x2F_GREEN_x2F_Brocoli..mp3_x29_">
    <text class="st74" transform="translate(2.46 11.46)"><tspan x="0" y="0">Broccoli</tspan></text>
  </g>
  <g id="_x28__x2F_techno_x2F_math_x2F_colours_x2F_L1_x2F_GREEN_x2F_Leaf..mp3_x29_">
    <path class="st73" d="M16.82,8.8c0-.07,0-.15,0-.22,0-.07.01-.15.02-.22.02-.14.07-.26.12-.32.03,0,.05.03.06.06.12-.33.31-.71.56-.87.02.02.03.05.03.08.06-.07.12-.14.19-.2.07-.06.14-.12.21-.18.15-.11.29-.19.41-.22.01.03,0,.07-.03.12.07-.04.14-.07.2-.1.03-.01.06-.03.09-.04.03-.01.06-.02.09-.03.11-.03.21-.04.29-.04,0,.03,0,.05-.02.08.04-.01.08-.03.12-.04.04,0,.09-.02.13-.02.09-.01.18,0,.25,0,.01.08,0,.17,0,.25,0,.04-.01.08-.02.12,0,.04-.02.08-.03.12.02-.02.04-.03.07-.02.01.07.01.16,0,.27,0,.03,0,.05-.01.08,0,.03,0,.06-.01.09-.01.06-.03.12-.04.18.03-.02.07-.04.1-.03,0,.11-.02.24-.06.37-.02.07-.04.13-.06.2-.02.06-.04.13-.07.19.03,0,.05,0,.08.01-.01.22-.16.45-.3.65.03,0,.06,0,.08.02,0,.06-.05.13-.11.2-.03.04-.07.07-.11.11-.04.04-.08.07-.12.1.04,0,.07.02.08.04-.04.09-.25.19-.5.31.03.02.07.04.07.07-.03.02-.13.06-.24.09-.06.02-.11.03-.16.04-.05.01-.1.02-.13.02-.25.02-.59-.02-.82-.13-.03-.01-.07-.04-.11-.07-.04-.03-.09-.08-.13-.12-.09-.09-.16-.19-.17-.24.02-.04.06-.05.1-.06-.15-.29-.23-.59-.19-.73.03-.01.06,0,.09.01"/>
    <path class="st50" d="M16.82,8.8c0-.07,0-.15,0-.22,0-.07.01-.15.02-.22.02-.14.07-.26.12-.32.03,0,.05.03.06.06.12-.33.31-.71.56-.87.02.02.03.05.03.08.06-.07.12-.14.19-.2.07-.06.14-.12.21-.18.15-.11.29-.19.41-.22.01.03,0,.07-.03.12.07-.04.14-.07.2-.1.03-.01.06-.03.09-.04.03-.01.06-.02.09-.03.11-.03.21-.04.29-.04,0,.03,0,.05-.02.08.04-.01.08-.03.12-.04.04,0,.09-.02.13-.02.09-.01.18,0,.25,0h0s-.05.04-.13.12c-.08.07-.19.19-.32.33-.03.04-.06.07-.1.11-.03.04-.07.08-.1.12-.03.04-.07.09-.1.13-.02.02-.04.04-.05.07-.02.02-.03.05-.05.07-.03.05-.07.1-.1.15-.03.05-.07.1-.1.16-.07.1-.13.21-.2.32-.25.44-.44.91-.54,1.28-.02.09-.05.18-.06.25-.02.08-.03.14-.04.2-.01.05-.02.1-.02.13,0,0,0,.03,0,.04-.15-.02-.29-.06-.4-.11-.03-.01-.07-.04-.11-.07-.04-.03-.09-.08-.13-.12-.09-.09-.16-.19-.17-.24.02-.04.06-.05.1-.06-.15-.29-.23-.59-.19-.73.03-.01.06,0,.09.01"/>
    <path class="st70" d="M17.1,8.63c.05.1.16.28.22.36.1.13.36.33.44.37.05-.16.08-.25.24-.62-.18-.1-.43-.48-.46-.92,0-.16.03-.36.05-.41-.01.06-.02.15-.03.23-.01.16,0,.26.07.46.09.25.26.48.4.57.14-.29.17-.34.37-.67-.11-.27-.19-.7-.11-.97.02-.06.04-.12.07-.18-.03.08-.07.18-.08.27-.02.19.03.53.16.82.12-.19.21-.32.4-.55-.03-.15,0-.38.1-.57.02-.03.04-.06.06-.1-.12.21-.17.39-.13.64.24-.3.42-.47.71-.74-.17.17-.38.35-.74.83.11.03.41-.07.63-.27-.21.2-.53.35-.65.3-.03.03-.22.29-.39.61.09.01.39,0,.65-.1.11-.05.29-.15.38-.22-.09.08-.26.19-.37.24-.24.11-.57.15-.7.13-.15.26-.29.57-.32.65.35,0,.7-.03,1.03-.16.12-.05.18-.09.27-.13-.13.07-.4.32-1.32.36,0,0-.14.35-.22.64.23,0,.37,0,.9-.22.17-.07.27-.12.38-.16-.08.04-.22.11-.24.11-.13.07-.56.27-.78.31-.07,0-.22.03-.29.03-.04.18-.03.12-.07.3.34.06.87-.15,1.12-.32-.23.18-.74.44-1.13.41-.04.27-.03.18-.05.45h-.13c.01-.16.02-.31.09-.58-.13-.05-.31-.14-.41-.24-.19-.18-.29-.59-.33-.69.2.47.29.69.76.84.02-.07.07-.27.08-.31-.08-.04-.36-.28-.46-.42-.06-.09-.16-.27-.2-.38-.02-.09-.1-.41-.07-.5-.02.09.07.4.1.49"/>
  </g>
  <g id="_x28__x2F_techno_x2F_math_x2F_colours_x2F_L1_x2F_GREEN_x2F_Leaf..mp3_x29_1" data-name="_x28__x2F_techno_x2F_math_x2F_colours_x2F_L1_x2F_GREEN_x2F_Leaf..mp3_x29_">
    <text class="st74" transform="translate(17.61 11.49)"><tspan x="0" y="0">Leaf</tspan></text>
  </g>
  <g id="_x28__x2F_techno_x2F_math_x2F_colours_x2F_L1_x2F_GREEN_x2F_Peas..mp3_x29_">
    <text class="st62" transform="translate(17.58 4.97)"><tspan x="0" y="0">Peas</tspan></text>
  </g>
  <g id="_x28__x2F_techno_x2F_math_x2F_colours_x2F_L1_x2F_GREEN_x2F_Frog..mp3_x29_">
    <text class="st62" transform="translate(2.9 5.28)"><tspan x="0" y="0">Frog</tspan></text>
  </g>
  <g id="_x28__x2F_techno_x2F_math_x2F_colours_x2F_L1_x2F_GREEN_x2F_Green..mp3_x29_">
    <path class="st7" d="M11.24,4.35c.35,0,.7.11.97.32.23.17.45.43.49.72.04.28-.09.54-.32.7-.05.04-.1.07-.15.09-.08.04-.23.08-.28.15-.02.03-.03.07-.04.1-.02.16.09.23.11.37,0,.06,0,.13-.03.17-.02.03-.06.06-.1.06-.03,0-.06,0-.09-.02-.07-.06-.08-.17-.07-.26,0-.05.02-.1.02-.15,0-.04-.03-.08-.06-.11-.03-.02-.06-.03-.1-.03-.06,0-.12.05-.15.1-.12.16-.16.48-.09.67.02.05.04.09.06.13.03.07.06.14.07.22.01.09,0,.19-.05.26-.03.03-.07.06-.11.06-.04,0-.08,0-.11-.04-.03-.03-.06-.07-.07-.11-.05-.14,0-.27.02-.41,0-.01,0-.03,0-.04,0-.01,0-.03,0-.04,0-.01,0-.03,0-.04,0-.01,0-.03,0-.04-.01-.12-.06-.26-.16-.33-.03-.03-.08-.04-.12-.04-.04,0-.07.02-.1.04-.1.07-.24.27-.27.39-.01.05-.01.1-.01.15,0,.09-.01.19-.08.26-.02.03-.06.05-.09.05-.03,0-.06,0-.08-.03-.03-.02-.04-.06-.05-.1-.03-.15.1-.24.16-.36,0,0,0,0,0-.02,0,0,0-.01,0-.02,0,0,0-.01,0-.02,0,0,0-.01,0-.02,0,0,0-.01,0-.02,0,0,0-.01,0-.02,0,0,0-.01,0-.02,0,0,0-.01,0-.02,0,0,0-.01,0-.02,0,0,0-.01,0-.02,0,0,0-.01,0-.02,0,0,0-.01,0-.02,0,0,0-.01,0-.02,0,0,0-.01,0-.02,0,0,0-.01,0-.02,0,0,0-.01,0-.02,0-.06-.02-.13-.06-.17-.03-.02-.06-.03-.1-.03-.04,0-.07.02-.09.04-.1.1-.06.25-.14.35-.02.03-.05.04-.09.05,0,0,0,0,0,0s0,0,0,0c0,0,0,0,0,0,0,0,0,0,0,0,0,0,0,0,0,0,0,0,0,0,0,0,0,0,0,0,0,0,0,0,0,0,0,0,0,0,0,0,0,0,0,0,0,0,0,0,0,0,0,0,0,0,0,0,0,0,0,0,0,0,0,0,0,0,0,0,0,0,0,0,0,0,0,0,0,0,0,0,0,0,0,0-.03-.03-.05-.07-.05-.11,0,0,0,0,0-.01,0,0,0,0,0-.01,0,0,0,0,0-.01,0,0,0,0,0-.01,0,0,0,0,0-.01,0,0,0,0,0-.01,0,0,0,0,0-.01,0,0,0,0,0-.01,0,0,0,0,0-.01,0,0,0,0,0-.01,0,0,0,0,0-.01,0,0,0,0,0-.01,0,0,0,0,0-.01s0,0,0-.01c0,0,0,0,0,0,0,0,0,0,0,0,.02-.02.04-.04.06-.06.04-.04.07-.09.07-.15,0-.03,0-.05-.03-.07-.05-.05-.12,0-.17.01,0,0-.02,0-.03,0,0,0-.02,0-.03,0-.09,0-.17-.05-.23-.11-.09-.09-.16-.2-.16-.33,0-.1.03-.19.09-.27.03-.03.06-.06.08-.1.02-.03.04-.06.06-.09.05-.09.08-.18.12-.28.09-.21.2-.39.36-.56,0-.01.02-.02.03-.03.01-.01.02-.02.03-.03.01,0,.02-.02.03-.03.01,0,.02-.02.03-.03.01,0,.02-.02.03-.03.01,0,.02-.02.03-.03.01,0,.02-.02.03-.03.01,0,.02-.02.04-.03.01,0,.02-.02.04-.02.01,0,.02-.02.04-.02.01,0,.02-.02.04-.02.01,0,.02-.01.04-.02.01,0,.03-.01.04-.02.01,0,.03-.01.04-.02.01,0,.03-.01.04-.02.01,0,.03-.01.04-.02.01,0,.03-.01.04-.02s.03-.01.04-.02c.01,0,.03-.01.04-.01.01,0,.03,0,.04-.01.01,0,.03,0,.04-.01.01,0,.03,0,.04-.01.01,0,.03,0,.04-.01.01,0,.03,0,.04,0,.01,0,.03,0,.04,0,.01,0,.03,0,.04,0,.01,0,.03,0,.04,0,.01,0,.03,0,.04,0,.01,0,.03,0,.04,0,.01,0,.03,0,.04,0,.01,0,.03,0,.04,0,.01,0,.03,0,.04,0Z"/>
    <g>
      <text class="st61" transform="translate(10.13 5.96)"><tspan x="0" y="0">Green</tspan></text>
      <text class="st60" transform="translate(10.13 5.96)"><tspan x="0" y="0">Green</tspan></text>
    </g>
  </g>
  <g id="_x28__x2F_techno_x2F_math_x2F_colours_x2F_L1_x2F_GREEN_x2F_Brocoli..mp3_x29_1" data-name="_x28__x2F_techno_x2F_math_x2F_colours_x2F_L1_x2F_GREEN_x2F_Brocoli..mp3_x29_">
    <g>
      <path class="st6" d="M3.79,9.41s.19-.8.19-.8l-.19.04s-.21.72-.37.78"/>
      <path class="st78" d="M4.47,8.54c-.22.33-.32.61-.36.85.09,0,.1.06.07.11s-.09.13-.08.33c.02.27.11.56.1.67-.02.15-.36.24-.69.24s-.67-.09-.69-.24c-.01-.11.08-.4.1-.67,0-.05,0-.11.01-.17,0-.16-.07-.24-.09-.27-.03-.05,0-.1.06-.09-.04-.22-.13-.47-.31-.74h.21s.22-.02.22-.02h.13c.14.33.13.76.3.81,0,0,.07.01.18,0,.17-.02.21-.6.41-.82l.14.04c-.07.16-.13.39-.13.39,0,0,.13-.25.21-.44l.22.04Z"/>
      <path class="st40" d="M3.92,9.23s.03-.07.05-.18c.02-.11.05-.21.03-.22-.02,0-.05.09-.08.21-.02.11-.02.19,0,.19Z"/>
      <path class="st40" d="M3.92,9.82s.04-.05.04-.17,0-.19-.02-.19-.05.08-.05.19.02.17.03.17Z"/>
      <path class="st81" d="M3.86,10.6s.16-.14.16-.14c-.1.03-.16.01-.17-.02-.02-.07-.02-.15-.01-.23,0-.12.08-.3.06-.3-.24.1.04.6-.25.62.02.06.19.08.21.06Z"/>
      <path class="st40" d="M4.05,10.41s.06-.04.05-.13-.03-.13-.08-.13c-.04,0-.07.06-.06.16,0,.08.05.1.08.1Z"/>
      <path class="st40" d="M2.94,10.37s.07-.03.08-.13c.01-.12-.01-.16-.04-.16s-.06.05-.07.17c0,.09.01.12.03.12Z"/>
      <path class="st40" d="M2.98,9.46c-.02-.34-.16-.58-.12-.6.07-.03.18.21.22.54.03.26-.01.43-.05.42s-.03-.14-.05-.36Z"/>
      <path class="st81" d="M4.1,9.83s0,.08.02.12l-.07.04-.03-.05c-.04-.32,0-.86.41-1.41h.05c-.24.36-.33.66-.36.91-.01.09-.06.16.04.12-.05.11-.04.22-.04.27Z"/>
      <path class="st81" d="M4.13,10.49s-.06.08-.18.12c-.12.04-.28.06-.44.06s-.32-.02-.44-.06c-.12-.04-.17-.09-.18-.12,0-.02,0-.05,0-.09.12.09.37.13.62.13s.49-.05.62-.13c0,.04,0,.07,0,.09Z"/>
      <path class="st81" d="M3.15,10.3s.01-.27-.08-.3c-.04-.01-.11-.03-.17-.04,0-.04.01-.09.02-.13,0,0,0,0,0,0,.08.08.19.01.25.11.09.14-.08.54.13.59,0,.05-.32,0-.33-.08.19.07.18-.15.18-.15Z"/>
      <path class="st81" d="M4.12,10c-.08.01-.18.03-.21.04-.1.03-.07.37-.07.37,0,0-.07-.31-.02-.43.06-.12.19-.04.28-.12h0s.01.1.02.15Z"/>
      <path class="st81" d="M3.48,9.35c-.01.18-.05.3-.12.26-.27-.17-.23-.68-.44-1.07h.09s.13,0,.13,0c.14.33.13.77.3.82,0,0,.01,0,.03,0Z"/>
      <path class="st81" d="M4.1,8.54c-.34.55-.27,1.16-.32,1.35l-.13-.56c.14-.08.19-.6.38-.81l.07.02Z"/>
      <path class="st4" d="M4.47,8.54c-.22.33-.32.61-.36.85.09,0,.1.06.07.11s-.09.13-.08.33c.02.27.11.56.1.67-.02.15-.36.24-.69.24s-.67-.09-.69-.24c-.01-.11.08-.4.1-.67,0-.05,0-.11.01-.17,0-.16-.07-.24-.09-.27-.03-.05,0-.1.06-.09-.04-.22-.13-.47-.31-.74h.21s.22-.02.22-.02h.13c.14.33.13.76.3.81,0,0,.07.01.18,0,.17-.02.21-.6.41-.82l.14.04c-.07.16-.13.39-.13.39,0,0,.13-.25.21-.44l.22.04Z"/>
      <path class="st78" d="M3.25,9.66c.07-.4.21-.81.13-1.23l.37.06c-.06.64-.02.84.02,1.16h-.52Z"/>
      <path class="st40" d="M3.43,9.58s-.04-.15-.02-.31c.01-.13.05-.37.08-.38.06-.02.05.15.03.39-.01.17-.05.31-.09.3Z"/>
      <path class="st81" d="M3.59,9.72c.01-.47.09-.81-.06-1.24h.22c-.06.64-.02.85.02,1.17,0,.11.03.23,0,.24l-.19-.16Z"/>
      <path class="st54" d="M3.25,9.66c.06-.42.18-.84.1-1.26.03,0,.4.06.43.07-.04.39-.05.79,0,1.18-.07-.38-.09-.78-.04-1.16l.02.03-.37-.06c.16-.12-.07,1.04-.13,1.2h0Z"/>
      <g>
        <path class="st78" d="M3.26,9.94s.02-.24.12-.28c.05-.02.09,0,.14,0,.06.01.12-.03.17,0,.05.03.09.14.11.25"/>
        <path class="st78" d="M3.26,9.94s.02-.24.12-.28c.05-.02.09,0,.14,0,.06.01.12-.03.17,0,.05.03.09.14.11.25"/>
        <path class="st40" d="M3.78,9.88c-.03-.07-.07-.15-.1-.17-.05-.03-.11.02-.17,0-.05,0-.09-.02-.14,0-.06.02-.09.11-.11.18.01-.07.04-.2.11-.23.05-.02.09,0,.14,0,.06.01.12-.03.17,0,.05.03.08.12.1.22Z"/>
        <path class="st54" d="M3.26,9.94c0-.15.07-.37.25-.3.05.02.17-.04.21.05.04.07.05.14.06.22-.02-.07-.04-.15-.08-.21-.05-.08-.11,0-.2,0-.18-.09-.23.12-.24.25h0Z"/>
        <path class="st54" d="M3.34,9.75c.06-.04.13,0,.18,0,.05.02.12-.05.18,0-.06-.04-.1.04-.18.04-.07,0-.11-.07-.18-.04,0,0,.07-.03,0,0Z"/>
      </g>
      <path class="st78" d="M3.85,10.44c-.02-.15-.02-.4.06-.45.07-.05.17,0,.2-.07,0,0,.04.02.05.07,0,.04-.02.08-.08.09-.05,0-.14-.04-.16.01-.04.19,0,.31-.07.36Z"/>
      <path class="st40" d="M4.16,9.97s-.02-.01-.02-.01c-.02.08-.15.03-.2.06-.06.03-.08.12-.1.25,0-.12.02-.25.07-.28.07-.05.17,0,.2-.07,0,0,.04.02.05.06Z"/>
      <path class="st54" d="M3.85,10.44c-.01-.15-.07-.4.1-.48.05-.02.13-.02.14-.05.01-.02,0-.03.04-.02.09.04.07.18-.02.19-.07.02-.14-.06-.19,0,.04-.07.13,0,.18-.03.06-.02.05-.1,0-.11,0,0,.05-.02.03,0-.06.07-.13.03-.18.05-.16.06-.11.32-.11.46h0Z"/>
      <path class="st78" d="M3.15,10.31c.03-.21,0-.31-.06-.34-.07-.04-.16,0-.19-.08,0,0-.06.01-.06.08,0,.02,0,.07.08.08.05,0,.15-.04.18.02.02.15-.01.25.05.24Z"/>
      <path class="st40" d="M3.06,10c-.07,0-.15,0-.18-.06,0,0-.01,0-.02.01.02-.04.06-.05.06-.05.03.07.11.04.19.08.05.02.07.09.07.21-.02-.15-.06-.18-.1-.18Z"/>
      <path class="st54" d="M3.15,10.31c0-.09.02-.19-.01-.28-.04-.11-.16-.02-.25-.12-.01-.01.03.01.03.01-.05,0-.07.1,0,.11.06.02.15-.04.2.03-.05-.06-.13,0-.2,0-.11,0-.1-.19.02-.2.01.1.18.04.23.16.03.09.01.19,0,.28h0Z"/>
      <path class="st40" d="M3.49,10.41c.05,0,.08-.12.08-.25,0-.14-.03-.25-.07-.25s-.07.09-.08.25c0,.11.01.26.07.26Z"/>
      <path class="st40" d="M3.68,10.37s.04-.08.04-.16c0-.14-.01-.31-.05-.31-.03,0-.05.14-.05.31,0,.07.02.17.05.17Z"/>
      <polygon class="st54" points="3.94 9.35 4.02 8.94 4.07 8.96 3.94 9.35 3.94 9.35"/>
      <path class="st54" d="M2.95,9.44c-.07-.13-.11-.13-.03-.15,0,0,.03.15.03.15h0Z"/>
      <polygon class="st54" points="4.06 9.59 4.09 9.39 4.14 9.4 4.06 9.59 4.06 9.59"/>
    </g>
    <g>
      <g>
        <path class="st93" d="M3.49,6.37c.2-.13.33-.05.39.05.28-.06.37.06.41.19.14.01.31.03.3.28.18.01.17.16.16.24.22.22.13.45.11.55-.16.73-1.38.33-1.38.33,0,0-1.21.41-1.38-.33-.1-.1-.18-.31,0-.45-.05-.15.05-.26.2-.24-.02-.35.25-.46.48-.44.05-.17.21-.2.37-.12.09-.12.23-.15.33-.06Z"/>
        <path class="st90" d="M4.87,7.69c-.16.73-1.38.33-1.38.33,0,0-1.21.41-1.38-.33-.08-.09-.16-.26-.06-.39.06-.04.15-.04.26.02.09-.09.32-.12.41.05.04-.02.09-.02.16,0,.13-.21.42-.24.59-.13.19-.16.39-.06.46.06.19-.05.31,0,.39.06.1-.15.31-.12.39-.03.05-.03.1-.05.14-.05.09.17.03.34.01.41Z"/>
        <path class="st22" d="M4.89,7.59c0-.12-.04-.3-.2-.43.01-.08.02-.19-.16-.21.03-.22-.17-.27-.28-.28-.02-.08-.14-.24-.38-.17-.07-.11-.18-.18-.37-.05-.11-.12-.22-.04-.31.05-.1-.07-.32-.05-.34.11-.29-.03-.44.16-.46.44-.11-.02-.25.06-.21.19-.1.07-.14.2-.14.3-.04-.1-.04-.23.08-.33-.05-.15.05-.26.2-.24-.02-.35.25-.46.48-.44.05-.17.21-.2.37-.12.09-.12.23-.15.33-.06.2-.13.33-.05.39.05.28-.06.37.06.41.19.14.01.31.03.3.28.18.01.17.16.16.24.17.17.16.34.13.46Z"/>
        <path class="st3" d="M3.49,6.37c.2-.13.33-.05.39.05.28-.06.37.06.41.19.14.01.31.03.3.28.18.01.17.16.16.24.22.22.13.45.11.55-.16.73-1.38.33-1.38.33,0,0-1.21.41-1.38-.33-.1-.1-.18-.31,0-.45-.05-.15.05-.26.2-.24-.02-.35.25-.46.48-.44.05-.17.21-.2.37-.12.09-.12.23-.15.33-.06Z"/>
        <path class="st90" d="M2.51,7.43c-.15-.08-.08-.35.1-.31,0,0-.02.03-.02.03-.02-.11.1-.19.18-.14-.1-.04-.18.07-.13.15-.16-.02-.25.15-.13.27h0Z"/>
        <path class="st90" d="M4.46,7.4c.12-.12.03-.29-.13-.27.05-.08-.03-.19-.13-.15.16-.09.23.2.16.11.19-.04.25.23.1.31h0Z"/>
        <g>
          <path class="st90" d="M3.81,6.83c-.04-.19-.25-.22-.35-.07-.04-.1-.2-.1-.24.02.04-.21.34-.06.23-.06.1-.18.36-.07.37.12h0Z"/>
          <path class="st90" d="M3.43,6.84v-.12c.09.02.04.02,0,.12h0Z"/>
        </g>
        <path class="st22" d="M2.86,6.93c-.07,0-.1-.05-.06-.1.05-.06.15-.05.17.02.02.05-.04.08-.1.08Z"/>
        <path class="st22" d="M3.43,6.61c-.06,0-.1-.04-.06-.08s.13-.05.15.02c.01.04-.03.07-.09.07Z"/>
        <path class="st22" d="M4.07,6.79c-.06,0-.09-.05-.06-.1.03-.06.14-.03.16.02s-.03.09-.1.08Z"/>
        <path class="st22" d="M3.95,6.78s-.06-.05-.03-.08c.03-.04.1-.02.11.02.01.03-.02.08-.08.07Z"/>
        <path class="st22" d="M4.01,6.71s-.07-.03-.05-.07c.03-.04.09-.02.1.01s-.02.07-.06.06Z"/>
        <path class="st22" d="M3.97,7.11s-.06-.03-.03-.06c.03-.03.08-.02.09.01s-.02.05-.05.05Z"/>
        <path class="st22" d="M3.02,6.97s-.06-.04-.04-.06c.03-.03.08-.02.09.02,0,.03-.02.04-.06.04Z"/>
      </g>
      <g>
        <path class="st93" d="M3.02,8.59c-.05.03-.19,0-.37.02-.09.13-.22.16-.37.07-.11.08-.27.05-.36-.08-.21.05-.3-.06-.3-.21-.13-.03-.15-.12-.1-.22-.12-.07-.17-.31.04-.41-.02-.07,0-.14.09-.17-.03-.1.04-.27.25-.25.02-.12.15-.27.36-.13.09-.1.36-.13.43.1.15-.07.32.04.27.22.29.35.34.87.05,1.05Z"/>
        <path class="st22" d="M1.66,7.93s.05.06.09.03c.02-.01.04-.05,0-.07-.05-.02-.09,0-.09.04Z"/>
        <path class="st22" d="M2.15,7.37s.04.04.08.03c.02,0,.03-.04,0-.06-.04-.02-.08,0-.08.03Z"/>
        <path class="st22" d="M1.8,7.96s.05.03.07,0c.01-.01,0-.03-.01-.04-.02,0-.05.01-.05.03Z"/>
        <path class="st22" d="M2.07,7.83s.05.03.07,0c.01-.02,0-.06-.01-.06-.04,0-.06.02-.05.05Z"/>
        <path class="st22" d="M2.98,7.43c-.07-.05-.2-.07-.29-.03-.07-.22-.3-.21-.39-.11-.2-.13-.31.03-.33.12-.16.02-.27.1-.23.23-.1.03-.12.09-.1.16-.17.08-.18.27-.11.37-.12-.07-.17-.31.04-.4-.02-.07,0-.14.09-.17-.03-.1.04-.27.25-.25.02-.12.15-.27.36-.13.09-.1.36-.13.43.1.12-.06.25,0,.27.11Z"/>
        <path class="st90" d="M3.14,8.28c-.01.08-.05.19-.15.26,0,0-.02,0-.07,0-.01,0-.03,0-.05,0-.02,0-.04,0-.06,0-.04,0-.09,0-.16,0h-.03s-.02.03-.02.03c-.04.06-.1.1-.15.1-.04,0-.09-.01-.13-.04l-.04-.02-.03.03s-.06.03-.1.03c-.07,0-.13-.03-.17-.09l-.03-.04h-.04s-.06.02-.08.02c-.04,0-.07-.01-.1-.03-.03-.03-.04-.08-.04-.12v-.05s-.05-.01-.05-.01c-.02,0-.06-.02-.07-.04,0-.02,0-.05.02-.09l.03-.05-.05-.03s-.04-.05-.04-.05c.09.06.2.08.23-.01.03.12.2.15.25.01.06.1.24.14.22-.12l.92.33Z"/>
        <path class="st3" d="M3.02,8.59c-.05.03-.19,0-.37.02-.09.13-.22.16-.37.07-.11.08-.27.05-.36-.08-.21.05-.3-.06-.3-.21-.13-.03-.15-.12-.1-.22-.12-.07-.17-.31.04-.41-.02-.07,0-.14.09-.17-.03-.1.04-.27.25-.25.02-.12.15-.27.36-.13.09-.1.36-.13.43.1.15-.07.32.04.27.22.29.35.34.87.05,1.05Z"/>
        <path class="st90" d="M1.83,8.17c-.07.13.04.23.17.18-.02.07.06.14.13.09-.1.11-.24-.11-.15-.05-.14.08-.25-.13-.15-.23h0Z"/>
        <g>
          <path class="st90" d="M2.35,7.55c-.1-.11-.21-.07-.28.05-.04-.06-.13-.02-.15.05,0-.15.22-.11.13-.09.04-.14.24-.13.3,0h0Z"/>
          <path class="st90" d="M2.05,7.7v-.14c.07.02.03.03,0,.14h0Z"/>
        </g>
      </g>
      <g>
        <path class="st93" d="M3.95,8.59c.05.03.19,0,.37.02.09.13.22.16.37.07.11.08.27.05.36-.08.21.05.3-.06.3-.21.13-.03.15-.12.1-.22.12-.07.17-.31-.04-.41.02-.07,0-.14-.09-.17.03-.1-.04-.27-.25-.25-.02-.12-.15-.27-.36-.13-.09-.1-.36-.13-.43.1-.15-.07-.32.04-.27.22-.29.35-.34.87-.05,1.05Z"/>
        <path class="st22" d="M4.93,7.82s-.04.08-.09.05c-.03-.02-.05-.07,0-.09.05-.02.09,0,.1.04Z"/>
        <path class="st22" d="M4.81,7.37s-.03.05-.06.03c-.02,0-.03-.05,0-.06.04-.02.06,0,.06.03Z"/>
        <path class="st22" d="M4.8,7.76s-.04.04-.06.01c-.01-.02,0-.04.01-.04.03,0,.05.01.05.03Z"/>
        <path class="st22" d="M5.28,7.89s-.04.03-.05,0c0-.01,0-.05.01-.05s.05.02.04.04Z"/>
        <path class="st22" d="M3.99,7.43c.07-.05.2-.07.29-.03.07-.22.3-.21.39-.11.2-.13.31.03.33.12.16.02.27.1.23.23.1.03.12.09.1.16.17.08.18.27.11.37.12-.07.17-.31-.04-.4.02-.07,0-.14-.09-.17.03-.1-.04-.27-.25-.25-.02-.12-.15-.27-.36-.13-.09-.1-.36-.13-.43.1-.12-.06-.25,0-.27.11Z"/>
        <path class="st90" d="M3.83,8.28c.01.08.05.19.15.26,0,0,.02,0,.07,0,.01,0,.03,0,.05,0,.02,0,.04,0,.06,0,.04,0,.09,0,.16,0h.03s.02.03.02.03c.04.06.1.1.15.1.04,0,.09-.01.13-.04l.04-.02.03.03s.06.03.1.03c.07,0,.13-.03.17-.09l.03-.04h.04s.06.02.08.02c.04,0,.07-.01.1-.03.03-.03.04-.08.04-.12v-.05s.05-.01.05-.01c.02,0,.06-.02.07-.04,0-.02,0-.05-.02-.09l-.03-.05.05-.03s.04-.05.04-.05c-.09.06-.2.08-.23-.01-.03.12-.2.15-.25.01-.06.1-.24.14-.22-.12l-.92.33Z"/>
        <path class="st3" d="M3.95,8.59c.05.03.19,0,.37.02.09.13.22.16.37.07.11.08.27.05.36-.08.21.05.3-.06.3-.21.13-.03.15-.12.1-.22.12-.07.17-.31-.04-.41.02-.07,0-.14-.09-.17.03-.1-.04-.27-.25-.25-.02-.12-.15-.27-.36-.13-.09-.1-.36-.13-.43.1-.15-.07-.32.04-.27.22-.29.35-.34.87-.05,1.05Z"/>
        <path class="st90" d="M5.14,8.17c.1.1-.01.3-.15.23,0,0,.03-.02.03-.02,0,.1-.13.13-.18.07.08.05.16-.02.13-.09.12.05.24-.06.17-.18h0Z"/>
        <g>
          <path class="st90" d="M4.62,7.55c.06-.12.26-.14.3,0,0,0-.03,0-.03,0,.08-.05.16.04.15.1-.02-.08-.1-.11-.15-.05-.07-.11-.18-.16-.28-.05h0Z"/>
          <path class="st90" d="M4.92,7.7c-.03-.12-.07-.12,0-.14,0,0,0,.14,0,.14h0Z"/>
        </g>
      </g>
      <g>
        <path class="st93" d="M3.59,8.71c-.09.08-.4.2-.62-.07-.18.08-.46.07-.51-.23-.15-.01-.17-.13-.11-.25-.18-.09-.16-.38.05-.45-.05-.1,0-.22.14-.22.05-.18.14-.25.31-.22.13-.21.42-.24.59-.13.19-.16.39-.06.46.06.4-.1.5.18.51.34.29.08.33.43.24.63.09.18-.01.46-.32.45-.07.1-.13.12-.27.08-.12.18-.35.11-.47.02Z"/>
        <path class="st22" d="M4.69,7.99c-.03-.18-.12-.34-.33-.41-.04-.22-.26-.36-.49-.31-.04-.09-.26-.22-.43-.05-.26-.11-.45-.02-.56.13-.09-.03-.26.02-.3.19-.18,0-.12.19-.12.19,0,0-.2.04-.24.25-.02-.11.04-.24.17-.28-.05-.1,0-.22.14-.22.05-.18.14-.25.31-.22.13-.21.42-.24.59-.13.19-.16.39-.06.46.06.4-.1.5.18.51.34.21.06.29.27.28.45Z"/>
        <path class="st90" d="M4.59,8.19c.04.07.03.17-.01.24-.03.05-.1.11-.23.11,0,0-.01,0-.02,0h-.04s-.02.03-.02.03c-.05.07-.07.07-.1.07-.02,0-.05,0-.1-.02h-.05s-.03.03-.03.03c-.04.06-.09.08-.16.08-.08,0-.17-.04-.22-.08l-.04-.03-.04.03s-.14.08-.25.08-.2-.05-.28-.14l-.03-.04-.05.02c-.05.02-.11.04-.17.04-.1,0-.22-.04-.26-.22v-.05s-.06,0-.06,0c-.03,0-.06,0-.07-.03-.01-.03,0-.07.02-.12l.03-.06-.06-.03c-.07-.03-.09-.1-.08-.16.06.13.2.14.33.04.03.27.25.36.43.26.2.25.45.17.53.1.12.12.35.13.46-.04.22.1.4-.05.38-.27.11.05.18.01.2-.08,0,.07-.01.13-.04.19v.03s0,.03,0,.03Z"/>
        <path class="st3" d="M3.59,8.71c-.09.08-.4.2-.62-.07-.18.08-.46.07-.51-.23-.15-.01-.17-.13-.11-.25-.18-.09-.16-.38.05-.45-.05-.1,0-.22.14-.22.05-.18.14-.25.31-.22.13-.21.42-.24.59-.13.19-.16.39-.06.46.06.4-.1.5.18.51.34.29.08.33.43.24.63.09.18-.01.46-.32.45-.07.1-.13.12-.27.08-.12.18-.35.11-.47.02Z"/>
        <path class="st90" d="M2.73,8.08c-.15,0-.24-.23-.07-.29,0,0,0,.03,0,.03-.07-.08,0-.2.08-.19-.1.02-.1.14-.03.18-.13.06-.13.24.03.27h0Z"/>
        <path class="st90" d="M4.34,8.08c.14-.05.12-.19,0-.25.07-.04.06-.14-.04-.16.15-.01.1.24.08.14.15.03.1.26-.04.27h0Z"/>
        <g>
          <path class="st90" d="M3.27,8.24c.03.17.21.16.32.07.03.06.14.07.16-.02,0,.08-.12.12-.18.06.12,0-.29.19-.3-.11h0Z"/>
          <path class="st90" d="M3.66,8.2l-.06.16c-.07-.05-.03-.04.06-.16h0Z"/>
        </g>
        <g>
          <path class="st90" d="M3.7,7.54c-.02-.18-.2-.17-.32-.09-.03-.06-.14-.08-.16,0,0-.09.13-.11.18-.05-.12-.01.3-.17.29.13h0Z"/>
          <path class="st90" d="M3.3,7.55l.07-.15c.07.05.02.04-.07.15h0Z"/>
        </g>
        <path class="st22" d="M3.99,7.61c.07-.02.13.07.12.11s-.05.09-.12.06-.09-.14,0-.17Z"/>
        <path class="st22" d="M3.38,8c.08-.02.13.02.13.08,0,.04-.04.09-.14.08-.11-.01-.08-.14.01-.16Z"/>
        <path class="st22" d="M3.59,8.03s.07.01.07.04c0,.02-.03.05-.08.04-.05-.01-.04-.06,0-.08Z"/>
        <path class="st22" d="M3.82,7.35s.07.01.07.04c0,.02-.02.05-.07.04s-.04-.07,0-.08Z"/>
        <path class="st22" d="M2.91,7.56c.07-.02.12.05.12.09s-.07.07-.13.06c-.08-.02-.08-.12.01-.15Z"/>
        <path class="st22" d="M3.02,7.54c.07-.02.12.05.12.09,0,.04-.06.09-.13.06-.08-.03-.09-.13,0-.15Z"/>
        <path class="st22" d="M2.96,7.49s.07.02.08.04c0,.03-.03.07-.08.05s-.05-.07,0-.09Z"/>
        <path class="st22" d="M3.89,7.79s.06.03.06.05-.02.04-.06.03-.04-.07,0-.08Z"/>
        <path class="st22" d="M4.2,8.02s.07,0,.06.05c0,.02-.03.05-.06.03s-.04-.06,0-.08Z"/>
        <path class="st22" d="M2.85,7.75s.04.03.04.04-.01.04-.04.03-.04-.06,0-.07Z"/>
      </g>
    </g>
  </g>
  <g id="_x28__x2F_techno_x2F_math_x2F_colours_x2F_L1_x2F_GREEN_x2F_Frog..mp3_x29_1" data-name="_x28__x2F_techno_x2F_math_x2F_colours_x2F_L1_x2F_GREEN_x2F_Frog..mp3_x29_">
    <g>
      <path class="st89" d="M3.59,2.66s1.55-.02,1.9.42c.34.45-.51.69-1.46.81l-.28-.15.06.17s-1.84.06-2.31-.52c-.58-.72,2.1-.74,2.1-.74Z"/>
      <path class="st5" d="M1.48,3.42c-.08-.09-.1-.19-.08-.27.14-.49,2.11-.51,2.19-.52h.04c.26,0,1.56.02,1.87.43.07.09.1.19.07.27-.07.26-.59.46-1.55.58,0,0,0,0,0,0l-.23-.12.04.11s0,.02,0,.02c0,0,0,.01-.02.01,0,0-.05,0-.14,0-.41,0-1.79-.04-2.19-.53ZM3.73,3.75s0-.02,0-.03c0,0,.01-.01.02,0l.27.14c.92-.12,1.45-.31,1.51-.54.02-.07,0-.14-.07-.22-.31-.41-1.69-.42-1.85-.42h-.03c-.56,0-2.05.1-2.16.48-.02.06,0,.13.07.21.39.48,1.75.51,2.16.51.05,0,.08,0,.11,0l-.04-.14Z"/>
    </g>
    <g>
      <path class="st95" d="M4.38.83c-.08.02-.14.06-.18.14-.01.03-.04.03-.07.04-.03.01-.06.02-.08.04,0,.02-.04.03-.03.06.03.02.05.04.04.08,0,.04.02.04.05.03.01,0,.03-.02.04-.03.02-.03.06-.04.09-.06,0-.02.02-.03.04-.03.01,0,.03-.02,0-.03-.03-.02-.06-.02-.08-.01.06,0,.13,0,.2.03.08.04.15.09.16.16-.01-.06-.08-.11-.14-.15-.02-.01-.05-.02-.08-.01-.02.04.04.04.04.07.03.04.07.06.09.11.01.02.03.04.05.05.03.01.03.04.02.07-.04.21-.19.39-.43.3-.12-.04-.18-.15-.22-.28,0-.02,0-.05-.03-.06-.01,0-.03,0-.04,0-.14.09-.3.13-.46.18-.02,0-.03.01-.04.02,0,0,0,.01,0,.02,0,.02,0,.05,0,.07,0,.03-.01.05-.04.06-.03.01-.05,0-.07-.02-.07-.07-.07-.07-.16-.03-.25.11-.45.28-.63.48,0,0-.01.02-.01.03.02.03.04.01.06,0,.04-.02.07-.05.11-.07.05-.03.09-.05.15-.04.02,0,.05,0,.05-.03,0-.03,0-.06.03-.08.04-.02.05.02.07.03.04.02.07,0,.1-.04,0-.07.06-.08.12-.07.07-.04.13-.03.19.03.05.05.1.02.16.02.01,0,.02,0,.03-.01.05-.02.09-.01.12.03.03.04,0,.08-.03.11-.04.03-.08.06-.1.11,0,.05-.05.1,0,.15.03.01.06-.01.08-.03.16-.09.3-.21.46-.31.04-.02.08-.04.13-.05.22-.04.4-.15.59-.26.19-.12.37-.27.54-.42.01-.01.03-.02.03-.04-.01-.12-.09-.2-.23-.17-.15.03-.29.05-.44.05-.06,0-.12-.03-.18-.05-.03,0,0-.02,0-.03,0,0,0-.01,0-.02-.01-.02-.07,0-.04-.05.01-.03.03-.07-.02-.09Z"/>
      <path class="st35" d="M3.22,3.51c.09-.01.16-.08.25-.09.02,0,.04,0,.06,0,.03,0,.05-.03.04-.06,0-.04-.03-.03-.06-.02-.06.02-.12.04-.17.06-.1.04-.22.06-.32.08-.01,0-.03,0-.04,0-.07-.07-.16-.04-.23-.06-.04-.01-.08-.02-.12-.04,0,0-.02,0-.03,0-.08-.02-.17,0-.24-.05.04-.06.11-.07.17-.09.2-.05.4-.11.59-.18.06-.02.11-.06.17-.07.05-.03.09-.07.07-.13-.16-.01-.3-.08-.44-.12-.09,0-.16-.07-.26-.08-.13-.02-.25-.01-.37.02-.04.01-.09,0-.14,0-.02,0-.05,0-.06.02,0,.03.03.03.05.04.08.01.16,0,.23,0,.13,0,.26.02.4.04.02,0,.05.01.05.04.02.03.05.04.08.05.03.02.04.04,0,.06,0,0-.02,0-.02.01-.22.09-.44.17-.69.16-.07,0-.14-.01-.2-.03-.17-.04-.19-.07-.2-.24-.01-.02-.03-.02-.05-.02-.05.02-.11.04-.14.09.04.12.13.2.22.28.02.01.03.03.05.04.06.03.12.06.18.09.02.01.03.02.02.05-.04.1-.03.14.08.16.22.05.44.08.66.11.19.03.38.05.57.08.03,0,.06.02.08.03.02,0,.04,0,.06-.01.01-.02.03-.03.02-.06,0-.02-.03-.02-.05-.02-.08,0-.16-.02-.24-.05.17,0,.34-.02.51-.01.04,0,.08.01.12-.01,0-.06,0-.08-.06-.08-.13.01-.27.02-.41.02-.09,0-.17,0-.26,0-.03,0-.05,0-.07,0,.05-.02.11,0,.15-.03Z"/>
      <path class="st48" d="M1.59,2.91s.1-.06.14-.08c.02.01.03,0,.05,0,.1-.05.21-.06.32-.08.01,0,.03,0,.04-.02,0-.02-.03,0-.04-.02.14.01.27-.03.4-.04.06,0,.11.02.16.01,0,0-.02-.03.01-.01.03.01.05.02.07-.02.03-.06.06-.06.12-.04.06.03.07.06.05.12,0,0,0,.01,0,.02.11.04.22.09.34.11.03,0,.07.02.11,0,.04-.02.03-.05.02-.08-.05-.01-.09-.05-.13-.09-.23-.23-.5-.36-.82-.36-.2,0-.4,0-.58.1,0,0,0,0,0,0-.1.06-.19.13-.27.21-.03.1-.02.19.02.28Z"/>
      <path class="st43" d="M1.57,2.63c.06-.04.13-.08.19-.14.09-.08.2-.1.31-.13.1-.02.2-.02.29-.02.16,0,.31.02.45.08.18.08.35.18.47.34.02.03.05.02.07,0,.02-.03,0-.06-.01-.08,0-.02-.01-.04.01-.05.15-.08.27-.2.41-.28,0,0,.01,0,.01-.01.01-.04.03-.08.03-.12,0-.02-.02-.04-.04-.05-.03,0-.05.01-.08.03-.16.11-.33.21-.51.27-.02,0-.04.01-.04.03,0,.02.02.03.03.04-.21-.19-.46-.26-.73-.29-.06,0-.11.04-.16,0,0,0-.02,0-.03,0-.05.05-.12.03-.18.04-.13.03-.26.06-.37.13-.07.05-.12.11-.14.19Z"/>
      <path class="st41" d="M4.37,2.32c.18-.2.36-.4.55-.58.09-.09.19-.18.28-.28.05-.05.1-.11.1-.19-.05,0-.06.05-.1.06-.05.04-.08.09-.13.12-.03.02-.05.05-.08.06-.03.02-.05.04-.08.06-.17.15-.37.28-.58.37-.02,0-.04.02-.06.03-.21.1-.24.22-.18.44.01.05.02.1.06.13.04,0,.06-.04.09-.06.03-.03.05-.06.08-.09.01-.02.05-.03.05-.06Z"/>
      <path class="st86" d="M4.31,2.38s-.06.05-.08.08c0,.04.04.06.05.09.11.17.19.35.26.54.02.06.04.14.09.19.09.09.2.11.32.1.1,0,.2-.01.29-.05.05-.02.09,0,.13.03,0,0,0,0,.01,0,.01-.03.03-.06,0-.08-.02-.02-.05-.02-.07-.01-.09.04-.18.03-.28.03.01.04.04,0,.06.02-.06.02-.12,0-.19-.02-.03,0-.04-.02-.04-.05-.02-.03-.06,0-.09-.03,0,0-.02,0-.03,0-.03,0-.04-.04-.04-.06-.04-.14-.1-.27-.17-.4,0-.01-.01-.03-.02-.04-.06-.11-.13-.22-.2-.32,0,0-.01,0-.02,0Z"/>
      <path class="st23" d="M2.26,2.27s.02,0,.03,0c.05,0,.06-.04.09-.06.02-.02.04-.04.05-.06.12-.11.24-.23.37-.33.1-.08.21-.13.33-.18.03-.01.05,0,.06.02.02.05.06.09.11.06.06-.03.06-.09.03-.15-.03-.02-.06,0-.09,0-.08.02-.09.01-.07-.07,0-.01,0-.03,0-.04-.25.08-.45.24-.62.42-.11.11-.2.24-.28.37Z"/>
      <path class="st84" d="M4.04,1.11s.03-.03.03-.05c-.03.02-.05.04-.07.06-.12.14-.27.21-.44.24-.12.03-.25.05-.36.1.05.03.1.06.15.1.18-.06.37-.11.53-.21.07-.07.11-.16.17-.24Z"/>
      <path class="st11" d="M5.19,1.35s.07-.05.1-.08c.04-.14-.06-.28-.2-.28-.13,0-.26.02-.39.02-.08,0-.16.03-.24-.01,0,0-.01,0-.02,0,0,0-.02,0-.03,0-.01,0-.04,0-.04.02,0,.01.01.02.03.03.11.05.23.07.35.05.12-.02.24-.04.36-.05.1-.01.15.04.17.17,0,.04-.03.05-.05.07-.02.02-.05.04-.03.07Z"/>
      <path class="st2" d="M4.31,2.38h0s0,0,0,0c.08.1.15.2.19.32,0,.06.05.1.08.15.05.09.08.18.11.27.01.03.02.07.06.07-.05-.1-.07-.21-.11-.32-.07-.18-.14-.35-.25-.5-.01-.02-.03-.04-.04-.05-.02.02-.04.04-.06.06Z"/>
      <path class="st34" d="M4.88,3.23s-.02.06.02.07c.07.02.15.04.23,0-.02-.02-.06,0-.08-.02-.03,0-.05-.01-.09-.02.05-.04.11-.04.15-.07.01-.03.03-.05,0-.08-.03-.02-.05,0-.07.02-.05.04-.12.05-.17.1Z"/>
      <path class="st14" d="M4.44.99s0,0,0,0h0s.02.01.03.02c.04,0,.08,0,.1-.03.02-.04-.01-.07-.03-.11,0-.01-.02-.02-.03-.03-.02-.02-.05-.01-.08,0-.05.08-.05.11,0,.15,0,0,0,0,0,.01Z"/>
      <path class="st49" d="M3.34,1.56c-.04-.06-.08-.09-.15-.1,0,0,0,0-.01,0,0,.02-.02.04-.02.06,0,.03,0,.06.02.08.02.02.04,0,.06,0,.04-.01.07-.02.11-.03,0,0,0,0,0-.01Z"/>
      <path class="st25" d="M4.52.83s0,.02.01.03c.02.03.05.06.03.1-.01.03-.06.02-.09.02,0,0,0,.02,0,.02.07,0,.14.03.2-.02-.02-.09-.08-.14-.17-.16Z"/>
      <path class="st2" d="M4.88,3.23c.07-.02.12-.06.18-.09.01,0,.02-.03.05-.01.02.02,0,.03,0,.05,0,0,0,.01,0,.02.04-.02.05-.04.03-.08-.02-.03-.05-.04-.08,0-.08.07-.17.08-.26.09,0,.01,0,.03.01.03.02,0,.05,0,.07,0Z"/>
      <path class="st95" d="M4.68.99c-.07.01-.14.02-.21,0-.01,0-.02,0-.03,0,0,0,0,.02,0,.02.05.03.21.03.25,0,0,0,0,0-.01-.01Z"/>
      <path class="st88" d="M4.43.97s-.03-.04-.01-.07c.02-.02.02-.05.02-.09-.02,0-.04-.01-.06,0,.02.03,0,.06,0,.09,0,.04,0,.06.05.05Z"/>
      <path class="st34" d="M5.37,3.35c-.02-.09-.07-.06-.12-.04-.08.02-.16.05-.25.05-.11.01-.22,0-.31-.06-.07-.04-.09-.11-.11-.18-.07-.2-.15-.4-.28-.58-.02-.03-.04-.05-.07-.07-.03.01-.05.04-.07.07,0,0,0,0,0,0,.08.07.12.17.17.26.05.09.08.2.11.3,0,.02.02.05,0,.07-.03.04,0,.08.02.11.06.02.12.03.19.04,0,0,.01,0,0,0,0,0,0,0-.01,0-.03.02-.05.04-.08.04-.05,0-.05.04-.03.07.03.05.08.06.13.06.18.01.36.03.54.04.02-.07.01-.08-.06-.08-.06,0-.12,0-.18,0-.03,0,0-.02,0-.02-.08,0-.16,0-.24-.04.22-.02.44-.04.66-.05Z"/>
      <path class="st21" d="M3.89,2.74c.04.1.09.19.13.29.03.06.06.11.09.17.03.03.01.03-.02.03-.05,0-.09-.01-.14-.02-.03,0-.06,0-.06.05,0,.04.03.04.06.04.07,0,.15,0,.22,0,.04,0,.05.06.09.04,0-.07-.05-.12-.08-.19-.09-.18-.17-.35-.22-.54-.03-.09-.04-.18-.04-.27,0-.03,0-.07,0-.1-.01-.04,0-.07.03-.1.03-.03.05-.06,0-.09-.01,0-.02,0-.03.01-.03.05-.09.08-.11.15,0,.04-.03.08-.03.13-.01.06.02.11.03.17.03.08.03.17.08.24Z"/>
      <path class="st20" d="M4.17,3.16c.02.06.07.11.08.18,0,.07.05.11.08.17.16.03.31.08.45.15.04.02.07.01.08-.02.02-.04-.02-.05-.05-.06-.06-.02-.12-.02-.17-.07-.04-.03-.09-.01-.12-.07-.01-.03-.01-.05.02-.04.05,0,.07-.02.09-.05-.05-.04-.12-.03-.17-.05-.05.03-.08,0-.1-.04-.04-.06-.07-.13-.1-.2-.01-.03-.02-.06-.06-.06-.06.04-.07.07-.03.16Z"/>
      <path class="st53" d="M2.59,3.39s.02,0,.03,0c.24.07.47.04.7-.02.02-.01.04-.02.03-.05.02-.06-.02-.1-.1-.11-.02,0-.05,0-.07-.02-.02-.01-.04,0-.05.02,0,.02,0,.02.07.04-.05,0-.1,0-.15,0-.03,0-.07,0-.05.05.06.03.14.02.19.04-.06.01-.13-.01-.2-.02-.13-.02-.25,0-.37.02-.03,0-.04.02-.03.05Z"/>
      <path class="st52" d="M3,3.29s.02-.03.05-.03c.07,0,.13.01.21,0-.03-.06-.08-.03-.12-.04,0-.02.03-.02.04-.03.04-.03.08-.05.13-.06.02,0,.04-.02.05-.03-.02-.05-.05-.03-.08-.01-.05.02-.1.04-.16.05-.03,0-.05,0-.07-.01-.11.03-.21.06-.3.12.08.05.16.07.25.05Z"/>
      <path class="st91" d="M3.22,3.51c-.06,0-.12.02-.18.03.1.01.21.01.31,0,0,.03-.03,0-.04.03.16,0,.32-.01.48-.02.05,0,.07.02.07.06.03-.02.03-.05.01-.08-.02-.03-.05-.04-.09-.03-.18.05-.36.03-.54.03-.01,0-.02,0-.03-.01Z"/>
      <path class="st80" d="M3.35,3.32s-.02.02-.03.03c0,.01.02.01.04.02t-.06.04s.04.01.06,0c.06-.02.12-.03.17-.05.01,0,.03-.03.04,0,0,.02,0,.04-.03.05-.02,0-.05,0-.06.02.03,0,.05,0,.08,0,.04,0,.06-.03.06-.07,0-.04-.03-.06-.07-.06-.07,0-.14,0-.2.04Z"/>
      <path class="st94" d="M4.34,3.5c0-.07-.06-.11-.08-.17-.03,0-.03-.08-.08-.04.02.03.04.06.06.08.02.03.03.06,0,.1,0,.01-.02.03,0,.04,0,0,.03,0,.04,0,.02,0,.04,0,.06-.01Z"/>
      <path class="st85" d="M4.95,3.45s-.03.01-.05.03c.08,0,.15,0,.21,0,.05,0,.09,0,.09.07.03,0,.05-.03.04-.06,0-.03-.03-.04-.06-.04-.07,0-.15,0-.22,0Z"/>
      <path class="st51" d="M2.42,2.14s-.04.03-.06.05c.05.03.09,0,.14,0,.15-.01.3,0,.42.09.13.09.26.08.38,0,.06-.04.13-.07.17-.13.02-.04.06-.07.1-.1-.01-.02-.03-.03-.04-.03-.06-.02-.08-.06-.08-.12-.03,0-.05,0-.07,0-.03.01-.06,0-.08-.03-.07-.08-.12-.08-.21-.02-.02.05-.05.09-.11.07-.03.02-.05.05-.1.04-.04.02-.07.04-.11.04,0,.02,0,.03-.03.02-.09-.04-.15.03-.22.06-.04.02-.06.06-.11.05Z"/>
      <path class="st63" d="M3.91,2.07s.01,0,.02-.01c.11-.07.24-.08.36-.12.16-.04.29-.13.42-.23.07-.05.14-.1.21-.15.02-.02.04-.03.06-.05.03-.02.04-.06.08-.06.05-.03.08-.07.12-.11,0-.04.05-.06.07-.09.01-.02.04-.03.01-.06-.19.15-.36.31-.57.44-.18.12-.36.23-.58.26-.1.02-.17.08-.25.13-.14.09-.27.19-.42.27-.01,0-.03,0-.04,0-.1.07-.21.11-.32.16,0,.03,0,.05.04.04.21-.07.39-.18.58-.3.01-.01.03-.02.05-.03.06,0,.1-.06.14-.1Z"/>
      <path class="st37" d="M3.11,2.46c.13-.03.24-.1.36-.17-.03-.05.02-.1.01-.15-.09.07-.18.13-.29.17-.07.03-.14.02-.2-.02-.12-.09-.26-.12-.41-.13-.07,0-.15.02-.22.04-.03.02-.05.05-.08.07-.01.02,0,.03.02.03.05,0,.1-.02.15-.03.15.01.3.03.45.09.05.02.1.05.15.08.02.01.04.03.07.02Z"/>
      <path class="st66" d="M4.04,1.11c-.07.07-.12.15-.17.24.02.09.06.16.11.24.11.15.31.18.44.08.09-.07.17-.18.16-.32,0-.03-.01-.05-.04-.05,0,.08,0,.16-.04.22-.02.03-.04.05-.07.07-.12.05-.23.01-.3-.11-.04-.09-.03-.18,0-.26-.02,0-.05.02-.03-.02.02-.05,0-.07-.05-.07Z"/>
      <path class="st72" d="M4.92,1.3c0-.06-.03-.09-.08-.09-.09,0-.15.05-.15.13,0,.06.04.1.11.1.07,0,.12-.06.13-.13Z"/>
      <path class="st32" d="M4.12,1.21c-.07.09-.04.18,0,.28.03,0,.02-.03.02-.05q-.02-.12.09-.15t.18.03s.02.02.04.02c.03-.02.02-.06.02-.08-.05-.09-.17-.13-.26-.09-.02,0-.04.02-.05.03l-.03.03Z"/>
      <path class="st26" d="M3.66,1.81s.03,0,.05-.01c.03,0,.07-.03.07-.07,0-.04-.04-.04-.06-.05-.02,0-.03-.01-.05-.01-.04-.01-.08-.01-.11.02-.02.02-.02.06-.01.08.02.04.06.04.11.04Z"/>
      <path class="st46" d="M3.46,1.89c-.03.07-.02.1.06.13.02,0,.04.04.07.03.05-.03.07-.08.03-.13-.03-.05-.09-.05-.16-.02Z"/>
      <path class="st58" d="M4.15,1.18c.11-.05.22-.04.3.06,0,.02.01.03.03.04.02,0,.02-.02.01-.03-.02-.05-.06-.08-.1-.11-.05-.04-.09-.07-.15-.02-.03.02-.07.02-.09.06Z"/>
      <path class="st79" d="M4.49,1.25s0,.02-.01.03c-.01.01,0,.03,0,.04.02.08.01.16-.04.24-.01.01-.02.03-.01.05.1-.06.15-.19.11-.31-.01-.01-.02-.03-.04-.04Z"/>
      <path class="st45" d="M2.99,1.92s.05.04.08.02c.04-.02.03-.06.03-.09-.08-.03-.12,0-.11.07Z"/>
      <path class="st44" d="M2.78,2c.05.03.08,0,.11-.04,0-.05-.03-.06-.07-.05-.04.01-.07.04-.04.09Z"/>
      <path class="st17" d="M4.42,1.07c-.07-.06-.14-.05-.22-.02.03,0,.07.01.1.02.02.02.04.02.06.01.02,0,.05,0,.07.02,0,0,.01,0,.02,0,0-.01,0-.02-.02-.02Z"/>
      <path class="st11" d="M4.42,1.07s.02.02,0,.03c.06.05.14.09.16.19.02-.09-.06-.19-.16-.22Z"/>
      <path class="st11" d="M4.35,1.08s-.04-.01-.06-.01c-.01.02-.07,0-.06.05.05-.02.1,0,.15.02,0-.03-.04-.03-.04-.06Z"/>
      <path class="st47" d="M5.09,1.11s.01.03.03.03c.01,0,.03,0,.03-.02,0-.01,0-.04-.02-.04-.02,0-.03.02-.04.03Z"/>
      <path class="st9" d="M1.77,2.84c-.04.12,0,.2.11.24.24.08.49.07.73-.01.09-.03.19-.05.28-.11.02-.01.05-.02.05-.05,0-.03-.03-.03-.05-.05-.03-.01-.05-.03-.08-.04-.02-.03-.05-.03-.08-.04-.18-.04-.37-.03-.55-.03-.1,0-.19,0-.29.02-.05.01-.1.02-.13.06Z"/>
      <path class="st82" d="M3.06,3.13s.02.03.05.03c.06-.02.13-.02.19-.06.02-.01.05-.03.07,0,.01,0,.03-.02.04-.03.05-.06.13-.09.19-.14.1-.08.17-.17.19-.3,0-.06.02-.13-.01-.19-.05.07-.1.14-.18.19.07-.05.13-.11.18-.19.01-.04.01-.07,0-.1-.05,0-.09.05-.13.08-.09.07-.18.14-.28.19-.04.02-.06.04-.02.08.02.02.02.05.03.08,0,.03.01.06,0,.08,0,.05-.03.09-.07.12-.08.05-.16.09-.22.16Z"/>
      <path class="st56" d="M3.06,3.13c.08-.05.16-.09.22-.16-.01-.01-.02-.01-.04,0-.23.13-.48.19-.73.25-.07.02-.13.05-.19.08-.04.02,0,.02.01.03.02.01.04.02.06.01.11-.02.21-.04.32-.06.02,0,.03-.01.04-.03.1-.03.2-.07.3-.11Z"/>
      <path class="st76" d="M2.75,3.24c-.14.03-.28.07-.42.08,0,.03.02.03.03.03.07.02.15.03.22.03,0-.03.03-.03.06-.04.16-.03.32-.03.48,0,.04.01.08,0,.12-.02-.08-.03-.16-.05-.25-.05-.08,0-.17-.02-.25-.05Z"/>
      <path class="st57" d="M1.77,2.84c.09-.04.18-.06.28-.06.16,0,.32,0,.47,0,.1,0,.2.01.3.04.02-.05-.03-.05-.05-.05-.12-.02-.24-.05-.36-.05-.09,0-.19,0-.28,0-.14,0-.27.04-.4.1,0,.02.03.01.04.01Z"/>
      <path class="st38" d="M3.35,3.41s-.03,0-.05,0c.02-.02.05-.02.06-.05-.02,0-.03,0-.05,0-.2.05-.41.09-.62.05-.03,0-.06-.01-.09,0,.08.05.16.05.25.06.03,0,.07,0,.08.03,0,.02.03.02.05.02.12-.03.24-.04.36-.09Z"/>
      <path class="st39" d="M2.91,2.74s.06-.05.04-.09c-.03-.05-.08-.08-.13-.09-.04,0-.07.02-.08.07-.02.06-.06-.01-.09.02,0,0,.02.01.03.02.04,0,.08.02.12.04.04.02.08.03.13.03Z"/>
      <path class="st8" d="M1.93,2.57c0,.08.02.1.09.1.05,0,.13-.05.13-.09,0-.04-.07-.11-.12-.11-.07,0-.1.03-.1.11Z"/>
      <path class="st67" d="M2.56,2.48s-.05.01-.05.05c0,.04.03.05.06.06.04,0,.04-.03.04-.06,0-.04-.02-.05-.06-.05Z"/>
      <path class="st64" d="M3.76,2.45c.05.16-.02.36-.17.47-.05.04-.1.08-.16.11-.01,0-.05.02-.03.05.16-.08.3-.19.44-.29.02-.1-.02-.19-.02-.28,0-.06-.02-.11-.04-.17,0,0,0,0-.01,0,0,.04,0,.07,0,.11h0Z"/>
      <path class="st10" d="M3.11,2.46c-.2-.14-.41-.21-.66-.2.03.02.06.02.09.02.25.03.47.12.65.29,0,0,.02.02.04.01-.02-.04-.06-.07-.09-.09-.01-.01-.03-.02-.04-.03Z"/>
      <path class="st83" d="M3.91,2.07s-.09.07-.14.1c0,.01.02.03.03.04.04-.05.09-.08.11-.14Z"/>
      <path class="st83" d="M4.93,1.57s-.08.04-.11.06c-.14.1-.29.2-.45.27-.08.03-.16.04-.25.06-.07.02-.14.04-.19.1.04,0,.03.04.01.05-.07.04-.05.09-.05.16,0,.1,0,.2.03.29.06.21.14.41.25.6,0-.06-.03-.12.04-.15.02-.04,0-.06-.02-.09-.06-.15-.12-.29-.15-.45-.02-.12,0-.24,0-.36,0-.03.03-.05.05-.06.06-.02.12-.05.19-.07.24-.1.45-.23.64-.4Z"/>
      <path class="st75" d="M4.28,1.97c-.1,0-.18.04-.26.09,0,0-.01.02,0,.02.04.05,0,.11,0,.17-.01.23.07.43.15.64.01.04.03.07.05.11.05.07.07.14.11.21.02.03.03.06.05.08.04.06.06.06.09,0h0s0-.01,0-.01c0-.03-.05-.07,0-.1-.17-.16-.21-.38-.28-.59,0-.02-.01-.05-.03-.06,0,0,0,0,0,0-.06-.12-.1-.25-.06-.38.02-.07.07-.1.12-.13.02-.01.04-.03.06-.04Z"/>
      <path class="st55" d="M4.17,2.28s0,.05.04.07c.03.02.05,0,.07-.03.13-.1.21-.23.31-.35.01-.01.02-.03.01-.04-.01-.02-.03-.01-.05,0-.14.07-.26.16-.36.27-.02.02-.02.04-.02.08Z"/>
      <path class="st83" d="M5.07,1.46s-.05,0-.08.06c.03-.02.05-.04.08-.06Z"/>
      <path class="st77" d="M4.52,2.7c0-.07-.13-.29-.19-.32.06.11.13.21.19.32Z"/>
      <path class="st12" d="M4.47,3.28s0,0,0,.01c.05.04.12.03.18.05.01,0,.02,0,.05,0-.08-.04-.15-.06-.23-.05Z"/>
      <path class="st65" d="M3.82,2.5s-.01.02-.01.04c.02.07.03.14.01.21,0,.02,0,.02.02.03.02-.01.04-.02.05-.04-.02-.08-.05-.16-.07-.24Z"/>
      <path class="st28" d="M3.09,2.26c.05,0,.1-.05.1-.09,0-.05-.05-.08-.12-.08-.06,0-.11.04-.1.08,0,.04.07.08.12.08Z"/>
      <path class="st18" d="M4.42,1.6c.08-.1.11-.2.06-.32,0-.01-.02-.02-.03-.03-.01.02,0,.06-.02.08,0,.01,0,.03-.01.04,0,.03,0,.07,0,.1-.02.07-.08.09-.13.04-.03-.03-.06-.06-.07-.1-.02-.04,0-.07.01-.11,0,0,0-.02,0-.03,0,0,0,0,0,0q-.14.04-.1.18s0,.03,0,.04c.07.13.19.17.31.12Z"/>
      <path class="st36" d="M4.22,1.27v.03s0,0,.01,0c.09-.04.09-.03.16.04.01.01.02.03.04.03,0-.01,0-.03,0-.04-.02-.02-.03-.04-.05-.06-.06-.05-.09-.05-.16,0Z"/>
      <path class="st0" d="M2.12,2.97s.02.07.07.06c.04,0,.07-.04.06-.08,0-.05-.04-.06-.09-.06-.04,0-.05.03-.05.07Z"/>
      <path class="st69" d="M3.76,2.45c-.07.07-.13.15-.23.22.1-.02.22-.14.23-.22h0Z"/>
      <path class="st19" d="M4.43,1.36s-.03-.04-.04-.05c-.05-.07-.1-.07-.17-.02-.03.03-.02.07-.03.11,0,.07.04.11.09.14.05.04.12,0,.14-.08,0-.03,0-.07,0-.1Z"/>
      <path class="st15" d="M4.2,1.41s0-.08.03-.11c0,0,0,0-.01,0-.02.04-.04.07-.01.11Z"/>
      <path class="st13" d="M4.25,1.36s.05.04.08.03c0,0,.01-.02,0-.02-.02-.01-.05-.04-.07,0Z"/>
    </g>
  </g>
  <g id="_x28__x2F_techno_x2F_math_x2F_colours_x2F_L1_x2F_GREEN_x2F_Peas..mp3_x29_1" data-name="_x28__x2F_techno_x2F_math_x2F_colours_x2F_L1_x2F_GREEN_x2F_Peas..mp3_x29_">
    <path class="st27" d="M19.92,1.47s.1.03.15.03c.03,0,.06,0,.09,0-.01,0-.03.02-.05.02-.07.01-.14-.01-.19-.04h0Z"/>
    <path class="st29" d="M19.8,1.36s.06.08.11.11h0s0,0,0,0c0,.01,0,.09,0,.1,0,.02.03.04.05.05.05.02.1.01.15,0-.03.01-.05.02-.08.02-.04,0-.08,0-.11-.02-.06-.04-.09-.14-.09-.2-.01-.01-.02-.03-.03-.04h0s0-.01,0-.01c0,0,0-.02,0-.03Z"/>
    <path class="st31" d="M20.43.82s.02-.04.05-.05c.02,0,.03,0,.05,0,.03,0,.06.03.08.06,0,0,0,.01,0,.02h0s-.01.02-.03.02c-.03.01-.06.02-.09,0-.02,0-.05-.02-.05-.03,0,0,0-.01,0-.02,0,0,0,0,0,0Z"/>
    <path class="st71" d="M20.43.82s0,0,0,0c0,0,0,.01,0,.02,0,.02.03.03.05.03.03,0,.06,0,.09,0,.01,0,.02-.01.03-.02,0,.01,0,.02-.02.03-.03.02-.06.01-.09.01h0s-.09.06-.14.09c-.08.04-.16.08-.26.11-.04.01-.07.02-.11.03-.02-.02-.05-.04-.08-.06.02,0,.04,0,.06,0,.02,0,.04,0,.05-.01.02,0,.04,0,.05-.01.02,0,.03-.01.05-.02.09-.03.23-.09.29-.16,0,0,.01-.02.02-.03Z"/>
    <path class="st24" d="M20.61.84h0s0,.05,0,.07c0,.01-.02.02-.03.02-.01,0-.03,0-.04,0-.03,0-.06.04-.08.05-.02.02-.05.03-.08.04-.1.06-.22.1-.34.13,0-.02-.02-.04-.04-.06.04-.01.07-.02.11-.03.09-.03.18-.06.26-.11.05-.03.09-.06.14-.08h0s.07,0,.09-.01c.01,0,.02-.02.02-.03Z"/>
    <path class="st29" d="M19.36,1.13s-.06-.04-.08-.06c-.04-.05-.06-.12-.04-.18,0-.03.03-.07.07-.08.03-.02.07-.02.1-.01.02,0,.05.01.06.03,0,0,.01.02.01.03,0,0,0,0,0,0h0s0,0,0,0c0-.01-.01-.03-.03-.04-.01,0-.03-.01-.05-.01-.03,0-.06,0-.08.03-.03.03-.04.07-.04.1,0,.05.04.09.08.12.04.03.08.04.12.06.01,0,.03.01.04.02,0,0,0,0,0,0,0,0,0,0,.01,0,0,.02-.03.04-.04.06-.01.02-.06.06-.08.07h0s0,0,0,0c0,0,.01,0,.02,0-.01,0-.02,0-.03,0,0,0,0,0,0-.01,0,0,0,0,0,0h0s.01,0,.02,0c0,0,0,0,0,0,0,0-.02,0-.03,0,0,0-.02,0-.03,0-.02,0-.03,0-.04,0h0s-.04,0-.06,0c-.02,0-.03,0-.05,0-.02,0-.03,0-.05-.01-.02,0-.03,0-.04-.01-.01,0-.03-.01-.04-.02-.06-.03-.13-.07-.15-.12-.01-.03-.01-.06,0-.09.02-.03.05-.04.09-.04-.02,0-.04.01-.05.02-.02.02-.03.04-.03.06,0,.03.02.06.05.08.09.06.26.07.37.06Z"/>
    <path class="st87" d="M19.31,1.21s.06-.02.09-.03c.04-.01.07-.03.11-.04,0,0-.01.02-.02.03,0,0,0,0,0,0-.02.01-.03.02-.05.03,0,0-.01.02-.02.02,0,0-.02,0-.03,0,0,0-.02,0-.03,0-.02,0-.03,0-.04,0Z"/>
    <path class="st59" d="M19.43,1.2s-.01.02-.02.02c0,0-.02,0-.03,0,0,0-.02,0-.03,0,.03,0,.05,0,.08-.02Z"/>
    <path class="st30" d="M19.51,1.12s.09-.08.15-.1c.09-.02.17,0,.25.03.03.02.05.03.08.06.01.02.03.04.04.06.02.06,0,.12-.04.18-.02.02-.05.04-.04.07,0,.03.04.05.07.06.02,0,.04.02.06.02-.05,0-.1-.01-.15-.03-.05-.03-.09-.06-.11-.11,0-.01,0-.03,0-.04,0-.02,0-.04,0-.05-.02.01-.04.02-.05.04-.02.02-.05.04-.06.06,0,0,0,0,0,0-.01,0-.02-.02-.02-.03-.04-.06-.02-.11.01-.17,0,0-.02,0-.02.01-.06.04-.14.08-.22.07,0,0-.01,0-.02,0,0,0-.01,0-.02,0h0s0,0,0,0c.03,0,.07-.05.08-.07.02-.01.04-.04.04-.06,0,0,0,0-.01,0Z"/>
    <path class="st27" d="M19.69,1.15s0,.02-.01.02c0,0-.02,0-.02.01-.06.04-.14.08-.22.07,0,0-.01,0-.02,0,0,0-.01,0-.02,0h0s0,0,0,0c0,0,.02,0,.03,0,.1,0,.19-.04.26-.09Z"/>
    <path class="st42" d="M19.73,1.03c.06,0,.13,0,.18.04.03.02.06.05.07.08,0,.03,0,.06-.02.09-.01.01-.03.02-.04.02-.05,0-.06-.04-.08-.06h0s-.03.02-.04.02c-.02,0-.06,0-.08,0-.03-.01.03-.09.03-.09,0,0-.01,0-.02,0-.02,0-.11,0-.15,0,0,0,.01-.02.02-.03.04-.04.08-.07.14-.08Z"/>
    <path class="st59" d="M19.15,3.22s0,0,0,0c0-.01.03-.02.04-.03.07-.03.15-.04.22-.05.18-.04.35-.1.5-.19.23-.14.39-.34.48-.56.03-.08.06-.16.07-.24.01-.1,0-.19-.01-.29,0-.05-.02-.11-.04-.16,0-.02-.04-.09-.04-.1h0c.08.04.15.29.16.37,0,0,0,.02,0,.03,0,0,0,.02,0,.03s0,.02,0,.03c0,0,0,.02,0,.03,0,0,0,.02,0,.03s0,.02,0,.03c0,0,0,.02,0,.03,0,0,0,.02,0,.03,0,0,0,.02,0,.03,0,0,0,.02,0,.03,0,0,0,.02,0,.03,0,0,0,.02,0,.03,0,0,0,.02,0,.03,0,0,0,.02,0,.03s0,.02,0,.03c0,0,0,.02,0,.03,0,0,0,.02,0,.03,0,0,0,.02-.01.03,0,0,0,.02-.01.03,0,0,0,.02-.01.03,0,0,0,.02-.01.03,0,0,0,.02-.01.03,0,0,0,.02-.01.03,0,0-.01.02-.02.02,0,0-.01.02-.02.02,0,0-.01.02-.02.02,0,0-.01.02-.02.02,0,0-.01.02-.02.02,0,0-.01.02-.02.02,0,0-.01.02-.02.02,0,0-.01.01-.02.02,0,0-.01.01-.02.02,0,0-.01.01-.02.02,0,0-.01.01-.02.02,0,0-.01.01-.02.02,0,0-.01.01-.02.02,0,0-.01.01-.02.02,0,0-.01.01-.02.02,0,0-.02.01-.02.02,0,0-.02.01-.02.02,0,0-.02.01-.02.02,0,0-.02.01-.02.02,0,0-.02.01-.02.01,0,0-.02,0-.03.01,0,0-.02,0-.03.01,0,0-.02,0-.03.01,0,0-.02,0-.03.01,0,0-.02,0-.03.01,0,0-.02,0-.03.01,0,0-.02,0-.03.01,0,0-.02,0-.03.01,0,0-.02,0-.03.01,0,0-.02,0-.03,0,0,0-.02,0-.03,0,0,0-.02,0-.03,0,0,0-.02,0-.03,0,0,0-.02,0-.03,0-.01,0-.02,0-.03,0-.01,0-.02,0-.03,0-.01,0-.02,0-.03,0-.01,0-.02,0-.03,0-.01,0-.02,0-.03,0-.01,0-.02,0-.03,0-.01,0-.02,0-.03,0-.08,0-.15,0-.22.04Z"/>
    <path class="st29" d="M19.3,1.21h0s.03,0,.04,0c0,0,.02,0,.03,0,0,0-.02,0-.03.01,0,0,.02.02.02.02-.07-.01-.26.05-.33.08-.04.01-.07.03-.11.05-.24.12-.39.33-.56.5-.14.14-.28.28-.43.4-.08.07-.17.13-.25.19-.09.06-.18.13-.27.19-.2.13-.4.25-.56.41-.15.15-.26.33-.31.52,0,.03-.01.05-.02.08,0,.02,0,.04-.01.06-.02,0-.03.01-.05.02,0-.02,0-.04,0-.06,0-.02,0-.04,0-.06,0-.02,0-.04.01-.06,0-.02,0-.04.02-.06,0-.02.01-.04.02-.05,0-.02.01-.04.02-.05,0-.02.02-.04.03-.05,0-.02.02-.04.03-.05.2-.34.52-.51.86-.75.16-.11.31-.22.45-.34.16-.13.3-.27.44-.41.14-.14.26-.3.43-.41.11-.07.22-.13.36-.16.05-.01.1-.02.15-.04h0Z"/>
    <path class="st29" d="M20.28,1.41c.05.01.07.07.07.11,0,.02,0,.04,0,.06,0,.01,0,.02.02.03h0s.03.08.04.1c.02.05.03.11.04.16.02.1.03.19.01.29,0,.08-.03.16-.07.24-.09.22-.25.41-.48.56-.15.09-.32.15-.5.19-.07.02-.15.03-.22.05-.01,0-.04.02-.04.03,0,0,0,0,0,0,0,0-.02,0-.02.01-.02.02-.04.03-.05.05,0,0-.02-.01-.02-.02-.02-.05.05-.11.07-.15,0,0,0-.02.01-.02,0,0,0-.02.01-.02.02-.06.02-.12.03-.18,0-.04.01-.08.03-.11.04-.12.12-.25.23-.34.05-.04.1-.06.15-.09.07-.04.12-.09.17-.14.04-.04.06-.09.08-.14.01-.03.03-.07.04-.1.03-.07.09-.13.14-.19.03-.04.06-.08.1-.11.02-.02.05-.04.07-.06.03-.02.07-.04.08-.06.02-.03.02-.08,0-.11,0,0-.02-.02-.03-.03,0,0,0,0,0-.01,0,0,.02,0,.03,0Z"/>
    <path class="st27" d="M20.27,1.6s.02.06.02.08c.03.13,0,.27-.03.4-.02.08-.04.15-.07.22-.01.03-.03.05-.04.08-.01.03-.03.05-.05.07-.02.02-.03.05-.05.07-.02.02-.04.05-.06.07-.15.16-.35.3-.58.39-.06.02-.11.04-.18.05,0,0-.02,0-.03,0,0-.05.01-.09.02-.14.02-.09.04-.18.09-.26.04-.07.1-.13.17-.18.03-.02.07-.04.1-.06.06-.04.12-.08.17-.13.05-.05.08-.11.11-.17.01-.03.02-.06.04-.09.05-.1.17-.26.27-.33.03-.02.06-.04.09-.06Z"/>
    <path class="st30" d="M19.69,2.41s.05,0,.07,0h0s-.07.03-.1.05c-.11.06-.19.16-.23.26-.02.04-.03.09-.05.13,0,.01-.01.02-.02.04,0,0,0,0,0-.01-.02-.11.05-.26.13-.34.06-.06.12-.1.21-.11Z"/>
    <path class="st30" d="M20.14,1.76h0s-.01.05-.02.07c-.04.12-.09.26-.18.36-.03.03-.07.06-.12.06h0s.05-.07.07-.11c.07-.14.1-.29.26-.39Z"/>
    <path class="st87" d="M19.66,1.18s.01,0,.02-.01c-.03.06-.05.11-.01.17,0,0,.01.03.02.03,0,0,0,0,0,0,0-.03.03-.05.06-.06.02-.01.04-.03.05-.04,0,.02,0,.04,0,.05,0,.01,0,.03,0,.04,0,0,0,.02,0,.03h0s0,.06,0,.09v.02s-.03,0-.03,0c-.04-.01-.08-.03-.11-.06-.03-.02-.04-.05-.06-.07,0-.03-.01-.06,0-.09h0s-.04.02-.06.02c-.03.03-.06.06-.09.09-.05.05-.09.09-.13.14-.01.01-.02.02-.03.03-.09.1-.18.2-.27.3-.02.03-.08.09-.1.11-.04.04-.08.09-.12.13-.04.05-.08.09-.12.14-.01.01-.02.02-.03.03-.02.02-.03.04-.05.05-.06.07-.13.14-.19.2-.03.03-.07.07-.11.1-.03.03-.06.06-.09.08-.09.09-.18.17-.28.25l-.03.02s-.05.04-.08.07c-.11.09-.23.17-.35.25-.03.02-.06.04-.09.06-.13.08-.26.15-.4.22-.01,0-.04.02-.06.03-.09.04-.19.08-.29.11-.01,0-.03,0-.04.01-.01,0-.03,0-.04.01,0-.02,0-.04.01-.06,0-.03.01-.05.02-.08.05-.19.16-.36.31-.52.16-.16.36-.28.56-.41.09-.06.18-.12.27-.19.09-.06.17-.13.25-.19.15-.13.29-.26.43-.4.17-.17.32-.38.56-.5.03-.02.07-.04.11-.05.07-.03.26-.09.33-.08,0,0-.02-.01-.02-.02,0,0,.02,0,.03-.01,0,0,.02,0,.03,0,0,0,0,0,0,0,0,0-.01,0-.02,0h0s0,0,0,0c0,0,0,0,0,.01,0,0,.02,0,.03,0,0,0,.01,0,.02,0,.08,0,.16-.04.22-.07Z"/>
    <path class="st1" d="M19.66,1.42s.09.06.13.07h0s0,.01,0,.01h-.03s-.08-.04-.11-.07h0Z"/>
    <path class="st29" d="M19.59,1.27s0,.03,0,.05c0,.04.03.08.06.11h0s-.04-.04-.06-.07c0-.03-.01-.06,0-.09Z"/>
    <path class="st29" d="M19.66,1.18s.01,0,.02-.01c-.03.06-.05.11-.01.17,0,0,.01.03.02.03,0,0,0,0,0,0,0-.03.03-.05.06-.06,0,0,0,0,0,.01-.02.02-.03.04-.04.06,0,0,0,0,0,.01,0,0,0,0,0,0-.02-.01-.04-.06-.05-.08-.02-.04,0-.09.03-.13h0s-.01,0-.01,0Z"/>
    <path class="st1" d="M19.8,1.27s0,.04,0,.05c0,.01,0,.03,0,.04,0,0,0,.02,0,.03h0s0,.06,0,.09h0s0-.02,0-.04c0-.02,0-.03,0-.05,0-.02,0-.04,0-.06,0,0,0-.03,0-.03-.01,0-.02.02-.04.03,0,0,0,0,0-.01.02-.01.04-.03.05-.04Z"/>
    <path class="st59" d="M19.79,1.39s0,0,0,0c0,.01,0,.04,0,.05,0-.02,0-.03,0-.05h0s0,.06,0,.09h0s0-.02,0-.04c0-.02,0-.03,0-.05Z"/>
    <path class="st59" d="M17.8,2.51s.04-.03.05-.04c.03-.02.06-.05.09-.07.03-.02.06-.05.09-.07,0,0,.02-.01.02-.02-.03.07-.03.13,0,.19-.03,0-.05-.01-.08,0-.06,0-.11,0-.16.02Z"/>
    <path class="st59" d="M18.17,2.21s.12-.12.15-.15c.02-.02.04-.04.06-.07,0,0,.01-.01.02-.01-.02.06-.01.13.03.18,0,0,0,0,0,0-.04,0-.08,0-.11,0-.06,0-.1.02-.15.04Z"/>
    <path class="st59" d="M16.6,3.71s.03-.08.05-.13c.02-.05.09-.21.14-.25-.01.08,0,.16.06.23.01.01.03.02.04.04-.09.04-.19.08-.29.11Z"/>
    <path class="st59" d="M18.53,1.85s0-.02.02-.03c.2-.21.38-.42.72-.5.08-.02.17-.02.25-.03-.03.03-.06.06-.09.09-.05.05-.09.09-.13.14-.04-.03-.07-.04-.12-.05-.09-.02-.17,0-.25.03-.07.03-.11.08-.13.14,0,.03-.01.05-.01.08,0,.03,0,.05.03.08,0,0,.01.02.01.02-.1-.02-.19-.02-.28.02,0,0-.01,0-.01,0Z"/>
    <path class="st30" d="M18.78,1.71s0-.05.01-.08c.02-.06.07-.11.13-.14.08-.03.16-.05.25-.03.05,0,.09.03.12.05-.01.01-.02.02-.03.03-.09.1-.18.2-.27.3-.02.03-.08.09-.1.11,0-.03,0-.06-.02-.08,0-.02-.02-.03-.04-.05,0,0-.01,0-.02-.01,0,0,0,0,0,0,0,0,0-.02-.01-.02-.02-.03-.03-.05-.03-.08Z"/>
    <path class="st16" d="M19.17,1.47s.09.03.12.05c-.01.01-.02.02-.03.03-.03-.03-.05-.06-.09-.08Z"/>
    <path class="st92" d="M18.78,1.71s0,0,0,0c.01,0,.02.03.03.04.04.05.11.09.18.1-.02.03-.08.09-.1.11,0-.03,0-.06-.02-.08,0-.02-.02-.03-.04-.05,0,0-.01,0-.02-.01,0,0,0,0,0,0,0,0,0-.02-.01-.02-.02-.03-.03-.05-.03-.08Z"/>
    <path class="st42" d="M18.98,1.52s.04,0,.06,0c.02,0,.03.03.04.04,0,.03,0,.05-.02.07-.02.03-.05.04-.1.05-.03,0-.05,0-.07-.01-.02-.01-.03-.03-.03-.04,0-.03,0-.05.02-.08.03-.03.06-.04.1-.05Z"/>
    <path class="st30" d="M18.53,1.85s0,0,.01,0c.09-.04.18-.04.28-.02,0,0,0,0,0,0,0,0,.01.01.02.01.02.02.03.03.04.05.01.02.02.05.02.08-.04.04-.08.09-.12.13-.04.05-.08.09-.12.14-.01.01-.02.02-.03.03-.01,0-.03-.02-.04-.03-.03-.03-.07-.05-.11-.07-.01,0-.03,0-.04-.01,0,0,0,0,0,0-.04-.05-.05-.12-.03-.18.02-.05.07-.1.13-.13Z"/>
    <path class="st16" d="M18.59,2.24h.07s-.02.02-.03.03c-.01,0-.03-.02-.04-.03Z"/>
    <path class="st42" d="M18.58,1.86s.04,0,.05.01c.02,0,.03.02.03.04,0,.02,0,.05-.02.06-.02.03-.06.04-.1.05-.02,0-.05,0-.07-.01-.02,0-.03-.02-.03-.04,0-.02,0-.05.03-.07.02-.02.06-.04.1-.04Z"/>
    <path class="st30" d="M18.43,2.16s.03,0,.04.01c.05.01.08.04.11.07,0,.01.02.03.04.03-.02.02-.03.04-.05.05-.06.07-.13.14-.19.2-.03.03-.07.07-.11.1-.01,0-.02-.02-.03-.03-.02-.02-.05-.04-.08-.06-.02-.01-.05-.02-.08-.03-.01,0-.03,0-.04-.01-.02-.07-.02-.13,0-.19.03-.05.06-.07.11-.1.05-.02.1-.03.15-.04.04,0,.08,0,.11,0Z"/>
    <path class="st27" d="M18.43,2.16s.03,0,.04.01c.05.01.08.04.11.07,0,.01.02.03.04.03-.02.02-.03.04-.05.05,0-.02,0-.03,0-.04-.02-.06-.11-.09-.18-.1-.02,0-.05,0-.06,0,0,0,0,0,0,0,.04,0,.08,0,.11,0Z"/>
    <path class="st42" d="M18.22,2.22s.04,0,.05,0c.02,0,.03.02.04.03,0,.02,0,.05,0,.07-.02.03-.05.05-.1.06-.02,0-.04,0-.06,0-.02,0-.03-.02-.03-.04,0-.02,0-.05.02-.07.02-.03.06-.04.09-.05Z"/>
    <path class="st27" d="M16.52,3.74s0-.04.01-.06c0-.03.01-.05.02-.08.05-.19.16-.36.31-.52.16-.16.36-.28.56-.41.09-.06.18-.12.27-.19.09-.06.17-.13.25-.19.15-.13.29-.26.43-.4.17-.17.32-.38.56-.5.03-.02.07-.04.11-.05.07-.03.26-.09.33-.08h0s-.01,0-.02,0c0,0,.01,0,.02,0,.01,0,.02,0,.03,0-.05.01-.11.02-.16.03-.02,0-.03,0-.05.01-.02,0-.03,0-.05.01-.02,0-.03.01-.05.02-.02,0-.03.01-.04.02-.01,0-.03.01-.04.02-.01,0-.03.01-.04.02-.01,0-.03.02-.04.02-.01,0-.03.02-.04.02-.12.08-.22.18-.31.29l-.13.13c-.14.15-.29.3-.45.44-.16.13-.34.26-.51.38-.26.18-.55.35-.72.6-.1.14-.17.29-.2.44-.01,0-.03,0-.04.01Z"/>
    <path class="st30" d="M17.8,2.51c.05-.01.11-.02.16-.02.03,0,.06,0,.08,0,0,0,.03,0,.04.01.03,0,.06.02.08.03.03.02.06.04.08.06,0,0,.02.02.03.03-.03.03-.06.06-.09.08-.09.09-.18.17-.28.25l-.03.02s-.01-.02-.02-.03c-.03-.05-.1-.09-.16-.11-.02,0-.04,0-.06-.02,0,0,0,0,0,0-.03-.06-.02-.13,0-.19.04-.06.09-.1.17-.13Z"/>
    <path class="st27" d="M17.85,2.96s.03,0,.04,0l-.03.02s-.01-.02-.02-.03Z"/>
    <path class="st27" d="M17.97,2.49s.06,0,.08,0c0,0,.03,0,.04.01.03,0,.06.02.08.03.03.02.06.04.08.06,0,0,.02.02.03.03-.03.03-.06.06-.09.08,0-.04-.01-.08-.04-.12-.04-.06-.1-.08-.18-.1Z"/>
    <path class="st42" d="M17.83,2.54s.03,0,.05,0c.02,0,.03.02.03.04,0,.03,0,.05-.02.07-.02.03-.05.04-.09.05-.02,0-.04,0-.06,0-.02,0-.02-.02-.03-.03,0-.03,0-.05.02-.08.02-.03.05-.04.09-.05Z"/>
    <path class="st30" d="M16.9,3.2s0,0,0,0c.01-.02.04-.04.05-.06.08-.08.18-.15.28-.23.04-.03.08-.06.13-.09.05-.03.1-.06.14-.09.03-.02.1-.08.13-.08-.03.06-.03.13,0,.19,0,0,0,0,0,0,.02,0,.04,0,.06.02.06.02.13.06.16.11,0,0,.01.02.02.03-.03.02-.05.04-.08.07-.11.09-.23.17-.35.25-.03.02-.06.04-.09.06-.13.08-.26.15-.4.22-.01,0-.04.02-.06.03-.02-.01-.03-.02-.04-.04-.07-.07-.08-.14-.06-.23.02-.06.05-.1.11-.14Z"/>
    <path class="st16" d="M17.23,3.17c.08.02.17.07.21.13-.03.02-.06.04-.09.06,0,0,0-.01,0-.02,0-.08-.05-.12-.12-.17Z"/>
    <path class="st16" d="M17.63,2.83s0,0,0,0c.02,0,.04,0,.06.02.06.02.13.06.16.11,0,0,.01.02.02.03-.03.02-.05.04-.08.07,0-.01,0-.03,0-.04,0,0,0,0,0-.01,0,0,0,0,0-.01,0,0,0,0,0-.01,0,0,0,0,0-.01,0,0,0,0,0-.01,0,0,0,0,0-.01,0,0,0,0,0,0,0,0,0,0,0,0,0,0,0,0,0,0,0,0,0,0,0,0,0,0,0,0,0,0,0,0,0,0,0,0,0,0,0,0,0,0,0,0,0,0,0,0,0,0,0,0-.01,0,0,0,0,0-.01,0-.02-.01-.04-.02-.05-.03h0Z"/>
    <path class="st42" d="M17.41,2.88s.04,0,.06,0c.02,0,.03.02.04.04,0,.02,0,.05-.01.07-.02.03-.05.04-.08.05-.02,0-.04,0-.06,0-.02,0-.03-.02-.03-.03,0-.02,0-.05.01-.07.02-.03.04-.04.08-.05Z"/>
    <path class="st42" d="M17.01,3.19s.03,0,.04.01c.02,0,.03.02.03.04,0,.03,0,.06-.02.08-.02.02-.05.04-.09.04-.02,0-.04,0-.06-.01-.02-.01-.02-.03-.03-.04,0-.03.01-.06.04-.08.03-.02.06-.03.09-.04Z"/>
    <path class="st59" d="M16.9,3.2s0,0,0,0c.01-.02.04-.04.05-.06.08-.08.18-.15.28-.23.04-.03.08-.06.13-.09.05-.03.1-.06.14-.09.03-.02.1-.08.13-.08-.03.06-.03.13,0,.19h0c-.08-.02-.18-.01-.25.02-.07.03-.13.08-.15.14-.02.06-.02.12,0,.18-.08-.03-.16-.04-.25-.01-.03,0-.06.02-.08.04Z"/>
    <path class="st29" d="M19.59,1.27s0,.06,0,.09c.02.03.03.05.06.07.03.03.07.05.11.06h.03c-.03.17-.07.32-.13.47-.08.19-.18.36-.3.54-.03.05-.07.1-.1.14-.29.38-.65.73-1.12.99-.09.05-.19.1-.29.14-.38.16-.77.24-1.2.18-.03,0-.07,0-.1-.02-.07-.01-.12-.03-.18,0-.04.02-.06.05-.06.09,0,0,0,0,0,0-.04-.02-.06-.05-.07-.09,0-.03,0-.07.03-.09.04-.04.14-.08.21-.1.02,0,.03,0,.05-.02.01,0,.03,0,.04-.01.01,0,.03,0,.04-.01.1-.03.19-.07.29-.11.02,0,.04-.02.06-.03.14-.07.27-.14.4-.22.03-.02.06-.04.09-.06.12-.08.24-.16.35-.25.03-.02.05-.04.08-.07l.03-.02c.1-.08.2-.16.28-.25.03-.02.06-.05.09-.08.03-.03.07-.07.11-.1.07-.07.13-.13.19-.2.02-.02.04-.04.05-.05.01-.01.02-.02.03-.03.04-.04.08-.09.12-.14.04-.04.08-.09.12-.13.03-.02.08-.09.1-.11.09-.1.17-.2.27-.3.01-.01.02-.02.03-.03.04-.05.09-.1.13-.14.03-.03.06-.06.09-.09.02,0,.04-.01.06-.02h0Z"/>
    <path class="st33" d="M19.59,1.27s0,.06,0,.09c-.03.04-.06.08-.08.11-.11.15-.23.29-.35.44-.29.36-.61.71-.97,1.03-.06.05-.11.1-.17.14-.08.06-.16.12-.24.18-.23.17-.5.32-.78.43-.1.04-.21.08-.32.11-.09.02-.17.04-.26.06h0s-.06.02-.09.04c-.02.01-.03.03-.05.04,0,0,0,0,0,0,0,.01,0,.05,0,.06,0,0,0-.02,0-.03,0-.03.04-.05.07-.07.08-.04.16-.02.25,0,.08.01.16.01.25.01.36,0,.69-.09,1-.23.07-.03.14-.06.2-.1.06-.03.12-.07.18-.11.4-.26.74-.58,1.01-.92.03-.04.07-.08.1-.12.02-.03.04-.05.05-.08.05-.08.1-.15.14-.23.1-.19.18-.42.22-.63h.03c-.03.17-.07.32-.13.47-.08.19-.18.36-.3.54-.03.05-.07.1-.1.14-.29.38-.65.73-1.12.99-.09.05-.19.1-.29.14-.38.16-.77.24-1.2.18-.03,0-.07,0-.1-.02-.07-.01-.12-.03-.18,0-.04.02-.06.05-.06.09,0,0,0,0,0,0-.04-.02-.06-.05-.07-.09,0-.03,0-.07.03-.09.04-.04.14-.08.21-.1.02,0,.03,0,.05-.02.01,0,.03,0,.04-.01.01,0,.03,0,.04-.01.1-.03.19-.07.29-.11.02,0,.04-.02.06-.03.14-.07.27-.14.4-.22.03-.02.06-.04.09-.06.12-.08.24-.16.35-.25.03-.02.05-.04.08-.07l.03-.02c.1-.08.2-.16.28-.25.03-.02.06-.05.09-.08.03-.03.07-.07.11-.1.07-.07.13-.13.19-.2.02-.02.04-.04.05-.05.01-.01.02-.02.03-.03.04-.04.08-.09.12-.14.04-.04.08-.09.12-.13.03-.02.08-.09.1-.11.09-.1.17-.2.27-.3.01-.01.02-.02.03-.03.04-.05.09-.1.13-.14.03-.03.06-.06.09-.09.02,0,.04-.01.06-.02h0Z"/>
    <path class="st27" d="M16.29,3.91s0-.01,0-.02c.03-.05.08-.07.14-.08-.02.02-.06.02-.08.04-.03.02-.04.04-.06.06h0s0,0,0,0Z"/>
    <path class="st27" d="M19.59,1.27s0,.06,0,.09c-.03.04-.06.08-.08.11-.11.15-.23.29-.35.44-.29.36-.61.71-.97,1.03-.06.05-.11.1-.17.14-.08.06-.16.12-.24.18-.23.17-.5.32-.78.43-.1.04-.21.08-.32.11-.09.02-.17.04-.26.06h0s-.06.02-.09.04c-.02.01-.03.03-.05.04h0s0-.02,0-.02h0s.03-.04.06-.06c.02-.01.06-.02.08-.04.05-.02.1-.03.15-.05.03-.01.08-.03.11-.04.05-.02.09-.03.14-.05.17-.07.32-.15.47-.24.8-.47,1.38-1.13,1.93-1.77l.26-.3s.07-.07.09-.1h0Z"/>
    <path class="st16" d="M16.44,3.81s.1-.03.15-.05c-.02.01-.05.02-.07.02-.02,0-.03.01-.05.02-.05.02-.09.03-.13.06,0,0-.02.01-.02.02,0,0,0,0,0,0,.01-.01.08-.04.1-.04,0,0,0,0,0,0h0s-.06.02-.09.04c-.02.01-.03.03-.05.04h0s0-.02,0-.02h0s.03-.04.06-.06c.02-.01.06-.02.08-.04Z"/>
  </g>
</svg>