<?xml version="1.0" encoding="UTF-8"?>
<svg xmlns="http://www.w3.org/2000/svg" version="1.1" xmlns:xlink="http://www.w3.org/1999/xlink" viewBox="0 0 623.62 340.16">
  <!-- Generator: Adobe Illustrator 29.1.0, SVG Export Plug-In . SVG Version: 2.1.0 Build 142)  -->
  <defs>
    <style>
      .st0 {
        fill: url(#Degradado_sin_nombre_36);
      }

      .st1 {
        fill: url(#Degradado_sin_nombre_34);
      }

      .st2 {
        fill: url(#Degradado_sin_nombre_24);
      }

      .st3 {
        fill: url(#Degradado_sin_nombre_16);
      }

      .st4 {
        fill: url(#Degradado_sin_nombre_201);
      }

      .st5 {
        fill: url(#Degradado_sin_nombre_28);
      }

      .st6 {
        fill: #a55e2f;
      }

      .st7 {
        fill: url(#Degradado_sin_nombre_19);
      }

      .st8 {
        fill: url(#Degradado_sin_nombre_311);
      }

      .st9 {
        fill: url(#Degradado_sin_nombre_210);
      }

      .st10 {
        fill: url(#Degradado_sin_nombre_26);
      }

      .st11 {
        fill: url(#Degradado_sin_nombre_310);
      }

      .st12 {
        fill: #1e1e1e;
      }

      .st13 {
        fill: #bc723b;
      }

      .st14 {
        fill: url(#Degradado_sin_nombre_25);
      }

      .st15 {
        font-size: 13.23px;
      }

      .st15, .st16, .st17, .st18, .st19 {
        font-family: MyriadPro-Regular, 'Myriad Pro';
      }

      .st20 {
        fill: url(#Degradado_sin_nombre_216);
      }

      .st21 {
        fill: url(#Degradado_sin_nombre_212);
      }

      .st22 {
        fill: url(#radial-gradient);
      }

      .st16 {
        font-size: 13.28px;
      }

      .st17 {
        font-size: 15.56px;
      }

      .st23 {
        fill: url(#radial-gradient5);
      }

      .st24 {
        fill: url(#radial-gradient1);
      }

      .st18 {
        font-size: 16.01px;
      }

      .st25 {
        fill: url(#Degradado_sin_nombre_2);
      }

      .st26 {
        isolation: isolate;
      }

      .st27 {
        fill: url(#Degradado_sin_nombre_32);
      }

      .st28 {
        fill: #282828;
      }

      .st29 {
        fill: #c98043;
      }

      .st30 {
        fill: #8c8c8c;
      }

      .st31 {
        fill: url(#radial-gradient7);
      }

      .st32 {
        fill: url(#Degradado_sin_nombre_211);
      }

      .st33 {
        fill: url(#Degradado_sin_nombre_35);
      }

      .st34 {
        fill: url(#Degradado_sin_nombre_17);
      }

      .st35 {
        fill: #f7981c;
        mix-blend-mode: multiply;
        opacity: .38;
      }

      .st36 {
        fill: #fbb415;
      }

      .st37 {
        fill: url(#Degradado_sin_nombre_214);
      }

      .st38 {
        fill: url(#Degradado_sin_nombre_23);
      }

      .st39 {
        fill: url(#Degradado_sin_nombre_213);
      }

      .st40 {
        fill: url(#Degradado_sin_nombre_312);
      }

      .st41 {
        fill: #333;
      }

      .st42 {
        fill: url(#Degradado_sin_nombre_21);
      }

      .st43 {
        fill: #d34aac;
      }

      .st44 {
        fill: #efefef;
      }

      .st45 {
        fill: #af6533;
      }

      .st46 {
        fill: url(#Degradado_sin_nombre_215);
      }

      .st47 {
        fill: url(#radial-gradient8);
      }

      .st48 {
        fill: url(#Degradado_sin_nombre_3);
      }

      .st49 {
        fill: #ffe975;
      }

      .st50 {
        fill: url(#Degradado_sin_nombre_37);
      }

      .st51 {
        fill: #c0ff88;
      }

      .st52 {
        fill: #eba820;
      }

      .st53 {
        fill: url(#Degradado_sin_nombre_315);
      }

      .st54 {
        fill: url(#radial-gradient6);
      }

      .st55 {
        fill: url(#Degradado_sin_nombre_22);
      }

      .st56 {
        fill: url(#radial-gradient2);
      }

      .st57 {
        fill: url(#Degradado_sin_nombre_18);
      }

      .st58 {
        fill: url(#Degradado_sin_nombre_39);
      }

      .st59 {
        fill: url(#Degradado_sin_nombre_27);
      }

      .st60 {
        fill: url(#Degradado_sin_nombre_313);
      }

      .st19 {
        font-size: 14.8px;
      }

      .st61 {
        fill: url(#radial-gradient4);
      }

      .st62 {
        fill: url(#Degradado_sin_nombre_20);
      }

      .st63 {
        fill: url(#radial-gradient3);
      }

      .st64 {
        fill: url(#Degradado_sin_nombre_33);
      }

      .st65 {
        fill: url(#Degradado_sin_nombre_316);
      }

      .st66 {
        fill: url(#Degradado_sin_nombre_314);
      }

      .st67 {
        fill: url(#Degradado_sin_nombre_29);
      }

      .st68 {
        fill: url(#Degradado_sin_nombre_31);
      }

      .st69 {
        fill: #fef59b;
        opacity: .63;
      }

      .st70 {
        fill: url(#Degradado_sin_nombre_38);
      }
    </style>
    <linearGradient id="Degradado_sin_nombre_27" data-name="Degradado sin nombre 27" x1="500.54" y1="29.14" x2="500.54" y2="22.34" gradientTransform="translate(-29.23 8.86)" gradientUnits="userSpaceOnUse">
      <stop offset="0" stop-color="#f7a754"/>
      <stop offset="1" stop-color="#573818"/>
    </linearGradient>
    <linearGradient id="Degradado_sin_nombre_26" data-name="Degradado sin nombre 26" x1="504.77" y1="35.15" x2="498.72" y2="22.92" gradientTransform="translate(-29.18 8.85)" gradientUnits="userSpaceOnUse">
      <stop offset="0" stop-color="#a06a34"/>
      <stop offset=".67" stop-color="#e2b261"/>
      <stop offset="1" stop-color="#ffd275"/>
    </linearGradient>
    <linearGradient id="Degradado_sin_nombre_25" data-name="Degradado sin nombre 25" x1="488.86" y1="20.84" x2="495.05" y2="32.59" gradientTransform="translate(-2.12 199.04) rotate(-22.1)" gradientUnits="userSpaceOnUse">
      <stop offset="0" stop-color="#f7a754"/>
      <stop offset="1" stop-color="#ffd275"/>
    </linearGradient>
    <linearGradient id="Degradado_sin_nombre_20" data-name="Degradado sin nombre 20" x1="488.1" y1="21.54" x2="494.59" y2="30.89" gradientTransform="translate(-2.12 199.04) rotate(-22.1)" gradientUnits="userSpaceOnUse">
      <stop offset="0" stop-color="#f7a754"/>
      <stop offset="1" stop-color="#63401c"/>
    </linearGradient>
    <linearGradient id="Degradado_sin_nombre_201" data-name="Degradado sin nombre 20" x1="504.17" y1="28.35" x2="510.3" y2="23.01" xlink:href="#Degradado_sin_nombre_20"/>
    <linearGradient id="Degradado_sin_nombre_24" data-name="Degradado sin nombre 24" x1="492.73" y1="77.42" x2="503.51" y2="77.42" gradientTransform="translate(-2.12 199.04) rotate(-22.1)" gradientUnits="userSpaceOnUse">
      <stop offset="0" stop-color="#a06a34"/>
      <stop offset=".3" stop-color="#301300"/>
      <stop offset=".34" stop-color="#371803"/>
      <stop offset=".41" stop-color="#4c280c"/>
      <stop offset=".49" stop-color="#6f421a"/>
      <stop offset=".58" stop-color="#a0662f"/>
      <stop offset=".68" stop-color="#dd9349"/>
      <stop offset=".72" stop-color="#f7a754"/>
      <stop offset="1" stop-color="#573818"/>
    </linearGradient>
    <linearGradient id="Degradado_sin_nombre_2" data-name="Degradado sin nombre 2" x1="502.5" y1="50.3" x2="493.8" y2="51.47" gradientTransform="translate(-2.12 199.04) rotate(-22.1)" gradientUnits="userSpaceOnUse">
      <stop offset="0" stop-color="#573818"/>
      <stop offset=".54" stop-color="#553616"/>
      <stop offset=".74" stop-color="#4e2f12"/>
      <stop offset=".88" stop-color="#42240b"/>
      <stop offset=".99" stop-color="#311401"/>
      <stop offset="1" stop-color="#301300"/>
    </linearGradient>
    <linearGradient id="Degradado_sin_nombre_3" data-name="Degradado sin nombre 3" x1="493.78" y1="52.37" x2="502.85" y2="50.08" gradientTransform="translate(-2.12 199.04) rotate(-22.1)" gradientUnits="userSpaceOnUse">
      <stop offset="0" stop-color="#573818"/>
      <stop offset=".05" stop-color="#694822"/>
      <stop offset=".23" stop-color="#a98345"/>
      <stop offset=".39" stop-color="#d7ad5f"/>
      <stop offset=".51" stop-color="#f4c86f"/>
      <stop offset=".58" stop-color="#ffd275"/>
      <stop offset=".67" stop-color="#d1a75b"/>
      <stop offset=".77" stop-color="#a27b40"/>
      <stop offset=".87" stop-color="#7f5a2c"/>
      <stop offset=".95" stop-color="#6a4720"/>
      <stop offset="1" stop-color="#63401c"/>
    </linearGradient>
    <linearGradient id="Degradado_sin_nombre_21" data-name="Degradado sin nombre 2" x1="502.5" y1="54.48" x2="493.8" y2="55.64" xlink:href="#Degradado_sin_nombre_2"/>
    <linearGradient id="Degradado_sin_nombre_31" data-name="Degradado sin nombre 3" x1="493.78" y1="56.55" x2="502.85" y2="54.26" xlink:href="#Degradado_sin_nombre_3"/>
    <linearGradient id="Degradado_sin_nombre_22" data-name="Degradado sin nombre 2" x1="502.5" y1="58.65" x2="493.8" y2="59.81" xlink:href="#Degradado_sin_nombre_2"/>
    <linearGradient id="Degradado_sin_nombre_32" data-name="Degradado sin nombre 3" x1="493.78" y1="60.72" x2="502.85" y2="58.43" xlink:href="#Degradado_sin_nombre_3"/>
    <linearGradient id="Degradado_sin_nombre_23" data-name="Degradado sin nombre 2" x1="502.5" y1="62.82" x2="493.8" y2="63.99" xlink:href="#Degradado_sin_nombre_2"/>
    <linearGradient id="Degradado_sin_nombre_33" data-name="Degradado sin nombre 3" x1="493.78" y1="64.89" x2="502.85" y2="62.6" xlink:href="#Degradado_sin_nombre_3"/>
    <linearGradient id="Degradado_sin_nombre_24" data-name="Degradado sin nombre 2" x1="502.5" y1="67" x2="493.8" y2="68.16" xlink:href="#Degradado_sin_nombre_2"/>
    <linearGradient id="Degradado_sin_nombre_34" data-name="Degradado sin nombre 3" x1="493.78" y1="69.07" x2="502.85" y2="66.78" xlink:href="#Degradado_sin_nombre_3"/>
    <linearGradient id="Degradado_sin_nombre_25" data-name="Degradado sin nombre 2" x1="502.5" y1="71.17" x2="493.8" y2="72.33" xlink:href="#Degradado_sin_nombre_2"/>
    <linearGradient id="Degradado_sin_nombre_35" data-name="Degradado sin nombre 3" x1="493.78" y1="73.24" x2="502.85" y2="70.95" xlink:href="#Degradado_sin_nombre_3"/>
    <linearGradient id="Degradado_sin_nombre_26" data-name="Degradado sin nombre 2" x1="502.5" y1="75.34" x2="493.8" y2="76.51" xlink:href="#Degradado_sin_nombre_2"/>
    <linearGradient id="Degradado_sin_nombre_36" data-name="Degradado sin nombre 3" x1="493.78" y1="77.41" x2="502.85" y2="75.12" xlink:href="#Degradado_sin_nombre_3"/>
    <linearGradient id="Degradado_sin_nombre_27" data-name="Degradado sin nombre 2" x1="502.5" y1="79.52" x2="493.8" y2="80.68" xlink:href="#Degradado_sin_nombre_2"/>
    <linearGradient id="Degradado_sin_nombre_37" data-name="Degradado sin nombre 3" x1="493.78" y1="81.59" x2="502.85" y2="79.3" xlink:href="#Degradado_sin_nombre_3"/>
    <linearGradient id="Degradado_sin_nombre_28" data-name="Degradado sin nombre 2" x1="502.5" y1="83.69" x2="493.8" y2="84.85" xlink:href="#Degradado_sin_nombre_2"/>
    <linearGradient id="Degradado_sin_nombre_38" data-name="Degradado sin nombre 3" x1="493.78" y1="85.76" x2="502.85" y2="83.47" xlink:href="#Degradado_sin_nombre_3"/>
    <linearGradient id="Degradado_sin_nombre_29" data-name="Degradado sin nombre 2" x1="502.5" y1="87.86" x2="493.8" y2="89.03" xlink:href="#Degradado_sin_nombre_2"/>
    <linearGradient id="Degradado_sin_nombre_39" data-name="Degradado sin nombre 3" x1="493.78" y1="89.93" x2="502.85" y2="87.64" xlink:href="#Degradado_sin_nombre_3"/>
    <linearGradient id="Degradado_sin_nombre_210" data-name="Degradado sin nombre 2" x1="502.5" y1="92.04" x2="493.8" y2="93.2" xlink:href="#Degradado_sin_nombre_2"/>
    <linearGradient id="Degradado_sin_nombre_310" data-name="Degradado sin nombre 3" x1="493.78" y1="94.11" x2="502.85" y2="91.82" xlink:href="#Degradado_sin_nombre_3"/>
    <linearGradient id="Degradado_sin_nombre_211" data-name="Degradado sin nombre 2" x1="502.5" y1="96.21" x2="493.8" y2="97.37" xlink:href="#Degradado_sin_nombre_2"/>
    <linearGradient id="Degradado_sin_nombre_311" data-name="Degradado sin nombre 3" x1="493.78" y1="98.28" x2="502.85" y2="95.99" xlink:href="#Degradado_sin_nombre_3"/>
    <linearGradient id="Degradado_sin_nombre_212" data-name="Degradado sin nombre 2" x1="502.5" y1="100.38" x2="493.8" y2="101.55" xlink:href="#Degradado_sin_nombre_2"/>
    <linearGradient id="Degradado_sin_nombre_312" data-name="Degradado sin nombre 3" x1="493.78" y1="102.45" x2="502.85" y2="100.16" xlink:href="#Degradado_sin_nombre_3"/>
    <linearGradient id="Degradado_sin_nombre_213" data-name="Degradado sin nombre 2" x1="502.5" y1="104.56" x2="493.8" y2="105.72" xlink:href="#Degradado_sin_nombre_2"/>
    <linearGradient id="Degradado_sin_nombre_313" data-name="Degradado sin nombre 3" x1="493.78" y1="106.63" x2="502.85" y2="104.34" xlink:href="#Degradado_sin_nombre_3"/>
    <linearGradient id="Degradado_sin_nombre_214" data-name="Degradado sin nombre 2" x1="502.5" y1="108.73" x2="493.8" y2="109.89" xlink:href="#Degradado_sin_nombre_2"/>
    <linearGradient id="Degradado_sin_nombre_314" data-name="Degradado sin nombre 3" x1="493.78" y1="110.8" x2="502.85" y2="108.51" xlink:href="#Degradado_sin_nombre_3"/>
    <linearGradient id="Degradado_sin_nombre_315" data-name="Degradado sin nombre 3" x1="494.32" y1="114.98" x2="502.9" y2="112.81" xlink:href="#Degradado_sin_nombre_3"/>
    <linearGradient id="Degradado_sin_nombre_215" data-name="Degradado sin nombre 2" x1="502.44" y1="112.14" x2="494.26" y2="113.23" xlink:href="#Degradado_sin_nombre_2"/>
    <linearGradient id="Degradado_sin_nombre_316" data-name="Degradado sin nombre 3" x1="495.1" y1="119.06" x2="502.01" y2="117.31" xlink:href="#Degradado_sin_nombre_3"/>
    <linearGradient id="Degradado_sin_nombre_216" data-name="Degradado sin nombre 2" x1="501.56" y1="116.35" x2="494.91" y2="117.24" xlink:href="#Degradado_sin_nombre_2"/>
    <linearGradient id="Degradado_sin_nombre_19" data-name="Degradado sin nombre 19" x1="514.43" y1="97.21" x2="514.43" y2="63.08" gradientTransform="translate(577.44 -430.7) rotate(86.76)" gradientUnits="userSpaceOnUse">
      <stop offset="0" stop-color="#573818"/>
      <stop offset=".08" stop-color="#5b3c1a"/>
      <stop offset=".17" stop-color="#6a4922"/>
      <stop offset=".26" stop-color="#815f2f"/>
      <stop offset=".37" stop-color="#a27d41"/>
      <stop offset=".47" stop-color="#cca459"/>
      <stop offset=".58" stop-color="#ffd275"/>
      <stop offset="1" stop-color="#f7a754"/>
    </linearGradient>
    <linearGradient id="Degradado_sin_nombre_18" data-name="Degradado sin nombre 18" x1="514.43" y1="96.31" x2="514.43" y2="56.02" gradientTransform="translate(577.44 -430.7) rotate(86.76)" gradientUnits="userSpaceOnUse">
      <stop offset=".1" stop-color="#f7a754"/>
      <stop offset=".81" stop-color="#a06a34"/>
    </linearGradient>
    <linearGradient id="Degradado_sin_nombre_17" data-name="Degradado sin nombre 17" x1="514.43" y1="95" x2="514.43" y2="67.25" gradientTransform="translate(577.44 -430.7) rotate(86.76)" gradientUnits="userSpaceOnUse">
      <stop offset="0" stop-color="#f7a754"/>
      <stop offset=".49" stop-color="#301300"/>
      <stop offset=".53" stop-color="#f7a754"/>
      <stop offset="1" stop-color="#63401c"/>
    </linearGradient>
    <linearGradient id="Degradado_sin_nombre_16" data-name="Degradado sin nombre 16" x1="506.36" y1="68.55" x2="521.47" y2="90.75" gradientTransform="translate(577.44 -430.7) rotate(86.76)" gradientUnits="userSpaceOnUse">
      <stop offset="0" stop-color="#573818"/>
      <stop offset="1" stop-color="#f7a754"/>
    </linearGradient>
    <radialGradient id="radial-gradient" cx="102.57" cy="231.55" fx="102.57" fy="231.55" r="55.62" gradientUnits="userSpaceOnUse">
      <stop offset=".15" stop-color="#fff"/>
      <stop offset=".4" stop-color="#fcfcfc"/>
      <stop offset=".56" stop-color="#f3f4f4"/>
      <stop offset=".68" stop-color="#e6e7e8"/>
      <stop offset=".73" stop-color="#dbdcdd"/>
      <stop offset=".82" stop-color="#bebfc1"/>
      <stop offset=".93" stop-color="#909193"/>
      <stop offset="1" stop-color="#6d6e70"/>
    </radialGradient>
    <radialGradient id="radial-gradient1" cx="98.23" cy="237.97" fx="98.23" fy="237.97" r="55.02" gradientUnits="userSpaceOnUse">
      <stop offset=".13" stop-color="#e6e7e8"/>
      <stop offset=".77" stop-color="#adafb1"/>
      <stop offset="1" stop-color="#231f20"/>
    </radialGradient>
    <radialGradient id="radial-gradient2" cx="111.98" cy="210.59" fx="111.98" fy="210.59" r="17.33" gradientUnits="userSpaceOnUse">
      <stop offset="0" stop-color="#404041"/>
      <stop offset=".34" stop-color="#3b3a3b"/>
      <stop offset=".76" stop-color="#2d2b2c"/>
      <stop offset="1" stop-color="#231f20"/>
    </radialGradient>
    <radialGradient id="radial-gradient3" cx="140.55" cy="229.17" fx="140.55" fy="229.17" r="19.06" xlink:href="#radial-gradient2"/>
    <radialGradient id="radial-gradient4" cx="112.71" cy="277.31" fx="112.71" fy="277.31" r="18.29" gradientUnits="userSpaceOnUse">
      <stop offset="0" stop-color="#323031"/>
      <stop offset=".5" stop-color="#2d2a2b"/>
      <stop offset="1" stop-color="#231f20"/>
    </radialGradient>
    <radialGradient id="radial-gradient5" cx="81.52" cy="228.54" fx="81.52" fy="228.54" r="18.82" xlink:href="#radial-gradient2"/>
    <radialGradient id="radial-gradient6" cx="83.21" cy="262.44" fx="83.21" fy="262.44" r="20.04" xlink:href="#radial-gradient2"/>
    <radialGradient id="radial-gradient7" cx="142.15" cy="261.16" fx="142.15" fy="261.16" r="18.92" xlink:href="#radial-gradient2"/>
    <radialGradient id="radial-gradient8" cx="99.29" cy="237.98" fx="99.29" fy="237.98" r="26.55" gradientUnits="userSpaceOnUse">
      <stop offset=".02" stop-color="#58595b"/>
      <stop offset=".39" stop-color="#3d3c3d"/>
      <stop offset=".76" stop-color="#2a2627"/>
      <stop offset="1" stop-color="#231f20"/>
    </radialGradient>
  </defs>
  <g class="st26">
    <g id="Layer_1">
      <rect class="st51" x="-11.71" y="-13.94" width="641.41" height="369.88"/>
      <g id="_x28__x2F_techno_x2F_math_x2F_shapes_x2F_level3_x2F_hexagon_x2F_hexagon.mp3_x29_">
        <polygon class="st43" points="353.66 199.48 353.66 151.98 312.52 128.23 271.38 151.98 271.38 199.48 312.52 223.24 353.66 199.48"/>
      </g>
      <g id="_x28__x2F_techno_x2F_math_x2F_shapes_x2F_level3_x2F_hexagon_x2F_honey_comb.mp3_x29_">
        <g>
          <g>
            <polygon class="st49" points="112.9 57.59 113.45 37.01 131.54 27.2 149.09 37.96 148.54 58.54 130.45 68.36 112.9 57.59"/>
            <path class="st52" d="M112.77,57.59l.55-20.58s.03-.08.07-.11l18.1-9.81s.09-.02.12,0l17.55,10.77s.06.06.06.11l-.55,20.58s-.03.08-.07.11l-18.1,9.81s-.09.02-.12,0l-17.55-10.77s-.06-.06-.06-.11ZM113.57,37.09l-.55,20.43,17.42,10.69,17.97-9.74.55-20.43-17.42-10.69-17.97,9.74Z"/>
          </g>
          <g>
            <polygon class="st36" points="114.51 56.69 115.01 37.94 131.5 29 147.48 38.81 146.98 57.56 130.49 66.5 114.51 56.69"/>
            <path class="st52" d="M114.38,56.69l.5-18.75s.03-.08.07-.11l16.49-8.94s.09-.02.12,0l15.99,9.81s.06.06.06.11l-.5,18.75s-.03.08-.07.11l-16.49,8.94s-.09.02-.12,0l-15.99-9.81s-.06-.06-.06-.11ZM115.13,38.02l-.5,18.61,15.87,9.73,16.36-8.87.5-18.61-15.87-9.73-16.36,8.87Z"/>
          </g>
          <path class="st35" d="M146.98,57.56l.5-18.75-15.99-9.81-16.49,8.94-.5,18.75,15.99,9.81,16.49-8.94ZM128.13,61.15c-1.35-.72-2.57-1.74-3.6-2.99-.96-1.16-1.68-2.56-2.18-4.05-.52-1.54-.81-3.19-.9-4.85-.1-1.69,0-3.4.31-5.06.29-1.62.77-3.21,1.47-4.66.74-1.55,1.74-2.92,2.93-4.02,1.32-1.23,2.87-2.14,4.52-2.58.82-.22,1.66-.33,2.5-.3.89.03,1.77.24,2.62.55.87.32,1.71.75,2.51,1.28.25.16.49.33.73.51,1.08.55,2.09,1.25,3,2.12,1.1,1.07,2.02,2.39,2.6,3.93.59,1.57.9,3.29,1,5.01.1,1.81-.03,3.64-.38,5.41-.34,1.7-.9,3.36-1.73,4.82-.8,1.42-1.88,2.63-3.08,3.6-1.2.97-2.54,1.68-3.94,2.11-1.38.42-2.82.57-4.24.43-1.43-.14-2.83-.56-4.13-1.26Z"/>
          <path class="st69" d="M118.14,47.31c.29-.31.52-.68.73-1.05.23-.41.41-.84.57-1.27.32-.88.54-1.79.81-2.68.27-.89.6-1.75,1.06-2.55.44-.76.96-1.46,1.55-2.11.61-.67,1.27-1.3,1.96-1.89.76-.64,1.58-1.21,2.43-1.73.84-.52,1.71-1,2.57-1.49.34-.19.7-.38,1.02-.6.26-.17.52-.37.71-.63.17-.23.26-.52.08-.77-.15-.22-.41-.26-.66-.21-.29.06-.57.21-.82.37-.23.14-.44.3-.65.46-1.21.94-2.47,1.8-3.81,2.53-.47.23-.93.47-1.4.71-.05.03-.11.06-.16.08-.24.11-.48.22-.72.32-.03.01-.04.04-.04.06-.16.08-.32.16-.49.24-.46.22-.93.43-1.4.64-.93.42-1.86.85-2.72,1.4-.74.47-1.44,1.04-1.93,1.77-.24.36-.41.76-.51,1.19-.1.45-.15.92-.17,1.39-.03.49-.04.98-.07,1.48-.04.54-.08,1.09-.09,1.63-.02.8.01,1.69.41,2.4.17.31.46.63.82.71.36.08.68-.15.91-.41Z"/>
          <path class="st69" d="M118.25,52.75c.12-.13.22-.29.29-.46.14-.35.16-.73.13-1.1-.07-.84-.92-3.12-2.05-1.94-.25.26-.37.63-.43.99-.09.53-.07,1.08.05,1.61.09.37.24.75.52,1,.45.41,1.09.33,1.49-.1Z"/>
          <path class="st69" d="M118.04,39.68c.27-.05.5-.2.7-.38.21-.19.38-.4.56-.61.2-.23.41-.43.65-.61.54-.4,1.15-.71,1.75-1.01.34-.17.68-.33,1.02-.48.22-.1.46-.19.67-.31.21-.12.42-.3.47-.55.02-.13,0-.26-.11-.34-.09-.06-.19-.07-.29-.06-.29.03-.53.21-.75.39-.2.16-.4.3-.61.45-.13.08-.25.16-.38.23-.64.36-1.3.7-1.96,1.02-.6.28-1.22.53-1.75.94-.21.16-.42.34-.53.58-.08.18-.09.4.02.57.12.19.35.23.56.19Z"/>
        </g>
        <g>
          <g>
            <polygon class="st49" points="129.9 88.93 130.45 68.35 148.54 58.54 166.09 69.3 165.54 89.88 147.44 99.69 129.9 88.93"/>
            <path class="st52" d="M129.77,88.92l.55-20.58s.03-.08.07-.11l18.1-9.81s.09-.02.12,0l17.55,10.77s.06.06.06.11l-.55,20.58s-.03.08-.07.11l-18.1,9.81s-.09.02-.12,0l-17.55-10.77s-.06-.06-.06-.11ZM130.57,68.42l-.55,20.43,17.42,10.69,17.97-9.74.55-20.43-17.42-10.69-17.97,9.74Z"/>
          </g>
          <g>
            <polygon class="st36" points="131.5 88.03 132 69.28 148.49 60.34 164.48 70.15 163.98 88.9 147.49 97.84 131.5 88.03"/>
            <path class="st52" d="M131.38,88.03l.5-18.75s.03-.08.07-.11l16.49-8.94s.09-.02.12,0l15.99,9.81s.06.06.06.11l-.5,18.75s-.03.08-.07.11l-16.49,8.94s-.09.02-.12,0l-15.99-9.81s-.06-.06-.06-.11ZM132.13,69.35l-.5,18.61,15.87,9.73,16.36-8.87.5-18.61-15.87-9.73-16.36,8.87Z"/>
          </g>
          <path class="st35" d="M163.98,88.9l.5-18.75-15.99-9.81-16.49,8.94-.5,18.75,15.99,9.81,16.49-8.94ZM145.13,92.49c-1.35-.72-2.57-1.74-3.6-2.99-.96-1.16-1.68-2.56-2.18-4.05-.52-1.54-.81-3.19-.9-4.85-.1-1.69,0-3.4.31-5.06.29-1.62.77-3.21,1.47-4.66.74-1.55,1.74-2.92,2.93-4.02,1.32-1.23,2.87-2.14,4.52-2.58.82-.22,1.66-.33,2.5-.3.89.03,1.77.24,2.62.55.87.32,1.71.75,2.51,1.28.25.16.49.33.73.51,1.08.55,2.09,1.25,3,2.12,1.1,1.07,2.02,2.39,2.6,3.93.59,1.57.9,3.29,1,5.01.1,1.81-.03,3.64-.38,5.41-.34,1.7-.9,3.36-1.73,4.82-.8,1.42-1.88,2.63-3.08,3.6-1.2.97-2.54,1.68-3.94,2.11-1.38.42-2.82.57-4.24.43-1.43-.14-2.83-.56-4.13-1.26Z"/>
          <path class="st69" d="M135.13,78.65c.29-.31.52-.68.73-1.05.23-.41.41-.84.57-1.27.32-.88.54-1.79.81-2.68.27-.89.6-1.75,1.06-2.55.44-.76.96-1.46,1.55-2.11.61-.67,1.27-1.3,1.96-1.89.76-.64,1.58-1.21,2.43-1.73.84-.52,1.71-1,2.57-1.49.34-.19.7-.38,1.02-.6.26-.17.52-.37.71-.63.17-.23.26-.52.08-.77-.15-.22-.41-.26-.66-.21-.29.06-.57.21-.82.37-.23.14-.44.3-.65.46-1.21.94-2.47,1.8-3.81,2.53-.47.23-.93.47-1.4.71-.05.03-.11.06-.16.08-.24.11-.48.22-.72.32-.03.01-.04.04-.04.06-.16.08-.32.16-.49.24-.46.22-.93.43-1.4.64-.93.42-1.86.85-2.72,1.4-.74.47-1.44,1.04-1.93,1.77-.24.36-.41.76-.51,1.19-.1.45-.15.92-.17,1.39-.03.49-.04.98-.07,1.48-.04.54-.08,1.09-.09,1.63-.02.8.01,1.69.41,2.4.17.31.46.63.82.71.36.08.68-.15.91-.41Z"/>
          <path class="st69" d="M135.24,84.08c.12-.13.22-.29.29-.46.14-.35.16-.73.13-1.1-.07-.84-.92-3.12-2.05-1.94-.25.26-.37.63-.43.99-.09.53-.07,1.08.05,1.61.09.37.24.75.52,1,.45.41,1.09.33,1.49-.1Z"/>
          <path class="st69" d="M135.04,71.02c.27-.05.5-.2.7-.38.21-.19.38-.4.56-.61.2-.22.41-.43.65-.61.54-.4,1.15-.71,1.75-1.01.34-.17.68-.33,1.02-.48.22-.1.46-.19.67-.31.21-.12.42-.3.47-.55.02-.13,0-.26-.11-.34-.09-.06-.19-.07-.29-.06-.29.03-.53.21-.75.39-.2.16-.4.3-.61.45-.13.08-.25.16-.38.23-.64.36-1.3.7-1.96,1.02-.6.28-1.22.53-1.75.94-.21.16-.42.34-.53.58-.08.18-.09.4.02.57.12.19.35.23.56.19Z"/>
        </g>
        <g>
          <g>
            <polygon class="st49" points="58.61 87.02 59.16 66.44 77.26 56.63 94.8 67.4 94.25 87.97 76.16 97.79 58.61 87.02"/>
            <path class="st52" d="M58.49,87.02l.55-20.58s.03-.08.07-.11l18.1-9.81s.09-.02.12,0l17.55,10.77s.06.06.06.11l-.55,20.58s-.03.08-.07.11l-18.1,9.81s-.09.02-.12,0l-17.55-10.77s-.06-.06-.06-.11ZM59.28,66.52l-.55,20.43,17.42,10.69,17.97-9.74.55-20.43-17.42-10.69-17.97,9.74Z"/>
          </g>
          <g>
            <polygon class="st36" points="60.22 86.12 60.72 67.37 77.21 58.43 93.2 68.24 92.69 86.99 76.21 95.93 60.22 86.12"/>
            <path class="st52" d="M60.09,86.12l.5-18.75s.03-.08.07-.11l16.49-8.94s.09-.02.12,0l15.99,9.81s.06.06.06.11l-.5,18.75s-.03.08-.07.11l-16.49,8.94s-.09.02-.12,0l-15.99-9.81s-.06-.06-.06-.11ZM60.84,67.45l-.5,18.61,15.87,9.73,16.36-8.87.5-18.61-15.87-9.73-16.36,8.87Z"/>
          </g>
          <path class="st35" d="M92.69,86.99l.5-18.75-15.99-9.81-16.49,8.94-.5,18.75,15.99,9.81,16.49-8.94ZM73.85,90.58c-1.35-.72-2.57-1.74-3.6-2.99-.96-1.16-1.68-2.56-2.18-4.05-.52-1.54-.81-3.19-.9-4.85-.1-1.69,0-3.4.31-5.06.29-1.62.77-3.21,1.47-4.66.74-1.55,1.74-2.92,2.93-4.02,1.32-1.23,2.87-2.14,4.52-2.58.82-.22,1.66-.33,2.5-.3.89.03,1.77.24,2.62.55.87.32,1.71.75,2.51,1.28.25.16.49.33.73.51,1.08.55,2.09,1.25,3,2.12,1.1,1.07,2.02,2.39,2.6,3.93.59,1.57.9,3.29,1,5.01.1,1.81-.03,3.64-.38,5.41-.34,1.7-.9,3.36-1.73,4.82-.8,1.42-1.88,2.63-3.08,3.6-1.2.97-2.54,1.68-3.94,2.11-1.38.42-2.82.57-4.24.43-1.43-.14-2.83-.56-4.13-1.26Z"/>
          <path class="st69" d="M63.85,76.74c.29-.31.52-.68.73-1.05.23-.41.41-.84.57-1.27.32-.88.54-1.79.81-2.68.27-.89.6-1.75,1.06-2.55.44-.76.96-1.46,1.55-2.11.61-.67,1.27-1.3,1.96-1.89.76-.64,1.58-1.21,2.43-1.73.84-.52,1.71-1,2.57-1.49.34-.19.7-.38,1.02-.6.26-.17.52-.37.71-.63.17-.23.26-.52.08-.77-.15-.22-.41-.26-.66-.21-.29.06-.57.21-.82.37-.23.14-.44.3-.65.46-1.21.94-2.47,1.8-3.81,2.53-.47.23-.93.47-1.4.71-.05.03-.11.06-.16.08-.24.11-.48.22-.72.32-.03.01-.04.04-.04.06-.16.08-.32.16-.49.24-.46.22-.93.43-1.4.64-.93.42-1.86.85-2.72,1.4-.74.47-1.44,1.04-1.93,1.77-.24.36-.41.76-.51,1.19-.1.45-.15.92-.17,1.39-.03.49-.04.98-.07,1.48-.04.54-.08,1.09-.09,1.63-.02.8.01,1.69.41,2.4.17.31.46.63.82.71.36.08.68-.15.91-.41Z"/>
          <path class="st69" d="M63.96,82.18c.12-.13.22-.29.29-.46.14-.35.16-.73.13-1.1-.07-.84-.92-3.12-2.05-1.94-.25.26-.37.63-.43.99-.09.53-.07,1.08.05,1.61.09.37.24.75.52,1,.45.41,1.09.33,1.49-.1Z"/>
          <path class="st69" d="M63.75,69.11c.27-.05.5-.2.7-.38.21-.19.38-.4.56-.61.2-.22.41-.43.65-.61.54-.4,1.15-.71,1.75-1.01.34-.17.68-.33,1.02-.48.22-.1.46-.19.67-.31.21-.12.42-.3.47-.55.02-.13,0-.26-.11-.34-.09-.06-.19-.07-.29-.06-.29.03-.53.21-.75.39-.2.16-.4.3-.61.45-.13.08-.25.16-.38.23-.64.36-1.3.7-1.96,1.02-.6.28-1.22.53-1.75.94-.21.16-.42.34-.53.58-.08.18-.09.4.02.57.12.19.35.23.56.19Z"/>
        </g>
        <g>
          <g>
            <polygon class="st49" points="111.25 119.31 111.8 98.74 129.9 88.92 147.44 99.69 146.89 120.27 128.8 130.08 111.25 119.31"/>
            <path class="st52" d="M111.13,119.31l.55-20.58s.03-.08.07-.11l18.1-9.81s.09-.02.12,0l17.55,10.77s.06.06.06.11l-.55,20.58s-.03.08-.07.11l-18.1,9.81s-.09.02-.12,0l-17.55-10.77s-.06-.06-.06-.11ZM111.92,98.81l-.55,20.43,17.42,10.69,17.97-9.74.55-20.43-17.42-10.69-17.97,9.74Z"/>
          </g>
          <g>
            <polygon class="st36" points="112.86 118.42 113.36 99.67 129.85 90.72 145.84 100.53 145.33 119.28 128.85 128.22 112.86 118.42"/>
            <path class="st52" d="M112.73,118.41l.5-18.75s.03-.08.07-.11l16.49-8.94s.09-.02.12,0l15.99,9.81s.06.06.06.11l-.5,18.75s-.03.08-.07.11l-16.49,8.94s-.09.02-.12,0l-15.99-9.81s-.06-.06-.06-.11ZM113.48,99.74l-.5,18.61,15.87,9.73,16.36-8.87.5-18.61-15.87-9.73-16.36,8.87Z"/>
          </g>
          <path class="st35" d="M145.33,119.28l.5-18.75-15.99-9.81-16.49,8.94-.5,18.75,15.99,9.81,16.49-8.94ZM126.49,122.88c-1.35-.72-2.57-1.74-3.6-2.99-.96-1.16-1.68-2.56-2.18-4.05-.52-1.54-.81-3.19-.9-4.85-.1-1.69,0-3.4.31-5.06.29-1.62.77-3.21,1.47-4.66.74-1.55,1.74-2.92,2.93-4.02,1.32-1.23,2.87-2.14,4.52-2.58.82-.22,1.66-.33,2.5-.3.89.03,1.77.24,2.62.55.87.32,1.71.75,2.51,1.28.25.16.49.33.73.51,1.08.55,2.09,1.25,3,2.12,1.1,1.07,2.02,2.39,2.6,3.93.59,1.57.9,3.29,1,5.01.1,1.81-.03,3.64-.38,5.41-.34,1.7-.9,3.36-1.73,4.82-.8,1.42-1.88,2.63-3.08,3.6-1.2.97-2.54,1.68-3.94,2.11-1.38.42-2.82.57-4.24.43-1.43-.14-2.83-.56-4.13-1.26Z"/>
          <path class="st69" d="M116.49,109.03c.29-.31.52-.68.73-1.05.23-.41.41-.84.57-1.27.32-.88.54-1.79.81-2.68.27-.89.6-1.75,1.06-2.55.44-.76.96-1.46,1.55-2.11.61-.67,1.27-1.3,1.96-1.89.76-.64,1.58-1.21,2.43-1.73.84-.52,1.71-1,2.57-1.49.34-.19.7-.38,1.02-.6.26-.17.52-.37.71-.63.17-.23.26-.52.08-.77-.15-.22-.41-.26-.66-.21-.29.06-.57.21-.82.37-.23.14-.44.3-.65.46-1.21.94-2.47,1.8-3.81,2.53-.47.23-.93.47-1.4.71-.05.03-.11.06-.16.08-.24.11-.48.22-.72.32-.03.01-.04.04-.04.06-.16.08-.32.16-.49.24-.46.22-.93.43-1.4.64-.93.42-1.86.85-2.72,1.4-.74.47-1.44,1.04-1.93,1.77-.24.36-.41.76-.51,1.19-.1.45-.15.92-.17,1.39-.03.49-.04.98-.07,1.48-.04.54-.08,1.09-.09,1.63-.02.8.01,1.69.41,2.4.17.31.46.63.82.71.36.08.68-.15.91-.41Z"/>
          <path class="st69" d="M116.6,114.47c.12-.13.22-.29.29-.46.14-.35.16-.73.13-1.1-.07-.84-.92-3.12-2.05-1.94-.25.26-.37.63-.43.99-.09.53-.07,1.08.05,1.61.09.37.24.75.52,1,.45.41,1.09.33,1.49-.1Z"/>
          <path class="st69" d="M116.39,101.41c.27-.05.5-.2.7-.38.21-.19.38-.4.56-.61.2-.23.41-.43.65-.61.54-.4,1.15-.71,1.75-1.01.34-.17.68-.33,1.02-.48.22-.1.46-.19.67-.31.21-.12.42-.3.47-.55.02-.13,0-.26-.11-.34-.09-.06-.19-.07-.29-.06-.29.03-.53.21-.75.39-.2.16-.4.3-.61.45-.13.08-.25.16-.38.23-.64.36-1.3.7-1.96,1.02-.6.28-1.22.53-1.75.94-.21.16-.42.34-.53.58-.08.18-.09.4.02.57.12.19.35.23.56.19Z"/>
        </g>
        <g>
          <g>
            <g>
              <polygon class="st49" points="77.26 56.64 77.81 36.06 95.9 26.25 113.45 37.01 112.9 57.59 94.8 67.4 77.26 56.64"/>
              <path class="st52" d="M77.13,56.63l.55-20.58s.03-.08.07-.11l18.1-9.81s.09-.02.12,0l17.55,10.77s.06.06.06.11l-.55,20.58s-.03.08-.07.11l-18.1,9.81s-.09.02-.12,0l-17.55-10.77s-.06-.06-.06-.11ZM77.93,36.13l-.55,20.43,17.42,10.69,17.97-9.74.55-20.43-17.42-10.69-17.97,9.74Z"/>
            </g>
            <g>
              <polygon class="st36" points="78.86 55.74 79.37 36.99 95.85 28.05 111.84 37.86 111.34 56.61 94.85 65.55 78.86 55.74"/>
              <path class="st52" d="M78.74,55.74l.5-18.75s.03-.08.07-.11l16.49-8.94s.09-.02.12,0l15.99,9.81s.06.06.06.11l-.5,18.75s-.03.08-.07.11l-16.49,8.94s-.09.02-.12,0l-15.99-9.81s-.06-.06-.06-.11ZM79.49,37.06l-.5,18.61,15.87,9.73,16.36-8.87.5-18.61-15.87-9.73-16.36,8.87Z"/>
            </g>
            <path class="st35" d="M111.34,56.61l.5-18.75-15.99-9.81-16.49,8.94-.5,18.75,15.99,9.81,16.49-8.94ZM92.49,60.2c-1.35-.72-2.57-1.74-3.6-2.99-.96-1.16-1.68-2.56-2.18-4.05-.52-1.54-.81-3.19-.9-4.85-.1-1.69,0-3.4.31-5.06.29-1.62.77-3.21,1.47-4.66.74-1.55,1.74-2.92,2.93-4.02,1.32-1.23,2.87-2.14,4.52-2.58.82-.22,1.66-.33,2.5-.3.89.03,1.77.24,2.62.55.87.32,1.71.75,2.51,1.28.25.16.49.33.73.51,1.08.55,2.09,1.25,3,2.12,1.1,1.07,2.02,2.39,2.6,3.93.59,1.57.9,3.29,1,5.01.1,1.81-.03,3.64-.38,5.41-.34,1.7-.9,3.36-1.73,4.82-.8,1.42-1.88,2.63-3.08,3.6-1.2.97-2.54,1.68-3.94,2.11-1.38.42-2.82.57-4.24.43-1.43-.14-2.83-.56-4.13-1.26Z"/>
            <path class="st69" d="M82.49,46.36c.29-.31.52-.68.73-1.05.23-.41.41-.84.57-1.27.32-.88.54-1.79.81-2.68.27-.89.6-1.75,1.06-2.55.44-.76.96-1.46,1.55-2.11.61-.67,1.27-1.3,1.96-1.89.76-.64,1.58-1.21,2.43-1.73.84-.52,1.71-1,2.57-1.49.34-.19.7-.38,1.02-.6.26-.17.52-.37.71-.63.17-.23.26-.52.08-.77-.15-.22-.41-.26-.66-.21-.29.06-.57.21-.82.37-.23.14-.44.3-.65.46-1.21.94-2.47,1.8-3.81,2.53-.47.23-.93.47-1.4.71-.05.03-.11.06-.16.08-.24.11-.48.22-.72.32-.03.01-.04.04-.04.06-.16.08-.32.16-.49.24-.46.22-.93.43-1.4.64-.93.42-1.86.85-2.72,1.4-.74.47-1.44,1.04-1.93,1.77-.24.36-.41.76-.51,1.19-.1.45-.15.92-.17,1.39-.03.49-.04.98-.07,1.48-.04.54-.08,1.09-.09,1.63-.02.8.01,1.69.41,2.4.17.31.46.63.82.71.36.08.68-.15.91-.41Z"/>
            <path class="st69" d="M82.6,51.8c.12-.13.22-.29.29-.46.14-.35.16-.73.13-1.1-.07-.84-.92-3.12-2.05-1.94-.25.26-.37.63-.43.99-.09.53-.07,1.08.05,1.61.09.37.24.75.52,1,.45.41,1.09.33,1.49-.1Z"/>
            <path class="st69" d="M82.4,38.73c.27-.05.5-.2.7-.38.21-.19.38-.4.56-.61.2-.23.41-.43.65-.61.54-.4,1.15-.71,1.75-1.01.34-.17.68-.33,1.02-.48.22-.1.46-.19.67-.31.21-.12.42-.3.47-.55.02-.13,0-.26-.11-.34-.09-.06-.19-.07-.29-.06-.29.03-.53.21-.75.39-.2.16-.4.3-.61.45-.13.08-.25.16-.38.23-.64.36-1.3.7-1.96,1.02-.6.28-1.22.53-1.75.94-.21.16-.42.34-.53.58-.08.18-.09.4.02.57.12.19.35.23.56.19Z"/>
          </g>
          <g>
            <g>
              <polygon class="st49" points="94.25 87.97 94.8 67.4 112.9 57.58 130.45 68.35 129.9 88.93 111.8 98.74 94.25 87.97"/>
              <path class="st52" d="M94.13,87.97l.55-20.58s.03-.08.07-.11l18.1-9.81s.09-.02.12,0l17.55,10.77s.06.06.06.11l-.55,20.58s-.03.08-.07.11l-18.1,9.81s-.09.02-.12,0l-17.55-10.77s-.06-.06-.06-.11ZM94.92,67.47l-.55,20.43,17.42,10.69,17.97-9.74.55-20.43-17.42-10.69-17.97,9.74Z"/>
            </g>
            <g>
              <polygon class="st36" points="95.86 87.08 96.36 68.33 112.85 59.39 128.84 69.19 128.34 87.94 111.85 96.89 95.86 87.08"/>
              <path class="st52" d="M95.74,87.07l.5-18.75s.03-.08.07-.11l16.49-8.94s.09-.02.12,0l15.99,9.81s.06.06.06.11l-.5,18.75s-.03.08-.07.11l-16.49,8.94s-.09.02-.12,0l-15.99-9.81s-.06-.06-.06-.11ZM96.48,68.4l-.5,18.61,15.87,9.73,16.36-8.87.5-18.61-15.87-9.73-16.36,8.87Z"/>
            </g>
            <path class="st35" d="M128.34,87.94l.5-18.75-15.99-9.81-16.49,8.94-.5,18.75,15.99,9.81,16.49-8.94ZM109.49,91.54c-1.35-.72-2.57-1.74-3.6-2.99-.96-1.16-1.68-2.56-2.18-4.05-.52-1.54-.81-3.19-.9-4.85-.1-1.69,0-3.4.31-5.06.29-1.62.77-3.21,1.47-4.66.74-1.55,1.74-2.92,2.93-4.02,1.32-1.23,2.87-2.14,4.52-2.58.82-.22,1.66-.33,2.5-.3.89.03,1.77.24,2.62.55.87.32,1.71.75,2.51,1.28.25.16.49.33.73.51,1.08.55,2.09,1.25,3,2.12,1.1,1.07,2.02,2.39,2.6,3.93.59,1.57.9,3.29,1,5.01.1,1.81-.03,3.64-.38,5.41-.34,1.7-.9,3.36-1.73,4.82-.8,1.42-1.88,2.63-3.08,3.6-1.2.97-2.54,1.68-3.94,2.11-1.38.42-2.82.57-4.24.43-1.43-.14-2.83-.56-4.13-1.26Z"/>
            <path class="st69" d="M99.49,77.69c.29-.31.52-.68.73-1.05.23-.41.41-.84.57-1.27.32-.88.54-1.79.81-2.68.27-.89.6-1.75,1.06-2.55.44-.76.96-1.46,1.55-2.11.61-.67,1.27-1.3,1.96-1.89.76-.64,1.58-1.21,2.43-1.73.84-.52,1.71-1,2.57-1.49.34-.19.7-.38,1.02-.6.26-.17.52-.37.71-.63.17-.23.26-.52.08-.77-.15-.22-.41-.26-.66-.21-.29.06-.57.21-.82.37-.23.14-.44.3-.65.46-1.21.94-2.47,1.8-3.81,2.53-.47.23-.93.47-1.4.71-.05.03-.11.06-.16.08-.24.11-.48.22-.72.32-.03.01-.04.04-.04.06-.16.08-.32.16-.49.24-.46.22-.93.43-1.4.64-.93.42-1.86.85-2.72,1.4-.74.47-1.44,1.04-1.93,1.77-.24.36-.41.76-.51,1.19-.1.45-.15.92-.17,1.39-.03.49-.04.98-.07,1.48-.04.54-.08,1.09-.09,1.63-.02.8.01,1.69.41,2.4.17.31.46.63.82.71.36.08.68-.15.91-.41Z"/>
            <path class="st69" d="M99.6,83.13c.12-.13.22-.29.29-.46.14-.35.16-.73.13-1.1-.07-.84-.92-3.12-2.05-1.94-.25.26-.37.63-.43.99-.09.53-.07,1.08.05,1.61.09.37.24.75.52,1,.45.41,1.09.33,1.49-.1Z"/>
            <path class="st69" d="M99.39,70.07c.27-.05.5-.2.7-.38.21-.19.38-.4.56-.61.2-.22.41-.43.65-.61.54-.4,1.15-.71,1.75-1.01.34-.17.68-.33,1.02-.48.22-.1.46-.19.67-.31.21-.12.42-.3.47-.55.02-.13,0-.26-.11-.34-.09-.06-.19-.07-.29-.06-.29.03-.53.21-.75.39-.2.16-.4.3-.61.45-.13.08-.25.16-.38.23-.64.36-1.3.7-1.96,1.02-.6.28-1.22.53-1.75.94-.21.16-.42.34-.53.58-.08.18-.09.4.02.57.12.19.35.23.56.19Z"/>
          </g>
          <g>
            <g>
              <polygon class="st49" points="75.61 118.36 76.16 97.78 94.25 87.97 111.8 98.74 111.25 119.31 93.15 129.13 75.61 118.36"/>
              <path class="st52" d="M75.48,118.36l.55-20.58s.03-.08.07-.11l18.1-9.81s.09-.02.12,0l17.55,10.77s.06.06.06.11l-.55,20.58s-.03.08-.07.11l-18.1,9.81s-.09.02-.12,0l-17.55-10.77s-.06-.06-.06-.11ZM76.28,97.86l-.55,20.43,17.42,10.69,17.97-9.74.55-20.43-17.42-10.69-17.97,9.74Z"/>
            </g>
            <g>
              <polygon class="st36" points="77.21 117.46 77.72 98.71 94.2 89.77 110.19 99.58 109.69 118.33 93.2 127.27 77.21 117.46"/>
              <path class="st52" d="M77.09,117.46l.5-18.75s.03-.08.07-.11l16.49-8.94s.09-.02.12,0l15.99,9.81s.06.06.06.11l-.5,18.75s-.03.08-.07.11l-16.49,8.94s-.09.02-.12,0l-15.99-9.81s-.06-.06-.06-.11ZM77.84,98.79l-.5,18.61,15.87,9.73,16.36-8.87.5-18.61-15.87-9.73-16.36,8.87Z"/>
            </g>
            <path class="st35" d="M109.69,118.33l.5-18.75-15.99-9.81-16.49,8.94-.5,18.75,15.99,9.81,16.49-8.94ZM90.84,121.92c-1.35-.72-2.57-1.74-3.6-2.99-.96-1.16-1.68-2.56-2.18-4.05-.52-1.54-.81-3.19-.9-4.85-.1-1.69,0-3.4.31-5.06.29-1.62.77-3.21,1.47-4.66.74-1.55,1.74-2.92,2.93-4.02,1.32-1.23,2.87-2.14,4.52-2.58.82-.22,1.66-.33,2.5-.3.89.03,1.77.24,2.62.55.87.32,1.71.75,2.51,1.28.25.16.49.33.73.51,1.08.55,2.09,1.25,3,2.12,1.1,1.07,2.02,2.39,2.6,3.93.59,1.57.9,3.29,1,5.01.1,1.81-.03,3.64-.38,5.41-.34,1.7-.9,3.36-1.73,4.82-.8,1.42-1.88,2.63-3.08,3.6-1.2.97-2.54,1.68-3.94,2.11-1.38.42-2.82.57-4.24.43-1.43-.14-2.83-.56-4.13-1.26Z"/>
            <path class="st69" d="M80.84,108.08c.29-.31.52-.68.73-1.05.23-.41.41-.84.57-1.27.32-.88.54-1.79.81-2.68.27-.89.6-1.75,1.06-2.55.44-.76.96-1.46,1.55-2.11.61-.67,1.27-1.3,1.96-1.89.76-.64,1.58-1.21,2.43-1.73.84-.52,1.71-1,2.57-1.49.34-.19.7-.38,1.02-.6.26-.17.52-.37.71-.63.17-.23.26-.52.08-.77-.15-.22-.41-.26-.66-.21-.29.06-.57.21-.82.37-.23.14-.44.3-.65.46-1.21.94-2.47,1.8-3.81,2.53-.47.23-.93.47-1.4.71-.05.03-.11.06-.16.08-.24.11-.48.22-.72.32-.03.01-.04.04-.04.06-.16.08-.32.16-.49.24-.46.22-.93.43-1.4.64-.93.42-1.86.85-2.72,1.4-.74.47-1.44,1.04-1.93,1.77-.24.36-.41.76-.51,1.19-.1.45-.15.92-.17,1.39-.03.49-.04.98-.07,1.48-.04.54-.08,1.09-.09,1.63-.02.8.01,1.69.41,2.4.17.31.46.63.82.71.36.08.68-.15.91-.41Z"/>
            <path class="st69" d="M80.95,113.52c.12-.13.22-.29.29-.46.14-.35.16-.73.13-1.1-.07-.84-.92-3.12-2.05-1.94-.25.26-.37.63-.43.99-.09.53-.07,1.08.05,1.61.09.37.24.75.52,1,.45.41,1.09.33,1.49-.1Z"/>
            <path class="st69" d="M80.75,100.45c.27-.05.5-.2.7-.38.21-.19.38-.4.56-.61.2-.23.41-.43.65-.61.54-.4,1.15-.71,1.75-1.01.34-.17.68-.33,1.02-.48.22-.1.46-.19.67-.31.21-.12.42-.3.47-.55.02-.13,0-.26-.11-.34-.09-.06-.19-.07-.29-.06-.29.03-.53.21-.75.39-.2.16-.4.3-.61.45-.13.08-.25.16-.38.23-.64.36-1.3.7-1.96,1.02-.6.28-1.22.53-1.75.94-.21.16-.42.34-.53.58-.08.18-.09.4.02.57.12.19.35.23.56.19Z"/>
          </g>
        </g>
      </g>
      <g id="_x28__x2F_techno_x2F_math_x2F_shapes_x2F_level3_x2F_hexagon_x2F_bold_and_nut.mp3_x29_">
        <g>
          <g>
            <rect class="st59" x="465.65" y="30.8" width="11.31" height="7.48" transform="translate(21.63 179.83) rotate(-22.1)"/>
            <path class="st10" d="M468.17,31.06h6.38c1.13,0,2.06.92,2.06,2.06v5.15h-10.5v-5.15c0-1.13.92-2.06,2.06-2.06Z" transform="translate(21.58 179.86) rotate(-22.1)"/>
            <path class="st14" d="M461.04,42.74l6.43-2.61-2.81-6.93-5.54,2.25c-.5.2-.72.81-.49,1.37l2.41,5.93Z"/>
            <path class="st62" d="M461.04,42.74l6.43-2.61-2.09-5.15c-.4-.98-1.44-1.49-2.32-1.13l-3.94,1.6c-.5.2-.72.81-.49,1.37l2.41,5.93Z"/>
            <path class="st4" d="M477.96,35.87l1.94-.79-2.41-5.93c-.22-.55-.81-.84-1.3-.64l-1.04.42,2.81,6.93Z"/>
          </g>
          <path class="st2" d="M505.43,113.96l1.14,13.91-8.85-10.78c-.09-.12-.17-.24-.23-.38l-23.79-58.59h0c-1.03-.39-1.84-1.2-2.25-2.21l-6.06-14.92,10.16-4.13,6.06,14.92c.41,1.02.39,2.16-.07,3.16h0s23.79,58.59,23.79,58.59c.06.14.09.29.1.44Z"/>
          <g>
            <g>
              <path class="st25" d="M482.84,55.98h0c.03.11.05.23.05.35,0,.24-.06.49-.21.74l-.16.27-7.4,4.21.41,1-.52-.2c-.11-.04-.21-.09-.3-.15-.25-.17-.43-.39-.51-.65-.15-.44-.05-.97.35-1.42l7.4-4.21-.36-.89h.04c.62.08,1.06.46,1.21.94Z"/>
              <path class="st48" d="M482.84,55.98c.03.11.05.23.05.34,0,.24-.06.49-.21.74l-.16.27-7.4,4.21.41,1-.52-.2c-.11-.04-.21-.09-.3-.15-.25-.17-.43-.39-.51-.65.02-.03.03-.06.05-.09.27-.39.74-.66,1.18-.91,1.88-1.06,3.74-2.16,5.6-3.26.39-.23.79-.47,1.16-.73.25-.17.49-.37.64-.6Z"/>
            </g>
            <g>
              <path class="st42" d="M484.41,59.84h0c.03.11.05.23.05.35,0,.24-.06.49-.21.74l-.16.27-7.4,4.21.41,1-.52-.2c-.11-.04-.21-.09-.3-.15-.25-.17-.43-.39-.51-.65-.15-.44-.05-.97.35-1.42l7.4-4.21-.36-.89h.04c.62.08,1.06.46,1.21.94Z"/>
              <path class="st68" d="M484.41,59.85c.03.11.05.23.05.34,0,.24-.06.49-.21.74l-.16.27-7.4,4.21.41,1-.52-.2c-.11-.04-.21-.09-.3-.15-.25-.17-.43-.39-.51-.65.02-.03.03-.06.05-.09.27-.39.74-.66,1.18-.91,1.88-1.06,3.74-2.16,5.6-3.26.39-.23.79-.47,1.16-.73.25-.17.49-.37.64-.6Z"/>
            </g>
            <g>
              <path class="st55" d="M485.98,63.71h0c.03.11.05.23.05.35,0,.24-.06.49-.21.74l-.16.27-7.4,4.21.41,1-.52-.2c-.11-.04-.21-.09-.3-.15-.25-.17-.42-.39-.51-.65-.15-.44-.05-.97.35-1.42l7.4-4.21-.36-.89h.04c.62.08,1.06.46,1.21.94Z"/>
              <path class="st27" d="M485.98,63.71c.03.11.05.23.05.34,0,.24-.06.49-.21.74l-.16.27-7.4,4.21.41,1-.52-.2c-.11-.04-.21-.09-.3-.15-.25-.17-.42-.39-.51-.65.02-.03.03-.06.05-.09.27-.39.74-.66,1.18-.91,1.88-1.06,3.74-2.16,5.6-3.26.39-.23.79-.47,1.16-.73.25-.17.49-.37.64-.6Z"/>
            </g>
            <g>
              <path class="st38" d="M487.55,67.58h0c.03.11.05.23.05.35,0,.24-.06.49-.21.74l-.16.27-7.4,4.21.41,1-.52-.2c-.11-.04-.21-.09-.3-.15-.25-.17-.43-.39-.51-.65-.15-.44-.05-.97.35-1.42l7.4-4.21-.36-.89h.04c.62.08,1.06.46,1.21.94Z"/>
              <path class="st64" d="M487.55,67.58c.03.11.05.23.05.34,0,.24-.06.49-.21.74l-.16.27-7.4,4.21.41,1-.52-.2c-.11-.04-.21-.09-.3-.15-.25-.17-.43-.39-.51-.65.02-.03.03-.06.05-.09.27-.39.74-.66,1.18-.91,1.88-1.06,3.74-2.16,5.6-3.26.39-.23.79-.47,1.16-.73.25-.17.49-.37.64-.6Z"/>
            </g>
            <g>
              <path class="st2" d="M489.12,71.44h0c.03.11.05.23.05.35,0,.24-.06.49-.21.74l-.16.27-7.4,4.21.41,1-.52-.2c-.11-.04-.21-.09-.3-.15-.25-.17-.43-.39-.51-.65-.15-.44-.05-.97.35-1.42l7.4-4.21-.36-.89h.04c.62.08,1.06.46,1.21.94Z"/>
              <path class="st1" d="M489.12,71.45c.03.11.05.23.05.34,0,.24-.06.49-.21.74l-.16.27-7.4,4.21.41,1-.52-.2c-.11-.04-.21-.09-.3-.15-.25-.17-.43-.39-.51-.65.02-.03.03-.06.05-.09.27-.39.74-.66,1.18-.91,1.88-1.06,3.74-2.16,5.6-3.26.39-.23.79-.47,1.16-.73.25-.17.49-.37.64-.6Z"/>
            </g>
            <g>
              <path class="st14" d="M490.69,75.31h0c.03.11.05.23.05.35,0,.24-.06.49-.21.74l-.16.27-7.4,4.21.41,1-.52-.2c-.11-.04-.21-.09-.3-.15-.25-.17-.43-.39-.51-.65-.15-.44-.05-.97.35-1.42l7.4-4.21-.36-.89h.04c.62.08,1.06.46,1.21.94Z"/>
              <path class="st33" d="M490.69,75.31c.03.11.05.23.05.34,0,.24-.06.49-.21.74l-.16.27-7.4,4.21.41,1-.52-.2c-.11-.04-.21-.09-.3-.15-.25-.17-.43-.39-.51-.65.02-.03.03-.06.05-.09.27-.39.74-.66,1.18-.91,1.88-1.06,3.74-2.16,5.6-3.26.39-.23.79-.47,1.16-.73.25-.17.49-.37.64-.6Z"/>
            </g>
            <g>
              <path class="st10" d="M492.26,79.18h0c.03.11.05.23.05.35,0,.24-.06.49-.21.74l-.16.27-7.4,4.21.41,1-.52-.2c-.11-.04-.21-.09-.3-.15-.25-.17-.43-.39-.51-.65-.15-.44-.05-.97.35-1.42l7.4-4.21-.36-.89h.04c.62.08,1.06.46,1.21.94Z"/>
              <path class="st0" d="M492.26,79.18c.03.11.05.23.05.34,0,.24-.06.49-.21.74l-.16.27-7.4,4.21.41,1-.52-.2c-.11-.04-.21-.09-.3-.15-.25-.17-.43-.39-.51-.65.02-.03.03-.06.05-.09.27-.39.74-.66,1.18-.91,1.88-1.06,3.74-2.16,5.6-3.26.39-.23.79-.47,1.16-.73.25-.17.49-.37.64-.6Z"/>
            </g>
            <g>
              <path class="st59" d="M493.83,83.04h0c.03.11.05.23.05.35,0,.24-.06.49-.21.74l-.16.27-7.4,4.21.41,1-.52-.2c-.11-.04-.21-.09-.3-.15-.25-.17-.43-.39-.51-.65-.15-.44-.05-.97.35-1.42l7.4-4.21-.36-.89h.04c.62.08,1.06.46,1.21.94Z"/>
              <path class="st50" d="M493.83,83.05c.03.11.05.23.05.34,0,.24-.06.49-.21.74l-.16.27-7.4,4.21.41,1-.52-.2c-.11-.04-.21-.09-.3-.15-.25-.17-.43-.39-.51-.65.02-.03.03-.06.05-.09.27-.39.74-.66,1.18-.91,1.88-1.06,3.74-2.16,5.6-3.26.39-.23.79-.47,1.16-.73.25-.17.49-.37.64-.6Z"/>
            </g>
            <g>
              <path class="st5" d="M495.4,86.91h0c.03.11.05.23.05.35,0,.24-.06.49-.21.74l-.16.27-7.4,4.21.41,1-.52-.2c-.11-.04-.21-.09-.3-.15-.25-.17-.43-.39-.51-.65-.15-.44-.05-.97.35-1.42l7.4-4.21-.36-.89h.04c.62.08,1.06.46,1.21.94Z"/>
              <path class="st70" d="M495.4,86.91c.03.11.05.23.05.34,0,.24-.06.49-.21.74l-.16.27-7.4,4.21.41,1-.52-.2c-.11-.04-.21-.09-.3-.15-.25-.17-.43-.39-.51-.65.02-.03.03-.06.05-.09.27-.39.74-.66,1.18-.91,1.88-1.06,3.74-2.16,5.6-3.26.39-.23.79-.47,1.16-.73.25-.17.49-.37.64-.6Z"/>
            </g>
            <g>
              <path class="st67" d="M496.97,90.78h0c.03.11.05.23.05.35,0,.24-.06.49-.21.74l-.16.27-7.4,4.21.41,1-.52-.2c-.11-.04-.21-.09-.3-.15-.25-.17-.43-.39-.51-.65-.15-.44-.05-.97.35-1.42l7.4-4.21-.36-.89h.04c.62.08,1.06.46,1.21.94Z"/>
              <path class="st58" d="M496.97,90.78c.03.11.05.23.05.34,0,.24-.06.49-.21.74l-.16.27-7.4,4.21.41,1-.52-.2c-.11-.04-.21-.09-.3-.15-.25-.17-.43-.39-.51-.65.02-.03.03-.06.05-.09.27-.39.74-.66,1.18-.91,1.88-1.06,3.74-2.16,5.6-3.26.39-.23.79-.47,1.16-.73.25-.17.49-.37.64-.6Z"/>
            </g>
            <g>
              <path class="st9" d="M498.54,94.64h0c.03.11.05.23.05.35,0,.24-.06.49-.21.74l-.16.27-7.4,4.21.41,1-.52-.2c-.11-.04-.21-.09-.3-.15-.25-.17-.42-.39-.51-.65-.15-.44-.05-.97.35-1.42l7.4-4.21-.36-.89h.04c.62.08,1.06.46,1.21.94Z"/>
              <path class="st11" d="M498.54,94.65c.03.11.05.23.05.34,0,.24-.06.49-.21.74l-.16.27-7.4,4.21.41,1-.52-.2c-.11-.04-.21-.09-.3-.15-.25-.17-.42-.39-.51-.65.02-.03.03-.06.05-.09.27-.39.74-.66,1.18-.91,1.88-1.06,3.74-2.16,5.6-3.26.39-.23.79-.47,1.16-.73.25-.17.49-.37.64-.6Z"/>
            </g>
            <g>
              <path class="st32" d="M500.11,98.51h0c.03.11.05.23.05.35,0,.24-.06.49-.21.74l-.16.27-7.4,4.21.41,1-.52-.2c-.11-.04-.21-.09-.3-.15-.25-.17-.43-.39-.51-.65-.15-.44-.05-.97.35-1.42l7.4-4.21-.36-.89h.04c.62.08,1.06.46,1.21.94Z"/>
              <path class="st8" d="M500.11,98.51c.03.11.05.23.05.34,0,.24-.06.49-.21.74l-.16.27-7.4,4.21.41,1-.52-.2c-.11-.04-.21-.09-.3-.15-.25-.17-.43-.39-.51-.65.02-.03.03-.06.05-.09.27-.39.74-.66,1.18-.91,1.88-1.06,3.74-2.16,5.6-3.26.39-.23.79-.47,1.16-.73.25-.17.49-.37.64-.6Z"/>
            </g>
            <g>
              <path class="st21" d="M501.68,102.38h0c.03.11.05.23.05.35,0,.24-.06.49-.21.74l-.16.27-7.4,4.21.41,1-.52-.2c-.11-.04-.21-.09-.3-.15-.25-.17-.43-.39-.51-.65-.15-.44-.05-.97.35-1.42l7.4-4.21-.36-.89h.04c.62.08,1.06.46,1.21.94Z"/>
              <path class="st40" d="M501.68,102.38c.03.11.05.23.05.34,0,.24-.06.49-.21.74l-.16.27-7.4,4.21.41,1-.52-.2c-.11-.04-.21-.09-.3-.15-.25-.17-.43-.39-.51-.65.02-.03.03-.06.05-.09.27-.39.74-.66,1.18-.91,1.88-1.06,3.74-2.16,5.6-3.26.39-.23.79-.47,1.16-.73.25-.17.49-.37.64-.6Z"/>
            </g>
            <g>
              <path class="st39" d="M503.25,106.24h0c.03.11.05.23.05.35,0,.24-.06.49-.21.74l-.16.27-7.4,4.21.41,1-.52-.2c-.11-.04-.21-.09-.3-.15-.25-.17-.43-.39-.51-.65-.15-.44-.05-.97.35-1.42l7.4-4.21-.36-.89h.04c.62.08,1.06.46,1.21.94Z"/>
              <path class="st60" d="M503.25,106.25c.03.11.05.23.05.34,0,.24-.06.49-.21.74l-.16.27-7.4,4.21.41,1-.52-.2c-.11-.04-.21-.09-.3-.15-.25-.17-.43-.39-.51-.65.02-.03.03-.06.05-.09.27-.39.74-.66,1.18-.91,1.88-1.06,3.74-2.16,5.6-3.26.39-.23.79-.47,1.16-.73.25-.17.49-.37.64-.6Z"/>
            </g>
            <g>
              <path class="st37" d="M504.82,110.11h0c.03.11.05.23.05.35,0,.24-.06.49-.21.74l-.16.27-7.4,4.21.41,1-.52-.2c-.11-.04-.21-.09-.3-.15-.25-.17-.43-.39-.51-.65-.15-.44-.05-.97.35-1.42l7.4-4.21-.36-.89h.04c.62.08,1.06.46,1.21.94Z"/>
              <path class="st66" d="M504.82,110.11c.03.11.05.23.05.34,0,.24-.06.49-.21.74l-.16.27-7.4,4.21.41,1-.52-.2c-.11-.04-.21-.09-.3-.15-.25-.17-.43-.39-.51-.65.02-.03.03-.06.05-.09.27-.39.74-.66,1.18-.91,1.88-1.06,3.74-2.16,5.6-3.26.39-.23.79-.47,1.16-.73.25-.17.49-.37.64-.6Z"/>
            </g>
            <g>
              <path class="st53" d="M506.39,113.98c.03.11.05.23.05.34,0,.24-.06.49-.21.74l-.16.27-6.66,3.8.76.93s-1.03,0-1.41-.15c-.28-.12-.42-.39-.51-.65.02-.03.03-.06.05-.09.27-.39.24-.36.68-.61,1.88-1.06,3.74-2.16,5.6-3.26.39-.23.79-.47,1.16-.73.25-.17.49-.37.64-.6Z"/>
              <path class="st46" d="M505.18,113.05h-.04s.29.92.29.92l-7,4c-.4.44-.33.86-.17,1.3.02-.03.03-.06.05-.09.27-.39.57-.54,1.01-.79,1.88-1.06,3.41-1.98,5.26-3.08.39-.23.79-.47,1.16-.73.25-.17.49-.37.64-.6h0c-.15-.48-.58-.86-1.21-.93Z"/>
            </g>
            <g>
              <path class="st65" d="M507.06,118.32c.03.12.05.24.05.37,0,.26-.06.53-.22.79l-.16.29-4.66,2.61.82.84s-1.36.77-2.37-.51c.02-.04.04-.06.05-.09.29-.42.78-.7,1.25-.97,2-1.13,1.35-.75,3.32-1.92.42-.25.84-.5,1.23-.77.26-.18.52-.39.68-.64Z"/>
              <path class="st20" d="M505.77,117.31h-.04s-.19,1.27-.19,1.27l-4.66,2.61c-.42.48-.53,1.04-.36,1.52.02-.04.04-.06.05-.09.29-.42.78-.7,1.25-.97,2-1.13,1.35-.75,3.32-1.92.42-.25.84-.5,1.23-.77.26-.18.52-.39.68-.64h0c-.16-.52-.62-.92-1.29-1.01Z"/>
            </g>
          </g>
        </g>
        <g>
          <g>
            <path class="st7" d="M529.39,106.06l12.65-8.29c1.25-.82,1.98-2.26,1.9-3.76l-.85-15.09c-.08-1.5-.97-2.85-2.31-3.52l-13.5-6.81c-1.34-.68-2.95-.58-4.21.24l-12.65,8.29c-1.25.82-1.98,2.26-1.9,3.76l.85,15.09c.08,1.5.97,2.85,2.31,3.52l13.5,6.81c1.34.68,2.95.58,4.21-.24Z"/>
            <path class="st57" d="M528.88,105.28l12.65-8.29c.98-.64,1.54-1.76,1.48-2.93l-.85-15.09c-.07-1.17-.76-2.22-1.8-2.75l-13.5-6.81c-1.04-.53-2.3-.46-3.28.19l-12.65,8.29c-.98.64-1.54,1.76-1.48,2.93l.85,15.09c.07,1.17.76,2.22,1.8,2.75l13.5,6.81c1.04.53,2.3.46,3.28-.19Z"/>
          </g>
          <g>
            <path class="st34" d="M540.28,86.65c-.44-7.76-7.09-13.7-14.85-13.26s-13.7,7.09-13.26,14.85c.44,7.76,7.09,13.7,14.85,13.26s13.7-7.09,13.26-14.85Z"/>
            <path class="st3" d="M539.3,86.7c-.41-7.21-6.6-12.74-13.81-12.33-7.21.41-12.74,6.6-12.33,13.81s6.6,12.74,13.81,12.33,12.74-6.6,12.33-13.81Z"/>
          </g>
        </g>
      </g>
      <g id="_x28__x2F_techno_x2F_math_x2F_shapes_x2F_level3_x2F_hexagon_x2F_foot_ball.mp3_x29_">
        <path class="st22" d="M112.35,194.76c-27.77,0-50.35,22.59-50.35,50.35s22.59,50.35,50.35,50.35,50.35-22.59,50.35-50.35-22.59-50.35-50.35-50.35Z"/>
        <path class="st24" d="M112.35,194.76c-27.77,0-50.35,22.59-50.35,50.35s22.59,50.35,50.35,50.35,50.35-22.59,50.35-50.35-22.59-50.35-50.35-50.35ZM113.29,263.09c4.33-2.62,8.81-5.33,13.2-7.94,5.27,3.17,9.64,5.75,13.71,8.1-.07,5.29-.28,10.66-.61,15.96-4.06,2.56-8.45,5.36-13.75,8.81-4.34-2.61-8.83-5.38-13.06-7.99v-16.63l.5-.3ZM112.8,228.63v-16.63c3.55-2.42,7.67-5.2,11.5-7.73,4.62,3.48,8.82,6.58,12.82,9.49.74,5.3,1.35,10.68,1.83,15.98-.06.03-.12.07-.18.1-3.71,2.07-7.82,4.45-12.56,7.27-3.06-1.93-6.09-3.85-9.08-5.74l-4.33-2.74ZM126.97,254.34c-.04-5.47-.14-11-.3-16.45,4.28-2.55,8.06-4.74,11.5-6.68.02-.01.04-.02.05-.03.4-.23.8-.45,1.19-.67,5.06,3.31,9.67,6.25,14.07,8.97.5,5.03.81,10.13.91,15.16-4.23,2.3-8.72,4.85-13.71,7.79-4.08-2.35-8.45-4.93-13.71-8.1ZM137.57,212.96c-3.97-2.89-8.17-6-12.82-9.49-.17-2.11-.36-4.24-.55-6.36,8.12,2.01,15.47,6.02,21.46,11.5-2.46,1.24-5.12,2.68-8.09,4.36ZM107.6,231.35c-3,1.9-6.04,3.82-9.11,5.76-4.81-2.86-8.99-5.28-12.74-7.37.48-5.3,1.09-10.67,1.83-15.97,3.99-2.9,8.19-6.01,12.83-9.5,3.84,2.54,7.94,5.32,11.49,7.73v16.63l-4.3,2.72ZM111.88,280c-4.22,2.61-8.71,5.37-13.07,8-5.29-3.44-9.67-6.24-13.74-8.8-.33-5.3-.54-10.67-.61-15.97.08-.05.17-.1.26-.15,4.01-2.31,8.31-4.85,13.46-7.95,4.36,2.6,8.82,5.29,13.13,7.9l.58.35v16.63ZM99.94,203.48c-4.63,3.48-8.83,6.59-12.83,9.5-2.97-1.68-5.63-3.12-8.09-4.36,5.99-5.48,13.34-9.5,21.47-11.51-.19,2.13-.38,4.26-.55,6.37ZM85.29,230.51c3.76,2.1,7.93,4.51,12.75,7.38-.17,5.46-.27,10.99-.3,16.45-5.27,3.17-9.64,5.75-13.71,8.1-4.99-2.93-9.48-5.48-13.71-7.79.11-5.03.42-10.13.91-15.16,4.4-2.72,9.01-5.66,14.07-8.97ZM84.62,279.98c4.06,2.55,8.44,5.36,13.74,8.8.05,1.27.12,2.55.18,3.83-6.92-2.01-13.22-5.5-18.53-10.1,1.48-.8,3.01-1.64,4.61-2.53ZM126.32,288.79c5.3-3.45,9.69-6.25,13.75-8.81,1.6.89,3.12,1.73,4.6,2.53-5.31,4.6-11.61,8.09-18.53,10.1.06-1.27.12-2.55.18-3.82ZM155.3,254.65c-.11-5.03-.41-10.13-.91-15.17,2.32-1.18,4.51-2.24,6.61-3.22.52,2.88.8,5.84.8,8.86,0,4.23-.54,8.35-1.54,12.27-1.61-.88-3.25-1.79-4.96-2.74ZM63.69,236.25c2.1.98,4.29,2.05,6.62,3.23-.5,5.04-.8,10.13-.91,15.17-1.7.96-3.35,1.87-4.96,2.75-1.01-3.93-1.54-8.04-1.54-12.28,0-3.02.27-5.99.8-8.86Z"/>
        <path class="st56" d="M101.47,195.96l-.11,1.22c-.22,2.45-.39,4.45-.54,6.3l.07.05c3.92,2.59,8.18,5.48,11.46,7.71,3.5-2.38,7.6-5.15,11.47-7.71l.06-.04c-.15-1.83-.32-3.83-.54-6.31l-.11-1.22.87.21s0-.02,0-.03c-3.77-.9-7.7-1.38-11.74-1.38-4.3,0-8.47.55-12.46,1.57,0,0,0,.02-.01.03.13-.03.26-.07.4-.1l1.19-.29Z"/>
        <path class="st63" d="M139.83,229.74l.06.04c5.05,3.31,9.64,6.24,14.04,8.96l.07-.03c2.3-1.17,4.47-2.22,6.64-3.24l1.03-.48.1.53s.01,0,.02-.01c-2.02-10.38-7.24-19.64-14.59-26.69l-1.13.57c-2.47,1.25-5.11,2.67-8.05,4.34h0c.73,5.29,1.35,10.65,1.82,15.93v.09Z"/>
        <path class="st61" d="M125.44,288.79l-.04-.03c-4.4-2.65-8.88-5.41-13.07-8h-.01c-4.17,2.57-8.64,5.32-13.06,7.98l-.03.02c.06,1.26.12,2.53.18,3.8l.06,1.23-.96-.28s0,.02,0,.03c4.4,1.26,9.04,1.93,13.84,1.93,4.44,0,8.75-.59,12.86-1.68l.06-1.22c.06-1.26.12-2.52.18-3.78Z"/>
        <path class="st23" d="M86.68,213.74c-2.95-1.67-5.58-3.09-8.05-4.34l-1.13-.57.43-.39s0,0-.01-.01c-7.56,7.1-12.94,16.51-14.99,27.09,0,0,.01,0,.02,0l.1-.53,1.03.48c2.18,1.02,4.35,2.08,6.64,3.24l.07.03c4.39-2.72,8.99-5.64,14.04-8.95l.06-.04v-.09c.48-5.29,1.09-10.64,1.83-15.9h-.02Z"/>
        <path class="st54" d="M83.59,263.2h0c-4.98-2.94-9.46-5.48-13.69-7.78l-.04-.02h-.02c-1.65.94-3.28,1.84-4.97,2.77l-.99.54-.28-1.09s-.01-.06-.02-.09c0,0-.02,0-.02,0,2.47,9.69,7.76,18.27,14.94,24.81l1.11-.6c1.51-.82,3.06-1.66,4.6-2.52h0c-.33-5.31-.54-10.68-.61-15.98v-.04Z"/>
        <path class="st31" d="M161.02,257.94l-.19.76-.99-.54c-1.69-.92-3.32-1.82-4.97-2.75h-.02s-.04,0-.04,0c-4.23,2.3-8.7,4.84-13.69,7.77l-.04.02v.04c-.07,5.29-.28,10.66-.61,15.95h.02c1.55.88,3.1,1.73,4.59,2.54l1.12.6-.4.35s0,0,0,0c7.28-6.49,12.67-15.04,15.23-24.74,0,0-.01,0-.02,0Z"/>
        <path class="st47" d="M126.05,254.39l.04-.03v-.02c-.04-5.45-.14-10.98-.3-16.43v-.04s-.04-.03-.04-.03c-2.97-1.87-5.91-3.73-8.81-5.57l-4.58-2.9-4.28,2.71c-3,1.9-6.04,3.83-9.11,5.76l-.04.03v.04c-.17,5.46-.27,10.98-.31,16.43v.02s.01,0,.01,0c4.34,2.59,8.78,5.27,13.06,7.86l.66.4.65-.39c4.28-2.59,8.71-5.26,13.05-7.85Z"/>
      </g>
      <g id="_x28__x2F_techno_x2F_math_x2F_shapes_x2F_level3_x2F_hexagon_x2F_clock.mp3_x29_">
        <path d="M512.96,281.66c-.12-.03-.24.05-.27.17l-.43,2.03c-.03.12.05.24.17.27.02,0,.03,0,.05,0,.1,0,.2-.07.22-.18l.43-2.03c.03-.12-.05-.24-.17-.27Z"/>
        <path d="M515.72,282.1c-.12-.01-.24.08-.25.2l-.22,2.07c-.01.12.08.24.2.25,0,0,.02,0,.02,0,.11,0,.21-.09.22-.2l.22-2.07c.01-.12-.08-.24-.2-.25Z"/>
        <path d="M521.55,282.3c-.01-.12-.12-.21-.25-.2-.12.01-.21.12-.2.25l.22,2.07c.01.12.11.2.22.2,0,0,.02,0,.02,0,.12-.01.21-.12.2-.25l-.22-2.07Z"/>
        <path d="M524.33,281.84c-.03-.12-.15-.2-.27-.17-.12.03-.2.15-.17.27l.43,2.03c.02.11.12.18.22.18.02,0,.03,0,.05,0,.12-.03.2-.15.17-.27l-.43-2.03Z"/>
        <g>
          <polygon class="st29" points="525.48 203.67 549.25 244.85 551.55 244.85 526.63 201.69 525.48 203.67"/>
          <polygon class="st29" points="551.55 245.39 549.25 245.39 525.48 286.56 526.63 288.55 551.55 245.39"/>
          <path class="st29" d="M478.6,204.66c-.06.85,1.19.34.23.92-.96.58-1.94.7-2.38,2.33-.45,1.63-6.87,12.62-7.92,14.57-1.06,1.95,1.61-.86.68,1.09-.92,1.95-13.55,21.35-13.34,22.48.21,1.13.39-.47.98.79.59,1.26,19.31,36.48,20.48,37.64,1.16,1.16,1.88,1.06,1.3,1.29-.58.22,1.45.51,3.85.51.2,0,.39,0,.58,0h30.74c2.16-.32,4.38-.65,5.3-.81,2-.36-2.31-.82,1.13-1.64,3.44-.82,2.11-.36,3.55-3.13,1.44-2.77-2.77,1.54-1.9-1.44.66-2.25.99-5.04,1.12-6.28l-2.82,4.88h-37.83l-.08-.13-18.84-32.63.08-.13,18.84-32.63h37.83l.08.13,9.35,16.2c.4.25.81.26.62-.98-.34-2.23,1.41,1.81,1.2-.99-.2-2.81-.31-.48-1.99-4.48-1.67-4.01,1.75,1.47,1.99-2.5.19-3.15-5.48-12.18-7.84-15.8h-37.29c-4.16.15-7.65.38-7.68.72Z"/>
          <path class="st44" d="M480.82,243.43c-.12-.27-.41-.58-.71-.37-.24.18-.4.5-.43.78-.02.17,0,.32.04.48.04.13.11.28.23.35.16.09.4.06.57.04.16-.01.33-.04.49-.07.02-.41-.02-.84-.18-1.21Z"/>
          <rect class="st44" x="501.11" y="237.29" width="12.02" height=".4" transform="translate(11.11 497.39) rotate(-52.75)"/>
          <rect class="st44" x="504.31" y="245.11" width="6.54" height=".4"/>
          <polygon class="st45" points="477.47 203.4 525.02 203.4 526.16 201.42 476.32 201.42 477.47 203.4"/>
          <polygon class="st6" points="453.23 244.85 477 203.67 475.86 201.69 450.94 244.85 453.23 244.85"/>
          <polygon class="st29" points="477 286.56 453.23 245.39 450.94 245.39 475.86 288.55 477 286.56"/>
          <path class="st13" d="M477.47,286.3h5.58c-.19,0-.38,0-.58,0-2.4,0-4.44-.29-3.85-.51.58-.23-.13-.12-1.3-1.29-1.16-1.16-19.89-36.38-20.48-37.64-.59-1.26-.77.33-.98-.79-.2-1.13,12.42-20.53,13.34-22.48.93-1.95-1.74.86-.68-1.09,1.06-1.95,7.48-12.94,7.92-14.57.45-1.63,1.42-1.75,2.38-2.33.96-.58-.29-.07-.23-.92.03-.35,3.53-.58,7.68-.72h-8.81l-23.77,41.18,23.77,41.18Z"/>
          <path class="st13" d="M521.27,284.87c-.92-.92,3.59.11,5.51-4,1.91-4.11-1.37.48-.89-4.15.49-4.62-1.68,1.34-1.65-1.64.02-1.61.2-3.51.36-4.91l-1.63,2.83c-.13,1.23-.46,4.03-1.12,6.28-.87,2.98,3.34-1.34,1.9,1.44-1.44,2.77-.1,2.31-3.55,3.13-3.44.82.87,1.28-1.13,1.64-.91.16-3.14.49-5.3.81h4.83c1.51-.36,3.18-.89,2.65-1.43Z"/>
          <path class="st6" d="M535.6,232.18c.58,4.52,3.36,5.85,2.4,7.74-.41.82-1.69-.31-3-1.86l4.07,7.06-.08.13-11.23,19.46c1.82-2.08,4.76-5.29,4.38-3.74-.55,2.23-5.76,9.08-4.42,9.45,1.34.38,3.9-4.69,3.39-1.71-.51,2.98-1.13,7.53.39,4.62,1.16-2.22,1.36-1.45.52.82l16.76-29.04-13.08-22.66c.49,1.65,1.13,4.37,1.16,7.36.03,4.86-1.85-2.16-1.27,2.36Z"/>
          <path d="M527.76,264.71l11.23-19.46.08-.13-4.07-7.06-4.12-7.14-1.29-2.23-9.35-16.2-.08-.13h-37.83l-18.84,32.63-.08.13,18.84,32.63.08.13h37.83l2.82-4.88,1.63-2.83,3.15-5.46ZM482.64,277.34l-2.27-3.93-.41-.71-1.16-2.01-2.79-4.84-11.97-20.74,18.6-32.22h37.21l18.6,32.22-18.6,32.22h-37.21Z"/>
          <path d="M526.78,200.88h-51.08l-25.46,44.1-.08.13,25.46,44.1.08.13h.15s0,0,0,0,0,0,0,0h50.77s0,0,0,0,0,0,0,0h.15l25.46-44.1.08-.13-25.46-44.1-.08-.13ZM526.16,201.42l-1.15,1.98h-47.55l-1.15-1.98h49.84ZM477.47,203.94h47.55l6.48,11.22,4.22,7.3,13.08,22.66-16.76,29.04-7.01,12.14h-47.55l-23.77-41.18,23.77-41.18ZM477.47,286.83h47.55l1.15,1.98h-49.84l1.15-1.98ZM549.25,245.39h2.29l-24.92,43.16-1.15-1.98,23.77-41.18ZM549.25,244.85l-23.77-41.18,1.15-1.98,24.92,43.16h-2.29ZM477,203.67l-23.77,41.18h-2.29l24.92-43.16,1.15,1.98ZM453.23,245.39l23.77,41.18-1.15,1.98-24.92-43.16h2.29Z"/>
          <path d="M499.72,222.83h-.05c-.12,0-.22.1-.22.22v4.45c0,.12.1.22.22.22h.05c.12,0,.22-.1.22-.22v-4.45c0-.12-.1-.22-.22-.22Z"/>
          <path d="M502.84,225.21c.21-.49.4-1.05.26-1.59-.13-.5-.57-.81-1.07-.85-.55-.04-1.06.33-1.31.8-.15.27.27.51.41.24.17-.31.47-.56.81-.57.34,0,.65.2.71.57.08.43-.12.89-.28,1.27-.17.4-.38.79-.63,1.15-.27.4-.6.76-.97,1.08-.16.14-.03.41.17.41.46,0,.92,0,1.38,0,.44,0,.87,0,1.31,0,.31,0,.31-.48,0-.48-.35,0-.7,0-1.04,0-.35,0-.7,0-1.05,0,.56-.59.98-1.29,1.29-2.04Z"/>
          <path d="M502.32,265.12c-.39-.21-.83-.22-1.26-.22-.01,0-.02,0-.03,0,.1-.33.26-.64.42-.94.29-.51.66-1.05,1.23-1.27.12-.05.2-.16.17-.29-.03-.11-.17-.21-.29-.17-.65.25-1.11.79-1.45,1.38-.37.63-.67,1.33-.7,2.07-.02.37.05.74.2,1.08.14.31.4.6.74.65.39.06.79-.14,1.09-.37.29-.23.48-.58.49-.95,0-.41-.25-.77-.6-.96ZM502.18,266.62c-.18.16-.48.35-.73.32-.22-.03-.36-.26-.44-.45-.11-.27-.14-.56-.13-.85,0-.1.02-.21.04-.31.04.03.08.04.14.04.31,0,.64,0,.93.11.21.08.4.25.45.47.06.25-.08.5-.25.66Z"/>
          <path d="M522.45,247.25c-.41.01-.8-.13-1.12-.38-.1-.08-.27-.02-.33.09-.07.12-.02.25.09.33.73.55,1.79.61,2.51.02.32-.26.56-.64.63-1.05.08-.44,0-.99-.46-1.2-.25-.12-.54-.16-.82-.21.42-.27.73-.67.74-1.21,0-.39-.15-.77-.47-1-.39-.27-.9-.19-1.31-.02-.44.18-.9.49-1,.99-.03.13.04.26.17.29.12.03.27-.04.29-.17.06-.3.32-.49.59-.62.28-.14.66-.27.95-.11.2.11.3.34.3.57,0,.13-.01.24-.06.36-.05.11-.14.24-.24.34-.27.25-.63.38-.98.46-.12.02-.19.15-.17.26.02.12.11.2.23.21.45.02.9.09,1.34.2.16.04.32.07.39.23.06.14.07.3.05.46-.07.63-.68,1.13-1.32,1.14Z"/>
          <path d="M480.06,242.55c-.43.15-.73.64-.83,1.06-.1.45-.03.98.29,1.33.21.23.52.27.82.26.2,0,.39-.03.59-.06-.22.93-.87,1.71-1.75,2.1-.12.05-.15.22-.09.33.07.12.21.14.33.09.53-.24.99-.61,1.35-1.07.39-.51.61-1.11.7-1.74.05-.54,0-1.12-.22-1.61-.2-.45-.67-.84-1.19-.67Z"/>
          <path d="M501.24,216.02c-.12,0-.23.1-.23.23v4.76c0,.1.07.19.16.21.02,0,.04.01.07.01.12,0,.23-.1.23-.23v-4.76c0-.12-.1-.23-.23-.23Z"/>
          <path d="M488.99,224.36c.04.07.12.11.2.11.04,0,.08,0,.11-.03.11-.06.15-.2.08-.31l-2.38-4.12c-.06-.11-.2-.15-.31-.08-.11.06-.15.2-.08.31l2.38,4.12Z"/>
          <path d="M476.13,230.88l4.12,2.38s.07.03.11.03c.08,0,.15-.04.2-.11.06-.11.03-.25-.08-.31l-4.12-2.38c-.11-.06-.25-.03-.31.08-.06.11-.03.25.08.31Z"/>
          <path d="M472.38,245.34h4.76c.12,0,.23-.1.23-.23s-.1-.23-.23-.23h-4.76c-.12,0-.23.1-.23.23s.1.23.23.23Z"/>
          <path d="M480.56,257.06c-.06-.11-.2-.15-.31-.08l-4.12,2.38c-.11.06-.15.2-.08.31.04.07.12.11.2.11.04,0,.08,0,.11-.03l4.12-2.38c.11-.06.15-.2.08-.31Z"/>
          <path d="M489.3,265.8c-.11-.06-.25-.03-.31.08l-2.38,4.12c-.06.11-.03.25.08.31.04.02.07.03.11.03.08,0,.15-.04.2-.11l2.38-4.12c.06-.11.03-.25-.08-.31Z"/>
          <path d="M501.24,269c-.12,0-.23.1-.23.23v4.76c0,.12.1.23.23.23s.23-.1.23-.23v-4.76c0-.12-.1-.23-.23-.23Z"/>
          <path d="M513.49,265.88c-.06-.11-.2-.15-.31-.08-.11.06-.15.2-.08.31l2.38,4.12c.04.07.12.11.2.11.04,0,.08,0,.11-.03.11-.06.15-.2.08-.31l-2.38-4.12Z"/>
          <path d="M526.35,259.36l-4.12-2.38c-.11-.06-.25-.03-.31.08-.06.11-.03.25.08.31l4.12,2.38s.07.03.11.03c.08,0,.15-.04.2-.11.06-.11.03-.25-.08-.31Z"/>
          <path d="M530.11,244.89h-4.76c-.12,0-.23.1-.23.23s.1.23.23.23h4.76c.12,0,.23-.1.23-.23s-.1-.23-.23-.23Z"/>
          <path d="M521.92,233.18c.04.07.12.11.2.11.04,0,.08,0,.11-.03l4.12-2.38c.11-.06.15-.2.08-.31-.06-.11-.2-.15-.31-.08l-4.12,2.38c-.11.06-.15.2-.08.31Z"/>
          <path d="M513.18,224.44s.07.03.11.03c.08,0,.15-.04.2-.11l2.38-4.12c.06-.11.03-.25-.08-.31-.11-.06-.25-.03-.31.08l-2.38,4.12c-.06.11-.03.25.08.31Z"/>
          <path d="M498.2,218.38c.01.12.11.2.22.2,0,0,.02,0,.02,0,.12-.01.21-.12.2-.25l-.22-2.07c-.01-.12-.12-.21-.25-.2-.12.01-.21.12-.2.25l.22,2.07Z"/>
          <path d="M495.43,218.85c.02.11.12.18.22.18.02,0,.03,0,.05,0,.12-.03.2-.15.17-.27l-.43-2.03c-.03-.12-.15-.2-.27-.17-.12.03-.2.15-.17.27l.43,2.03Z"/>
          <path d="M492.71,219.6c.03.1.12.16.22.16.02,0,.05,0,.07-.01.12-.04.18-.17.15-.28l-.64-1.98c-.04-.12-.17-.18-.28-.15-.12.04-.18.17-.15.28l.64,1.98Z"/>
          <path d="M490.09,220.63c.04.08.12.13.21.13.03,0,.06,0,.09-.02.11-.05.17-.18.11-.3l-.85-1.9c-.05-.11-.18-.17-.3-.11-.11.05-.17.18-.11.3l.85,1.9Z"/>
          <path d="M485.25,223.48c.04.06.11.09.18.09.05,0,.09-.01.13-.04.1-.07.12-.21.05-.32l-1.22-1.68c-.07-.1-.21-.12-.32-.05-.1.07-.12.21-.05.32l1.22,1.68Z"/>
          <path d="M483.07,225.28s.11.07.17.07c.05,0,.11-.02.15-.06.09-.08.1-.23.02-.32l-1.39-1.54c-.08-.09-.23-.1-.32-.02-.09.08-.1.23-.02.32l1.39,1.54Z"/>
          <path d="M481.1,227.28s.1.06.15.06c.06,0,.12-.03.17-.07.08-.09.08-.24-.02-.32l-1.54-1.39c-.09-.08-.24-.08-.32.02-.08.09-.08.24.02.32l1.54,1.39Z"/>
          <path d="M477.66,228.27l1.68,1.22s.09.04.13.04c.07,0,.14-.03.18-.09.07-.1.05-.24-.05-.32l-1.68-1.22c-.1-.07-.24-.05-.32.05-.07.1-.05.24.05.32Z"/>
          <path d="M474.67,233.54l1.9.85s.06.02.09.02c.09,0,.17-.05.21-.13.05-.11,0-.25-.11-.3l-1.9-.85c-.11-.05-.25,0-.3.11-.05.11,0,.25.11.3Z"/>
          <path d="M473.61,236.38l1.98.64s.05.01.07.01c.1,0,.18-.06.22-.16.04-.12-.03-.25-.15-.28l-1.98-.64c-.12-.04-.25.03-.28.15-.04.12.03.25.15.28Z"/>
          <path d="M472.85,239.31l2.03.43s.03,0,.05,0c.1,0,.2-.07.22-.18.03-.12-.05-.24-.17-.27l-2.03-.43c-.12-.03-.24.05-.27.17-.03.12.05.24.17.27Z"/>
          <path d="M472.39,242.31l2.07.22s.02,0,.02,0c.11,0,.21-.09.22-.2.01-.12-.08-.24-.2-.25l-2.07-.22c-.12-.01-.24.08-.25.2-.01.12.08.24.2.25Z"/>
          <path d="M474.71,247.91c-.01-.12-.12-.21-.25-.2l-2.07.22c-.12.01-.21.12-.2.25.01.12.11.2.22.2,0,0,.02,0,.02,0l2.07-.22c.12-.01.21-.12.2-.25Z"/>
          <path d="M475.15,250.66c-.03-.12-.15-.2-.27-.17l-2.03.43c-.12.03-.2.15-.17.27.02.11.12.18.22.18.02,0,.03,0,.05,0l2.03-.43c.12-.03.2-.15.17-.27Z"/>
          <path d="M475.87,253.36c-.04-.12-.17-.18-.28-.15l-1.98.64c-.12.04-.18.17-.15.28.03.1.12.16.22.16.02,0,.05,0,.07-.01l1.98-.64c.12-.04.18-.17.15-.28Z"/>
          <path d="M476.87,255.97c-.05-.11-.18-.17-.3-.11l-1.9.85c-.11.05-.17.18-.11.3.04.08.12.13.21.13.03,0,.06,0,.09-.02l1.9-.85c.11-.05.17-.18.11-.3Z"/>
          <path d="M477.61,262.29c.04.06.11.09.18.09.05,0,.09-.01.13-.04l.11-.08,1.57-1.14c.1-.07.12-.21.05-.32-.07-.1-.21-.12-.32-.05l-.77.56-.91.66c-.1.07-.12.21-.05.32Z"/>
          <path d="M481.1,262.95l-1.54,1.39c-.09.08-.1.23-.02.32.04.05.11.07.17.07.05,0,.11-.02.15-.06l1.54-1.39c.09-.08.1-.23.02-.32-.08-.09-.23-.1-.32-.02Z"/>
          <path d="M483.07,264.96l-1.39,1.54c-.08.09-.08.24.02.32.04.04.1.06.15.06.06,0,.12-.03.17-.07l1.39-1.54c.08-.09.08-.24-.02-.32-.09-.08-.24-.08-.32.02Z"/>
          <path d="M485.56,266.7c-.1-.07-.24-.05-.32.05l-1.22,1.68c-.07.1-.05.24.05.32.04.03.09.04.13.04.07,0,.14-.03.18-.09l1.22-1.68c.07-.1.05-.24-.05-.32Z"/>
          <path d="M490.39,269.49c-.11-.05-.25,0-.3.11l-.85,1.9c-.05.11,0,.25.11.3.03.01.06.02.09.02.09,0,.17-.05.21-.13l.85-1.9c.05-.11,0-.25-.11-.3Z"/>
          <path d="M493,270.49c-.12-.04-.25.03-.28.15l-.64,1.98c-.04.12.03.25.15.28.02,0,.05.01.07.01.1,0,.18-.06.22-.16l.64-1.98c.04-.12-.03-.25-.15-.28Z"/>
          <path d="M509.77,270.63c-.04-.12-.17-.18-.28-.15-.12.04-.18.17-.15.28l.64,1.98c.03.1.12.16.22.16.02,0,.05,0,.07-.01.12-.04.18-.17.15-.28l-.64-1.98Z"/>
          <path d="M512.39,269.6c-.05-.11-.18-.17-.3-.11-.11.05-.17.18-.11.3l.85,1.9c.04.08.12.13.21.13.03,0,.06,0,.09-.02.11-.05.17-.18.11-.3l-.85-1.9Z"/>
          <path d="M517.24,266.75c-.07-.1-.21-.12-.32-.05-.1.07-.12.21-.05.32l1.22,1.68c.04.06.11.09.18.09.05,0,.09-.01.13-.04.1-.07.12-.21.05-.32l-1.22-1.68Z"/>
          <path d="M519.41,264.96c-.08-.09-.23-.1-.32-.02-.09.08-.1.23-.02.32l1.39,1.54s.11.07.17.07c.05,0,.11-.02.15-.06.09-.08.1-.23.02-.32l-1.39-1.54Z"/>
          <path d="M521.39,262.95c-.09-.08-.24-.08-.32.02-.08.09-.08.24.02.32l1.54,1.39s.1.06.15.06c.06,0,.12-.03.17-.07.08-.09.08-.24-.02-.32l-1.54-1.39Z"/>
          <path d="M524.82,261.97l-1.68-1.22c-.1-.07-.24-.05-.32.05-.07.1-.05.24.05.32l1.68,1.22s.09.04.13.04c.07,0,.14-.03.18-.09.07-.1.05-.24-.05-.32Z"/>
          <path d="M527.81,256.7l-1.9-.85c-.11-.05-.25,0-.3.11-.05.11,0,.25.11.3l1.9.85s.06.02.09.02c.09,0,.17-.05.21-.13.05-.11,0-.25-.11-.3Z"/>
          <path d="M528.88,253.86l-1.98-.64c-.12-.04-.25.03-.28.15s.03.25.15.28l1.98.64s.05.01.07.01c.1,0,.18-.06.22-.16.04-.12-.03-.25-.15-.28Z"/>
          <path d="M529.64,250.92l-2.03-.43c-.12-.03-.24.05-.27.17-.03.12.05.24.17.27l2.03.43s.03,0,.05,0c.1,0,.2-.07.22-.18.03-.12-.05-.24-.17-.27Z"/>
          <path d="M530.09,247.92l-2.07-.22c-.12-.01-.24.08-.25.2-.01.12.08.24.2.25l2.07.22s.02,0,.02,0c.11,0,.21-.09.22-.2.01-.12-.08-.24-.2-.25Z"/>
          <path d="M527.77,242.33c.01.12.11.2.22.2,0,0,.02,0,.02,0l2.07-.22c.12-.01.21-.12.2-.25-.01-.12-.12-.21-.25-.2l-2.07.22c-.12.01-.21.12-.2.25Z"/>
          <path d="M527.34,239.57c.02.11.12.18.22.18.02,0,.03,0,.05,0l2.03-.43c.12-.03.2-.15.17-.27-.03-.12-.15-.2-.27-.17l-2.03.43c-.12.03-.2.15-.17.27Z"/>
          <path d="M526.61,236.87c.03.1.12.16.22.16.02,0,.05,0,.07-.01l1.98-.64c.12-.04.18-.17.15-.28s-.17-.18-.28-.15l-1.98.64c-.12.04-.18.17-.15.28Z"/>
          <path d="M525.61,234.27c.04.08.12.13.21.13.03,0,.06,0,.09-.02l1.9-.85c.11-.05.17-.18.11-.3-.05-.11-.18-.17-.3-.11l-1.9.85c-.11.05-.17.18-.11.3Z"/>
          <path d="M522.82,229.44c.04.06.11.09.18.09.05,0,.09-.01.13-.04l1.68-1.22c.1-.07.12-.21.05-.32-.07-.1-.21-.12-.32-.05l-1.68,1.22c-.1.07-.12.21-.05.32Z"/>
          <path d="M521.24,227.34c.05,0,.11-.02.15-.06l1.54-1.39c.09-.08.1-.23.02-.32-.08-.09-.23-.1-.32-.02l-1.54,1.39c-.09.08-.1.23-.02.32.04.05.11.07.17.07Z"/>
          <path d="M520.47,223.43l-1.39,1.54c-.08.09-.08.24.02.32.04.04.1.06.15.06.06,0,.12-.03.17-.07l1.39-1.54c.08-.09.08-.24-.02-.32-.09-.08-.24-.08-.32.02Z"/>
          <path d="M518.41,221.49c-.1-.07-.24-.05-.32.05l-1.22,1.68c-.07.1-.05.24.05.32.04.03.09.04.13.04.07,0,.14-.03.18-.09l1.22-1.68c.07-.1.05-.24-.05-.32Z"/>
          <path d="M512.09,220.75s.06.02.09.02c.09,0,.17-.05.21-.13l.85-1.9c.05-.11,0-.25-.11-.3-.11-.05-.25,0-.3.11l-.85,1.9c-.05.11,0,.25.11.3Z"/>
          <path d="M510.27,217.34c-.12-.04-.25.03-.28.15l-.64,1.98c-.04.12.03.25.15.28.02,0,.03,0,.05,0,0,0,.01,0,.02,0,.1,0,.18-.06.22-.16l.21-.64.44-1.34c.04-.12-.03-.25-.15-.28Z"/>
          <path d="M506.79,219.02s.03,0,.05,0c.1,0,.2-.07.22-.18l.43-2.03c.03-.12-.05-.24-.17-.27-.12-.03-.24.05-.27.17l-.43,2.03c-.03.12.05.24.17.27Z"/>
          <path d="M504.03,218.59s.02,0,.02,0c.11,0,.21-.09.22-.2l.22-2.07c.01-.12-.08-.24-.2-.25-.12-.01-.24.08-.25.2l-.22,2.07c-.01.12.08.24.2.25Z"/>
          <path class="st41" d="M502.3,243.87c.24-.3.43-.54.45-.57.06-.1.62-.81.71-.84.04-.01.07,0,.1.01l-.35-.26s-.03-.05,0-.07l7.34-9.65s.02-.02.03-.02c.01,0,.03,0,.04,0l.29.22s-.03-.05-.04-.07c-.06-.11,2.51-3.54,2.78-3.9.27-.36.91-1.13,1.34-1.73.43-.6.48-.15.54-.32.03-.08-.02-.17-.09-.23-.07-.04-.14-.06-.22-.06-.11,0-.23.05-.33.16l-1.66,1.87s-.01.02-.02.03c0,0,0,0,0,0l-10.96,14.42s-.01.02-.02.03l-.45.69c.2.07.37.17.53.3ZM512.6,229.41s-8.91,11.91-9.68,12.74c0,0,7.81-10.43,9.68-12.74Z"/>
          <path class="st30" d="M502.92,242.14c.77-.82,9.68-12.74,9.68-12.74-1.87,2.31-9.68,12.74-9.68,12.74Z"/>
          <path class="st28" d="M515.52,226.67c-.06.17-.11-.27-.54.32-.43.6-1.07,1.37-1.34,1.73-.27.36-2.84,3.8-2.78,3.9.02.02.03.05.04.07l.1.07s.03-.1.07-.18c.09-.23,2.54-3.57,2.76-3.86.22-.29,1.2-1.6,1.41-1.85.2-.26.17.12.31-.03.1-.11,0-.27-.07-.36-.02-.01-.04-.03-.06-.04.06.07.12.15.09.23Z"/>
          <path class="st28" d="M503.44,242.61c.09-.1.16-.11.18-.11,0,0,0,0,0,0l-.05-.04s-.07-.02-.1-.01c-.09.03-.64.74-.71.84-.02.03-.21.27-.45.57.04.04.08.07.12.11.1-.11.16-.2.18-.22.09-.12.71-1.02.84-1.15Z"/>
          <path class="st12" d="M515.56,226.83c-.14.16-.11-.22-.31.03-.2.26-1.18,1.56-1.41,1.85-.22.29-2.68,3.63-2.76,3.86-.03.08-.05.14-.07.18h.01s.03.06,0,.08l-7.34,9.65s-.02.02-.03.02c0,0,0,0,0,0,0,0-.02,0-.02,0-.03,0-.09,0-.18.11-.12.13-.75,1.03-.84,1.15-.02.02-.09.11-.18.22.09.09.17.2.24.31l.58-.65s.01-.02.02-.03l10.96-14.42s.01-.02.02-.03l1.36-2.1c.16-.24.06-.48-.11-.6,0,0,0,0,0,0,.07.09.16.25.07.36Z"/>
          <path d="M503.62,242.5s.02,0,.02,0c0,0,0,0,0,0,.01,0,.02,0,.03-.02l7.34-9.65s.01-.05,0-.07h-.01s-.1-.08-.1-.08l-.29-.22s-.02-.01-.04,0c-.01,0-.02,0-.03.02l-7.34,9.65s-.01.05,0,.07l.35.26.05.04s0,0,0,0ZM510.91,232.82l-7.28,9.57-.32-.24,7.28-9.57.32.24Z"/>
          <path class="st41" d="M503.36,245.21c.17,0,.73-.12.77.11.02.12.05.19.07.23v-.48s0-.02,0-.02l-.09-.08h6.86l-.05.07s.02.02.02.04v.49c.05-.13.08-.43.16-.45.08-.02,2.71-.08,2.87-.09.17,0,2.32.24,2.49.24s.12.15.15.13c.02-.02.02-.08.03-.12-.02-.13-.11-.25-.28-.27l-2.36-.31s-.03,0-.04,0h-10.48s-.03,0-.04,0l-.6.08c.03.12.04.24.04.36,0,.03,0,.06,0,.08.25,0,.44,0,.48,0ZM513.8,244.8s-9.42.11-10.13,0c0,0,8.25-.1,10.13,0Z"/>
          <path class="st28" d="M504.26,245.01h6.64s.02,0,.03.01l.05-.07h-6.86l.09.08s.02-.03.04-.03Z"/>
          <path class="st28" d="M516.62,245.38s.01-.13-.15-.13-2.32-.25-2.49-.24c-.17,0-2.79.06-2.87.09-.07.02-.11.32-.16.45h0s0,.01,0,.02c.03-.04.09-.11.12-.2.05-.13.29-.22.53-.22s2.22,0,2.46.01c.23.01,2.29.17,2.42.22.1.04.05.17.13.09.03-.05.04-.11.04-.16,0-.02,0-.04,0-.05,0,.05,0,.11-.03.12Z"/>
          <path class="st28" d="M503.22,245.47c.21-.02.68-.13.75.01.04.06.14.09.24.1,0,0,0-.01,0-.02v-.02s-.05-.11-.07-.23c-.04-.22-.61-.11-.77-.11-.05,0-.23,0-.48,0,0,.09-.02.17-.03.25.17.01.31.02.38.01Z"/>
          <path class="st12" d="M516.48,245.39c-.13-.05-2.19-.21-2.42-.22-.23-.01-2.22-.01-2.46-.01s-.48.09-.53.22c-.03.09-.09.16-.12.2,0,.02-.02.04-.05.04h-6.64s-.04-.01-.05-.03c-.1-.01-.2-.04-.24-.1-.08-.14-.54-.03-.75-.01-.07,0-.21,0-.38-.01-.03.14-.08.27-.14.4l.73.1s.03,0,.04,0h10.48s.03,0,.04,0l2.36-.31c.12-.02.2-.08.25-.16-.08.08-.03-.05-.13-.09Z"/>
          <path class="st30" d="M513.8,244.8c-1.88-.1-10.13,0-10.13,0,.71.11,10.13,0,10.13,0Z"/>
          <path d="M516.38,244.89l-2.36-.31s-.04,0-.06,0h-10.48s-.04,0-.06,0l-.61.08c-.03-.09-.06-.18-.11-.27l.6-.68s.02-.02.03-.03l10.96-14.42s.02-.02.02-.03l1.36-2.1c.19-.29.07-.59-.13-.73-.2-.15-.51-.19-.74.07l-1.66,1.87s-.02.02-.03.03l-10.96,14.42s-.02.02-.02.03l-.47.72c-.14-.04-.28-.06-.43-.06-.9,0-1.64.73-1.64,1.64s.73,1.64,1.64,1.64c.6,0,1.13-.33,1.41-.81l.77.1s.04,0,.06,0h10.48s.04,0,.06,0l2.36-.31c.26-.03.37-.24.37-.43s-.12-.39-.37-.43ZM516.61,245.47c-.04.08-.12.15-.25.16l-2.36.31s-.03,0-.04,0h-10.48s-.03,0-.04,0l-.73-.1c.06-.12.11-.26.14-.4.02-.08.03-.17.03-.25,0-.03,0-.05,0-.08,0-.12-.01-.25-.04-.36l.6-.08s.03,0,.04,0h10.48s.03,0,.04,0l2.36.31c.17.02.26.15.28.27,0,.02,0,.04,0,.05,0,.06-.01.11-.04.16ZM501.24,246.66c-.55,0-1.03-.29-1.3-.73-.12-.2-.2-.43-.23-.68,0-.04,0-.09,0-.14,0-.85.69-1.54,1.54-1.54.29,0,.57.08.8.22.27.16.48.41.61.7.08.19.13.4.13.62,0,.85-.69,1.54-1.54,1.54ZM502.24,242.85l10.96-14.42s0,0,0,0c0,0,.01-.02.02-.03l1.66-1.87c.1-.11.22-.16.33-.16.08,0,.15.02.22.06.02.01.04.02.06.04,0,0,0,0,0,0,.16.13.26.36.11.6l-1.36,2.1s-.01.02-.02.03l-10.96,14.42s-.01.02-.02.03l-.58.65c-.07-.11-.15-.22-.24-.31-.04-.04-.08-.08-.12-.11-.15-.13-.33-.23-.53-.3l.45-.69s.01-.02.02-.03Z"/>
          <path d="M510.93,245.02s-.02-.01-.03-.01h-6.64s-.03.01-.04.03c0,0,0,.02,0,.02v.5s0,.01,0,.02c0,.02.03.03.05.03h6.64s.04-.02.05-.04c0,0,0,0,0,0h0v-.5s0-.03-.02-.04ZM504.31,245.11h6.54v.4h-6.54v-.4Z"/>
          <path class="st41" d="M500.42,246.25s-.31-.32-.31-.8c0-.5.94-.92,1.49-.27.53.63,1.6-.1.44-1.38-.23-.14-.51-.22-.8-.22-.85,0-1.54.69-1.54,1.54,0,.05,0,.09,0,.14.03.08.26.76.71,1ZM500.56,243.93c.31-.17.77-.24.93-.08.02.02.08.08.06.15,0,.02-.02.08-.14.13-.25.12-.55.04-.77.06-.18.02-.43.12-.72.51.06-.17.23-.56.64-.78Z"/>
          <path class="st28" d="M499.99,245.97c.18.24.69.6.89.51.2-.08-.32-.18-.48-.65-.16-.47.08-.81.57-.69.48.12.46.85,1.21.49.76-.35.42-1.14.42-1.14h.04c-.13-.28-.34-.52-.61-.68,1.16,1.28.09,2.01-.44,1.38-.55-.65-1.49-.24-1.49.27,0,.47.28.76.31.8-.45-.23-.68-.91-.71-1,.02.25.1.48.23.68.01,0,.03,0,.05.04Z"/>
          <path class="st12" d="M502.78,245.12c0-.22-.05-.43-.13-.62h-.04s.33.78-.42,1.13c-.76.36-.73-.37-1.21-.49-.49-.12-.73.23-.57.69.16.47.68.57.48.65-.2.08-.71-.27-.89-.51-.02-.03-.04-.04-.05-.04.27.44.75.73,1.3.73.85,0,1.54-.69,1.54-1.54Z"/>
          <path class="st30" d="M500.64,244.19c.22-.02.52.06.77-.06.12-.06.13-.11.14-.13.01-.07-.05-.14-.06-.15-.15-.16-.61-.09-.93.08-.41.22-.58.61-.64.78.29-.4.54-.5.72-.51Z"/>
        </g>
      </g>
      <text id="_x28__x2F_techno_x2F_math_x2F_shapes_x2F_level3_x2F_hexagon_x2F_hexagon.mp3_x29_1" data-name="_x28__x2F_techno_x2F_math_x2F_shapes_x2F_level3_x2F_hexagon_x2F_hexagon.mp3_x29_" class="st19" transform="translate(284.71 243.82)"><tspan x="0" y="0">Hexagon</tspan></text>
      <text id="_x28__x2F_techno_x2F_math_x2F_shapes_x2F_level3_x2F_hexagon_x2F_honey_comb.mp3_x29_1" data-name="_x28__x2F_techno_x2F_math_x2F_shapes_x2F_level3_x2F_hexagon_x2F_honey_comb.mp3_x29_" class="st15" transform="translate(77.06 150.39)"><tspan x="0" y="0">Honey comb</tspan></text>
      <text id="_x28__x2F_techno_x2F_math_x2F_shapes_x2F_level3_x2F_hexagon_x2F_clock.mp3_x29_1" data-name="_x28__x2F_techno_x2F_math_x2F_shapes_x2F_level3_x2F_hexagon_x2F_clock.mp3_x29_" class="st18" transform="translate(482.9 311.7)"><tspan x="0" y="0">Clock</tspan></text>
      <text id="_x28__x2F_techno_x2F_math_x2F_shapes_x2F_level3_x2F_hexagon_x2F_foot_ball.mp3_x29_1" data-name="_x28__x2F_techno_x2F_math_x2F_shapes_x2F_level3_x2F_hexagon_x2F_foot_ball.mp3_x29_" class="st17" transform="translate(84.19 311.57)"><tspan x="0" y="0">Foot ball</tspan></text>
      <text id="_x28__x2F_techno_x2F_math_x2F_shapes_x2F_level3_x2F_hexagon_x2F_bold_and_nut.mp3_x29_1" data-name="_x28__x2F_techno_x2F_math_x2F_shapes_x2F_level3_x2F_hexagon_x2F_bold_and_nut.mp3_x29_" class="st16" transform="translate(465.68 150.4)"><tspan x="0" y="0">Bold and nut</tspan></text>
    </g>
  </g>
</svg>