<?xml version="1.0" encoding="UTF-8"?>
<svg xmlns="http://www.w3.org/2000/svg" version="1.1" xmlns:xlink="http://www.w3.org/1999/xlink" viewBox="0 0 623.62 340.16">
  <!-- Generator: Adobe Illustrator 29.1.0, SVG Export Plug-In . SVG Version: 2.1.0 Build 142)  -->
  <defs>
    <style>
      .st0 {
        letter-spacing: -.03em;
      }

      .st1 {
        letter-spacing: -.02em;
      }

      .st2 {
        fill: #3b2314;
      }

      .st3 {
        fill: #995b31;
      }

      .st4, .st5, .st6, .st7 {
        mix-blend-mode: multiply;
      }

      .st4, .st5, .st7, .st8 {
        opacity: .5;
      }

      .st4, .st9 {
        fill: #5e576d;
      }

      .st10, .st6 {
        fill: #d0d2d3;
      }

      .st11 {
        font-family: MyriadPro-Regular, 'Myriad Pro';
        font-size: 22.07px;
      }

      .st12 {
        fill: #f79d58;
      }

      .st5, .st13, .st14, .st15 {
        fill: #d64627;
      }

      .st16 {
        fill: #4f353f;
      }

      .st16, .st17 {
        fill-rule: evenodd;
      }

      .st18 {
        fill: #f4bf43;
      }

      .st19, .st20 {
        fill: none;
      }

      .st21 {
        letter-spacing: -.08em;
      }

      .st22, .st23 {
        fill: #e4e1dc;
      }

      .st24 {
        letter-spacing: 0em;
      }

      .st25 {
        fill: #1c1c1b;
        opacity: .4;
      }

      .st25, .st8 {
        mix-blend-mode: overlay;
      }

      .st13 {
        opacity: .3;
      }

      .st13, .st26, .st14, .st27 {
        mix-blend-mode: screen;
      }

      .st7, .st28, .st27 {
        fill: #f4ce12;
      }

      .st29 {
        fill: #006838;
      }

      .st26 {
        opacity: .2;
      }

      .st26, .st8 {
        fill: #fff;
      }

      .st17, .st30 {
        fill: #be4849;
      }

      .st31 {
        fill: #fcb670;
      }

      .st32 {
        isolation: isolate;
      }

      .st33 {
        letter-spacing: -.02em;
      }

      .st34 {
        fill: #bd7f41;
      }

      .st35 {
        fill: #37b34a;
      }

      .st20 {
        stroke: #221f1f;
        stroke-miterlimit: 10;
        stroke-width: .87px;
      }

      .st36 {
        fill: #603813;
      }

      .st37 {
        fill: #231f20;
        font-family: FefdyTypeRegular, 'Fefdy Type';
        font-size: 12.94px;
      }

      .st38 {
        fill: #e6dd18;
      }

      .st23 {
        mix-blend-mode: soft-light;
      }

      .st39 {
        fill: #f06022;
      }

      .st40 {
        fill: url(#linear-gradient);
      }

      .st41 {
        fill: #f6f7f7;
      }
    </style>
    <linearGradient id="linear-gradient" x1="57.49" y1="294.97" x2="143.71" y2="294.97" gradientUnits="userSpaceOnUse">
      <stop offset="0" stop-color="#f27021"/>
      <stop offset=".04" stop-color="#f06c21"/>
      <stop offset=".05" stop-color="#f06a22"/>
      <stop offset=".08" stop-color="#f06c25"/>
      <stop offset=".11" stop-color="#f1732e"/>
      <stop offset=".14" stop-color="#f2803f"/>
      <stop offset=".16" stop-color="#f59156"/>
      <stop offset=".18" stop-color="#f79f68"/>
      <stop offset=".28" stop-color="#f79a60"/>
      <stop offset=".29" stop-color="#f69459"/>
      <stop offset=".31" stop-color="#f38241"/>
      <stop offset=".32" stop-color="#f1742f"/>
      <stop offset=".34" stop-color="#f06c25"/>
      <stop offset=".37" stop-color="#f06a22"/>
      <stop offset=".52" stop-color="#ec6822"/>
      <stop offset=".64" stop-color="#e36223"/>
      <stop offset=".75" stop-color="#d25824"/>
      <stop offset=".84" stop-color="#bd4c27"/>
      <stop offset="1" stop-color="#f27021"/>
    </linearGradient>
  </defs>
  <g class="st32">
    <g id="Layer_1">
      <rect class="st31" x="-48.65" y="-38.18" width="730.59" height="429.88"/>
      <text id="_x28__x2F_techno_x2F_math_x2F_shapes_x2F_level3_x2F_cone_x2F_cracker.mp3_x29_" class="st37" transform="translate(492.91 170.62)"><tspan x="0" y="0">Cr</tspan><tspan class="st0" x="14.78" y="0">a</tspan><tspan class="st24" x="21.6" y="0">cker</tspan></text>
      <text id="_x28__x2F_techno_x2F_math_x2F_shapes_x2F_level3_x2F_cone_x2F_traffic_cone.mp3_x29_" class="st37" transform="translate(66.14 321.53)"><tspan x="0" y="0">Traffic </tspan><tspan class="st33" x="40.67" y="0">c</tspan><tspan x="46.84" y="0">one</tspan></text>
      <g id="_x28__x2F_techno_x2F_math_x2F_shapes_x2F_level3_x2F_cone_x2F_cracker.mp3_x29_1" data-name="_x28__x2F_techno_x2F_math_x2F_shapes_x2F_level3_x2F_cone_x2F_cracker.mp3_x29_">
        <g>
          <path class="st15" d="M483.7,131.3s24.09-74.75,24.09-74.75l1.38-5.31h1.51c.33-.29.69-.56,1.07-.8,2.52-1.55,5.7-1.55,8.23,0,.38.23.74.5,1.07.8h1.47l1.42,5.31,24.05,74.75s1.01,3.11,1.01,7.89-14.85,8.78-33.16,8.78-33.16-3.93-33.16-8.78,1.01-7.89,1.01-7.89Z"/>
          <path class="st13" d="M509.21,51.89c-.06-.07-.1-.14-.15-.22l.11-.43h1.51c.33-.29.69-.56,1.07-.8,2.52-1.55,5.7-1.55,8.23,0,.38.23.74.5,1.07.8h1.47l.4,1.49s-.03.04-.06.05c-.92.6-2.12.92-3.19,1.13-.61.12-1.22.2-1.84.23-1.89.1-3.79-.18-5.63-.67-1.11-.3-2.26-.71-3-1.59Z"/>
          <path class="st28" d="M486.13,123.87l9.29-28.89c0,2.95,9.14,5.33,20.42,5.33s20.42-2.39,20.42-5.33c.04,0,9.38,29.04,9.38,29.04.12.24.2.49.24.73l.1.31c-.04,4.34-13.52,7.86-30.14,7.86s-30.1-3.52-30.1-7.86c0-.41.16-.81.38-1.2Z"/>
          <path class="st26" d="M519.98,50.45c.68.42,1.28.95,1.8,1.55.86,2.77,1.21,6.07,1.85,8.6,1.92,7.62,3.8,15.25,5.63,22.9,2.06,8.6,4.07,17.23,5.16,26,.3,2.37.52,4.84-.23,7.11-.74,2.27-2.7,4.32-5.09,4.42-3.08.14-5.37-2.76-6.77-5.51-5.06-9.91-5.74-21.4-6.33-32.51-.59-11.17-1.18-22.34-1.77-33.5,1.94-.41,4-.13,5.75.94Z"/>
          <path class="st5" d="M482.69,139.19c0-4.78,1.01-7.89,1.01-7.89.04,0,1.78-5.42,1.78-5.42-.03.68-.04,1.36-.01,2.04.12,2.92.86,5.88,2.61,8.22,1.89,2.53,4.78,4.11,7.71,5.29,13.18,5.33,28.16,3.91,41.89.25,2.7-.72,5.42-1.54,7.73-3.1,1.47-.99,2.48-2.2,3.32-3.61.15,1.18.27,2.59.27,4.21,0,4.85-14.85,8.78-33.16,8.78s-33.16-3.93-33.16-8.78Z"/>
          <path class="st5" d="M483.7,131.3s23.77-73.74,23.77-73.74l.33-1.01,1.38-5.31h.86l-.19.88c-2.97,16.18-5.63,32.47-5.74,48.91-.07,10.01,1.15,20.85,7.91,28.23,5.06,5.53,12.95,8.31,20.36,7.2,3.65-.55,7.14-2.05,10.12-4.23,1.31-.96,2.53-2.06,3.62-3.27.24-.26.5-.67.79-1.13l1.12,3.48s1.01,3.11,1.01,7.89-14.85,8.78-33.16,8.78-33.16-3.93-33.16-8.78,1.01-7.89,1.01-7.89Z"/>
          <path class="st28" d="M509.18,51.24c0,1.08,2.99,1.96,6.68,1.96s6.68-.88,6.68-1.96-2.99-1.96-6.68-1.96-6.68.88-6.68,1.96Z"/>
          <path class="st7" d="M515.85,53.2c-3.69,0-6.68-.88-6.68-1.96,0-.5.66-.95,1.71-1.29,0,.51.23,1.03.59,1.41.49.51,1.16.8,1.83,1.02.85.28,1.73.47,2.62.57,1.58.17,3.2.03,4.71-.48.38-.13.75-.28,1.11-.45.12-.06.32-.19.49-.25-.79.82-3.34,1.43-6.4,1.43Z"/>
        </g>
        <path class="st5" d="M483.92,130.74c.79.61,1.65,1.13,2.56,1.52,2.14.91,4.46,1.29,6.76,1.62,15.21,2.21,30.67,2.96,45.98,1.64,1.97-.17,3.97-.39,5.88-.92.77-.21,2.06-1.05,3.17-1.65.12,3.3-2.5,6.24-6.02,6.24h-52.76c-4.1,0-7-3.99-5.75-7.89l.18-.56Z"/>
        <path class="st7" d="M515.22,49.31l.47,1.53-1.92.14-1.96-1.29c.97-.22,2.13-.35,3.41-.39Z"/>
        <g>
          <path class="st9" d="M504.93,34.62c1.13,3.74,4.22,5.81,7.21,7.82.8.54,1.57,1.06,2.28,1.59,3.22,2.42,3.23,5.77,3.08,7.13,0,.15-.6.28-1.34.28s-1.34-.12-1.34-.28c0-.03.67-3-2-5-.67-.51-1.41-1-2.17-1.51-3.22-2.16-6.87-4.61-8.27-9.26l2.55-.77Z"/>
          <path class="st4" d="M503.57,35.03c.03.13.05.26.07.39.34,2.01,1.39,3.9,2.91,5.27,1.64,1.46,3.75,2.29,5.5,3.62,1.34,1.02,2.46,2.33,3.26,3.82.38.71.87,1.58,1.67,1.54.2,0,.37-.09.53-.2.07.69.04,1.28,0,1.69,0,.15-.6.28-1.34.28s-1.34-.12-1.34-.28c0-.03.67-3-2-5-.67-.51-1.41-1-2.17-1.51-3.22-2.16-6.87-4.61-8.27-9.26l1.19-.36Z"/>
        </g>
        <g>
          <path class="st28" d="M503.66,30.65c.35,2.85,3.35,4.36,3.35,4.36,0,0-3,1.5-3.35,4.36-.35-2.85-3.35-4.36-3.35-4.36,0,0,3-1.5,3.35-4.36Z"/>
          <path class="st27" d="M503.66,37.21c.58-1,1.4-1.74,2.04-2.21-.64-.47-1.45-1.21-2.04-2.21-.58,1-1.4,1.74-2.03,2.21.64.47,1.45,1.21,2.03,2.21Z"/>
          <path class="st28" d="M503.66,42.41c.18,2.3,1.69,3.51,1.69,3.51,0,0-1.51-.07-1.69,2.23-.18-2.3-1.69-2.23-1.69-2.23,0,0,1.51-1.21,1.69-3.51Z"/>
          <path class="st27" d="M503.65,46.06c.14-.18.3-.33.46-.44-.15-.21-.31-.45-.46-.73-.15.28-.31.52-.46.73.16.12.32.26.46.44Z"/>
          <path class="st28" d="M503.66,27.6c.18-2.3,1.69-3.51,1.69-3.51,0,0-1.51.07-1.69-2.23-.18,2.3-1.69,2.23-1.69,2.23,0,0,1.51,1.21,1.69,3.51Z"/>
          <path class="st27" d="M503.66,25.12c.15-.28.31-.52.46-.73-.16-.12-.32-.26-.46-.44-.14.18-.3.33-.46.44.15.21.31.45.46.73Z"/>
          <path class="st28" d="M496.25,35c-2.3.18-3.51,1.69-3.51,1.69,0,0,.07-1.51-2.23-1.69,2.3-.18,2.23-1.69,2.23-1.69,0,0,1.21,1.51,3.51,1.69Z"/>
          <path class="st27" d="M493.05,35.46c.21-.15.45-.31.72-.46-.28-.15-.52-.31-.72-.46-.12.16-.26.32-.44.46.18.14.32.3.44.46Z"/>
          <path class="st28" d="M511.06,35c2.3.18,3.51,1.69,3.51,1.69,0,0-.07-1.51,2.23-1.69-2.3-.18-2.23-1.69-2.23-1.69,0,0-1.21,1.51-3.51,1.69Z"/>
          <path class="st27" d="M514.26,35.46c.12-.16.26-.32.44-.46-.18-.14-.32-.3-.44-.46-.21.15-.45.31-.72.46.28.15.52.31.72.46Z"/>
          <path class="st15" d="M501.45,31.83s-2.04-2.15-2.77-6.23c0,0-1.47.29-3.34-.88,0,0,.52,1.58.74,3.21,0,0,3.23,1.12,5.38,3.89Z"/>
          <path class="st14" d="M498.73,28.49c-.24-.64-.46-1.35-.63-2.14-.39-.01-.98-.08-1.67-.31.1.42.2.9.28,1.4.43.18,1.17.52,2.02,1.05Z"/>
          <path class="st38" d="M499.04,32.83s-1.4-.76-2-1.95c0,0-.75.21-1.71,0,0,0,.67.72.92,1.4,0,0,1.35.04,2.79.55Z"/>
          <path class="st38" d="M502.35,29.68s-.47-1.53-.38-2.8c0,0-.76-.17-1.23-.64,0,0,.17.8,0,1.35,0,0,1.27,1.4,1.61,2.08Z"/>
          <path class="st15" d="M505.86,31.83s2.04-2.15,2.77-6.23c0,0,1.47.29,3.34-.88,0,0-.52,1.58-.74,3.21,0,0-3.23,1.12-5.38,3.89Z"/>
          <path class="st14" d="M508.58,28.49c.84-.53,1.58-.87,2.02-1.05.08-.5.18-.98.28-1.4-.69.23-1.27.3-1.67.31-.17.79-.39,1.5-.63,2.14Z"/>
          <path class="st38" d="M508.27,32.83s1.4-.76,1.99-1.95c0,0,.75.21,1.71,0,0,0-.67.72-.92,1.4,0,0-1.35.04-2.79.55Z"/>
          <path class="st38" d="M504.96,29.68s.47-1.53.38-2.8c0,0,.76-.17,1.23-.64,0,0-.17.8,0,1.35,0,0-1.27,1.4-1.61,2.08Z"/>
          <path class="st15" d="M501.45,38.17s-2.04,2.15-2.77,6.23c0,0-1.47-.29-3.34.88,0,0,.52-1.58.74-3.21,0,0,3.23-1.12,5.38-3.89Z"/>
          <path class="st14" d="M496.43,43.97c.69-.23,1.28-.3,1.67-.31.17-.79.39-1.5.63-2.14-.85.53-1.58.87-2.02,1.05-.08.5-.18.97-.28,1.4Z"/>
          <path class="st38" d="M499.04,37.18s-1.4.76-2,1.95c0,0-.75-.21-1.71,0,0,0,.67-.72.92-1.4,0,0,1.35-.04,2.79-.55Z"/>
          <path class="st38" d="M502.35,40.32s-.47,1.53-.38,2.8c0,0-.76.17-1.23.64,0,0,.17-.8,0-1.35,0,0,1.27-1.4,1.61-2.08Z"/>
          <path class="st15" d="M505.86,38.17s2.04,2.15,2.77,6.23c0,0,1.47-.29,3.34.88,0,0-.52-1.58-.74-3.21,0,0-3.23-1.12-5.38-3.89Z"/>
          <path class="st14" d="M510.88,43.97c-.1-.42-.2-.9-.28-1.4-.43-.18-1.17-.52-2.02-1.06.24.64.46,1.35.63,2.14.39.01.97.08,1.67.31Z"/>
          <path class="st38" d="M508.27,37.18s1.4.76,1.99,1.95c0,0,.75-.21,1.71,0,0,0-.67-.72-.92-1.4,0,0-1.35-.04-2.79-.55Z"/>
          <path class="st38" d="M504.96,40.32s.47,1.53.38,2.8c0,0,.76.17,1.23.64,0,0-.17-.8,0-1.35,0,0-1.27-1.4-1.61-2.08Z"/>
        </g>
      </g>
      <text id="_x28__x2F_techno_x2F_math_x2F_shapes_x2F_level3_x2F_cone_x2F_ice_cream_cone.mp3_x29_" class="st37" transform="translate(469.57 321.53)"><tspan x="0" y="0">Ice cream </tspan><tspan class="st1" x="64.29" y="0">c</tspan><tspan x="70.45" y="0">one</tspan></text>
      <g id="_x28__x2F_techno_x2F_math_x2F_shapes_x2F_level3_x2F_cone_x2F_ice_cream_cone.mp3_x29_1" data-name="_x28__x2F_techno_x2F_math_x2F_shapes_x2F_level3_x2F_cone_x2F_ice_cream_cone.mp3_x29_">
        <path class="st22" d="M542.54,215.32c-3.61-3.02-13.95-9.2-23.66-11.91h0s0,0,0,0c-9.71-2.72-21.49-4.57-26.72-2.73-3.81,1.34-6.12,2.08-6.16,5.45-.22,19.26,1.85,21.54,3.76,22.48,8.69,4.28,37.89,9.59,40.9,10.43,2.27.64,4.88.26,14.43-15.9,2.5-4.22,1.95-4.07-2.54-7.82Z"/>
        <path class="st6" d="M491.63,202.87c-3.31.77-.78,4.57,6.03,8.14,6.81,3.56,20.33,8.67,30.81,9.18,10.48.51,16.84-.84,14.05-3.45-2.52-2.36-10.41-9.63-27.93-13.49-11.31-2.49-22.95-.38-22.95-.38Z"/>
        <path class="st6" d="M546.07,218.46c-.16.36-.34.7-.57,1.02-2.02,2.91-5.99,2.69-8.91,2.65-4.83-.08-9.51-.68-14.28-1.31-5.06-.67-9.81-1.43-14.53-3.47-2.51-1.08-4.99-2.19-7.55-3.13-2.18-.8-4.55-1.52-6.54-2.77-2.22-1.39-6.17-3.01-6.65-6.15-.09-.58-.03-1.17.13-1.74-.72.55-1.16,1.29-1.17,2.58-.22,19.26,1.85,21.54,3.76,22.48,8.69,4.28,37.89,9.59,40.9,10.43,2.27.64,4.88.26,14.43-15.9,1.51-2.55,1.9-3.5.99-4.69Z"/>
        <path class="st34" d="M520.99,235.59c-8.84-1.12-16.44-2.98-23.32-6.06-6.88-3.07-10.56-5.77-10.91-5.42,1.47,22.55,4.48,68.71,4.61,70.71.17,2.65,1.79,3.09,3.41.95,1.27-1.67,29.76-42.43,42.06-60.05-.69.18-7.01.98-15.85-.14Z"/>
        <path class="st10" d="M520.99,235.59c-8.84-1.12-16.44-2.98-23.32-6.06-6.88-3.07-10.56-5.77-10.91-5.42.03.49.06,1,.1,1.51,3.6,3.81,10.94,7.62,18,9.57,5.02,1.38,11.03,2.34,16.08,3.55,2.55.61,5.99,1.77,4.76,5.11-.7,1.9-1.69,3.75-2.78,5.45-1.1,1.71-2.23,5.12-3.88,6.37-2.89,2.19-6.47,2.04-10.03,1.68-5.41-.54-10.97-2.28-16.24-3.63-1.01-.26-2.55-.61-4.15-1.13l.07,1.1c.07.03.13.07.19.12.41.31.81.62,1.2.94,3.14,2.31,6.96,4.04,10.74,5,3.59.91,8.53,1.47,11.98,2.83,2.21.87,1.12,2.19.07,4.05-1.36,2.42-2.76,4.73-4.62,6.82-1.77,1.99-4.04,3.42-6.73,3.67-3.61.34-6.9-1.17-10.09-2.68-.51-.24-.99-.51-1.46-.79.04.59.08,1.17.11,1.74.74.45,1.5.88,2.2,1.4.25.19.53.38.81.58.88.33,1.55,1.38,2.44,1.67,2.43.8,4.5,1.87,7.04,1.58,2.11-.24,1.99.62,1.42,1.32-.91,1.13-5.32,7.49-6.54,7.96-1.2.46-5.22.16-6.48-1.02.22,3.38.36,5.54.39,5.94.17,2.65,1.79,3.09,3.41.95,1.27-1.67,29.76-42.43,42.06-60.05-.69.18-7.01.98-15.85-.14Z"/>
        <path class="st3" d="M537.46,234.81c-1.71-.02-10.19.49-12.72.32-5.21-.34-9.49-1.17-14.6-2.29-4.58-1.01-10.63-3.68-14.85-5.66-3.13-1.46-6.48-2.17-8.6-5.05-.13-.79-.97-.67-1.36.17-.07.15-.21.45-.18.64.93,4.54,17.69,10.61,22.26,11.84,5.17,1.39,13.14,2.33,18.46,2.69,2.58.17,9.46-.95,11.6-.93,1.12.01,1.13-1.73,0-1.74Z"/>
        <path class="st36" d="M514.99,205.02s-14.89,4.85-22.05,5.47c-.83.07-.95.12-1.02.26,0,0,2.51,1.73,6.95,2.98,0,0,7.57-.9,16.12-8.71Z"/>
        <path class="st36" d="M514.99,205.02s-2.09,7.38,1.24,14.83l4.51.74s-5.02-7.61-5.76-15.58Z"/>
        <path class="st36" d="M531.69,221.88s-11.48-5.02-16.71-16.86c0,0,16.2,13.84,23.38,17.12,0,0-3.05.08-6.67-.26Z"/>
        <path class="st36" d="M540.67,213.9s-16.84-3.71-25.68-8.88c0,0,18.43,11.83,29.39,11.82l-3.71-2.94Z"/>
        <path class="st36" d="M490.2,201.39s-5.21,1.74-2.99,4.58c0,0,13.61,2.67,27.78-.95,0,0-16.03,1.16-24.79-3.63Z"/>
        <path class="st2" d="M491.91,210.75s-2.97,7.09-2.3,9.98c.78,3.35,6.25,5.09,7.13,1.94.88-3.15.46-7.7,2.12-8.94-4.56-1.27-5.8-2.65-6.95-2.98Z"/>
        <path class="st2" d="M516.23,219.85c-.9,3.22-4.14,8.57-1.95,11.57,1.83,2.5,4.52,1.39,6.07-1.66,1.55-3.05.4-6.71.39-9.17l-4.51-.74Z"/>
        <path class="st2" d="M531.69,221.88c.5.53-4.86,8.42-1.65,10.02,3.21,1.6,5.12-.14,6.22-2.27,1.11-2.13,2.26-7.36,2.09-7.48-.16-.13-5.27-.08-6.67-.26Z"/>
        <path class="st36" d="M498.81,199.95s6.59.1,8.36.85c0,0,3.03,4.12,7.82,4.22,0,0-12.31-.6-16.18-5.07Z"/>
        <path class="st36" d="M515.68,202.56s2.21.16,5.46,1.48c0,0-1.06,3.54-6.15.98,0,0,2.01-.12.69-2.46Z"/>
        <path class="st36" d="M527.35,206.5s-3.3,2.25-12.37-1.48c0,0,8.68,4.4,16.72,3.56,0,0-1.17-1.18-4.35-2.07Z"/>
        <path class="st22" d="M514.46,205.49s-3.6,3.82-6.8,5.63c-3.21,1.8-5.18,1.86-4.09,2.17,1.09.31,3.55-.38,6.11-2.51,2.56-2.13,4.79-5.28,4.79-5.28Z"/>
        <path class="st22" d="M515.31,205.73s3.5,7.13,6.79,10c3.29,2.88,5.88,3.91,5.14,3.92-.75,0-4.4-1.27-6.99-4.62-2.18-2.81-4.94-9.3-4.94-9.3Z"/>
        <path class="st22" d="M542.7,217.18c.76-.43-1.5-.09-4.57-.95-3.07-.86-12.8-4.23-19.09-8.79,0,0,9.66,7.15,18.82,9.44,0,0,4.14.69,4.84.3Z"/>
        <path class="st3" d="M520.13,258.58c-2.11,1.25-4.6,1.16-6.96.93-2.77-.27-5.56-.74-8.31-1.16-3.26-.5-6.42-1.34-9.46-2.65-2.05-.88-5.16-1.59-6.39-3.62-.56-.93-2.02-.11-1.46.82,1.24,2.05,3.75,2.92,5.86,3.78,3.62,1.47,7.12,2.65,11,3.28,2.9.48,5.84.9,8.75,1.22,2.64.3,5.45.24,7.79-1.15.93-.55.11-2.02-.82-1.46Z"/>
        <path class="st3" d="M506.78,277.57c-1.94,1.86-5.68,1.08-8.02.57-3.08-.68-6.37-1.78-8.48-4.22-.71-.82-1.91.35-1.21,1.17,2.48,2.86,6.39,4.09,10,4.83,2.8.57,6.62,1.03,8.87-1.14.78-.75-.39-1.96-1.17-1.21Z"/>
        <path class="st3" d="M497.68,290.13c-1.19,1.3-5.73.43-5.99-1.44-.15-1.07-1.78-.64-1.62.43.45,3.16,6.79,4.4,8.79,2.23.73-.8-.44-2-1.17-1.21Z"/>
        <path class="st22" d="M498.61,207.05c-3.48-.04-6.84-.05-5.8.49,1.04.55,7.15.4,10.75-.05,3.6-.45,6.56-1.37,6.56-1.37,0,0-5.18,1-11.51.93Z"/>
        <path class="st23" d="M513.09,205.78c-4.11,1.96-14.62,4.29-16.83,4.69-2.2.4-3.12.76-1.85,1.11,1.27.35,1.64.31,4.67-.67,3.03-.98,12.19-3.5,14.01-5.13Z"/>
        <path class="st23" d="M488.89,202.46c-1.37.94-1.64,1.44-1.09,1.34,1.1-.19,2,.06,3.09.08,1.1.02,13.56,2.84,21,1.39,0,0-13.27.66-20.46-2.48-.8-.35-1.69-.91-2.54-.33Z"/>
        <path class="st23" d="M514.6,208.29s-.83,5.99,2.41,10.51c0,0,1.68,1.05,1.83.51.15-.54-3.04-1.28-4.24-11.02Z"/>
        <path class="st23" d="M517.07,208.06s6.15,8.01,13.1,12.47c0,0,1.3.96,2.78.98,1.48.02,4.59.4,2.73-.12-1.86-.52-11.76-3.98-18.61-13.33Z"/>
      </g>
      <g id="_x28__x2F_techno_x2F_math_x2F_shapes_x2F_level3_x2F_cone_x2F_traffic_cone.mp3_x29_1" data-name="_x28__x2F_techno_x2F_math_x2F_shapes_x2F_level3_x2F_cone_x2F_traffic_cone.mp3_x29_">
        <g>
          <ellipse class="st12" cx="100.61" cy="291.82" rx="43.12" ry="3.01"/>
          <g>
            <path class="st40" d="M57.49,295.33v-2.98c0,1.23,18.81,2.23,42.36,2.26,23.81.02,43.44-.97,43.86-2.22,0-.01,0-.03,0-.04v2.98s0,.03,0,.04c-.42,1.25-20.05,2.24-43.86,2.22-23.55-.02-42.36-1.03-42.36-2.26Z"/>
            <path class="st12" d="M57.49,292.54v-.23h86.22s.03.21,0,.31c-.42,1.25-20.05,2.24-43.86,2.22-23.81-.02-42.77-1.05-42.35-2.3Z"/>
          </g>
          <g>
            <path class="st39" d="M124.35,273.32s0,.03,0,.04c-.23.68-10.83,1.22-23.74,1.21-12.91,0-23.52-.54-23.74-1.21,0-.01,0-.03,0-.04l-5.04,18.66s0,.03,0,.05c.27.82,13.13,1.48,28.79,1.47,15.66,0,28.51-.65,28.79-1.47,0-.02,0-.03,0-.05l-5.04-18.66Z"/>
            <path class="st41" d="M119.31,254.65s0,.02,0,.03c-.18.53-8.54.96-18.7.95-10.17,0-18.52-.42-18.7-.95,0,0,0-.02,0-.03-1.68,6.22-3.36,12.44-5.04,18.67,0,.01,0,.03,0,.04.23.68,10.83,1.22,23.74,1.21,12.91,0,23.52-.54,23.74-1.21,0-.01,0-.03,0-.04-1.68-6.22-3.36-12.44-5.04-18.67Z"/>
            <path class="st39" d="M114.27,235.99s0,.01,0,.02c-.13.39-6.24.7-13.66.69-7.42,0-13.53-.31-13.66-.69,0,0,0-.02,0-.02-1.68,6.22-3.36,12.44-5.04,18.66,0,0,0,.02,0,.03.18.53,8.53.96,18.7.95,10.17,0,18.52-.42,18.7-.95,0,0,0-.02,0-.03-1.68-6.22-3.36-12.44-5.04-18.66Z"/>
            <path class="st41" d="M109.22,217.32s0,0,0,.01c-.08.24-3.94.44-8.62.44-4.68,0-8.54-.19-8.62-.44,0,0,0,0,0-.01-1.68,6.22-3.36,12.44-5.04,18.67,0,0,0,.01,0,.02.13.39,6.24.7,13.66.69,7.42,0,13.53-.31,13.66-.69,0,0,0-.02,0-.02-1.68-6.22-3.36-12.44-5.04-18.67Z"/>
            <path class="st39" d="M105.25,202.6c-.12-.41-.44-1.49-1.55-2.25-.73-.5-2-.87-3.09-.87s-2.36.36-3.09.87c-1.11.76-1.43,1.84-1.55,2.25-1.33,4.91-2.65,9.82-3.98,14.73,0,0,0,0,0,.01.08.24,3.94.44,8.62.44,4.68,0,8.54-.19,8.62-.44,0,0,0,0,0-.01-1.33-4.91-2.65-9.82-3.98-14.73Z"/>
          </g>
          <path class="st19" d="M105.25,202.6c-.12-.41-.44-1.49-1.55-2.25-.73-.5-2-.87-3.09-.87s-2.36.36-3.09.87c-1.11.76-1.43,1.84-1.55,2.25-1.33,4.91-24.15,89.38-24.15,89.38,0,.02,0,.03,0,.05.27.82,13.13,1.48,28.79,1.47,15.66,0,28.51-.65,28.79-1.47,0-.02,0-.03,0-.05,0,0-22.82-84.47-24.15-89.38Z"/>
        </g>
        <path class="st20" d="M143.71,292.31h-.56c.37-.16.57-.32.57-.49,0-.91-5.82-1.73-14.99-2.28-1.58-5.84-5.78-21.38-10.2-37.76-1.42-5.26-2.84-10.53-4.27-15.79-1.12-4.13-2.23-8.27-3.35-12.4-2.34-8.65-4.23-15.64-5.14-19.02-.15-.54-.29-1.08-.44-1.62-.04-.14-.07-.26-.1-.35-.12-.41-.44-1.49-1.55-2.25-.73-.5-2-.87-3.09-.87s-2.36.36-3.09.87c-1.11.76-1.43,1.84-1.55,2.25-.4,1.47-2.73,10.09-5.79,21.44-1.08,3.98-2.15,7.97-3.23,11.95-1.27,4.7-2.54,9.4-3.81,14.1-4.59,16.99-9.02,33.4-10.66,39.44-9.17.55-14.99,1.37-14.99,2.28,0,.17.2.33.57.49h-.56v.05s0,0,0-.01v2.98c0,1.23,18.81,2.23,42.36,2.26,23.81.02,43.44-.97,43.86-2.22,0-.01,0-.03,0-.04v-2.76c.02-.11,0-.27,0-.27Z"/>
      </g>
      <text id="_x28__x2F_techno_x2F_math_x2F_shapes_x2F_level3_x2F_cone_x2F_birthday_cap.mp3_x29_" class="st37" transform="translate(63.33 170.62)"><tspan x="0" y="0">Birthd</tspan><tspan class="st21" x="37.14" y="0">a</tspan><tspan x="43.33" y="0">y cap</tspan></text>
      <g id="_x28__x2F_techno_x2F_math_x2F_shapes_x2F_level3_x2F_cone_x2F_birthday_cap.mp3_x29_1" data-name="_x28__x2F_techno_x2F_math_x2F_shapes_x2F_level3_x2F_cone_x2F_birthday_cap.mp3_x29_">
        <path class="st30" d="M116.26,89.77l-.18.17c-.68.63-1.8.01-1.63-.89.05-.3.4-.69.67-.77.12-.03.22-.07.22-.07.02,0,.09.12.18.24.09.15.29.49.45.79l.28.53Z"/>
        <path class="st18" d="M131.3,117.17s-.18.2-.4.42c-.26.27-.5.61-.75,1.1-.2.39-.43.78-.5.86-.12.16-.35.23-1.18.36h0c-.18.03-.4.05-.64.09-1.67.21-2.41.52-3.48,1.48-1.06.94-1.53,1.21-2.94,1.67-.52.16-1.19.41-1.5.54-.79.36-1,.38-2.61.39-2.75,0-3.77.24-5.19,1.19-.4.27-.45.29-.51.19-.44-.74-1.28-1.08-2.09-.83-.11.03-.23.1-.35.18-.29.2-.59.52-.69.77-.15.39-.14,1,.03,1.38l.13.31h-.52c-.3,0-1.12-.07-1.85-.14-1.57-.16-2-.17-2.88-.03-.84.13-1.56.37-2.94.98-2.78,1.25-3.49,1.36-5.95.89-2.13-.41-3.32-.36-5.85.24-1.5.35-1.86.42-2.77.51-1.23.13-2.01-.05-4.15-.94-1.66-.69-2.78-.91-5.31-1.03-.86-.04-1.66-.09-1.79-.11-.49-.07-.93-.17-1.43-.34-.69-.23-4.18-2.03-4.18-2.14,0-.05,1.11-4.98,2.46-10.95,1.36-5.96,3.41-15.06,4.57-20.21,1.17-5.15,2.13-9.4,2.14-9.45.03-.07.09-.05.24.08.32.27.64.38,1.1.38.69,0,1.23-.32,1.53-.9.46-.9.05-2-.9-2.4-.26-.11-.89-.13-1.15-.03-.09.03-.18.05-.18.02s.21-.98.48-2.12c.38-1.68,3.34-14.82,5.37-23.79,1.45-6.43,1.79-7.89,1.81-7.92.01-.01.13.04.28.1.09.05.2.09.32.11.32.07.69.07.98-.01.42-.11.97-.65,1.09-1.06.12-.38.11-.93-.02-1.23-.15-.34-.55-.75-.88-.9-.15-.07-.38-.12-.59-.13h-.07c-.22,0-.4-.02-.4-.05,0-.03.22-1.03.49-2.23l.5-2.18.3-.04c.05,0,.11-.01.16-.02.12-.01.22-.03.26-.03.07-.01.2.16.4.51.36.67,1.26,2.3,1.73,3.15.2.35.8,1.46,1.35,2.45.54,1,1.5,2.74,2.12,3.88.63,1.14,1.56,2.84,2.07,3.78.51.93,1.21,2.19,1.54,2.78.56,1.03,1.79,3.27,3.6,6.57.44.8,1.21,2.2,1.7,3.09.49.9,1.35,2.46,1.91,3.47.55,1.01,1.41,2.57,1.91,3.47.49.9,1.35,2.46,1.91,3.47.55,1.01,1.15,2.1,1.33,2.41.17.32.77,1.41,1.33,2.42,1.28,2.33,2.78,5.07,3.03,5.52l.2.36-.25.1c-.4.17-.65.4-.87.79-.51.92-.04,2.12.96,2.45.42.14,1.05.06,1.44-.19l.34-.21.55,1c.3.55.79,1.45,1.1,2.01,1.1,2.01,1.29,2.34,2.24,4.08.54.98,1.15,2.08,1.35,2.45.2.37.63,1.13.94,1.7.3.55.83,1.5,1.15,2.1.51.93,1.31,2.38,3.62,6.58.2.36.53.98.75,1.36.21.39.65,1.19.98,1.79.33.6.9,1.66,1.29,2.34.38.69.69,1.26.69,1.27Z"/>
        <path class="st30" d="M93.12,34.61c0,.35-.26.61-1.08,1.02-1.08.56-1.43.9-2.2,2.14-.31.49-.48.73-.79.86-.23.09-.52.12-1,.14-.62.03-.86.08-1.39.27-.8.29-1.27.3-1.77.06-.4-.2-.68-.55-1.27-1.55-.21-.36-.53-.84-.71-1.06-1.02-1.26-1.27-1.6-1.52-2.09-.36-.74-.42-1.17-.18-1.7.1-.21.41-.68.69-1.04.81-1.06,2.36-2.82,2.67-3.03.32-.23.67-.35,1.16-.36.32-.01.71.02,1.17.1.2.04.92.09,1.6.11,1.39.05,1.74.14,2.49.59.76.44.92.74,1.08,1.99.08.65.26,1.25.72,2.51.16.44.3.91.3,1.04Z"/>
        <path class="st30" d="M140.95,119.68c-.03.53-.23,1.03-.73,1.8-.43.66-.82,1.49-.93,2.01-.07.31-.13,1.06-.16,2.17-.04,1.56-.06,1.73-.2,2.05-.32.71-.85,1.09-2.53,1.77-2.59,1.06-3.41,1.52-4.99,2.8-2.43,1.97-2.63,2.05-4.9,2.06-1.96,0-2.5.2-4.59,1.65-2.02,1.41-2.68,1.53-4.89.98-.16-.04-.3-.07-.44-.11-1.3-.32-1.77-.37-2.38-.28-1.02.15-1.77.48-3.47,1.5-2.39,1.44-3.03,1.6-5.07,1.29-1.77-.28-2.74-.25-3.77.07-.24.08-1.16.49-2.04.91-2.05.99-2.49,1.14-3.38,1.18-.89.03-1.26-.08-2.76-.8-2.28-1.12-3.33-1.28-5.7-.84-1.93.36-2.37.34-3.45-.16-1.35-.61-1.73-.61-3.55.03-1.34.48-2.06.64-2.82.64-1.04,0-1.54-.16-2.92-.98-1.94-1.15-3.36-1.69-4.9-1.84-.24-.02-.98-.07-1.63-.09-.9-.05-1.29-.1-1.58-.2-.77-.27-1.42-.85-2.95-2.6-1.15-1.33-1.2-1.37-2.21-2.19-.81-.66-1.35-1.21-1.54-1.6-.1-.19-.13-.4-.13-.9,0-.63,0-.67.31-1.29.18-.35.58-1.11.9-1.69.32-.56.79-1.53,1.04-2.12.35-.82.53-1.18.76-1.43.35-.4,1.04-.76,2.14-1.15,1.08-.38,1.33-.49,2.07-.93.61-.36.78-.43.78-.32,0,.03-.19.88-.42,1.9l-.42,1.84-.42.03c-.5.05-.8.18-.91.43-.13.28-.1.49.11.73.18.21.2.21.84.22h.65s1.4.71,1.4.71c.76.38,1.74.88,2.17,1.1.93.49,2.01.86,2.92.99.36.05,1.3.13,2.08.16,2.51.13,3.31.3,5.1,1.06,2.02.85,2.78,1.03,4.18.97.97-.05,1.58-.15,3.25-.53,1.84-.42,2.38-.49,3.47-.46.71.03,1.22.1,2.01.26.95.2,1.16.23,2.21.23,1.03,0,1.23-.03,1.82-.18.36-.1,1.06-.35,1.55-.55.48-.21,1.27-.55,1.75-.75.47-.2,1.05-.42,1.27-.49.61-.16,2.05-.2,3.21-.07,1.11.13,2.47.15,3.05.03.36-.06.69-.16,1.03-.32.53-.24,1.1-.62,1.89-1.23,1.07-.83,1.88-1.26,2.66-1.39.34-.07,1.25-.12,2.41-.15,2.1-.04,2.32-.07,3.36-.53.38-.16,1.01-.39,1.41-.51,1.33-.4,2.18-.88,3.13-1.74.66-.6,1.21-.95,1.69-1.09.21-.06.84-.17,1.41-.24,2.15-.27,2.49-.49,3.29-2.07.45-.9.76-1.1,1.79-1.16.35-.03.74-.09.86-.15.44-.2.55-.83.19-1.16-.21-.2-.55-.27-1.08-.23l-.44.04-.2-.37c-.11-.2-.42-.75-.67-1.21l-.46-.84.29-.26c.41-.36.9-.59,1.62-.75.73-.15,1.23-.16,1.71-.05.59.16,1.08.51,1.95,1.4.46.47,1.34,1.38,1.97,2.03,1.74,1.77,1.98,2.15,1.94,2.99Z"/>
        <path class="st30" d="M79.95,84.19c-1.02.5-1.88-.84-1.03-1.6.08-.08.2-.16.26-.18.23-.08.65-.04.86.09.67.4.63,1.36-.09,1.7Z"/>
        <path class="st30" d="M88.02,47.27c-.22.12-.55.12-.8.03-.22-.07-.41-.19-.46-.35-.06-.18.16-1.21.29-1.37.09-.11.28-.16.49-.16.2,0,.4.06.54.16.63.44.59,1.34-.06,1.68Z"/>
        <path class="st30" d="M110.88,126.19c-.46.36-1.12.75-1.3.76-.43.01-.64-.65-.37-1.17.25-.49.94-.65,1.41-.33.14.1.29.27.34.39.08.2.08.22-.07.35Z"/>
        <path class="st17" d="M83.85,124.07c-.05-.16-.14-.31-.27-.42-.09-.07-.18-.14-.27-.21-.21-.12-.43-.18-.67-.18-.12.02-.23.03-.35.05-.22.06-.42.18-.58.34-.04.04-.07.07-.11.11-.13.12-.22.26-.27.42-.08.16-.12.33-.11.51,0,.18.03.35.11.51.05.16.14.31.27.42.09.07.18.14.27.21.21.12.43.18.67.18.12-.02.23-.03.35-.05.22-.06.42-.18.58-.34l.11-.11c.13-.12.22-.26.27-.42.08-.16.12-.33.11-.51,0-.18-.03-.35-.11-.51Z"/>
        <path class="st17" d="M79.21,109.74c-.05-.16-.14-.31-.27-.42-.09-.07-.18-.14-.27-.21-.21-.12-.43-.18-.67-.18-.12.02-.23.03-.35.05-.22.06-.42.18-.58.34-.04.04-.07.07-.11.11-.13.12-.22.26-.27.42-.08.16-.12.33-.11.51,0,.18.03.35.11.51.05.16.14.31.27.42.09.07.18.14.27.21.21.12.43.18.67.18.12-.02.23-.03.35-.05.22-.06.42-.18.58-.34.04-.04.07-.07.11-.11.13-.12.22-.26.27-.42.08-.16.12-.33.11-.51,0-.18-.03-.35-.11-.51Z"/>
        <path class="st17" d="M91.33,95.09c-.05-.16-.14-.31-.27-.42-.09-.07-.18-.14-.27-.21-.21-.12-.43-.18-.67-.18-.12.02-.23.03-.35.05-.22.06-.42.18-.58.34-.04.04-.07.07-.11.11-.13.12-.22.26-.27.42-.08.16-.12.33-.11.51,0,.18.03.35.11.51.05.16.14.31.27.42.09.07.18.14.27.21.21.12.43.18.67.18.12-.02.23-.03.35-.05.22-.06.42-.18.58-.34l.11-.11c.13-.12.22-.26.27-.42.08-.16.12-.33.11-.51,0-.18-.03-.35-.11-.51Z"/>
        <path class="st17" d="M95.92,115.67c-1.7,0-1.7,2.64,0,2.64s1.7-2.64,0-2.64Z"/>
        <path class="st17" d="M108.98,101.34c-1.7,0-1.7,2.64,0,2.64s1.7-2.64,0-2.64Z"/>
        <path class="st17" d="M122.05,115.14c-1.7,0-1.7,2.64,0,2.64s1.7-2.64,0-2.64Z"/>
        <path class="st17" d="M105.08,79.74c-1.7,0-1.7,2.64,0,2.64s1.7-2.64,0-2.64Z"/>
        <path class="st17" d="M89.33,71.68v.07c0,1.7,2.64,1.7,2.64,0v-.07c0-1.7-2.64-1.7-2.64,0Z"/>
        <path class="st17" d="M95.78,56.9c-.04-.07-.07-.14-.11-.21-.08-.15-.2-.28-.34-.37-.13-.12-.28-.2-.45-.24-.18-.05-.35-.06-.53-.02-.18,0-.34.06-.49.16-.09.07-.18.14-.27.21-.16.16-.28.36-.34.58-.02.12-.03.23-.05.35,0,.24.06.46.18.67.04.07.07.14.11.21.08.15.2.28.34.37.13.12.28.2.45.24.18.05.35.06.53.02.18,0,.34-.06.49-.16.09-.07.18-.14.27-.21.16-.16.28-.36.34-.58.02-.12.03-.23.05-.35,0-.24-.06-.46-.18-.67Z"/>
        <path class="st17" d="M100.24,91.86c-1.7,0-1.7,2.64,0,2.64s1.7-2.64,0-2.64Z"/>
        <path class="st17" d="M120.51,100.57c-.05-.16-.14-.31-.27-.42-.12-.13-.26-.22-.42-.27-.16-.08-.33-.12-.51-.11-.12.02-.23.03-.35.05-.22.06-.42.18-.58.34-.07.09-.14.18-.21.27-.12.21-.18.43-.18.67v.11c0,.18.03.35.11.51.05.16.14.31.27.42.12.13.26.22.42.27.16.08.33.12.51.11.12-.02.23-.03.35-.05.22-.06.42-.18.58-.34.07-.09.14-.18.21-.27.12-.21.18-.43.18-.67v-.11c0-.18-.03-.35-.11-.51Z"/>
        <path class="st17" d="M89.81,105.03c-1.7,0-1.7,2.64,0,2.64s1.7-2.64,0-2.64Z"/>
        <path class="st17" d="M107.61,114.93c-1.7,0-1.7,2.64,0,2.64s1.7-2.64,0-2.64Z"/>
        <path class="st17" d="M77.53,96.27v.07c0,1.7,2.64,1.7,2.64,0v-.07c0-1.7-2.64-1.7-2.64,0Z"/>
        <path class="st17" d="M87.17,61.3c-1.7,0-1.7,2.64,0,2.64s1.7-2.64,0-2.64Z"/>
        <path class="st17" d="M102.34,70.47c-1.7,0-1.7,2.64,0,2.64s1.7-2.64,0-2.64Z"/>
        <path class="st25" d="M78.92,82.58c.08-.08.2-.16.26-.18.23-.08.65-.04.86.09.67.4.63,1.36-.09,1.7-1.02.5-1.88-.84-1.03-1.6Z"/>
        <path class="st25" d="M87.05,45.59c.09-.11.28-.16.49-.16-.12.62-.22,1.25-.32,1.87-.22-.07-.41-.19-.46-.35-.06-.18.16-1.21.29-1.37Z"/>
        <path class="st25" d="M87.6,44.72c-.22,0-.4-.02-.4-.05,0-.03.22-1.03.49-2.23l.5-2.18.3-.04c.05,0,.11-.01.16-.02-.36,1.5-.69,3-.98,4.52h-.07Z"/>
        <path class="st25" d="M81.41,34.41c-.36-.74-.42-1.17-.18-1.7.1-.21.41-.68.69-1.04.81-1.06,2.36-2.82,2.67-3.03.32-.23.67-.35,1.16-.36-1.08,1.37-1.6,3.17-1.35,4.9.36,2.46,2.29,4.62,4.7,5.24-.02.07-.04.14-.05.21-.23.09-.52.12-1,.14-.62.03-.86.08-1.39.27-.8.29-1.27.3-1.77.06-.4-.2-.68-.55-1.27-1.55-.21-.36-.53-.84-.71-1.06-1.02-1.26-1.27-1.6-1.52-2.09Z"/>
        <path class="st25" d="M69.01,125.15c0-.05,1.11-4.98,2.46-10.95,1.36-5.96,3.41-15.06,4.57-20.21,1.17-5.15,2.13-9.4,2.14-9.45.03-.07.09-.05.24.08.32.27.64.38,1.1.38.69,0,1.23-.32,1.53-.9.46-.9.05-2-.9-2.4-.26-.11-.89-.13-1.15-.03-.09.03-.18.05-.18.02s.21-.98.48-2.12c.38-1.68,3.34-14.82,5.37-23.79,1.45-6.43,1.79-7.89,1.81-7.92.01-.01.13.04.28.1.09.05.2.09.32.11-2.4,15.26-1.29,31.37,2.35,46.41.2.85.42,1.7.64,2.55.33,1.27.68,2.52,1.05,3.77,1.65,5.59,3.77,11.13,7.28,15.77,2.76,3.65,6.49,6.7,10.75,8.25-.29.2-.59.52-.69.77-.15.39-.14,1,.03,1.38l.13.31h-.52c-.3,0-1.12-.07-1.85-.14-1.57-.16-2-.17-2.88-.03-.84.13-1.56.37-2.94.98-2.78,1.25-3.49,1.36-5.95.89-2.13-.41-3.32-.36-5.85.24-1.5.35-1.86.42-2.77.51-1.23.13-2.01-.05-4.15-.94-1.66-.69-2.78-.91-5.31-1.03-.86-.04-1.66-.09-1.79-.11-.49-.07-.93-.17-1.43-.34-.69-.23-4.18-2.03-4.18-2.14Z"/>
        <path class="st25" d="M109.21,125.78c.25-.49.94-.65,1.41-.33.14.1.29.27.34.39.08.2.08.22-.07.35-.46.36-1.12.75-1.3.76-.43.01-.64-.65-.37-1.17Z"/>
        <path class="st25" d="M116.92,136.44c-.11.14-.2.28-.32.42-1.3-.32-1.77-.37-2.38-.28-1.02.15-1.77.48-3.47,1.5-2.39,1.44-3.03,1.6-5.07,1.29-1.77-.28-2.74-.25-3.77.07-.24.08-1.16.49-2.04.91-2.05.99-2.49,1.14-3.38,1.18-.89.03-1.26-.08-2.76-.8-2.28-1.12-3.33-1.28-5.7-.84-1.93.36-2.37.34-3.45-.16-1.35-.61-1.73-.61-3.55.03-1.34.48-2.06.64-2.82.64-1.04,0-1.54-.16-2.92-.98-1.94-1.15-3.36-1.69-4.9-1.84-.24-.02-.98-.07-1.63-.09-.9-.05-1.29-.1-1.58-.2-.77-.27-1.42-.85-2.95-2.6-1.15-1.33-1.2-1.37-2.21-2.19-.81-.66-1.35-1.21-1.54-1.6-.1-.19-.13-.4-.13-.9,0-.63,0-.67.31-1.29.18-.35.58-1.11.9-1.69.32-.56.79-1.53,1.04-2.12.35-.82.53-1.18.76-1.43.35-.4,1.04-.76,2.14-1.15,1.08-.38,1.33-.49,2.07-.93.61-.36.78-.43.78-.32,0,.03-.19.88-.42,1.9l-.42,1.84-.42.03c-.5.05-.8.18-.91.43-.13.28-.1.49.11.73.18.21.2.21.84.22h.65s1.4.71,1.4.71c.76.38,1.74.88,2.17,1.1.93.49,2.01.86,2.92.99.36.05,1.3.13,2.08.16,2.51.13,3.31.3,5.1,1.06,2.02.85,2.78,1.03,4.18.97.97-.05,1.58-.15,3.25-.53,1.84-.42,2.38-.49,3.47-.46.71.03,1.22.1,2.01.26.95.2,1.16.23,2.21.23,1.03,0,1.23-.03,1.82-.18.36-.1,1.06-.35,1.55-.55.48-.21,1.27-.55,1.75-.75.47-.2,1.05-.42,1.27-.49.61-.16,2.05-.2,3.21-.07,1.11.13,2.47.15,3.05.03.36-.06.69-.16,1.03-.32-.16.22-.32.47-.47.73-.84,1.39-1.19,3.19-.47,4.65.62,1.29,1.95,2.12,3.34,2.47,1.39.35,2.84.29,4.27.23Z"/>
        <path class="st8" d="M115.13,88.28c.12-.03.22-.07.22-.07.02,0,.09.12.18.24.09.15.29.49.45.79l.28.53-.18.17c-.68.63-1.8.01-1.63-.89.05-.3.4-.69.67-.77Z"/>
        <path class="st8" d="M131.3,117.17s-.18.2-.4.42c-.26.27-.5.61-.75,1.1-.2.39-.43.78-.5.86-.12.16-.35.23-1.18.36h0c-.77-.26-1.49-.84-2.02-1.79-7.01-12.59-13.48-25.35-19.73-38.32-1.15-2.39-2.24-4.79-3.33-7.2-.31-.7-.62-1.41-.93-2.1-1.53-3.48-3.05-6.96-4.64-10.42-2.86-6.19-6.11-12.34-8.49-18.74-.09-.25-.09-.46,0-.64.36.67,1.26,2.3,1.73,3.15.2.35.8,1.46,1.35,2.45.54,1,1.5,2.74,2.12,3.88.63,1.14,1.56,2.84,2.07,3.78.51.93,1.21,2.19,1.54,2.78.56,1.03,1.79,3.27,3.6,6.57.44.8,1.21,2.2,1.7,3.09.49.9,1.35,2.46,1.91,3.47.55,1.01,1.41,2.57,1.91,3.47.49.9,1.35,2.46,1.91,3.47.55,1.01,1.15,2.1,1.33,2.41.17.32.77,1.41,1.33,2.42,1.28,2.33,2.78,5.07,3.03,5.52l.2.36-.25.1c-.4.17-.65.4-.87.79-.51.92-.04,2.12.96,2.45.42.14,1.05.06,1.44-.19l.34-.21.55,1c.3.55.79,1.45,1.1,2.01,1.1,2.01,1.29,2.34,2.24,4.08.54.98,1.15,2.08,1.35,2.45.2.37.63,1.13.94,1.7.3.55.83,1.5,1.15,2.1.51.93,1.31,2.38,3.62,6.58.2.36.53.98.75,1.36.21.39.65,1.19.98,1.79.33.6.9,1.66,1.29,2.34.38.69.69,1.26.69,1.27Z"/>
        <path class="st16" d="M84.84,26.86c-.88.24-1.35.61-2.52,1.97-2.27,2.65-2.74,3.41-2.74,4.49,0,.94.48,2.02,1.41,3.15.78.95,1.2,1.54,1.59,2.2.42.72,1.03,1.42,1.48,1.68.59.35,1.5.5,2.18.37.16-.03.29-.03.29,0,0,.03-.92,4.12-2.05,9.09-1.12,4.97-3.06,13.51-4.29,18.97-1.24,5.46-2.55,11.27-2.92,12.9-.61,2.67-2.28,10.07-6.97,30.83l-1.58,6.98h-.34c-.52.03-.71.09-1.18.37-.75.44-1.42.76-2.14,1-1.4.48-2.42,1.06-2.91,1.67-.33.42-.52.78-.99,1.89-.23.54-.61,1.34-.86,1.77-.69,1.21-1.23,2.31-1.37,2.76-.08.27-.12.63-.12,1.05,0,1.4.5,2.26,2.1,3.56.99.81,1.26,1.07,2.17,2.12,2.44,2.83,3.4,3.36,6.1,3.37,1.89,0,3.25.44,5.33,1.68,1.61.97,2.35,1.2,3.69,1.2,1.06,0,1.61-.12,3.32-.71.74-.26,1.26-.4,1.46-.4.22,0,.5.09,1.03.34,1.33.62,2.08.67,3.99.29.78-.15,1.14-.18,1.97-.19,1.25,0,1.43.05,3.23.92,1.61.78,2.1.92,3.13.91,1.22,0,1.76-.18,4.08-1.29.88-.43,1.76-.82,1.94-.89.56-.2,1.78-.2,2.99-.02,1.33.2,2.39.2,3.13,0,.69-.18,1.69-.66,3.02-1.46,2.55-1.53,2.89-1.59,5.31-.94,2.55.68,3.74.39,6.43-1.53.65-.47,1.32-.84,1.77-.97.15-.04,1.01-.1,1.94-.14,1.8-.06,2.05-.1,2.82-.49.59-.31,1.03-.61,2.21-1.58,1.8-1.48,2.65-1.97,4.73-2.8,1.43-.56,2.25-1.02,2.8-1.57.89-.88,1.1-1.6,1.11-3.75,0-1.9.06-2.12.93-3.57.64-1.07.86-1.74.86-2.55,0-1.27-.34-1.76-2.98-4.46-1.1-1.13-2.18-2.19-2.4-2.36-.82-.64-1.59-.91-2.6-.91-1.25,0-2.48.37-3.3.99-.35.27-.33.29-.59-.2-.07-.15-.37-.7-.67-1.22-.29-.52-1.31-2.4-2.28-4.15-.97-1.76-1.91-3.49-2.11-3.84-.2-.35-.97-1.75-1.7-3.1-.74-1.35-1.6-2.91-1.91-3.47-.31-.56-3.22-5.86-6.46-11.77-3.25-5.91-6.15-11.21-6.46-11.77-.31-.56-1.25-2.28-2.1-3.81-2.3-4.19-11.87-21.64-14.32-26.08l-2.14-3.89.2-.22c.1-.12.38-.52.61-.91.52-.84.77-1.08,1.64-1.52.82-.42,1.25-.78,1.5-1.25.16-.31.18-.42.18-.96,0-.5-.04-.7-.19-1.09-.48-1.2-.78-2.2-.86-2.82-.12-.9-.29-1.42-.65-1.89-.63-.86-2.23-1.64-3.33-1.65-.21,0-.45-.05-.61-.14-.22-.12-.35-.14-.71-.1-.27.03-.71,0-1.14-.06-.85-.13-1.7-.14-2.18,0ZM86.93,28.39c.2.03.93.08,1.6.1,1.38.05,1.74.14,2.49.59.76.44.93.74,1.08,1.99.08.65.26,1.25.72,2.51.16.44.3.91.3,1.03,0,.35-.27.61-1.08,1.02-1.08.56-1.44.9-2.2,2.14-.54.86-.67.95-1.78,1-.62.03-.86.07-1.39.27-.8.29-1.27.31-1.76.06-.4-.2-.68-.54-1.27-1.55-.21-.36-.53-.84-.71-1.05-1.03-1.26-1.27-1.6-1.52-2.09-.37-.74-.42-1.17-.18-1.69.1-.21.41-.68.69-1.05.82-1.05,2.36-2.82,2.67-3.03.53-.38,1.16-.45,2.33-.25ZM89.32,40.68c.36.67,1.26,2.3,1.73,3.15.2.35.8,1.46,1.35,2.45.54.99,1.5,2.74,2.12,3.88.63,1.14,1.56,2.84,2.08,3.78.51.93,1.2,2.19,1.53,2.79.56,1.03,1.79,3.26,3.61,6.57.44.8,1.2,2.2,1.7,3.1.49.9,1.35,2.46,1.91,3.47.55,1.01,1.41,2.57,1.91,3.47.49.9,1.35,2.46,1.91,3.47.55,1.01,1.15,2.1,1.33,2.42.18.32.78,1.4,1.33,2.42,1.28,2.33,2.78,5.07,3.04,5.53l.2.36-.25.1c-.4.17-.65.4-.87.79-.5.93-.03,2.12.97,2.45.42.14,1.05.05,1.44-.19l.34-.21.54,1c.3.54.8,1.45,1.1,2.01,1.1,2,1.29,2.33,2.25,4.08.54.97,1.14,2.08,1.35,2.45.2.37.63,1.14.93,1.7.31.56.83,1.51,1.16,2.11.51.93,1.31,2.37,3.61,6.58.2.37.54.98.75,1.36.21.39.65,1.19.98,1.79.33.6.91,1.65,1.29,2.34.38.69.69,1.26.69,1.27,0,0-.18.2-.39.42-.27.27-.5.61-.76,1.1-.2.39-.43.78-.5.86-.15.19-.46.27-1.83.44-1.67.21-2.41.52-3.48,1.48-1.05.94-1.53,1.21-2.94,1.67-.52.16-1.2.42-1.5.54-.8.35-1,.38-2.61.39-2.75,0-3.78.24-5.19,1.2-.39.27-.45.29-.51.19-.44-.74-1.28-1.08-2.09-.83-.37.11-.9.6-1.04.95-.16.39-.14,1,.03,1.38l.14.31h-.52c-.29,0-1.12-.06-1.85-.14-1.57-.16-2-.17-2.88-.03-.84.13-1.57.37-2.94.99-2.78,1.25-3.49,1.35-5.95.88-2.13-.41-3.31-.36-5.85.24-1.5.35-1.86.42-2.77.51-1.22.13-2.01-.05-4.15-.95-1.65-.69-2.78-.91-5.31-1.03-.86-.04-1.66-.09-1.79-.11-.5-.07-.93-.18-1.43-.34-.69-.23-4.19-2.03-4.18-2.14,0-.05,1.12-4.98,2.46-10.95,1.35-5.97,3.41-15.07,4.57-20.21,1.16-5.14,2.13-9.4,2.14-9.45.03-.07.09-.05.25.08.31.27.64.38,1.1.38.69,0,1.23-.32,1.53-.91.46-.91.05-2-.9-2.4-.27-.11-.89-.13-1.15-.03-.1.03-.18.05-.18.02s.21-.98.48-2.12c.38-1.68,3.35-14.82,5.38-23.79,1.45-6.42,1.79-7.89,1.81-7.92.01-.01.14.03.28.1.35.17.9.21,1.3.1.42-.12.97-.65,1.09-1.05.12-.39.1-.93-.02-1.24-.14-.33-.54-.75-.88-.91-.16-.07-.43-.13-.66-.13-.22,0-.39-.02-.39-.05,0-.03.22-1.03.5-2.23l.5-2.18.3-.04c.17-.02.36-.05.42-.05.07-.01.2.16.4.51ZM88.08,45.6c.63.44.59,1.34-.06,1.67-.42.22-1.15.03-1.26-.31-.06-.18.16-1.22.29-1.37.18-.22.73-.21,1.03,0ZM80.04,82.49c.67.41.63,1.36-.09,1.7-1.02.5-1.89-.84-1.03-1.61.08-.08.2-.16.26-.18.23-.08.65-.04.86.09ZM115.53,88.46c.09.14.29.5.45.78l.29.53-.18.17c-.67.63-1.8.01-1.63-.89.05-.3.39-.69.67-.77.12-.03.22-.07.22-.07.01,0,.09.11.18.24ZM135.09,113.27c.59.16,1.08.51,1.95,1.4.46.47,1.34,1.37,1.97,2.02,1.74,1.78,1.98,2.15,1.94,2.99-.03.53-.23,1.03-.73,1.8-.43.66-.82,1.49-.93,2.01-.07.31-.12,1.05-.16,2.17-.04,1.56-.06,1.73-.2,2.04-.33.71-.85,1.09-2.53,1.77-2.59,1.05-3.41,1.52-4.99,2.8-2.43,1.97-2.62,2.06-4.89,2.06-1.96,0-2.5.2-4.59,1.65-2.01,1.4-2.67,1.53-4.89.97-1.64-.41-2.14-.48-2.82-.38-1.01.15-1.77.48-3.47,1.5-2.39,1.44-3.03,1.61-5.07,1.29-1.78-.27-2.75-.25-3.78.07-.24.08-1.16.49-2.04.91-2.05.99-2.48,1.14-3.38,1.18-.89.03-1.26-.07-2.76-.8-2.28-1.12-3.33-1.28-5.7-.84-1.93.35-2.37.33-3.45-.16-1.35-.61-1.73-.61-3.55.03-1.34.48-2.06.64-2.82.64-1.04,0-1.54-.17-2.92-.99-1.94-1.16-3.36-1.69-4.89-1.84-.25-.02-.98-.07-1.63-.1-.9-.05-1.29-.1-1.58-.2-.78-.27-1.43-.85-2.95-2.6-1.15-1.33-1.2-1.37-2.21-2.19-.81-.66-1.34-1.21-1.53-1.6-.1-.2-.13-.41-.13-.91,0-.63,0-.67.31-1.29.18-.35.58-1.12.9-1.69.31-.56.78-1.53,1.04-2.13.35-.82.53-1.18.76-1.42.35-.39,1.04-.76,2.14-1.15,1.08-.38,1.33-.49,2.07-.93.61-.36.78-.43.78-.33,0,.03-.19.88-.42,1.9l-.42,1.84-.42.03c-.5.04-.8.18-.91.43-.13.28-.1.49.11.72.18.21.2.21.84.22h.65s1.4.71,1.4.71c.76.38,1.74.88,2.17,1.1.93.49,2.01.86,2.92.99.36.05,1.3.13,2.08.17,2.52.13,3.31.29,5.1,1.05,2.01.85,2.78,1.03,4.17.97.97-.05,1.58-.14,3.25-.52,1.84-.42,2.38-.5,3.47-.46.71.03,1.22.1,2.01.26.95.2,1.16.22,2.21.22,1.03,0,1.23-.02,1.82-.18.37-.1,1.06-.35,1.55-.55.48-.21,1.27-.55,1.76-.75.48-.2,1.05-.42,1.27-.49.61-.16,2.06-.2,3.21-.07,1.12.12,2.47.14,3.06.03.91-.16,1.62-.54,2.92-1.56,1.07-.83,1.88-1.26,2.65-1.4.34-.06,1.26-.12,2.42-.14,2.1-.04,2.31-.07,3.36-.53.38-.16,1.01-.39,1.4-.52,1.33-.4,2.18-.88,3.13-1.74.66-.6,1.21-.95,1.69-1.09.21-.06.84-.17,1.4-.25,2.15-.27,2.49-.49,3.29-2.07.45-.9.76-1.1,1.8-1.16.35-.03.73-.09.86-.15.44-.2.54-.83.19-1.16-.21-.2-.55-.27-1.08-.23l-.44.04-.2-.37c-.12-.2-.42-.75-.67-1.21l-.46-.84.29-.26c.41-.36.91-.59,1.61-.74.73-.15,1.24-.16,1.71-.05h0ZM110.62,125.45c.14.1.29.27.33.39.08.2.08.22-.07.35-.45.36-1.12.75-1.3.76-.43.01-.64-.65-.37-1.17.25-.49.94-.65,1.41-.33Z"/>
        <path class="st16" d="M90.14,30.75c-.22.09-.22.36,0,1.16.12.43.26.82.31.88.16.16.49.12.58-.07.06-.13.03-.31-.14-.97-.25-.93-.4-1.13-.74-.99h0Z"/>
        <path class="st16" d="M88.96,31.29c-.1.2,0,.62.24,1.12.12.24.19.31.34.33.42.05.49-.25.21-.98-.22-.58-.27-.64-.51-.64-.15,0-.22.05-.28.18Z"/>
        <path class="st16" d="M84.6,36.19c-.18.2-.14.4.11.59.53.4.89.48,1.11.25.12-.12.12-.16.03-.31-.11-.2-.66-.55-.95-.61-.12-.03-.22,0-.3.09Z"/>
        <path class="st16" d="M93.82,55.89c-.36.18-.78.65-.88,1-.35,1.16.46,2.26,1.64,2.26.48,0,.82-.14,1.16-.46.37-.35.52-.71.52-1.24,0-.29-.05-.54-.13-.71-.16-.34-.57-.74-.91-.88-.37-.15-1.05-.14-1.4.04ZM95.09,56.62c.31.22.44.46.44.82,0,.75-.77,1.2-1.44.86-.44-.22-.63-.87-.39-1.33.26-.5.95-.67,1.39-.35Z"/>
        <path class="st16" d="M99.47,61.77c-.09.06-.15.18-.15.27,0,.2,2.13,4.61,2.34,4.85.18.2.45.18.58-.07.1-.17.07-.25-1.03-2.48-1.04-2.11-1.36-2.67-1.53-2.67-.03,0-.13.05-.21.11Z"/>
        <path class="st16" d="M98.95,64.47c-.07.05-.12.17-.12.27,0,.18.53,1.1.76,1.31.18.16.42.12.54-.1.1-.17.08-.2-.18-.66-.51-.86-.71-1.02-.99-.81Z"/>
        <path class="st16" d="M89.82,70.03c-1.08.5-1.34,1.95-.5,2.79.33.33.7.48,1.21.48,1.48,0,2.26-1.71,1.29-2.82-.14-.16-.39-.36-.56-.44-.39-.18-1.05-.19-1.43-.01ZM91.03,70.76c.33.16.54.61.48,1.03-.02.14-.12.32-.29.48-.43.43-.93.43-1.36,0-.33-.33-.39-.65-.22-1.04.15-.33.26-.44.61-.56.27-.1.48-.07.78.08Z"/>
        <path class="st16" d="M104.18,79.21c-.38.17-.83.69-.95,1.12-.29.99.01,1.87.8,2.27.88.45,1.97.05,2.38-.86.19-.43.23-1.21.09-1.59-.14-.36-.52-.76-.89-.93-.36-.17-1.06-.17-1.43,0ZM105.16,79.83c.54.16.82.68.68,1.27-.17.7-.48,1-1.01,1-1.33,0-1.3-2.22.03-2.33.04,0,.18.02.3.06Z"/>
        <path class="st16" d="M91.3,81.82s-.08.18-.08.29c0,.23.23.49.84.95.47.35.86.32.86-.07,0-.18-.08-.27-.78-.86-.46-.38-.68-.47-.84-.31Z"/>
        <path class="st16" d="M90.18,82c-.18.2-.14.4.21.78.18.2.5.58.72.84.47.58.67.69.9.54.1-.06.16-.17.16-.27,0-.3-1.48-2.01-1.74-2.01-.08,0-.19.05-.25.12Z"/>
        <path class="st16" d="M89.51,93.81c-.38.14-.7.42-.92.8-.17.31-.2.44-.19.84,0,.56.16.92.54,1.26.35.31.67.42,1.15.42,1.22,0,2.02-1.18,1.58-2.34-.15-.39-.67-.88-1.05-.99-.35-.1-.8-.1-1.11.01ZM90.59,94.6c.69.42.63,1.4-.1,1.71-1.12.5-1.94-1.08-.89-1.71.29-.17.71-.18.99,0Z"/>
        <path class="st16" d="M108.22,101.11c-.64.33-1.02,1.05-.92,1.75.07.45.43.99.82,1.23.3.18.39.2.89.2s.59-.02.89-.2c.65-.4.96-1.22.75-1.95-.3-1.03-1.46-1.52-2.43-1.03ZM109.56,101.82c.61.37.54,1.3-.11,1.74-.9.59-1.89-.39-1.35-1.34.32-.57.91-.73,1.46-.39Z"/>
        <path class="st16" d="M114.66,107.69c-.05.09-.18.35-.28.59-.19.48-.18.72.05.81.28.1.4,0,.64-.52.33-.73.3-1.04-.12-1.04-.12,0-.22.05-.29.16Z"/>
        <path class="st16" d="M116.04,108.16c-.09.12-.4.66-.69,1.2-.56,1.03-.61,1.25-.29,1.37.28.1.43-.05.95-1.01.83-1.5.82-1.47.61-1.66-.2-.18-.39-.14-.58.1Z"/>
        <path class="st16" d="M77.42,108.61c-.5.18-.8.44-1.02.88-.16.34-.19.47-.19.97,0,.67.13.99.57,1.38.26.23.81.46,1.13.46s.87-.22,1.14-.46c.42-.37.6-.82.6-1.46,0-.82-.29-1.34-.91-1.65-.49-.23-.88-.27-1.32-.12ZM78.49,109.42c.35.26.45.48.45.93,0,.55-.21.95-.61,1.14-.33.16-.5.17-.8.04-.51-.22-.7-.67-.56-1.33.1-.44.28-.7.62-.86.26-.12.68-.07.91.09Z"/>
        <path class="st16" d="M121.36,114.78c-1.25.4-1.59,2.08-.59,2.93.85.72,2.17.46,2.67-.54.19-.39.22-.93.07-1.35-.3-.84-1.29-1.33-2.15-1.05ZM122.27,115.52c.12.05.31.19.41.31.26.31.27.86,0,1.16-.35.41-.78.51-1.23.29-.69-.32-.71-1.36-.04-1.71.31-.16.56-.18.86-.05Z"/>
        <path class="st16" d="M95.31,115.21c-.93.37-1.34,1.5-.86,2.39.33.59.87.91,1.54.91.46,0,.76-.12,1.12-.43.9-.8.71-2.23-.37-2.8-.43-.22-.96-.25-1.42-.07ZM96.64,116.12c.44.44.37,1.18-.15,1.52-.27.17-.79.16-1.03-.01-.63-.47-.65-1.23-.03-1.65.2-.14.3-.16.6-.14.31.03.4.07.61.28Z"/>
        <path class="st16" d="M71.92,117.59c-.16.1-.22.39-.74,3.02-.52,2.62-.53,2.7-.42,2.88.17.26.45.21.6-.1.12-.24,1-4.65,1.05-5.29.03-.23,0-.39-.05-.46-.09-.11-.33-.14-.45-.05Z"/>
        <path class="st16" d="M72.62,119.97c-.07.07-.13.31-.16.68-.04.48-.03.58.07.69.16.18.42.17.54-.02.05-.08.12-.37.14-.65.03-.4.02-.53-.07-.67-.12-.2-.37-.22-.53-.04Z"/>
        <path class="st16" d="M91.28,122.56l-.16.13.18,1.06c.1.59.21,1.11.26,1.16.11.13.44.13.54,0,.18-.22-.13-2.07-.38-2.33-.19-.19-.24-.19-.44-.03Z"/>
        <path class="st16" d="M82.09,123.07c-.86.23-1.41,1.12-1.22,1.99.26,1.16,1.48,1.71,2.52,1.14.72-.39,1.05-1.21.8-2.03-.13-.43-.68-.95-1.14-1.09-.44-.13-.54-.13-.97-.01ZM82.98,123.85c.5.25.69.89.41,1.36-.66,1.08-2.27.18-1.69-.93.26-.5.78-.68,1.28-.43Z"/>
        <path class="st16" d="M92.66,123.15c-.13.09-.15.16-.15.54,0,.39.02.45.17.55.22.14.49.04.55-.21.05-.22,0-.78-.08-.85-.13-.12-.35-.13-.49-.03Z"/>
        <path class="st16" d="M134.19,123.69c-.25.18-.91,1.1-.91,1.28,0,.22.15.34.39.31.14-.01.3-.16.65-.59.5-.61.56-.82.31-.99-.19-.14-.26-.14-.44-.01Z"/>
        <path class="st16" d="M135.34,123.98c-.5.65-.97,1.49-.97,1.71,0,.33.42.4.66.12.35-.44,1.04-1.57,1.04-1.74,0-.42-.44-.46-.73-.08Z"/>
        <path class="st16" d="M63.6,127.96c-.16.16-.07.42.34,1.01.41.6.6.74.84.65.05-.02.14-.12.18-.21.07-.15.05-.22-.18-.56-.47-.72-.71-.97-.91-.97-.1,0-.22.03-.27.08Z"/>
        <path class="st16" d="M62.31,129.05c-.19.19-.08.44.52,1.26.33.45.66.83.73.85.32.08.54-.17.42-.49-.09-.24-1.13-1.61-1.25-1.66-.17-.06-.33-.05-.42.04Z"/>
        <path class="st16" d="M109.29,132.72c-.95.37-1.12.48-1.12.71,0,.17.2.37.35.37.11,0,1.53-.53,1.95-.73.27-.13.35-.38.18-.56-.18-.2-.38-.16-1.36.21Z"/>
        <path class="st16" d="M109.86,134.01c-.28.12-.55.24-.59.28-.12.1-.11.43,0,.52.16.14.33.12.96-.13.66-.25.8-.41.66-.71-.11-.23-.38-.22-1.03.04Z"/>
        <path class="st16" d="M76.8,135.92c-.1.1-.11.41,0,.51.05.05,0,.05-.21,0-.35-.1-.5-.01-.53.28-.03.26.01.29,1.23.82,1.18.52,1.48.54,1.48.06,0-.23-.08-.29-1.07-.71-.42-.18-.76-.33-.75-.35,0,0,.28.05.59.12.32.07.65.14.73.14.34,0,.49-.46.21-.64-.2-.12-1-.31-1.34-.31-.14,0-.29.03-.33.08Z"/>
      </g>
      <text id="_x28__x2F_techno_x2F_math_x2F_shapes_x2F_level3_x2F_cone_x2F_cone.mp3_x29_" class="st11" transform="translate(287.76 249.25)"><tspan x="0" y="0">Cone</tspan></text>
      <g id="_x28__x2F_techno_x2F_math_x2F_shapes_x2F_level3_x2F_cone_x2F_cone.mp3_x29_1" data-name="_x28__x2F_techno_x2F_math_x2F_shapes_x2F_level3_x2F_cone_x2F_cone.mp3_x29_">
        <path class="st35" d="M270.35,211.63l42.81-91.84,42.81,91.84c.22.48-.13,1.02-.66,1.02h-84.3c-.53,0-.88-.54-.66-1.02Z"/>
        <ellipse class="st29" cx="313.16" cy="212.84" rx="42.87" ry="12.25"/>
      </g>
    </g>
  </g>
</svg>