<?xml version="1.0" encoding="UTF-8"?>
<svg xmlns="http://www.w3.org/2000/svg" version="1.1" xmlns:xlink="http://www.w3.org/1999/xlink" viewBox="0 0 22 12">
  <!-- Generator: Adobe Illustrator 29.5.1, SVG Export Plug-In . SVG Version: 2.1.0 Build 141)  -->
  <defs>
    <style>
      .st0 {
        fill: #3f5a7e;
      }

      .st1 {
        fill: #f06771;
      }

      .st2 {
        fill: #f3d9a7;
      }

      .st3 {
        fill: url(#GradientFill_22);
      }

      .st3, .st4, .st5, .st6, .st7, .st8, .st9, .st10, .st11, .st12, .st13, .st14, .st15 {
        fill-rule: evenodd;
      }

      .st16 {
        fill: #f06770;
      }

      .st17 {
        fill: #5aacca;
      }

      .st4 {
        fill: url(#GradientFill_24);
      }

      .st18 {
        fill: #47ab86;
      }

      .st19 {
        fill: #2d97be;
      }

      .st5 {
        fill: #484544;
      }

      .st20, .st21, .st22 {
        fill: #231f20;
      }

      .st23, .st8 {
        fill: #d93a2a;
      }

      .st24 {
        fill: #faa723;
      }

      .st25 {
        fill: #2c3f79;
      }

      .st26 {
        fill: #fff;
      }

      .st27 {
        fill: url(#linear-gradient1);
      }

      .st28 {
        mix-blend-mode: multiply;
        opacity: .1;
      }

      .st29 {
        fill: #2f87b4;
      }

      .st30 {
        fill: #52284a;
      }

      .st31, .st32 {
        fill: none;
      }

      .st21 {
        font-family: FefdyTypeRegular, 'Fefdy Type';
        font-size: .31px;
      }

      .st33 {
        fill: #020202;
      }

      .st34 {
        fill: #256ca4;
      }

      .st6 {
        fill: url(#GradientFill_21);
      }

      .st35 {
        fill: url(#radial-gradient);
      }

      .st7 {
        fill: url(#GradientFill_11);
      }

      .st36 {
        fill: url(#radial-gradient1);
      }

      .st37 {
        clip-path: url(#clippath-1);
      }

      .st38 {
        fill: #6a98b7;
      }

      .st32 {
        stroke-width: .12px;
      }

      .st32, .st39 {
        stroke: #010101;
        stroke-miterlimit: 10;
      }

      .st40 {
        fill: #f38493;
      }

      .st41 {
        isolation: isolate;
      }

      .st42 {
        fill: #9e9e9e;
      }

      .st43, .st15 {
        fill: #a1844e;
      }

      .st44 {
        fill: #e13726;
      }

      .st45 {
        fill: #269954;
      }

      .st9 {
        fill: url(#GradientFill_12);
      }

      .st46 {
        fill: #ffc63e;
      }

      .st47 {
        fill: #226d39;
      }

      .st39 {
        fill: #eb2127;
        stroke-width: .17px;
      }

      .st48 {
        fill: #ffd94d;
      }

      .st49 {
        fill: #2b3f66;
      }

      .st50 {
        fill: #4299c1;
      }

      .st51 {
        fill: #58b9d3;
      }

      .st52 {
        fill: #35996c;
      }

      .st10 {
        fill: url(#GradientFill_3);
      }

      .st53 {
        fill: #248850;
      }

      .st54 {
        fill: #30ac83;
      }

      .st11 {
        fill: url(#GradientFill_1);
      }

      .st55 {
        fill: #396995;
      }

      .st56 {
        fill: #f9ed32;
      }

      .st57 {
        fill: #ffc72c;
      }

      .st58 {
        fill: #4f4f50;
      }

      .st59 {
        fill: #3dabc9;
      }

      .st60 {
        fill: #223143;
      }

      .st12 {
        fill: url(#GradientFill_2);
      }

      .st61 {
        fill: #517596;
      }

      .st13 {
        fill: url(#GradientFill_31);
      }

      .st62 {
        fill: #faac22;
      }

      .st63 {
        fill: #f89922;
      }

      .st64 {
        fill: url(#radial-gradient2);
      }

      .st65 {
        fill: #010101;
      }

      .st66 {
        fill: #5275a3;
      }

      .st67 {
        fill: url(#radial-gradient4);
      }

      .st68 {
        fill: url(#radial-gradient3);
      }

      .st69 {
        fill: #64c2a8;
      }

      .st14 {
        fill: url(#GradientFill_23);
      }

      .st70 {
        fill: url(#linear-gradient);
      }

      .st71 {
        fill: #fbb71e;
      }

      .st22 {
        font-family: MyriadPro-Regular, 'Myriad Pro';
        font-size: .43px;
      }

      .st72 {
        clip-path: url(#clippath);
      }

      .st73 {
        fill: #ef4f57;
      }

      .st74 {
        fill: #74c5da;
      }

      .st75 {
        fill: #48b68a;
      }
    </style>
    <clipPath id="clippath">
      <rect class="st31" x="3.48" y="8.58" width="3.35" height="1.72"/>
    </clipPath>
    <clipPath id="clippath-1">
      <rect class="st31" x="3.48" y="8.58" width="3.35" height="1.72"/>
    </clipPath>
    <linearGradient id="linear-gradient" x1="15.4" y1="6.97" x2="18.56" y2="10.13" gradientUnits="userSpaceOnUse">
      <stop offset="0" stop-color="#fff"/>
      <stop offset="1" stop-color="#999"/>
    </linearGradient>
    <linearGradient id="linear-gradient1" x1="15.41" y1="6.96" x2="18.59" y2="10.17" gradientUnits="userSpaceOnUse">
      <stop offset="0" stop-color="#f5f5f5"/>
      <stop offset="1" stop-color="#d6d6d6"/>
    </linearGradient>
    <radialGradient id="radial-gradient" cx="15.96" cy="7.49" fx="15.96" fy="7.49" r=".53" gradientUnits="userSpaceOnUse">
      <stop offset=".56" stop-color="#000"/>
      <stop offset=".89" stop-color="#9e9e9e"/>
    </radialGradient>
    <radialGradient id="radial-gradient1" cy="9.33" fy="9.33" xlink:href="#radial-gradient"/>
    <radialGradient id="radial-gradient2" cx="17.78" fx="17.78" r=".53" xlink:href="#radial-gradient"/>
    <radialGradient id="radial-gradient3" cx="17.78" cy="9.33" fx="17.78" fy="9.33" r=".53" xlink:href="#radial-gradient"/>
    <radialGradient id="radial-gradient4" cx="16.87" cy="8.41" fx="16.87" fy="8.41" r=".53" xlink:href="#radial-gradient"/>
    <linearGradient id="GradientFill_1" data-name="GradientFill 1" x1="17.3" y1="3.04" x2="17.09" y2="2.75" gradientUnits="userSpaceOnUse">
      <stop offset="0" stop-color="#fff"/>
      <stop offset="1" stop-color="#231f20"/>
    </linearGradient>
    <linearGradient id="GradientFill_2" data-name="GradientFill 2" x1="17.33" y1="3.01" x2="17.12" y2="2.72" gradientUnits="userSpaceOnUse">
      <stop offset="0" stop-color="#231f20"/>
      <stop offset="1" stop-color="#fff"/>
    </linearGradient>
    <linearGradient id="GradientFill_3" data-name="GradientFill 3" x1="16.87" y1="3.03" x2="17.08" y2="2.75" gradientUnits="userSpaceOnUse">
      <stop offset="0" stop-color="#fff"/>
      <stop offset="1" stop-color="#424143"/>
    </linearGradient>
    <linearGradient id="GradientFill_21" data-name="GradientFill 2" x1="16.9" y1="3.06" x2="17.12" y2="2.77" xlink:href="#GradientFill_2"/>
    <linearGradient id="GradientFill_31" data-name="GradientFill 3" x1="16.74" y1="2.63" x2="17.07" y2="2.74" xlink:href="#GradientFill_3"/>
    <linearGradient id="GradientFill_22" data-name="GradientFill 2" x1="16.73" y1="2.67" x2="17.06" y2="2.78" xlink:href="#GradientFill_2"/>
    <linearGradient id="GradientFill_11" data-name="GradientFill 1" x1="17.42" y1="2.63" x2="17.1" y2="2.74" xlink:href="#GradientFill_1"/>
    <linearGradient id="GradientFill_23" data-name="GradientFill 2" x1="17.41" y1="2.59" x2="17.08" y2="2.7" xlink:href="#GradientFill_2"/>
    <linearGradient id="GradientFill_12" data-name="GradientFill 1" x1="17.08" y1="2.38" x2="17.08" y2="2.75" xlink:href="#GradientFill_1"/>
    <linearGradient id="GradientFill_24" data-name="GradientFill 2" x1="17.05" y1="2.38" x2="17.04" y2="2.75" xlink:href="#GradientFill_2"/>
  </defs>
  <g class="st41">
    <g id="Layer_1">
      <rect class="st56" x="-.14" y="-.16" width="22.41" height="12.34"/>
      <g id="_x28__x2F_techno_x2F_math_x2F_shapes_x2F_level1_x2F_square_x2F_square.mp3_x29_">
        <rect id="_x28__x2F_techno_x2F_math_x2F_shapes_x2F_level1_x2F_square_x2F_square.mp3_x29_1" data-name="_x28__x2F_techno_x2F_math_x2F_shapes_x2F_level1_x2F_square_x2F_square.mp3_x29_" class="st39" x="9.37" y="4.09" width="3.26" height="3.26"/>
      </g>
      <g id="_x28__x2F_techno_x2F_math_x2F_shapes_x2F_level1_x2F_square_x2F_ludo_board.mp3_x29_">
        <text class="st21" transform="translate(4.35 5.26)"><tspan x="0" y="0">Ludo board</tspan></text>
      </g>
      <g id="_x28__x2F_techno_x2F_math_x2F_shapes_x2F_level1_x2F_square_x2F_chessboard.mp3_x29_">
        <text class="st21" transform="translate(4.32 11)"><tspan x="0" y="0">Chessboard</tspan></text>
      </g>
      <g id="_x28__x2F_techno_x2F_math_x2F_shapes_x2F_level1_x2F_square_x2F_dice.mp3_x29_">
        <text class="st21" transform="translate(16.62 10.98)"><tspan x="0" y="0">Dice</tspan></text>
      </g>
      <g id="_x28__x2F_techno_x2F_math_x2F_shapes_x2F_level1_x2F_square_x2F_carrom_board.mp3_x29_">
        <text class="st21" transform="translate(15.9 5.14)"><tspan x="0" y="0">Carrom board</tspan></text>
      </g>
      <g id="_x28__x2F_techno_x2F_math_x2F_shapes_x2F_level1_x2F_square_x2F_ludo_board.mp3_x29_1" data-name="_x28__x2F_techno_x2F_math_x2F_shapes_x2F_level1_x2F_square_x2F_ludo_board.mp3_x29_">
        <g>
          <rect class="st26" x="3.37" y="1.09" width="3.42" height="3.42"/>
          <path class="st61" d="M3.37,4.5h3.41V1.09h-3.41v3.41ZM6.8,4.51h-3.43V1.08h3.43v3.43Z"/>
          <path class="st46" d="M4.45,1.68c0-.07-.05-.12-.12-.12s-.12.05-.12.12.05.12.12.12.12-.05.12-.12"/>
          <path class="st61" d="M4.33,1.56c-.06,0-.12.05-.12.12s.05.12.12.12.12-.05.12-.12-.05-.12-.12-.12M4.33,1.81c-.07,0-.13-.06-.13-.13s.06-.13.13-.13.13.06.13.13-.06.13-.13.13"/>
          <path class="st46" d="M4.07,1.68c0-.07-.05-.12-.12-.12s-.12.05-.12.12.05.12.12.12.12-.05.12-.12"/>
          <path class="st61" d="M3.95,1.56c-.06,0-.12.05-.12.12s.05.12.12.12.12-.05.12-.12-.05-.12-.12-.12M3.95,1.81c-.07,0-.13-.06-.13-.13s.06-.13.13-.13.13.06.13.13-.06.13-.13.13"/>
          <path class="st46" d="M4.45,2.05c0-.07-.05-.12-.12-.12s-.12.05-.12.12.05.12.12.12.12-.05.12-.12"/>
          <path class="st61" d="M4.33,1.93c-.06,0-.12.05-.12.12s.05.12.12.12.12-.05.12-.12-.05-.12-.12-.12M4.33,2.17c-.07,0-.13-.06-.13-.13s.06-.13.13-.13.13.06.13.13-.06.13-.13.13"/>
          <path class="st46" d="M4.07,2.05c0-.07-.05-.12-.12-.12s-.12.05-.12.12.05.12.12.12.12-.05.12-.12"/>
          <path class="st61" d="M3.95,1.93c-.06,0-.12.05-.12.12s.05.12.12.12.12-.05.12-.12-.05-.12-.12-.12M3.95,2.17c-.07,0-.13-.06-.13-.13s.06-.13.13-.13.13.06.13.13-.06.13-.13.13"/>
          <path class="st18" d="M6.33,1.68c0-.07-.05-.12-.12-.12s-.12.05-.12.12.05.12.12.12.12-.05.12-.12"/>
          <path class="st61" d="M6.2,1.56c-.06,0-.12.05-.12.12s.05.12.12.12.12-.05.12-.12-.05-.12-.12-.12M6.2,1.81c-.07,0-.13-.06-.13-.13s.06-.13.13-.13.13.06.13.13-.06.13-.13.13"/>
          <path class="st18" d="M5.95,1.68c0-.07-.05-.12-.12-.12s-.12.05-.12.12.05.12.12.12.12-.05.12-.12"/>
          <path class="st61" d="M5.83,1.56c-.06,0-.12.05-.12.12s.05.12.12.12.12-.05.12-.12-.05-.12-.12-.12M5.83,1.81c-.07,0-.13-.06-.13-.13s.06-.13.13-.13.13.06.13.13-.06.13-.13.13"/>
          <path class="st18" d="M6.33,2.05c0-.07-.05-.12-.12-.12s-.12.05-.12.12.05.12.12.12.12-.05.12-.12"/>
          <path class="st61" d="M6.2,1.93c-.06,0-.12.05-.12.12s.05.12.12.12.12-.05.12-.12-.05-.12-.12-.12M6.2,2.17c-.07,0-.13-.06-.13-.13s.06-.13.13-.13.13.06.13.13-.06.13-.13.13"/>
          <path class="st18" d="M5.95,2.05c0-.07-.05-.12-.12-.12s-.12.05-.12.12.05.12.12.12.12-.05.12-.12"/>
          <path class="st61" d="M5.83,1.93c-.06,0-.12.05-.12.12s.05.12.12.12.12-.05.12-.12-.05-.12-.12-.12M5.83,2.17c-.07,0-.13-.06-.13-.13s.06-.13.13-.13.13.06.13.13-.06.13-.13.13"/>
          <path class="st17" d="M4.45,3.55c0-.07-.05-.12-.12-.12s-.12.05-.12.12.05.12.12.12.12-.05.12-.12"/>
          <path class="st61" d="M4.33,3.44c-.06,0-.12.05-.12.12s.05.12.12.12.12-.05.12-.12-.05-.12-.12-.12M4.33,3.68c-.07,0-.13-.06-.13-.13s.06-.13.13-.13.13.06.13.13-.06.13-.13.13"/>
          <path class="st17" d="M4.07,3.55c0-.07-.05-.12-.12-.12s-.12.05-.12.12.05.12.12.12.12-.05.12-.12"/>
          <path class="st61" d="M3.95,3.44c-.06,0-.12.05-.12.12s.05.12.12.12.12-.05.12-.12-.05-.12-.12-.12M3.95,3.68c-.07,0-.13-.06-.13-.13s.06-.13.13-.13.13.06.13.13-.06.13-.13.13"/>
          <path class="st17" d="M4.45,3.92c0-.07-.05-.12-.12-.12s-.12.05-.12.12.05.12.12.12.12-.05.12-.12"/>
          <path class="st61" d="M4.33,3.8c-.06,0-.12.05-.12.12s.05.12.12.12.12-.05.12-.12-.05-.12-.12-.12M4.33,4.05c-.07,0-.13-.06-.13-.13s.06-.13.13-.13.13.06.13.13-.06.13-.13.13"/>
          <path class="st17" d="M4.07,3.92c0-.07-.05-.12-.12-.12s-.12.05-.12.12.05.12.12.12.12-.05.12-.12"/>
          <path class="st61" d="M3.95,3.8c-.06,0-.12.05-.12.12s.05.12.12.12.12-.05.12-.12-.05-.12-.12-.12M3.95,4.05c-.07,0-.13-.06-.13-.13s.06-.13.13-.13.13.06.13.13-.06.13-.13.13"/>
          <path class="st1" d="M6.33,3.55c0-.07-.05-.12-.12-.12s-.12.05-.12.12.05.12.12.12.12-.05.12-.12"/>
          <path class="st61" d="M6.2,3.44c-.06,0-.12.05-.12.12s.05.12.12.12.12-.05.12-.12-.05-.12-.12-.12M6.2,3.68c-.07,0-.13-.06-.13-.13s.06-.13.13-.13.13.06.13.13-.06.13-.13.13"/>
          <path class="st1" d="M5.95,3.55c0-.07-.05-.12-.12-.12s-.12.05-.12.12.05.12.12.12.12-.05.12-.12"/>
          <path class="st61" d="M5.83,3.44c-.06,0-.12.05-.12.12s.05.12.12.12.12-.05.12-.12-.05-.12-.12-.12M5.83,3.68c-.07,0-.13-.06-.13-.13s.06-.13.13-.13.13.06.13.13-.06.13-.13.13"/>
          <path class="st1" d="M6.33,3.92c0-.07-.05-.12-.12-.12s-.12.05-.12.12.05.12.12.12.12-.05.12-.12"/>
          <path class="st61" d="M6.2,3.8c-.06,0-.12.05-.12.12s.05.12.12.12.12-.05.12-.12-.05-.12-.12-.12M6.2,4.05c-.07,0-.13-.06-.13-.13s.06-.13.13-.13.13.06.13.13-.06.13-.13.13"/>
          <path class="st1" d="M5.95,3.92c0-.07-.05-.12-.12-.12s-.12.05-.12.12.05.12.12.12.12-.05.12-.12"/>
          <path class="st61" d="M5.83,3.8c-.06,0-.12.05-.12.12s.05.12.12.12.12-.05.12-.12-.05-.12-.12-.12M5.83,4.05c-.07,0-.13-.06-.13-.13s.06-.13.13-.13.13.06.13.13-.06.13-.13.13"/>
          <path class="st61" d="M4.77,1.44h.2v-.2h-.2v.2ZM4.98,1.45h-.22v-.22h.22v.22Z"/>
          <path class="st61" d="M4.98,1.44h.2v-.2h-.2v.2ZM5.19,1.45h-.22v-.22h.22v.22Z"/>
          <path class="st61" d="M5.19,1.44h.2v-.2h-.2v.2ZM5.4,1.45h-.22v-.22h.22v.22Z"/>
          <rect class="st46" x="4.77" y="1.45" width=".21" height=".21"/>
          <path class="st61" d="M4.77,1.65h.2v-.2h-.2v.2ZM4.98,1.66h-.22v-.22h.22v.22Z"/>
          <rect class="st46" x="4.97" y="1.45" width=".21" height=".21"/>
          <path class="st61" d="M4.98,1.65h.2v-.2h-.2v.2ZM5.19,1.66h-.22v-.22h.22v.22Z"/>
          <path class="st61" d="M5.19,1.65h.2v-.2h-.2v.2ZM5.4,1.66h-.22v-.22h.22v.22Z"/>
          <path class="st61" d="M4.77,1.86h.2v-.2h-.2v.2ZM4.98,1.87h-.22v-.22h.22v.22Z"/>
          <rect class="st46" x="4.97" y="1.65" width=".21" height=".21"/>
          <path class="st61" d="M4.98,1.86h.2v-.2h-.2v.2ZM5.19,1.87h-.22v-.22h.22v.22Z"/>
          <rect class="st46" x="5.18" y="1.65" width=".21" height=".21"/>
          <path class="st61" d="M5.19,1.86h.2v-.2h-.2v.2ZM5.4,1.87h-.22v-.22h.22v.22Z"/>
          <path class="st61" d="M4.77,2.07h.2v-.2h-.2v.2ZM4.98,2.08h-.22v-.22h.22v.22Z"/>
          <rect class="st46" x="4.97" y="1.86" width=".21" height=".21"/>
          <path class="st61" d="M4.98,2.07h.2v-.2h-.2v.2ZM5.19,2.08h-.22v-.22h.22v.22Z"/>
          <path class="st61" d="M5.19,2.07h.2v-.2h-.2v.2ZM5.4,2.08h-.22v-.22h.22v.22Z"/>
          <path class="st61" d="M4.77,2.27h.2v-.2h-.2v.2ZM4.98,2.28h-.22v-.22h.22v.22Z"/>
          <rect class="st46" x="4.97" y="2.07" width=".21" height=".21"/>
          <path class="st61" d="M4.98,2.27h.2v-.2h-.2v.2ZM5.19,2.28h-.22v-.22h.22v.22Z"/>
          <path class="st61" d="M5.19,2.27h.2v-.2h-.2v.2ZM5.4,2.28h-.22v-.22h.22v.22Z"/>
          <path class="st46" d="M3.72,1.45h.83v.83h-.83v-.83ZM3.52,2.49h1.25v-1.25h-1.25v1.25Z"/>
          <path class="st61" d="M3.72,2.28h0v-.83h.82v.82h-.83s0,0,0,0h0s.84,0,.84,0v-.84h-.84v.84h0ZM3.52,1.24h0v1.25h1.26v-1.26h-1.26s0,0,0,0h0s1.25,0,1.25,0v1.24h-1.24v-1.25h0s0,0,0,0"/>
          <path class="st61" d="M4.77,2.48h.2v-.2h-.2v.2ZM4.98,2.49h-.22v-.22h.22v.22Z"/>
          <rect class="st46" x="4.97" y="2.28" width=".21" height=".21"/>
          <path class="st61" d="M4.98,2.48h.2v-.2h-.2v.2ZM5.19,2.49h-.22v-.22h.22v.22Z"/>
          <path class="st61" d="M5.19,2.48h.2v-.2h-.2v.2ZM5.4,2.49h-.22v-.22h.22v.22Z"/>
          <path class="st18" d="M6.43,2.28h-.83v-.83h.83v.83ZM5.39,2.49h1.25v-1.25h-1.25v1.25Z"/>
          <path class="st61" d="M6.43,2.28h0s-.83,0-.83,0v-.82h.82v.83h0s0,0,0,0h0v-.84h-.84v.84h.84s0,0,0,0ZM5.39,1.24h0v1.25h1.26v-1.26h-1.26s0,0,0,0h0s1.25,0,1.25,0v1.24h-1.24v-1.25h0s0,0,0,0"/>
          <path class="st61" d="M3.52,2.69h.2v-.2h-.2v.2ZM3.73,2.7h-.22v-.22h.22v.22Z"/>
          <path class="st61" d="M3.73,2.69h.2v-.2h-.2v.2ZM3.94,2.7h-.22v-.22h.22v.22Z"/>
          <rect class="st17" x="3.93" y="2.49" width=".21" height=".21"/>
          <path class="st61" d="M3.94,2.69h.2v-.2h-.2v.2ZM4.15,2.7h-.22v-.22h.22v.22Z"/>
          <path class="st61" d="M4.15,2.69h.2v-.2h-.2v.2ZM4.35,2.7h-.22v-.22h.22v.22Z"/>
          <path class="st61" d="M4.35,2.69h.2v-.2h-.2v.2ZM4.56,2.7h-.22v-.22h.22v.22Z"/>
          <path class="st61" d="M4.56,2.69h.2v-.2h-.2v.2ZM4.77,2.7h-.22v-.22h.22v.22Z"/>
          <path class="st61" d="M5.4,2.69h.2v-.2h-.2v.2ZM5.6,2.7h-.22v-.22h.22v.22Z"/>
          <path class="st61" d="M5.6,2.69h.2v-.2h-.2v.2ZM5.81,2.7h-.22v-.22h.22v.22Z"/>
          <path class="st61" d="M5.81,2.69h.2v-.2h-.2v.2ZM6.02,2.7h-.22v-.22h.22v.22Z"/>
          <path class="st61" d="M6.02,2.69h.2v-.2h-.2v.2ZM6.23,2.7h-.22v-.22h.22v.22Z"/>
          <rect class="st18" x="6.22" y="2.49" width=".21" height=".21"/>
          <path class="st61" d="M6.23,2.69h.2v-.2h-.2v.2ZM6.44,2.7h-.22v-.22h.22v.22Z"/>
          <path class="st61" d="M6.44,2.69h.2v-.2h-.2v.2ZM6.65,2.7h-.22v-.22h.22v.22Z"/>
          <path class="st61" d="M3.52,2.9h.2v-.2h-.2v.2ZM3.73,2.91h-.22v-.22h.22v.22Z"/>
          <rect class="st17" x="3.72" y="2.7" width=".21" height=".21"/>
          <path class="st61" d="M3.73,2.9h.2v-.2h-.2v.2ZM3.94,2.91h-.22v-.22h.22v.22Z"/>
          <rect class="st17" x="3.93" y="2.7" width=".21" height=".21"/>
          <path class="st61" d="M3.94,2.9h.2v-.2h-.2v.2ZM4.15,2.91h-.22v-.22h.22v.22Z"/>
          <rect class="st17" x="4.14" y="2.7" width=".21" height=".21"/>
          <path class="st61" d="M4.15,2.9h.2v-.2h-.2v.2ZM4.35,2.91h-.22v-.22h.22v.22Z"/>
          <rect class="st17" x="4.35" y="2.7" width=".21" height=".21"/>
          <path class="st61" d="M4.35,2.9h.2v-.2h-.2v.2ZM4.56,2.91h-.22v-.22h.22v.22Z"/>
          <rect class="st17" x="4.56" y="2.7" width=".21" height=".21"/>
          <path class="st61" d="M4.56,2.9h.2v-.2h-.2v.2ZM4.77,2.91h-.22v-.22h.22v.22Z"/>
          <rect class="st18" x="5.39" y="2.7" width=".21" height=".21"/>
          <path class="st61" d="M5.4,2.9h.2v-.2h-.2v.2ZM5.6,2.91h-.22v-.22h.22v.22Z"/>
          <rect class="st18" x="5.6" y="2.7" width=".21" height=".21"/>
          <path class="st61" d="M5.6,2.9h.2v-.2h-.2v.2ZM5.81,2.91h-.22v-.22h.22v.22Z"/>
          <rect class="st18" x="5.81" y="2.7" width=".21" height=".21"/>
          <path class="st61" d="M5.81,2.9h.2v-.2h-.2v.2ZM6.02,2.91h-.22v-.22h.22v.22Z"/>
          <rect class="st18" x="6.02" y="2.7" width=".21" height=".21"/>
          <path class="st61" d="M6.02,2.9h.2v-.2h-.2v.2ZM6.23,2.91h-.22v-.22h.22v.22Z"/>
          <rect class="st18" x="6.22" y="2.7" width=".21" height=".21"/>
          <path class="st61" d="M6.23,2.9h.2v-.2h-.2v.2ZM6.44,2.91h-.22v-.22h.22v.22Z"/>
          <path class="st61" d="M6.44,2.9h.2v-.2h-.2v.2ZM6.65,2.91h-.22v-.22h.22v.22Z"/>
          <path class="st61" d="M3.52,3.11h.2v-.2h-.2v.2ZM3.73,3.12h-.22v-.22h.22v.22Z"/>
          <rect class="st17" x="3.72" y="2.9" width=".21" height=".21"/>
          <path class="st61" d="M3.73,3.11h.2v-.2h-.2v.2ZM3.94,3.12h-.22v-.22h.22v.22Z"/>
          <path class="st61" d="M3.94,3.11h.2v-.2h-.2v.2ZM4.15,3.12h-.22v-.22h.22v.22Z"/>
          <path class="st61" d="M4.15,3.11h.2v-.2h-.2v.2ZM4.35,3.12h-.22v-.22h.22v.22Z"/>
          <path class="st61" d="M4.35,3.11h.2v-.2h-.2v.2ZM4.56,3.12h-.22v-.22h.22v.22Z"/>
          <path class="st61" d="M4.56,3.11h.2v-.2h-.2v.2ZM4.77,3.12h-.22v-.22h.22v.22Z"/>
          <polygon class="st18" points="5.39 2.49 5.39 3.11 5.08 2.8 5.39 2.49"/>
          <path class="st61" d="M5.08,2.8l.3.3v-.6l-.3.3ZM5.4,3.12l-.32-.32.32-.32v.65"/>
          <polygon class="st1" points="5.39 3.11 4.77 3.11 5.08 2.8 5.39 3.11"/>
          <path class="st61" d="M4.78,3.11h.6l-.3-.3-.3.3ZM5.4,3.12h-.65l.32-.32.32.32"/>
          <polygon class="st17" points="5.08 2.8 4.77 3.11 4.77 2.49 5.08 2.8"/>
          <path class="st61" d="M4.77,2.5v.6l.3-.3-.3-.3ZM4.76,3.12v-.65l.32.32-.32.32"/>
          <path class="st61" d="M5.4,3.11h.2v-.2h-.2v.2ZM5.6,3.12h-.22v-.22h.22v.22Z"/>
          <path class="st61" d="M5.6,3.11h.2v-.2h-.2v.2ZM5.81,3.12h-.22v-.22h.22v.22Z"/>
          <path class="st61" d="M5.81,3.11h.2v-.2h-.2v.2ZM6.02,3.12h-.22v-.22h.22v.22Z"/>
          <rect class="st18" x="6.02" y="2.9" width=".21" height=".21"/>
          <path class="st61" d="M6.02,3.11h.2v-.2h-.2v.2ZM6.23,3.12h-.22v-.22h.22v.22Z"/>
          <path class="st61" d="M6.23,3.11h.2v-.2h-.2v.2ZM6.44,3.12h-.22v-.22h.22v.22Z"/>
          <path class="st61" d="M6.44,3.11h.2v-.2h-.2v.2ZM6.65,3.12h-.22v-.22h.22v.22Z"/>
          <path class="st61" d="M4.77,3.32h.2v-.2h-.2v.2ZM4.98,3.33h-.22v-.22h.22v.22Z"/>
          <rect class="st1" x="4.97" y="3.11" width=".21" height=".21"/>
          <path class="st61" d="M4.98,3.32h.2v-.2h-.2v.2ZM5.19,3.33h-.22v-.22h.22v.22Z"/>
          <path class="st61" d="M5.19,3.32h.2v-.2h-.2v.2ZM5.4,3.33h-.22v-.22h.22v.22Z"/>
          <path class="st61" d="M4.77,3.52h.2v-.2h-.2v.2ZM4.98,3.53h-.22v-.22h.22v.22Z"/>
          <rect class="st1" x="4.97" y="3.32" width=".21" height=".21"/>
          <path class="st61" d="M4.98,3.52h.2v-.2h-.2v.2ZM5.19,3.53h-.22v-.22h.22v.22Z"/>
          <path class="st61" d="M5.19,3.52h.2v-.2h-.2v.2ZM5.4,3.53h-.22v-.22h.22v.22Z"/>
          <path class="st61" d="M4.77,3.73h.2v-.2h-.2v.2ZM4.98,3.74h-.22v-.22h.22v.22Z"/>
          <rect class="st1" x="4.97" y="3.53" width=".21" height=".21"/>
          <path class="st61" d="M4.98,3.73h.2v-.2h-.2v.2ZM5.19,3.74h-.22v-.22h.22v.22Z"/>
          <path class="st61" d="M5.19,3.73h.2v-.2h-.2v.2ZM5.4,3.74h-.22v-.22h.22v.22Z"/>
          <rect class="st1" x="4.77" y="3.74" width=".21" height=".21"/>
          <path class="st61" d="M4.77,3.94h.2v-.2h-.2v.2ZM4.98,3.95h-.22v-.22h.22v.22Z"/>
          <rect class="st1" x="4.97" y="3.74" width=".21" height=".21"/>
          <path class="st61" d="M4.98,3.94h.2v-.2h-.2v.2ZM5.19,3.95h-.22v-.22h.22v.22Z"/>
          <path class="st61" d="M5.19,3.94h.2v-.2h-.2v.2ZM5.4,3.95h-.22v-.22h.22v.22Z"/>
          <path class="st61" d="M4.77,4.15h.2v-.2h-.2v.2ZM4.98,4.16h-.22v-.22h.22v.22Z"/>
          <rect class="st1" x="4.97" y="3.95" width=".21" height=".21"/>
          <path class="st61" d="M4.98,4.15h.2v-.2h-.2v.2ZM5.19,4.16h-.22v-.22h.22v.22Z"/>
          <rect class="st1" x="5.18" y="3.95" width=".21" height=".21"/>
          <path class="st61" d="M5.19,4.15h.2v-.2h-.2v.2ZM5.4,4.16h-.22v-.22h.22v.22Z"/>
          <path class="st17" d="M4.56,4.15h-.83v-.83h.83v.83ZM3.52,4.36h1.25v-1.25h-1.25v1.25Z"/>
          <path class="st61" d="M4.56,4.15h0s-.83,0-.83,0v-.82h.82v.83h0s0,0,0,0h0v-.84h-.84v.84h.84s0,0,0,0ZM3.52,3.11h0v1.25h1.26v-1.26h-1.26s0,0,0,0h0s1.25,0,1.25,0v1.24h-1.24v-1.25h0s0,0,0,0"/>
          <path class="st61" d="M4.77,4.36h.2v-.2h-.2v.2ZM4.98,4.37h-.22v-.22h.22v.22Z"/>
          <path class="st61" d="M4.98,4.36h.2v-.2h-.2v.2ZM5.19,4.37h-.22v-.22h.22v.22Z"/>
          <path class="st61" d="M5.19,4.36h.2v-.2h-.2v.2ZM5.4,4.37h-.22v-.22h.22v.22Z"/>
          <path class="st1" d="M6.43,4.15h-.83v-.83h.83v.83ZM5.39,4.36h1.25v-1.25h-1.25v1.25Z"/>
          <path class="st61" d="M6.43,4.15h0s-.83,0-.83,0v-.82h.82v.83h0s0,0,0,0h0v-.84h-.84v.84h.84s0,0,0,0ZM5.39,3.11h0v1.25h1.26v-1.26h-1.26s0,0,0,0h0s1.25,0,1.25,0v1.24h-1.24v-1.25h0s0,0,0,0"/>
          <polygon class="st46" points="5.39 2.49 5.08 2.8 4.77 2.49 5.39 2.49"/>
          <path class="st61" d="M4.78,2.49l.3.3.3-.3h-.6ZM5.08,2.81l-.32-.32h.65l-.32.32"/>
          <path class="st1" d="M5.15,4.26s-.03-.07-.07-.07-.07.03-.07.07.03.07.07.07.07-.03.07-.07"/>
          <path class="st61" d="M5.08,4.2s-.06.03-.06.06.03.06.06.06.06-.03.06-.06-.03-.06-.06-.06M5.08,4.33s-.07-.03-.07-.07.03-.07.07-.07.07.03.07.07-.03.07-.07.07"/>
          <path class="st17" d="M3.69,2.8s-.03-.07-.07-.07-.07.03-.07.07.03.07.07.07.07-.03.07-.07"/>
          <path class="st61" d="M3.62,2.74s-.06.03-.06.06.03.06.06.06.06-.03.06-.06-.03-.06-.06-.06M3.62,2.87s-.07-.03-.07-.07.03-.07.07-.07.07.03.07.07-.03.07-.07.07"/>
          <path class="st46" d="M5.15,1.34s-.03-.07-.07-.07-.07.03-.07.07.03.07.07.07.07-.03.07-.07"/>
          <path class="st61" d="M5.08,1.28s-.06.03-.06.06.03.06.06.06.06-.03.06-.06-.03-.06-.06-.06M5.08,1.41s-.07-.03-.07-.07.03-.07.07-.07.07.03.07.07-.03.07-.07.07"/>
          <path class="st48" d="M5.08,2.45s-.07-.03-.07-.07.03-.07.07-.07.07.03.07.07-.03.07-.07.07"/>
          <path class="st74" d="M4.25,2.87s-.04-.01-.05-.03c0,0,0,0,0,0,.03-.03.06-.07.09-.1.02.01.03.03.03.06,0,.04-.03.07-.07.07"/>
          <path class="st74" d="M4.46,2.87s-.07-.03-.07-.07.03-.07.07-.07.07.03.07.07-.03.07-.07.07"/>
          <path class="st74" d="M4.67,2.87s-.07-.03-.07-.07.03-.07.07-.07.07.03.07.07-.03.07-.07.07"/>
          <path class="st40" d="M5.08,4.11s-.07-.03-.07-.07.03-.07.07-.07.07.03.07.07-.03.07-.07.07"/>
          <path class="st40" d="M5.08,3.9s-.07-.03-.07-.07.03-.07.07-.07.07.03.07.07-.03.07-.07.07"/>
          <path class="st40" d="M4.87,3.9s-.07-.03-.07-.07.03-.07.07-.07.07.03.07.07-.03.07-.07.07"/>
          <path class="st40" d="M5.08,3.69s-.07-.03-.07-.07.03-.07.07-.07.07.03.07.07-.03.07-.07.07"/>
          <path class="st40" d="M5.08,3.49s-.07-.03-.07-.07.03-.07.07-.07.07.03.07.07-.03.07-.07.07"/>
          <path class="st40" d="M5.08,3.28s-.07-.03-.07-.07.03-.07.07-.07.07.03.07.07-.03.07-.07.07"/>
          <path class="st69" d="M6.33,2.86s-.07-.03-.07-.07.03-.07.07-.07.07.03.07.07-.03.07-.07.07"/>
          <path class="st69" d="M6.12,2.86s-.07-.03-.07-.07.03-.07.07-.07.07.03.07.07-.03.07-.07.07"/>
          <path class="st69" d="M6.12,3.07s-.07-.03-.07-.07.03-.07.07-.07.07.03.07.07-.03.07-.07.07"/>
          <path class="st69" d="M5.91,2.86s-.07-.03-.07-.07.03-.07.07-.07.07.03.07.07-.03.07-.07.07"/>
          <path class="st69" d="M5.7,2.86s-.07-.03-.07-.07.03-.07.07-.07.07.03.07.07-.03.07-.07.07"/>
          <path class="st69" d="M5.49,2.86s-.07-.03-.07-.07.03-.07.07-.07.07.03.07.07-.03.07-.07.07"/>
          <path class="st18" d="M6.6,2.8s-.03-.07-.07-.07-.07.03-.07.07.03.07.07.07.07-.03.07-.07"/>
          <path class="st61" d="M6.54,2.74s-.06.03-.06.06.03.06.06.06.06-.03.06-.06-.03-.06-.06-.06M6.54,2.87s-.07-.03-.07-.07.03-.07.07-.07.07.03.07.07-.03.07-.07.07"/>
          <path class="st26" d="M5.35,4.05s-.03-.07-.07-.07-.07.03-.07.07.03.07.07.07.07-.03.07-.07"/>
          <path class="st61" d="M5.29,3.99s-.06.03-.06.06.03.06.06.06.06-.03.06-.06-.03-.06-.06-.06M5.29,4.12s-.07-.03-.07-.07.03-.07.07-.07.07.03.07.07-.03.07-.07.07"/>
          <path class="st26" d="M3.89,3.01s-.03-.07-.07-.07-.07.03-.07.07.03.07.07.07.07-.03.07-.07"/>
          <path class="st61" d="M3.83,2.95s-.06.03-.06.06.03.06.06.06.06-.03.06-.06-.03-.06-.06-.06M3.83,3.08s-.07-.03-.07-.07.03-.07.07-.07.07.03.07.07-.03.07-.07.07"/>
          <path class="st26" d="M4.94,1.55s-.03-.07-.07-.07-.07.03-.07.07.03.07.07.07.07-.03.07-.07"/>
          <path class="st61" d="M4.87,1.49s-.06.03-.06.06.03.06.06.06.06-.03.06-.06-.03-.06-.06-.06M4.87,1.62s-.07-.03-.07-.07.03-.07.07-.07.07.03.07.07-.03.07-.07.07"/>
          <path class="st26" d="M6.4,2.59s-.03-.07-.07-.07-.07.03-.07.07.03.07.07.07.07-.03.07-.07"/>
          <path class="st61" d="M6.33,2.53s-.06.03-.06.06.03.06.06.06.06-.03.06-.06-.03-.06-.06-.06M6.33,2.66s-.07-.03-.07-.07.03-.07.07-.07.07.03.07.07-.03.07-.07.07"/>
          <path class="st50" d="M4.69,3.19h-.72s.02-.05.04-.07h.68v.07Z"/>
          <polygon class="st0" points="4.69 3.12 4.01 3.12 4.01 3.11 4.77 3.11 4.77 3.11 4.69 3.11 4.69 3.12"/>
          <polygon class="st73" points="5.47 4.28 5.4 4.28 5.4 3.12 6.56 3.12 6.56 3.19 5.47 3.19 5.47 4.28"/>
          <polygon class="st0" points="5.39 4.36 5.39 4.36 5.39 3.11 5.39 3.11 6.64 3.11 6.64 3.11 6.56 3.11 6.56 3.12 5.4 3.12 5.4 4.28 5.39 4.28 5.39 4.36"/>
          <path class="st52" d="M5.47,2.41h-.07v-.19s.05,0,.07,0h0v.19Z"/>
          <polygon class="st0" points="5.39 2.48 5.39 2.22 5.4 2.22 5.4 2.41 5.39 2.41 5.39 2.48 5.39 2.48"/>
          <path class="st69" d="M6.34,2.48h-.87v-.07h.76s0,0,0,0c.04.02.08.05.11.07"/>
          <polygon class="st38" points="5.59 2.49 5.4 2.49 5.4 2.49 5.47 2.49 5.47 2.48 5.6 2.48 5.59 2.48 5.59 2.49"/>
          <polygon class="st38" points="5.8 2.49 5.59 2.49 5.59 2.48 5.6 2.48 5.81 2.48 5.8 2.48 5.8 2.49"/>
          <polygon class="st38" points="6.01 2.49 5.8 2.49 5.8 2.48 5.81 2.48 6.02 2.48 6.01 2.48 6.01 2.49"/>
          <polygon class="st38" points="6.22 2.49 6.01 2.49 6.01 2.48 6.02 2.48 6.23 2.48 6.22 2.48 6.22 2.49"/>
          <polygon class="st38" points="6.35 2.49 6.22 2.49 6.22 2.48 6.23 2.48 6.34 2.48 6.35 2.49 6.35 2.49"/>
          <rect class="st38" x="5.39" y="2.49" width="0" height="0"/>
          <polygon class="st75" points="5.47 2.48 5.4 2.48 5.4 2.48 5.4 2.48 5.4 2.41 5.47 2.41 5.47 2.48"/>
          <rect class="st66" x="5.39" y="2.41" width="0" height=".07"/>
          <polygon class="st66" points="5.47 2.49 5.4 2.49 5.4 2.48 5.4 2.48 5.4 2.48 5.47 2.48 5.47 2.49"/>
          <polygon class="st66" points="5.4 2.48 5.39 2.48 5.39 2.48 5.4 2.48 5.4 2.48 5.4 2.48 5.4 2.48"/>
          <polygon class="st66" points="5.4 2.49 5.39 2.49 5.39 2.48 5.4 2.48 5.4 2.48 5.4 2.49"/>
          <polygon class="st40" points="6.64 4.36 5.47 4.36 5.47 4.28 6.56 4.28 6.56 3.19 6.64 3.19 6.64 4.36"/>
          <polygon class="st38" points="6.64 4.36 5.39 4.36 5.47 4.36 5.47 4.36 6.64 4.36 6.64 3.19 6.64 3.19 6.64 3.11 6.64 4.28 6.64 4.36 6.64 4.36"/>
          <rect class="st16" x="5.4" y="4.28" width=".07" height=".07"/>
          <polygon class="st66" points="5.47 4.36 5.39 4.36 5.39 4.28 5.4 4.28 5.4 4.36 5.47 4.36 5.47 4.36"/>
          <rect class="st16" x="6.56" y="3.12" width=".07" height=".07"/>
          <polygon class="st66" points="6.64 3.19 6.64 3.19 6.64 3.12 6.56 3.12 6.56 3.11 6.64 3.11 6.64 3.19"/>
          <path class="st48" d="M4.76,2.48h-.15s.1-.06.15-.09v.09"/>
          <polygon class="st38" points="4.76 2.48 4.76 2.48 4.76 2.4 4.76 2.4 4.76 2.48 4.76 2.48 4.76 2.48"/>
          <polygon class="st38" points="4.77 2.48 4.76 2.48 4.76 2.4 4.77 2.4 4.77 2.4 4.77 2.48"/>
          <polygon class="st38" points="4.76 2.49 4.6 2.49 4.6 2.49 4.61 2.48 4.76 2.48 4.76 2.48 4.76 2.48 4.75 2.48 4.76 2.49"/>
          <polygon class="st38" points="4.77 2.48 4.76 2.48 4.76 2.48 4.76 2.48 4.76 2.48 4.77 2.48 4.77 2.48"/>
          <polygon class="st38" points="4.77 2.49 4.76 2.49 4.75 2.48 4.76 2.48 4.77 2.48 4.77 2.49 4.77 2.49 4.77 2.49"/>
          <path class="st74" d="M4.76,4.36h-.95s0-.05-.01-.07h.89v-1.09h.07v1.17Z"/>
          <polygon class="st38" points="4.76 4.36 3.81 4.36 3.81 4.36 3.81 4.36 4.76 4.36 4.76 3.19 4.77 3.19 4.77 3.11 4.77 3.11 4.77 4.15 4.76 4.15 4.76 4.36"/>
          <polygon class="st38" points="4.77 4.36 4.76 4.36 4.76 4.15 4.77 4.15 4.77 4.36 4.77 4.36 4.77 4.36"/>
          <rect class="st51" x="4.69" y="3.12" width=".07" height=".07"/>
          <polygon class="st66" points="4.77 3.19 4.76 3.19 4.76 3.12 4.69 3.12 4.69 3.11 4.77 3.11 4.77 3.19"/>
          <path class="st73" d="M6.13,3.63s-.01,0-.02,0c-.01-.02-.02-.04-.02-.07,0-.06.05-.12.12-.12.03,0,.05,0,.07.02,0,0,0,.01,0,.02-.01,0-.03,0-.04,0-.07,0-.12.05-.12.12,0,.01,0,.03,0,.04"/>
          <path class="st0" d="M6.14,3.66s-.06-.06-.06-.1c0-.07.05-.12.12-.12.03,0,.05,0,.07.02,0,0,0,0,0,0,0,0,0,0,0,0-.02-.01-.04-.02-.07-.02-.06,0-.12.05-.12.12,0,.03,0,.05.02.07,0,0,0,0,0,0,0,.02.02.03.04.04,0,0,0,0,0,0"/>
          <path class="st73" d="M5.75,3.63s-.01,0-.02,0c-.01-.02-.02-.04-.02-.07,0-.06.05-.12.12-.12.03,0,.05,0,.07.02,0,0,0,.01,0,.02-.01,0-.03,0-.04,0-.07,0-.12.05-.12.12,0,.01,0,.03,0,.04"/>
          <path class="st0" d="M5.76,3.66s-.06-.06-.06-.1c0-.07.05-.12.12-.12.03,0,.05,0,.07.02,0,0,0,0,0,0,0,0,0,0,0,0-.02-.01-.04-.02-.07-.02-.06,0-.12.05-.12.12,0,.03,0,.05.02.07,0,0,0,0,0,0,0,.02.02.03.04.04,0,0,0,0,0,0"/>
          <path class="st73" d="M6.13,4s-.01,0-.02,0c-.01-.02-.02-.04-.02-.07,0-.06.05-.12.12-.12.03,0,.05,0,.07.02,0,0,0,.01,0,.02-.01,0-.03,0-.04,0-.07,0-.12.05-.12.12,0,.01,0,.03,0,.04"/>
          <path class="st0" d="M6.13,4.02s-.05-.06-.05-.1c0-.07.05-.12.12-.12.02,0,.05,0,.07.02,0,0,0,0,0,0-.02-.01-.04-.02-.07-.02-.06,0-.12.05-.12.12,0,.03,0,.05.02.07,0,0,0,0,0,0,0,.01.02.03.03.04"/>
          <path class="st73" d="M5.75,4s-.01,0-.02,0c-.01-.02-.02-.04-.02-.07,0-.06.05-.12.12-.12.03,0,.05,0,.07.02,0,0,0,.01,0,.02-.01,0-.03,0-.04,0-.07,0-.12.05-.12.12,0,.01,0,.03,0,.04"/>
          <path class="st0" d="M5.76,4.02s-.05-.06-.05-.1c0-.07.05-.12.12-.12.02,0,.05,0,.07.02,0,0,0,0,0,0-.02-.01-.04-.02-.07-.02-.06,0-.12.05-.12.12,0,.03,0,.05.02.07,0,0,0,0,0,0,0,.01.02.03.03.04"/>
          <path class="st40" d="M5.83,4.04s-.05,0-.07-.02c0,0,0-.01,0-.02.01,0,.03,0,.04,0,.07,0,.12-.05.12-.12,0-.01,0-.03,0-.04,0,0,.01,0,.02,0,.01.02.02.04.02.07,0,.06-.05.12-.12.12"/>
          <path class="st38" d="M5.83,4.04s-.05,0-.07-.02c0,0,0,0,0,0,0,0,0,0,0,0,.02.01.04.02.07.02.06,0,.12-.05.12-.12,0-.03,0-.05-.02-.07,0,0,0,0,0,0,0-.02-.02-.03-.04-.04,0,0,0,0,0,0,.03.02.06.06.06.1,0,.07-.05.12-.12.12"/>
          <path class="st16" d="M5.76,4.01s-.02-.01-.02-.02c0,0,.01,0,.02,0,0,0,0,.01,0,.02"/>
          <path class="st66" d="M5.76,4.02s0,0,0,0c-.01,0-.03-.02-.03-.04,0,0,0,0,0,0,0,0,.01.02.02.02,0,0,0,0,0,0"/>
          <path class="st16" d="M5.92,3.85s-.01,0-.02,0c0,0,0-.01,0-.02,0,0,.02.01.02.02"/>
          <path class="st66" d="M5.93,3.86s0,0,0,0c0,0-.01-.02-.02-.02,0,0,0,0,0,0,.02,0,.03.02.04.04"/>
          <path class="st40" d="M6.2,4.04s-.05,0-.07-.02c0,0,0-.01,0-.02.01,0,.03,0,.04,0,.07,0,.12-.05.12-.12,0-.01,0-.03,0-.04,0,0,.01,0,.02,0,.01.02.02.04.02.07,0,.06-.05.12-.12.12"/>
          <path class="st38" d="M6.2,4.04s-.05,0-.07-.02c0,0,0,0,0,0,0,0,0,0,0,0,.02.01.04.02.07.02.06,0,.12-.05.12-.12,0-.03,0-.05-.02-.07,0,0,0,0,0,0,0-.02-.02-.03-.04-.04,0,0,0,0,0,0,.03.02.06.06.06.1,0,.07-.05.12-.12.12"/>
          <path class="st16" d="M6.13,4.01s-.02-.01-.02-.02c0,0,.01,0,.02,0,0,0,0,.01,0,.02"/>
          <path class="st66" d="M6.14,4.02s0,0,0,0c-.01,0-.03-.02-.03-.04,0,0,0,0,0,0,0,0,.01.02.02.02,0,0,0,0,0,0"/>
          <path class="st16" d="M6.3,3.85s-.01,0-.02,0c0,0,0-.01,0-.02,0,0,.02.01.02.02"/>
          <path class="st66" d="M6.31,3.86s0,0,0,0c0,0-.01-.02-.02-.02,0,0,0,0,0,0,.02,0,.03.02.04.04"/>
          <path class="st40" d="M5.83,3.67s-.05,0-.07-.02c0,0,0-.01,0-.02.01,0,.03,0,.04,0,.07,0,.12-.05.12-.12,0-.01,0-.03,0-.04,0,0,.01,0,.02,0,.01.02.02.04.02.07,0,.06-.05.12-.12.12"/>
          <path class="st38" d="M5.83,3.68s-.05,0-.07-.02c0,0,0,0,0,0,.02.01.04.02.07.02.06,0,.12-.05.12-.12,0-.03,0-.05-.02-.07,0,0,0,0,0,0,0-.01-.02-.03-.03-.04.03.02.05.06.05.1,0,.07-.05.12-.12.12"/>
          <path class="st16" d="M5.76,3.65s-.02-.01-.02-.02c0,0,.01,0,.02,0,0,0,0,.01,0,.02"/>
          <path class="st66" d="M5.76,3.66s-.03-.02-.04-.04c0,0,0,0,0,0,0,0,.01.02.02.02,0,0,0,0,0,0"/>
          <path class="st16" d="M5.92,3.48s-.01,0-.02,0c0,0,0-.01,0-.02,0,0,.02.01.02.02"/>
          <path class="st66" d="M5.93,3.49s0,0,0,0c0,0-.01-.02-.02-.02,0,0,0,0,0,0,0,0,0,0,0,0,.01,0,.03.02.03.04"/>
          <path class="st40" d="M6.2,3.67s-.05,0-.07-.02c0,0,0-.01,0-.02.01,0,.03,0,.04,0,.07,0,.12-.05.12-.12,0-.01,0-.03,0-.04,0,0,.01,0,.02,0,.01.02.02.04.02.07,0,.06-.05.12-.12.12"/>
          <path class="st38" d="M6.2,3.68s-.05,0-.07-.02c0,0,0,0,0,0,.02.01.04.02.07.02.06,0,.12-.05.12-.12,0-.03,0-.05-.02-.07,0,0,0,0,0,0,0-.01-.02-.03-.03-.04.03.02.05.06.05.1,0,.07-.05.12-.12.12"/>
          <path class="st16" d="M6.13,3.65s-.02-.01-.02-.02c0,0,.01,0,.02,0,0,0,0,.01,0,.02"/>
          <path class="st66" d="M6.14,3.66s-.03-.02-.04-.04c0,0,0,0,0,0,0,0,.01.02.02.02,0,0,0,0,0,0"/>
          <path class="st16" d="M6.3,3.48s-.01,0-.02,0c0,0,0-.01,0-.02,0,0,.02.01.02.02"/>
          <path class="st66" d="M6.31,3.49s0,0,0,0c0,0-.01-.02-.02-.02,0,0,0,0,0,0,0,0,0,0,0,0,.01,0,.03.02.03.04"/>
          <path class="st50" d="M4.25,3.63s-.01,0-.02,0c-.01-.02-.02-.04-.02-.07,0-.06.05-.12.12-.12.03,0,.05,0,.07.02,0,0,0,.01,0,.02-.01,0-.03,0-.04,0-.07,0-.12.05-.12.12,0,.01,0,.03,0,.04"/>
          <path class="st0" d="M4.26,3.66s-.06-.06-.06-.1c0-.07.05-.12.12-.12.03,0,.05,0,.07.02,0,0,0,0,0,0,0,0,0,0,0,0-.02-.01-.04-.02-.07-.02-.06,0-.12.05-.12.12,0,.03,0,.05.02.07,0,0,0,0,0,0,0,.02.02.03.04.04,0,0,0,0,0,0"/>
          <path class="st50" d="M3.87,3.63s-.01,0-.02,0c-.01-.02-.02-.04-.02-.06,0-.03.01-.05.02-.08.02-.03.06-.05.1-.05.03,0,.05,0,.07.02,0,0,0,.01,0,.02-.01,0-.03,0-.04,0-.07,0-.12.05-.12.12,0,.01,0,.03,0,.04"/>
          <path class="st0" d="M3.89,3.66s-.05-.05-.05-.08h0s0,0,0-.01c0,.02.01.04.02.06,0,0,0,0,0,0,0,.02.02.03.04.04,0,0,0,0,0,0M3.86,3.49s0,0,0-.01h0s0,0,0,0c.02-.03.06-.04.09-.04.03,0,.05,0,.07.02,0,0,0,0,0,0,0,0,0,0,0,0-.02-.01-.04-.02-.07-.02-.04,0-.08.02-.1.05"/>
          <path class="st50" d="M4.25,4s-.01,0-.02,0c-.01-.02-.02-.04-.02-.07,0-.06.05-.12.12-.12.03,0,.05,0,.07.02,0,0,0,.01,0,.02-.01,0-.03,0-.04,0-.07,0-.12.05-.12.12,0,.01,0,.03,0,.04"/>
          <path class="st0" d="M4.26,4.02s-.05-.06-.05-.1c0-.07.05-.12.12-.12.02,0,.05,0,.07.02,0,0,0,0,0,0-.02-.01-.04-.02-.07-.02-.06,0-.12.05-.12.12,0,.03,0,.05.02.07,0,0,0,0,0,0,0,.01.02.03.03.04"/>
          <path class="st50" d="M3.87,4s-.01,0-.02,0c-.01-.02-.02-.04-.02-.07,0-.06.05-.12.12-.12.03,0,.05,0,.07.02,0,0,0,.01,0,.02-.01,0-.03,0-.04,0-.07,0-.12.05-.12.12,0,.01,0,.03,0,.04"/>
          <path class="st0" d="M3.88,4.02s-.05-.06-.05-.1c0-.07.05-.12.12-.12.02,0,.05,0,.07.02,0,0,0,0,0,0-.02-.01-.04-.02-.07-.02-.06,0-.12.05-.12.12,0,.03,0,.05.02.07,0,0,0,0,0,0,0,.01.02.03.03.04"/>
          <path class="st74" d="M3.95,4.04s-.05,0-.07-.02c0,0,0-.01,0-.02.01,0,.03,0,.04,0,.07,0,.12-.05.12-.12,0-.01,0-.03,0-.04,0,0,.01,0,.02,0,.01.02.02.04.02.07,0,.06-.05.12-.12.12"/>
          <path class="st38" d="M3.95,4.04s-.05,0-.07-.02c0,0,0,0,0,0,0,0,0,0,0,0,.02.01.04.02.07.02.06,0,.12-.05.12-.12,0-.03,0-.05-.02-.07,0,0,0,0,0,0,0-.02-.02-.03-.04-.04,0,0,0,0,0,0,.03.02.06.06.06.1,0,.07-.05.12-.12.12"/>
          <path class="st51" d="M3.88,4.01s-.02-.01-.02-.02c0,0,.01,0,.02,0,0,0,0,.01,0,.02"/>
          <path class="st66" d="M3.89,4.02s0,0,0,0c-.01,0-.03-.02-.03-.04,0,0,0,0,0,0,0,0,.01.02.02.02,0,0,0,0,0,0"/>
          <path class="st51" d="M4.05,3.85s-.01,0-.02,0c0,0,0-.01,0-.02,0,0,.02.01.02.02"/>
          <path class="st66" d="M4.06,3.86s0,0,0,0c0,0-.01-.02-.02-.02,0,0,0,0,0,0,.02,0,.03.02.04.04"/>
          <path class="st74" d="M4.33,4.04s-.05,0-.07-.02c0,0,0-.01,0-.02.01,0,.03,0,.04,0,.07,0,.12-.05.12-.12,0-.01,0-.03,0-.04,0,0,.01,0,.02,0,.01.02.02.04.02.07,0,.06-.05.12-.12.12"/>
          <path class="st38" d="M4.33,4.04s-.05,0-.07-.02c0,0,0,0,0,0,0,0,0,0,0,0,.02.01.04.02.07.02.06,0,.12-.05.12-.12,0-.03,0-.05-.02-.07,0,0,0,0,0,0,0-.02-.02-.03-.04-.04,0,0,0,0,0,0,.03.02.06.06.06.1,0,.07-.05.12-.12.12"/>
          <path class="st51" d="M4.26,4.01s-.02-.01-.02-.02c0,0,.01,0,.02,0,0,0,0,.01,0,.02"/>
          <path class="st66" d="M4.26,4.02s0,0,0,0c-.01,0-.03-.02-.03-.04,0,0,0,0,0,0,0,0,.01.02.02.02,0,0,0,0,0,0"/>
          <path class="st51" d="M4.42,3.85s-.01,0-.02,0c0,0,0-.01,0-.02,0,0,.02.01.02.02"/>
          <path class="st66" d="M4.43,3.86s0,0,0,0c0,0-.01-.02-.02-.02,0,0,0,0,0,0,.02,0,.03.02.04.04"/>
          <path class="st74" d="M3.95,3.67s-.05,0-.07-.02c0,0,0-.01,0-.02.01,0,.03,0,.04,0,.07,0,.12-.05.12-.12,0-.01,0-.03,0-.04,0,0,.01,0,.02,0,.01.02.02.04.02.07,0,.06-.05.12-.12.12"/>
          <path class="st38" d="M3.95,3.68s-.05,0-.07-.02c0,0,0,0,0,0,.02.01.04.02.07.02.06,0,.12-.05.12-.12,0-.03,0-.05-.02-.07,0,0,0,0,0,0,0-.01-.02-.03-.03-.04.03.02.05.06.05.1,0,.07-.05.12-.12.12"/>
          <path class="st51" d="M3.88,3.65s-.02-.01-.02-.02c0,0,.01,0,.02,0,0,0,0,.01,0,.02"/>
          <path class="st66" d="M3.89,3.66s-.03-.02-.04-.04c0,0,0,0,0,0,0,0,.01.02.02.02,0,0,0,0,0,0"/>
          <path class="st51" d="M4.05,3.48s-.01,0-.02,0c0,0,0-.01,0-.02,0,0,.02.01.02.02"/>
          <path class="st66" d="M4.06,3.49s0,0,0,0c0,0-.01-.02-.02-.02,0,0,0,0,0,0,0,0,0,0,0,0,.01,0,.03.02.03.04"/>
          <path class="st74" d="M4.33,3.67s-.05,0-.07-.02c0,0,0-.01,0-.02.01,0,.03,0,.04,0,.07,0,.12-.05.12-.12,0-.01,0-.03,0-.04,0,0,.01,0,.02,0,.01.02.02.04.02.07,0,.06-.05.12-.12.12"/>
          <path class="st38" d="M4.33,3.68s-.05,0-.07-.02c0,0,0,0,0,0,.02.01.04.02.07.02.06,0,.12-.05.12-.12,0-.03,0-.05-.02-.07,0,0,0,0,0,0,0-.01-.02-.03-.03-.04.03.02.05.06.05.1,0,.07-.05.12-.12.12"/>
          <path class="st51" d="M4.26,3.65s-.02-.01-.02-.02c0,0,.01,0,.02,0,0,0,0,.01,0,.02"/>
          <path class="st66" d="M4.26,3.66s-.03-.02-.04-.04c0,0,0,0,0,0,0,0,.01.02.02.02,0,0,0,0,0,0"/>
          <path class="st51" d="M4.42,3.48s-.01,0-.02,0c0,0,0-.01,0-.02,0,0,.02.01.02.02"/>
          <path class="st66" d="M4.43,3.49s0,0,0,0c0,0-.01-.02-.02-.02,0,0,0,0,0,0,0,0,0,0,0,0,.01,0,.03.02.03.04"/>
          <polygon class="st48" points="5.08 2.79 5.06 2.78 4.87 2.49 5.28 2.49 5.09 2.78 5.08 2.79"/>
          <path class="st38" d="M5.08,2.8v-.02s0,.01,0,.01h.01s-.01,0-.01,0ZM5.28,2.49h-.41s.42,0,.42,0h0"/>
          <polygon class="st74" points="4.77 3.01 4.77 2.6 5.06 2.79 5.07 2.8 5.06 2.81 4.77 3.01"/>
          <path class="st38" d="M4.77,3.01v-.42h0v.41h0ZM5.06,2.81h.01s0-.01,0-.01h-.02"/>
          <polygon class="st38" points="5.07 2.8 5.07 2.8 5.06 2.79 5.08 2.8 5.07 2.8"/>
          <polygon class="st40" points="5.28 3.11 5.19 3.11 4.98 3.11 4.87 3.11 5.06 2.82 5.08 2.81 5.09 2.82 5.28 3.11"/>
          <path class="st38" d="M5.09,2.82h-.01s0-.02,0-.02v.02ZM5.06,2.82h.01s-.01,0-.01,0"/>
          <polygon class="st38" points="5.06 2.82 5.08 2.8 5.08 2.81 5.06 2.82"/>
          <polygon class="st38" points="4.97 3.11 4.87 3.11 4.87 3.11 4.98 3.11 4.97 3.11 4.97 3.11"/>
          <polygon class="st38" points="5.18 3.11 4.97 3.11 4.97 3.11 4.98 3.11 5.19 3.11 5.18 3.11 5.18 3.11"/>
          <polygon class="st38" points="5.29 3.11 5.18 3.11 5.18 3.11 5.19 3.11 5.28 3.11 5.29 3.11"/>
          <polygon class="st38" points="5.08 2.81 5.08 2.81 5.08 2.8 5.08 2.8 5.08 2.8 5.08 2.81"/>
          <polygon class="st69" points="5.39 3.01 5.1 2.81 5.08 2.8 5.1 2.79 5.39 2.6 5.39 3.01"/>
          <path class="st38" d="M5.39,3.01h0v-.41h0s0,.3,0,.3h0v.11ZM5.1,2.81h-.01s.01-.03.01-.03h-.01s.01.03.01.03"/>
          <polygon class="st38" points="5.1 2.81 5.08 2.8 5.08 2.8 5.1 2.81"/>
          <polygon class="st38" points="5.08 2.8 5.08 2.8 5.08 2.8 5.08 2.8"/>
          <rect class="st38" x="5.33" y="2.95" width=".11" height="0" transform="translate(-.06 5.8) rotate(-56.36)"/>
          <polygon class="st38" points="5.08 2.8 5.08 2.8 5.1 2.79 5.08 2.8 5.08 2.8"/>
          <path class="st26" d="M3.84,4.5h-.46V1.09h3.41v1.87c-.04-.07-.09-.13-.14-.2v-.28h0v-1.25h-1.25s-.21,0-.21,0h-.43s-1.25,0-1.25,0h0v1.26h0v.62h0v1.26h.3s.02.09.03.14M4.01,3.11h-.07v-.2h.2c-.04.06-.08.12-.11.17,0,0-.01.02-.02.03M3.72,3.11h-.2v-.2h.2v.2ZM3.72,2.9h-.2v-.2h.2v.2ZM3.62,2.73s-.07.03-.07.07.03.07.07.07.07-.03.07-.07-.03-.07-.07-.07M6.64,2.76s-.03-.04-.05-.05h.05v.05M6.64,2.69h-.06s-.09-.09-.14-.13v-.07h.2v.2M4.34,2.69h-.19v-.2h.2v.19s0,0,0,0M3.93,2.69h-.2v-.2h.2v.2ZM3.72,2.69h-.2v-.2h.2v.2ZM4.35,2.68v-.18h.2v.03c-.07.05-.14.1-.2.16M4.56,2.51v-.02h.03s-.02.01-.03.02M4.77,2.39v-.11h.2v.03c-.07.02-.13.05-.2.08M4.97,2.27h-.2v-.2h.2v.2ZM5.19,2.25v-.17h.2v.15c-.07,0-.13.01-.2.03M5.39,2.07h-.2v-.2h.2v.2ZM4.97,2.07h-.2v-.2h.2v.2ZM4.97,1.86h-.2v-.2h.2v.2ZM5.39,1.65h-.2v-.2h.2v.2ZM5.39,1.44h-.2v-.2h.2v.2ZM5.18,1.44h-.2v-.2h.2v.2ZM5.08,1.27s-.07.03-.07.07.03.07.07.07.07-.03.07-.07-.03-.07-.07-.07M4.97,1.44h-.2v-.2h.2v.2Z"/>
          <polyline class="st49" points="3.84 4.51 3.37 4.51 3.37 1.09 6.79 1.09 6.79 2.97 6.79 2.96 6.79 1.09 3.37 1.09 3.37 4.5 3.84 4.5 3.84 4.51"/>
          <path class="st49" d="M4.97,1.44h-.2v-.21h0s.22,0,.22,0h0v.21ZM4.77,1.44h.2v-.2h-.2v.2Z"/>
          <path class="st49" d="M5.18,1.44h-.21v-.21h.22,0v.21ZM4.98,1.44h.2v-.2h-.2v.2Z"/>
          <polygon class="st49" points="5.39 1.44 5.19 1.44 5.18 1.44 5.18 1.23 5.19 1.23 5.4 1.23 5.4 1.23 5.39 1.23 5.39 1.24 5.39 1.24 5.19 1.24 5.19 1.44 5.39 1.44"/>
          <path class="st62" d="M4.97,1.65h-.2v-.2h.2v.2ZM4.87,1.48s-.07.03-.07.07.03.07.07.07.07-.03.07-.07-.03-.07-.07-.07"/>
          <path class="st49" d="M4.97,1.65h-.2v-.21h.21,0v.21ZM4.77,1.65h.2v-.2h-.2v.2Z"/>
          <path class="st62" d="M5.18,1.65h-.2v-.2h.2v.2ZM5.08,1.48s-.07.03-.07.07.03.07.07.07.07-.03.07-.07-.03-.07-.07-.07"/>
          <path class="st49" d="M5.18,1.65h-.21v-.21h.22,0v.21ZM4.98,1.65h.2v-.2h-.2v.2Z"/>
          <polygon class="st49" points="5.39 1.65 5.19 1.65 5.18 1.65 5.18 1.44 5.19 1.44 5.39 1.44 5.39 1.45 5.19 1.45 5.19 1.65 5.39 1.65"/>
          <path class="st49" d="M4.97,1.86h-.2v-.21h.21,0v.21ZM4.77,1.86h.2v-.2h-.2v.2Z"/>
          <path class="st62" d="M5.18,1.86h-.2v-.2h.2v.2ZM5.08,1.69s-.07.03-.07.07.03.07.07.07.07-.03.07-.07-.03-.07-.07-.07"/>
          <path class="st49" d="M5.18,1.86h-.21v-.21h.22,0v.21ZM4.98,1.86h.2v-.2h-.2v.2Z"/>
          <path class="st62" d="M5.39,1.86h-.2v-.2h.2v.2ZM5.29,1.69s-.07.03-.07.07.03.07.07.07.07-.03.07-.07-.03-.07-.07-.07"/>
          <polygon class="st49" points="5.39 1.86 5.19 1.86 5.18 1.86 5.18 1.65 5.19 1.65 5.39 1.65 5.39 1.66 5.19 1.66 5.19 1.86 5.39 1.86"/>
          <path class="st49" d="M4.97,2.07h-.2v-.21h.21,0v.21ZM4.77,2.07h.2v-.2h-.2v.2Z"/>
          <path class="st62" d="M5.18,2.07h-.2v-.2h.2v.2ZM5.08,1.9s-.07.03-.07.07.03.07.07.07.07-.03.07-.07-.03-.07-.07-.07"/>
          <path class="st49" d="M5.18,2.07h-.21v-.21h.22,0v.21ZM4.98,2.07h.2v-.2h-.2v.2Z"/>
          <polygon class="st49" points="5.39 2.07 5.19 2.07 5.18 2.07 5.18 1.86 5.19 1.86 5.39 1.86 5.39 1.87 5.19 1.87 5.19 2.07 5.39 2.07"/>
          <path class="st49" d="M4.97,2.27h-.2v-.21h.21,0v.21ZM4.77,2.27h.2v-.2h-.2v.2Z"/>
          <path class="st62" d="M5.08,2.27h-.1v-.2h.2v.18s-.06.01-.1.02M5.08,2.11s-.07.03-.07.07.03.07.07.07.07-.03.07-.07-.03-.07-.07-.07"/>
          <polygon class="st49" points="5.08 2.27 4.98 2.27 4.97 2.27 4.97 2.07 4.98 2.07 5.18 2.07 5.19 2.07 5.18 2.07 5.18 2.25 5.18 2.08 4.98 2.08 4.98 2.27 5.08 2.27"/>
          <polyline class="st49" points="5.18 2.25 5.18 2.07 5.19 2.07 5.39 2.07 5.39 2.08 5.19 2.08 5.19 2.25 5.18 2.25 5.18 2.25"/>
          <path class="st49" d="M3.51,2.49h0v-1.25h0s1.25,0,1.25,0h0v1.04h0v-1.04h-1.25v1.25h0ZM3.52,1.24h0s0,0,0,0"/>
          <polyline class="st49" points="4.77 2.4 4.77 2.27 4.77 2.27 4.97 2.27 4.98 2.27 4.97 2.27 4.97 2.31 4.97 2.28 4.77 2.28 4.77 2.39 4.77 2.4"/>
          <path class="st62" d="M4.98,2.31v-.02h.07s-.05.01-.07.02"/>
          <path class="st49" d="M4.97,2.31v-.04h.11s-.01,0-.02,0c0,0-.01,0-.02,0h-.07v.02s0,0,0,0c0,0,0,0,0,0"/>
          <path class="st49" d="M6.65,2.48h0v-1.25h-1.25v.98h0s0,0,0,0v-.15h0v-.21h0v-.21h0v-.21h0v-.21h0s0,0,0,0h1.25v1.25ZM5.39,1.24h0s0,0,0,0"/>
          <path class="st49" d="M3.51,2.7h0v-.21h0s0,0,0,0h0s.2,0,.2,0v.2h-.21ZM3.52,2.69h.2v-.2h-.2v.2Z"/>
          <path class="st49" d="M3.93,2.69h-.21v-.2h.21v.2ZM3.73,2.69h.2v-.2h-.2v.2Z"/>
          <path class="st29" d="M4.14,2.69h-.2v-.2h.2v.2ZM4.04,2.52s-.07.03-.07.07.03.07.07.07.07-.03.07-.07-.03-.07-.07-.07"/>
          <path class="st49" d="M4.14,2.69h-.21v-.2h.21v.2ZM3.94,2.69h.2v-.2h-.2v.2Z"/>
          <polygon class="st49" points="4.34 2.69 4.15 2.69 4.14 2.69 4.14 2.49 4.34 2.49 4.34 2.69 4.34 2.49 4.15 2.49 4.15 2.69 4.34 2.69"/>
          <polyline class="st49" points="4.34 2.69 4.34 2.49 4.55 2.49 4.55 2.52 4.55 2.49 4.35 2.49 4.35 2.68 4.35 2.68 4.34 2.69"/>
          <polyline class="st49" points="4.55 2.52 4.55 2.49 4.6 2.49 4.6 2.49 4.59 2.49 4.56 2.49 4.56 2.51 4.56 2.52 4.55 2.52"/>
          <path class="st53" d="M6.43,2.55s-.05-.04-.07-.06h.07v.06Z"/>
          <polygon class="st49" points="6.43 2.55 6.43 2.55 6.43 2.49 6.35 2.49 6.35 2.49 6.35 2.49 6.43 2.49 6.43 2.55"/>
          <polygon class="st49" points="6.65 2.69 6.58 2.69 6.64 2.69 6.64 2.49 6.44 2.49 6.44 2.56 6.43 2.55 6.43 2.55 6.43 2.49 6.64 2.49 6.64 2.49 6.64 2.48 6.65 2.48 6.65 2.48 6.65 2.69"/>
          <path class="st49" d="M3.51,2.91h0v-.21h0s.21,0,.21,0h0,0v.21h-.21ZM3.52,2.9h.2v-.2h-.2v.2Z"/>
          <path class="st29" d="M3.93,2.9h-.2v-.2h.2v.2ZM3.83,2.73s-.07.03-.07.07.03.07.07.07.07-.03.07-.07-.03-.07-.07-.07"/>
          <path class="st49" d="M3.93,2.9h-.21v-.21h.22,0v.21ZM3.73,2.9h.2v-.2h-.2v.2Z"/>
          <path class="st29" d="M4.14,2.9h-.2v-.2h.2v.2ZM4.04,2.73s-.07.03-.07.07.03.07.07.07.07-.03.07-.07-.03-.07-.07-.07"/>
          <path class="st49" d="M4.14,2.9h-.21v-.21h.22,0v.21ZM3.94,2.9h.2v-.2h-.2v.2Z"/>
          <path class="st29" d="M4.15,2.9h0v-.2h.18s-.03.03-.04.04c-.01,0-.02-.01-.04-.01-.04,0-.07.03-.07.07,0,.02,0,.03.01.04-.02.02-.03.04-.05.06"/>
          <polygon class="st49" points="4.15 2.9 4.15 2.9 4.14 2.9 4.14 2.69 4.15 2.69 4.34 2.69 4.33 2.7 4.33 2.7 4.15 2.7 4.15 2.9 4.15 2.9"/>
          <polygon class="st49" points="6.65 2.77 6.64 2.76 6.64 2.76 6.64 2.7 6.59 2.7 6.58 2.7 6.58 2.69 6.65 2.69 6.65 2.77"/>
          <path class="st49" d="M3.72,3.11h-.21v-.2h0s.21,0,.21,0h0,0v.21ZM3.52,3.11h.2v-.2h-.2v.2Z"/>
          <path class="st29" d="M3.93,3.11h-.2v-.2h.2v.2ZM3.83,2.94s-.07.03-.07.07.03.07.07.07.07-.03.07-.07-.03-.07-.07-.07"/>
          <path class="st49" d="M3.93,3.11h-.21v-.21h.22,0v.21ZM3.73,3.11h.2v-.2h-.2v.2Z"/>
          <polygon class="st49" points="4.01 3.11 3.93 3.11 3.93 2.9 3.94 2.9 4.14 2.9 4.15 2.9 4.14 2.9 4.14 2.92 4.14 2.91 3.94 2.91 3.94 3.11 4.01 3.11 4.01 3.11"/>
          <polyline class="st49" points="4.14 2.92 4.14 2.9 4.15 2.9 4.15 2.9 4.15 2.9 4.14 2.91 4.14 2.92"/>
          <path class="st26" d="M3.79,4.15h-.06v-.82h.18s-.03.09-.05.14c-.02.02-.04.05-.04.09,0,.01,0,.02,0,.03-.04.18-.06.37-.04.56"/>
          <path class="st49" d="M3.83,3.59s0-.02,0-.03c0-.04.01-.07.04-.09,0,0,0,0,0,.01-.02.02-.03.05-.03.08,0,0,0,.02,0,.02,0,0,0,0,0,.01"/>
          <path class="st26" d="M6.43,2.27h-.52c-.05-.02-.1-.03-.16-.04-.05,0-.1-.01-.15-.02v-.77h.82v.82ZM6.2,1.92c-.07,0-.13.06-.13.13s.06.13.13.13.13-.06.13-.13-.06-.13-.13-.13M5.83,1.92c-.07,0-.13.06-.13.13s.06.13.13.13.13-.06.13-.13-.06-.13-.13-.13M6.2,1.55c-.07,0-.13.06-.13.13s.06.13.13.13.13-.06.13-.13-.06-.13-.13-.13M5.83,1.55c-.07,0-.13.06-.13.13s.06.13.13.13.13-.06.13-.13-.06-.13-.13-.13"/>
          <path class="st49" d="M6.2,1.81c-.07,0-.13-.06-.13-.13s.06-.13.13-.13.13.06.13.13-.06.13-.13.13M6.14,1.78s.04.02.07.02c.07,0,.12-.05.12-.12,0-.04-.02-.08-.05-.1-.02-.01-.04-.02-.07-.02-.07,0-.12.05-.12.12,0,.04.02.08.06.1,0,0,0,0,0,0"/>
          <path class="st49" d="M5.83,1.81c-.07,0-.13-.06-.13-.13s.06-.13.13-.13.13.06.13.13-.06.13-.13.13M5.76,1.78s.04.02.07.02c.07,0,.12-.05.12-.12,0-.04-.02-.08-.05-.1-.02-.01-.04-.02-.07-.02-.07,0-.12.05-.12.12,0,.04.02.08.06.1,0,0,0,0,0,0"/>
          <path class="st49" d="M6.2,2.17c-.07,0-.13-.06-.13-.13s.06-.13.13-.13.13.06.13.13-.06.13-.13.13M6.13,2.15s.04.02.07.02c.07,0,.12-.05.12-.12,0-.04-.02-.08-.06-.1,0,0,0,0,0,0-.02-.01-.04-.02-.07-.02-.07,0-.12.05-.12.12,0,.04.02.08.05.1"/>
          <path class="st49" d="M5.83,2.17c-.07,0-.13-.06-.13-.13s.06-.13.13-.13.13.06.13.13-.06.13-.13.13M5.76,2.15s.04.02.07.02c.07,0,.12-.05.12-.12,0-.04-.02-.08-.06-.1,0,0,0,0,0,0-.02-.01-.04-.02-.07-.02-.07,0-.12.05-.12.12,0,.04.02.08.05.1"/>
          <path class="st53" d="M6.56,2.41h-.34c-.09-.05-.18-.09-.28-.13h.49v-.84h-.84v.78s-.06,0-.09,0c-.01,0-.02,0-.03,0v-.9h1.09v1.09Z"/>
          <path class="st49" d="M6.44,2.28h-.49s-.01,0-.02,0c0,0-.01,0-.02,0h.52v-.82h-.82v.77s0,0,0,0c0,0,0,0,0,0v-.78h.84v.84h0ZM6.43,2.28h0s0,0,0,0"/>
          <path class="st26" d="M4.55,2.27h-.82v-.82h.82v.82ZM4.33,1.92c-.07,0-.13.06-.13.13s.06.13.13.13.13-.06.13-.13-.06-.13-.13-.13M3.95,1.92c-.07,0-.13.06-.13.13s.06.13.13.13.13-.06.13-.13-.06-.13-.13-.13M4.33,1.55c-.07,0-.13.06-.13.13s.06.13.13.13.13-.06.13-.13-.06-.13-.13-.13M3.95,1.55c-.07,0-.13.06-.13.13s.06.13.13.13.13-.06.13-.13-.06-.13-.13-.13"/>
          <path class="st49" d="M4.33,1.81c-.07,0-.13-.06-.13-.13s.06-.13.13-.13.13.06.13.13-.06.13-.13.13M4.26,1.78s.04.02.07.02c.07,0,.12-.05.12-.12,0-.04-.02-.08-.05-.1-.02-.01-.04-.02-.07-.02-.07,0-.12.05-.12.12,0,.04.02.08.06.1,0,0,0,0,0,0"/>
          <path class="st49" d="M3.95,1.81c-.07,0-.13-.06-.13-.13s.06-.13.13-.13.13.06.13.13-.06.13-.13.13M3.89,1.78s.04.02.07.02c.07,0,.12-.05.12-.12,0-.04-.02-.08-.05-.1-.02-.01-.04-.02-.07-.02-.07,0-.12.05-.12.12,0,.04.02.08.06.1,0,0,0,0,0,0"/>
          <path class="st49" d="M4.33,2.17c-.07,0-.13-.06-.13-.13s.06-.13.13-.13.13.06.13.13-.06.13-.13.13M4.26,2.15s.04.02.07.02c.07,0,.12-.05.12-.12,0-.04-.02-.08-.06-.1,0,0,0,0,0,0-.02-.01-.04-.02-.07-.02-.07,0-.12.05-.12.12,0,.04.02.08.05.1"/>
          <path class="st49" d="M3.95,2.17c-.07,0-.13-.06-.13-.13s.06-.13.13-.13.13.06.13.13-.06.13-.13.13M3.88,2.15s.04.02.07.02c.07,0,.12-.05.12-.12,0-.04-.02-.08-.06-.1,0,0,0,0,0,0-.02-.01-.04-.02-.07-.02-.07,0-.12.05-.12.12,0,.04.02.08.05.1"/>
          <path class="st62" d="M4.69,2.41h-1.09v-1.09h1.09v1.09ZM3.72,2.28h0s.84,0,.84,0v-.84h-.84v.84h0s0,0,0,0h0"/>
          <path class="st49" d="M4.56,2.28h-.84s0,0,0,0h0s0,0,0,0v-.84h.84v.84ZM3.73,2.27h.82v-.82h-.82v.82Z"/>
          <path class="st62" d="M4.29,2.13s-.03,0-.04,0c0-.01,0-.03,0-.04,0-.07.05-.12.12-.12.01,0,.03,0,.04,0,0,.01,0,.03,0,.04,0,.07-.05.12-.12.12"/>
          <path class="st62" d="M3.91,2.13s-.03,0-.04,0c0-.01,0-.03,0-.04,0-.07.05-.12.12-.12.01,0,.03,0,.04,0,0,.01,0,.03,0,.04,0,.07-.05.12-.12.12"/>
          <path class="st62" d="M4.29,1.76s-.03,0-.04,0c0-.01,0-.03,0-.04,0-.07.05-.12.12-.12.01,0,.03,0,.04,0,0,.01,0,.03,0,.04,0,.07-.05.12-.12.12"/>
          <path class="st62" d="M3.91,1.76s-.03,0-.04,0c0-.01,0-.03,0-.04,0-.07.05-.12.12-.12.01,0,.03,0,.04,0,0,.01,0,.03,0,.04,0,.07-.05.12-.12.12"/>
          <path class="st29" d="M3.8,4.28h-.21v-1.09h.38s0,0,0,0c-.02.04-.04.08-.05.13h-.19v.84h.07s0,.08.01.13"/>
          <path class="st49" d="M3.81,4.37h-.3v-1.25h0s0,0,0,0h.5s0,0,0,0h-.49v1.25h.29s0,0,0,0M3.52,3.11h0s0,0,0,0M3.79,4.16h-.07v-.84h.19s0,0,0,0c0,0,0,0,0,0h-.18v.82h.06s0,0,0,0c0,0,0,0,0,0"/>
          <path class="st29" d="M3.62,2.86s-.06-.03-.06-.06.03-.06.06-.06.06.03.06.06-.03.06-.06.06"/>
          <path class="st49" d="M3.62,2.87s-.07-.03-.07-.07.03-.07.07-.07.07.03.07.07-.03.07-.07.07M3.62,2.74s-.06.03-.06.06.03.06.06.06.06-.03.06-.06-.03-.06-.06-.06"/>
          <path class="st62" d="M5.08,1.4s-.06-.03-.06-.06.03-.06.06-.06.06.03.06.06-.03.06-.06.06"/>
          <path class="st49" d="M5.08,1.41s-.07-.03-.07-.07.03-.07.07-.07.07.03.07.07-.03.07-.07.07M5.08,1.28s-.06.03-.06.06.03.06.06.06.06-.03.06-.06-.03-.06-.06-.06"/>
          <path class="st57" d="M5.08,1.62s-.07-.03-.07-.07.03-.07.07-.07.07.03.07.07-.03.07-.07.07"/>
          <path class="st57" d="M5.08,1.83s-.07-.03-.07-.07.03-.07.07-.07.07.03.07.07-.03.07-.07.07"/>
          <path class="st57" d="M5.29,1.83s-.07-.03-.07-.07.03-.07.07-.07.07.03.07.07-.03.07-.07.07"/>
          <path class="st57" d="M5.08,2.03s-.07-.03-.07-.07.03-.07.07-.07.07.03.07.07-.03.07-.07.07"/>
          <path class="st57" d="M5.08,2.24s-.07-.03-.07-.07.03-.07.07-.07.07.03.07.07-.03.07-.07.07"/>
          <path class="st59" d="M3.83,2.87s-.07-.03-.07-.07.03-.07.07-.07.07.03.07.07-.03.07-.07.07"/>
          <path class="st59" d="M4.04,2.87s-.07-.03-.07-.07.03-.07.07-.07.07.03.07.07-.03.07-.07.07"/>
          <path class="st59" d="M4.04,2.66s-.07-.03-.07-.07.03-.07.07-.07.07.03.07.07-.03.07-.07.07"/>
          <path class="st59" d="M4.2,2.84s-.01-.03-.01-.04c0-.04.03-.07.07-.07.01,0,.03,0,.04.01-.03.03-.06.06-.09.1,0,0,0,0,0,0"/>
          <path class="st26" d="M3.83,3.07s-.06-.03-.06-.06.03-.06.06-.06.06.03.06.06-.03.06-.06.06"/>
          <path class="st49" d="M3.83,3.08s-.07-.03-.07-.07.03-.07.07-.07.07.03.07.07-.03.07-.07.07M3.83,2.95s-.06.03-.06.06.03.06.06.06.06-.03.06-.06-.03-.06-.06-.06"/>
          <path class="st26" d="M4.87,1.61s-.06-.03-.06-.06.03-.06.06-.06.06.03.06.06-.03.06-.06.06"/>
          <path class="st49" d="M4.87,1.62s-.07-.03-.07-.07.03-.07.07-.07.07.03.07.07-.03.07-.07.07M4.87,1.49s-.06.03-.06.06.03.06.06.06.06-.03.06-.06-.03-.06-.06-.06"/>
          <path class="st34" d="M3.59,4.28h-.07v-1.17h.49s-.03.05-.04.07h-.38v1.09Z"/>
          <polygon class="st60" points="3.52 4.36 3.52 4.36 3.52 3.19 3.52 3.11 3.52 3.11 4.01 3.11 4.01 3.12 3.52 3.12 3.52 4.28 3.52 4.28 3.52 4.36"/>
          <polygon class="st63" points="3.59 2.41 3.52 2.41 3.52 1.24 4.69 1.24 4.69 1.32 3.59 1.32 3.59 2.41"/>
          <polygon class="st60" points="3.52 2.48 3.52 2.48 3.52 1.32 3.52 1.24 3.52 1.24 4.77 1.24 4.69 1.24 4.69 1.24 3.52 1.24 3.52 2.41 3.52 2.41 3.52 2.48"/>
          <path class="st47" d="M5.4,2.22v-.98h1.17v.07h-1.09v.9h0s-.05,0-.07,0"/>
          <polyline class="st60" points="5.39 2.22 5.39 1.24 5.39 1.24 6.64 1.24 6.56 1.24 6.56 1.24 5.4 1.24 5.4 2.22 5.39 2.22"/>
          <path class="st54" d="M6.64,2.48h-.3s-.07-.05-.11-.07c0,0,0,0,0,0h.34v-1.09h.07v1.17"/>
          <polygon class="st55" points="6.64 2.48 6.64 2.48 6.64 1.32 6.64 1.32 6.64 1.24 6.64 2.41 6.64 2.48"/>
          <polygon class="st55" points="6.43 2.49 6.35 2.49 6.35 2.49 6.34 2.48 6.44 2.48 6.43 2.48 6.43 2.49"/>
          <polygon class="st55" points="6.64 2.49 6.43 2.49 6.43 2.48 6.44 2.48 6.64 2.48 6.64 2.48 6.64 2.49 6.64 2.49"/>
          <rect class="st45" x="6.56" y="1.24" width=".07" height=".07"/>
          <polygon class="st25" points="6.64 1.32 6.64 1.32 6.64 1.24 6.56 1.24 6.56 1.24 6.64 1.24 6.64 1.32"/>
          <path class="st57" d="M4.61,2.48h-1.02v-.07h1.09v-1.09h.07v1.08c-.05.03-.1.05-.15.09"/>
          <polyline class="st55" points="4.76 2.4 4.76 1.32 4.77 1.32 4.77 1.24 4.77 1.24 4.77 2.27 4.76 2.27 4.76 2.4 4.76 2.4"/>
          <polyline class="st55" points="4.76 2.4 4.76 2.27 4.77 2.27 4.77 2.4 4.77 2.4 4.76 2.4"/>
          <polygon class="st55" points="3.72 2.49 3.52 2.49 3.52 2.49 3.59 2.49 3.59 2.48 3.73 2.48 3.72 2.48 3.72 2.49"/>
          <polygon class="st55" points="3.93 2.49 3.72 2.49 3.72 2.48 3.73 2.48 3.94 2.48 3.93 2.48 3.93 2.49"/>
          <polygon class="st55" points="4.14 2.49 3.93 2.49 3.93 2.48 3.94 2.48 4.15 2.48 4.14 2.48 4.14 2.49"/>
          <polygon class="st55" points="4.34 2.49 4.14 2.49 4.14 2.48 4.15 2.48 4.35 2.48 4.34 2.48 4.34 2.49"/>
          <polygon class="st55" points="4.55 2.49 4.34 2.49 4.34 2.48 4.35 2.48 4.56 2.48 4.55 2.48 4.55 2.49"/>
          <polygon class="st55" points="4.6 2.49 4.55 2.49 4.55 2.48 4.56 2.48 4.61 2.48 4.6 2.49 4.6 2.49"/>
          <rect class="st71" x="3.52" y="2.41" width=".07" height=".07"/>
          <polyline class="st25" points="3.52 2.48 3.52 2.48 3.52 2.41 3.52 2.41 3.52 2.48"/>
          <polygon class="st25" points="3.59 2.49 3.52 2.49 3.52 2.48 3.52 2.48 3.59 2.48 3.59 2.49"/>
          <rect class="st71" x="4.69" y="1.24" width=".07" height=".07"/>
          <polygon class="st25" points="4.77 1.32 4.76 1.32 4.76 1.24 4.69 1.24 4.69 1.24 4.77 1.24 4.77 1.32"/>
          <path class="st59" d="M3.81,4.36h-.22v-.07h.21s0,.05.01.07"/>
          <polygon class="st55" points="3.81 4.36 3.52 4.36 3.59 4.36 3.59 4.36 3.81 4.36 3.81 4.36 3.81 4.36"/>
          <rect class="st19" x="3.52" y="4.28" width=".07" height=".07"/>
          <polygon class="st25" points="3.59 4.36 3.52 4.36 3.52 4.28 3.52 4.28 3.52 4.36 3.59 4.36 3.59 4.36"/>
          <path class="st63" d="M4.25,1.76s-.01,0-.02,0c-.01-.02-.02-.04-.02-.07,0-.06.05-.12.12-.12.03,0,.05,0,.07.02,0,0,0,.01,0,.02-.01,0-.03,0-.04,0-.07,0-.12.05-.12.12,0,.01,0,.03,0,.04"/>
          <path class="st60" d="M4.26,1.78s-.06-.06-.06-.1c0-.07.05-.12.12-.12.03,0,.05,0,.07.02,0,0,0,0,0,0,0,0,0,0,0,0-.02-.01-.04-.02-.07-.02-.06,0-.12.05-.12.12,0,.03,0,.05.02.07,0,0,0,0,0,0,0,.02.02.03.04.04,0,0,0,0,0,0"/>
          <path class="st63" d="M3.87,1.76s-.01,0-.02,0c-.01-.02-.02-.04-.02-.07,0-.06.05-.12.12-.12.03,0,.05,0,.07.02,0,0,0,.01,0,.02-.01,0-.03,0-.04,0-.07,0-.12.05-.12.12,0,.01,0,.03,0,.04"/>
          <path class="st60" d="M3.89,1.78s-.06-.06-.06-.1c0-.07.05-.12.12-.12.03,0,.05,0,.07.02,0,0,0,0,0,0,0,0,0,0,0,0-.02-.01-.04-.02-.07-.02-.06,0-.12.05-.12.12,0,.03,0,.05.02.07,0,0,0,0,0,0,0,.02.02.03.04.04,0,0,0,0,0,0"/>
          <path class="st63" d="M4.25,2.12s-.01,0-.02,0c-.01-.02-.02-.04-.02-.07,0-.06.05-.12.12-.12.03,0,.05,0,.07.02,0,0,0,.01,0,.02-.01,0-.03,0-.04,0-.07,0-.12.05-.12.12,0,.01,0,.03,0,.04"/>
          <path class="st60" d="M4.26,2.15s-.05-.06-.05-.1c0-.07.05-.12.12-.12.02,0,.05,0,.07.02,0,0,0,0,0,0-.02-.01-.04-.02-.07-.02-.06,0-.12.05-.12.12,0,.03,0,.05.02.07,0,0,0,0,0,0,0,.01.02.03.03.04"/>
          <path class="st63" d="M3.87,2.12s-.01,0-.02,0c-.01-.02-.02-.04-.02-.07,0-.06.05-.12.12-.12.03,0,.05,0,.07.02,0,0,0,.01,0,.02-.01,0-.03,0-.04,0-.07,0-.12.05-.12.12,0,.01,0,.03,0,.04"/>
          <path class="st60" d="M3.88,2.15s-.05-.06-.05-.1c0-.07.05-.12.12-.12.02,0,.05,0,.07.02,0,0,0,0,0,0-.02-.01-.04-.02-.07-.02-.06,0-.12.05-.12.12,0,.03,0,.05.02.07,0,0,0,0,0,0,0,.01.02.03.03.04"/>
          <path class="st53" d="M6.17,2.13s-.03,0-.04,0c0-.01,0-.03,0-.04,0-.07.05-.12.12-.12.01,0,.03,0,.04,0,0,.01,0,.03,0,.04,0,.07-.05.12-.12.12"/>
          <path class="st53" d="M5.79,2.13s-.03,0-.04,0c0-.01,0-.03,0-.04,0-.07.05-.12.12-.12.01,0,.03,0,.04,0,0,.01,0,.03,0,.04,0,.07-.05.12-.12.12"/>
          <path class="st53" d="M6.17,1.76s-.03,0-.04,0c0-.01,0-.03,0-.04,0-.07.05-.12.12-.12.01,0,.03,0,.04,0,0,.01,0,.03,0,.04,0,.07-.05.12-.12.12"/>
          <path class="st53" d="M5.79,1.76s-.03,0-.04,0c0-.01,0-.03,0-.04,0-.07.05-.12.12-.12.01,0,.03,0,.04,0,0,.01,0,.03,0,.04,0,.07-.05.12-.12.12"/>
          <path class="st57" d="M3.95,2.16s-.05,0-.07-.02c0,0,0-.01,0-.02.01,0,.03,0,.04,0,.07,0,.12-.05.12-.12,0-.01,0-.03,0-.04,0,0,.01,0,.02,0,.01.02.02.04.02.07,0,.06-.05.12-.12.12"/>
          <path class="st55" d="M3.95,2.17s-.05,0-.07-.02c0,0,0,0,0,0,0,0,0,0,0,0,.02.01.04.02.07.02.06,0,.12-.05.12-.12,0-.03,0-.05-.02-.07,0,0,0,0,0,0,0-.02-.02-.03-.04-.04,0,0,0,0,0,0,.03.02.06.06.06.1,0,.07-.05.12-.12.12"/>
          <path class="st71" d="M3.88,2.14s-.02-.01-.02-.02c0,0,.01,0,.02,0,0,0,0,.01,0,.02"/>
          <path class="st25" d="M3.89,2.15s0,0,0,0c-.01,0-.03-.02-.03-.04,0,0,0,0,0,0,0,0,.01.02.02.02,0,0,0,0,0,0"/>
          <path class="st71" d="M4.05,1.98s-.01,0-.02,0c0,0,0-.01,0-.02,0,0,.02.01.02.02"/>
          <path class="st25" d="M4.06,1.98s0,0,0,0c0,0-.01-.02-.02-.02,0,0,0,0,0,0,.02,0,.03.02.04.04"/>
          <path class="st57" d="M4.33,2.16s-.05,0-.07-.02c0,0,0-.01,0-.02.01,0,.03,0,.04,0,.07,0,.12-.05.12-.12,0-.01,0-.03,0-.04,0,0,.01,0,.02,0,.01.02.02.04.02.07,0,.06-.05.12-.12.12"/>
          <path class="st55" d="M4.33,2.17s-.05,0-.07-.02c0,0,0,0,0,0,0,0,0,0,0,0,.02.01.04.02.07.02.06,0,.12-.05.12-.12,0-.03,0-.05-.02-.07,0,0,0,0,0,0,0-.02-.02-.03-.04-.04,0,0,0,0,0,0,.03.02.06.06.06.1,0,.07-.05.12-.12.12"/>
          <path class="st71" d="M4.26,2.14s-.02-.01-.02-.02c0,0,.01,0,.02,0,0,0,0,.01,0,.02"/>
          <path class="st25" d="M4.26,2.15s0,0,0,0c-.01,0-.03-.02-.03-.04,0,0,0,0,0,0,0,0,.01.02.02.02,0,0,0,0,0,0"/>
          <path class="st71" d="M4.42,1.98s-.01,0-.02,0c0,0,0-.01,0-.02,0,0,.02.01.02.02"/>
          <path class="st25" d="M4.43,1.98s0,0,0,0c0,0-.01-.02-.02-.02,0,0,0,0,0,0,.02,0,.03.02.04.04"/>
          <path class="st57" d="M3.95,1.8s-.05,0-.07-.02c0,0,0-.01,0-.02.01,0,.03,0,.04,0,.07,0,.12-.05.12-.12,0-.01,0-.03,0-.04,0,0,.01,0,.02,0,.01.02.02.04.02.07,0,.06-.05.12-.12.12"/>
          <path class="st55" d="M3.95,1.8s-.05,0-.07-.02c0,0,0,0,0,0,.02.01.04.02.07.02.06,0,.12-.05.12-.12,0-.03,0-.05-.02-.07,0,0,0,0,0,0,0-.01-.02-.03-.03-.04.03.02.05.06.05.1,0,.07-.05.12-.12.12"/>
          <path class="st71" d="M3.88,1.77s-.02-.01-.02-.02c0,0,.01,0,.02,0,0,0,0,.01,0,.02"/>
          <path class="st25" d="M3.89,1.78s-.03-.02-.04-.04c0,0,0,0,0,0,0,0,.01.02.02.02,0,0,0,0,0,0"/>
          <path class="st71" d="M4.05,1.61s-.01,0-.02,0c0,0,0-.01,0-.02,0,0,.02.01.02.02"/>
          <path class="st25" d="M4.06,1.61s0,0,0,0c0,0-.01-.02-.02-.02,0,0,0,0,0,0,0,0,0,0,0,0,.01,0,.03.02.03.04"/>
          <path class="st57" d="M4.33,1.8s-.05,0-.07-.02c0,0,0-.01,0-.02.01,0,.03,0,.04,0,.07,0,.12-.05.12-.12,0-.01,0-.03,0-.04,0,0,.01,0,.02,0,.01.02.02.04.02.07,0,.06-.05.12-.12.12"/>
          <path class="st55" d="M4.33,1.8s-.05,0-.07-.02c0,0,0,0,0,0,.02.01.04.02.07.02.06,0,.12-.05.12-.12,0-.03,0-.05-.02-.07,0,0,0,0,0,0,0-.01-.02-.03-.03-.04.03.02.05.06.05.1,0,.07-.05.12-.12.12"/>
          <path class="st71" d="M4.26,1.77s-.02-.01-.02-.02c0,0,.01,0,.02,0,0,0,0,.01,0,.02"/>
          <path class="st25" d="M4.26,1.78s-.03-.02-.04-.04c0,0,0,0,0,0,0,0,.01.02.02.02,0,0,0,0,0,0"/>
          <path class="st71" d="M4.42,1.61s-.01,0-.02,0c0,0,0-.01,0-.02,0,0,.02.01.02.02"/>
          <path class="st25" d="M4.43,1.61s0,0,0,0c0,0-.01-.02-.02-.02,0,0,0,0,0,0,0,0,0,0,0,0,.01,0,.03.02.03.04"/>
          <path class="st47" d="M6.13,1.76s-.01,0-.02,0c-.01-.02-.02-.04-.02-.07,0-.06.05-.12.12-.12.03,0,.05,0,.07.02,0,0,0,.01,0,.02-.01,0-.03,0-.04,0-.07,0-.12.05-.12.12,0,.01,0,.03,0,.04"/>
          <path class="st60" d="M6.14,1.78s-.06-.06-.06-.1c0-.07.05-.12.12-.12.03,0,.05,0,.07.02,0,0,0,0,0,0,0,0,0,0,0,0-.02-.01-.04-.02-.07-.02-.06,0-.12.05-.12.12,0,.03,0,.05.02.07,0,0,0,0,0,0,0,.02.02.03.04.04,0,0,0,0,0,0"/>
          <path class="st47" d="M5.75,1.76s-.01,0-.02,0c-.01-.02-.02-.04-.02-.07,0-.06.05-.12.12-.12.03,0,.05,0,.07.02,0,0,0,.01,0,.02-.01,0-.03,0-.04,0-.07,0-.12.05-.12.12,0,.01,0,.03,0,.04"/>
          <path class="st60" d="M5.76,1.78s-.06-.06-.06-.1c0-.07.05-.12.12-.12.03,0,.05,0,.07.02,0,0,0,0,0,0,0,0,0,0,0,0-.02-.01-.04-.02-.07-.02-.06,0-.12.05-.12.12,0,.03,0,.05.02.07,0,0,0,0,0,0,0,.02.02.03.04.04,0,0,0,0,0,0"/>
          <path class="st47" d="M6.13,2.12s-.01,0-.02,0c-.01-.02-.02-.04-.02-.07,0-.06.05-.12.12-.12.03,0,.05,0,.07.02,0,0,0,.01,0,.02-.01,0-.03,0-.04,0-.07,0-.12.05-.12.12,0,.01,0,.03,0,.04"/>
          <path class="st60" d="M6.13,2.15s-.05-.06-.05-.1c0-.07.05-.12.12-.12.02,0,.05,0,.07.02,0,0,0,0,0,0-.02-.01-.04-.02-.07-.02-.06,0-.12.05-.12.12,0,.03,0,.05.02.07,0,0,0,0,0,0,0,.01.02.03.03.04"/>
          <path class="st47" d="M5.75,2.12s-.01,0-.02,0c-.01-.02-.02-.04-.02-.07,0-.06.05-.12.12-.12.03,0,.05,0,.07.02,0,0,0,.01,0,.02-.01,0-.03,0-.04,0-.07,0-.12.05-.12.12,0,.01,0,.03,0,.04"/>
          <path class="st60" d="M5.76,2.15s-.05-.06-.05-.1c0-.07.05-.12.12-.12.02,0,.05,0,.07.02,0,0,0,0,0,0-.02-.01-.04-.02-.07-.02-.06,0-.12.05-.12.12,0,.03,0,.05.02.07,0,0,0,0,0,0,0,.01.02.03.03.04"/>
          <path class="st54" d="M5.83,2.16s-.05,0-.07-.02c0,0,0-.01,0-.02.01,0,.03,0,.04,0,.07,0,.12-.05.12-.12,0-.01,0-.03,0-.04,0,0,.01,0,.02,0,.01.02.02.04.02.07,0,.06-.05.12-.12.12"/>
          <path class="st55" d="M5.83,2.17s-.05,0-.07-.02c0,0,0,0,0,0,0,0,0,0,0,0,.02.01.04.02.07.02.06,0,.12-.05.12-.12,0-.03,0-.05-.02-.07,0,0,0,0,0,0,0-.02-.02-.03-.04-.04,0,0,0,0,0,0,.03.02.06.06.06.1,0,.07-.05.12-.12.12"/>
          <path class="st45" d="M5.76,2.14s-.02-.01-.02-.02c0,0,.01,0,.02,0,0,0,0,.01,0,.02"/>
          <path class="st25" d="M5.76,2.15s0,0,0,0c-.01,0-.03-.02-.03-.04,0,0,0,0,0,0,0,0,.01.02.02.02,0,0,0,0,0,0"/>
          <path class="st45" d="M5.92,1.98s-.01,0-.02,0c0,0,0-.01,0-.02,0,0,.02.01.02.02"/>
          <path class="st25" d="M5.93,1.98s0,0,0,0c0,0-.01-.02-.02-.02,0,0,0,0,0,0,.02,0,.03.02.04.04"/>
          <path class="st54" d="M6.2,2.16s-.05,0-.07-.02c0,0,0-.01,0-.02.01,0,.03,0,.04,0,.07,0,.12-.05.12-.12,0-.01,0-.03,0-.04,0,0,.01,0,.02,0,.01.02.02.04.02.07,0,.06-.05.12-.12.12"/>
          <path class="st55" d="M6.2,2.17s-.05,0-.07-.02c0,0,0,0,0,0,0,0,0,0,0,0,.02.01.04.02.07.02.06,0,.12-.05.12-.12,0-.03,0-.05-.02-.07,0,0,0,0,0,0,0-.02-.02-.03-.04-.04,0,0,0,0,0,0,.03.02.06.06.06.1,0,.07-.05.12-.12.12"/>
          <path class="st45" d="M6.13,2.14s-.02-.01-.02-.02c0,0,.01,0,.02,0,0,0,0,.01,0,.02"/>
          <path class="st25" d="M6.14,2.15s0,0,0,0c-.01,0-.03-.02-.03-.04,0,0,0,0,0,0,0,0,.01.02.02.02,0,0,0,0,0,0"/>
          <path class="st45" d="M6.3,1.98s-.01,0-.02,0c0,0,0-.01,0-.02,0,0,.02.01.02.02"/>
          <path class="st25" d="M6.31,1.98s0,0,0,0c0,0-.01-.02-.02-.02,0,0,0,0,0,0,.02,0,.03.02.04.04"/>
          <path class="st54" d="M5.83,1.8s-.05,0-.07-.02c0,0,0-.01,0-.02.01,0,.03,0,.04,0,.07,0,.12-.05.12-.12,0-.01,0-.03,0-.04,0,0,.01,0,.02,0,.01.02.02.04.02.07,0,.06-.05.12-.12.12"/>
          <path class="st55" d="M5.83,1.8s-.05,0-.07-.02c0,0,0,0,0,0,.02.01.04.02.07.02.06,0,.12-.05.12-.12,0-.03,0-.05-.02-.07,0,0,0,0,0,0,0-.01-.02-.03-.03-.04.03.02.05.06.05.1,0,.07-.05.12-.12.12"/>
          <path class="st45" d="M5.76,1.77s-.02-.01-.02-.02c0,0,.01,0,.02,0,0,0,0,.01,0,.02"/>
          <path class="st25" d="M5.76,1.78s-.03-.02-.04-.04c0,0,0,0,0,0,0,0,.01.02.02.02,0,0,0,0,0,0"/>
          <path class="st45" d="M5.92,1.61s-.01,0-.02,0c0,0,0-.01,0-.02,0,0,.02.01.02.02"/>
          <path class="st25" d="M5.93,1.61s0,0,0,0c0,0-.01-.02-.02-.02,0,0,0,0,0,0,0,0,0,0,0,0,.01,0,.03.02.03.04"/>
          <path class="st54" d="M6.2,1.8s-.05,0-.07-.02c0,0,0-.01,0-.02.01,0,.03,0,.04,0,.07,0,.12-.05.12-.12,0-.01,0-.03,0-.04,0,0,.01,0,.02,0,.01.02.02.04.02.07,0,.06-.05.12-.12.12"/>
          <path class="st55" d="M6.2,1.8s-.05,0-.07-.02c0,0,0,0,0,0,.02.01.04.02.07.02.06,0,.12-.05.12-.12,0-.03,0-.05-.02-.07,0,0,0,0,0,0,0-.01-.02-.03-.03-.04.03.02.05.06.05.1,0,.07-.05.12-.12.12"/>
          <path class="st45" d="M6.13,1.77s-.02-.01-.02-.02c0,0,.01,0,.02,0,0,0,0,.01,0,.02"/>
          <path class="st25" d="M6.14,1.78s-.03-.02-.04-.04c0,0,0,0,0,0,0,0,.01.02.02.02,0,0,0,0,0,0"/>
          <path class="st45" d="M6.3,1.61s-.01,0-.02,0c0,0,0-.01,0-.02,0,0,.02.01.02.02"/>
          <path class="st25" d="M6.31,1.61s0,0,0,0c0,0-.01-.02-.02-.02,0,0,0,0,0,0,0,0,0,0,0,0,.01,0,.03.02.03.04"/>
          <path class="st34" d="M3.84,3.57s0,0,0-.01c0-.02,0-.05.02-.07,0,.03-.01.05-.02.08"/>
          <path class="st60" d="M3.83,3.58s0-.02,0-.02c0-.03.01-.06.03-.08,0,0,0,0,0,0h0s0,0,0,.01c-.01.02-.02.04-.02.07,0,0,0,0,0,.01,0,0,0,0,0,.01h0Z"/>
        </g>
        <path class="st65" d="M6.66,1.19v3.16h-3.16V1.19h3.16M6.78,1.07h-3.41v3.41h3.41V1.07h0Z"/>
      </g>
      <g id="_x28__x2F_techno_x2F_math_x2F_shapes_x2F_level1_x2F_square_x2F_chessboard.mp3_x29_1" data-name="_x28__x2F_techno_x2F_math_x2F_shapes_x2F_level1_x2F_square_x2F_chessboard.mp3_x29_">
        <g>
          <path class="st26" d="M6.87,10.21v-3.28c0-.06-.05-.12-.12-.12h-3.28c-.06,0-.12.05-.12.12v3.28c0,.06.05.12.12.12h3.28c.06,0,.12-.05.12-.12"/>
          <path class="st24" d="M6.76,6.86h-3.28s-.08.03-.08.08v3.28s.03.08.08.08h3.28s.08-.03.08-.08v-3.28s-.03-.08-.08-.08"/>
          <rect class="st58" x="3.48" y="6.94" width=".41" height=".41"/>
          <rect class="st26" x="3.89" y="6.94" width=".41" height=".41"/>
          <rect class="st58" x="4.3" y="6.94" width=".41" height=".41"/>
          <rect class="st26" x="4.71" y="6.94" width=".41" height=".41"/>
          <rect class="st58" x="5.12" y="6.94" width=".41" height=".41"/>
          <rect class="st26" x="5.53" y="6.94" width=".41" height=".41"/>
          <rect class="st58" x="5.94" y="6.94" width=".41" height=".41"/>
          <rect class="st26" x="6.35" y="6.94" width=".41" height=".41"/>
          <rect class="st26" x="3.48" y="7.35" width=".41" height=".41"/>
          <rect class="st58" x="3.89" y="7.35" width=".41" height=".41"/>
          <rect class="st26" x="4.3" y="7.35" width=".41" height=".41"/>
          <rect class="st58" x="4.71" y="7.35" width=".41" height=".41"/>
          <rect class="st26" x="5.12" y="7.35" width=".41" height=".41"/>
          <rect class="st58" x="5.53" y="7.35" width=".41" height=".41"/>
          <rect class="st26" x="5.94" y="7.35" width=".41" height=".41"/>
          <rect class="st58" x="6.35" y="7.35" width=".41" height=".41"/>
          <rect class="st58" x="3.48" y="7.76" width=".41" height=".41"/>
          <rect class="st26" x="3.89" y="7.76" width=".41" height=".41"/>
          <rect class="st58" x="4.3" y="7.76" width=".41" height=".41"/>
          <rect class="st26" x="4.71" y="7.76" width=".41" height=".41"/>
          <rect class="st58" x="5.12" y="7.76" width=".41" height=".41"/>
          <rect class="st26" x="5.53" y="7.76" width=".41" height=".41"/>
          <rect class="st58" x="5.94" y="7.76" width=".41" height=".41"/>
          <rect class="st26" x="6.35" y="7.76" width=".41" height=".41"/>
          <rect class="st26" x="3.48" y="8.17" width=".41" height=".41"/>
          <rect class="st58" x="3.89" y="8.17" width=".41" height=".41"/>
          <rect class="st26" x="4.3" y="8.17" width=".41" height=".41"/>
          <rect class="st58" x="4.71" y="8.17" width=".41" height=".41"/>
          <rect class="st26" x="5.12" y="8.17" width=".41" height=".41"/>
          <rect class="st58" x="5.53" y="8.17" width=".41" height=".41"/>
          <rect class="st26" x="5.94" y="8.17" width=".41" height=".41"/>
          <rect class="st58" x="6.35" y="8.17" width=".41" height=".41"/>
          <rect class="st58" x="3.48" y="8.58" width=".41" height=".41"/>
          <rect class="st26" x="3.89" y="8.58" width=".41" height=".41"/>
          <rect class="st58" x="4.3" y="8.58" width=".41" height=".41"/>
          <rect class="st26" x="4.71" y="8.58" width=".41" height=".41"/>
          <rect class="st58" x="5.12" y="8.58" width=".41" height=".41"/>
          <rect class="st26" x="5.53" y="8.58" width=".41" height=".41"/>
          <rect class="st58" x="5.94" y="8.58" width=".41" height=".41"/>
          <rect class="st26" x="6.35" y="8.58" width=".41" height=".41"/>
          <rect class="st26" x="3.48" y="8.98" width=".41" height=".41"/>
          <rect class="st58" x="3.89" y="8.98" width=".41" height=".41"/>
          <rect class="st26" x="4.3" y="8.98" width=".41" height=".41"/>
          <rect class="st58" x="4.71" y="8.98" width=".41" height=".41"/>
          <rect class="st26" x="5.12" y="8.98" width=".41" height=".41"/>
          <rect class="st58" x="5.53" y="8.98" width=".41" height=".41"/>
          <rect class="st26" x="5.94" y="8.98" width=".41" height=".41"/>
          <rect class="st58" x="6.35" y="8.98" width=".41" height=".41"/>
          <rect class="st58" x="3.48" y="9.39" width=".41" height=".41"/>
          <rect class="st26" x="3.89" y="9.39" width=".41" height=".41"/>
          <rect class="st58" x="4.3" y="9.39" width=".41" height=".41"/>
          <rect class="st26" x="4.71" y="9.39" width=".41" height=".41"/>
          <rect class="st58" x="5.12" y="9.39" width=".41" height=".41"/>
          <rect class="st26" x="5.53" y="9.39" width=".41" height=".41"/>
          <rect class="st58" x="5.94" y="9.39" width=".41" height=".41"/>
          <rect class="st26" x="6.35" y="9.39" width=".41" height=".41"/>
          <rect class="st26" x="3.48" y="9.8" width=".41" height=".41"/>
          <rect class="st58" x="3.89" y="9.8" width=".41" height=".41"/>
          <rect class="st26" x="4.3" y="9.8" width=".41" height=".41"/>
          <rect class="st58" x="4.71" y="9.8" width=".41" height=".41"/>
          <rect class="st26" x="5.12" y="9.8" width=".41" height=".41"/>
          <rect class="st58" x="5.53" y="9.8" width=".41" height=".41"/>
          <rect class="st26" x="5.94" y="9.8" width=".41" height=".41"/>
          <rect class="st58" x="6.35" y="9.8" width=".41" height=".41"/>
          <path class="st33" d="M4.6,8.01h0s0-.02-.01-.03h0s0-.03-.01-.03h0s0-.02-.01-.02h0l-.02-.15h.01s.01,0,.01-.01c0,0,0,0,0-.01l.03-.06s0,0,0,0c0,0,0,0,0,0h-.03s0,0,0,0v.02h-.01v-.02s0,0,0,0c0,0,0,0,0,0h-.07s0,0,0,0c0,0,0,0,0,0v.02s0,0,0,0v-.02s0,0-.01,0h-.03s0,0,0,0c0,0,0,0,0,0l.03.06s0,0,0,.01c0,0,0,.01.01.01h.01l-.02.15h0s-.01,0-.01.01h0s-.01.02-.01.02h0s-.01.02-.01.03h0s-.02.02-.02.03v.05s0,.02.02.02h.18s.02,0,.02-.02v-.05s0-.02-.02-.02"/>
          <path class="st33" d="M3.78,8.02h0s0-.03-.01-.03c0,0,0,0,0,0v-.02s0-.01-.01-.01h0s0-.01,0-.01c.01,0,.02-.02.02-.04,0,0,0-.01,0-.02,0,0,0,0,0,0,0,0,0,0,0,0,0-.01,0-.03-.02-.04-.02-.01-.06-.03-.06-.04,0,0,.01,0,.03,0,0,0,.01,0,.02,0,0,0,.01,0,.02,0,0,0,0,0,.01,0,0,0,0,0,0,0,0,0,0,0,.01,0,0,0,0,0,0-.01,0,0,0,0,0,0,0,0,0,0,0,0,0,0,.01-.01,0-.02,0,0,0,0,0,0,0,0,0-.02-.02-.02,0,0-.02,0-.04,0-.01,0-.03,0-.04,0,0,0-.02,0-.03,0,0,0-.01,0-.01,0,0,0-.01,0-.02,0-.01,0-.03,0-.04,0,0,0-.01,0-.02,0,0,0,0,0,0,.01,0,0,0,0,0,0,0,0,0,0,0,0,0,0-.02,0-.02.02,0,0,0,0,0,0,0,0,0,0,0,.01,0,0,0,0,0,0,0,0,0,0,0,0,0,0,0,0,0,0,0,0,0,0,0,.01,0,0,0,0,0,0,0,0,0,0,0,0,0,0,0,0,0,0,0,0,0,0,0,0,0,0,0,0,0,.01,0,0,0,0,0,0,0,0,0,0,0,.01,0,0,0,0,0,0,0,0,0,0,0,.01,0,0,0,0,0,.01,0,0,0,0,.01.01,0,0,0,0,0,0,.02.02.01.05,0,.07,0,0,0,0,0,.01,0,0,0,0,0,0h0s-.01.02-.01.03v.02s0,0,0,0c0,0-.01,0-.01.02h0s-.02.02-.02.03v.06s0,.02.02.02h.2s.02,0,.02-.02v-.06s0-.02-.02-.02"/>
          <path class="st33" d="M6.24,9.22h0s0-.03-.01-.03c0,0,0,0,0,0h0s0-.03-.01-.03h0s0-.01,0-.01c.01,0,.02-.02.02-.04,0,0,0-.01,0-.02,0,0,0,0,0,0,0,0,0,0,0,0,0-.01,0-.03-.02-.04-.02-.01-.06-.03-.06-.04,0,0,.01,0,.03,0,0,0,.01,0,.02,0,0,0,.01,0,.02,0,0,0,0,0,.01,0,0,0,0,0,0,0,0,0,0,0,.01,0,0,0,0,0,0-.01,0,0,0,0,0,0,0,0,0,0,0,0,0,0,.01-.01,0-.02,0,0,0,0,0,0,0,0,0-.02-.02-.02,0,0-.02,0-.04,0-.01,0-.03,0-.04,0,0,0-.02,0-.03,0,0,0-.01,0-.01,0,0,0-.01,0-.02,0-.01,0-.03,0-.04,0,0,0-.01,0-.02,0,0,0,0,0,0,.01,0,0,0,0,0,0,0,0,0,0,0,0,0,0-.02,0-.02.02,0,0,0,0,0,0,0,0,0,0,0,.01,0,0,0,0,0,0,0,0,0,0,0,0,0,0,0,0,0,0,0,0,0,0,0,.01,0,0,0,0,0,0,0,0,0,0,0,0,0,0,0,0,0,0,0,0,0,0,0,0,0,0,0,0,0,.01,0,0,0,0,0,0,0,0,0,0,0,.01,0,0,0,0,0,0,0,0,0,0,0,.01,0,0,0,0,0,.01,0,0,0,0,.01.01,0,0,0,0,0,0,.02.02.01.05,0,.07,0,0,0,0,0,.01,0,0,0,0,0,0h0s-.01.02-.01.03h0s0,.02,0,.02c0,0-.01,0-.01.02h0s-.02.02-.02.03v.06s0,.02.02.02h.2s.02,0,.02-.02v-.06s0-.02-.02-.02"/>
          <path class="st33" d="M5.82,7.62h0s0-.02-.01-.02h0s0-.02,0-.02h0s0-.02-.01-.02h0l-.02-.14h.01s.01,0,.01-.01c0,0,0,0,0-.01,0,0,0-.02,0-.03,0-.03-.03-.06-.06-.06s-.06.03-.06.06c0,0,0,.02,0,.03,0,0,0,0,0,.01,0,0,0,.01.01.01h.01l-.02.14h0s-.01,0-.01.01h0s0,.02,0,.02h0s-.01.02-.01.03h0s-.01.02-.01.02v.05s0,.02.02.02h.17s.02,0,.02-.02v-.05s0-.01-.01-.02"/>
          <path class="st33" d="M4.59,9.65h0s0-.02-.01-.02h0s0-.02,0-.02h0s0-.02-.01-.02h0l-.02-.14h.01s.01,0,.01-.01c0,0,0,0,0-.01,0,0,0-.02,0-.03,0-.03-.03-.06-.06-.06s-.06.03-.06.06c0,0,0,.02,0,.03,0,0,0,0,0,.01,0,0,0,.01.01.01h.01l-.02.14h0s-.01,0-.01.01h0s0,.02,0,.02h0s-.01.02-.01.03h0s-.01.02-.01.02v.05s0,.02.02.02h.17s.02,0,.02-.02v-.05s0-.01-.01-.02"/>
          <path class="st24" d="M5.41,8.84h0s0-.02-.01-.03h0s0-.03-.01-.03h0s0-.02-.01-.02h0l-.02-.15h.01s.01,0,.01-.01c0,0,0,0,0-.01l.03-.06s0,0,0,0c0,0,0,0,0,0h-.03s0,0,0,0v.02h-.01v-.02s0,0,0,0c0,0,0,0,0,0h-.07s0,0,0,0c0,0,0,0,0,0v.02s0,0,0,0v-.02s0,0-.01,0h-.03s0,0,0,0c0,0,0,0,0,0l.03.06s0,0,0,.01c0,0,0,.01.01.01h.01l-.02.15h0s-.01,0-.01.01h0s-.01.02-.01.02h0s-.01.02-.01.03h0s-.02.02-.02.03v.05s0,.02.02.02h.18s.02,0,.02-.02v-.05s0-.02-.02-.02"/>
          <path class="st24" d="M6.67,7.6h0s0-.03-.01-.03c0,0,0,0,0,0v-.02s0-.01-.01-.01h0s0-.01,0-.01c.01,0,.02-.02.02-.04,0,0,0-.01,0-.02,0,0,0,0,0,0,0,0,0,0,0,0,0-.01,0-.03-.02-.04-.02-.01-.06-.03-.06-.04,0,0,.01,0,.03,0,0,0,.01,0,.02,0,0,0,.01,0,.02,0,0,0,0,0,.01,0,0,0,0,0,0,0,0,0,0,0,.01,0,0,0,0,0,0-.01,0,0,0,0,0,0,0,0,0,0,0,0,0,0,.01-.01,0-.02,0,0,0,0,0,0,0,0,0-.02-.02-.02,0,0-.02,0-.04,0-.01,0-.03,0-.04,0,0,0-.02,0-.03,0,0,0-.01,0-.01,0,0,0-.01,0-.02,0-.01,0-.03,0-.04,0,0,0-.01,0-.02,0,0,0,0,0,0,.01,0,0,0,0,0,0,0,0,0,0,0,0,0,0-.02,0-.02.02,0,0,0,0,0,0,0,0,0,0,0,.01,0,0,0,0,0,0,0,0,0,0,0,0,0,0,0,0,0,0,0,0,0,0,0,.01,0,0,0,0,0,0,0,0,0,0,0,0,0,0,0,0,0,0,0,0,0,0,0,0,0,0,0,0,0,.01,0,0,0,0,0,0,0,0,0,0,0,.01,0,0,0,0,0,0,0,0,0,0,0,.01,0,0,0,0,0,.01,0,0,0,0,.01.01,0,0,0,0,0,0,.02.02.01.05,0,.07,0,0,0,0,0,.01,0,0,0,0,0,0h0s-.01.02-.01.03v.02s0,0,0,0c0,0-.01,0-.01.02h0s-.02.02-.02.03v.06s0,.02.02.02h.2s.02,0,.02-.02v-.06s0-.02-.02-.02"/>
          <path class="st24" d="M4.19,9.66h0s0-.03-.01-.03c0,0,0,0,0,0v-.02s0-.01-.01-.01h0s0-.01,0-.01c.01,0,.02-.02.02-.04,0,0,0-.01,0-.02,0,0,0,0,0,0,0,0,0,0,0,0,0-.01,0-.03-.02-.04-.02-.01-.06-.03-.06-.04,0,0,.01,0,.03,0,0,0,.01,0,.02,0,0,0,.01,0,.02,0,0,0,0,0,.01,0,0,0,0,0,0,0,0,0,0,0,.01,0,0,0,0,0,0-.01,0,0,0,0,0,0,0,0,0,0,0,0,0,0,.01-.01,0-.02,0,0,0,0,0,0,0,0,0-.02-.02-.02,0,0-.02,0-.04,0-.01,0-.03,0-.04,0,0,0-.02,0-.03,0,0,0-.01,0-.01,0,0,0-.01,0-.02,0-.01,0-.03,0-.04,0,0,0-.01,0-.02,0,0,0,0,0,0,.01,0,0,0,0,0,0,0,0,0,0,0,0,0,0-.02,0-.02.02,0,0,0,0,0,0,0,0,0,0,0,.01,0,0,0,0,0,0,0,0,0,0,0,0,0,0,0,0,0,0,0,0,0,0,0,.01,0,0,0,0,0,0,0,0,0,0,0,0,0,0,0,0,0,0,0,0,0,0,0,0,0,0,0,0,0,.01,0,0,0,0,0,0,0,0,0,0,0,.01,0,0,0,0,0,0,0,0,0,0,0,.01,0,0,0,0,0,.01,0,0,0,0,.01.01,0,0,0,0,0,0,.02.02.01.05,0,.07,0,0,0,0,0,.01,0,0,0,0,0,0h0s-.01.02-.01.03v.02s0,0,0,0c0,0-.01,0-.01.02h0s-.02.02-.02.03v.06s0,.02.02.02h.2s.02,0,.02-.02v-.06s0-.02-.02-.02"/>
          <path class="st24" d="M4.17,8.87h0s0-.02-.01-.02h0s0-.02,0-.02h0s0-.02-.01-.02h0l-.02-.14h.01s.01,0,.01-.01c0,0,0,0,0-.01,0,0,0-.02,0-.03,0-.03-.03-.06-.06-.06s-.06.03-.06.06c0,0,0,.02,0,.03,0,0,0,0,0,.01,0,0,0,.01.01.01h.01l-.02.14h0s-.01,0-.01.01h0s0,.02,0,.02h0s-.01.02-.01.03h0s-.01.02-.01.02v.05s0,.02.02.02h.17s.02,0,.02-.02v-.05s0-.01-.01-.02"/>
          <path class="st24" d="M6.23,8.45h0s0-.02-.01-.02h0s0-.02,0-.02h0s0-.02-.01-.02h0l-.02-.14h.01s.01,0,.01-.01c0,0,0,0,0-.01,0,0,0-.02,0-.03,0-.03-.03-.06-.06-.06s-.06.03-.06.06c0,0,0,.02,0,.03,0,0,0,0,0,.01,0,0,0,.01.01.01h.01l-.02.14h0s-.01,0-.01.01h0s0,.02,0,.02h0s-.01.02-.01.03h0s-.01.02-.01.02v.05s0,.02.02.02h.17s.02,0,.02-.02v-.05s0-.01-.01-.02"/>
          <g class="st28">
            <g class="st72">
              <g class="st37">
                <path class="st30" d="M3.48,10.29h3.28s.04,0,.05-.02c.01-.01.02-.03.02-.05v-1.64l-3.35,1.72Z"/>
              </g>
            </g>
          </g>
        </g>
        <rect class="st32" x="3.41" y="6.86" width="3.41" height="3.41"/>
      </g>
      <g id="_x28__x2F_techno_x2F_math_x2F_shapes_x2F_level1_x2F_square_x2F_dice.mp3_x29_1" data-name="_x28__x2F_techno_x2F_math_x2F_shapes_x2F_level1_x2F_square_x2F_dice.mp3_x29_">
        <g>
          <rect class="st42" x="15.22" y="6.79" width="3.52" height="3.52" rx=".59" ry=".59"/>
          <path class="st20" d="M18.16,6.8c.32,0,.57.26.57.57v2.35c0,.32-.26.57-.57.57h-2.35c-.32,0-.57-.26-.57-.57v-2.35c0-.32.26-.57.57-.57h2.35M18.16,6.77h-2.35c-.33,0-.6.27-.6.6v2.35c0,.33.27.6.6.6h2.35c.33,0,.6-.27.6-.6v-2.35c0-.33-.27-.6-.6-.6h0Z"/>
        </g>
        <g>
          <g>
            <rect class="st70" x="15.24" y="6.8" width="3.49" height="3.49" rx=".57" ry=".57"/>
            <rect class="st27" x="15.29" y="6.86" width="3.38" height="3.38" rx=".52" ry=".52"/>
          </g>
          <g>
            <path class="st35" d="M16.39,7.63c0,.18-.14.32-.32.32s-.32-.14-.32-.32.14-.32.32-.32.32.14.32.32Z"/>
            <path class="st36" d="M16.39,9.47c0,.18-.14.32-.32.32s-.32-.14-.32-.32.14-.32.32-.32.32.14.32.32Z"/>
            <path class="st64" d="M18.21,7.63c0,.18-.14.32-.32.32s-.32-.14-.32-.32.14-.32.32-.32.32.14.32.32Z"/>
            <path class="st68" d="M18.21,9.47c0,.18-.14.32-.32.32s-.32-.14-.32-.32.14-.32.32-.32.32.14.32.32Z"/>
            <path class="st67" d="M17.3,8.55c0,.18-.14.32-.32.32s-.32-.14-.32-.32.14-.32.32-.32.32.14.32.32Z"/>
          </g>
        </g>
        <path class="st65" d="M18.62,6.91v3.27h-3.27v-3.27h3.27M18.76,6.77h-3.56v3.56h3.56v-3.56h0Z"/>
      </g>
      <text id="_x28__x2F_techno_x2F_math_x2F_shapes_x2F_level1_x2F_square_x2F_square.mp3_x29_2" data-name="_x28__x2F_techno_x2F_math_x2F_shapes_x2F_level1_x2F_square_x2F_square.mp3_x29_" class="st22" transform="translate(10.37 8.04)"><tspan x="0" y="0">Square</tspan></text>
      <g id="_x28__x2F_techno_x2F_math_x2F_shapes_x2F_level1_x2F_square_x2F_carrom_board.mp3_x29_1" data-name="_x28__x2F_techno_x2F_math_x2F_shapes_x2F_level1_x2F_square_x2F_carrom_board.mp3_x29_">
        <rect class="st43" x="15.4" y="1.07" width="3.36" height="3.36"/>
        <rect class="st2" x="15.58" y="1.25" width="3" height="3"/>
        <circle class="st23" cx="15.75" cy="1.41" r=".11"/>
        <circle class="st23" cx="18.42" cy="1.41" r=".11"/>
        <circle class="st23" cx="15.75" cy="4.08" r=".11"/>
        <circle class="st23" cx="18.42" cy="4.08" r=".11"/>
        <path class="st15" d="M15.86,1.78s-.09.04-.09.09v1.75s.04.09.09.09h0s.09-.04.09-.09v-1.75s-.04-.09-.09-.09h0ZM15.86,1.77h0c.06,0,.11.05.11.11v1.75c0,.06-.05.11-.11.11h0c-.06,0-.11-.05-.11-.11v-1.75c0-.06.05-.11.11-.11h0Z"/>
        <path class="st8" d="M15.86,3.55h0s.07.03.07.07h0s-.03.07-.07.07h0s-.07-.03-.07-.07h0s.03-.07.07-.07Z"/>
        <path class="st8" d="M15.86,1.8h0s.07.03.07.07h0s-.03.07-.07.07h0s-.07-.03-.07-.07h0s.03-.07.07-.07Z"/>
        <path class="st15" d="M18.31,1.78s-.09.04-.09.09v1.75s.04.09.09.09h0s.09-.04.09-.09v-1.75s-.04-.09-.09-.09h0ZM18.31,1.77h0c.06,0,.11.05.11.11v1.75c0,.06-.05.11-.11.11h0c-.06,0-.11-.05-.11-.11v-1.75c0-.06.05-.11.11-.11h0Z"/>
        <path class="st8" d="M18.31,3.55h0s.07.03.07.07h0s-.03.07-.07.07h0s-.07-.03-.07-.07h0s.03-.07.07-.07Z"/>
        <path class="st8" d="M18.31,1.8h0s.07.03.07.07h0s-.03.07-.07.07h0s-.07-.03-.07-.07h0s.03-.07.07-.07Z"/>
        <path class="st15" d="M16.12,1.52s.04.09.09.09h1.75s.09-.04.09-.09h0s-.04-.09-.09-.09h-1.75s-.09.04-.09.09h0ZM16.1,1.52h0c0-.06.05-.11.11-.11h1.75c.06,0,.11.05.11.11h0c0,.06-.05.11-.11.11h-1.75c-.06,0-.11-.05-.11-.11h0Z"/>
        <path class="st8" d="M17.89,1.52h0s.03-.07.07-.07h0s.07.03.07.07h0s-.03.07-.07.07h0s-.07-.03-.07-.07Z"/>
        <path class="st8" d="M16.14,1.52h0s.03-.07.07-.07h0s.07.03.07.07h0s-.03.07-.07.07h0s-.07-.03-.07-.07Z"/>
        <path class="st15" d="M16.12,3.98s.04.09.09.09h1.75s.09-.04.09-.09h0s-.04-.09-.09-.09h-1.75s-.09.04-.09.09h0ZM16.1,3.98h0c0-.06.05-.11.11-.11h1.75c.06,0,.11.05.11.11h0c0,.06-.05.11-.11.11h-1.75c-.06,0-.11-.05-.11-.11h0Z"/>
        <path class="st8" d="M17.89,3.98h0s.03-.07.07-.07h0s.07.03.07.07h0s-.03.07-.07.07h0s-.07-.03-.07-.07Z"/>
        <path class="st8" d="M16.14,3.98h0s.03-.07.07-.07h0s.07.03.07.07h0s-.03.07-.07.07h0s-.07-.03-.07-.07Z"/>
        <path class="st15" d="M16.57,2.25h0s0-.02,0-.02h0c.08-.09.08-.23,0-.32-.06-.06-.16-.08-.24-.06,0,0-.02,0-.02,0,0,0,0,.02,0,.03,0,0,.02,0,.03,0,0,0,0-.01,0-.02.07-.02.15,0,.21.05.08.08.08.21,0,.29l-.69-.69-.02.02.69.69c-.08.07-.21.07-.29,0-.06-.06-.07-.14-.05-.21,0,0,.01,0,.02,0,0,0,0-.02,0-.03,0,0-.02,0-.03,0,0,0,0,.02,0,.02-.03.08,0,.17.06.24.09.09.23.09.32,0h0Z"/>
        <path class="st15" d="M17.58,3.26h0s0-.02,0-.02h0c.09-.08.23-.08.32,0,.06.06.08.16.06.24,0,0,0,.02,0,.02,0,0-.02,0-.03,0,0,0,0-.02,0-.03,0,0,.01,0,.02,0,.02-.07,0-.15-.05-.21-.08-.08-.21-.08-.29,0l.69.69-.02.02-.69-.69c-.07.08-.07.21,0,.29.06.06.14.07.21.05,0,0,0-.01,0-.02,0,0,.02,0,.03,0,0,0,0,.02,0,.03,0,0-.02,0-.02,0-.08.03-.17,0-.24-.06-.09-.09-.09-.23,0-.32h0Z"/>
        <path class="st15" d="M16.59,3.26h0s0-.02,0-.02h0c-.09-.08-.23-.08-.32,0-.06.06-.08.16-.06.24,0,0,0,.02,0,.02,0,0,.02,0,.03,0,0,0,0-.02,0-.03,0,0-.01,0-.02,0-.02-.07,0-.15.05-.21.08-.08.21-.08.29,0l-.69.69.02.02.69-.69c.07.08.07.21,0,.29-.06.06-.14.07-.21.05,0,0,0-.01,0-.02,0,0-.02,0-.03,0,0,0,0,.02,0,.03,0,0,.02,0,.02,0,.08.03.17,0,.24-.06.09-.09.09-.23,0-.32h0Z"/>
        <path class="st15" d="M17.6,2.25h0s0-.02,0-.02h0c-.08-.09-.08-.23,0-.32.06-.06.16-.08.24-.06,0,0,.02,0,.02,0,0,0,0,.02,0,.03,0,0-.02,0-.03,0,0,0,0-.01,0-.02-.07-.02-.15,0-.21.05-.08.08-.08.21,0,.29l.69-.69.02.02-.69.69c.08.07.21.07.29,0,.06-.06.07-.14.05-.21,0,0-.01,0-.02,0,0,0,0-.02,0-.03,0,0,.02,0,.03,0,0,0,0,.02,0,.02.03.08,0,.17-.06.24-.09.09-.23.09-.32,0h0Z"/>
        <polygon class="st11" points="17.21 2.78 17.29 3.03 17.08 2.88 17.08 2.74 17.21 2.78"/>
        <polygon class="st12" points="17.21 2.78 17.29 3.03 17.08 2.74 17.21 2.78"/>
        <polygon class="st10" points="16.95 2.78 16.87 3.03 17.08 2.88 17.08 2.74 16.95 2.78"/>
        <polygon class="st6" points="16.87 3.03 17.08 2.88 17.08 2.74 16.87 3.03"/>
        <polygon class="st13" points="16.95 2.78 16.74 2.63 17 2.63 17.08 2.74 16.95 2.78"/>
        <polygon class="st3" points="16.95 2.78 16.74 2.63 17.08 2.74 16.95 2.78"/>
        <polygon class="st7" points="17.21 2.78 17.42 2.63 17.16 2.63 17.08 2.74 17.21 2.78"/>
        <polygon class="st14" points="17.42 2.63 17.16 2.63 17.08 2.74 17.08 2.74 17.42 2.63"/>
        <polygon class="st9" points="17.08 2.38 17.16 2.63 17.08 2.74 17 2.63 17.08 2.38"/>
        <polygon class="st4" points="17.08 2.74 17 2.63 17.08 2.38 17.08 2.74"/>
        <circle class="st44" cx="17.08" cy="2.74" r=".05"/>
        <path class="st5" d="M17.08,2.27c.26,0,.48.21.48.48s-.21.48-.48.48-.48-.21-.48-.48.21-.48.48-.48h0ZM17.08,2.3c-.25,0-.45.2-.45.45s.2.45.45.45.45-.2.45-.45-.2-.45-.45-.45Z"/>
        <path class="st5" d="M17.08,2.31c.24,0,.43.19.43.43s-.19.43-.43.43-.43-.19-.43-.43.19-.43.43-.43h0ZM17.08,2.33c-.23,0-.42.19-.42.42s.19.42.42.42.42-.19.42-.42-.19-.42-.42-.42Z"/>
      </g>
    </g>
  </g>
</svg>