<?xml version="1.0" encoding="UTF-8"?>
<svg xmlns="http://www.w3.org/2000/svg" version="1.1" xmlns:xlink="http://www.w3.org/1999/xlink" viewBox="0 0 22 12">
  <!-- Generator: Adobe Illustrator 29.1.0, SVG Export Plug-In . SVG Version: 2.1.0 Build 142)  -->
  <defs>
    <style>
      .st0 {
        fill: #75cbc4;
        opacity: .4;
      }

      .st0, .st1, .st2, .st3, .st4 {
        mix-blend-mode: multiply;
      }

      .st5 {
        fill: #ef3a47;
      }

      .st6 {
        fill: #bfc0c2;
      }

      .st7 {
        fill: #945d25;
      }

      .st8 {
        fill: #767679;
      }

      .st9 {
        opacity: .2;
      }

      .st9, .st10 {
        mix-blend-mode: soft-light;
      }

      .st9, .st10, .st11, .st4 {
        fill: #ededed;
      }

      .st12 {
        fill: #ea8f67;
      }

      .st13 {
        fill: #fde2db;
      }

      .st13, .st14 {
        mix-blend-mode: screen;
      }

      .st15 {
        fill: #084031;
      }

      .st16 {
        fill: #178bb2;
      }

      .st17 {
        fill: #db8429;
      }

      .st18 {
        fill: #ba644e;
      }

      .st19 {
        fill: none;
        stroke-width: .03px;
      }

      .st19, .st20, .st21, .st22, .st23, .st24 {
        stroke: #000;
        stroke-linecap: round;
        stroke-linejoin: round;
      }

      .st20 {
        fill: #cfa26c;
      }

      .st20, .st21, .st22, .st23, .st24 {
        stroke-width: .04px;
      }

      .st25 {
        fill: #fff;
      }

      .st26 {
        fill: #ed1c24;
      }

      .st21 {
        fill: #fbad55;
      }

      .st22 {
        fill: #d6846b;
      }

      .st27 {
        font-size: .68px;
      }

      .st27, .st28, .st29, .st30, .st31 {
        fill: #231f20;
        font-family: MyriadPro-Regular, 'Myriad Pro';
      }

      .st32 {
        fill: #f15843;
      }

      .st33 {
        fill: #eb8d4a;
      }

      .st34 {
        fill: #96a8ad;
      }

      .st35 {
        fill: #eda06c;
      }

      .st1, .st36 {
        fill: #fdc78e;
      }

      .st37 {
        fill: #ffe165;
      }

      .st38 {
        fill: #ac5b48;
      }

      .st39 {
        isolation: isolate;
      }

      .st28 {
        font-size: .62px;
      }

      .st2 {
        opacity: .49;
      }

      .st40 {
        fill: #c94636;
      }

      .st41 {
        fill: #97d4e9;
      }

      .st23 {
        fill: #b6665f;
      }

      .st29 {
        font-size: .62px;
      }

      .st10 {
        opacity: .48;
      }

      .st42 {
        fill: #67bbe9;
      }

      .st43 {
        fill: #d39f8d;
      }

      .st30 {
        font-size: .54px;
      }

      .st44 {
        fill: #439cc2;
      }

      .st45 {
        fill: #f9ed32;
      }

      .st24 {
        fill: #cd9053;
      }

      .st46 {
        fill: #0c5a47;
      }

      .st47 {
        fill: #408275;
      }

      .st48 {
        fill: url(#linear-gradient);
      }

      .st49 {
        fill: #eae5d9;
      }

      .st50 {
        fill: #59939e;
      }

      .st31 {
        font-size: .53px;
      }

      .st51 {
        fill: #1a1f28;
      }

      .st52 {
        fill: #5bb6dc;
      }

      .st53 {
        fill: #3e6871;
      }
    </style>
    <linearGradient id="linear-gradient" x1="4.61" y1=".45" x2="4.61" y2="5.45" gradientUnits="userSpaceOnUse">
      <stop offset="0" stop-color="#f0f8f2"/>
      <stop offset="1" stop-color="#f2caa4"/>
    </linearGradient>
  </defs>
  <g class="st39">
    <g id="Layer_1">
      <rect class="st45" x="-.29" y="-.51" width="23.4" height="14.42"/>
      <g id="_x28__x2F_techno_x2F_math_x2F_shapes_x2F_level3_x2F_pentagon_x2F_pentagon.mp3_x29_">
        <polygon class="st26" points="10 7.69 9.38 5.79 11 4.61 12.62 5.79 12 7.69 10 7.69"/>
      </g>
      <g id="_x28__x2F_techno_x2F_math_x2F_shapes_x2F_level3_x2F_pentagon_x2F_envelope.mp3_x29_">
        <path class="st46" d="M16.93.58l-1.58,1.39h3.59l-1.58-1.39c-.12-.11-.31-.11-.43,0Z"/>
        <path class="st47" d="M16.93.76l-1.58,1.39h3.59l-1.58-1.39c-.12-.11-.31-.11-.43,0Z"/>
        <rect class="st46" x="15.35" y="1.96" width="3.59" height="2.68"/>
        <polygon class="st15" points="18.93 1.96 17.14 3.31 15.35 1.96 18.93 1.96"/>
        <path class="st47" d="M16.93,3.26l-1.58,1.39h3.59l-1.58-1.39c-.12-.11-.31-.11-.43,0Z"/>
      </g>
      <g id="_x28__x2F_techno_x2F_math_x2F_shapes_x2F_level3_x2F_pentagon_x2F_house.mp3_x29_">
        <text/>
        <g>
          <g>
            <polygon class="st48" points="5.74 1.85 4.63 1.07 4.61 1.08 4.6 1.07 3.48 1.85 2.8 2.32 2.8 4.61 3.95 4.61 5.28 4.61 6.43 4.61 6.43 2.32 5.74 1.85"/>
            <path class="st17" d="M6.44,4.62h-3.65v-2.3h0s.69-.47.69-.47l1.12-.78h.01s.01,0,.01,0h0s1.12.78,1.12.78l.69.47v2.3ZM2.8,4.6h3.62v-2.28l-.68-.46-1.12-.77h-.01s-.01,0-.01,0l-1.12.77-.68.46v2.28Z"/>
          </g>
          <rect class="st1" x="2.8" y="4" width="3.63" height=".61"/>
          <g class="st3">
            <polygon class="st36" points="4.63 1.26 5.82 2.08 6.43 2.5 6.43 2.32 5.74 1.85 4.63 1.07 4.61 1.08 4.6 1.07 3.48 1.85 2.8 2.32 2.8 2.51 3.44 2.08 4.63 1.26"/>
          </g>
          <g>
            <path class="st5" d="M6.54,2.04s-1.73-1.18-1.84-1.24c-.03-.02-.06-.03-.09-.02-.03,0-.06,0-.09.02-.11.07-1.84,1.24-1.84,1.24,0,0-.1.03-.07.23.02.11.03.21.12.19.08-.02,1.86-1.29,1.87-1.3.02.01,1.8,1.28,1.87,1.3.1.02.11-.08.12-.19.03-.19-.07-.23-.07-.23Z"/>
            <path class="st40" d="M6.51,2.46s-.02,0-.03,0c-.08-.02-1.78-1.23-1.87-1.3-.1.07-1.79,1.28-1.87,1.3-.03,0-.05,0-.07,0-.04-.03-.05-.09-.06-.16v-.02c-.04-.19.06-.23.07-.23.04-.03,1.74-1.18,1.84-1.24.03-.02.06-.03.09-.02.03,0,.06,0,.09.02.1.06,1.8,1.21,1.84,1.24.01,0,.1.04.07.23v.02c-.02.07-.03.14-.06.16-.01,0-.03.01-.04.01ZM4.61,1.15h0s1.79,1.28,1.87,1.3c.02,0,.04,0,.06,0,.03-.02.04-.09.05-.15v-.02c.03-.18-.06-.22-.06-.22h0s-1.74-1.18-1.84-1.24c-.03-.02-.05-.02-.08-.02-.03,0-.06,0-.08.02-.1.07-1.82,1.23-1.84,1.24h0s-.1.03-.06.22v.02c.01.07.02.13.06.15.01,0,.03.01.06,0,.08-.02,1.85-1.29,1.87-1.3h0Z"/>
          </g>
          <g class="st14">
            <path class="st32" d="M2.69,2.11s1.73-1.18,1.84-1.24c.03-.02.06-.03.09-.02.03,0,.06,0,.09.02.11.07,1.84,1.24,1.84,1.24,0,0,.06.02.07.12.02-.16-.07-.19-.07-.19,0,0-1.73-1.18-1.84-1.24-.03-.02-.06-.03-.09-.02-.03,0-.06,0-.09.02-.11.07-1.84,1.24-1.84,1.24,0,0-.09.03-.07.19.01-.1.07-.12.07-.12Z"/>
          </g>
          <g class="st3">
            <path class="st43" d="M6.57,2.06s0,.03,0,.04c-.02.11-.03.2-.12.18-.08-.02-1.81-1.26-1.83-1.27-.02.01-1.75,1.25-1.83,1.27-.09.02-.1-.08-.12-.18,0-.01,0-.03,0-.04-.03.02-.07.08-.05.21.02.11.03.21.12.19.08-.02,1.86-1.29,1.87-1.3.02.01,1.8,1.28,1.87,1.3.1.02.11-.08.12-.19.02-.13-.02-.19-.05-.21Z"/>
          </g>
          <g>
            <path class="st16" d="M3.81,3.75v-.89c0-.09-.08-.12-.08-.12-.16-.05-.34-.05-.5,0,0,0-.08.03-.08.12v.89s0,.05.06.05h.54c.07,0,.06-.05.06-.05Z"/>
            <path class="st16" d="M3.81,3.75v-.89c0-.09-.08-.12-.08-.12-.16-.05-.34-.05-.5,0,0,0-.08.03-.08.12v.89s0,.05.06.05h.54c.07,0,.06-.05.06-.05Z"/>
            <path class="st52" d="M3.71,3.66v-.71c0-.07-.05-.1-.05-.1-.11-.04-.23-.04-.33,0,0,0-.06.02-.05.1v.71s0,.04.04.04h.36s.04-.04.04-.04Z"/>
            <g>
              <polygon class="st35" points="3.78 2.99 3.78 2.93 3.5 2.93 3.5 2.73 3.45 2.73 3.45 2.93 3.19 2.93 3.19 2.99 3.45 2.99 3.45 3.2 3.19 3.2 3.19 3.25 3.45 3.25 3.45 3.46 3.19 3.46 3.19 3.52 3.45 3.52 3.45 3.78 3.5 3.78 3.5 3.52 3.78 3.52 3.78 3.46 3.5 3.46 3.5 3.25 3.78 3.25 3.78 3.2 3.5 3.2 3.5 2.99 3.78 2.99"/>
              <path class="st18" d="M3.51,3.79h-.06v-.26h-.26v-.07h.26v-.19h-.26v-.07h.26v-.19h-.26v-.07h.26v-.21h.06v.21h.27v.07h-.27v.19h.27v.07h-.27v.19h.27v.07h-.27v.26ZM3.46,3.77h.04v-.26h.27v-.04h-.27v-.22h.27v-.04h-.27v-.22h.27v-.04h-.27v-.21h-.04v.21h-.26v.04h.26v.22h-.26v.04h.26v.22h-.26v.04h.26v.26Z"/>
            </g>
            <g>
              <path class="st35" d="M3.81,3.75v-.89c0-.09-.08-.12-.08-.12-.16-.05-.34-.05-.5,0,0,0-.08.03-.08.12v.89s0,.05.06.05h.54c.07,0,.06-.05.06-.05ZM3.7,3.74h-.44c-.06,0-.05-.04-.05-.04v-.78c0-.08.07-.11.07-.11.13-.05.28-.05.41,0,0,0,.07.02.07.11v.78s0,.04-.05.04Z"/>
              <path class="st18" d="M3.75,3.81h-.54s-.04,0-.06-.02c-.01-.02-.01-.04-.01-.04v-.89c0-.1.08-.13.08-.13.16-.05.34-.05.5,0,0,0,.09.03.08.13v.89s0,.02-.01.04c-.01.01-.03.02-.06.02ZM3.48,2.71c-.08,0-.17.01-.25.04,0,0-.08.03-.08.11v.89s0,.02,0,.03c0,.01.02.02.05.02h.54s.04,0,.05-.02c.01-.01,0-.03,0-.03h0v-.89c0-.09-.07-.11-.08-.11-.08-.03-.16-.04-.25-.04ZM3.7,3.75h-.44s-.04,0-.05-.02c-.01-.02-.01-.03-.01-.04v-.78c0-.09.07-.11.07-.11.13-.05.28-.05.41,0,0,0,.07.03.07.11v.78h0s0,.02-.01.03c0,.01-.03.02-.05.02ZM3.48,2.78c-.07,0-.14.01-.2.03,0,0-.06.02-.06.1v.78s0,.02,0,.03c0,0,.02.01.04.01h.44s.03,0,.04-.01c0-.01,0-.02,0-.02v-.78c0-.08-.06-.1-.06-.1-.06-.02-.13-.03-.2-.03Z"/>
            </g>
          </g>
          <g>
            <path class="st16" d="M6.2,3.75v-.89c0-.09-.08-.12-.08-.12-.16-.05-.34-.05-.5,0,0,0-.08.03-.08.12v.89s0,.05.06.05h.54c.07,0,.06-.05.06-.05Z"/>
            <path class="st16" d="M6.2,3.75v-.89c0-.09-.08-.12-.08-.12-.16-.05-.34-.05-.5,0,0,0-.08.03-.08.12v.89s0,.05.06.05h.54c.07,0,.06-.05.06-.05Z"/>
            <path class="st52" d="M6.11,3.66v-.71c0-.07-.05-.1-.05-.1-.11-.04-.23-.04-.33,0,0,0-.06.02-.05.1v.71s0,.04.04.04h.36s.04-.04.04-.04Z"/>
            <g>
              <polygon class="st35" points="6.17 2.99 6.17 2.93 5.9 2.93 5.9 2.73 5.85 2.73 5.85 2.93 5.59 2.93 5.59 2.99 5.85 2.99 5.85 3.2 5.59 3.2 5.59 3.25 5.85 3.25 5.85 3.46 5.59 3.46 5.59 3.52 5.85 3.52 5.85 3.78 5.9 3.78 5.9 3.52 6.17 3.52 6.17 3.46 5.9 3.46 5.9 3.25 6.17 3.25 6.17 3.2 5.9 3.2 5.9 2.99 6.17 2.99"/>
              <path class="st18" d="M5.91,3.79h-.06v-.26h-.26v-.07h.26v-.19h-.26v-.07h.26v-.19h-.26v-.07h.26v-.21h.06v.21h.27v.07h-.27v.19h.27v.07h-.27v.19h.27v.07h-.27v.26ZM5.86,3.77h.04v-.26h.27v-.04h-.27v-.22h.27v-.04h-.27v-.22h.27v-.04h-.27v-.21h-.04v.21h-.26v.04h.26v.22h-.26v.04h.26v.22h-.26v.04h.26v.26Z"/>
            </g>
            <g>
              <path class="st35" d="M6.2,3.75v-.89c0-.09-.08-.12-.08-.12-.16-.05-.34-.05-.5,0,0,0-.08.03-.08.12v.89s0,.05.06.05h.54c.07,0,.06-.05.06-.05ZM6.1,3.74h-.44c-.06,0-.05-.04-.05-.04v-.78c0-.08.07-.11.07-.11.13-.05.28-.05.41,0,0,0,.07.02.07.11v.78s0,.04-.05.04Z"/>
              <path class="st18" d="M6.14,3.81h-.54s-.04,0-.06-.02c-.01-.02-.01-.04-.01-.04v-.89c0-.1.08-.13.08-.13.16-.05.34-.05.5,0,0,0,.09.03.08.13v.89s0,.02-.01.04c-.01.01-.03.02-.06.02ZM5.87,2.71c-.08,0-.17.01-.25.04,0,0-.08.03-.08.11v.89s0,.02,0,.03c0,.01.02.02.05.02h.54s.04,0,.05-.02c.01-.01,0-.03,0-.03h0v-.89c0-.09-.07-.11-.08-.11-.08-.03-.16-.04-.25-.04ZM6.1,3.75h-.44s-.04,0-.05-.02c-.01-.02-.01-.03-.01-.04v-.78c0-.09.07-.11.07-.11.13-.05.28-.05.41,0,0,0,.07.03.07.11v.78h0s0,.02-.01.03c0,.01-.03.02-.05.02ZM5.87,2.78c-.07,0-.14.01-.2.03,0,0-.06.02-.06.1v.78s0,.02,0,.03c0,0,.02.01.04.01h.44s.03,0,.04-.01c0-.01,0-.02,0-.02v-.78c0-.08-.06-.1-.06-.1-.06-.02-.13-.03-.2-.03Z"/>
            </g>
          </g>
          <g>
            <circle class="st1" cx="4.65" cy="1.9" r=".3"/>
            <g>
              <g>
                <circle class="st50" cx="4.63" cy="1.86" r=".28"/>
                <path class="st53" d="M4.63,2.14c-.16,0-.28-.13-.28-.28s.13-.28.28-.28.28.13.28.28-.13.28-.28.28ZM4.63,1.59c-.15,0-.27.12-.27.27s.12.27.27.27.27-.12.27-.27-.12-.27-.27-.27Z"/>
              </g>
              <circle class="st16" cx="4.63" cy="1.86" r=".23"/>
              <g class="st2">
                <path class="st16" d="M4.63,1.63c-.13,0-.23.1-.23.23s.1.23.23.23.23-.1.23-.23-.1-.23-.23-.23ZM4.6,2c-.09,0-.16-.07-.16-.16s.07-.16.16-.16.16.07.16.16-.07.16-.16.16Z"/>
              </g>
              <g>
                <path class="st35" d="M4.86,1.83h-.2v-.2s-.01-.03-.03-.03-.03.01-.03.03v.2h-.2s-.03.01-.03.03.01.03.03.03h.2v.2s.01.03.03.03.03-.01.03-.03v-.2h.2s.03-.01.03-.03-.01-.03-.03-.03Z"/>
                <path class="st18" d="M4.63,2.13s-.04-.02-.04-.04v-.19h-.19s-.04-.02-.04-.04.02-.04.04-.04h.19v-.19s.02-.04.04-.04.04.02.04.04v.19h.19s.04.02.04.04-.02.04-.04.04h-.19v.19s-.02.04-.04.04ZM4.4,1.84s-.03.01-.03.03.01.03.03.03h.2v.2s.01.03.03.03.03-.01.03-.03v-.2h.2s.03-.01.03-.03-.01-.03-.03-.03h-.2v-.2s-.01-.03-.03-.03-.03.01-.03.03v.2h-.2Z"/>
              </g>
              <g>
                <path class="st35" d="M4.63,1.59c-.15,0-.28.12-.28.28s.12.28.28.28.28-.12.28-.28-.12-.28-.28-.28ZM4.63,2.09c-.13,0-.23-.1-.23-.23s.1-.23.23-.23.23.1.23.23-.1.23-.23.23Z"/>
                <path class="st18" d="M4.63,2.14c-.16,0-.28-.13-.28-.28s.13-.28.28-.28.28.13.28.28-.13.28-.28.28ZM4.63,1.59c-.15,0-.27.12-.27.27s.12.27.27.27.27-.12.27-.27-.12-.27-.27-.27ZM4.63,2.1c-.13,0-.23-.11-.23-.23s.11-.23.23-.23.23.11.23.23-.11.23-.23.23ZM4.63,1.64c-.12,0-.22.1-.22.22s.1.22.22.22.22-.1.22-.22-.1-.22-.22-.22Z"/>
              </g>
            </g>
          </g>
          <g>
            <g>
              <path class="st12" d="M4.98,2.61c-.08-.02-.17-.03-.26-.03,0,0-.04,0-.11,0-.06,0-.11,0-.11,0-.08,0-.18.01-.26.03,0,0-.07,0-.08.08v1.42h.88v-1.42c0-.08-.08-.08-.08-.08Z"/>
              <path class="st7" d="M5.06,4.12h-.89v-1.42c0-.08.08-.09.08-.09.07-.01.15-.02.26-.03,0,0,.04,0,.11,0,.06,0,.11,0,.11,0,.1,0,.19.02.26.03,0,0,.08.01.08.09v1.42ZM4.18,4.11h.86v-1.41c0-.07-.07-.08-.07-.08h0c-.07-.01-.15-.02-.25-.03,0,0-.04,0-.11,0-.06,0-.11,0-.11,0-.1,0-.19.02-.26.03,0,0-.07,0-.07.08v1.41Z"/>
            </g>
            <g>
              <path class="st41" d="M4.92,2.67c-.07-.02-.15-.02-.22-.03,0,0-.04,0-.09,0-.05,0-.09,0-.09,0-.07,0-.15.01-.22.03,0,0-.06,0-.06.08v1.36h.75v-1.36c0-.08-.06-.08-.06-.08Z"/>
              <path class="st42" d="M5,4.12h-.76v-1.37c0-.08.07-.09.07-.09.06-.01.13-.02.22-.03,0,0,.04,0,.09,0,.05,0,.09,0,.09,0,.09,0,.16.02.22.03,0,0,.07.01.07.09v1.37ZM4.25,4.11h.74v-1.35c0-.07-.06-.07-.06-.07h0c-.06-.01-.13-.02-.22-.03,0,0-.04,0-.09,0-.05,0-.09,0-.09,0-.09,0-.16.02-.22.03,0,0-.06,0-.06.07v1.35Z"/>
            </g>
            <g>
              <path class="st38" d="M4.92,2.67c-.07-.02-.15-.02-.22-.03,0,0-.04,0-.09,0-.05,0-.09,0-.09,0-.07,0-.15.01-.22.03,0,0-.06,0-.06.08v1.36h.75v-1.36c0-.08-.06-.08-.06-.08Z"/>
              <path class="st7" d="M5,4.12h-.76v-1.37c0-.08.07-.09.07-.09.06-.01.13-.02.22-.03,0,0,.04,0,.09,0,.05,0,.09,0,.09,0,.09,0,.16.02.22.03,0,0,.07.01.07.09v1.37ZM4.25,4.11h.74v-1.35c0-.07-.06-.07-.06-.07h0c-.06-.01-.13-.02-.22-.03,0,0-.04,0-.09,0-.05,0-.09,0-.09,0-.09,0-.16.02-.22.03,0,0-.06,0-.06.07v1.35Z"/>
            </g>
            <path class="st33" d="M4.91,2.73c-.06-.02-.13-.02-.2-.03,0,0-.03,0-.08,0-.05,0-.08,0-.08,0-.07,0-.14.01-.2.03,0,0-.06,0-.06.08v1.31h.68v-1.31c0-.07-.06-.08-.06-.08Z"/>
            <path class="st44" d="M4.45,3.42s-.03.06-.06.06-.06-.03-.06-.06.03-.06.06-.06.06.03.06.06Z"/>
            <g>
              <g>
                <path class="st12" d="M4.45,3.4s-.03.06-.06.06-.06-.03-.06-.06.03-.06.06-.06.06.03.06.06Z"/>
                <path class="st7" d="M4.38,3.47s-.07-.03-.07-.07.03-.07.07-.07.07.03.07.07-.03.07-.07.07ZM4.38,3.34s-.06.03-.06.06.03.06.06.06.06-.03.06-.06-.03-.06-.06-.06Z"/>
              </g>
              <path class="st37" d="M4.4,3.38s-.02.03-.03.03-.03-.02-.03-.03.02-.03.03-.03.03.02.03.03Z"/>
            </g>
          </g>
          <g>
            <g>
              <g>
                <rect class="st34" x="3.82" y="4.12" width="1.58" height=".23" rx=".04" ry=".04"/>
                <path class="st8" d="M5.36,4.36h-1.49s-.05-.02-.05-.05v-.14s.02-.05.05-.05h1.49s.05.02.05.05v.14s-.02.05-.05.05ZM3.87,4.13s-.04.02-.04.04v.14s.02.04.04.04h1.49s.04-.02.04-.04v-.14s-.02-.04-.04-.04h-1.49Z"/>
              </g>
              <g class="st3">
                <path class="st6" d="M3.82,4.22v.07s.03.06.06.06h1.46s.06-.03.06-.06v-.07h-1.58Z"/>
              </g>
              <g>
                <rect class="st34" x="3.78" y="4.25" width="1.66" height=".2" rx=".04" ry=".04"/>
                <path class="st8" d="M5.4,4.46h-1.58s-.05-.02-.05-.05v-.11s.02-.05.05-.05h1.58s.05.02.05.05v.11s-.02.05-.05.05ZM3.83,4.26s-.04.02-.04.04v.11s.02.04.04.04h1.58s.04-.02.04-.04v-.11s-.02-.04-.04-.04h-1.58Z"/>
              </g>
              <g class="st3">
                <path class="st6" d="M3.78,4.35v.04s.03.06.06.06h1.54s.06-.03.06-.06v-.04h-1.66Z"/>
              </g>
              <g>
                <rect class="st34" x="3.75" y="4.38" width="1.72" height=".24" rx=".04" ry=".04"/>
                <path class="st8" d="M5.43,4.63h-1.63s-.05-.02-.05-.05v-.16s.02-.05.05-.05h1.63s.05.02.05.05v.16s-.02.05-.05.05ZM3.8,4.39s-.04.02-.04.04v.16s.02.04.04.04h1.63s.04-.02.04-.04v-.16s-.02-.04-.04-.04h-1.63Z"/>
              </g>
              <g class="st3">
                <path class="st6" d="M3.75,4.53v.03s.03.06.06.06h1.6s.06-.03.06-.06v-.03h-1.72Z"/>
              </g>
            </g>
            <path class="st13" d="M3.78,4.45s0-.04.05-.05h1.55s.06,0,.06.05c0,0-.02-.03-.09-.03h-1.51s-.03,0-.07.03Z"/>
            <path class="st13" d="M3.8,4.32s0-.05.05-.05h1.51s.06,0,.06.05c0,0-.02-.03-.09-.03h-1.47s-.03,0-.07.04Z"/>
            <path class="st13" d="M3.84,4.19s0-.04.05-.05h1.44s.06,0,.06.05c0,0-.02-.03-.09-.03h-1.4s-.03,0-.06.03Z"/>
          </g>
          <g>
            <rect class="st1" x="2.92" y="4.03" width=".21" height=".08" rx=".03" ry=".03"/>
            <rect class="st1" x="3.15" y="4.03" width=".21" height=".08" rx=".03" ry=".03"/>
            <rect class="st1" x="3.05" y="4.12" width=".21" height=".08" rx=".03" ry=".03"/>
          </g>
          <g>
            <rect class="st1" x="5.46" y="4.06" width=".19" height=".07" rx=".03" ry=".03"/>
            <rect class="st1" x="5.67" y="4.06" width=".19" height=".07" rx=".03" ry=".03"/>
            <rect class="st1" x="5.58" y="4.14" width=".19" height=".07" rx=".03" ry=".03"/>
          </g>
          <g>
            <rect class="st1" x="5.93" y="4.33" width=".19" height=".07" rx=".03" ry=".03"/>
            <rect class="st1" x="6.13" y="4.33" width=".19" height=".07" rx=".03" ry=".03"/>
            <rect class="st1" x="6.04" y="4.42" width=".19" height=".07" rx=".03" ry=".03"/>
          </g>
          <g>
            <rect class="st1" x="3.49" y="4.33" width=".19" height=".07" rx=".03" ry=".03"/>
            <rect class="st1" x="3.4" y="4.41" width=".19" height=".07" rx=".03" ry=".03"/>
          </g>
        </g>
      </g>
      <g id="_x28__x2F_techno_x2F_math_x2F_shapes_x2F_level3_x2F_pentagon_x2F_dog_house.mp3_x29_">
        <path class="st0" d="M18.85,10.44c0-.11-.69-.19-1.53-.19s-1.53.09-1.53.19c0,.07.33.14.82.17-.05.02-.08.05-.08.07,0,.09.36.17.8.17s.8-.08.8-.17c0-.03-.03-.05-.08-.07.49-.03.82-.1.82-.17Z"/>
        <polygon class="st20" points="18.6 8.11 18.6 10.49 16.03 10.49 16.03 8.12 16.76 7.32 17.9 7.32 18.6 8.11"/>
        <polygon class="st23" points="19.26 8.84 18.61 8.84 18.6 8.83 17.33 7.41 16.03 8.84 15.37 8.84 16.03 8.12 16.76 7.32 17.34 6.69 17.9 7.32 18.6 8.11 19.26 8.84"/>
        <path class="st23" d="M17.96,9.16c0-.23-.29-.41-.64-.41s-.64.18-.64.41c0,.02,0,.02,0,.04h0v1.29h1.29v-1.28h0v-.05Z"/>
        <rect class="st22" x="16.94" y="8.03" width=".75" height=".26"/>
        <path d="M17.17,8.07s.03,0,.04,0c.02,0,.03,0,.04.01,0,0,.01.02.01.03,0,0,0,0,0,0,0,0,0,0,0,0h0s0,0,0,0c0,0,0,0,0,0,0,0,0,0,0,0,0,0,0,0,0,0,0,.01-.02.02-.03.03-.01,0-.03,0-.04.01v.05h0s0,0,0,0c0,0,0,0,0,0s0,0,0,0c0,0,0,0,0,0-.01,0-.02,0-.02,0,0,0,0,0,0,0,0,0,0,0,0,0,0,0,0,0,0,0,0,0,0,0,0,0,0,0,0,0,0,0v-.16s0,0,0,0c0,0,0,0,0,0,0,0,0,0,0,0,0,0,0,0,0,0,0,0,0,0,0,0ZM17.18,8.08v.1s.03,0,.04,0c.01,0,.02-.01.02-.02,0,0,0,0,0,0,0,0,0,0,0,0,0,0,0,0,0,0,0,0,0,0,0,0,0,0,0,0,0,0,0,0,0,0,0,0,0,0,0,0,0,0,0,0,0-.02-.01-.02,0,0-.02-.01-.03-.01,0,0-.01,0-.02,0Z"/>
        <path d="M17.33,8.1s0,0,0,.02c0,0,0,.01,0,.02,0,0,0,0,0,0,0,0,0,0,0,0,0,0,0,0,0,0,0,0,0,0,0,0,0,0,0,0,0-.01,0,0-.01,0-.02,0,0,0-.01,0-.02,0,0,.05,0,.08,0,.09,0,0,.01,0,.03,0,.01,0,.02,0,.03,0,0,0,0-.01,0-.02,0,0,0,0,0,0,0,0,0,0,0,0,0,0,0,0,0,0,0,0,0,0,0,0,0,0,0,.01,0,.02h0s0,0,0,0c0,0,0,0,0,0,0,0,0,0,0,0,0,0-.02,0-.03,0-.01,0-.02,0-.03,0,0,0,0,0,0,0,0,0,0,0,0,0h0s0,0,0,0c0,0,0,0,0,0s0,0,0,0c0,0,0,0,0,0h0s0-.02,0-.03c0,0,0-.02,0-.03,0-.01,0-.02,0-.03,0,0,0,0,0-.02,0,0,0-.02,0-.02h0s0,0,0,0c0,0,0,0,0,0s0,0,0,0c0,0,0,0,0,0,0,0,.02,0,.04,0,.02,0,.03,0,.04,0,0,0,0,0,0,0,0,0,0,0,0,0,0,0,0,0,0,0,0,0,0,0,0,0,0,0,0,0,0,0,0,0,0,0,0,0,0,0,0,0,0,0,0,0,0,0,0,0,0,0,0,0,0,0,0,0,0,0,0,0,0,0,0,0,0,0,0,0,0,0,0,0,0,0,0,0,0,0,0,0,0,0,0,0,0,0-.02,0-.03,0-.01,0-.02,0-.03,0,0,0,0,0,0,.01,0,0,0,0,0,.01,0,0,0,0,0,0h.02s.01,0,.02,0c0,0,0,0,0-.01,0,0,0,0,0,0,0,0,0,0,0,0,0,0,0,0,0,0,0,0,0,0,0,0Z"/>
        <path d="M17.41,8.21s0,0,0,0v-.12s-.03,0-.03,0c0,0,0,0,0,.01,0,0,0,0,0,0,0,0,0,0,0,0,0,0,0,0,0,0,0,0,0,0,0,0,0,0,0,0,0-.02,0,0,0,0,0,0,0,0,0,0,0,0h0s.02,0,.04,0c.02,0,.03,0,.04,0,0,0,0,0,0,0,0,0,0,0,0,0,0,0,0,0,0,0,0,0,0,0,0,0,0,0,0,0,0,0,0,0,0,.01,0,.01,0,0,0,0,0,0,0,0,0,0,0,0,0,0,0,0,0,0,0,0,0,0,0,0h0s-.02-.01-.03-.01v.12s0,0,0,0c0,0,0,0,0,0,0,0,0,0,0,0,0,0,0,0,0,0,0,0,0,0,0,0,0,0,0,0-.01,0,0,0,0,0-.01,0,0,0,0,0,0,0,0,0,0,0,0,0,0,0,0,0,0,0,0,0,0,0,0,0Z"/>
        <path class="st21" d="M17.78,10.62h0c-.13.04-.36.02-.38-.09,0-.03.02-.05.05-.07-.04,0-.09.01-.14.01s-.1,0-.14,0c.02.02.05.04.05.07-.02.1-.21.13-.34.1-.09-.02-.16-.07-.12-.13.02-.03.06-.03.11-.02.03,0,.07.02.1.02-.05-.09-.13-.19-.15-.29-.01-.06,0-.17.06-.21,0-.03,0-.06,0-.09,0-.17.03-.34.11-.47-.07-.08-.11-.19-.11-.31,0-.17.09-.32.22-.4.06-.04.14-.06.21-.06.09,0,.17.03.24.08.11.08.19.22.19.38,0,.12-.04.23-.11.31.08.13.11.3.11.46,0,.03,0,.06,0,.09.06.04.07.15.06.21-.02.1-.1.2-.15.29.04,0,.09-.02.13-.02.03,0,.06,0,.08.02.04.06-.01.1-.09.12Z"/>
        <path class="st49" d="M17.53,8.74s-.09.06-.13.09c-.04.02-.08.04-.12,0-.05-.03-.11-.07-.15-.11.05-.03.13-.05.19-.05.08,0,.15.02.21.07Z"/>
        <path class="st24" d="M17.17,8.64s-.32.07-.38.15c-.06.08-.06.39.04.41.1.02.34-.38.34-.55Z"/>
        <path class="st24" d="M17.45,8.64s.32.07.38.15c.06.08.06.39-.04.41-.1.02-.34-.38-.34-.55Z"/>
        <path class="st21" d="M17.14,10.02v.57h0s0,0,0,.01c0,0,0,0,0,0,0,.06-.03.12-.13.1-.1-.02-.03-.04-.03-.1,0,0,0,0,0,0,0,0,0,0,0,0h0l-.08-.44v-.25"/>
        <path class="st21" d="M17.74,9.9v.25s-.08.44-.08.44h0s0,0,0,.01c0,0,0,0,0,0,0,.06.05.09-.05.1-.1.02-.12-.04-.12-.1,0,0,0,0,0,0,0,0,0,0,0-.01h0v-.57"/>
        <path class="st49" d="M17.26,9.16c.07-.06.15.02.19.09.05.08.05.16-.05.19-.06.02-.19.02-.22-.05-.03-.06.04-.2.09-.24Z"/>
        <path d="M17.52,9.1s-.02.05-.04.05-.04-.02-.04-.05.02-.05.04-.05.04.02.04.05Z"/>
        <path d="M17.19,9.1s-.02.05-.04.05-.04-.02-.04-.05.02-.05.04-.05.04.02.04.05Z"/>
        <path d="M17.37,9.22s-.03.05-.06.05-.06-.03-.06-.05c0-.02.03-.01.06-.01s.06-.01.06.01Z"/>
        <path class="st19" d="M17.31,9.27v.05s.03,0,.07.01"/>
        <path class="st19" d="M17.31,9.32s-.02,0-.07.01"/>
        <path class="st49" d="M17.12,10.61s-.02.1-.11.08c-.09-.02-.03-.03-.03-.08,0,0,0,0,0,0,0,0,0,0,0,0,.02,0,.04-.01.06-.01.03,0,.05,0,.08.02Z"/>
        <path class="st49" d="M17.51,10.62s.01.1.11.08c.08-.01.03-.03.03-.09,0,0,0,0,0,0,0,0,0,0,0,0-.02,0-.04-.01-.06-.01-.03,0-.05,0-.07.02Z"/>
        <path class="st49" d="M17.79,10.59s0,0,0,0c0-.01,0-.02,0-.04,0-.02,0-.04,0-.05.02,0,.04,0,.05.02.02.04,0,.07-.06.08Z"/>
        <path class="st49" d="M16.87,10.6c-.07-.01-.12-.05-.09-.09.01-.02.04-.02.08-.01,0,.02,0,.04,0,.05,0,.01,0,.03.01.04,0,0,0,0,0,.01Z"/>
      </g>
      <text id="_x28__x2F_techno_x2F_math_x2F_shapes_x2F_level3_x2F_pentagon_x2F_pentagon.mp3_x29_1" data-name="_x28__x2F_techno_x2F_math_x2F_shapes_x2F_level3_x2F_pentagon_x2F_pentagon.mp3_x29_" class="st27" transform="translate(9.62 8.53)"><tspan x="0" y="0">Pentagon</tspan></text>
      <text id="_x28__x2F_techno_x2F_math_x2F_shapes_x2F_level3_x2F_pentagon_x2F_envelope.mp3_x29_1" data-name="_x28__x2F_techno_x2F_math_x2F_shapes_x2F_level3_x2F_pentagon_x2F_envelope.mp3_x29_" class="st30" transform="translate(16.16 5.45)"><tspan x="0" y="0">Envelope</tspan></text>
      <text id="_x28__x2F_techno_x2F_math_x2F_shapes_x2F_level3_x2F_pentagon_x2F_foot_ball.mp3_x29_" class="st29" transform="translate(3.58 11.32)"><tspan x="0" y="0">Foot ball</tspan></text>
      <text id="_x28__x2F_techno_x2F_math_x2F_shapes_x2F_level3_x2F_pentagon_x2F_house.mp3_x29_1" data-name="_x28__x2F_techno_x2F_math_x2F_shapes_x2F_level3_x2F_pentagon_x2F_house.mp3_x29_" class="st28" transform="translate(3.58 5.63)"><tspan x="0" y="0">House</tspan></text>
      <text id="_x28__x2F_techno_x2F_math_x2F_shapes_x2F_level3_x2F_pentagon_x2F_dog_house.mp3_x29_1" data-name="_x28__x2F_techno_x2F_math_x2F_shapes_x2F_level3_x2F_pentagon_x2F_dog_house.mp3_x29_" class="st31" transform="translate(16.32 11.35)"><tspan x="0" y="0">Dog house</tspan></text>
      <g id="_x28__x2F_techno_x2F_math_x2F_shapes_x2F_level3_x2F_pentagon_x2F_foot_ball.mp3_x29_1" data-name="_x28__x2F_techno_x2F_math_x2F_shapes_x2F_level3_x2F_pentagon_x2F_foot_ball.mp3_x29_">
        <ellipse class="st25" cx="4.58" cy="8.7" rx="1.69" ry="1.76"/>
        <path class="st11" d="M4.01,10.36c-.21-.18-.39-.42-.5-.71-.35-.9.07-1.93.94-2.29.4-.17.82-.16,1.2-.02-.46-.39-1.11-.52-1.7-.28-.87.36-1.29,1.39-.94,2.29.19.49.56.84,1,1Z"/>
        <path class="st4" d="M3.9,10.32c-.3-.19-.54-.48-.68-.84-.35-.9.07-1.93.94-2.29.44-.18.9-.16,1.3.02-.44-.28-1-.35-1.52-.14-.87.36-1.29,1.39-.94,2.29.17.45.5.78.89.96Z"/>
        <path class="st51" d="M5.22,10.38c.89-.37,1.32-1.42.96-2.34s-1.36-1.37-2.25-1-1.32,1.42-.96,2.34,1.36,1.37,2.25,1ZM5.68,7.6c.28.21.42.51.44.54.04.39-.06.64-.08.68-.19.05-.41.13-.48.16-.03-.09-.15-.37-.48-.61.02-.06.08-.34.08-.67.29-.16.49-.1.52-.09ZM4.51,9.81c-.11-.15-.4-.47-.45-.52.08-.37.24-.68.27-.73.06,0,.4-.04.72-.16.36.27.46.57.47.61l-.25.7c-.07.02-.49.14-.77.1ZM5.67,9.97c.11-.11.22-.24.3-.34-.09.16-.21.3-.35.42.03-.04.05-.07.05-.07ZM6.07,8.84s.11-.27.09-.63c.1.36.09.74-.03,1.07.01-.23-.05-.4-.06-.44ZM3.94,7.91c.02.06.17.41.35.63-.04.06-.19.37-.27.74-.24.02-.51.08-.57.09-.04-.04-.22-.26-.36-.62.11-.49.23-.68.25-.71.35-.17.56-.14.6-.13ZM2.92,8.76h.13c.15.39.33.6.37.64,0,.21.05.43.07.5-.02,0-.06,0-.11,0-.14-.15-.26-.34-.34-.55-.07-.19-.11-.39-.12-.59ZM3.42,9.94s.07,0,.09,0c.33.23.64.32.68.33.07.07.17.12.26.16-.38-.03-.75-.2-1.02-.48ZM4.58,10.42c-.09-.03-.25-.09-.35-.18.16-.16.26-.34.28-.39.29.04.7-.08.78-.1.13.13.28.19.34.21-.03.04-.1.14-.22.23-.07.04-.14.08-.21.11-.2.08-.4.12-.61.12ZM5.51,7.28h0s.02.02.02.02c.08.08.12.19.14.25-.06-.01-.21-.03-.41.05-.03.01-.07.03-.1.05-.03-.02-.11-.08-.21-.14-.12-.07-.29-.16-.45-.18-.04-.15-.09-.24-.11-.28.03-.02.09-.05.19-.08.34,0,.67.1.95.3ZM4.14,7.04c.05,0,.12,0,.19.03.01.02.07.11.11.28-.06.04-.32.23-.5.53-.05-.01-.22-.04-.52.08-.03.01-.06.03-.09.04-.08-.19-.05-.32-.05-.32v-.03s-.03.01-.03.01c.17-.24.41-.43.69-.55.06-.03.12-.05.18-.06Z"/>
        <ellipse class="st10" cx="5.81" cy="9.38" rx=".58" ry=".24" transform="translate(-5.18 10.41) rotate(-63.6)"/>
        <path class="st9" d="M5.74,9.73c.06.03.17-.08.26-.25.09-.17.11-.34.05-.37-.06-.03-.17.08-.26.25-.09.17-.11.34-.05.37Z"/>
      </g>
    </g>
  </g>
</svg>